<?xml version="1.0" encoding="UTF-8"?>
<svg width="334px" height="191px" viewBox="0 0 334 191" version="1.1" xmlns="http://www.w3.org/2000/svg" xmlns:xlink="http://www.w3.org/1999/xlink">
    <!-- Generator: Sketch 53.2 (72643) - https://sketchapp.com -->
    <title>dropdown/inbox/sidebar/selectMessage</title>
    <desc>Created with Sketch.</desc>
    <defs>
        <rect id="path-1" x="0" y="0" width="334" height="133" rx="4"></rect>
        <filter x="-3.0%" y="-3.8%" width="106.0%" height="115.0%" filterUnits="objectBoundingBox" id="filter-2">
            <feOffset dx="0" dy="5" in="SourceAlpha" result="shadowOffsetOuter1"></feOffset>
            <feGaussianBlur stdDeviation="2.5" in="shadowOffsetOuter1" result="shadowBlurOuter1"></feGaussianBlur>
            <feColorMatrix values="0 0 0 0 0.494117647   0 0 0 0 0.494117647   0 0 0 0 0.494117647  0 0 0 0.5 0" type="matrix" in="shadowBlurOuter1"></feColorMatrix>
        </filter>
        <filter x="-2.6%" y="-8.3%" width="105.2%" height="116.7%" filterUnits="objectBoundingBox" id="filter-3">
            <feOffset dx="0" dy="1" in="SourceAlpha" result="shadowOffsetOuter1"></feOffset>
            <feGaussianBlur stdDeviation="1.5" in="shadowOffsetOuter1" result="shadowBlurOuter1"></feGaussianBlur>
            <feColorMatrix values="0 0 0 0 0   0 0 0 0 0   0 0 0 0 0  0 0 0 0.5 0" type="matrix" in="shadowBlurOuter1" result="shadowMatrixOuter1"></feColorMatrix>
            <feMerge>
                <feMergeNode in="shadowMatrixOuter1"></feMergeNode>
                <feMergeNode in="SourceGraphic"></feMergeNode>
            </feMerge>
        </filter>
    </defs>
    <g id="dropdown/inbox/sidebar/selectMessage" stroke="none" stroke-width="1" fill="none" fill-rule="evenodd">
        <g id="bg">
            <use fill="black" fill-opacity="1" filter="url(#filter-2)" xlink:href="#path-1"></use>
            <use fill="#FAFAFA" fill-rule="evenodd" xlink:href="#path-1"></use>
        </g>
        <g id="btn_toggle" transform="translate(162.000000, 102.000000)">
            <circle id="Oval" stroke="#000000" fill="#000000" cx="12.5" cy="12.5" r="12.5"></circle>
            <polyline id="Path-2" stroke="#FFFFFF" stroke-width="2" stroke-linecap="round" stroke-linejoin="round" transform="translate(12.796360, 12.253501) rotate(-270.000000) translate(-12.796360, -12.253501) " points="15.3276379 7.79047427 10.2650813 12.2760275 15.3276379 16.7165268"></polyline>
        </g>
        <g id="search" transform="translate(15.000000, 18.000000)">
            <g id="inbox_search">
                <rect id="Rectangle" fill="#EAEAEA" x="0" y="0" width="307" height="32" rx="4"></rect>
                <path d="M21.0057176,17.8050314 L20.3733562,17.8050314 L20.1492281,17.5889079 C20.9336764,16.6763865 21.4059463,15.4917095 21.4059463,14.2029731 C21.4059463,11.329331 19.0766152,9 16.2029731,9 C13.329331,9 11,11.329331 11,14.2029731 C11,17.0766152 13.329331,19.4059463 16.2029731,19.4059463 C17.4917095,19.4059463 18.6763865,18.9336764 19.5889079,18.1492281 L19.8050314,18.3733562 L19.8050314,19.0057176 L23.8073185,23 L25,21.8073185 L21.0057176,17.8050314 Z M16.2029731,17.8050314 C14.2098342,17.8050314 12.6009148,16.1961121 12.6009148,14.2029731 C12.6009148,12.2098342 14.2098342,10.6009148 16.2029731,10.6009148 C18.1961121,10.6009148 19.8050314,12.2098342 19.8050314,14.2029731 C19.8050314,16.1961121 18.1961121,17.8050314 16.2029731,17.8050314 Z" id="Shape" fill="#4A4A4A" fill-rule="nonzero"></path>
                <text id="input-text" font-family="SourceHanSansTW-Bold, Source Han Sans TW" font-size="12" font-weight="bold" letter-spacing="1.8" fill="#4A4A4A">
                    <tspan x="34" y="20">搜尋⋯</tspan>
                </text>
            </g>
        </g>
        <g id="droplist/inbox/sidebar/selectMessage/desktop" transform="translate(15.000000, 60.000000)">
            <g id="droplist_inbox_selectMessage" stroke-width="1" fill-rule="evenodd">
                <g id="inbox_dropdown_unread">
                    <rect id="Rectangle" stroke="#4A4A4A" fill="#FAFAFA" x="0.5" y="0.5" width="306" height="31" rx="4"></rect>
                    <text id="所有訊息" font-family="SourceHanSansTW-Bold, Source Han Sans TW" font-size="12" font-weight="bold" letter-spacing="2" fill="#4A4A4A">
                        <tspan x="16" y="21">所有訊</tspan>
                        <tspan x="58" y="21">息</tspan>
                    </text>
                </g>
            </g>
            <g id="droplist" filter="url(#filter-3)" stroke-width="1" fill-rule="evenodd" transform="translate(0.000000, 35.000000)">
                <rect id="Rectangle" fill="#828282" x="0" y="0" width="307" height="96"></rect>
                <text id="未讀訊息-(4)" font-family="SourceHanSansTW-Bold, Source Han Sans TW" font-size="12" font-weight="bold" letter-spacing="0.5" fill="#FFFFFF">
                    <tspan x="16" y="25">未讀訊息 (4)</tspan>
                </text>
                <text id="已讀訊息" font-family="SourceHanSansTW-Bold, Source Han Sans TW" font-size="12" font-weight="bold" letter-spacing="0.5" fill="#FFFFFF">
                    <tspan x="16" y="54">已讀訊息</tspan>
                </text>
                <rect id="Rectangle" fill="#4A4A4A" x="0" y="64" width="307" height="32"></rect>
                <text id="已標示訊息" font-family="SourceHanSansTW-Bold, Source Han Sans TW" font-size="12" font-weight="bold" letter-spacing="0.5" fill="#FFFFFF">
                    <tspan x="16" y="84">已標示訊息</tspan>
                </text>
            </g>
            <polyline id="Path-2" stroke="#4A4A4A" stroke-width="2" stroke-linecap="round" stroke-linejoin="round" transform="translate(281.463026, 16.531278) rotate(-90.000000) translate(-281.463026, -16.531278) " points="283.994305 12.068252 278.931748 16.5538053 283.994305 20.9943046"></polyline>
        </g>
    </g>
</svg>