<?xml version="1.0" encoding="UTF-8"?>
<svg width="567px" height="169px" viewBox="0 0 567 169" version="1.1" xmlns="http://www.w3.org/2000/svg" xmlns:xlink="http://www.w3.org/1999/xlink">
    <!-- Generator: Sketch 53.2 (72643) - https://sketchapp.com -->
    <title>discount_content</title>
    <desc>Created with Sketch.</desc>
    <g id="discountCode" stroke="none" stroke-width="1" fill="none" fill-rule="evenodd">
        <g id="backstage_discountCode_a:link_v3" transform="translate(-434.000000, -982.000000)">
            <g id="discount_content" transform="translate(434.000000, 979.000000)">
                <g id="discount_table">
                    <rect id="Rectangle" fill="#FFFFFF" x="0" y="27" width="510" height="30"></rect>
                    <rect id="Rectangle-Copy-2" fill="#FFFFFF" x="0" y="87" width="510" height="30"></rect>
                    <rect id="Rectangle-Copy" fill="#F5F5F5" x="0" y="57" width="510" height="30"></rect>
                    <text id="優惠碼名稱" font-family="SourceHanSansTW-Regular, Source Han Sans TW" font-size="12" font-weight="normal" letter-spacing="1" fill="#4A4A4A">
                        <tspan x="5" y="14">優惠碼名</tspan>
                        <tspan x="57" y="14">稱</tspan>
                    </text>
                    <text id="折扣金額" font-family="SourceHanSansTW-Regular, Source Han Sans TW" font-size="12" font-weight="normal" letter-spacing="1" fill="#4A4A4A">
                        <tspan x="210" y="14">折扣金</tspan>
                        <tspan x="249" y="14">額</tspan>
                    </text>
                    <text id="組數" font-family="SourceHanSansTW-Regular, Source Han Sans TW" font-size="12" font-weight="normal" line-spacing="18" letter-spacing="1" fill="#4A4A4A">
                        <tspan x="295" y="14">組</tspan>
                        <tspan x="308" y="14">數</tspan>
                    </text>
                    <text id="使用期限" font-family="SourceHanSansTW-Regular, Source Han Sans TW" font-size="12" font-weight="normal" line-spacing="18" letter-spacing="1" fill="#4A4A4A">
                        <tspan x="365" y="14">使用期</tspan>
                        <tspan x="404" y="14">限</tspan>
                    </text>
                    <text id="老客戶優惠" font-family="SourceHanSansTW-Normal, Source Han Sans TW" font-size="11" font-weight="normal" line-spacing="19" letter-spacing="0.5" fill="#4A4A4A">
                        <tspan x="5" y="45">老客戶優惠</tspan>
                    </text>
                    <text id="這次真的殺很大！雙十一優惠" font-family="SourceHanSansTW-Normal, Source Han Sans TW" font-size="11" font-weight="normal" line-spacing="19" letter-spacing="0.5" fill="#4A4A4A">
                        <tspan x="5" y="75">這次真的殺很大！雙十一優</tspan>
                        <tspan x="143" y="75">惠</tspan>
                    </text>
                    <text id="雙十國慶優惠" font-family="SourceHanSansTW-Normal, Source Han Sans TW" font-size="11" font-weight="normal" line-spacing="19" letter-spacing="0.5" fill="#4A4A4A">
                        <tspan x="5" y="105">雙十國慶優</tspan>
                        <tspan x="62.5" y="105">惠</tspan>
                    </text>
                    <text id="$1,000" font-family="SourceHanSansTW-Normal, Source Han Sans TW" font-size="11" font-weight="normal" line-spacing="19" letter-spacing="0.4583333" fill="#4A4A4A">
                        <tspan x="210" y="45">$1,000</tspan>
                    </text>
                    <text id="$100" font-family="SourceHanSansTW-Normal, Source Han Sans TW" font-size="11" font-weight="normal" line-spacing="19" letter-spacing="0.4583333" fill="#4A4A4A">
                        <tspan x="210" y="75">$100</tspan>
                    </text>
                    <text id="$1,000-copy-2" font-family="SourceHanSansTW-Normal, Source Han Sans TW" font-size="11" font-weight="normal" line-spacing="19" letter-spacing="0.4583333" fill="#4A4A4A">
                        <tspan x="210" y="106">$1,000</tspan>
                    </text>
                    <text id="350" font-family="SourceHanSansTW-Normal, Source Han Sans TW" font-size="11" font-weight="normal" line-spacing="19" letter-spacing="0.4583333" fill="#4A4A4A">
                        <tspan x="295" y="45">350</tspan>
                    </text>
                    <text id="1,500" font-family="SourceHanSansTW-Normal, Source Han Sans TW" font-size="11" font-weight="normal" line-spacing="19" letter-spacing="0.4583333" fill="#4A4A4A">
                        <tspan x="295" y="75">1,500</tspan>
                    </text>
                    <text id="350" font-family="SourceHanSansTW-Normal, Source Han Sans TW" font-size="11" font-weight="normal" line-spacing="19" letter-spacing="0.4583333" fill="#4A4A4A">
                        <tspan x="295" y="106">350</tspan>
                    </text>
                    <text id="2018/10/01-2018/10/1" font-family="SourceHanSansTW-Normal, Source Han Sans TW" font-size="11" font-weight="normal" line-spacing="19" letter-spacing="0.4583333" fill="#4A4A4A">
                        <tspan x="366" y="45">2018/10/01-2018/10/15</tspan>
                    </text>
                    <text id="2018/11/11-2018/11/1" font-family="SourceHanSansTW-Normal, Source Han Sans TW" font-size="11" font-weight="normal" line-spacing="19" letter-spacing="0.4583333" fill="#4A4A4A">
                        <tspan x="366" y="75">2018/11/11-2018/11/12</tspan>
                    </text>
                    <text id="2018/10/10-2018/10/1" font-family="SourceHanSansTW-Normal, Source Han Sans TW" font-size="11" font-weight="normal" line-spacing="19" letter-spacing="0.4583333" fill="#4A4A4A">
                        <tspan x="366" y="106">2018/10/10-2018/10/17</tspan>
                    </text>
                    <g id="edit" transform="translate(521.000000, 33.000000)" fill-rule="nonzero">
                        <path d="M4.34062624,0 L12.868404,-3.10862447e-15 C15.077543,-3.51443672e-15 16.868404,1.790861 16.868404,4 L16.868404,13 C16.868404,15.209139 15.077543,17 12.868404,17 L4.34062624,17 C2.13148725,17 0.340626245,15.209139 0.340626245,13 L0.340626245,4 C0.340626245,1.790861 2.13148725,4.05812251e-16 4.34062624,0 Z" id="Rectangle" fill="#515151"></path>
                        <path d="M8.10022203,6.05767233 L4.18377887,10.6271462 L4.00195431,12.5498947 C3.97886548,12.8058121 4.16357614,13.0246889 4.38580615,12.9977503 L6.03377154,12.7856081 L9.95021471,8.21613422 C10.0165951,8.13868551 10.0165951,8.01072677 9.95021471,7.92991073 L8.34842697,6.06103967 C8.27627437,5.98022362 8.16660242,5.98022362 8.10022203,6.05767233 Z M12.7087683,4.54993481 L11.4519833,3.29413299 C11.059499,2.90195567 10.4248434,2.90195567 10.0365344,3.29413299 L9.07202505,4.25788787 C8.97599165,4.35384615 8.97599165,4.51238592 9.07202505,4.6125163 L11.3893528,6.92803129 C11.4853862,7.02398957 11.6440501,7.02398957 11.7442589,6.92803129 L12.7087683,5.9642764 C13.0970772,5.57627119 13.0970772,4.94211213 12.7087683,4.54993481 Z" id="Shape" fill="#FFFFFF"></path>
                    </g>
                    <g id="edit-copy" transform="translate(521.000000, 64.000000)" fill-rule="nonzero">
                        <path d="M4.34062624,0 L12.868404,-3.10862447e-15 C15.077543,-3.51443672e-15 16.868404,1.790861 16.868404,4 L16.868404,13 C16.868404,15.209139 15.077543,17 12.868404,17 L4.34062624,17 C2.13148725,17 0.340626245,15.209139 0.340626245,13 L0.340626245,4 C0.340626245,1.790861 2.13148725,4.05812251e-16 4.34062624,0 Z" id="Rectangle" fill="#515151"></path>
                        <path d="M8.8969183,6.01302762 L4.45828271,11.0068098 L4.25221489,13.1080992 C4.22604754,13.3877804 4.43538629,13.6269815 4.68724697,13.5975414 L6.55494108,13.3657003 L10.9935767,8.37191811 C11.0688078,8.28727774 11.0688078,8.14743711 10.9935767,8.05911672 L9.17821724,6.01670764 C9.09644429,5.92838724 8.97214941,5.92838724 8.8969183,6.01302762 Z M13.2905663,5.04680574 L11.9552323,3.7125163 C11.5382176,3.2958279 10.8638961,3.2958279 10.4513178,3.7125163 L9.42652662,4.73650587 C9.32449113,4.83846154 9.32449113,5.00691004 9.42652662,5.11329857 L11.8886874,7.57353325 C11.9907229,7.67548892 12.1593032,7.67548892 12.2657751,7.57353325 L13.2905663,6.54954368 C13.7031446,6.13728814 13.7031446,5.46349413 13.2905663,5.04680574 Z" id="Shape" fill="#FFFFFF"></path>
                    </g>
                    <g id="edit-copy-2" transform="translate(521.000000, 94.000000)" fill-rule="nonzero">
                        <path d="M4.34062624,0 L12.868404,-3.10862447e-15 C15.077543,-3.51443672e-15 16.868404,1.790861 16.868404,4 L16.868404,13 C16.868404,15.209139 15.077543,17 12.868404,17 L4.34062624,17 C2.13148725,17 0.340626245,15.209139 0.340626245,13 L0.340626245,4 C0.340626245,1.790861 2.13148725,4.05812251e-16 4.34062624,0 Z" id="Rectangle" fill="#515151"></path>
                        <path d="M8.8969183,6.01302762 L4.45828271,11.0068098 L4.25221489,13.1080992 C4.22604754,13.3877804 4.43538629,13.6269815 4.68724697,13.5975414 L6.55494108,13.3657003 L10.9935767,8.37191811 C11.0688078,8.28727774 11.0688078,8.14743711 10.9935767,8.05911672 L9.17821724,6.01670764 C9.09644429,5.92838724 8.97214941,5.92838724 8.8969183,6.01302762 Z M13.2905663,5.04680574 L11.9552323,3.7125163 C11.5382176,3.2958279 10.8638961,3.2958279 10.4513178,3.7125163 L9.42652662,4.73650587 C9.32449113,4.83846154 9.32449113,5.00691004 9.42652662,5.11329857 L11.8886874,7.57353325 C11.9907229,7.67548892 12.1593032,7.67548892 12.2657751,7.57353325 L13.2905663,6.54954368 C13.7031446,6.13728814 13.7031446,5.46349413 13.2905663,5.04680574 Z" id="Shape" fill="#FFFFFF"></path>
                    </g>
                    <g id="file_download" transform="translate(550.000000, 33.000000)" fill-rule="nonzero">
                        <path d="M4,0 L13,-3.10862447e-15 C15.209139,-3.51443672e-15 17,1.790861 17,4 L17,13 C17,15.209139 15.209139,17 13,17 L4,17 C1.790861,17 2.705415e-16,15.209139 0,13 L0,4 C-2.705415e-16,1.790861 1.790861,4.05812251e-16 4,0 Z" id="Rectangle" fill="#515151"></path>
                        <g id="file-download-solid" transform="translate(4.128571, 3.157143)" fill="#FFFFFF">
                            <path d="M5.0797619,2.95223214 L5.0797619,0.242857143 L0.652678571,0.242857143 C0.35827753,0.242857143 0.121428571,0.456021205 0.121428571,0.720982143 L0.121428571,9.96473214 C0.121428571,10.2296931 0.35827753,10.4428571 0.652678571,10.4428571 L8.09017857,10.4428571 C8.38457961,10.4428571 8.62142857,10.2296931 8.62142857,9.96473214 L8.62142857,3.43035714 L5.6110119,3.43035714 C5.3188244,3.43035714 5.0797619,3.21520089 5.0797619,2.95223214 Z M6.77201451,7.16291964 L4.63771763,9.06944308 C4.49051711,9.20112667 4.25278274,9.20112667 4.10558222,9.06944308 L1.97128534,7.16291964 C1.74661086,6.96230636 1.90421503,6.61785714 2.22030878,6.61785714 L3.66309524,6.61785714 L3.66309524,5.02410714 C3.66309524,4.84799777 3.82158482,4.70535714 4.0172619,4.70535714 L4.72559524,4.70535714 C4.92127232,4.70535714 5.0797619,4.84799777 5.0797619,5.02410714 L5.0797619,6.61785714 L6.52254836,6.61785714 C6.83864211,6.61785714 6.99624628,6.96230636 6.77201451,7.16291964 Z M8.46648065,2.33465402 L6.29942336,0.382310268 C6.19981399,0.29266183 6.06478795,0.242857143 5.92312128,0.242857143 L5.78809524,0.242857143 L5.78809524,2.79285714 L8.62142857,2.79285714 L8.62142857,2.67133371 C8.62142857,2.54582589 8.56609003,2.42430246 8.46648065,2.33465402 Z" id="Shape"></path>
                        </g>
                    </g>
                    <g id="file_download-copy" transform="translate(550.000000, 64.000000)" fill-rule="nonzero">
                        <path d="M4,0 L13,0 C15.209139,-4.05812251e-16 17,1.790861 17,4 L17,13 C17,15.209139 15.209139,17 13,17 L4,17 C1.790861,17 1.25159629e-15,15.209139 0,13 L0,4 C-2.705415e-16,1.790861 1.790861,4.05812251e-16 4,0 Z" id="Rectangle" fill="#515151"></path>
                        <g id="file-download-solid" transform="translate(4.128571, 3.157143)" fill="#FFFFFF">
                            <path d="M5.0797619,2.95223214 L5.0797619,0.242857143 L0.652678571,0.242857143 C0.35827753,0.242857143 0.121428571,0.456021205 0.121428571,0.720982143 L0.121428571,9.96473214 C0.121428571,10.2296931 0.35827753,10.4428571 0.652678571,10.4428571 L8.09017857,10.4428571 C8.38457961,10.4428571 8.62142857,10.2296931 8.62142857,9.96473214 L8.62142857,3.43035714 L5.6110119,3.43035714 C5.3188244,3.43035714 5.0797619,3.21520089 5.0797619,2.95223214 Z M6.77201451,7.16291964 L4.63771763,9.06944308 C4.49051711,9.20112667 4.25278274,9.20112667 4.10558222,9.06944308 L1.97128534,7.16291964 C1.74661086,6.96230636 1.90421503,6.61785714 2.22030878,6.61785714 L3.66309524,6.61785714 L3.66309524,5.02410714 C3.66309524,4.84799777 3.82158482,4.70535714 4.0172619,4.70535714 L4.72559524,4.70535714 C4.92127232,4.70535714 5.0797619,4.84799777 5.0797619,5.02410714 L5.0797619,6.61785714 L6.52254836,6.61785714 C6.83864211,6.61785714 6.99624628,6.96230636 6.77201451,7.16291964 Z M8.46648065,2.33465402 L6.29942336,0.382310268 C6.19981399,0.29266183 6.06478795,0.242857143 5.92312128,0.242857143 L5.78809524,0.242857143 L5.78809524,2.79285714 L8.62142857,2.79285714 L8.62142857,2.67133371 C8.62142857,2.54582589 8.56609003,2.42430246 8.46648065,2.33465402 Z" id="Shape"></path>
                        </g>
                    </g>
                    <g id="file_download-copy-2" transform="translate(550.000000, 94.000000)" fill-rule="nonzero">
                        <path d="M4,0 L13,-3.10862447e-15 C15.209139,-3.51443672e-15 17,1.790861 17,4 L17,13 C17,15.209139 15.209139,17 13,17 L4,17 C1.790861,17 2.705415e-16,15.209139 0,13 L0,4 C-2.705415e-16,1.790861 1.790861,4.05812251e-16 4,0 Z" id="Rectangle" fill="#515151"></path>
                        <g id="file-download-solid" transform="translate(4.128571, 3.157143)" fill="#FFFFFF">
                            <path d="M5.0797619,2.95223214 L5.0797619,0.242857143 L0.652678571,0.242857143 C0.35827753,0.242857143 0.121428571,0.456021205 0.121428571,0.720982143 L0.121428571,9.96473214 C0.121428571,10.2296931 0.35827753,10.4428571 0.652678571,10.4428571 L8.09017857,10.4428571 C8.38457961,10.4428571 8.62142857,10.2296931 8.62142857,9.96473214 L8.62142857,3.43035714 L5.6110119,3.43035714 C5.3188244,3.43035714 5.0797619,3.21520089 5.0797619,2.95223214 Z M6.77201451,7.16291964 L4.63771763,9.06944308 C4.49051711,9.20112667 4.25278274,9.20112667 4.10558222,9.06944308 L1.97128534,7.16291964 C1.74661086,6.96230636 1.90421503,6.61785714 2.22030878,6.61785714 L3.66309524,6.61785714 L3.66309524,5.02410714 C3.66309524,4.84799777 3.82158482,4.70535714 4.0172619,4.70535714 L4.72559524,4.70535714 C4.92127232,4.70535714 5.0797619,4.84799777 5.0797619,5.02410714 L5.0797619,6.61785714 L6.52254836,6.61785714 C6.83864211,6.61785714 6.99624628,6.96230636 6.77201451,7.16291964 Z M8.46648065,2.33465402 L6.29942336,0.382310268 C6.19981399,0.29266183 6.06478795,0.242857143 5.92312128,0.242857143 L5.78809524,0.242857143 L5.78809524,2.79285714 L8.62142857,2.79285714 L8.62142857,2.67133371 C8.62142857,2.54582589 8.56609003,2.42430246 8.46648065,2.33465402 Z" id="Shape"></path>
                        </g>
                    </g>
                    <rect id="Rectangle" fill="#D8D8D8" x="0" y="24" width="510" height="3"></rect>
                </g>
                <g id="btn_addDiscountCode" transform="translate(0.000000, 137.000000)">
                    <path d="M6.409713,-2.58960077e-16 L103.590287,2.58960077e-16 C105.819084,-1.50463262e-16 106.627299,0.232064028 107.442114,0.667831759 C108.256929,1.10359949 108.896401,1.74307093 109.332168,2.55788574 C109.767936,3.37270056 110,4.18091615 110,6.409713 L110,28.590287 C110,30.8190838 109.767936,31.6272994 109.332168,32.4421143 C108.896401,33.2569291 108.256929,33.8964005 107.442114,34.3321682 C106.627299,34.767936 105.819084,35 103.590287,35 L6.409713,35 C4.18091615,35 3.37270056,34.767936 2.55788574,34.3321682 C1.74307093,33.8964005 1.10359949,33.2569291 0.667831759,32.4421143 C0.232064028,31.6272994 1.00308841e-16,30.8190838 -1.72640051e-16,28.590287 L1.72640051e-16,6.409713 C-1.00308841e-16,4.18091615 0.232064028,3.37270056 0.667831759,2.55788574 C1.10359949,1.74307093 1.74307093,1.10359949 2.55788574,0.667831759 C3.37270056,0.232064028 4.18091615,1.50463262e-16 6.409713,-2.58960077e-16 Z" id="Rectangle-3" fill="#4A4A4A"></path>
                    <text id="新增優惠碼" font-family="SourceHanSansTW-Bold, Source Han Sans TW" font-size="12" font-weight="bold" letter-spacing="3" fill="#FFFFFF">
                        <tspan x="19.5" y="22">新增優惠碼</tspan>
                    </text>
                </g>
            </g>
        </g>
    </g>
</svg>