<svg width="100" height="100" viewBox="0 0 100 100" fill="none" xmlns="http://www.w3.org/2000/svg">
<path d="M3.37838 1.68919C3.37838 2.6221 2.6221 3.37838 1.68919 3.37838C0.756276 3.37838 0 2.6221 0 1.68919C0 0.756276 0.756276 0 1.68919 0C2.6221 0 3.37838 0.756276 3.37838 1.68919Z" fill="#92D2FF"/>
<path d="M12.1622 1.68919C12.1622 2.6221 11.4059 3.37838 10.473 3.37838C9.54006 3.37838 8.78378 2.6221 8.78378 1.68919C8.78378 0.756276 9.54006 0 10.473 0C11.4059 0 12.1622 0.756276 12.1622 1.68919Z" fill="#92D2FF"/>
<path d="M20.9459 1.68919C20.9459 2.6221 20.1897 3.37838 19.2568 3.37838C18.3238 3.37838 17.5676 2.6221 17.5676 1.68919C17.5676 0.756276 18.3238 0 19.2568 0C20.1897 0 20.9459 0.756276 20.9459 1.68919Z" fill="#92D2FF"/>
<path d="M29.7297 1.68919C29.7297 2.6221 28.9735 3.37838 28.0405 3.37838C27.1076 3.37838 26.3514 2.6221 26.3514 1.68919C26.3514 0.756276 27.1076 0 28.0405 0C28.9735 0 29.7297 0.756276 29.7297 1.68919Z" fill="#92D2FF"/>
<path d="M38.5135 1.68919C38.5135 2.6221 37.7572 3.37838 36.8243 3.37838C35.8914 3.37838 35.1351 2.6221 35.1351 1.68919C35.1351 0.756276 35.8914 0 36.8243 0C37.7572 0 38.5135 0.756276 38.5135 1.68919Z" fill="#92D2FF"/>
<path d="M47.2973 1.68919C47.2973 2.6221 46.541 3.37838 45.6081 3.37838C44.6752 3.37838 43.9189 2.6221 43.9189 1.68919C43.9189 0.756276 44.6752 0 45.6081 0C46.541 0 47.2973 0.756276 47.2973 1.68919Z" fill="#92D2FF"/>
<path d="M56.0811 1.68919C56.0811 2.6221 55.3248 3.37838 54.3919 3.37838C53.459 3.37838 52.7027 2.6221 52.7027 1.68919C52.7027 0.756276 53.459 0 54.3919 0C55.3248 0 56.0811 0.756276 56.0811 1.68919Z" fill="#92D2FF"/>
<path d="M64.8649 1.68919C64.8649 2.6221 64.1086 3.37838 63.1757 3.37838C62.2428 3.37838 61.4865 2.6221 61.4865 1.68919C61.4865 0.756276 62.2428 0 63.1757 0C64.1086 0 64.8649 0.756276 64.8649 1.68919Z" fill="#92D2FF"/>
<path d="M73.6487 1.68919C73.6487 2.6221 72.8924 3.37838 71.9595 3.37838C71.0265 3.37838 70.2703 2.6221 70.2703 1.68919C70.2703 0.756276 71.0265 0 71.9595 0C72.8924 0 73.6487 0.756276 73.6487 1.68919Z" fill="#92D2FF"/>
<path d="M82.4324 1.68919C82.4324 2.6221 81.6762 3.37838 80.7432 3.37838C79.8103 3.37838 79.0541 2.6221 79.0541 1.68919C79.0541 0.756276 79.8103 0 80.7432 0C81.6762 0 82.4324 0.756276 82.4324 1.68919Z" fill="#92D2FF"/>
<path d="M91.2162 1.68919C91.2162 2.6221 90.4599 3.37838 89.527 3.37838C88.5941 3.37838 87.8378 2.6221 87.8378 1.68919C87.8378 0.756276 88.5941 0 89.527 0C90.4599 0 91.2162 0.756276 91.2162 1.68919Z" fill="#92D2FF"/>
<path d="M100 1.68919C100 2.6221 99.2437 3.37838 98.3108 3.37838C97.3779 3.37838 96.6216 2.6221 96.6216 1.68919C96.6216 0.756276 97.3779 0 98.3108 0C99.2437 0 100 0.756276 100 1.68919Z" fill="#92D2FF"/>
<path d="M3.37838 10.473C3.37838 11.4059 2.6221 12.1622 1.68919 12.1622C0.756276 12.1622 0 11.4059 0 10.473C0 9.54006 0.756276 8.78378 1.68919 8.78378C2.6221 8.78378 3.37838 9.54006 3.37838 10.473Z" fill="#92D2FF"/>
<path d="M12.1622 10.473C12.1622 11.4059 11.4059 12.1622 10.473 12.1622C9.54006 12.1622 8.78378 11.4059 8.78378 10.473C8.78378 9.54006 9.54006 8.78378 10.473 8.78378C11.4059 8.78378 12.1622 9.54006 12.1622 10.473Z" fill="#92D2FF"/>
<path d="M20.9459 10.473C20.9459 11.4059 20.1897 12.1622 19.2568 12.1622C18.3238 12.1622 17.5676 11.4059 17.5676 10.473C17.5676 9.54006 18.3238 8.78378 19.2568 8.78378C20.1897 8.78378 20.9459 9.54006 20.9459 10.473Z" fill="#92D2FF"/>
<path d="M29.7297 10.473C29.7297 11.4059 28.9735 12.1622 28.0405 12.1622C27.1076 12.1622 26.3514 11.4059 26.3514 10.473C26.3514 9.54006 27.1076 8.78378 28.0405 8.78378C28.9735 8.78378 29.7297 9.54006 29.7297 10.473Z" fill="#92D2FF"/>
<path d="M38.5135 10.473C38.5135 11.4059 37.7572 12.1622 36.8243 12.1622C35.8914 12.1622 35.1351 11.4059 35.1351 10.473C35.1351 9.54006 35.8914 8.78378 36.8243 8.78378C37.7572 8.78378 38.5135 9.54006 38.5135 10.473Z" fill="#92D2FF"/>
<path d="M47.2973 10.473C47.2973 11.4059 46.541 12.1622 45.6081 12.1622C44.6752 12.1622 43.9189 11.4059 43.9189 10.473C43.9189 9.54006 44.6752 8.78378 45.6081 8.78378C46.541 8.78378 47.2973 9.54006 47.2973 10.473Z" fill="#92D2FF"/>
<path d="M56.0811 10.473C56.0811 11.4059 55.3248 12.1622 54.3919 12.1622C53.459 12.1622 52.7027 11.4059 52.7027 10.473C52.7027 9.54006 53.459 8.78378 54.3919 8.78378C55.3248 8.78378 56.0811 9.54006 56.0811 10.473Z" fill="#92D2FF"/>
<path d="M64.8649 10.473C64.8649 11.4059 64.1086 12.1622 63.1757 12.1622C62.2428 12.1622 61.4865 11.4059 61.4865 10.473C61.4865 9.54006 62.2428 8.78378 63.1757 8.78378C64.1086 8.78378 64.8649 9.54006 64.8649 10.473Z" fill="#92D2FF"/>
<path d="M73.6487 10.473C73.6487 11.4059 72.8924 12.1622 71.9595 12.1622C71.0265 12.1622 70.2703 11.4059 70.2703 10.473C70.2703 9.54006 71.0265 8.78378 71.9595 8.78378C72.8924 8.78378 73.6487 9.54006 73.6487 10.473Z" fill="#92D2FF"/>
<path d="M82.4324 10.473C82.4324 11.4059 81.6762 12.1622 80.7432 12.1622C79.8103 12.1622 79.0541 11.4059 79.0541 10.473C79.0541 9.54006 79.8103 8.78378 80.7432 8.78378C81.6762 8.78378 82.4324 9.54006 82.4324 10.473Z" fill="#92D2FF"/>
<path d="M91.2162 10.473C91.2162 11.4059 90.4599 12.1622 89.527 12.1622C88.5941 12.1622 87.8378 11.4059 87.8378 10.473C87.8378 9.54006 88.5941 8.78378 89.527 8.78378C90.4599 8.78378 91.2162 9.54006 91.2162 10.473Z" fill="#92D2FF"/>
<path d="M100 10.473C100 11.4059 99.2437 12.1622 98.3108 12.1622C97.3779 12.1622 96.6216 11.4059 96.6216 10.473C96.6216 9.54006 97.3779 8.78378 98.3108 8.78378C99.2437 8.78378 100 9.54006 100 10.473Z" fill="#92D2FF"/>
<path d="M3.37838 19.2568C3.37838 20.1897 2.6221 20.9459 1.68919 20.9459C0.756276 20.9459 0 20.1897 0 19.2568C0 18.3238 0.756276 17.5676 1.68919 17.5676C2.6221 17.5676 3.37838 18.3238 3.37838 19.2568Z" fill="#92D2FF"/>
<path d="M12.1622 19.2568C12.1622 20.1897 11.4059 20.9459 10.473 20.9459C9.54006 20.9459 8.78378 20.1897 8.78378 19.2568C8.78378 18.3238 9.54006 17.5676 10.473 17.5676C11.4059 17.5676 12.1622 18.3238 12.1622 19.2568Z" fill="#92D2FF"/>
<path d="M20.9459 19.2568C20.9459 20.1897 20.1897 20.9459 19.2568 20.9459C18.3238 20.9459 17.5676 20.1897 17.5676 19.2568C17.5676 18.3238 18.3238 17.5676 19.2568 17.5676C20.1897 17.5676 20.9459 18.3238 20.9459 19.2568Z" fill="#92D2FF"/>
<path d="M29.7297 19.2568C29.7297 20.1897 28.9735 20.9459 28.0405 20.9459C27.1076 20.9459 26.3514 20.1897 26.3514 19.2568C26.3514 18.3238 27.1076 17.5676 28.0405 17.5676C28.9735 17.5676 29.7297 18.3238 29.7297 19.2568Z" fill="#92D2FF"/>
<path d="M38.5135 19.2568C38.5135 20.1897 37.7572 20.9459 36.8243 20.9459C35.8914 20.9459 35.1351 20.1897 35.1351 19.2568C35.1351 18.3238 35.8914 17.5676 36.8243 17.5676C37.7572 17.5676 38.5135 18.3238 38.5135 19.2568Z" fill="#92D2FF"/>
<path d="M47.2973 19.2568C47.2973 20.1897 46.541 20.9459 45.6081 20.9459C44.6752 20.9459 43.9189 20.1897 43.9189 19.2568C43.9189 18.3238 44.6752 17.5676 45.6081 17.5676C46.541 17.5676 47.2973 18.3238 47.2973 19.2568Z" fill="#92D2FF"/>
<path d="M56.0811 19.2568C56.0811 20.1897 55.3248 20.9459 54.3919 20.9459C53.459 20.9459 52.7027 20.1897 52.7027 19.2568C52.7027 18.3238 53.459 17.5676 54.3919 17.5676C55.3248 17.5676 56.0811 18.3238 56.0811 19.2568Z" fill="#92D2FF"/>
<path d="M64.8649 19.2568C64.8649 20.1897 64.1086 20.9459 63.1757 20.9459C62.2428 20.9459 61.4865 20.1897 61.4865 19.2568C61.4865 18.3238 62.2428 17.5676 63.1757 17.5676C64.1086 17.5676 64.8649 18.3238 64.8649 19.2568Z" fill="#92D2FF"/>
<path d="M73.6487 19.2568C73.6487 20.1897 72.8924 20.9459 71.9595 20.9459C71.0265 20.9459 70.2703 20.1897 70.2703 19.2568C70.2703 18.3238 71.0265 17.5676 71.9595 17.5676C72.8924 17.5676 73.6487 18.3238 73.6487 19.2568Z" fill="#92D2FF"/>
<path d="M82.4324 19.2568C82.4324 20.1897 81.6762 20.9459 80.7432 20.9459C79.8103 20.9459 79.0541 20.1897 79.0541 19.2568C79.0541 18.3238 79.8103 17.5676 80.7432 17.5676C81.6762 17.5676 82.4324 18.3238 82.4324 19.2568Z" fill="#92D2FF"/>
<path d="M91.2162 19.2568C91.2162 20.1897 90.4599 20.9459 89.527 20.9459C88.5941 20.9459 87.8378 20.1897 87.8378 19.2568C87.8378 18.3238 88.5941 17.5676 89.527 17.5676C90.4599 17.5676 91.2162 18.3238 91.2162 19.2568Z" fill="#92D2FF"/>
<path d="M100 19.2568C100 20.1897 99.2437 20.9459 98.3108 20.9459C97.3779 20.9459 96.6216 20.1897 96.6216 19.2568C96.6216 18.3238 97.3779 17.5676 98.3108 17.5676C99.2437 17.5676 100 18.3238 100 19.2568Z" fill="#92D2FF"/>
<path d="M3.37838 28.0405C3.37838 28.9735 2.6221 29.7297 1.68919 29.7297C0.756276 29.7297 0 28.9735 0 28.0405C0 27.1076 0.756276 26.3514 1.68919 26.3514C2.6221 26.3514 3.37838 27.1076 3.37838 28.0405Z" fill="#92D2FF"/>
<path d="M12.1622 28.0405C12.1622 28.9735 11.4059 29.7297 10.473 29.7297C9.54006 29.7297 8.78378 28.9735 8.78378 28.0405C8.78378 27.1076 9.54006 26.3514 10.473 26.3514C11.4059 26.3514 12.1622 27.1076 12.1622 28.0405Z" fill="#92D2FF"/>
<path d="M20.9459 28.0405C20.9459 28.9735 20.1897 29.7297 19.2568 29.7297C18.3238 29.7297 17.5676 28.9735 17.5676 28.0405C17.5676 27.1076 18.3238 26.3514 19.2568 26.3514C20.1897 26.3514 20.9459 27.1076 20.9459 28.0405Z" fill="#92D2FF"/>
<path d="M29.7297 28.0405C29.7297 28.9735 28.9735 29.7297 28.0405 29.7297C27.1076 29.7297 26.3514 28.9735 26.3514 28.0405C26.3514 27.1076 27.1076 26.3514 28.0405 26.3514C28.9735 26.3514 29.7297 27.1076 29.7297 28.0405Z" fill="#92D2FF"/>
<path d="M38.5135 28.0405C38.5135 28.9735 37.7572 29.7297 36.8243 29.7297C35.8914 29.7297 35.1351 28.9735 35.1351 28.0405C35.1351 27.1076 35.8914 26.3514 36.8243 26.3514C37.7572 26.3514 38.5135 27.1076 38.5135 28.0405Z" fill="#92D2FF"/>
<path d="M47.2973 28.0405C47.2973 28.9735 46.541 29.7297 45.6081 29.7297C44.6752 29.7297 43.9189 28.9735 43.9189 28.0405C43.9189 27.1076 44.6752 26.3514 45.6081 26.3514C46.541 26.3514 47.2973 27.1076 47.2973 28.0405Z" fill="#92D2FF"/>
<path d="M56.0811 28.0405C56.0811 28.9735 55.3248 29.7297 54.3919 29.7297C53.459 29.7297 52.7027 28.9735 52.7027 28.0405C52.7027 27.1076 53.459 26.3514 54.3919 26.3514C55.3248 26.3514 56.0811 27.1076 56.0811 28.0405Z" fill="#92D2FF"/>
<path d="M64.8649 28.0405C64.8649 28.9735 64.1086 29.7297 63.1757 29.7297C62.2428 29.7297 61.4865 28.9735 61.4865 28.0405C61.4865 27.1076 62.2428 26.3514 63.1757 26.3514C64.1086 26.3514 64.8649 27.1076 64.8649 28.0405Z" fill="#92D2FF"/>
<path d="M73.6487 28.0405C73.6487 28.9735 72.8924 29.7297 71.9595 29.7297C71.0265 29.7297 70.2703 28.9735 70.2703 28.0405C70.2703 27.1076 71.0265 26.3514 71.9595 26.3514C72.8924 26.3514 73.6487 27.1076 73.6487 28.0405Z" fill="#92D2FF"/>
<path d="M82.4324 28.0405C82.4324 28.9735 81.6762 29.7297 80.7432 29.7297C79.8103 29.7297 79.0541 28.9735 79.0541 28.0405C79.0541 27.1076 79.8103 26.3514 80.7432 26.3514C81.6762 26.3514 82.4324 27.1076 82.4324 28.0405Z" fill="#92D2FF"/>
<path d="M91.2162 28.0405C91.2162 28.9735 90.4599 29.7297 89.527 29.7297C88.5941 29.7297 87.8378 28.9735 87.8378 28.0405C87.8378 27.1076 88.5941 26.3514 89.527 26.3514C90.4599 26.3514 91.2162 27.1076 91.2162 28.0405Z" fill="#92D2FF"/>
<path d="M100 28.0405C100 28.9735 99.2437 29.7297 98.3108 29.7297C97.3779 29.7297 96.6216 28.9735 96.6216 28.0405C96.6216 27.1076 97.3779 26.3514 98.3108 26.3514C99.2437 26.3514 100 27.1076 100 28.0405Z" fill="#92D2FF"/>
<path d="M3.37838 36.8243C3.37838 37.7572 2.6221 38.5135 1.68919 38.5135C0.756276 38.5135 0 37.7572 0 36.8243C0 35.8914 0.756276 35.1351 1.68919 35.1351C2.6221 35.1351 3.37838 35.8914 3.37838 36.8243Z" fill="#92D2FF"/>
<path d="M12.1622 36.8243C12.1622 37.7572 11.4059 38.5135 10.473 38.5135C9.54006 38.5135 8.78378 37.7572 8.78378 36.8243C8.78378 35.8914 9.54006 35.1351 10.473 35.1351C11.4059 35.1351 12.1622 35.8914 12.1622 36.8243Z" fill="#92D2FF"/>
<path d="M20.9459 36.8243C20.9459 37.7572 20.1897 38.5135 19.2568 38.5135C18.3238 38.5135 17.5676 37.7572 17.5676 36.8243C17.5676 35.8914 18.3238 35.1351 19.2568 35.1351C20.1897 35.1351 20.9459 35.8914 20.9459 36.8243Z" fill="#92D2FF"/>
<path d="M29.7297 36.8243C29.7297 37.7572 28.9735 38.5135 28.0405 38.5135C27.1076 38.5135 26.3514 37.7572 26.3514 36.8243C26.3514 35.8914 27.1076 35.1351 28.0405 35.1351C28.9735 35.1351 29.7297 35.8914 29.7297 36.8243Z" fill="#92D2FF"/>
<path d="M38.5135 36.8243C38.5135 37.7572 37.7572 38.5135 36.8243 38.5135C35.8914 38.5135 35.1351 37.7572 35.1351 36.8243C35.1351 35.8914 35.8914 35.1351 36.8243 35.1351C37.7572 35.1351 38.5135 35.8914 38.5135 36.8243Z" fill="#92D2FF"/>
<path d="M47.2973 36.8243C47.2973 37.7572 46.541 38.5135 45.6081 38.5135C44.6752 38.5135 43.9189 37.7572 43.9189 36.8243C43.9189 35.8914 44.6752 35.1351 45.6081 35.1351C46.541 35.1351 47.2973 35.8914 47.2973 36.8243Z" fill="#92D2FF"/>
<path d="M56.0811 36.8243C56.0811 37.7572 55.3248 38.5135 54.3919 38.5135C53.459 38.5135 52.7027 37.7572 52.7027 36.8243C52.7027 35.8914 53.459 35.1351 54.3919 35.1351C55.3248 35.1351 56.0811 35.8914 56.0811 36.8243Z" fill="#92D2FF"/>
<path d="M64.8649 36.8243C64.8649 37.7572 64.1086 38.5135 63.1757 38.5135C62.2428 38.5135 61.4865 37.7572 61.4865 36.8243C61.4865 35.8914 62.2428 35.1351 63.1757 35.1351C64.1086 35.1351 64.8649 35.8914 64.8649 36.8243Z" fill="#92D2FF"/>
<path d="M73.6487 36.8243C73.6487 37.7572 72.8924 38.5135 71.9595 38.5135C71.0265 38.5135 70.2703 37.7572 70.2703 36.8243C70.2703 35.8914 71.0265 35.1351 71.9595 35.1351C72.8924 35.1351 73.6487 35.8914 73.6487 36.8243Z" fill="#92D2FF"/>
<path d="M82.4324 36.8243C82.4324 37.7572 81.6762 38.5135 80.7432 38.5135C79.8103 38.5135 79.0541 37.7572 79.0541 36.8243C79.0541 35.8914 79.8103 35.1351 80.7432 35.1351C81.6762 35.1351 82.4324 35.8914 82.4324 36.8243Z" fill="#92D2FF"/>
<path d="M91.2162 36.8243C91.2162 37.7572 90.4599 38.5135 89.527 38.5135C88.5941 38.5135 87.8378 37.7572 87.8378 36.8243C87.8378 35.8914 88.5941 35.1351 89.527 35.1351C90.4599 35.1351 91.2162 35.8914 91.2162 36.8243Z" fill="#92D2FF"/>
<path d="M100 36.8243C100 37.7572 99.2437 38.5135 98.3108 38.5135C97.3779 38.5135 96.6216 37.7572 96.6216 36.8243C96.6216 35.8914 97.3779 35.1351 98.3108 35.1351C99.2437 35.1351 100 35.8914 100 36.8243Z" fill="#92D2FF"/>
<path d="M3.37838 45.6081C3.37838 46.541 2.6221 47.2973 1.68919 47.2973C0.756276 47.2973 0 46.541 0 45.6081C0 44.6752 0.756276 43.9189 1.68919 43.9189C2.6221 43.9189 3.37838 44.6752 3.37838 45.6081Z" fill="#92D2FF"/>
<path d="M12.1622 45.6081C12.1622 46.541 11.4059 47.2973 10.473 47.2973C9.54006 47.2973 8.78378 46.541 8.78378 45.6081C8.78378 44.6752 9.54006 43.9189 10.473 43.9189C11.4059 43.9189 12.1622 44.6752 12.1622 45.6081Z" fill="#92D2FF"/>
<path d="M20.9459 45.6081C20.9459 46.541 20.1897 47.2973 19.2568 47.2973C18.3238 47.2973 17.5676 46.541 17.5676 45.6081C17.5676 44.6752 18.3238 43.9189 19.2568 43.9189C20.1897 43.9189 20.9459 44.6752 20.9459 45.6081Z" fill="#92D2FF"/>
<path d="M29.7297 45.6081C29.7297 46.541 28.9735 47.2973 28.0405 47.2973C27.1076 47.2973 26.3514 46.541 26.3514 45.6081C26.3514 44.6752 27.1076 43.9189 28.0405 43.9189C28.9735 43.9189 29.7297 44.6752 29.7297 45.6081Z" fill="#92D2FF"/>
<path d="M38.5135 45.6081C38.5135 46.541 37.7572 47.2973 36.8243 47.2973C35.8914 47.2973 35.1351 46.541 35.1351 45.6081C35.1351 44.6752 35.8914 43.9189 36.8243 43.9189C37.7572 43.9189 38.5135 44.6752 38.5135 45.6081Z" fill="#92D2FF"/>
<path d="M47.2973 45.6081C47.2973 46.541 46.541 47.2973 45.6081 47.2973C44.6752 47.2973 43.9189 46.541 43.9189 45.6081C43.9189 44.6752 44.6752 43.9189 45.6081 43.9189C46.541 43.9189 47.2973 44.6752 47.2973 45.6081Z" fill="#92D2FF"/>
<path d="M56.0811 45.6081C56.0811 46.541 55.3248 47.2973 54.3919 47.2973C53.459 47.2973 52.7027 46.541 52.7027 45.6081C52.7027 44.6752 53.459 43.9189 54.3919 43.9189C55.3248 43.9189 56.0811 44.6752 56.0811 45.6081Z" fill="#92D2FF"/>
<path d="M64.8649 45.6081C64.8649 46.541 64.1086 47.2973 63.1757 47.2973C62.2428 47.2973 61.4865 46.541 61.4865 45.6081C61.4865 44.6752 62.2428 43.9189 63.1757 43.9189C64.1086 43.9189 64.8649 44.6752 64.8649 45.6081Z" fill="#92D2FF"/>
<path d="M73.6487 45.6081C73.6487 46.541 72.8924 47.2973 71.9595 47.2973C71.0265 47.2973 70.2703 46.541 70.2703 45.6081C70.2703 44.6752 71.0265 43.9189 71.9595 43.9189C72.8924 43.9189 73.6487 44.6752 73.6487 45.6081Z" fill="#92D2FF"/>
<path d="M82.4324 45.6081C82.4324 46.541 81.6762 47.2973 80.7432 47.2973C79.8103 47.2973 79.0541 46.541 79.0541 45.6081C79.0541 44.6752 79.8103 43.9189 80.7432 43.9189C81.6762 43.9189 82.4324 44.6752 82.4324 45.6081Z" fill="#92D2FF"/>
<path d="M91.2162 45.6081C91.2162 46.541 90.4599 47.2973 89.527 47.2973C88.5941 47.2973 87.8378 46.541 87.8378 45.6081C87.8378 44.6752 88.5941 43.9189 89.527 43.9189C90.4599 43.9189 91.2162 44.6752 91.2162 45.6081Z" fill="#92D2FF"/>
<path d="M100 45.6081C100 46.541 99.2437 47.2973 98.3108 47.2973C97.3779 47.2973 96.6216 46.541 96.6216 45.6081C96.6216 44.6752 97.3779 43.9189 98.3108 43.9189C99.2437 43.9189 100 44.6752 100 45.6081Z" fill="#92D2FF"/>
<path d="M3.37838 54.3919C3.37838 55.3248 2.6221 56.0811 1.68919 56.0811C0.756276 56.0811 0 55.3248 0 54.3919C0 53.459 0.756276 52.7027 1.68919 52.7027C2.6221 52.7027 3.37838 53.459 3.37838 54.3919Z" fill="#92D2FF"/>
<path d="M12.1622 54.3919C12.1622 55.3248 11.4059 56.0811 10.473 56.0811C9.54006 56.0811 8.78378 55.3248 8.78378 54.3919C8.78378 53.459 9.54006 52.7027 10.473 52.7027C11.4059 52.7027 12.1622 53.459 12.1622 54.3919Z" fill="#92D2FF"/>
<path d="M20.9459 54.3919C20.9459 55.3248 20.1897 56.0811 19.2568 56.0811C18.3238 56.0811 17.5676 55.3248 17.5676 54.3919C17.5676 53.459 18.3238 52.7027 19.2568 52.7027C20.1897 52.7027 20.9459 53.459 20.9459 54.3919Z" fill="#92D2FF"/>
<path d="M29.7297 54.3919C29.7297 55.3248 28.9735 56.0811 28.0405 56.0811C27.1076 56.0811 26.3514 55.3248 26.3514 54.3919C26.3514 53.459 27.1076 52.7027 28.0405 52.7027C28.9735 52.7027 29.7297 53.459 29.7297 54.3919Z" fill="#92D2FF"/>
<path d="M38.5135 54.3919C38.5135 55.3248 37.7572 56.0811 36.8243 56.0811C35.8914 56.0811 35.1351 55.3248 35.1351 54.3919C35.1351 53.459 35.8914 52.7027 36.8243 52.7027C37.7572 52.7027 38.5135 53.459 38.5135 54.3919Z" fill="#92D2FF"/>
<path d="M47.2973 54.3919C47.2973 55.3248 46.541 56.0811 45.6081 56.0811C44.6752 56.0811 43.9189 55.3248 43.9189 54.3919C43.9189 53.459 44.6752 52.7027 45.6081 52.7027C46.541 52.7027 47.2973 53.459 47.2973 54.3919Z" fill="#92D2FF"/>
<path d="M56.0811 54.3919C56.0811 55.3248 55.3248 56.0811 54.3919 56.0811C53.459 56.0811 52.7027 55.3248 52.7027 54.3919C52.7027 53.459 53.459 52.7027 54.3919 52.7027C55.3248 52.7027 56.0811 53.459 56.0811 54.3919Z" fill="#92D2FF"/>
<path d="M64.8649 54.3919C64.8649 55.3248 64.1086 56.0811 63.1757 56.0811C62.2428 56.0811 61.4865 55.3248 61.4865 54.3919C61.4865 53.459 62.2428 52.7027 63.1757 52.7027C64.1086 52.7027 64.8649 53.459 64.8649 54.3919Z" fill="#92D2FF"/>
<path d="M73.6487 54.3919C73.6487 55.3248 72.8924 56.0811 71.9595 56.0811C71.0265 56.0811 70.2703 55.3248 70.2703 54.3919C70.2703 53.459 71.0265 52.7027 71.9595 52.7027C72.8924 52.7027 73.6487 53.459 73.6487 54.3919Z" fill="#92D2FF"/>
<path d="M82.4324 54.3919C82.4324 55.3248 81.6762 56.0811 80.7432 56.0811C79.8103 56.0811 79.0541 55.3248 79.0541 54.3919C79.0541 53.459 79.8103 52.7027 80.7432 52.7027C81.6762 52.7027 82.4324 53.459 82.4324 54.3919Z" fill="#92D2FF"/>
<path d="M91.2162 54.3919C91.2162 55.3248 90.4599 56.0811 89.527 56.0811C88.5941 56.0811 87.8378 55.3248 87.8378 54.3919C87.8378 53.459 88.5941 52.7027 89.527 52.7027C90.4599 52.7027 91.2162 53.459 91.2162 54.3919Z" fill="#92D2FF"/>
<path d="M100 54.3919C100 55.3248 99.2437 56.0811 98.3108 56.0811C97.3779 56.0811 96.6216 55.3248 96.6216 54.3919C96.6216 53.459 97.3779 52.7027 98.3108 52.7027C99.2437 52.7027 100 53.459 100 54.3919Z" fill="#92D2FF"/>
<path d="M3.37838 63.1757C3.37838 64.1086 2.6221 64.8649 1.68919 64.8649C0.756276 64.8649 0 64.1086 0 63.1757C0 62.2428 0.756276 61.4865 1.68919 61.4865C2.6221 61.4865 3.37838 62.2428 3.37838 63.1757Z" fill="#92D2FF"/>
<path d="M12.1622 63.1757C12.1622 64.1086 11.4059 64.8649 10.473 64.8649C9.54006 64.8649 8.78378 64.1086 8.78378 63.1757C8.78378 62.2428 9.54006 61.4865 10.473 61.4865C11.4059 61.4865 12.1622 62.2428 12.1622 63.1757Z" fill="#92D2FF"/>
<path d="M20.9459 63.1757C20.9459 64.1086 20.1897 64.8649 19.2568 64.8649C18.3238 64.8649 17.5676 64.1086 17.5676 63.1757C17.5676 62.2428 18.3238 61.4865 19.2568 61.4865C20.1897 61.4865 20.9459 62.2428 20.9459 63.1757Z" fill="#92D2FF"/>
<path d="M29.7297 63.1757C29.7297 64.1086 28.9735 64.8649 28.0405 64.8649C27.1076 64.8649 26.3514 64.1086 26.3514 63.1757C26.3514 62.2428 27.1076 61.4865 28.0405 61.4865C28.9735 61.4865 29.7297 62.2428 29.7297 63.1757Z" fill="#92D2FF"/>
<path d="M38.5135 63.1757C38.5135 64.1086 37.7572 64.8649 36.8243 64.8649C35.8914 64.8649 35.1351 64.1086 35.1351 63.1757C35.1351 62.2428 35.8914 61.4865 36.8243 61.4865C37.7572 61.4865 38.5135 62.2428 38.5135 63.1757Z" fill="#92D2FF"/>
<path d="M47.2973 63.1757C47.2973 64.1086 46.541 64.8649 45.6081 64.8649C44.6752 64.8649 43.9189 64.1086 43.9189 63.1757C43.9189 62.2428 44.6752 61.4865 45.6081 61.4865C46.541 61.4865 47.2973 62.2428 47.2973 63.1757Z" fill="#92D2FF"/>
<path d="M56.0811 63.1757C56.0811 64.1086 55.3248 64.8649 54.3919 64.8649C53.459 64.8649 52.7027 64.1086 52.7027 63.1757C52.7027 62.2428 53.459 61.4865 54.3919 61.4865C55.3248 61.4865 56.0811 62.2428 56.0811 63.1757Z" fill="#92D2FF"/>
<path d="M64.8649 63.1757C64.8649 64.1086 64.1086 64.8649 63.1757 64.8649C62.2428 64.8649 61.4865 64.1086 61.4865 63.1757C61.4865 62.2428 62.2428 61.4865 63.1757 61.4865C64.1086 61.4865 64.8649 62.2428 64.8649 63.1757Z" fill="#92D2FF"/>
<path d="M73.6487 63.1757C73.6487 64.1086 72.8924 64.8649 71.9595 64.8649C71.0265 64.8649 70.2703 64.1086 70.2703 63.1757C70.2703 62.2428 71.0265 61.4865 71.9595 61.4865C72.8924 61.4865 73.6487 62.2428 73.6487 63.1757Z" fill="#92D2FF"/>
<path d="M82.4324 63.1757C82.4324 64.1086 81.6762 64.8649 80.7432 64.8649C79.8103 64.8649 79.0541 64.1086 79.0541 63.1757C79.0541 62.2428 79.8103 61.4865 80.7432 61.4865C81.6762 61.4865 82.4324 62.2428 82.4324 63.1757Z" fill="#92D2FF"/>
<path d="M91.2162 63.1757C91.2162 64.1086 90.4599 64.8649 89.527 64.8649C88.5941 64.8649 87.8378 64.1086 87.8378 63.1757C87.8378 62.2428 88.5941 61.4865 89.527 61.4865C90.4599 61.4865 91.2162 62.2428 91.2162 63.1757Z" fill="#92D2FF"/>
<path d="M100 63.1757C100 64.1086 99.2437 64.8649 98.3108 64.8649C97.3779 64.8649 96.6216 64.1086 96.6216 63.1757C96.6216 62.2428 97.3779 61.4865 98.3108 61.4865C99.2437 61.4865 100 62.2428 100 63.1757Z" fill="#92D2FF"/>
<path d="M3.37838 71.9595C3.37838 72.8924 2.6221 73.6487 1.68919 73.6487C0.756276 73.6487 0 72.8924 0 71.9595C0 71.0265 0.756276 70.2703 1.68919 70.2703C2.6221 70.2703 3.37838 71.0265 3.37838 71.9595Z" fill="#92D2FF"/>
<path d="M12.1622 71.9595C12.1622 72.8924 11.4059 73.6487 10.473 73.6487C9.54006 73.6487 8.78378 72.8924 8.78378 71.9595C8.78378 71.0265 9.54006 70.2703 10.473 70.2703C11.4059 70.2703 12.1622 71.0265 12.1622 71.9595Z" fill="#92D2FF"/>
<path d="M20.9459 71.9595C20.9459 72.8924 20.1897 73.6487 19.2568 73.6487C18.3238 73.6487 17.5676 72.8924 17.5676 71.9595C17.5676 71.0265 18.3238 70.2703 19.2568 70.2703C20.1897 70.2703 20.9459 71.0265 20.9459 71.9595Z" fill="#92D2FF"/>
<path d="M29.7297 71.9595C29.7297 72.8924 28.9735 73.6487 28.0405 73.6487C27.1076 73.6487 26.3514 72.8924 26.3514 71.9595C26.3514 71.0265 27.1076 70.2703 28.0405 70.2703C28.9735 70.2703 29.7297 71.0265 29.7297 71.9595Z" fill="#92D2FF"/>
<path d="M38.5135 71.9595C38.5135 72.8924 37.7572 73.6487 36.8243 73.6487C35.8914 73.6487 35.1351 72.8924 35.1351 71.9595C35.1351 71.0265 35.8914 70.2703 36.8243 70.2703C37.7572 70.2703 38.5135 71.0265 38.5135 71.9595Z" fill="#92D2FF"/>
<path d="M47.2973 71.9595C47.2973 72.8924 46.541 73.6487 45.6081 73.6487C44.6752 73.6487 43.9189 72.8924 43.9189 71.9595C43.9189 71.0265 44.6752 70.2703 45.6081 70.2703C46.541 70.2703 47.2973 71.0265 47.2973 71.9595Z" fill="#92D2FF"/>
<path d="M56.0811 71.9595C56.0811 72.8924 55.3248 73.6487 54.3919 73.6487C53.459 73.6487 52.7027 72.8924 52.7027 71.9595C52.7027 71.0265 53.459 70.2703 54.3919 70.2703C55.3248 70.2703 56.0811 71.0265 56.0811 71.9595Z" fill="#92D2FF"/>
<path d="M64.8649 71.9595C64.8649 72.8924 64.1086 73.6487 63.1757 73.6487C62.2428 73.6487 61.4865 72.8924 61.4865 71.9595C61.4865 71.0265 62.2428 70.2703 63.1757 70.2703C64.1086 70.2703 64.8649 71.0265 64.8649 71.9595Z" fill="#92D2FF"/>
<path d="M73.6487 71.9595C73.6487 72.8924 72.8924 73.6487 71.9595 73.6487C71.0265 73.6487 70.2703 72.8924 70.2703 71.9595C70.2703 71.0265 71.0265 70.2703 71.9595 70.2703C72.8924 70.2703 73.6487 71.0265 73.6487 71.9595Z" fill="#92D2FF"/>
<path d="M82.4324 71.9595C82.4324 72.8924 81.6762 73.6487 80.7432 73.6487C79.8103 73.6487 79.0541 72.8924 79.0541 71.9595C79.0541 71.0265 79.8103 70.2703 80.7432 70.2703C81.6762 70.2703 82.4324 71.0265 82.4324 71.9595Z" fill="#92D2FF"/>
<path d="M91.2162 71.9595C91.2162 72.8924 90.4599 73.6487 89.527 73.6487C88.5941 73.6487 87.8378 72.8924 87.8378 71.9595C87.8378 71.0265 88.5941 70.2703 89.527 70.2703C90.4599 70.2703 91.2162 71.0265 91.2162 71.9595Z" fill="#92D2FF"/>
<path d="M100 71.9595C100 72.8924 99.2437 73.6487 98.3108 73.6487C97.3779 73.6487 96.6216 72.8924 96.6216 71.9595C96.6216 71.0265 97.3779 70.2703 98.3108 70.2703C99.2437 70.2703 100 71.0265 100 71.9595Z" fill="#92D2FF"/>
<path d="M3.37838 80.7432C3.37838 81.6762 2.6221 82.4324 1.68919 82.4324C0.756276 82.4324 0 81.6762 0 80.7432C0 79.8103 0.756276 79.0541 1.68919 79.0541C2.6221 79.0541 3.37838 79.8103 3.37838 80.7432Z" fill="#92D2FF"/>
<path d="M12.1622 80.7432C12.1622 81.6762 11.4059 82.4324 10.473 82.4324C9.54006 82.4324 8.78378 81.6762 8.78378 80.7432C8.78378 79.8103 9.54006 79.0541 10.473 79.0541C11.4059 79.0541 12.1622 79.8103 12.1622 80.7432Z" fill="#92D2FF"/>
<path d="M20.9459 80.7432C20.9459 81.6762 20.1897 82.4324 19.2568 82.4324C18.3238 82.4324 17.5676 81.6762 17.5676 80.7432C17.5676 79.8103 18.3238 79.0541 19.2568 79.0541C20.1897 79.0541 20.9459 79.8103 20.9459 80.7432Z" fill="#92D2FF"/>
<path d="M29.7297 80.7432C29.7297 81.6762 28.9735 82.4324 28.0405 82.4324C27.1076 82.4324 26.3514 81.6762 26.3514 80.7432C26.3514 79.8103 27.1076 79.0541 28.0405 79.0541C28.9735 79.0541 29.7297 79.8103 29.7297 80.7432Z" fill="#92D2FF"/>
<path d="M38.5135 80.7432C38.5135 81.6762 37.7572 82.4324 36.8243 82.4324C35.8914 82.4324 35.1351 81.6762 35.1351 80.7432C35.1351 79.8103 35.8914 79.0541 36.8243 79.0541C37.7572 79.0541 38.5135 79.8103 38.5135 80.7432Z" fill="#92D2FF"/>
<path d="M47.2973 80.7432C47.2973 81.6762 46.541 82.4324 45.6081 82.4324C44.6752 82.4324 43.9189 81.6762 43.9189 80.7432C43.9189 79.8103 44.6752 79.0541 45.6081 79.0541C46.541 79.0541 47.2973 79.8103 47.2973 80.7432Z" fill="#92D2FF"/>
<path d="M56.0811 80.7432C56.0811 81.6762 55.3248 82.4324 54.3919 82.4324C53.459 82.4324 52.7027 81.6762 52.7027 80.7432C52.7027 79.8103 53.459 79.0541 54.3919 79.0541C55.3248 79.0541 56.0811 79.8103 56.0811 80.7432Z" fill="#92D2FF"/>
<path d="M64.8649 80.7432C64.8649 81.6762 64.1086 82.4324 63.1757 82.4324C62.2428 82.4324 61.4865 81.6762 61.4865 80.7432C61.4865 79.8103 62.2428 79.0541 63.1757 79.0541C64.1086 79.0541 64.8649 79.8103 64.8649 80.7432Z" fill="#92D2FF"/>
<path d="M73.6487 80.7432C73.6487 81.6762 72.8924 82.4324 71.9595 82.4324C71.0265 82.4324 70.2703 81.6762 70.2703 80.7432C70.2703 79.8103 71.0265 79.0541 71.9595 79.0541C72.8924 79.0541 73.6487 79.8103 73.6487 80.7432Z" fill="#92D2FF"/>
<path d="M82.4324 80.7432C82.4324 81.6762 81.6762 82.4324 80.7432 82.4324C79.8103 82.4324 79.0541 81.6762 79.0541 80.7432C79.0541 79.8103 79.8103 79.0541 80.7432 79.0541C81.6762 79.0541 82.4324 79.8103 82.4324 80.7432Z" fill="#92D2FF"/>
<path d="M91.2162 80.7432C91.2162 81.6762 90.4599 82.4324 89.527 82.4324C88.5941 82.4324 87.8378 81.6762 87.8378 80.7432C87.8378 79.8103 88.5941 79.0541 89.527 79.0541C90.4599 79.0541 91.2162 79.8103 91.2162 80.7432Z" fill="#92D2FF"/>
<path d="M100 80.7432C100 81.6762 99.2437 82.4324 98.3108 82.4324C97.3779 82.4324 96.6216 81.6762 96.6216 80.7432C96.6216 79.8103 97.3779 79.0541 98.3108 79.0541C99.2437 79.0541 100 79.8103 100 80.7432Z" fill="#92D2FF"/>
<path d="M3.37838 89.527C3.37838 90.4599 2.6221 91.2162 1.68919 91.2162C0.756276 91.2162 0 90.4599 0 89.527C0 88.5941 0.756276 87.8378 1.68919 87.8378C2.6221 87.8378 3.37838 88.5941 3.37838 89.527Z" fill="#92D2FF"/>
<path d="M12.1622 89.527C12.1622 90.4599 11.4059 91.2162 10.473 91.2162C9.54006 91.2162 8.78378 90.4599 8.78378 89.527C8.78378 88.5941 9.54006 87.8378 10.473 87.8378C11.4059 87.8378 12.1622 88.5941 12.1622 89.527Z" fill="#92D2FF"/>
<path d="M20.9459 89.527C20.9459 90.4599 20.1897 91.2162 19.2568 91.2162C18.3238 91.2162 17.5676 90.4599 17.5676 89.527C17.5676 88.5941 18.3238 87.8378 19.2568 87.8378C20.1897 87.8378 20.9459 88.5941 20.9459 89.527Z" fill="#92D2FF"/>
<path d="M29.7297 89.527C29.7297 90.4599 28.9735 91.2162 28.0405 91.2162C27.1076 91.2162 26.3514 90.4599 26.3514 89.527C26.3514 88.5941 27.1076 87.8378 28.0405 87.8378C28.9735 87.8378 29.7297 88.5941 29.7297 89.527Z" fill="#92D2FF"/>
<path d="M38.5135 89.527C38.5135 90.4599 37.7572 91.2162 36.8243 91.2162C35.8914 91.2162 35.1351 90.4599 35.1351 89.527C35.1351 88.5941 35.8914 87.8378 36.8243 87.8378C37.7572 87.8378 38.5135 88.5941 38.5135 89.527Z" fill="#92D2FF"/>
<path d="M47.2973 89.527C47.2973 90.4599 46.541 91.2162 45.6081 91.2162C44.6752 91.2162 43.9189 90.4599 43.9189 89.527C43.9189 88.5941 44.6752 87.8378 45.6081 87.8378C46.541 87.8378 47.2973 88.5941 47.2973 89.527Z" fill="#92D2FF"/>
<path d="M56.0811 89.527C56.0811 90.4599 55.3248 91.2162 54.3919 91.2162C53.459 91.2162 52.7027 90.4599 52.7027 89.527C52.7027 88.5941 53.459 87.8378 54.3919 87.8378C55.3248 87.8378 56.0811 88.5941 56.0811 89.527Z" fill="#92D2FF"/>
<path d="M64.8649 89.527C64.8649 90.4599 64.1086 91.2162 63.1757 91.2162C62.2428 91.2162 61.4865 90.4599 61.4865 89.527C61.4865 88.5941 62.2428 87.8378 63.1757 87.8378C64.1086 87.8378 64.8649 88.5941 64.8649 89.527Z" fill="#92D2FF"/>
<path d="M73.6487 89.527C73.6487 90.4599 72.8924 91.2162 71.9595 91.2162C71.0265 91.2162 70.2703 90.4599 70.2703 89.527C70.2703 88.5941 71.0265 87.8378 71.9595 87.8378C72.8924 87.8378 73.6487 88.5941 73.6487 89.527Z" fill="#92D2FF"/>
<path d="M82.4324 89.527C82.4324 90.4599 81.6762 91.2162 80.7432 91.2162C79.8103 91.2162 79.0541 90.4599 79.0541 89.527C79.0541 88.5941 79.8103 87.8378 80.7432 87.8378C81.6762 87.8378 82.4324 88.5941 82.4324 89.527Z" fill="#92D2FF"/>
<path d="M91.2162 89.527C91.2162 90.4599 90.4599 91.2162 89.527 91.2162C88.5941 91.2162 87.8378 90.4599 87.8378 89.527C87.8378 88.5941 88.5941 87.8378 89.527 87.8378C90.4599 87.8378 91.2162 88.5941 91.2162 89.527Z" fill="#92D2FF"/>
<path d="M100 89.527C100 90.4599 99.2437 91.2162 98.3108 91.2162C97.3779 91.2162 96.6216 90.4599 96.6216 89.527C96.6216 88.5941 97.3779 87.8378 98.3108 87.8378C99.2437 87.8378 100 88.5941 100 89.527Z" fill="#92D2FF"/>
<path d="M3.37838 98.3108C3.37838 99.2437 2.6221 100 1.68919 100C0.756276 100 0 99.2437 0 98.3108C0 97.3779 0.756276 96.6216 1.68919 96.6216C2.6221 96.6216 3.37838 97.3779 3.37838 98.3108Z" fill="#92D2FF"/>
<path d="M12.1622 98.3108C12.1622 99.2437 11.4059 100 10.473 100C9.54006 100 8.78378 99.2437 8.78378 98.3108C8.78378 97.3779 9.54006 96.6216 10.473 96.6216C11.4059 96.6216 12.1622 97.3779 12.1622 98.3108Z" fill="#92D2FF"/>
<path d="M20.9459 98.3108C20.9459 99.2437 20.1897 100 19.2568 100C18.3238 100 17.5676 99.2437 17.5676 98.3108C17.5676 97.3779 18.3238 96.6216 19.2568 96.6216C20.1897 96.6216 20.9459 97.3779 20.9459 98.3108Z" fill="#92D2FF"/>
<path d="M29.7297 98.3108C29.7297 99.2437 28.9735 100 28.0405 100C27.1076 100 26.3514 99.2437 26.3514 98.3108C26.3514 97.3779 27.1076 96.6216 28.0405 96.6216C28.9735 96.6216 29.7297 97.3779 29.7297 98.3108Z" fill="#92D2FF"/>
<path d="M38.5135 98.3108C38.5135 99.2437 37.7572 100 36.8243 100C35.8914 100 35.1351 99.2437 35.1351 98.3108C35.1351 97.3779 35.8914 96.6216 36.8243 96.6216C37.7572 96.6216 38.5135 97.3779 38.5135 98.3108Z" fill="#92D2FF"/>
<path d="M47.2973 98.3108C47.2973 99.2437 46.541 100 45.6081 100C44.6752 100 43.9189 99.2437 43.9189 98.3108C43.9189 97.3779 44.6752 96.6216 45.6081 96.6216C46.541 96.6216 47.2973 97.3779 47.2973 98.3108Z" fill="#92D2FF"/>
<path d="M56.0811 98.3108C56.0811 99.2437 55.3248 100 54.3919 100C53.459 100 52.7027 99.2437 52.7027 98.3108C52.7027 97.3779 53.459 96.6216 54.3919 96.6216C55.3248 96.6216 56.0811 97.3779 56.0811 98.3108Z" fill="#92D2FF"/>
<path d="M64.8649 98.3108C64.8649 99.2437 64.1086 100 63.1757 100C62.2428 100 61.4865 99.2437 61.4865 98.3108C61.4865 97.3779 62.2428 96.6216 63.1757 96.6216C64.1086 96.6216 64.8649 97.3779 64.8649 98.3108Z" fill="#92D2FF"/>
<path d="M73.6487 98.3108C73.6487 99.2437 72.8924 100 71.9595 100C71.0265 100 70.2703 99.2437 70.2703 98.3108C70.2703 97.3779 71.0265 96.6216 71.9595 96.6216C72.8924 96.6216 73.6487 97.3779 73.6487 98.3108Z" fill="#92D2FF"/>
<path d="M82.4324 98.3108C82.4324 99.2437 81.6762 100 80.7432 100C79.8103 100 79.0541 99.2437 79.0541 98.3108C79.0541 97.3779 79.8103 96.6216 80.7432 96.6216C81.6762 96.6216 82.4324 97.3779 82.4324 98.3108Z" fill="#92D2FF"/>
<path d="M91.2162 98.3108C91.2162 99.2437 90.4599 100 89.527 100C88.5941 100 87.8378 99.2437 87.8378 98.3108C87.8378 97.3779 88.5941 96.6216 89.527 96.6216C90.4599 96.6216 91.2162 97.3779 91.2162 98.3108Z" fill="#92D2FF"/>
<path d="M100 98.3108C100 99.2437 99.2437 100 98.3108 100C97.3779 100 96.6216 99.2437 96.6216 98.3108C96.6216 97.3779 97.3779 96.6216 98.3108 96.6216C99.2437 96.6216 100 97.3779 100 98.3108Z" fill="#92D2FF"/>
</svg>
