<svg width="85" height="85" viewBox="0 0 85 85" fill="none" xmlns="http://www.w3.org/2000/svg">
<path d="M1.16438 0.582192C1.16438 0.903727 0.903727 1.16438 0.582192 1.16438C0.260656 1.16438 0 0.903727 0 0.582192C0 0.260656 0.260656 0 0.582192 0C0.903727 0 1.16438 0.260656 1.16438 0.582192Z" fill="#8C5AFF"/>
<path d="M5.82192 0.582192C5.82192 0.903727 5.56126 1.16438 5.23973 1.16438C4.91819 1.16438 4.65753 0.903727 4.65753 0.582192C4.65753 0.260656 4.91819 0 5.23973 0C5.56126 0 5.82192 0.260656 5.82192 0.582192Z" fill="#8C5AFF"/>
<path d="M10.4795 0.582192C10.4795 0.903727 10.2188 1.16438 9.89726 1.16438C9.57572 1.16438 9.31507 0.903727 9.31507 0.582192C9.31507 0.260656 9.57572 0 9.89726 0C10.2188 0 10.4795 0.260656 10.4795 0.582192Z" fill="#8C5AFF"/>
<path d="M15.137 0.582192C15.137 0.903727 14.8763 1.16438 14.5548 1.16438C14.2333 1.16438 13.9726 0.903727 13.9726 0.582192C13.9726 0.260656 14.2333 0 14.5548 0C14.8763 0 15.137 0.260656 15.137 0.582192Z" fill="#8C5AFF"/>
<path d="M19.7945 0.582192C19.7945 0.903727 19.5339 1.16438 19.2123 1.16438C18.8908 1.16438 18.6301 0.903727 18.6301 0.582192C18.6301 0.260656 18.8908 0 19.2123 0C19.5339 0 19.7945 0.260656 19.7945 0.582192Z" fill="#8C5AFF"/>
<path d="M24.4521 0.582192C24.4521 0.903727 24.1914 1.16438 23.8699 1.16438C23.5483 1.16438 23.2877 0.903727 23.2877 0.582192C23.2877 0.260656 23.5483 0 23.8699 0C24.1914 0 24.4521 0.260656 24.4521 0.582192Z" fill="#8C5AFF"/>
<path d="M29.1096 0.582192C29.1096 0.903727 28.8489 1.16438 28.5274 1.16438C28.2059 1.16438 27.9452 0.903727 27.9452 0.582192C27.9452 0.260656 28.2059 0 28.5274 0C28.8489 0 29.1096 0.260656 29.1096 0.582192Z" fill="#8C5AFF"/>
<path d="M33.7671 0.582192C33.7671 0.903727 33.5065 1.16438 33.1849 1.16438C32.8634 1.16438 32.6027 0.903727 32.6027 0.582192C32.6027 0.260656 32.8634 0 33.1849 0C33.5065 0 33.7671 0.260656 33.7671 0.582192Z" fill="#8C5AFF"/>
<path d="M38.4247 0.582192C38.4247 0.903727 38.164 1.16438 37.8425 1.16438C37.5209 1.16438 37.2603 0.903727 37.2603 0.582192C37.2603 0.260656 37.5209 0 37.8425 0C38.164 0 38.4247 0.260656 38.4247 0.582192Z" fill="#8C5AFF"/>
<path d="M43.0822 0.582192C43.0822 0.903727 42.8215 1.16438 42.5 1.16438C42.1785 1.16438 41.9178 0.903727 41.9178 0.582192C41.9178 0.260656 42.1785 0 42.5 0C42.8215 0 43.0822 0.260656 43.0822 0.582192Z" fill="#8C5AFF"/>
<path d="M47.7397 0.582192C47.7397 0.903727 47.4791 1.16438 47.1575 1.16438C46.836 1.16438 46.5753 0.903727 46.5753 0.582192C46.5753 0.260656 46.836 0 47.1575 0C47.4791 0 47.7397 0.260656 47.7397 0.582192Z" fill="#8C5AFF"/>
<path d="M52.3973 0.582192C52.3973 0.903727 52.1366 1.16438 51.8151 1.16438C51.4935 1.16438 51.2329 0.903727 51.2329 0.582192C51.2329 0.260656 51.4935 0 51.8151 0C52.1366 0 52.3973 0.260656 52.3973 0.582192Z" fill="#8C5AFF"/>
<path d="M57.0548 0.582192C57.0548 0.903727 56.7941 1.16438 56.4726 1.16438C56.1511 1.16438 55.8904 0.903727 55.8904 0.582192C55.8904 0.260656 56.1511 0 56.4726 0C56.7941 0 57.0548 0.260656 57.0548 0.582192Z" fill="#8C5AFF"/>
<path d="M61.7123 0.582192C61.7123 0.903727 61.4517 1.16438 61.1301 1.16438C60.8086 1.16438 60.5479 0.903727 60.5479 0.582192C60.5479 0.260656 60.8086 0 61.1301 0C61.4517 0 61.7123 0.260656 61.7123 0.582192Z" fill="#8C5AFF"/>
<path d="M66.3699 0.582192C66.3699 0.903727 66.1092 1.16438 65.7877 1.16438C65.4661 1.16438 65.2055 0.903727 65.2055 0.582192C65.2055 0.260656 65.4661 0 65.7877 0C66.1092 0 66.3699 0.260656 66.3699 0.582192Z" fill="#8C5AFF"/>
<path d="M71.0274 0.582192C71.0274 0.903727 70.7667 1.16438 70.4452 1.16438C70.1237 1.16438 69.863 0.903727 69.863 0.582192C69.863 0.260656 70.1237 0 70.4452 0C70.7667 0 71.0274 0.260656 71.0274 0.582192Z" fill="#8C5AFF"/>
<path d="M75.6849 0.582192C75.6849 0.903727 75.4243 1.16438 75.1027 1.16438C74.7812 1.16438 74.5205 0.903727 74.5205 0.582192C74.5205 0.260656 74.7812 0 75.1027 0C75.4243 0 75.6849 0.260656 75.6849 0.582192Z" fill="#8C5AFF"/>
<path d="M80.3425 0.582192C80.3425 0.903727 80.0818 1.16438 79.7603 1.16438C79.4387 1.16438 79.1781 0.903727 79.1781 0.582192C79.1781 0.260656 79.4387 0 79.7603 0C80.0818 0 80.3425 0.260656 80.3425 0.582192Z" fill="#8C5AFF"/>
<path d="M85 0.582192C85 0.903727 84.7393 1.16438 84.4178 1.16438C84.0963 1.16438 83.8356 0.903727 83.8356 0.582192C83.8356 0.260656 84.0963 0 84.4178 0C84.7393 0 85 0.260656 85 0.582192Z" fill="#8C5AFF"/>
<path d="M1.16438 5.23973C1.16438 5.56126 0.903727 5.82192 0.582192 5.82192C0.260656 5.82192 0 5.56126 0 5.23973C0 4.91819 0.260656 4.65753 0.582192 4.65753C0.903727 4.65753 1.16438 4.91819 1.16438 5.23973Z" fill="#8C5AFF"/>
<path d="M5.82192 5.23973C5.82192 5.56126 5.56126 5.82192 5.23973 5.82192C4.91819 5.82192 4.65753 5.56126 4.65753 5.23973C4.65753 4.91819 4.91819 4.65753 5.23973 4.65753C5.56126 4.65753 5.82192 4.91819 5.82192 5.23973Z" fill="#8C5AFF"/>
<path d="M10.4795 5.23973C10.4795 5.56126 10.2188 5.82192 9.89726 5.82192C9.57572 5.82192 9.31507 5.56126 9.31507 5.23973C9.31507 4.91819 9.57572 4.65753 9.89726 4.65753C10.2188 4.65753 10.4795 4.91819 10.4795 5.23973Z" fill="#8C5AFF"/>
<path d="M15.137 5.23973C15.137 5.56126 14.8763 5.82192 14.5548 5.82192C14.2333 5.82192 13.9726 5.56126 13.9726 5.23973C13.9726 4.91819 14.2333 4.65753 14.5548 4.65753C14.8763 4.65753 15.137 4.91819 15.137 5.23973Z" fill="#8C5AFF"/>
<path d="M19.7945 5.23973C19.7945 5.56126 19.5339 5.82192 19.2123 5.82192C18.8908 5.82192 18.6301 5.56126 18.6301 5.23973C18.6301 4.91819 18.8908 4.65753 19.2123 4.65753C19.5339 4.65753 19.7945 4.91819 19.7945 5.23973Z" fill="#8C5AFF"/>
<path d="M24.4521 5.23973C24.4521 5.56126 24.1914 5.82192 23.8699 5.82192C23.5483 5.82192 23.2877 5.56126 23.2877 5.23973C23.2877 4.91819 23.5483 4.65753 23.8699 4.65753C24.1914 4.65753 24.4521 4.91819 24.4521 5.23973Z" fill="#8C5AFF"/>
<path d="M29.1096 5.23973C29.1096 5.56126 28.8489 5.82192 28.5274 5.82192C28.2059 5.82192 27.9452 5.56126 27.9452 5.23973C27.9452 4.91819 28.2059 4.65753 28.5274 4.65753C28.8489 4.65753 29.1096 4.91819 29.1096 5.23973Z" fill="#8C5AFF"/>
<path d="M33.7671 5.23973C33.7671 5.56126 33.5065 5.82192 33.1849 5.82192C32.8634 5.82192 32.6027 5.56126 32.6027 5.23973C32.6027 4.91819 32.8634 4.65753 33.1849 4.65753C33.5065 4.65753 33.7671 4.91819 33.7671 5.23973Z" fill="#8C5AFF"/>
<path d="M38.4247 5.23973C38.4247 5.56126 38.164 5.82192 37.8425 5.82192C37.5209 5.82192 37.2603 5.56126 37.2603 5.23973C37.2603 4.91819 37.5209 4.65753 37.8425 4.65753C38.164 4.65753 38.4247 4.91819 38.4247 5.23973Z" fill="#8C5AFF"/>
<path d="M43.0822 5.23973C43.0822 5.56126 42.8215 5.82192 42.5 5.82192C42.1785 5.82192 41.9178 5.56126 41.9178 5.23973C41.9178 4.91819 42.1785 4.65753 42.5 4.65753C42.8215 4.65753 43.0822 4.91819 43.0822 5.23973Z" fill="#8C5AFF"/>
<path d="M47.7397 5.23973C47.7397 5.56126 47.4791 5.82192 47.1575 5.82192C46.836 5.82192 46.5753 5.56126 46.5753 5.23973C46.5753 4.91819 46.836 4.65753 47.1575 4.65753C47.4791 4.65753 47.7397 4.91819 47.7397 5.23973Z" fill="#8C5AFF"/>
<path d="M52.3973 5.23973C52.3973 5.56126 52.1366 5.82192 51.8151 5.82192C51.4935 5.82192 51.2329 5.56126 51.2329 5.23973C51.2329 4.91819 51.4935 4.65753 51.8151 4.65753C52.1366 4.65753 52.3973 4.91819 52.3973 5.23973Z" fill="#8C5AFF"/>
<path d="M57.0548 5.23973C57.0548 5.56126 56.7941 5.82192 56.4726 5.82192C56.1511 5.82192 55.8904 5.56126 55.8904 5.23973C55.8904 4.91819 56.1511 4.65753 56.4726 4.65753C56.7941 4.65753 57.0548 4.91819 57.0548 5.23973Z" fill="#8C5AFF"/>
<path d="M61.7123 5.23973C61.7123 5.56126 61.4517 5.82192 61.1301 5.82192C60.8086 5.82192 60.5479 5.56126 60.5479 5.23973C60.5479 4.91819 60.8086 4.65753 61.1301 4.65753C61.4517 4.65753 61.7123 4.91819 61.7123 5.23973Z" fill="#8C5AFF"/>
<path d="M66.3699 5.23973C66.3699 5.56126 66.1092 5.82192 65.7877 5.82192C65.4661 5.82192 65.2055 5.56126 65.2055 5.23973C65.2055 4.91819 65.4661 4.65753 65.7877 4.65753C66.1092 4.65753 66.3699 4.91819 66.3699 5.23973Z" fill="#8C5AFF"/>
<path d="M71.0274 5.23973C71.0274 5.56126 70.7667 5.82192 70.4452 5.82192C70.1237 5.82192 69.863 5.56126 69.863 5.23973C69.863 4.91819 70.1237 4.65753 70.4452 4.65753C70.7667 4.65753 71.0274 4.91819 71.0274 5.23973Z" fill="#8C5AFF"/>
<path d="M75.6849 5.23973C75.6849 5.56126 75.4243 5.82192 75.1027 5.82192C74.7812 5.82192 74.5205 5.56126 74.5205 5.23973C74.5205 4.91819 74.7812 4.65753 75.1027 4.65753C75.4243 4.65753 75.6849 4.91819 75.6849 5.23973Z" fill="#8C5AFF"/>
<path d="M80.3425 5.23973C80.3425 5.56126 80.0818 5.82192 79.7603 5.82192C79.4387 5.82192 79.1781 5.56126 79.1781 5.23973C79.1781 4.91819 79.4387 4.65753 79.7603 4.65753C80.0818 4.65753 80.3425 4.91819 80.3425 5.23973Z" fill="#8C5AFF"/>
<path d="M85 5.23973C85 5.56126 84.7393 5.82192 84.4178 5.82192C84.0963 5.82192 83.8356 5.56126 83.8356 5.23973C83.8356 4.91819 84.0963 4.65753 84.4178 4.65753C84.7393 4.65753 85 4.91819 85 5.23973Z" fill="#8C5AFF"/>
<path d="M1.16438 9.89726C1.16438 10.2188 0.903727 10.4795 0.582192 10.4795C0.260656 10.4795 0 10.2188 0 9.89726C0 9.57572 0.260656 9.31507 0.582192 9.31507C0.903727 9.31507 1.16438 9.57572 1.16438 9.89726Z" fill="#8C5AFF"/>
<path d="M5.82192 9.89726C5.82192 10.2188 5.56126 10.4795 5.23973 10.4795C4.91819 10.4795 4.65753 10.2188 4.65753 9.89726C4.65753 9.57572 4.91819 9.31507 5.23973 9.31507C5.56126 9.31507 5.82192 9.57572 5.82192 9.89726Z" fill="#8C5AFF"/>
<path d="M10.4795 9.89726C10.4795 10.2188 10.2188 10.4795 9.89726 10.4795C9.57572 10.4795 9.31507 10.2188 9.31507 9.89726C9.31507 9.57572 9.57572 9.31507 9.89726 9.31507C10.2188 9.31507 10.4795 9.57572 10.4795 9.89726Z" fill="#8C5AFF"/>
<path d="M15.137 9.89726C15.137 10.2188 14.8763 10.4795 14.5548 10.4795C14.2333 10.4795 13.9726 10.2188 13.9726 9.89726C13.9726 9.57572 14.2333 9.31507 14.5548 9.31507C14.8763 9.31507 15.137 9.57572 15.137 9.89726Z" fill="#8C5AFF"/>
<path d="M19.7945 9.89726C19.7945 10.2188 19.5339 10.4795 19.2123 10.4795C18.8908 10.4795 18.6301 10.2188 18.6301 9.89726C18.6301 9.57572 18.8908 9.31507 19.2123 9.31507C19.5339 9.31507 19.7945 9.57572 19.7945 9.89726Z" fill="#8C5AFF"/>
<path d="M24.4521 9.89726C24.4521 10.2188 24.1914 10.4795 23.8699 10.4795C23.5483 10.4795 23.2877 10.2188 23.2877 9.89726C23.2877 9.57572 23.5483 9.31507 23.8699 9.31507C24.1914 9.31507 24.4521 9.57572 24.4521 9.89726Z" fill="#8C5AFF"/>
<path d="M29.1096 9.89726C29.1096 10.2188 28.8489 10.4795 28.5274 10.4795C28.2059 10.4795 27.9452 10.2188 27.9452 9.89726C27.9452 9.57572 28.2059 9.31507 28.5274 9.31507C28.8489 9.31507 29.1096 9.57572 29.1096 9.89726Z" fill="#8C5AFF"/>
<path d="M33.7671 9.89726C33.7671 10.2188 33.5065 10.4795 33.1849 10.4795C32.8634 10.4795 32.6027 10.2188 32.6027 9.89726C32.6027 9.57572 32.8634 9.31507 33.1849 9.31507C33.5065 9.31507 33.7671 9.57572 33.7671 9.89726Z" fill="#8C5AFF"/>
<path d="M38.4247 9.89726C38.4247 10.2188 38.164 10.4795 37.8425 10.4795C37.5209 10.4795 37.2603 10.2188 37.2603 9.89726C37.2603 9.57572 37.5209 9.31507 37.8425 9.31507C38.164 9.31507 38.4247 9.57572 38.4247 9.89726Z" fill="#8C5AFF"/>
<path d="M43.0822 9.89726C43.0822 10.2188 42.8215 10.4795 42.5 10.4795C42.1785 10.4795 41.9178 10.2188 41.9178 9.89726C41.9178 9.57572 42.1785 9.31507 42.5 9.31507C42.8215 9.31507 43.0822 9.57572 43.0822 9.89726Z" fill="#8C5AFF"/>
<path d="M47.7397 9.89726C47.7397 10.2188 47.4791 10.4795 47.1575 10.4795C46.836 10.4795 46.5753 10.2188 46.5753 9.89726C46.5753 9.57572 46.836 9.31507 47.1575 9.31507C47.4791 9.31507 47.7397 9.57572 47.7397 9.89726Z" fill="#8C5AFF"/>
<path d="M52.3973 9.89726C52.3973 10.2188 52.1366 10.4795 51.8151 10.4795C51.4935 10.4795 51.2329 10.2188 51.2329 9.89726C51.2329 9.57572 51.4935 9.31507 51.8151 9.31507C52.1366 9.31507 52.3973 9.57572 52.3973 9.89726Z" fill="#8C5AFF"/>
<path d="M57.0548 9.89726C57.0548 10.2188 56.7941 10.4795 56.4726 10.4795C56.1511 10.4795 55.8904 10.2188 55.8904 9.89726C55.8904 9.57572 56.1511 9.31507 56.4726 9.31507C56.7941 9.31507 57.0548 9.57572 57.0548 9.89726Z" fill="#8C5AFF"/>
<path d="M61.7123 9.89726C61.7123 10.2188 61.4517 10.4795 61.1301 10.4795C60.8086 10.4795 60.5479 10.2188 60.5479 9.89726C60.5479 9.57572 60.8086 9.31507 61.1301 9.31507C61.4517 9.31507 61.7123 9.57572 61.7123 9.89726Z" fill="#8C5AFF"/>
<path d="M66.3699 9.89726C66.3699 10.2188 66.1092 10.4795 65.7877 10.4795C65.4661 10.4795 65.2055 10.2188 65.2055 9.89726C65.2055 9.57572 65.4661 9.31507 65.7877 9.31507C66.1092 9.31507 66.3699 9.57572 66.3699 9.89726Z" fill="#8C5AFF"/>
<path d="M71.0274 9.89726C71.0274 10.2188 70.7667 10.4795 70.4452 10.4795C70.1237 10.4795 69.863 10.2188 69.863 9.89726C69.863 9.57572 70.1237 9.31507 70.4452 9.31507C70.7667 9.31507 71.0274 9.57572 71.0274 9.89726Z" fill="#8C5AFF"/>
<path d="M75.6849 9.89726C75.6849 10.2188 75.4243 10.4795 75.1027 10.4795C74.7812 10.4795 74.5205 10.2188 74.5205 9.89726C74.5205 9.57572 74.7812 9.31507 75.1027 9.31507C75.4243 9.31507 75.6849 9.57572 75.6849 9.89726Z" fill="#8C5AFF"/>
<path d="M80.3425 9.89726C80.3425 10.2188 80.0818 10.4795 79.7603 10.4795C79.4387 10.4795 79.1781 10.2188 79.1781 9.89726C79.1781 9.57572 79.4387 9.31507 79.7603 9.31507C80.0818 9.31507 80.3425 9.57572 80.3425 9.89726Z" fill="#8C5AFF"/>
<path d="M85 9.89726C85 10.2188 84.7393 10.4795 84.4178 10.4795C84.0963 10.4795 83.8356 10.2188 83.8356 9.89726C83.8356 9.57572 84.0963 9.31507 84.4178 9.31507C84.7393 9.31507 85 9.57572 85 9.89726Z" fill="#8C5AFF"/>
<path d="M1.16438 14.5548C1.16438 14.8763 0.903727 15.137 0.582192 15.137C0.260656 15.137 0 14.8763 0 14.5548C0 14.2333 0.260656 13.9726 0.582192 13.9726C0.903727 13.9726 1.16438 14.2333 1.16438 14.5548Z" fill="#8C5AFF"/>
<path d="M5.82192 14.5548C5.82192 14.8763 5.56126 15.137 5.23973 15.137C4.91819 15.137 4.65753 14.8763 4.65753 14.5548C4.65753 14.2333 4.91819 13.9726 5.23973 13.9726C5.56126 13.9726 5.82192 14.2333 5.82192 14.5548Z" fill="#8C5AFF"/>
<path d="M10.4795 14.5548C10.4795 14.8763 10.2188 15.137 9.89726 15.137C9.57572 15.137 9.31507 14.8763 9.31507 14.5548C9.31507 14.2333 9.57572 13.9726 9.89726 13.9726C10.2188 13.9726 10.4795 14.2333 10.4795 14.5548Z" fill="#8C5AFF"/>
<path d="M15.137 14.5548C15.137 14.8763 14.8763 15.137 14.5548 15.137C14.2333 15.137 13.9726 14.8763 13.9726 14.5548C13.9726 14.2333 14.2333 13.9726 14.5548 13.9726C14.8763 13.9726 15.137 14.2333 15.137 14.5548Z" fill="#8C5AFF"/>
<path d="M19.7945 14.5548C19.7945 14.8763 19.5339 15.137 19.2123 15.137C18.8908 15.137 18.6301 14.8763 18.6301 14.5548C18.6301 14.2333 18.8908 13.9726 19.2123 13.9726C19.5339 13.9726 19.7945 14.2333 19.7945 14.5548Z" fill="#8C5AFF"/>
<path d="M24.4521 14.5548C24.4521 14.8763 24.1914 15.137 23.8699 15.137C23.5483 15.137 23.2877 14.8763 23.2877 14.5548C23.2877 14.2333 23.5483 13.9726 23.8699 13.9726C24.1914 13.9726 24.4521 14.2333 24.4521 14.5548Z" fill="#8C5AFF"/>
<path d="M29.1096 14.5548C29.1096 14.8763 28.8489 15.137 28.5274 15.137C28.2059 15.137 27.9452 14.8763 27.9452 14.5548C27.9452 14.2333 28.2059 13.9726 28.5274 13.9726C28.8489 13.9726 29.1096 14.2333 29.1096 14.5548Z" fill="#8C5AFF"/>
<path d="M33.7671 14.5548C33.7671 14.8763 33.5065 15.137 33.1849 15.137C32.8634 15.137 32.6027 14.8763 32.6027 14.5548C32.6027 14.2333 32.8634 13.9726 33.1849 13.9726C33.5065 13.9726 33.7671 14.2333 33.7671 14.5548Z" fill="#8C5AFF"/>
<path d="M38.4247 14.5548C38.4247 14.8763 38.164 15.137 37.8425 15.137C37.5209 15.137 37.2603 14.8763 37.2603 14.5548C37.2603 14.2333 37.5209 13.9726 37.8425 13.9726C38.164 13.9726 38.4247 14.2333 38.4247 14.5548Z" fill="#8C5AFF"/>
<path d="M43.0822 14.5548C43.0822 14.8763 42.8215 15.137 42.5 15.137C42.1785 15.137 41.9178 14.8763 41.9178 14.5548C41.9178 14.2333 42.1785 13.9726 42.5 13.9726C42.8215 13.9726 43.0822 14.2333 43.0822 14.5548Z" fill="#8C5AFF"/>
<path d="M47.7397 14.5548C47.7397 14.8763 47.4791 15.137 47.1575 15.137C46.836 15.137 46.5753 14.8763 46.5753 14.5548C46.5753 14.2333 46.836 13.9726 47.1575 13.9726C47.4791 13.9726 47.7397 14.2333 47.7397 14.5548Z" fill="#8C5AFF"/>
<path d="M52.3973 14.5548C52.3973 14.8763 52.1366 15.137 51.8151 15.137C51.4935 15.137 51.2329 14.8763 51.2329 14.5548C51.2329 14.2333 51.4935 13.9726 51.8151 13.9726C52.1366 13.9726 52.3973 14.2333 52.3973 14.5548Z" fill="#8C5AFF"/>
<path d="M57.0548 14.5548C57.0548 14.8763 56.7941 15.137 56.4726 15.137C56.1511 15.137 55.8904 14.8763 55.8904 14.5548C55.8904 14.2333 56.1511 13.9726 56.4726 13.9726C56.7941 13.9726 57.0548 14.2333 57.0548 14.5548Z" fill="#8C5AFF"/>
<path d="M61.7123 14.5548C61.7123 14.8763 61.4517 15.137 61.1301 15.137C60.8086 15.137 60.5479 14.8763 60.5479 14.5548C60.5479 14.2333 60.8086 13.9726 61.1301 13.9726C61.4517 13.9726 61.7123 14.2333 61.7123 14.5548Z" fill="#8C5AFF"/>
<path d="M66.3699 14.5548C66.3699 14.8763 66.1092 15.137 65.7877 15.137C65.4661 15.137 65.2055 14.8763 65.2055 14.5548C65.2055 14.2333 65.4661 13.9726 65.7877 13.9726C66.1092 13.9726 66.3699 14.2333 66.3699 14.5548Z" fill="#8C5AFF"/>
<path d="M71.0274 14.5548C71.0274 14.8763 70.7667 15.137 70.4452 15.137C70.1237 15.137 69.863 14.8763 69.863 14.5548C69.863 14.2333 70.1237 13.9726 70.4452 13.9726C70.7667 13.9726 71.0274 14.2333 71.0274 14.5548Z" fill="#8C5AFF"/>
<path d="M75.6849 14.5548C75.6849 14.8763 75.4243 15.137 75.1027 15.137C74.7812 15.137 74.5205 14.8763 74.5205 14.5548C74.5205 14.2333 74.7812 13.9726 75.1027 13.9726C75.4243 13.9726 75.6849 14.2333 75.6849 14.5548Z" fill="#8C5AFF"/>
<path d="M80.3425 14.5548C80.3425 14.8763 80.0818 15.137 79.7603 15.137C79.4387 15.137 79.1781 14.8763 79.1781 14.5548C79.1781 14.2333 79.4387 13.9726 79.7603 13.9726C80.0818 13.9726 80.3425 14.2333 80.3425 14.5548Z" fill="#8C5AFF"/>
<path d="M85 14.5548C85 14.8763 84.7393 15.137 84.4178 15.137C84.0963 15.137 83.8356 14.8763 83.8356 14.5548C83.8356 14.2333 84.0963 13.9726 84.4178 13.9726C84.7393 13.9726 85 14.2333 85 14.5548Z" fill="#8C5AFF"/>
<path d="M1.16438 19.2123C1.16438 19.5339 0.903727 19.7945 0.582192 19.7945C0.260656 19.7945 0 19.5339 0 19.2123C0 18.8908 0.260656 18.6301 0.582192 18.6301C0.903727 18.6301 1.16438 18.8908 1.16438 19.2123Z" fill="#8C5AFF"/>
<path d="M5.82192 19.2123C5.82192 19.5339 5.56126 19.7945 5.23973 19.7945C4.91819 19.7945 4.65753 19.5339 4.65753 19.2123C4.65753 18.8908 4.91819 18.6301 5.23973 18.6301C5.56126 18.6301 5.82192 18.8908 5.82192 19.2123Z" fill="#8C5AFF"/>
<path d="M10.4795 19.2123C10.4795 19.5339 10.2188 19.7945 9.89726 19.7945C9.57572 19.7945 9.31507 19.5339 9.31507 19.2123C9.31507 18.8908 9.57572 18.6301 9.89726 18.6301C10.2188 18.6301 10.4795 18.8908 10.4795 19.2123Z" fill="#8C5AFF"/>
<path d="M15.137 19.2123C15.137 19.5339 14.8763 19.7945 14.5548 19.7945C14.2333 19.7945 13.9726 19.5339 13.9726 19.2123C13.9726 18.8908 14.2333 18.6301 14.5548 18.6301C14.8763 18.6301 15.137 18.8908 15.137 19.2123Z" fill="#8C5AFF"/>
<path d="M19.7945 19.2123C19.7945 19.5339 19.5339 19.7945 19.2123 19.7945C18.8908 19.7945 18.6301 19.5339 18.6301 19.2123C18.6301 18.8908 18.8908 18.6301 19.2123 18.6301C19.5339 18.6301 19.7945 18.8908 19.7945 19.2123Z" fill="#8C5AFF"/>
<path d="M24.4521 19.2123C24.4521 19.5339 24.1914 19.7945 23.8699 19.7945C23.5483 19.7945 23.2877 19.5339 23.2877 19.2123C23.2877 18.8908 23.5483 18.6301 23.8699 18.6301C24.1914 18.6301 24.4521 18.8908 24.4521 19.2123Z" fill="#8C5AFF"/>
<path d="M29.1096 19.2123C29.1096 19.5339 28.8489 19.7945 28.5274 19.7945C28.2059 19.7945 27.9452 19.5339 27.9452 19.2123C27.9452 18.8908 28.2059 18.6301 28.5274 18.6301C28.8489 18.6301 29.1096 18.8908 29.1096 19.2123Z" fill="#8C5AFF"/>
<path d="M33.7671 19.2123C33.7671 19.5339 33.5065 19.7945 33.1849 19.7945C32.8634 19.7945 32.6027 19.5339 32.6027 19.2123C32.6027 18.8908 32.8634 18.6301 33.1849 18.6301C33.5065 18.6301 33.7671 18.8908 33.7671 19.2123Z" fill="#8C5AFF"/>
<path d="M38.4247 19.2123C38.4247 19.5339 38.164 19.7945 37.8425 19.7945C37.5209 19.7945 37.2603 19.5339 37.2603 19.2123C37.2603 18.8908 37.5209 18.6301 37.8425 18.6301C38.164 18.6301 38.4247 18.8908 38.4247 19.2123Z" fill="#8C5AFF"/>
<path d="M43.0822 19.2123C43.0822 19.5339 42.8215 19.7945 42.5 19.7945C42.1785 19.7945 41.9178 19.5339 41.9178 19.2123C41.9178 18.8908 42.1785 18.6301 42.5 18.6301C42.8215 18.6301 43.0822 18.8908 43.0822 19.2123Z" fill="#8C5AFF"/>
<path d="M47.7397 19.2123C47.7397 19.5339 47.4791 19.7945 47.1575 19.7945C46.836 19.7945 46.5753 19.5339 46.5753 19.2123C46.5753 18.8908 46.836 18.6301 47.1575 18.6301C47.4791 18.6301 47.7397 18.8908 47.7397 19.2123Z" fill="#8C5AFF"/>
<path d="M52.3973 19.2123C52.3973 19.5339 52.1366 19.7945 51.8151 19.7945C51.4935 19.7945 51.2329 19.5339 51.2329 19.2123C51.2329 18.8908 51.4935 18.6301 51.8151 18.6301C52.1366 18.6301 52.3973 18.8908 52.3973 19.2123Z" fill="#8C5AFF"/>
<path d="M57.0548 19.2123C57.0548 19.5339 56.7941 19.7945 56.4726 19.7945C56.1511 19.7945 55.8904 19.5339 55.8904 19.2123C55.8904 18.8908 56.1511 18.6301 56.4726 18.6301C56.7941 18.6301 57.0548 18.8908 57.0548 19.2123Z" fill="#8C5AFF"/>
<path d="M61.7123 19.2123C61.7123 19.5339 61.4517 19.7945 61.1301 19.7945C60.8086 19.7945 60.5479 19.5339 60.5479 19.2123C60.5479 18.8908 60.8086 18.6301 61.1301 18.6301C61.4517 18.6301 61.7123 18.8908 61.7123 19.2123Z" fill="#8C5AFF"/>
<path d="M66.3699 19.2123C66.3699 19.5339 66.1092 19.7945 65.7877 19.7945C65.4661 19.7945 65.2055 19.5339 65.2055 19.2123C65.2055 18.8908 65.4661 18.6301 65.7877 18.6301C66.1092 18.6301 66.3699 18.8908 66.3699 19.2123Z" fill="#8C5AFF"/>
<path d="M71.0274 19.2123C71.0274 19.5339 70.7667 19.7945 70.4452 19.7945C70.1237 19.7945 69.863 19.5339 69.863 19.2123C69.863 18.8908 70.1237 18.6301 70.4452 18.6301C70.7667 18.6301 71.0274 18.8908 71.0274 19.2123Z" fill="#8C5AFF"/>
<path d="M75.6849 19.2123C75.6849 19.5339 75.4243 19.7945 75.1027 19.7945C74.7812 19.7945 74.5205 19.5339 74.5205 19.2123C74.5205 18.8908 74.7812 18.6301 75.1027 18.6301C75.4243 18.6301 75.6849 18.8908 75.6849 19.2123Z" fill="#8C5AFF"/>
<path d="M80.3425 19.2123C80.3425 19.5339 80.0818 19.7945 79.7603 19.7945C79.4387 19.7945 79.1781 19.5339 79.1781 19.2123C79.1781 18.8908 79.4387 18.6301 79.7603 18.6301C80.0818 18.6301 80.3425 18.8908 80.3425 19.2123Z" fill="#8C5AFF"/>
<path d="M85 19.2123C85 19.5339 84.7393 19.7945 84.4178 19.7945C84.0963 19.7945 83.8356 19.5339 83.8356 19.2123C83.8356 18.8908 84.0963 18.6301 84.4178 18.6301C84.7393 18.6301 85 18.8908 85 19.2123Z" fill="#8C5AFF"/>
<path d="M1.16438 23.8699C1.16438 24.1914 0.903727 24.4521 0.582192 24.4521C0.260656 24.4521 0 24.1914 0 23.8699C0 23.5483 0.260656 23.2877 0.582192 23.2877C0.903727 23.2877 1.16438 23.5483 1.16438 23.8699Z" fill="#8C5AFF"/>
<path d="M5.82192 23.8699C5.82192 24.1914 5.56126 24.4521 5.23973 24.4521C4.91819 24.4521 4.65753 24.1914 4.65753 23.8699C4.65753 23.5483 4.91819 23.2877 5.23973 23.2877C5.56126 23.2877 5.82192 23.5483 5.82192 23.8699Z" fill="#8C5AFF"/>
<path d="M10.4795 23.8699C10.4795 24.1914 10.2188 24.4521 9.89726 24.4521C9.57572 24.4521 9.31507 24.1914 9.31507 23.8699C9.31507 23.5483 9.57572 23.2877 9.89726 23.2877C10.2188 23.2877 10.4795 23.5483 10.4795 23.8699Z" fill="#8C5AFF"/>
<path d="M15.137 23.8699C15.137 24.1914 14.8763 24.4521 14.5548 24.4521C14.2333 24.4521 13.9726 24.1914 13.9726 23.8699C13.9726 23.5483 14.2333 23.2877 14.5548 23.2877C14.8763 23.2877 15.137 23.5483 15.137 23.8699Z" fill="#8C5AFF"/>
<path d="M19.7945 23.8699C19.7945 24.1914 19.5339 24.4521 19.2123 24.4521C18.8908 24.4521 18.6301 24.1914 18.6301 23.8699C18.6301 23.5483 18.8908 23.2877 19.2123 23.2877C19.5339 23.2877 19.7945 23.5483 19.7945 23.8699Z" fill="#8C5AFF"/>
<path d="M24.4521 23.8699C24.4521 24.1914 24.1914 24.4521 23.8699 24.4521C23.5483 24.4521 23.2877 24.1914 23.2877 23.8699C23.2877 23.5483 23.5483 23.2877 23.8699 23.2877C24.1914 23.2877 24.4521 23.5483 24.4521 23.8699Z" fill="#8C5AFF"/>
<path d="M29.1096 23.8699C29.1096 24.1914 28.8489 24.4521 28.5274 24.4521C28.2059 24.4521 27.9452 24.1914 27.9452 23.8699C27.9452 23.5483 28.2059 23.2877 28.5274 23.2877C28.8489 23.2877 29.1096 23.5483 29.1096 23.8699Z" fill="#8C5AFF"/>
<path d="M33.7671 23.8699C33.7671 24.1914 33.5065 24.4521 33.1849 24.4521C32.8634 24.4521 32.6027 24.1914 32.6027 23.8699C32.6027 23.5483 32.8634 23.2877 33.1849 23.2877C33.5065 23.2877 33.7671 23.5483 33.7671 23.8699Z" fill="#8C5AFF"/>
<path d="M38.4247 23.8699C38.4247 24.1914 38.164 24.4521 37.8425 24.4521C37.5209 24.4521 37.2603 24.1914 37.2603 23.8699C37.2603 23.5483 37.5209 23.2877 37.8425 23.2877C38.164 23.2877 38.4247 23.5483 38.4247 23.8699Z" fill="#8C5AFF"/>
<path d="M43.0822 23.8699C43.0822 24.1914 42.8215 24.4521 42.5 24.4521C42.1785 24.4521 41.9178 24.1914 41.9178 23.8699C41.9178 23.5483 42.1785 23.2877 42.5 23.2877C42.8215 23.2877 43.0822 23.5483 43.0822 23.8699Z" fill="#8C5AFF"/>
<path d="M47.7397 23.8699C47.7397 24.1914 47.4791 24.4521 47.1575 24.4521C46.836 24.4521 46.5753 24.1914 46.5753 23.8699C46.5753 23.5483 46.836 23.2877 47.1575 23.2877C47.4791 23.2877 47.7397 23.5483 47.7397 23.8699Z" fill="#8C5AFF"/>
<path d="M52.3973 23.8699C52.3973 24.1914 52.1366 24.4521 51.8151 24.4521C51.4935 24.4521 51.2329 24.1914 51.2329 23.8699C51.2329 23.5483 51.4935 23.2877 51.8151 23.2877C52.1366 23.2877 52.3973 23.5483 52.3973 23.8699Z" fill="#8C5AFF"/>
<path d="M57.0548 23.8699C57.0548 24.1914 56.7941 24.4521 56.4726 24.4521C56.1511 24.4521 55.8904 24.1914 55.8904 23.8699C55.8904 23.5483 56.1511 23.2877 56.4726 23.2877C56.7941 23.2877 57.0548 23.5483 57.0548 23.8699Z" fill="#8C5AFF"/>
<path d="M61.7123 23.8699C61.7123 24.1914 61.4517 24.4521 61.1301 24.4521C60.8086 24.4521 60.5479 24.1914 60.5479 23.8699C60.5479 23.5483 60.8086 23.2877 61.1301 23.2877C61.4517 23.2877 61.7123 23.5483 61.7123 23.8699Z" fill="#8C5AFF"/>
<path d="M66.3699 23.8699C66.3699 24.1914 66.1092 24.4521 65.7877 24.4521C65.4661 24.4521 65.2055 24.1914 65.2055 23.8699C65.2055 23.5483 65.4661 23.2877 65.7877 23.2877C66.1092 23.2877 66.3699 23.5483 66.3699 23.8699Z" fill="#8C5AFF"/>
<path d="M71.0274 23.8699C71.0274 24.1914 70.7667 24.4521 70.4452 24.4521C70.1237 24.4521 69.863 24.1914 69.863 23.8699C69.863 23.5483 70.1237 23.2877 70.4452 23.2877C70.7667 23.2877 71.0274 23.5483 71.0274 23.8699Z" fill="#8C5AFF"/>
<path d="M75.6849 23.8699C75.6849 24.1914 75.4243 24.4521 75.1027 24.4521C74.7812 24.4521 74.5205 24.1914 74.5205 23.8699C74.5205 23.5483 74.7812 23.2877 75.1027 23.2877C75.4243 23.2877 75.6849 23.5483 75.6849 23.8699Z" fill="#8C5AFF"/>
<path d="M80.3425 23.8699C80.3425 24.1914 80.0818 24.4521 79.7603 24.4521C79.4387 24.4521 79.1781 24.1914 79.1781 23.8699C79.1781 23.5483 79.4387 23.2877 79.7603 23.2877C80.0818 23.2877 80.3425 23.5483 80.3425 23.8699Z" fill="#8C5AFF"/>
<path d="M85 23.8699C85 24.1914 84.7393 24.4521 84.4178 24.4521C84.0963 24.4521 83.8356 24.1914 83.8356 23.8699C83.8356 23.5483 84.0963 23.2877 84.4178 23.2877C84.7393 23.2877 85 23.5483 85 23.8699Z" fill="#8C5AFF"/>
<path d="M1.16438 28.5274C1.16438 28.8489 0.903727 29.1096 0.582192 29.1096C0.260656 29.1096 0 28.8489 0 28.5274C0 28.2059 0.260656 27.9452 0.582192 27.9452C0.903727 27.9452 1.16438 28.2059 1.16438 28.5274Z" fill="#8C5AFF"/>
<path d="M5.82192 28.5274C5.82192 28.8489 5.56126 29.1096 5.23973 29.1096C4.91819 29.1096 4.65753 28.8489 4.65753 28.5274C4.65753 28.2059 4.91819 27.9452 5.23973 27.9452C5.56126 27.9452 5.82192 28.2059 5.82192 28.5274Z" fill="#8C5AFF"/>
<path d="M10.4795 28.5274C10.4795 28.8489 10.2188 29.1096 9.89726 29.1096C9.57572 29.1096 9.31507 28.8489 9.31507 28.5274C9.31507 28.2059 9.57572 27.9452 9.89726 27.9452C10.2188 27.9452 10.4795 28.2059 10.4795 28.5274Z" fill="#8C5AFF"/>
<path d="M15.137 28.5274C15.137 28.8489 14.8763 29.1096 14.5548 29.1096C14.2333 29.1096 13.9726 28.8489 13.9726 28.5274C13.9726 28.2059 14.2333 27.9452 14.5548 27.9452C14.8763 27.9452 15.137 28.2059 15.137 28.5274Z" fill="#8C5AFF"/>
<path d="M19.7945 28.5274C19.7945 28.8489 19.5339 29.1096 19.2123 29.1096C18.8908 29.1096 18.6301 28.8489 18.6301 28.5274C18.6301 28.2059 18.8908 27.9452 19.2123 27.9452C19.5339 27.9452 19.7945 28.2059 19.7945 28.5274Z" fill="#8C5AFF"/>
<path d="M24.4521 28.5274C24.4521 28.8489 24.1914 29.1096 23.8699 29.1096C23.5483 29.1096 23.2877 28.8489 23.2877 28.5274C23.2877 28.2059 23.5483 27.9452 23.8699 27.9452C24.1914 27.9452 24.4521 28.2059 24.4521 28.5274Z" fill="#8C5AFF"/>
<path d="M29.1096 28.5274C29.1096 28.8489 28.8489 29.1096 28.5274 29.1096C28.2059 29.1096 27.9452 28.8489 27.9452 28.5274C27.9452 28.2059 28.2059 27.9452 28.5274 27.9452C28.8489 27.9452 29.1096 28.2059 29.1096 28.5274Z" fill="#8C5AFF"/>
<path d="M33.7671 28.5274C33.7671 28.8489 33.5065 29.1096 33.1849 29.1096C32.8634 29.1096 32.6027 28.8489 32.6027 28.5274C32.6027 28.2059 32.8634 27.9452 33.1849 27.9452C33.5065 27.9452 33.7671 28.2059 33.7671 28.5274Z" fill="#8C5AFF"/>
<path d="M38.4247 28.5274C38.4247 28.8489 38.164 29.1096 37.8425 29.1096C37.5209 29.1096 37.2603 28.8489 37.2603 28.5274C37.2603 28.2059 37.5209 27.9452 37.8425 27.9452C38.164 27.9452 38.4247 28.2059 38.4247 28.5274Z" fill="#8C5AFF"/>
<path d="M43.0822 28.5274C43.0822 28.8489 42.8215 29.1096 42.5 29.1096C42.1785 29.1096 41.9178 28.8489 41.9178 28.5274C41.9178 28.2059 42.1785 27.9452 42.5 27.9452C42.8215 27.9452 43.0822 28.2059 43.0822 28.5274Z" fill="#8C5AFF"/>
<path d="M47.7397 28.5274C47.7397 28.8489 47.4791 29.1096 47.1575 29.1096C46.836 29.1096 46.5753 28.8489 46.5753 28.5274C46.5753 28.2059 46.836 27.9452 47.1575 27.9452C47.4791 27.9452 47.7397 28.2059 47.7397 28.5274Z" fill="#8C5AFF"/>
<path d="M52.3973 28.5274C52.3973 28.8489 52.1366 29.1096 51.8151 29.1096C51.4935 29.1096 51.2329 28.8489 51.2329 28.5274C51.2329 28.2059 51.4935 27.9452 51.8151 27.9452C52.1366 27.9452 52.3973 28.2059 52.3973 28.5274Z" fill="#8C5AFF"/>
<path d="M57.0548 28.5274C57.0548 28.8489 56.7941 29.1096 56.4726 29.1096C56.1511 29.1096 55.8904 28.8489 55.8904 28.5274C55.8904 28.2059 56.1511 27.9452 56.4726 27.9452C56.7941 27.9452 57.0548 28.2059 57.0548 28.5274Z" fill="#8C5AFF"/>
<path d="M61.7123 28.5274C61.7123 28.8489 61.4517 29.1096 61.1301 29.1096C60.8086 29.1096 60.5479 28.8489 60.5479 28.5274C60.5479 28.2059 60.8086 27.9452 61.1301 27.9452C61.4517 27.9452 61.7123 28.2059 61.7123 28.5274Z" fill="#8C5AFF"/>
<path d="M66.3699 28.5274C66.3699 28.8489 66.1092 29.1096 65.7877 29.1096C65.4661 29.1096 65.2055 28.8489 65.2055 28.5274C65.2055 28.2059 65.4661 27.9452 65.7877 27.9452C66.1092 27.9452 66.3699 28.2059 66.3699 28.5274Z" fill="#8C5AFF"/>
<path d="M71.0274 28.5274C71.0274 28.8489 70.7667 29.1096 70.4452 29.1096C70.1237 29.1096 69.863 28.8489 69.863 28.5274C69.863 28.2059 70.1237 27.9452 70.4452 27.9452C70.7667 27.9452 71.0274 28.2059 71.0274 28.5274Z" fill="#8C5AFF"/>
<path d="M75.6849 28.5274C75.6849 28.8489 75.4243 29.1096 75.1027 29.1096C74.7812 29.1096 74.5205 28.8489 74.5205 28.5274C74.5205 28.2059 74.7812 27.9452 75.1027 27.9452C75.4243 27.9452 75.6849 28.2059 75.6849 28.5274Z" fill="#8C5AFF"/>
<path d="M80.3425 28.5274C80.3425 28.8489 80.0818 29.1096 79.7603 29.1096C79.4387 29.1096 79.1781 28.8489 79.1781 28.5274C79.1781 28.2059 79.4387 27.9452 79.7603 27.9452C80.0818 27.9452 80.3425 28.2059 80.3425 28.5274Z" fill="#8C5AFF"/>
<path d="M85 28.5274C85 28.8489 84.7393 29.1096 84.4178 29.1096C84.0963 29.1096 83.8356 28.8489 83.8356 28.5274C83.8356 28.2059 84.0963 27.9452 84.4178 27.9452C84.7393 27.9452 85 28.2059 85 28.5274Z" fill="#8C5AFF"/>
<path d="M1.16438 33.1849C1.16438 33.5065 0.903727 33.7671 0.582192 33.7671C0.260656 33.7671 0 33.5065 0 33.1849C0 32.8634 0.260656 32.6027 0.582192 32.6027C0.903727 32.6027 1.16438 32.8634 1.16438 33.1849Z" fill="#8C5AFF"/>
<path d="M5.82192 33.1849C5.82192 33.5065 5.56126 33.7671 5.23973 33.7671C4.91819 33.7671 4.65753 33.5065 4.65753 33.1849C4.65753 32.8634 4.91819 32.6027 5.23973 32.6027C5.56126 32.6027 5.82192 32.8634 5.82192 33.1849Z" fill="#8C5AFF"/>
<path d="M10.4795 33.1849C10.4795 33.5065 10.2188 33.7671 9.89726 33.7671C9.57572 33.7671 9.31507 33.5065 9.31507 33.1849C9.31507 32.8634 9.57572 32.6027 9.89726 32.6027C10.2188 32.6027 10.4795 32.8634 10.4795 33.1849Z" fill="#8C5AFF"/>
<path d="M15.137 33.1849C15.137 33.5065 14.8763 33.7671 14.5548 33.7671C14.2333 33.7671 13.9726 33.5065 13.9726 33.1849C13.9726 32.8634 14.2333 32.6027 14.5548 32.6027C14.8763 32.6027 15.137 32.8634 15.137 33.1849Z" fill="#8C5AFF"/>
<path d="M19.7945 33.1849C19.7945 33.5065 19.5339 33.7671 19.2123 33.7671C18.8908 33.7671 18.6301 33.5065 18.6301 33.1849C18.6301 32.8634 18.8908 32.6027 19.2123 32.6027C19.5339 32.6027 19.7945 32.8634 19.7945 33.1849Z" fill="#8C5AFF"/>
<path d="M24.4521 33.1849C24.4521 33.5065 24.1914 33.7671 23.8699 33.7671C23.5483 33.7671 23.2877 33.5065 23.2877 33.1849C23.2877 32.8634 23.5483 32.6027 23.8699 32.6027C24.1914 32.6027 24.4521 32.8634 24.4521 33.1849Z" fill="#8C5AFF"/>
<path d="M29.1096 33.1849C29.1096 33.5065 28.8489 33.7671 28.5274 33.7671C28.2059 33.7671 27.9452 33.5065 27.9452 33.1849C27.9452 32.8634 28.2059 32.6027 28.5274 32.6027C28.8489 32.6027 29.1096 32.8634 29.1096 33.1849Z" fill="#8C5AFF"/>
<path d="M33.7671 33.1849C33.7671 33.5065 33.5065 33.7671 33.1849 33.7671C32.8634 33.7671 32.6027 33.5065 32.6027 33.1849C32.6027 32.8634 32.8634 32.6027 33.1849 32.6027C33.5065 32.6027 33.7671 32.8634 33.7671 33.1849Z" fill="#8C5AFF"/>
<path d="M38.4247 33.1849C38.4247 33.5065 38.164 33.7671 37.8425 33.7671C37.5209 33.7671 37.2603 33.5065 37.2603 33.1849C37.2603 32.8634 37.5209 32.6027 37.8425 32.6027C38.164 32.6027 38.4247 32.8634 38.4247 33.1849Z" fill="#8C5AFF"/>
<path d="M43.0822 33.1849C43.0822 33.5065 42.8215 33.7671 42.5 33.7671C42.1785 33.7671 41.9178 33.5065 41.9178 33.1849C41.9178 32.8634 42.1785 32.6027 42.5 32.6027C42.8215 32.6027 43.0822 32.8634 43.0822 33.1849Z" fill="#8C5AFF"/>
<path d="M47.7397 33.1849C47.7397 33.5065 47.4791 33.7671 47.1575 33.7671C46.836 33.7671 46.5753 33.5065 46.5753 33.1849C46.5753 32.8634 46.836 32.6027 47.1575 32.6027C47.4791 32.6027 47.7397 32.8634 47.7397 33.1849Z" fill="#8C5AFF"/>
<path d="M52.3973 33.1849C52.3973 33.5065 52.1366 33.7671 51.8151 33.7671C51.4935 33.7671 51.2329 33.5065 51.2329 33.1849C51.2329 32.8634 51.4935 32.6027 51.8151 32.6027C52.1366 32.6027 52.3973 32.8634 52.3973 33.1849Z" fill="#8C5AFF"/>
<path d="M57.0548 33.1849C57.0548 33.5065 56.7941 33.7671 56.4726 33.7671C56.1511 33.7671 55.8904 33.5065 55.8904 33.1849C55.8904 32.8634 56.1511 32.6027 56.4726 32.6027C56.7941 32.6027 57.0548 32.8634 57.0548 33.1849Z" fill="#8C5AFF"/>
<path d="M61.7123 33.1849C61.7123 33.5065 61.4517 33.7671 61.1301 33.7671C60.8086 33.7671 60.5479 33.5065 60.5479 33.1849C60.5479 32.8634 60.8086 32.6027 61.1301 32.6027C61.4517 32.6027 61.7123 32.8634 61.7123 33.1849Z" fill="#8C5AFF"/>
<path d="M66.3699 33.1849C66.3699 33.5065 66.1092 33.7671 65.7877 33.7671C65.4661 33.7671 65.2055 33.5065 65.2055 33.1849C65.2055 32.8634 65.4661 32.6027 65.7877 32.6027C66.1092 32.6027 66.3699 32.8634 66.3699 33.1849Z" fill="#8C5AFF"/>
<path d="M71.0274 33.1849C71.0274 33.5065 70.7667 33.7671 70.4452 33.7671C70.1237 33.7671 69.863 33.5065 69.863 33.1849C69.863 32.8634 70.1237 32.6027 70.4452 32.6027C70.7667 32.6027 71.0274 32.8634 71.0274 33.1849Z" fill="#8C5AFF"/>
<path d="M75.6849 33.1849C75.6849 33.5065 75.4243 33.7671 75.1027 33.7671C74.7812 33.7671 74.5205 33.5065 74.5205 33.1849C74.5205 32.8634 74.7812 32.6027 75.1027 32.6027C75.4243 32.6027 75.6849 32.8634 75.6849 33.1849Z" fill="#8C5AFF"/>
<path d="M80.3425 33.1849C80.3425 33.5065 80.0818 33.7671 79.7603 33.7671C79.4387 33.7671 79.1781 33.5065 79.1781 33.1849C79.1781 32.8634 79.4387 32.6027 79.7603 32.6027C80.0818 32.6027 80.3425 32.8634 80.3425 33.1849Z" fill="#8C5AFF"/>
<path d="M85 33.1849C85 33.5065 84.7393 33.7671 84.4178 33.7671C84.0963 33.7671 83.8356 33.5065 83.8356 33.1849C83.8356 32.8634 84.0963 32.6027 84.4178 32.6027C84.7393 32.6027 85 32.8634 85 33.1849Z" fill="#8C5AFF"/>
<path d="M1.16438 37.8425C1.16438 38.164 0.903727 38.4247 0.582192 38.4247C0.260656 38.4247 0 38.164 0 37.8425C0 37.5209 0.260656 37.2603 0.582192 37.2603C0.903727 37.2603 1.16438 37.5209 1.16438 37.8425Z" fill="#8C5AFF"/>
<path d="M5.82192 37.8425C5.82192 38.164 5.56126 38.4247 5.23973 38.4247C4.91819 38.4247 4.65753 38.164 4.65753 37.8425C4.65753 37.5209 4.91819 37.2603 5.23973 37.2603C5.56126 37.2603 5.82192 37.5209 5.82192 37.8425Z" fill="#8C5AFF"/>
<path d="M10.4795 37.8425C10.4795 38.164 10.2188 38.4247 9.89726 38.4247C9.57572 38.4247 9.31507 38.164 9.31507 37.8425C9.31507 37.5209 9.57572 37.2603 9.89726 37.2603C10.2188 37.2603 10.4795 37.5209 10.4795 37.8425Z" fill="#8C5AFF"/>
<path d="M15.137 37.8425C15.137 38.164 14.8763 38.4247 14.5548 38.4247C14.2333 38.4247 13.9726 38.164 13.9726 37.8425C13.9726 37.5209 14.2333 37.2603 14.5548 37.2603C14.8763 37.2603 15.137 37.5209 15.137 37.8425Z" fill="#8C5AFF"/>
<path d="M19.7945 37.8425C19.7945 38.164 19.5339 38.4247 19.2123 38.4247C18.8908 38.4247 18.6301 38.164 18.6301 37.8425C18.6301 37.5209 18.8908 37.2603 19.2123 37.2603C19.5339 37.2603 19.7945 37.5209 19.7945 37.8425Z" fill="#8C5AFF"/>
<path d="M24.4521 37.8425C24.4521 38.164 24.1914 38.4247 23.8699 38.4247C23.5483 38.4247 23.2877 38.164 23.2877 37.8425C23.2877 37.5209 23.5483 37.2603 23.8699 37.2603C24.1914 37.2603 24.4521 37.5209 24.4521 37.8425Z" fill="#8C5AFF"/>
<path d="M29.1096 37.8425C29.1096 38.164 28.8489 38.4247 28.5274 38.4247C28.2059 38.4247 27.9452 38.164 27.9452 37.8425C27.9452 37.5209 28.2059 37.2603 28.5274 37.2603C28.8489 37.2603 29.1096 37.5209 29.1096 37.8425Z" fill="#8C5AFF"/>
<path d="M33.7671 37.8425C33.7671 38.164 33.5065 38.4247 33.1849 38.4247C32.8634 38.4247 32.6027 38.164 32.6027 37.8425C32.6027 37.5209 32.8634 37.2603 33.1849 37.2603C33.5065 37.2603 33.7671 37.5209 33.7671 37.8425Z" fill="#8C5AFF"/>
<path d="M38.4247 37.8425C38.4247 38.164 38.164 38.4247 37.8425 38.4247C37.5209 38.4247 37.2603 38.164 37.2603 37.8425C37.2603 37.5209 37.5209 37.2603 37.8425 37.2603C38.164 37.2603 38.4247 37.5209 38.4247 37.8425Z" fill="#8C5AFF"/>
<path d="M43.0822 37.8425C43.0822 38.164 42.8215 38.4247 42.5 38.4247C42.1785 38.4247 41.9178 38.164 41.9178 37.8425C41.9178 37.5209 42.1785 37.2603 42.5 37.2603C42.8215 37.2603 43.0822 37.5209 43.0822 37.8425Z" fill="#8C5AFF"/>
<path d="M47.7397 37.8425C47.7397 38.164 47.4791 38.4247 47.1575 38.4247C46.836 38.4247 46.5753 38.164 46.5753 37.8425C46.5753 37.5209 46.836 37.2603 47.1575 37.2603C47.4791 37.2603 47.7397 37.5209 47.7397 37.8425Z" fill="#8C5AFF"/>
<path d="M52.3973 37.8425C52.3973 38.164 52.1366 38.4247 51.8151 38.4247C51.4935 38.4247 51.2329 38.164 51.2329 37.8425C51.2329 37.5209 51.4935 37.2603 51.8151 37.2603C52.1366 37.2603 52.3973 37.5209 52.3973 37.8425Z" fill="#8C5AFF"/>
<path d="M57.0548 37.8425C57.0548 38.164 56.7941 38.4247 56.4726 38.4247C56.1511 38.4247 55.8904 38.164 55.8904 37.8425C55.8904 37.5209 56.1511 37.2603 56.4726 37.2603C56.7941 37.2603 57.0548 37.5209 57.0548 37.8425Z" fill="#8C5AFF"/>
<path d="M61.7123 37.8425C61.7123 38.164 61.4517 38.4247 61.1301 38.4247C60.8086 38.4247 60.5479 38.164 60.5479 37.8425C60.5479 37.5209 60.8086 37.2603 61.1301 37.2603C61.4517 37.2603 61.7123 37.5209 61.7123 37.8425Z" fill="#8C5AFF"/>
<path d="M66.3699 37.8425C66.3699 38.164 66.1092 38.4247 65.7877 38.4247C65.4661 38.4247 65.2055 38.164 65.2055 37.8425C65.2055 37.5209 65.4661 37.2603 65.7877 37.2603C66.1092 37.2603 66.3699 37.5209 66.3699 37.8425Z" fill="#8C5AFF"/>
<path d="M71.0274 37.8425C71.0274 38.164 70.7667 38.4247 70.4452 38.4247C70.1237 38.4247 69.863 38.164 69.863 37.8425C69.863 37.5209 70.1237 37.2603 70.4452 37.2603C70.7667 37.2603 71.0274 37.5209 71.0274 37.8425Z" fill="#8C5AFF"/>
<path d="M75.6849 37.8425C75.6849 38.164 75.4243 38.4247 75.1027 38.4247C74.7812 38.4247 74.5205 38.164 74.5205 37.8425C74.5205 37.5209 74.7812 37.2603 75.1027 37.2603C75.4243 37.2603 75.6849 37.5209 75.6849 37.8425Z" fill="#8C5AFF"/>
<path d="M80.3425 37.8425C80.3425 38.164 80.0818 38.4247 79.7603 38.4247C79.4387 38.4247 79.1781 38.164 79.1781 37.8425C79.1781 37.5209 79.4387 37.2603 79.7603 37.2603C80.0818 37.2603 80.3425 37.5209 80.3425 37.8425Z" fill="#8C5AFF"/>
<path d="M85 37.8425C85 38.164 84.7393 38.4247 84.4178 38.4247C84.0963 38.4247 83.8356 38.164 83.8356 37.8425C83.8356 37.5209 84.0963 37.2603 84.4178 37.2603C84.7393 37.2603 85 37.5209 85 37.8425Z" fill="#8C5AFF"/>
<path d="M1.16438 42.5C1.16438 42.8215 0.903727 43.0822 0.582192 43.0822C0.260656 43.0822 0 42.8215 0 42.5C0 42.1785 0.260656 41.9178 0.582192 41.9178C0.903727 41.9178 1.16438 42.1785 1.16438 42.5Z" fill="#8C5AFF"/>
<path d="M5.82192 42.5C5.82192 42.8215 5.56126 43.0822 5.23973 43.0822C4.91819 43.0822 4.65753 42.8215 4.65753 42.5C4.65753 42.1785 4.91819 41.9178 5.23973 41.9178C5.56126 41.9178 5.82192 42.1785 5.82192 42.5Z" fill="#8C5AFF"/>
<path d="M10.4795 42.5C10.4795 42.8215 10.2188 43.0822 9.89726 43.0822C9.57572 43.0822 9.31507 42.8215 9.31507 42.5C9.31507 42.1785 9.57572 41.9178 9.89726 41.9178C10.2188 41.9178 10.4795 42.1785 10.4795 42.5Z" fill="#8C5AFF"/>
<path d="M15.137 42.5C15.137 42.8215 14.8763 43.0822 14.5548 43.0822C14.2333 43.0822 13.9726 42.8215 13.9726 42.5C13.9726 42.1785 14.2333 41.9178 14.5548 41.9178C14.8763 41.9178 15.137 42.1785 15.137 42.5Z" fill="#8C5AFF"/>
<path d="M19.7945 42.5C19.7945 42.8215 19.5339 43.0822 19.2123 43.0822C18.8908 43.0822 18.6301 42.8215 18.6301 42.5C18.6301 42.1785 18.8908 41.9178 19.2123 41.9178C19.5339 41.9178 19.7945 42.1785 19.7945 42.5Z" fill="#8C5AFF"/>
<path d="M24.4521 42.5C24.4521 42.8215 24.1914 43.0822 23.8699 43.0822C23.5483 43.0822 23.2877 42.8215 23.2877 42.5C23.2877 42.1785 23.5483 41.9178 23.8699 41.9178C24.1914 41.9178 24.4521 42.1785 24.4521 42.5Z" fill="#8C5AFF"/>
<path d="M29.1096 42.5C29.1096 42.8215 28.8489 43.0822 28.5274 43.0822C28.2059 43.0822 27.9452 42.8215 27.9452 42.5C27.9452 42.1785 28.2059 41.9178 28.5274 41.9178C28.8489 41.9178 29.1096 42.1785 29.1096 42.5Z" fill="#8C5AFF"/>
<path d="M33.7671 42.5C33.7671 42.8215 33.5065 43.0822 33.1849 43.0822C32.8634 43.0822 32.6027 42.8215 32.6027 42.5C32.6027 42.1785 32.8634 41.9178 33.1849 41.9178C33.5065 41.9178 33.7671 42.1785 33.7671 42.5Z" fill="#8C5AFF"/>
<path d="M38.4247 42.5C38.4247 42.8215 38.164 43.0822 37.8425 43.0822C37.5209 43.0822 37.2603 42.8215 37.2603 42.5C37.2603 42.1785 37.5209 41.9178 37.8425 41.9178C38.164 41.9178 38.4247 42.1785 38.4247 42.5Z" fill="#8C5AFF"/>
<path d="M43.0822 42.5C43.0822 42.8215 42.8215 43.0822 42.5 43.0822C42.1785 43.0822 41.9178 42.8215 41.9178 42.5C41.9178 42.1785 42.1785 41.9178 42.5 41.9178C42.8215 41.9178 43.0822 42.1785 43.0822 42.5Z" fill="#8C5AFF"/>
<path d="M47.7397 42.5C47.7397 42.8215 47.4791 43.0822 47.1575 43.0822C46.836 43.0822 46.5753 42.8215 46.5753 42.5C46.5753 42.1785 46.836 41.9178 47.1575 41.9178C47.4791 41.9178 47.7397 42.1785 47.7397 42.5Z" fill="#8C5AFF"/>
<path d="M52.3973 42.5C52.3973 42.8215 52.1366 43.0822 51.8151 43.0822C51.4935 43.0822 51.2329 42.8215 51.2329 42.5C51.2329 42.1785 51.4935 41.9178 51.8151 41.9178C52.1366 41.9178 52.3973 42.1785 52.3973 42.5Z" fill="#8C5AFF"/>
<path d="M57.0548 42.5C57.0548 42.8215 56.7941 43.0822 56.4726 43.0822C56.1511 43.0822 55.8904 42.8215 55.8904 42.5C55.8904 42.1785 56.1511 41.9178 56.4726 41.9178C56.7941 41.9178 57.0548 42.1785 57.0548 42.5Z" fill="#8C5AFF"/>
<path d="M61.7123 42.5C61.7123 42.8215 61.4517 43.0822 61.1301 43.0822C60.8086 43.0822 60.5479 42.8215 60.5479 42.5C60.5479 42.1785 60.8086 41.9178 61.1301 41.9178C61.4517 41.9178 61.7123 42.1785 61.7123 42.5Z" fill="#8C5AFF"/>
<path d="M66.3699 42.5C66.3699 42.8215 66.1092 43.0822 65.7877 43.0822C65.4661 43.0822 65.2055 42.8215 65.2055 42.5C65.2055 42.1785 65.4661 41.9178 65.7877 41.9178C66.1092 41.9178 66.3699 42.1785 66.3699 42.5Z" fill="#8C5AFF"/>
<path d="M71.0274 42.5C71.0274 42.8215 70.7667 43.0822 70.4452 43.0822C70.1237 43.0822 69.863 42.8215 69.863 42.5C69.863 42.1785 70.1237 41.9178 70.4452 41.9178C70.7667 41.9178 71.0274 42.1785 71.0274 42.5Z" fill="#8C5AFF"/>
<path d="M75.6849 42.5C75.6849 42.8215 75.4243 43.0822 75.1027 43.0822C74.7812 43.0822 74.5205 42.8215 74.5205 42.5C74.5205 42.1785 74.7812 41.9178 75.1027 41.9178C75.4243 41.9178 75.6849 42.1785 75.6849 42.5Z" fill="#8C5AFF"/>
<path d="M80.3425 42.5C80.3425 42.8215 80.0818 43.0822 79.7603 43.0822C79.4387 43.0822 79.1781 42.8215 79.1781 42.5C79.1781 42.1785 79.4387 41.9178 79.7603 41.9178C80.0818 41.9178 80.3425 42.1785 80.3425 42.5Z" fill="#8C5AFF"/>
<path d="M85 42.5C85 42.8215 84.7393 43.0822 84.4178 43.0822C84.0963 43.0822 83.8356 42.8215 83.8356 42.5C83.8356 42.1785 84.0963 41.9178 84.4178 41.9178C84.7393 41.9178 85 42.1785 85 42.5Z" fill="#8C5AFF"/>
<path d="M1.16438 47.1575C1.16438 47.4791 0.903727 47.7397 0.582192 47.7397C0.260656 47.7397 0 47.4791 0 47.1575C0 46.836 0.260656 46.5753 0.582192 46.5753C0.903727 46.5753 1.16438 46.836 1.16438 47.1575Z" fill="#8C5AFF"/>
<path d="M5.82192 47.1575C5.82192 47.4791 5.56126 47.7397 5.23973 47.7397C4.91819 47.7397 4.65753 47.4791 4.65753 47.1575C4.65753 46.836 4.91819 46.5753 5.23973 46.5753C5.56126 46.5753 5.82192 46.836 5.82192 47.1575Z" fill="#8C5AFF"/>
<path d="M10.4795 47.1575C10.4795 47.4791 10.2188 47.7397 9.89726 47.7397C9.57572 47.7397 9.31507 47.4791 9.31507 47.1575C9.31507 46.836 9.57572 46.5753 9.89726 46.5753C10.2188 46.5753 10.4795 46.836 10.4795 47.1575Z" fill="#8C5AFF"/>
<path d="M15.137 47.1575C15.137 47.4791 14.8763 47.7397 14.5548 47.7397C14.2333 47.7397 13.9726 47.4791 13.9726 47.1575C13.9726 46.836 14.2333 46.5753 14.5548 46.5753C14.8763 46.5753 15.137 46.836 15.137 47.1575Z" fill="#8C5AFF"/>
<path d="M19.7945 47.1575C19.7945 47.4791 19.5339 47.7397 19.2123 47.7397C18.8908 47.7397 18.6301 47.4791 18.6301 47.1575C18.6301 46.836 18.8908 46.5753 19.2123 46.5753C19.5339 46.5753 19.7945 46.836 19.7945 47.1575Z" fill="#8C5AFF"/>
<path d="M24.4521 47.1575C24.4521 47.4791 24.1914 47.7397 23.8699 47.7397C23.5483 47.7397 23.2877 47.4791 23.2877 47.1575C23.2877 46.836 23.5483 46.5753 23.8699 46.5753C24.1914 46.5753 24.4521 46.836 24.4521 47.1575Z" fill="#8C5AFF"/>
<path d="M29.1096 47.1575C29.1096 47.4791 28.8489 47.7397 28.5274 47.7397C28.2059 47.7397 27.9452 47.4791 27.9452 47.1575C27.9452 46.836 28.2059 46.5753 28.5274 46.5753C28.8489 46.5753 29.1096 46.836 29.1096 47.1575Z" fill="#8C5AFF"/>
<path d="M33.7671 47.1575C33.7671 47.4791 33.5065 47.7397 33.1849 47.7397C32.8634 47.7397 32.6027 47.4791 32.6027 47.1575C32.6027 46.836 32.8634 46.5753 33.1849 46.5753C33.5065 46.5753 33.7671 46.836 33.7671 47.1575Z" fill="#8C5AFF"/>
<path d="M38.4247 47.1575C38.4247 47.4791 38.164 47.7397 37.8425 47.7397C37.5209 47.7397 37.2603 47.4791 37.2603 47.1575C37.2603 46.836 37.5209 46.5753 37.8425 46.5753C38.164 46.5753 38.4247 46.836 38.4247 47.1575Z" fill="#8C5AFF"/>
<path d="M43.0822 47.1575C43.0822 47.4791 42.8215 47.7397 42.5 47.7397C42.1785 47.7397 41.9178 47.4791 41.9178 47.1575C41.9178 46.836 42.1785 46.5753 42.5 46.5753C42.8215 46.5753 43.0822 46.836 43.0822 47.1575Z" fill="#8C5AFF"/>
<path d="M47.7397 47.1575C47.7397 47.4791 47.4791 47.7397 47.1575 47.7397C46.836 47.7397 46.5753 47.4791 46.5753 47.1575C46.5753 46.836 46.836 46.5753 47.1575 46.5753C47.4791 46.5753 47.7397 46.836 47.7397 47.1575Z" fill="#8C5AFF"/>
<path d="M52.3973 47.1575C52.3973 47.4791 52.1366 47.7397 51.8151 47.7397C51.4935 47.7397 51.2329 47.4791 51.2329 47.1575C51.2329 46.836 51.4935 46.5753 51.8151 46.5753C52.1366 46.5753 52.3973 46.836 52.3973 47.1575Z" fill="#8C5AFF"/>
<path d="M57.0548 47.1575C57.0548 47.4791 56.7941 47.7397 56.4726 47.7397C56.1511 47.7397 55.8904 47.4791 55.8904 47.1575C55.8904 46.836 56.1511 46.5753 56.4726 46.5753C56.7941 46.5753 57.0548 46.836 57.0548 47.1575Z" fill="#8C5AFF"/>
<path d="M61.7123 47.1575C61.7123 47.4791 61.4517 47.7397 61.1301 47.7397C60.8086 47.7397 60.5479 47.4791 60.5479 47.1575C60.5479 46.836 60.8086 46.5753 61.1301 46.5753C61.4517 46.5753 61.7123 46.836 61.7123 47.1575Z" fill="#8C5AFF"/>
<path d="M66.3699 47.1575C66.3699 47.4791 66.1092 47.7397 65.7877 47.7397C65.4661 47.7397 65.2055 47.4791 65.2055 47.1575C65.2055 46.836 65.4661 46.5753 65.7877 46.5753C66.1092 46.5753 66.3699 46.836 66.3699 47.1575Z" fill="#8C5AFF"/>
<path d="M71.0274 47.1575C71.0274 47.4791 70.7667 47.7397 70.4452 47.7397C70.1237 47.7397 69.863 47.4791 69.863 47.1575C69.863 46.836 70.1237 46.5753 70.4452 46.5753C70.7667 46.5753 71.0274 46.836 71.0274 47.1575Z" fill="#8C5AFF"/>
<path d="M75.6849 47.1575C75.6849 47.4791 75.4243 47.7397 75.1027 47.7397C74.7812 47.7397 74.5205 47.4791 74.5205 47.1575C74.5205 46.836 74.7812 46.5753 75.1027 46.5753C75.4243 46.5753 75.6849 46.836 75.6849 47.1575Z" fill="#8C5AFF"/>
<path d="M80.3425 47.1575C80.3425 47.4791 80.0818 47.7397 79.7603 47.7397C79.4387 47.7397 79.1781 47.4791 79.1781 47.1575C79.1781 46.836 79.4387 46.5753 79.7603 46.5753C80.0818 46.5753 80.3425 46.836 80.3425 47.1575Z" fill="#8C5AFF"/>
<path d="M85 47.1575C85 47.4791 84.7393 47.7397 84.4178 47.7397C84.0963 47.7397 83.8356 47.4791 83.8356 47.1575C83.8356 46.836 84.0963 46.5753 84.4178 46.5753C84.7393 46.5753 85 46.836 85 47.1575Z" fill="#8C5AFF"/>
<path d="M1.16438 51.8151C1.16438 52.1366 0.903727 52.3973 0.582192 52.3973C0.260656 52.3973 0 52.1366 0 51.8151C0 51.4935 0.260656 51.2329 0.582192 51.2329C0.903727 51.2329 1.16438 51.4935 1.16438 51.8151Z" fill="#8C5AFF"/>
<path d="M5.82192 51.8151C5.82192 52.1366 5.56126 52.3973 5.23973 52.3973C4.91819 52.3973 4.65753 52.1366 4.65753 51.8151C4.65753 51.4935 4.91819 51.2329 5.23973 51.2329C5.56126 51.2329 5.82192 51.4935 5.82192 51.8151Z" fill="#8C5AFF"/>
<path d="M10.4795 51.8151C10.4795 52.1366 10.2188 52.3973 9.89726 52.3973C9.57572 52.3973 9.31507 52.1366 9.31507 51.8151C9.31507 51.4935 9.57572 51.2329 9.89726 51.2329C10.2188 51.2329 10.4795 51.4935 10.4795 51.8151Z" fill="#8C5AFF"/>
<path d="M15.137 51.8151C15.137 52.1366 14.8763 52.3973 14.5548 52.3973C14.2333 52.3973 13.9726 52.1366 13.9726 51.8151C13.9726 51.4935 14.2333 51.2329 14.5548 51.2329C14.8763 51.2329 15.137 51.4935 15.137 51.8151Z" fill="#8C5AFF"/>
<path d="M19.7945 51.8151C19.7945 52.1366 19.5339 52.3973 19.2123 52.3973C18.8908 52.3973 18.6301 52.1366 18.6301 51.8151C18.6301 51.4935 18.8908 51.2329 19.2123 51.2329C19.5339 51.2329 19.7945 51.4935 19.7945 51.8151Z" fill="#8C5AFF"/>
<path d="M24.4521 51.8151C24.4521 52.1366 24.1914 52.3973 23.8699 52.3973C23.5483 52.3973 23.2877 52.1366 23.2877 51.8151C23.2877 51.4935 23.5483 51.2329 23.8699 51.2329C24.1914 51.2329 24.4521 51.4935 24.4521 51.8151Z" fill="#8C5AFF"/>
<path d="M29.1096 51.8151C29.1096 52.1366 28.8489 52.3973 28.5274 52.3973C28.2059 52.3973 27.9452 52.1366 27.9452 51.8151C27.9452 51.4935 28.2059 51.2329 28.5274 51.2329C28.8489 51.2329 29.1096 51.4935 29.1096 51.8151Z" fill="#8C5AFF"/>
<path d="M33.7671 51.8151C33.7671 52.1366 33.5065 52.3973 33.1849 52.3973C32.8634 52.3973 32.6027 52.1366 32.6027 51.8151C32.6027 51.4935 32.8634 51.2329 33.1849 51.2329C33.5065 51.2329 33.7671 51.4935 33.7671 51.8151Z" fill="#8C5AFF"/>
<path d="M38.4247 51.8151C38.4247 52.1366 38.164 52.3973 37.8425 52.3973C37.5209 52.3973 37.2603 52.1366 37.2603 51.8151C37.2603 51.4935 37.5209 51.2329 37.8425 51.2329C38.164 51.2329 38.4247 51.4935 38.4247 51.8151Z" fill="#8C5AFF"/>
<path d="M43.0822 51.8151C43.0822 52.1366 42.8215 52.3973 42.5 52.3973C42.1785 52.3973 41.9178 52.1366 41.9178 51.8151C41.9178 51.4935 42.1785 51.2329 42.5 51.2329C42.8215 51.2329 43.0822 51.4935 43.0822 51.8151Z" fill="#8C5AFF"/>
<path d="M47.7397 51.8151C47.7397 52.1366 47.4791 52.3973 47.1575 52.3973C46.836 52.3973 46.5753 52.1366 46.5753 51.8151C46.5753 51.4935 46.836 51.2329 47.1575 51.2329C47.4791 51.2329 47.7397 51.4935 47.7397 51.8151Z" fill="#8C5AFF"/>
<path d="M52.3973 51.8151C52.3973 52.1366 52.1366 52.3973 51.8151 52.3973C51.4935 52.3973 51.2329 52.1366 51.2329 51.8151C51.2329 51.4935 51.4935 51.2329 51.8151 51.2329C52.1366 51.2329 52.3973 51.4935 52.3973 51.8151Z" fill="#8C5AFF"/>
<path d="M57.0548 51.8151C57.0548 52.1366 56.7941 52.3973 56.4726 52.3973C56.1511 52.3973 55.8904 52.1366 55.8904 51.8151C55.8904 51.4935 56.1511 51.2329 56.4726 51.2329C56.7941 51.2329 57.0548 51.4935 57.0548 51.8151Z" fill="#8C5AFF"/>
<path d="M61.7123 51.8151C61.7123 52.1366 61.4517 52.3973 61.1301 52.3973C60.8086 52.3973 60.5479 52.1366 60.5479 51.8151C60.5479 51.4935 60.8086 51.2329 61.1301 51.2329C61.4517 51.2329 61.7123 51.4935 61.7123 51.8151Z" fill="#8C5AFF"/>
<path d="M66.3699 51.8151C66.3699 52.1366 66.1092 52.3973 65.7877 52.3973C65.4661 52.3973 65.2055 52.1366 65.2055 51.8151C65.2055 51.4935 65.4661 51.2329 65.7877 51.2329C66.1092 51.2329 66.3699 51.4935 66.3699 51.8151Z" fill="#8C5AFF"/>
<path d="M71.0274 51.8151C71.0274 52.1366 70.7667 52.3973 70.4452 52.3973C70.1237 52.3973 69.863 52.1366 69.863 51.8151C69.863 51.4935 70.1237 51.2329 70.4452 51.2329C70.7667 51.2329 71.0274 51.4935 71.0274 51.8151Z" fill="#8C5AFF"/>
<path d="M75.6849 51.8151C75.6849 52.1366 75.4243 52.3973 75.1027 52.3973C74.7812 52.3973 74.5205 52.1366 74.5205 51.8151C74.5205 51.4935 74.7812 51.2329 75.1027 51.2329C75.4243 51.2329 75.6849 51.4935 75.6849 51.8151Z" fill="#8C5AFF"/>
<path d="M80.3425 51.8151C80.3425 52.1366 80.0818 52.3973 79.7603 52.3973C79.4387 52.3973 79.1781 52.1366 79.1781 51.8151C79.1781 51.4935 79.4387 51.2329 79.7603 51.2329C80.0818 51.2329 80.3425 51.4935 80.3425 51.8151Z" fill="#8C5AFF"/>
<path d="M85 51.8151C85 52.1366 84.7393 52.3973 84.4178 52.3973C84.0963 52.3973 83.8356 52.1366 83.8356 51.8151C83.8356 51.4935 84.0963 51.2329 84.4178 51.2329C84.7393 51.2329 85 51.4935 85 51.8151Z" fill="#8C5AFF"/>
<path d="M1.16438 56.4726C1.16438 56.7941 0.903727 57.0548 0.582192 57.0548C0.260656 57.0548 0 56.7941 0 56.4726C0 56.1511 0.260656 55.8904 0.582192 55.8904C0.903727 55.8904 1.16438 56.1511 1.16438 56.4726Z" fill="#8C5AFF"/>
<path d="M5.82192 56.4726C5.82192 56.7941 5.56126 57.0548 5.23973 57.0548C4.91819 57.0548 4.65753 56.7941 4.65753 56.4726C4.65753 56.1511 4.91819 55.8904 5.23973 55.8904C5.56126 55.8904 5.82192 56.1511 5.82192 56.4726Z" fill="#8C5AFF"/>
<path d="M10.4795 56.4726C10.4795 56.7941 10.2188 57.0548 9.89726 57.0548C9.57572 57.0548 9.31507 56.7941 9.31507 56.4726C9.31507 56.1511 9.57572 55.8904 9.89726 55.8904C10.2188 55.8904 10.4795 56.1511 10.4795 56.4726Z" fill="#8C5AFF"/>
<path d="M15.137 56.4726C15.137 56.7941 14.8763 57.0548 14.5548 57.0548C14.2333 57.0548 13.9726 56.7941 13.9726 56.4726C13.9726 56.1511 14.2333 55.8904 14.5548 55.8904C14.8763 55.8904 15.137 56.1511 15.137 56.4726Z" fill="#8C5AFF"/>
<path d="M19.7945 56.4726C19.7945 56.7941 19.5339 57.0548 19.2123 57.0548C18.8908 57.0548 18.6301 56.7941 18.6301 56.4726C18.6301 56.1511 18.8908 55.8904 19.2123 55.8904C19.5339 55.8904 19.7945 56.1511 19.7945 56.4726Z" fill="#8C5AFF"/>
<path d="M24.4521 56.4726C24.4521 56.7941 24.1914 57.0548 23.8699 57.0548C23.5483 57.0548 23.2877 56.7941 23.2877 56.4726C23.2877 56.1511 23.5483 55.8904 23.8699 55.8904C24.1914 55.8904 24.4521 56.1511 24.4521 56.4726Z" fill="#8C5AFF"/>
<path d="M29.1096 56.4726C29.1096 56.7941 28.8489 57.0548 28.5274 57.0548C28.2059 57.0548 27.9452 56.7941 27.9452 56.4726C27.9452 56.1511 28.2059 55.8904 28.5274 55.8904C28.8489 55.8904 29.1096 56.1511 29.1096 56.4726Z" fill="#8C5AFF"/>
<path d="M33.7671 56.4726C33.7671 56.7941 33.5065 57.0548 33.1849 57.0548C32.8634 57.0548 32.6027 56.7941 32.6027 56.4726C32.6027 56.1511 32.8634 55.8904 33.1849 55.8904C33.5065 55.8904 33.7671 56.1511 33.7671 56.4726Z" fill="#8C5AFF"/>
<path d="M38.4247 56.4726C38.4247 56.7941 38.164 57.0548 37.8425 57.0548C37.5209 57.0548 37.2603 56.7941 37.2603 56.4726C37.2603 56.1511 37.5209 55.8904 37.8425 55.8904C38.164 55.8904 38.4247 56.1511 38.4247 56.4726Z" fill="#8C5AFF"/>
<path d="M43.0822 56.4726C43.0822 56.7941 42.8215 57.0548 42.5 57.0548C42.1785 57.0548 41.9178 56.7941 41.9178 56.4726C41.9178 56.1511 42.1785 55.8904 42.5 55.8904C42.8215 55.8904 43.0822 56.1511 43.0822 56.4726Z" fill="#8C5AFF"/>
<path d="M47.7397 56.4726C47.7397 56.7941 47.4791 57.0548 47.1575 57.0548C46.836 57.0548 46.5753 56.7941 46.5753 56.4726C46.5753 56.1511 46.836 55.8904 47.1575 55.8904C47.4791 55.8904 47.7397 56.1511 47.7397 56.4726Z" fill="#8C5AFF"/>
<path d="M52.3973 56.4726C52.3973 56.7941 52.1366 57.0548 51.8151 57.0548C51.4935 57.0548 51.2329 56.7941 51.2329 56.4726C51.2329 56.1511 51.4935 55.8904 51.8151 55.8904C52.1366 55.8904 52.3973 56.1511 52.3973 56.4726Z" fill="#8C5AFF"/>
<path d="M57.0548 56.4726C57.0548 56.7941 56.7941 57.0548 56.4726 57.0548C56.1511 57.0548 55.8904 56.7941 55.8904 56.4726C55.8904 56.1511 56.1511 55.8904 56.4726 55.8904C56.7941 55.8904 57.0548 56.1511 57.0548 56.4726Z" fill="#8C5AFF"/>
<path d="M61.7123 56.4726C61.7123 56.7941 61.4517 57.0548 61.1301 57.0548C60.8086 57.0548 60.5479 56.7941 60.5479 56.4726C60.5479 56.1511 60.8086 55.8904 61.1301 55.8904C61.4517 55.8904 61.7123 56.1511 61.7123 56.4726Z" fill="#8C5AFF"/>
<path d="M66.3699 56.4726C66.3699 56.7941 66.1092 57.0548 65.7877 57.0548C65.4661 57.0548 65.2055 56.7941 65.2055 56.4726C65.2055 56.1511 65.4661 55.8904 65.7877 55.8904C66.1092 55.8904 66.3699 56.1511 66.3699 56.4726Z" fill="#8C5AFF"/>
<path d="M71.0274 56.4726C71.0274 56.7941 70.7667 57.0548 70.4452 57.0548C70.1237 57.0548 69.863 56.7941 69.863 56.4726C69.863 56.1511 70.1237 55.8904 70.4452 55.8904C70.7667 55.8904 71.0274 56.1511 71.0274 56.4726Z" fill="#8C5AFF"/>
<path d="M75.6849 56.4726C75.6849 56.7941 75.4243 57.0548 75.1027 57.0548C74.7812 57.0548 74.5205 56.7941 74.5205 56.4726C74.5205 56.1511 74.7812 55.8904 75.1027 55.8904C75.4243 55.8904 75.6849 56.1511 75.6849 56.4726Z" fill="#8C5AFF"/>
<path d="M80.3425 56.4726C80.3425 56.7941 80.0818 57.0548 79.7603 57.0548C79.4387 57.0548 79.1781 56.7941 79.1781 56.4726C79.1781 56.1511 79.4387 55.8904 79.7603 55.8904C80.0818 55.8904 80.3425 56.1511 80.3425 56.4726Z" fill="#8C5AFF"/>
<path d="M85 56.4726C85 56.7941 84.7393 57.0548 84.4178 57.0548C84.0963 57.0548 83.8356 56.7941 83.8356 56.4726C83.8356 56.1511 84.0963 55.8904 84.4178 55.8904C84.7393 55.8904 85 56.1511 85 56.4726Z" fill="#8C5AFF"/>
<path d="M1.16438 61.1301C1.16438 61.4517 0.903727 61.7123 0.582192 61.7123C0.260656 61.7123 0 61.4517 0 61.1301C0 60.8086 0.260656 60.5479 0.582192 60.5479C0.903727 60.5479 1.16438 60.8086 1.16438 61.1301Z" fill="#8C5AFF"/>
<path d="M5.82192 61.1301C5.82192 61.4517 5.56126 61.7123 5.23973 61.7123C4.91819 61.7123 4.65753 61.4517 4.65753 61.1301C4.65753 60.8086 4.91819 60.5479 5.23973 60.5479C5.56126 60.5479 5.82192 60.8086 5.82192 61.1301Z" fill="#8C5AFF"/>
<path d="M10.4795 61.1301C10.4795 61.4517 10.2188 61.7123 9.89726 61.7123C9.57572 61.7123 9.31507 61.4517 9.31507 61.1301C9.31507 60.8086 9.57572 60.5479 9.89726 60.5479C10.2188 60.5479 10.4795 60.8086 10.4795 61.1301Z" fill="#8C5AFF"/>
<path d="M15.137 61.1301C15.137 61.4517 14.8763 61.7123 14.5548 61.7123C14.2333 61.7123 13.9726 61.4517 13.9726 61.1301C13.9726 60.8086 14.2333 60.5479 14.5548 60.5479C14.8763 60.5479 15.137 60.8086 15.137 61.1301Z" fill="#8C5AFF"/>
<path d="M19.7945 61.1301C19.7945 61.4517 19.5339 61.7123 19.2123 61.7123C18.8908 61.7123 18.6301 61.4517 18.6301 61.1301C18.6301 60.8086 18.8908 60.5479 19.2123 60.5479C19.5339 60.5479 19.7945 60.8086 19.7945 61.1301Z" fill="#8C5AFF"/>
<path d="M24.4521 61.1301C24.4521 61.4517 24.1914 61.7123 23.8699 61.7123C23.5483 61.7123 23.2877 61.4517 23.2877 61.1301C23.2877 60.8086 23.5483 60.5479 23.8699 60.5479C24.1914 60.5479 24.4521 60.8086 24.4521 61.1301Z" fill="#8C5AFF"/>
<path d="M29.1096 61.1301C29.1096 61.4517 28.8489 61.7123 28.5274 61.7123C28.2059 61.7123 27.9452 61.4517 27.9452 61.1301C27.9452 60.8086 28.2059 60.5479 28.5274 60.5479C28.8489 60.5479 29.1096 60.8086 29.1096 61.1301Z" fill="#8C5AFF"/>
<path d="M33.7671 61.1301C33.7671 61.4517 33.5065 61.7123 33.1849 61.7123C32.8634 61.7123 32.6027 61.4517 32.6027 61.1301C32.6027 60.8086 32.8634 60.5479 33.1849 60.5479C33.5065 60.5479 33.7671 60.8086 33.7671 61.1301Z" fill="#8C5AFF"/>
<path d="M38.4247 61.1301C38.4247 61.4517 38.164 61.7123 37.8425 61.7123C37.5209 61.7123 37.2603 61.4517 37.2603 61.1301C37.2603 60.8086 37.5209 60.5479 37.8425 60.5479C38.164 60.5479 38.4247 60.8086 38.4247 61.1301Z" fill="#8C5AFF"/>
<path d="M43.0822 61.1301C43.0822 61.4517 42.8215 61.7123 42.5 61.7123C42.1785 61.7123 41.9178 61.4517 41.9178 61.1301C41.9178 60.8086 42.1785 60.5479 42.5 60.5479C42.8215 60.5479 43.0822 60.8086 43.0822 61.1301Z" fill="#8C5AFF"/>
<path d="M47.7397 61.1301C47.7397 61.4517 47.4791 61.7123 47.1575 61.7123C46.836 61.7123 46.5753 61.4517 46.5753 61.1301C46.5753 60.8086 46.836 60.5479 47.1575 60.5479C47.4791 60.5479 47.7397 60.8086 47.7397 61.1301Z" fill="#8C5AFF"/>
<path d="M52.3973 61.1301C52.3973 61.4517 52.1366 61.7123 51.8151 61.7123C51.4935 61.7123 51.2329 61.4517 51.2329 61.1301C51.2329 60.8086 51.4935 60.5479 51.8151 60.5479C52.1366 60.5479 52.3973 60.8086 52.3973 61.1301Z" fill="#8C5AFF"/>
<path d="M57.0548 61.1301C57.0548 61.4517 56.7941 61.7123 56.4726 61.7123C56.1511 61.7123 55.8904 61.4517 55.8904 61.1301C55.8904 60.8086 56.1511 60.5479 56.4726 60.5479C56.7941 60.5479 57.0548 60.8086 57.0548 61.1301Z" fill="#8C5AFF"/>
<path d="M61.7123 61.1301C61.7123 61.4517 61.4517 61.7123 61.1301 61.7123C60.8086 61.7123 60.5479 61.4517 60.5479 61.1301C60.5479 60.8086 60.8086 60.5479 61.1301 60.5479C61.4517 60.5479 61.7123 60.8086 61.7123 61.1301Z" fill="#8C5AFF"/>
<path d="M66.3699 61.1301C66.3699 61.4517 66.1092 61.7123 65.7877 61.7123C65.4661 61.7123 65.2055 61.4517 65.2055 61.1301C65.2055 60.8086 65.4661 60.5479 65.7877 60.5479C66.1092 60.5479 66.3699 60.8086 66.3699 61.1301Z" fill="#8C5AFF"/>
<path d="M71.0274 61.1301C71.0274 61.4517 70.7667 61.7123 70.4452 61.7123C70.1237 61.7123 69.863 61.4517 69.863 61.1301C69.863 60.8086 70.1237 60.5479 70.4452 60.5479C70.7667 60.5479 71.0274 60.8086 71.0274 61.1301Z" fill="#8C5AFF"/>
<path d="M75.6849 61.1301C75.6849 61.4517 75.4243 61.7123 75.1027 61.7123C74.7812 61.7123 74.5205 61.4517 74.5205 61.1301C74.5205 60.8086 74.7812 60.5479 75.1027 60.5479C75.4243 60.5479 75.6849 60.8086 75.6849 61.1301Z" fill="#8C5AFF"/>
<path d="M80.3425 61.1301C80.3425 61.4517 80.0818 61.7123 79.7603 61.7123C79.4387 61.7123 79.1781 61.4517 79.1781 61.1301C79.1781 60.8086 79.4387 60.5479 79.7603 60.5479C80.0818 60.5479 80.3425 60.8086 80.3425 61.1301Z" fill="#8C5AFF"/>
<path d="M85 61.1301C85 61.4517 84.7393 61.7123 84.4178 61.7123C84.0963 61.7123 83.8356 61.4517 83.8356 61.1301C83.8356 60.8086 84.0963 60.5479 84.4178 60.5479C84.7393 60.5479 85 60.8086 85 61.1301Z" fill="#8C5AFF"/>
<path d="M1.16438 65.7877C1.16438 66.1092 0.903727 66.3699 0.582192 66.3699C0.260656 66.3699 0 66.1092 0 65.7877C0 65.4661 0.260656 65.2055 0.582192 65.2055C0.903727 65.2055 1.16438 65.4661 1.16438 65.7877Z" fill="#8C5AFF"/>
<path d="M5.82192 65.7877C5.82192 66.1092 5.56126 66.3699 5.23973 66.3699C4.91819 66.3699 4.65753 66.1092 4.65753 65.7877C4.65753 65.4661 4.91819 65.2055 5.23973 65.2055C5.56126 65.2055 5.82192 65.4661 5.82192 65.7877Z" fill="#8C5AFF"/>
<path d="M10.4795 65.7877C10.4795 66.1092 10.2188 66.3699 9.89726 66.3699C9.57572 66.3699 9.31507 66.1092 9.31507 65.7877C9.31507 65.4661 9.57572 65.2055 9.89726 65.2055C10.2188 65.2055 10.4795 65.4661 10.4795 65.7877Z" fill="#8C5AFF"/>
<path d="M15.137 65.7877C15.137 66.1092 14.8763 66.3699 14.5548 66.3699C14.2333 66.3699 13.9726 66.1092 13.9726 65.7877C13.9726 65.4661 14.2333 65.2055 14.5548 65.2055C14.8763 65.2055 15.137 65.4661 15.137 65.7877Z" fill="#8C5AFF"/>
<path d="M19.7945 65.7877C19.7945 66.1092 19.5339 66.3699 19.2123 66.3699C18.8908 66.3699 18.6301 66.1092 18.6301 65.7877C18.6301 65.4661 18.8908 65.2055 19.2123 65.2055C19.5339 65.2055 19.7945 65.4661 19.7945 65.7877Z" fill="#8C5AFF"/>
<path d="M24.4521 65.7877C24.4521 66.1092 24.1914 66.3699 23.8699 66.3699C23.5483 66.3699 23.2877 66.1092 23.2877 65.7877C23.2877 65.4661 23.5483 65.2055 23.8699 65.2055C24.1914 65.2055 24.4521 65.4661 24.4521 65.7877Z" fill="#8C5AFF"/>
<path d="M29.1096 65.7877C29.1096 66.1092 28.8489 66.3699 28.5274 66.3699C28.2059 66.3699 27.9452 66.1092 27.9452 65.7877C27.9452 65.4661 28.2059 65.2055 28.5274 65.2055C28.8489 65.2055 29.1096 65.4661 29.1096 65.7877Z" fill="#8C5AFF"/>
<path d="M33.7671 65.7877C33.7671 66.1092 33.5065 66.3699 33.1849 66.3699C32.8634 66.3699 32.6027 66.1092 32.6027 65.7877C32.6027 65.4661 32.8634 65.2055 33.1849 65.2055C33.5065 65.2055 33.7671 65.4661 33.7671 65.7877Z" fill="#8C5AFF"/>
<path d="M38.4247 65.7877C38.4247 66.1092 38.164 66.3699 37.8425 66.3699C37.5209 66.3699 37.2603 66.1092 37.2603 65.7877C37.2603 65.4661 37.5209 65.2055 37.8425 65.2055C38.164 65.2055 38.4247 65.4661 38.4247 65.7877Z" fill="#8C5AFF"/>
<path d="M43.0822 65.7877C43.0822 66.1092 42.8215 66.3699 42.5 66.3699C42.1785 66.3699 41.9178 66.1092 41.9178 65.7877C41.9178 65.4661 42.1785 65.2055 42.5 65.2055C42.8215 65.2055 43.0822 65.4661 43.0822 65.7877Z" fill="#8C5AFF"/>
<path d="M47.7397 65.7877C47.7397 66.1092 47.4791 66.3699 47.1575 66.3699C46.836 66.3699 46.5753 66.1092 46.5753 65.7877C46.5753 65.4661 46.836 65.2055 47.1575 65.2055C47.4791 65.2055 47.7397 65.4661 47.7397 65.7877Z" fill="#8C5AFF"/>
<path d="M52.3973 65.7877C52.3973 66.1092 52.1366 66.3699 51.8151 66.3699C51.4935 66.3699 51.2329 66.1092 51.2329 65.7877C51.2329 65.4661 51.4935 65.2055 51.8151 65.2055C52.1366 65.2055 52.3973 65.4661 52.3973 65.7877Z" fill="#8C5AFF"/>
<path d="M57.0548 65.7877C57.0548 66.1092 56.7941 66.3699 56.4726 66.3699C56.1511 66.3699 55.8904 66.1092 55.8904 65.7877C55.8904 65.4661 56.1511 65.2055 56.4726 65.2055C56.7941 65.2055 57.0548 65.4661 57.0548 65.7877Z" fill="#8C5AFF"/>
<path d="M61.7123 65.7877C61.7123 66.1092 61.4517 66.3699 61.1301 66.3699C60.8086 66.3699 60.5479 66.1092 60.5479 65.7877C60.5479 65.4661 60.8086 65.2055 61.1301 65.2055C61.4517 65.2055 61.7123 65.4661 61.7123 65.7877Z" fill="#8C5AFF"/>
<path d="M66.3699 65.7877C66.3699 66.1092 66.1092 66.3699 65.7877 66.3699C65.4661 66.3699 65.2055 66.1092 65.2055 65.7877C65.2055 65.4661 65.4661 65.2055 65.7877 65.2055C66.1092 65.2055 66.3699 65.4661 66.3699 65.7877Z" fill="#8C5AFF"/>
<path d="M71.0274 65.7877C71.0274 66.1092 70.7667 66.3699 70.4452 66.3699C70.1237 66.3699 69.863 66.1092 69.863 65.7877C69.863 65.4661 70.1237 65.2055 70.4452 65.2055C70.7667 65.2055 71.0274 65.4661 71.0274 65.7877Z" fill="#8C5AFF"/>
<path d="M75.6849 65.7877C75.6849 66.1092 75.4243 66.3699 75.1027 66.3699C74.7812 66.3699 74.5205 66.1092 74.5205 65.7877C74.5205 65.4661 74.7812 65.2055 75.1027 65.2055C75.4243 65.2055 75.6849 65.4661 75.6849 65.7877Z" fill="#8C5AFF"/>
<path d="M80.3425 65.7877C80.3425 66.1092 80.0818 66.3699 79.7603 66.3699C79.4387 66.3699 79.1781 66.1092 79.1781 65.7877C79.1781 65.4661 79.4387 65.2055 79.7603 65.2055C80.0818 65.2055 80.3425 65.4661 80.3425 65.7877Z" fill="#8C5AFF"/>
<path d="M85 65.7877C85 66.1092 84.7393 66.3699 84.4178 66.3699C84.0963 66.3699 83.8356 66.1092 83.8356 65.7877C83.8356 65.4661 84.0963 65.2055 84.4178 65.2055C84.7393 65.2055 85 65.4661 85 65.7877Z" fill="#8C5AFF"/>
<path d="M1.16438 70.4452C1.16438 70.7667 0.903727 71.0274 0.582192 71.0274C0.260656 71.0274 0 70.7667 0 70.4452C0 70.1237 0.260656 69.863 0.582192 69.863C0.903727 69.863 1.16438 70.1237 1.16438 70.4452Z" fill="#8C5AFF"/>
<path d="M5.82192 70.4452C5.82192 70.7667 5.56126 71.0274 5.23973 71.0274C4.91819 71.0274 4.65753 70.7667 4.65753 70.4452C4.65753 70.1237 4.91819 69.863 5.23973 69.863C5.56126 69.863 5.82192 70.1237 5.82192 70.4452Z" fill="#8C5AFF"/>
<path d="M10.4795 70.4452C10.4795 70.7667 10.2188 71.0274 9.89726 71.0274C9.57572 71.0274 9.31507 70.7667 9.31507 70.4452C9.31507 70.1237 9.57572 69.863 9.89726 69.863C10.2188 69.863 10.4795 70.1237 10.4795 70.4452Z" fill="#8C5AFF"/>
<path d="M15.137 70.4452C15.137 70.7667 14.8763 71.0274 14.5548 71.0274C14.2333 71.0274 13.9726 70.7667 13.9726 70.4452C13.9726 70.1237 14.2333 69.863 14.5548 69.863C14.8763 69.863 15.137 70.1237 15.137 70.4452Z" fill="#8C5AFF"/>
<path d="M19.7945 70.4452C19.7945 70.7667 19.5339 71.0274 19.2123 71.0274C18.8908 71.0274 18.6301 70.7667 18.6301 70.4452C18.6301 70.1237 18.8908 69.863 19.2123 69.863C19.5339 69.863 19.7945 70.1237 19.7945 70.4452Z" fill="#8C5AFF"/>
<path d="M24.4521 70.4452C24.4521 70.7667 24.1914 71.0274 23.8699 71.0274C23.5483 71.0274 23.2877 70.7667 23.2877 70.4452C23.2877 70.1237 23.5483 69.863 23.8699 69.863C24.1914 69.863 24.4521 70.1237 24.4521 70.4452Z" fill="#8C5AFF"/>
<path d="M29.1096 70.4452C29.1096 70.7667 28.8489 71.0274 28.5274 71.0274C28.2059 71.0274 27.9452 70.7667 27.9452 70.4452C27.9452 70.1237 28.2059 69.863 28.5274 69.863C28.8489 69.863 29.1096 70.1237 29.1096 70.4452Z" fill="#8C5AFF"/>
<path d="M33.7671 70.4452C33.7671 70.7667 33.5065 71.0274 33.1849 71.0274C32.8634 71.0274 32.6027 70.7667 32.6027 70.4452C32.6027 70.1237 32.8634 69.863 33.1849 69.863C33.5065 69.863 33.7671 70.1237 33.7671 70.4452Z" fill="#8C5AFF"/>
<path d="M38.4247 70.4452C38.4247 70.7667 38.164 71.0274 37.8425 71.0274C37.5209 71.0274 37.2603 70.7667 37.2603 70.4452C37.2603 70.1237 37.5209 69.863 37.8425 69.863C38.164 69.863 38.4247 70.1237 38.4247 70.4452Z" fill="#8C5AFF"/>
<path d="M43.0822 70.4452C43.0822 70.7667 42.8215 71.0274 42.5 71.0274C42.1785 71.0274 41.9178 70.7667 41.9178 70.4452C41.9178 70.1237 42.1785 69.863 42.5 69.863C42.8215 69.863 43.0822 70.1237 43.0822 70.4452Z" fill="#8C5AFF"/>
<path d="M47.7397 70.4452C47.7397 70.7667 47.4791 71.0274 47.1575 71.0274C46.836 71.0274 46.5753 70.7667 46.5753 70.4452C46.5753 70.1237 46.836 69.863 47.1575 69.863C47.4791 69.863 47.7397 70.1237 47.7397 70.4452Z" fill="#8C5AFF"/>
<path d="M52.3973 70.4452C52.3973 70.7667 52.1366 71.0274 51.8151 71.0274C51.4935 71.0274 51.2329 70.7667 51.2329 70.4452C51.2329 70.1237 51.4935 69.863 51.8151 69.863C52.1366 69.863 52.3973 70.1237 52.3973 70.4452Z" fill="#8C5AFF"/>
<path d="M57.0548 70.4452C57.0548 70.7667 56.7941 71.0274 56.4726 71.0274C56.1511 71.0274 55.8904 70.7667 55.8904 70.4452C55.8904 70.1237 56.1511 69.863 56.4726 69.863C56.7941 69.863 57.0548 70.1237 57.0548 70.4452Z" fill="#8C5AFF"/>
<path d="M61.7123 70.4452C61.7123 70.7667 61.4517 71.0274 61.1301 71.0274C60.8086 71.0274 60.5479 70.7667 60.5479 70.4452C60.5479 70.1237 60.8086 69.863 61.1301 69.863C61.4517 69.863 61.7123 70.1237 61.7123 70.4452Z" fill="#8C5AFF"/>
<path d="M66.3699 70.4452C66.3699 70.7667 66.1092 71.0274 65.7877 71.0274C65.4661 71.0274 65.2055 70.7667 65.2055 70.4452C65.2055 70.1237 65.4661 69.863 65.7877 69.863C66.1092 69.863 66.3699 70.1237 66.3699 70.4452Z" fill="#8C5AFF"/>
<path d="M71.0274 70.4452C71.0274 70.7667 70.7667 71.0274 70.4452 71.0274C70.1237 71.0274 69.863 70.7667 69.863 70.4452C69.863 70.1237 70.1237 69.863 70.4452 69.863C70.7667 69.863 71.0274 70.1237 71.0274 70.4452Z" fill="#8C5AFF"/>
<path d="M75.6849 70.4452C75.6849 70.7667 75.4243 71.0274 75.1027 71.0274C74.7812 71.0274 74.5205 70.7667 74.5205 70.4452C74.5205 70.1237 74.7812 69.863 75.1027 69.863C75.4243 69.863 75.6849 70.1237 75.6849 70.4452Z" fill="#8C5AFF"/>
<path d="M80.3425 70.4452C80.3425 70.7667 80.0818 71.0274 79.7603 71.0274C79.4387 71.0274 79.1781 70.7667 79.1781 70.4452C79.1781 70.1237 79.4387 69.863 79.7603 69.863C80.0818 69.863 80.3425 70.1237 80.3425 70.4452Z" fill="#8C5AFF"/>
<path d="M85 70.4452C85 70.7667 84.7393 71.0274 84.4178 71.0274C84.0963 71.0274 83.8356 70.7667 83.8356 70.4452C83.8356 70.1237 84.0963 69.863 84.4178 69.863C84.7393 69.863 85 70.1237 85 70.4452Z" fill="#8C5AFF"/>
<path d="M1.16438 75.1027C1.16438 75.4243 0.903727 75.6849 0.582192 75.6849C0.260656 75.6849 0 75.4243 0 75.1027C0 74.7812 0.260656 74.5205 0.582192 74.5205C0.903727 74.5205 1.16438 74.7812 1.16438 75.1027Z" fill="#8C5AFF"/>
<path d="M5.82192 75.1027C5.82192 75.4243 5.56126 75.6849 5.23973 75.6849C4.91819 75.6849 4.65753 75.4243 4.65753 75.1027C4.65753 74.7812 4.91819 74.5205 5.23973 74.5205C5.56126 74.5205 5.82192 74.7812 5.82192 75.1027Z" fill="#8C5AFF"/>
<path d="M10.4795 75.1027C10.4795 75.4243 10.2188 75.6849 9.89726 75.6849C9.57572 75.6849 9.31507 75.4243 9.31507 75.1027C9.31507 74.7812 9.57572 74.5205 9.89726 74.5205C10.2188 74.5205 10.4795 74.7812 10.4795 75.1027Z" fill="#8C5AFF"/>
<path d="M15.137 75.1027C15.137 75.4243 14.8763 75.6849 14.5548 75.6849C14.2333 75.6849 13.9726 75.4243 13.9726 75.1027C13.9726 74.7812 14.2333 74.5205 14.5548 74.5205C14.8763 74.5205 15.137 74.7812 15.137 75.1027Z" fill="#8C5AFF"/>
<path d="M19.7945 75.1027C19.7945 75.4243 19.5339 75.6849 19.2123 75.6849C18.8908 75.6849 18.6301 75.4243 18.6301 75.1027C18.6301 74.7812 18.8908 74.5205 19.2123 74.5205C19.5339 74.5205 19.7945 74.7812 19.7945 75.1027Z" fill="#8C5AFF"/>
<path d="M24.4521 75.1027C24.4521 75.4243 24.1914 75.6849 23.8699 75.6849C23.5483 75.6849 23.2877 75.4243 23.2877 75.1027C23.2877 74.7812 23.5483 74.5205 23.8699 74.5205C24.1914 74.5205 24.4521 74.7812 24.4521 75.1027Z" fill="#8C5AFF"/>
<path d="M29.1096 75.1027C29.1096 75.4243 28.8489 75.6849 28.5274 75.6849C28.2059 75.6849 27.9452 75.4243 27.9452 75.1027C27.9452 74.7812 28.2059 74.5205 28.5274 74.5205C28.8489 74.5205 29.1096 74.7812 29.1096 75.1027Z" fill="#8C5AFF"/>
<path d="M33.7671 75.1027C33.7671 75.4243 33.5065 75.6849 33.1849 75.6849C32.8634 75.6849 32.6027 75.4243 32.6027 75.1027C32.6027 74.7812 32.8634 74.5205 33.1849 74.5205C33.5065 74.5205 33.7671 74.7812 33.7671 75.1027Z" fill="#8C5AFF"/>
<path d="M38.4247 75.1027C38.4247 75.4243 38.164 75.6849 37.8425 75.6849C37.5209 75.6849 37.2603 75.4243 37.2603 75.1027C37.2603 74.7812 37.5209 74.5205 37.8425 74.5205C38.164 74.5205 38.4247 74.7812 38.4247 75.1027Z" fill="#8C5AFF"/>
<path d="M43.0822 75.1027C43.0822 75.4243 42.8215 75.6849 42.5 75.6849C42.1785 75.6849 41.9178 75.4243 41.9178 75.1027C41.9178 74.7812 42.1785 74.5205 42.5 74.5205C42.8215 74.5205 43.0822 74.7812 43.0822 75.1027Z" fill="#8C5AFF"/>
<path d="M47.7397 75.1027C47.7397 75.4243 47.4791 75.6849 47.1575 75.6849C46.836 75.6849 46.5753 75.4243 46.5753 75.1027C46.5753 74.7812 46.836 74.5205 47.1575 74.5205C47.4791 74.5205 47.7397 74.7812 47.7397 75.1027Z" fill="#8C5AFF"/>
<path d="M52.3973 75.1027C52.3973 75.4243 52.1366 75.6849 51.8151 75.6849C51.4935 75.6849 51.2329 75.4243 51.2329 75.1027C51.2329 74.7812 51.4935 74.5205 51.8151 74.5205C52.1366 74.5205 52.3973 74.7812 52.3973 75.1027Z" fill="#8C5AFF"/>
<path d="M57.0548 75.1027C57.0548 75.4243 56.7941 75.6849 56.4726 75.6849C56.1511 75.6849 55.8904 75.4243 55.8904 75.1027C55.8904 74.7812 56.1511 74.5205 56.4726 74.5205C56.7941 74.5205 57.0548 74.7812 57.0548 75.1027Z" fill="#8C5AFF"/>
<path d="M61.7123 75.1027C61.7123 75.4243 61.4517 75.6849 61.1301 75.6849C60.8086 75.6849 60.5479 75.4243 60.5479 75.1027C60.5479 74.7812 60.8086 74.5205 61.1301 74.5205C61.4517 74.5205 61.7123 74.7812 61.7123 75.1027Z" fill="#8C5AFF"/>
<path d="M66.3699 75.1027C66.3699 75.4243 66.1092 75.6849 65.7877 75.6849C65.4661 75.6849 65.2055 75.4243 65.2055 75.1027C65.2055 74.7812 65.4661 74.5205 65.7877 74.5205C66.1092 74.5205 66.3699 74.7812 66.3699 75.1027Z" fill="#8C5AFF"/>
<path d="M71.0274 75.1027C71.0274 75.4243 70.7667 75.6849 70.4452 75.6849C70.1237 75.6849 69.863 75.4243 69.863 75.1027C69.863 74.7812 70.1237 74.5205 70.4452 74.5205C70.7667 74.5205 71.0274 74.7812 71.0274 75.1027Z" fill="#8C5AFF"/>
<path d="M75.6849 75.1027C75.6849 75.4243 75.4243 75.6849 75.1027 75.6849C74.7812 75.6849 74.5205 75.4243 74.5205 75.1027C74.5205 74.7812 74.7812 74.5205 75.1027 74.5205C75.4243 74.5205 75.6849 74.7812 75.6849 75.1027Z" fill="#8C5AFF"/>
<path d="M80.3425 75.1027C80.3425 75.4243 80.0818 75.6849 79.7603 75.6849C79.4387 75.6849 79.1781 75.4243 79.1781 75.1027C79.1781 74.7812 79.4387 74.5205 79.7603 74.5205C80.0818 74.5205 80.3425 74.7812 80.3425 75.1027Z" fill="#8C5AFF"/>
<path d="M85 75.1027C85 75.4243 84.7393 75.6849 84.4178 75.6849C84.0963 75.6849 83.8356 75.4243 83.8356 75.1027C83.8356 74.7812 84.0963 74.5205 84.4178 74.5205C84.7393 74.5205 85 74.7812 85 75.1027Z" fill="#8C5AFF"/>
<path d="M1.16438 79.7603C1.16438 80.0818 0.903727 80.3425 0.582192 80.3425C0.260656 80.3425 0 80.0818 0 79.7603C0 79.4387 0.260656 79.1781 0.582192 79.1781C0.903727 79.1781 1.16438 79.4387 1.16438 79.7603Z" fill="#8C5AFF"/>
<path d="M5.82192 79.7603C5.82192 80.0818 5.56126 80.3425 5.23973 80.3425C4.91819 80.3425 4.65753 80.0818 4.65753 79.7603C4.65753 79.4387 4.91819 79.1781 5.23973 79.1781C5.56126 79.1781 5.82192 79.4387 5.82192 79.7603Z" fill="#8C5AFF"/>
<path d="M10.4795 79.7603C10.4795 80.0818 10.2188 80.3425 9.89726 80.3425C9.57572 80.3425 9.31507 80.0818 9.31507 79.7603C9.31507 79.4387 9.57572 79.1781 9.89726 79.1781C10.2188 79.1781 10.4795 79.4387 10.4795 79.7603Z" fill="#8C5AFF"/>
<path d="M15.137 79.7603C15.137 80.0818 14.8763 80.3425 14.5548 80.3425C14.2333 80.3425 13.9726 80.0818 13.9726 79.7603C13.9726 79.4387 14.2333 79.1781 14.5548 79.1781C14.8763 79.1781 15.137 79.4387 15.137 79.7603Z" fill="#8C5AFF"/>
<path d="M19.7945 79.7603C19.7945 80.0818 19.5339 80.3425 19.2123 80.3425C18.8908 80.3425 18.6301 80.0818 18.6301 79.7603C18.6301 79.4387 18.8908 79.1781 19.2123 79.1781C19.5339 79.1781 19.7945 79.4387 19.7945 79.7603Z" fill="#8C5AFF"/>
<path d="M24.4521 79.7603C24.4521 80.0818 24.1914 80.3425 23.8699 80.3425C23.5483 80.3425 23.2877 80.0818 23.2877 79.7603C23.2877 79.4387 23.5483 79.1781 23.8699 79.1781C24.1914 79.1781 24.4521 79.4387 24.4521 79.7603Z" fill="#8C5AFF"/>
<path d="M29.1096 79.7603C29.1096 80.0818 28.8489 80.3425 28.5274 80.3425C28.2059 80.3425 27.9452 80.0818 27.9452 79.7603C27.9452 79.4387 28.2059 79.1781 28.5274 79.1781C28.8489 79.1781 29.1096 79.4387 29.1096 79.7603Z" fill="#8C5AFF"/>
<path d="M33.7671 79.7603C33.7671 80.0818 33.5065 80.3425 33.1849 80.3425C32.8634 80.3425 32.6027 80.0818 32.6027 79.7603C32.6027 79.4387 32.8634 79.1781 33.1849 79.1781C33.5065 79.1781 33.7671 79.4387 33.7671 79.7603Z" fill="#8C5AFF"/>
<path d="M38.4247 79.7603C38.4247 80.0818 38.164 80.3425 37.8425 80.3425C37.5209 80.3425 37.2603 80.0818 37.2603 79.7603C37.2603 79.4387 37.5209 79.1781 37.8425 79.1781C38.164 79.1781 38.4247 79.4387 38.4247 79.7603Z" fill="#8C5AFF"/>
<path d="M43.0822 79.7603C43.0822 80.0818 42.8215 80.3425 42.5 80.3425C42.1785 80.3425 41.9178 80.0818 41.9178 79.7603C41.9178 79.4387 42.1785 79.1781 42.5 79.1781C42.8215 79.1781 43.0822 79.4387 43.0822 79.7603Z" fill="#8C5AFF"/>
<path d="M47.7397 79.7603C47.7397 80.0818 47.4791 80.3425 47.1575 80.3425C46.836 80.3425 46.5753 80.0818 46.5753 79.7603C46.5753 79.4387 46.836 79.1781 47.1575 79.1781C47.4791 79.1781 47.7397 79.4387 47.7397 79.7603Z" fill="#8C5AFF"/>
<path d="M52.3973 79.7603C52.3973 80.0818 52.1366 80.3425 51.8151 80.3425C51.4935 80.3425 51.2329 80.0818 51.2329 79.7603C51.2329 79.4387 51.4935 79.1781 51.8151 79.1781C52.1366 79.1781 52.3973 79.4387 52.3973 79.7603Z" fill="#8C5AFF"/>
<path d="M57.0548 79.7603C57.0548 80.0818 56.7941 80.3425 56.4726 80.3425C56.1511 80.3425 55.8904 80.0818 55.8904 79.7603C55.8904 79.4387 56.1511 79.1781 56.4726 79.1781C56.7941 79.1781 57.0548 79.4387 57.0548 79.7603Z" fill="#8C5AFF"/>
<path d="M61.7123 79.7603C61.7123 80.0818 61.4517 80.3425 61.1301 80.3425C60.8086 80.3425 60.5479 80.0818 60.5479 79.7603C60.5479 79.4387 60.8086 79.1781 61.1301 79.1781C61.4517 79.1781 61.7123 79.4387 61.7123 79.7603Z" fill="#8C5AFF"/>
<path d="M66.3699 79.7603C66.3699 80.0818 66.1092 80.3425 65.7877 80.3425C65.4661 80.3425 65.2055 80.0818 65.2055 79.7603C65.2055 79.4387 65.4661 79.1781 65.7877 79.1781C66.1092 79.1781 66.3699 79.4387 66.3699 79.7603Z" fill="#8C5AFF"/>
<path d="M71.0274 79.7603C71.0274 80.0818 70.7667 80.3425 70.4452 80.3425C70.1237 80.3425 69.863 80.0818 69.863 79.7603C69.863 79.4387 70.1237 79.1781 70.4452 79.1781C70.7667 79.1781 71.0274 79.4387 71.0274 79.7603Z" fill="#8C5AFF"/>
<path d="M75.6849 79.7603C75.6849 80.0818 75.4243 80.3425 75.1027 80.3425C74.7812 80.3425 74.5205 80.0818 74.5205 79.7603C74.5205 79.4387 74.7812 79.1781 75.1027 79.1781C75.4243 79.1781 75.6849 79.4387 75.6849 79.7603Z" fill="#8C5AFF"/>
<path d="M80.3425 79.7603C80.3425 80.0818 80.0818 80.3425 79.7603 80.3425C79.4387 80.3425 79.1781 80.0818 79.1781 79.7603C79.1781 79.4387 79.4387 79.1781 79.7603 79.1781C80.0818 79.1781 80.3425 79.4387 80.3425 79.7603Z" fill="#8C5AFF"/>
<path d="M85 79.7603C85 80.0818 84.7393 80.3425 84.4178 80.3425C84.0963 80.3425 83.8356 80.0818 83.8356 79.7603C83.8356 79.4387 84.0963 79.1781 84.4178 79.1781C84.7393 79.1781 85 79.4387 85 79.7603Z" fill="#8C5AFF"/>
<path d="M1.16438 84.4178C1.16438 84.7393 0.903727 85 0.582192 85C0.260656 85 0 84.7393 0 84.4178C0 84.0963 0.260656 83.8356 0.582192 83.8356C0.903727 83.8356 1.16438 84.0963 1.16438 84.4178Z" fill="#8C5AFF"/>
<path d="M5.82192 84.4178C5.82192 84.7393 5.56126 85 5.23973 85C4.91819 85 4.65753 84.7393 4.65753 84.4178C4.65753 84.0963 4.91819 83.8356 5.23973 83.8356C5.56126 83.8356 5.82192 84.0963 5.82192 84.4178Z" fill="#8C5AFF"/>
<path d="M10.4795 84.4178C10.4795 84.7393 10.2188 85 9.89726 85C9.57572 85 9.31507 84.7393 9.31507 84.4178C9.31507 84.0963 9.57572 83.8356 9.89726 83.8356C10.2188 83.8356 10.4795 84.0963 10.4795 84.4178Z" fill="#8C5AFF"/>
<path d="M15.137 84.4178C15.137 84.7393 14.8763 85 14.5548 85C14.2333 85 13.9726 84.7393 13.9726 84.4178C13.9726 84.0963 14.2333 83.8356 14.5548 83.8356C14.8763 83.8356 15.137 84.0963 15.137 84.4178Z" fill="#8C5AFF"/>
<path d="M19.7945 84.4178C19.7945 84.7393 19.5339 85 19.2123 85C18.8908 85 18.6301 84.7393 18.6301 84.4178C18.6301 84.0963 18.8908 83.8356 19.2123 83.8356C19.5339 83.8356 19.7945 84.0963 19.7945 84.4178Z" fill="#8C5AFF"/>
<path d="M24.4521 84.4178C24.4521 84.7393 24.1914 85 23.8699 85C23.5483 85 23.2877 84.7393 23.2877 84.4178C23.2877 84.0963 23.5483 83.8356 23.8699 83.8356C24.1914 83.8356 24.4521 84.0963 24.4521 84.4178Z" fill="#8C5AFF"/>
<path d="M29.1096 84.4178C29.1096 84.7393 28.8489 85 28.5274 85C28.2059 85 27.9452 84.7393 27.9452 84.4178C27.9452 84.0963 28.2059 83.8356 28.5274 83.8356C28.8489 83.8356 29.1096 84.0963 29.1096 84.4178Z" fill="#8C5AFF"/>
<path d="M33.7671 84.4178C33.7671 84.7393 33.5065 85 33.1849 85C32.8634 85 32.6027 84.7393 32.6027 84.4178C32.6027 84.0963 32.8634 83.8356 33.1849 83.8356C33.5065 83.8356 33.7671 84.0963 33.7671 84.4178Z" fill="#8C5AFF"/>
<path d="M38.4247 84.4178C38.4247 84.7393 38.164 85 37.8425 85C37.5209 85 37.2603 84.7393 37.2603 84.4178C37.2603 84.0963 37.5209 83.8356 37.8425 83.8356C38.164 83.8356 38.4247 84.0963 38.4247 84.4178Z" fill="#8C5AFF"/>
<path d="M43.0822 84.4178C43.0822 84.7393 42.8215 85 42.5 85C42.1785 85 41.9178 84.7393 41.9178 84.4178C41.9178 84.0963 42.1785 83.8356 42.5 83.8356C42.8215 83.8356 43.0822 84.0963 43.0822 84.4178Z" fill="#8C5AFF"/>
<path d="M47.7397 84.4178C47.7397 84.7393 47.4791 85 47.1575 85C46.836 85 46.5753 84.7393 46.5753 84.4178C46.5753 84.0963 46.836 83.8356 47.1575 83.8356C47.4791 83.8356 47.7397 84.0963 47.7397 84.4178Z" fill="#8C5AFF"/>
<path d="M52.3973 84.4178C52.3973 84.7393 52.1366 85 51.8151 85C51.4935 85 51.2329 84.7393 51.2329 84.4178C51.2329 84.0963 51.4935 83.8356 51.8151 83.8356C52.1366 83.8356 52.3973 84.0963 52.3973 84.4178Z" fill="#8C5AFF"/>
<path d="M57.0548 84.4178C57.0548 84.7393 56.7941 85 56.4726 85C56.1511 85 55.8904 84.7393 55.8904 84.4178C55.8904 84.0963 56.1511 83.8356 56.4726 83.8356C56.7941 83.8356 57.0548 84.0963 57.0548 84.4178Z" fill="#8C5AFF"/>
<path d="M61.7123 84.4178C61.7123 84.7393 61.4517 85 61.1301 85C60.8086 85 60.5479 84.7393 60.5479 84.4178C60.5479 84.0963 60.8086 83.8356 61.1301 83.8356C61.4517 83.8356 61.7123 84.0963 61.7123 84.4178Z" fill="#8C5AFF"/>
<path d="M66.3699 84.4178C66.3699 84.7393 66.1092 85 65.7877 85C65.4661 85 65.2055 84.7393 65.2055 84.4178C65.2055 84.0963 65.4661 83.8356 65.7877 83.8356C66.1092 83.8356 66.3699 84.0963 66.3699 84.4178Z" fill="#8C5AFF"/>
<path d="M71.0274 84.4178C71.0274 84.7393 70.7667 85 70.4452 85C70.1237 85 69.863 84.7393 69.863 84.4178C69.863 84.0963 70.1237 83.8356 70.4452 83.8356C70.7667 83.8356 71.0274 84.0963 71.0274 84.4178Z" fill="#8C5AFF"/>
<path d="M75.6849 84.4178C75.6849 84.7393 75.4243 85 75.1027 85C74.7812 85 74.5205 84.7393 74.5205 84.4178C74.5205 84.0963 74.7812 83.8356 75.1027 83.8356C75.4243 83.8356 75.6849 84.0963 75.6849 84.4178Z" fill="#8C5AFF"/>
<path d="M80.3425 84.4178C80.3425 84.7393 80.0818 85 79.7603 85C79.4387 85 79.1781 84.7393 79.1781 84.4178C79.1781 84.0963 79.4387 83.8356 79.7603 83.8356C80.0818 83.8356 80.3425 84.0963 80.3425 84.4178Z" fill="#8C5AFF"/>
<path d="M85 84.4178C85 84.7393 84.7393 85 84.4178 85C84.0963 85 83.8356 84.7393 83.8356 84.4178C83.8356 84.0963 84.0963 83.8356 84.4178 83.8356C84.7393 83.8356 85 84.0963 85 84.4178Z" fill="#8C5AFF"/>
</svg>
