<?xml version="1.0" encoding="utf-8"?>
<!-- Generator: Adobe Illustrator 23.0.2, SVG Export Plug-In . SVG Version: 6.00 Build 0)  -->
<svg version="1.1" id="圖層_1" xmlns="http://www.w3.org/2000/svg" xmlns:xlink="http://www.w3.org/1999/xlink" x="0px" y="0px"
	 viewBox="0 0 1848 1104.9" style="enable-background:new 0 0 1848 1104.9;" xml:space="preserve">
<style type="text/css">
	.st0{opacity:0.85;}
	.st1{fill:url(#SVGID_1_);}
	.st2{fill:url(#SVGID_2_);}
	.st3{fill:url(#SVGID_3_);}
	.st4{fill:url(#SVGID_4_);}
	.st5{opacity:0.8;fill:url(#SVGID_5_);enable-background:new    ;}
	.st6{fill:none;stroke:url(#SVGID_6_);stroke-width:2;stroke-miterlimit:10;}
	.st7{fill:none;stroke:url(#SVGID_7_);stroke-width:2;stroke-miterlimit:10;}
	.st8{fill:none;stroke:url(#SVGID_8_);stroke-width:2;stroke-miterlimit:10;}
	.st9{fill:url(#SVGID_9_);}
	.st10{fill:url(#SVGID_10_);}
	.st11{fill:url(#SVGID_11_);}
	.st12{fill:none;stroke:#00F2A4;stroke-width:4;stroke-miterlimit:10;}
	.st13{opacity:0.7;fill:none;stroke:#54DAFF;stroke-width:5;stroke-miterlimit:10;enable-background:new    ;}
	.st14{opacity:0.7;fill:#54DAFF;enable-background:new    ;}
	.st15{fill:none;stroke:#17AAFC;stroke-width:5;stroke-miterlimit:10;}
	.st16{fill:#17AAFC;}
	.st17{fill:#00F2A4;}
	.st18{fill:url(#SVGID_12_);stroke:#17AAFC;stroke-width:4;stroke-miterlimit:10;}
	.st19{fill:#00F2A4;stroke:#54DAFF;stroke-miterlimit:10;}
	.st20{fill:none;stroke:#54DAFF;stroke-width:4;stroke-miterlimit:10;}
	.st21{fill:none;stroke:#00F2A4;stroke-width:5;stroke-miterlimit:10;}
	.st22{fill:#FFFFFF;}
</style>
<title>logo_deco</title>
<g>
	<g>
		<g id="FB_content">
			<g class="st0">
				
					<image style="overflow:visible;opacity:0.1;enable-background:new    ;" width="940" height="933" xlink:href="13BDBA3AAFD9CEB4.png"  transform="matrix(1 0 0 1 0 104.9)">
				</image>
				
					<linearGradient id="SVGID_1_" gradientUnits="userSpaceOnUse" x1="716.24" y1="519.6331" x2="295.3" y2="523.2831" gradientTransform="matrix(1 0 0 -1 0 1104)">
					<stop  offset="0" style="stop-color:#FFFFFF;stop-opacity:0"/>
					<stop  offset="1" style="stop-color:#FFFFFF;stop-opacity:0.7"/>
				</linearGradient>
				<ellipse class="st1" cx="469.8" cy="582.2" rx="319.7" ry="316.3"/>
				
					<image style="overflow:visible;opacity:8.000000e-02;enable-background:new    ;" width="1028" height="1019" xlink:href="13BDBA3AAFD9CEB5.png"  transform="matrix(1 0 0 1 235 85.9)">
				</image>
				
					<linearGradient id="SVGID_2_" gradientUnits="userSpaceOnUse" x1="988.9504" y1="630.7992" x2="436.7404" y2="369.8291" gradientTransform="matrix(1 0 0 -1 0 1104)">
					<stop  offset="0" style="stop-color:#FFFFFF;stop-opacity:0"/>
					<stop  offset="1" style="stop-color:#FFFFFF;stop-opacity:0.5"/>
				</linearGradient>
				<ellipse class="st2" cx="743.7" cy="589.1" rx="393.3" ry="389.1"/>
				
					<linearGradient id="SVGID_3_" gradientUnits="userSpaceOnUse" x1="1067.84" y1="514.44" x2="1591.12" y2="514.44" gradientTransform="matrix(1 0 0 -1 0 1104)">
					<stop  offset="0" style="stop-color:#FFFFFF;stop-opacity:0"/>
					<stop  offset="1" style="stop-color:#FFFFFF;stop-opacity:0.6"/>
				</linearGradient>
				<ellipse class="st3" cx="1314.8" cy="589.6" rx="328.8" ry="325.3"/>
				
					<image style="overflow:visible;opacity:0.1;enable-background:new    ;" width="578" height="573" xlink:href="13BDBA3AAFD9CEBA.png"  transform="matrix(1 0 0 1 1270 285.9)">
				</image>
				
					<linearGradient id="SVGID_4_" gradientUnits="userSpaceOnUse" x1="1410.04" y1="520.64" x2="1725.4399" y2="520.64" gradientTransform="matrix(1 0 0 -1 0 1104)">
					<stop  offset="0" style="stop-color:#FFFFFF;stop-opacity:0"/>
					<stop  offset="1" style="stop-color:#FFFFFF;stop-opacity:0.6"/>
				</linearGradient>
				<ellipse class="st4" cx="1558.9" cy="583.4" rx="198.2" ry="196.1"/>
				
					<radialGradient id="SVGID_5_" cx="924.09" cy="553.2586" r="444.9937" gradientTransform="matrix(1 0 0 -1.05 0 1147.46)" gradientUnits="userSpaceOnUse">
					<stop  offset="0.24" style="stop-color:#FFFFFF;stop-opacity:0.8"/>
					<stop  offset="1" style="stop-color:#FFFFFF;stop-opacity:0"/>
				</radialGradient>
				<ellipse class="st5" cx="924.1" cy="568.5" rx="456.7" ry="456.6"/>
				
					<linearGradient id="SVGID_6_" gradientUnits="userSpaceOnUse" x1="1136.8431" y1="812.3889" x2="694.077" y2="260.4511" gradientTransform="matrix(1 0 0 -1 0 1104)">
					<stop  offset="0" style="stop-color:#2AFF91"/>
					<stop  offset="1" style="stop-color:#FFFFFF;stop-opacity:0"/>
				</linearGradient>
				<circle class="st6" cx="915.5" cy="567.6" r="352.8"/>
				
					<linearGradient id="SVGID_7_" gradientUnits="userSpaceOnUse" x1="1138.4333" y1="310.8266" x2="692.4866" y2="762.0134" gradientTransform="matrix(1 0 0 -1 0 1104)">
					<stop  offset="0" style="stop-color:#2AFF91"/>
					<stop  offset="1" style="stop-color:#FFFFFF;stop-opacity:0"/>
				</linearGradient>
				<circle class="st7" cx="915.5" cy="567.6" r="316.2"/>
				
					<linearGradient id="SVGID_8_" gradientUnits="userSpaceOnUse" x1="723.1857" y1="740.8044" x2="1107.7345" y2="332.0356" gradientTransform="matrix(1 0 0 -1 0 1104)">
					<stop  offset="0" style="stop-color:#2AFF91"/>
					<stop  offset="1" style="stop-color:#FFFFFF;stop-opacity:0"/>
				</linearGradient>
				<circle class="st8" cx="915.5" cy="567.6" r="279.6"/>
				
					<image style="overflow:visible;opacity:0.27;enable-background:new    ;" width="635" height="634" xlink:href="13BDBA3AAFD9CEBB.png"  transform="matrix(1 0 0 1 605 256.9)">
				</image>
				
					<linearGradient id="SVGID_9_" gradientUnits="userSpaceOnUse" x1="769.6542" y1="691.904" x2="1070.6941" y2="374.144" gradientTransform="matrix(1 0 0 -1 0 1104)">
					<stop  offset="0" style="stop-color:#FFFFFF;stop-opacity:0.8"/>
					<stop  offset="0.58" style="stop-color:#FFFFFF;stop-opacity:0.19"/>
					<stop  offset="1" style="stop-color:#FFFFFF;stop-opacity:0.8"/>
				</linearGradient>
				<circle class="st9" cx="917.3" cy="567.9" r="226.8"/>
				<g class="st0">
					
						<linearGradient id="SVGID_10_" gradientUnits="userSpaceOnUse" x1="1516.0754" y1="1072.9116" x2="1234.6053" y2="555.1417" gradientTransform="matrix(1 0 0 -1 0 1104)">
						<stop  offset="0.5" style="stop-color:#FFFFFF;stop-opacity:0"/>
						<stop  offset="1" style="stop-color:#FFFFFF;stop-opacity:0.6"/>
					</linearGradient>
					<path class="st10" d="M1686.4,290c-0.2,60.1-20.7,118.6-57.4,166.2c-37.2,48.2-89.3,84-146.8,103.4
						c-61.9,20.7-128.5,22.9-191.7,6.5c-59.1-15.5-113.8-47.6-154.7-93.2c-40-44.5-65.6-101.1-70.5-160.8
						c-4.9-60,10.9-120.3,43.9-170.6c33.3-50.7,82.5-90,138.4-113.2c59.7-24.9,126.8-31.5,190.3-19.5
						c60.6,11.4,117.8,39.9,162.3,82.8c42.7,41.2,72.6,95.1,82.6,153.7C1685.1,260.1,1686.4,275,1686.4,290c0,0.8,0.7,1.5,1.5,1.5
						s1.5-0.7,1.5-1.5c-0.2-60.8-21-119.9-58.1-168c-37.5-48.6-89.8-84.6-147.8-104.3c-62.9-21.1-130.5-23.4-194.6-6.6
						c-59.8,15.7-115,48.5-156.2,94.7c-39.9,44.8-65.4,101.4-70.5,161.3c-5.1,60.7,10.9,121.9,44.2,172.8s82.8,90.5,138.9,114.1
						c60.4,25.4,128.1,32.2,192.5,20.2c61.5-11.5,119.7-40.5,164.8-84.1c43.1-41.8,73.3-96.5,83.1-155.9c2.4-14.6,3.6-29.4,3.6-44.2
						c0-0.8-0.7-1.5-1.5-1.5C1687.1,288.5,1686.4,289.2,1686.4,290z"/>
				</g>
				<g class="st0">
					
						<linearGradient id="SVGID_11_" gradientUnits="userSpaceOnUse" x1="221.6874" y1="128.4576" x2="649.3294" y2="535.0237" gradientTransform="matrix(1 0 0 -1 0 1104)">
						<stop  offset="0.5" style="stop-color:#FFFFFF;stop-opacity:0"/>
						<stop  offset="1" style="stop-color:#FFFFFF;stop-opacity:0.6"/>
					</linearGradient>
					<path class="st11" d="M720.3,836.5c-35.9,157.1-192.3,255.3-349.4,219.4C213.8,1020,115.6,863.5,151.5,706.4
						S343.8,451.1,500.9,487C640.8,519,736.7,648,727,791.1C725.9,806.4,723.7,821.5,720.3,836.5c-0.4,1.9,2.5,2.7,2.9,0.8
						c35.9-158.9-63.8-316.8-222.8-352.7s-316.8,63.8-352.7,222.8s63.8,316.8,222.8,352.7c141.6,32,285.4-43.8,339.1-178.6
						c5.7-14.3,10.3-29.1,13.7-44.1C723.7,835.4,720.8,834.6,720.3,836.5z"/>
				</g>
				<circle class="st12" cx="536.3" cy="445.4" r="10.1"/>
				<circle class="st13" cx="563.7" cy="441.8" r="16.9"/>
				
					<ellipse transform="matrix(0.1602 -0.9871 0.9871 0.1602 24.3678 859.101)" class="st14" cx="517.1" cy="415.2" rx="16.5" ry="16.5"/>
				<circle class="st12" cx="523.5" cy="745.6" r="10.1"/>
				<circle class="st15" cx="550.9" cy="741.9" r="16.9"/>
				
					<ellipse transform="matrix(0.9239 -0.3827 0.3827 0.9239 -235.3842 247.424)" class="st16" cx="504.2" cy="715.4" rx="16.5" ry="16.5"/>
				<circle class="st17" cx="577.5" cy="714.5" r="27.5"/>
				<circle class="st17" cx="407.7" cy="552" r="20.6"/>
				<circle class="st12" cx="287.4" cy="572.6" r="18.3"/>
				<circle class="st16" cx="362" cy="632.6" r="12.3"/>
				
					<linearGradient id="SVGID_12_" gradientUnits="userSpaceOnUse" x1="286.45" y1="531.6" x2="380.25" y2="531.6" gradientTransform="matrix(1 0 0 -1 0 1104)">
					<stop  offset="0.5" style="stop-color:#FFFFFF;stop-opacity:0"/>
					<stop  offset="1" style="stop-color:#FFFFFF;stop-opacity:0.6"/>
				</linearGradient>
				<circle class="st18" cx="333.4" cy="572.4" r="46.9"/>
				<circle class="st13" cx="1462.3" cy="626.6" r="42.6"/>
				<circle class="st19" cx="1385.9" cy="647.2" r="20.6"/>
				<circle class="st19" cx="1483.3" cy="696.2" r="10.1"/>
				<circle class="st20" cx="1518.8" cy="671.7" r="13"/>
				<circle class="st21" cx="1359.3" cy="274.8" r="37.5"/>
				<circle class="st13" cx="1312.2" cy="292.9" r="22.5"/>
				<circle class="st17" cx="1315" cy="352.1" r="10.1"/>
				<circle class="st17" cx="1428.9" cy="256.5" r="20.6"/>
				<circle class="st14" cx="1446.8" cy="290.3" r="11.3"/>
				
					<image style="overflow:visible;opacity:0.3;enable-background:new    ;" width="314" height="288" xlink:href="13BDBA3AAFD9CEBC.png"  transform="matrix(1 0 0 1 705 737.9)">
				</image>
				<circle class="st17" cx="839.9" cy="838.6" r="34"/>
				<circle class="st12" cx="785.5" cy="884.9" r="12.2"/>
				<circle class="st16" cx="805.5" cy="830.7" r="14.8"/>
				<circle class="st15" cx="877.9" cy="885" r="11.8"/>
				<circle class="st17" cx="1083.8" cy="312" r="24.4"/>
				<circle class="st12" cx="1039" cy="348.6" r="12.2"/>
				<circle class="st14" cx="1151.4" cy="393.3" r="9.3"/>
				<circle class="st13" cx="1050.9" cy="296.5" r="11.8"/>
			</g>
		</g>
	</g>
</g>
<g>
	<g id="圖層_1-2">
		<path class="st22" d="M929.9,701.8c-0.7-0.5-1.5-0.8-2.3-0.8c-0.5,0-1,0.2-1.3,0.5c-0.3,0.2-0.5,0.5-0.6,0.8
			c0,0.1-0.1,0.1-0.1,0.2c0-0.1-0.1-0.2,0-0.2c0-0.4,0-0.7,0-1.1c0-0.1,0-0.2-0.2-0.1c0,0-0.1,0-0.1,0l-2.8,0.6
			c-0.4,0.1-0.4,0.1-0.4,0.5v10.6c0,0.2,0,0.2,0.2,0.2h0.1l2.8-0.5c0.4-0.1,0.4-0.1,0.4-0.5c0-2.4,0-4.7,0-7.1c0-0.1,0-0.2,0-0.3
			c0-0.1,0-0.2,0.1-0.2c0.2-0.2,0.5-0.4,0.7-0.5c0.4-0.2,0.8,0,1,0.3c0.2,0.3,0.3,0.6,0.3,0.9c0,2.5,0,5,0,7.5c0,0.1,0,0.2,0,0.2
			c0,0,0,0.1,0.1,0.1c0,0,0,0,0,0c0,0,0.1,0,0.1,0l3-0.6c0.2,0,0.2-0.1,0.2-0.3v-7.9c0-0.2,0-0.5-0.1-0.7
			C930.8,702.9,930.4,702.3,929.9,701.8z"/>
		<path class="st22" d="M919.8,701.2c0-0.1-0.1-0.1-0.1-0.1l-0.1,0l-1.3,0.3l-1.8,0.4c-0.2,0-0.2,0.1-0.2,0.3v10.7
			c0,0.3,0,0.3,0.3,0.3l2.9-0.6c0.3-0.1,0.3-0.1,0.3-0.4v-10.6C919.8,701.4,919.8,701.3,919.8,701.2z"/>
		<path class="st22" d="M914.2,701.3c0-0.2,0-0.2-0.2-0.2h0l-3,0.6c-0.3,0.1-0.3,0.1-0.3,0.4c0,1.4,0,2.8,0,4.2c0,0.6,0,1.3,0,1.9
			c0,0.4-0.1,0.8-0.2,1.2c-0.1,0.2-0.2,0.4-0.3,0.6c-0.1,0.2-0.3,0.3-0.6,0.3c-0.4,0.1-0.8-0.2-0.8-0.6c0,0,0,0,0,0
			c-0.1-0.6-0.1-1.2-0.1-1.8c0-1.1-0.1-2.1-0.1-3.2s0-2.2,0-3.3c0-0.3,0-0.3-0.3-0.2l-1.1,0.2c-0.6,0.1-1.3,0.3-1.9,0.4
			c-0.2,0-0.2,0.1-0.2,0.3c0,0.1,0,0.2,0,0.4c0,1.5,0,3-0.1,4.6c0,0.9,0,1.8,0.1,2.6c0,0.5,0.1,0.9,0.3,1.4c0.2,0.5,0.5,1,1,1.3
			c0.7,0.5,1.6,0.8,2.5,0.8c0.6,0,1.1-0.3,1.5-0.8c0.2-0.3,0.4-0.6,0.4-1c0-0.1,0-0.2,0.1-0.2c0,0.1,0,0.3,0,0.4
			c0,0.5-0.1,1.1-0.2,1.6c-0.1,0.4-0.2,0.8-0.4,1.1c-0.4,0.7-1.2,1-1.9,0.9c-0.4-0.1-0.9-0.2-1.2-0.5c-0.1,0-0.1-0.1-0.2-0.1
			c0,0-0.1,0.1-0.1,0.1c-0.2,0.7-0.3,1.4-0.5,2.1c0,0.2,0,0.2,0.2,0.3c0.5,0.2,1,0.4,1.5,0.5c0.6,0.2,1.2,0.2,1.9,0.2
			c0.6,0,1.3-0.2,1.8-0.5c0.7-0.4,1.2-1,1.6-1.7c0.6-1.2,0.9-2.6,0.9-3.9c0-3.4,0-6.7,0-10.1V701.3z"/>
		<path class="st22" d="M902.9,696.8c0-0.3,0-0.3-0.3-0.3l-2.9,0.6c-0.3,0.1-0.3,0.1-0.3,0.4v15.3c0,0.3,0,0.3,0.3,0.3l2.9-0.5
			c0.4-0.1,0.4,0,0.4-0.4V696.8z"/>
		<path class="st22" d="M898.2,696.4h-2c-0.8,0-1.5,0-2.3,0.1c-0.4,0-0.9,0.1-1.3,0.3c-0.6,0.2-1,0.7-1.2,1.3
			c-0.1,0.5-0.2,1-0.3,1.5c-0.1,0.5-0.1,1.1-0.1,1.6c0,0.2,0,0.3-0.3,0.3l-0.9,0c-0.2,0-0.3,0-0.3,0.3c0,0.3,0,0.7,0,1s0,0.7,0,1.1
			c0,0.2,0,0.2,0.2,0.2c0.3,0,0.6,0.1,0.9,0.1c0.4,0,0.4,0,0.4,0.4v9.2c0,0.2,0,0.3,0,0.5c0,0.2,0,0.2,0.2,0.2
			c1-0.2,1.9-0.3,2.9-0.5c0.4-0.1,0.4-0.1,0.4-0.4v-9.1c0-0.1,0-0.2,0-0.3c0-0.1,0.1-0.1,0.1-0.1c0,0,0,0,0,0h2.8
			c0.2,0,0.2,0,0.2-0.2c0,0,0-0.1,0-0.1v-2c0-0.4,0-0.4-0.4-0.4h-2.6c-0.2,0-0.3,0-0.3-0.3c0-0.4,0-0.8,0-1.1c0-0.3,0.2-0.6,0.4-0.7
			c0.2-0.1,0.4-0.2,0.7-0.2c0.5-0.1,1.1-0.2,1.6-0.1c0.2,0,0.2,0,0.3-0.2c0.1-0.4,0.3-0.8,0.4-1.3c0.1-0.3,0.2-0.6,0.3-0.9
			C898.4,696.5,898.3,696.5,898.2,696.4z"/>
		<path class="st22" d="M916.6,700.4l2.2-0.5c0.3-0.1,0.6-0.1,0.9-0.2c0.2,0,0.2-0.1,0.2-0.2c0,0,0-0.1,0-0.1v-2.7
			c0-0.1,0-0.1,0-0.2c0-0.1,0-0.1-0.1-0.1c0,0,0,0,0,0c0,0-0.1,0-0.1,0l-3.1,0.6c-0.2,0-0.2,0.1-0.2,0.3v2.7
			C916.2,700.4,916.3,700.4,916.6,700.4z"/>
		<path class="st22" d="M958.3,696.4c0-0.1-0.1,0-0.2,0c-1.2,0-2.4,0-3.6,0c-0.2,0-0.4,0.1-0.5,0.3c-1.2,1.9-2.3,3.7-3.5,5.6
			l-2.2,3.5c-0.1,0.1-0.1,0.2-0.2,0.2c0-0.1-0.1-0.2,0-0.3v-8.9c0-0.4,0-0.4-0.4-0.3c-1.1,0.2-2.1,0.4-3.2,0.6
			c-0.3,0.1-0.7,0.1-1,0.2c-0.2,0-0.2,0.1-0.2,0.2v2.6c0,0.1,0,0.1,0,0.2c0,0.1,0.1,0.1,0.1,0.1c0,0,0,0,0,0c0,0,0.1,0,0.1,0
			c0.2-0.1,0.5-0.1,0.7-0.1c0.2,0,0.2,0,0.2,0.2c0,0.1,0,0.2,0,0.3v11.8c0,0.1,0,0.1,0,0.2c0,0.2,0,0.2,0.2,0.2h0c1,0,2,0,3,0
			c0.2,0,0.3-0.1,0.4-0.2c1.3-2.1,2.7-4.3,4-6.4l6-9.7C958.3,696.6,958.4,696.5,958.3,696.4z"/>
		<path class="st22" d="M942.3,701.3c0-0.2,0-0.2-0.2-0.2l-3,0.5c-0.2,0-0.2,0.1-0.2,0.3c0,0.1,0,0.3,0,0.4c0,0.1,0,0.1-0.1,0.2
			c-0.1-0.1-0.1-0.2-0.2-0.3c-0.4-0.9-1.4-1.4-2.4-1.1c-0.6,0.1-1.2,0.4-1.8,0.7c-0.5,0.3-0.8,0.8-1,1.4c-0.1,0.2-0.1,0.4-0.1,0.7
			c-0.1,0.5-0.1,1-0.1,1.6c0,1.5,0,2.9,0,4.4c0,0.1,0,0.2,0,0.4c0.2,0.6,0.4,1.2,0.8,1.7c0.4,0.5,0.9,0.8,1.5,1
			c0.4,0.1,0.8,0.1,1.2,0.1c0.8,0,1.5-0.5,1.8-1.2c0.1-0.2,0.2-0.4,0.2-0.6c0-0.1,0-0.1,0.1-0.2c0,0,0,0.1,0,0.1
			c0.1,0.7,0,1.4-0.1,2.1c-0.1,0.4-0.2,0.7-0.4,1.1c-0.2,0.4-0.6,0.6-1,0.7c-0.2,0-0.3,0.1-0.5,0.1c-0.6,0.1-1.2,0-1.7-0.4
			c-0.1-0.1-0.1-0.1-0.2,0c0,0.1-0.1,0.2-0.1,0.3c-0.2,0.5-0.3,1.1-0.5,1.6c-0.1,0.2,0,0.2,0.1,0.3l0.1,0.1c0.9,0.5,1.9,0.7,2.9,0.6
			c0.7-0.1,1.4-0.3,2.1-0.6c0.9-0.4,1.6-1.2,2-2.2c0.3-0.7,0.4-1.5,0.5-2.3c0-0.6,0.1-1.2,0-1.7v-9.2
			C942.3,701.5,942.3,701.4,942.3,701.3z M938.7,707c0,0.7,0,1.4,0,2.1c0,0.5-0.3,0.9-0.7,1.1c-0.4,0.2-0.9,0.1-1.2-0.3
			c0-0.1-0.1-0.1-0.1-0.2c-0.1-0.2-0.1-0.4-0.1-0.5c0-1.4,0-2.8,0-4.2c0-0.4,0.2-0.8,0.6-1c0.4-0.3,0.9-0.2,1.2,0.2
			c0.2,0.2,0.2,0.5,0.2,0.7C938.7,705.6,938.7,706.3,938.7,707z"/>
	</g>
</g>
</svg>
