<?xml version="1.0" encoding="UTF-8"?>
<svg width="214px" height="324px" viewBox="0 0 214 324" version="1.1" xmlns="http://www.w3.org/2000/svg" xmlns:xlink="http://www.w3.org/1999/xlink">
    <!-- Generator: Sketch 53.2 (72643) - https://sketchapp.com -->
    <title>dropdown/menu_membership</title>
    <desc>Created with Sketch.</desc>
    <defs>
        <path d="M196,7 L210,7 C212.209139,7 214,8.790861 214,11 L214,320 C214,322.209139 212.209139,324 210,324 L4,324 C1.790861,324 2.705415e-16,322.209139 0,320 L-8.8817842e-16,11 C-1.15871992e-15,8.790861 1.790861,7 4,7 L182,7 L187.561093,1.23943473 C188.328262,0.444748484 189.594395,0.422440958 190.389081,1.18960948 C190.405981,1.20592402 190.422592,1.22253501 190.438907,1.23943473 L196,7 Z" id="path-1"></path>
        <filter x="-3.3%" y="-2.2%" width="107.5%" height="104.9%" filterUnits="objectBoundingBox" id="filter-2">
            <feOffset dx="1" dy="1" in="SourceAlpha" result="shadowOffsetOuter1"></feOffset>
            <feGaussianBlur stdDeviation="2.5" in="shadowOffsetOuter1" result="shadowBlurOuter1"></feGaussianBlur>
            <feColorMatrix values="0 0 0 0 0.653858418   0 0 0 0 0.653858418   0 0 0 0 0.653858418  0 0 0 0.5 0" type="matrix" in="shadowBlurOuter1"></feColorMatrix>
        </filter>
    </defs>
    <g id="dropdown/menu_membership" stroke="none" stroke-width="1" fill="none" fill-rule="evenodd">
        <g id="dialog_box">
            <use fill="black" fill-opacity="1" filter="url(#filter-2)" xlink:href="#path-1"></use>
            <use fill="#F1F1F1" fill-rule="evenodd" xlink:href="#path-1"></use>
        </g>
        <g id="item/title" transform="translate(20.000000, 23.000000)" fill="#25ADC3">
            <rect id="Rectangle" fill-rule="evenodd" x="0" y="5" width="3" height="12"></rect>
            <text id="我是標題" font-family="SourceHanSansTW-Bold, Source Han Sans TW" font-size="12" font-weight="bold" letter-spacing="1">
                <tspan x="9" y="15">我的贊助</tspan>
            </text>
        </g>
        <text id="金萱，新時代中文字型，⋯" font-family="SourceHanSansTW-Medium, Source Han Sans TW" font-size="13" font-weight="400" fill="#4A4A4A">
            <tspan x="28" y="72">金萱，新時代中文字型，⋯</tspan>
        </text>
        <path d="M39.5,137.5 L192.5,137.5" id="Line-3-Copy" stroke="#CBCBCB" stroke-width="0.5" stroke-linecap="square"></path>
        <g id="item/title" transform="translate(20.000000, 155.000000)" fill="#25ADC3">
            <rect id="Rectangle" fill-rule="evenodd" x="0" y="5" width="3" height="12"></rect>
            <text id="我是標題" font-family="SourceHanSansTW-Bold, Source Han Sans TW" font-size="12" font-weight="bold" letter-spacing="1">
                <tspan x="9" y="15">會員專區</tspan>
            </text>
        </g>
        <text id="修改個人資料-帳戶／社群管理-通知設定" font-family="SourceHanSansTW-Medium, Source Han Sans TW" font-size="13" font-weight="400" line-spacing="32" fill="#4A4A4A">
            <tspan x="28" y="199">修改個人資料</tspan>
            <tspan x="28" y="231">帳戶／社群管理</tspan>
            <tspan x="28" y="263">通知設定</tspan>
            <tspan x="28" y="295">登出</tspan>
        </text>
        <g id="Group" transform="translate(28.000000, 97.000000)">
            <rect id="Rectangle" stroke="#25ADC3" x="0" y="0" width="63" height="23" rx="3"></rect>
            <text id="贊助紀錄" font-family="SourceHanSansTW-Medium, Source Han Sans TW" font-size="10" font-weight="400" letter-spacing="1.538462" fill="#25ADC3">
                <tspan x="10" y="15.204">贊助紀錄</tspan>
            </text>
        </g>
    </g>
</svg>