<svg xmlns="http://www.w3.org/2000/svg" viewBox="0 0 257.62 79.72"><defs><style>.cls-1{fill:#c24631;}</style></defs><title>flyingV</title><g id="圖層_2" data-name="圖層 2"><g id="圖層_1-2" data-name="圖層 1"><path class="cls-1" d="M151,20.45a12.88,12.88,0,0,0-8.73-3,7.82,7.82,0,0,0-5.06,1.9,9.85,9.85,0,0,0-2.41,3.06c-.13.24-.19.55-.5.72a1.22,1.22,0,0,1-.16-.86c0-1.36,0-2.72-.14-4.08-.05-.52-.13-.59-.66-.52a2,2,0,0,0-.31.07L122.6,20c-1.52.33-1.46.2-1.46,1.81V61.68c0,.76.1.82.86.72l.23,0,10.61-2c1.5-.28,1.44-.21,1.44-1.72q0-13.24,0-26.49c0-.35,0-.7,0-1a1.16,1.16,0,0,1,.31-.81,7.64,7.64,0,0,1,2.73-1.9,2.74,2.74,0,0,1,3.59,1.21A6.51,6.51,0,0,1,142,33.16q0,14,0,28.09c0,.29,0,.59,0,.88a.33.33,0,0,0,.38.32,3.93,3.93,0,0,0,.48-.06L154,60.27c.86-.16.91-.24.93-1.1V29.71a12.07,12.07,0,0,0-.23-2.54A11.51,11.51,0,0,0,151,20.45Z"/><path class="cls-1" d="M113.1,18.08c0-.36-.19-.48-.52-.42l-.55.1-4.93,1-6.57,1.39c-.71.16-.76.24-.79,1V61.41c0,1.14,0,1.16,1.11.94l11.06-2.18c1.2-.24,1.2-.24,1.2-1.44V18.88C113.11,18.61,113.11,18.34,113.1,18.08Z"/><path class="cls-1" d="M92,18.38c0-.77-.08-.82-.85-.7l-.16,0L79.62,19.78c-1.18.22-1.19.22-1.19,1.44q0,7.94,0,15.85c0,2.43,0,4.86,0,7.29a16.16,16.16,0,0,1-.66,4.58,6.36,6.36,0,0,1-1.16,2.27,3,3,0,0,1-2.1,1.18,2.79,2.79,0,0,1-3.15-2.57c-.28-2.22-.37-4.47-.45-6.7-.16-4-.25-8.06-.33-12.08s0-8.33-.17-12.49c0-1-.06-1-1-.79l-4.07.87c-2.35.5-4.7,1-7,1.52-.76.17-.82.25-.83,1,0,.46,0,.91,0,1.36,0,5.71-.12,11.42-.27,17.13a81.91,81.91,0,0,0,.31,9.91,20.52,20.52,0,0,0,1.11,5.07,9.9,9.9,0,0,0,3.57,4.91,14.74,14.74,0,0,0,9.4,2.83,6.81,6.81,0,0,0,5.47-3,10.89,10.89,0,0,0,1.66-3.79,1.47,1.47,0,0,1,.33-.84,5.48,5.48,0,0,1,.16,1.51,36,36,0,0,1-.59,6.13,14.47,14.47,0,0,1-1.51,4.28,7.41,7.41,0,0,1-7.23,3.44,9.65,9.65,0,0,1-4.51-1.94c-.22-.17-.4-.43-.73-.47a.63.63,0,0,0-.21.41c-.61,2.6-1.22,5.2-1.81,7.8-.16.72-.13.77.59,1.08a40.19,40.19,0,0,0,5.44,1.88,22.93,22.93,0,0,0,7,.86,14.6,14.6,0,0,0,6.79-1.9,15.61,15.61,0,0,0,6-6.5,31.45,31.45,0,0,0,3.49-14.66C92,44,92,31.4,92,18.78Z"/><path class="cls-1" d="M49.56,1.37c0-1.17,0-1.19-1.18-1L37.32,2.6c-1.11.22-1.13.24-1.13,1.34V61.42c0,1.13,0,1.15,1.11.95l10.86-2c1.48-.27,1.4-.18,1.4-1.66V1.37Z"/><path class="cls-1" d="M32,.2H24.62a72.68,72.68,0,0,0-8.47.32,15.54,15.54,0,0,0-4.88,1.16A7.91,7.91,0,0,0,6.68,6.62a30.41,30.41,0,0,0-1.1,5.48,57.34,57.34,0,0,0-.36,6.15c0,.85-.14.95-1,1L1,19.43c-.9.05-1,.16-1,1,0,1.31,0,2.61,0,3.92S0,27,0,28.31c0,.65.11.74.73.81,1.06.11,2.13.23,3.19.3,1.46.11,1.46.1,1.46,1.54V65.61c0,.64,0,1.28,0,1.92s.14.83.88.7C9.85,67.6,13.42,67,17,66.34c1.47-.26,1.33-.3,1.33-1.65V30.6c0-.32,0-.64,0-1a.51.51,0,0,1,.56-.54H29.55c.67,0,.78-.13.82-.8,0-.16,0-.32,0-.48V20.44c0-1.37,0-1.38-1.39-1.38h-9.6c-.9,0-1-.12-1-1,0-1.42,0-2.83,0-4.25a2.71,2.71,0,0,1,1.59-2.56,9.52,9.52,0,0,1,2.49-.85,27.39,27.39,0,0,1,6.13-.5c.82,0,.87,0,1.14-.82.54-1.59,1.07-3.18,1.61-4.78C31.7,3.15,32.1,2,32.47.88,32.65.32,32.58.23,32,.2Z"/><path class="cls-1" d="M100.93,15l8.22-1.73c1.09-.23,2.19-.45,3.28-.7.59-.14.64-.23.68-.81,0-.13,0-.26,0-.4v-10c0-.21,0-.42,0-.64a.37.37,0,0,0-.48-.38,2.79,2.79,0,0,0-.4.07L100.6,2.65c-.8.16-.85.24-.86,1.07V14C99.74,15.19,99.77,15.2,100.93,15Z"/><path class="cls-1" d="M257.58.18c-.15-.29-.53-.14-.81-.14-4.51,0-9,0-13.53,0a1.84,1.84,0,0,0-1.81,1q-6.51,10.52-13.09,21L220,35.29c-.19.3-.32.67-.71.87a2.41,2.41,0,0,1-.16-1.28V1.42c0-1.41,0-1.4-1.39-1.15-4,.74-8,1.46-12,2.19-1.28.24-2.57.47-3.85.73-.67.14-.73.22-.76.91V14a4.23,4.23,0,0,0,0,.71.42.42,0,0,0,.5.4c.16,0,.32-.06.47-.09.86-.19,1.72-.38,2.59-.55s.91-.09.93.78c0,.32,0,.64,0,1V60.58c0,.27,0,.54,0,.8,0,.77.1.85.9.87h.16c3.79,0,7.58,0,11.37,0a1.59,1.59,0,0,0,1.53-.89q7.45-12,15-24.06L257.25.94C257.4.71,257.73.46,257.58.18Z"/><path class="cls-1" d="M197.51,18.51c0-.79-.13-.87-.92-.73l-11.26,2c-.83.15-.89.23-.89,1.12,0,.53,0,1.06,0,1.6a.72.72,0,0,1-.22.67c-.23-.43-.42-.81-.63-1.17a8,8,0,0,0-9-4.22,17.7,17.7,0,0,0-6.69,2.76,8.51,8.51,0,0,0-3.69,5.14,20.12,20.12,0,0,0-.44,2.44c-.23,1.94-.21,3.89-.25,5.83-.11,5.47-.1,10.94-.05,16.41a5.66,5.66,0,0,0,.16,1.35,16.42,16.42,0,0,0,3.11,6.34,10.12,10.12,0,0,0,5.71,3.62,16.17,16.17,0,0,0,4.44.41,7.33,7.33,0,0,0,6.78-4.44,13.46,13.46,0,0,0,.77-2.35c.05-.2,0-.48.28-.58a.47.47,0,0,1,.18.39,29,29,0,0,1-.31,7.89,11.61,11.61,0,0,1-1.49,4,5.22,5.22,0,0,1-3.74,2.62c-.61.1-1.21.22-1.82.28-2.33.24-4.53,0-6.35-1.68-.3-.28-.45-.23-.58.14s-.22.77-.33,1.16c-.58,2-1.16,4.1-1.72,6.16-.19.7-.14.8.48,1.17l.35.19a21.39,21.39,0,0,0,11,2.37,19.61,19.61,0,0,0,7.71-2.2A14.55,14.55,0,0,0,195.44,69a34.58,34.58,0,0,0,1.89-8.64,63.74,63.74,0,0,0,.18-6.48V19.39C197.51,19.09,197.52,18.8,197.51,18.51ZM183.93,39.73q0,3.92,0,7.83a4.38,4.38,0,0,1-2.55,4,3.26,3.26,0,0,1-4.7-1.85,5.68,5.68,0,0,1-.33-2c0-5.25,0-10.5,0-15.76a4.5,4.5,0,0,1,2.14-3.82A3.32,3.32,0,0,1,183,29a4.24,4.24,0,0,1,.93,2.66C183.92,34.34,183.92,37,183.93,39.73Z"/></g></g></svg>