<?xml version="1.0" encoding="UTF-8"?>
<svg width="30px" height="165px" viewBox="0 0 30 165" version="1.1" xmlns="http://www.w3.org/2000/svg" xmlns:xlink="http://www.w3.org/1999/xlink">
    <title>Group 4</title>
    <g id="Portfolio" stroke="none" stroke-width="1" fill="none" fill-rule="evenodd" opacity="0.35">
        <g id="Artboard" transform="translate(-203.000000, -767.000000)">
            <g id="Group-3" transform="translate(203.000000, 767.000000)">
                <rect id="Rectangle" fill-opacity="0" fill="#D8D8D8" x="0" y="0" width="30" height="165"></rect>
                <circle id="Oval" fill="#FFC7B4" transform="translate(14.500000, 157.500000) scale(-1, 1) translate(-14.500000, -157.500000) " cx="14.5" cy="157.5" r="7.5"></circle>
                <circle id="Oval-Copy" fill-opacity="0.85" fill="#FFC7B4" transform="translate(14.500000, 127.500000) scale(-1, 1) translate(-14.500000, -127.500000) " cx="14.5" cy="127.5" r="7.5"></circle>
                <circle id="Oval-Copy-2" fill-opacity="0.65" fill="#FFC7B4" transform="translate(14.500000, 97.500000) scale(-1, 1) translate(-14.500000, -97.500000) " cx="14.5" cy="97.5" r="7.5"></circle>
                <circle id="Oval-Copy-3" fill-opacity="0.45" fill="#FFC7B4" transform="translate(14.500000, 67.500000) scale(-1, 1) translate(-14.500000, -67.500000) " cx="14.5" cy="67.5" r="7.5"></circle>
                <circle id="Oval-Copy-4" fill-opacity="0.25" fill="#FFC7B4" transform="translate(14.500000, 37.500000) scale(-1, 1) translate(-14.500000, -37.500000) " cx="14.5" cy="37.5" r="7.5"></circle>
                <circle id="Oval-Copy-5" fill-opacity="0.05" fill="#FFC7B4" transform="translate(14.500000, 7.500000) scale(-1, 1) translate(-14.500000, -7.500000) " cx="14.5" cy="7.5" r="7.5"></circle>
            </g>
        </g>
    </g>
</svg>