<?xml version="1.0" encoding="UTF-8"?>
<svg width="263px" height="937px" viewBox="0 0 263 937" version="1.1" xmlns="http://www.w3.org/2000/svg" xmlns:xlink="http://www.w3.org/1999/xlink">
    <title>process-overview_mobile</title>
    <defs>
        <linearGradient x1="8.04927203%" y1="22.47059%" x2="92.1689655%" y2="78.1291467%" id="linearGradient-1">
            <stop stop-color="#FFFFFF" offset="0%"></stop>
            <stop stop-color="#FFFFFF" stop-opacity="0" offset="40.1042%"></stop>
            <stop stop-color="#FFFFFF" offset="100%"></stop>
        </linearGradient>
        <linearGradient x1="5.55409962%" y1="75.3768368%" x2="97.8015326%" y2="32.1949619%" id="linearGradient-2">
            <stop stop-color="#FFFFFF" offset="0%"></stop>
            <stop stop-color="#FFFFFF" stop-opacity="0" offset="50.5208%"></stop>
            <stop stop-color="#FFFFFF" offset="100%"></stop>
        </linearGradient>
        <linearGradient x1="82.851341%" y1="7.60134907%" x2="10.7595019%" y2="89.1688026%" id="linearGradient-3">
            <stop stop-color="#FFFFFF" offset="0%"></stop>
            <stop stop-color="#FFFFFF" stop-opacity="0" offset="50%"></stop>
            <stop stop-color="#FFFFFF" offset="100%"></stop>
        </linearGradient>
    </defs>
    <g id="Page-1" stroke="none" stroke-width="1" fill="none" fill-rule="evenodd">
        <g id="process-overview_mobile" transform="translate(1.000000, 1.000000)">
            <ellipse id="Oval" stroke="url(#linearGradient-1)" stroke-width="2" cx="130.5" cy="129.5" rx="130.5" ry="129.5"></ellipse>
            <path d="M61.276,119.472 C63.976,118.752 66.568,117.96 69.088,117.096 L69.088,126.384 L71.644,126.384 L71.644,93.768 L69.088,93.768 L69.088,114.576 C67.36,115.26 65.596,115.872 63.796,116.412 L63.796,96.828 L61.276,96.828 L61.276,116.376 C61.276,116.772 60.988,117.06 60.484,117.276 L61.276,119.472 Z M78.952,101.616 L86.26,101.616 C86.044,106.584 84.892,110.904 82.732,114.612 C81.112,112.128 79.78,109.428 78.772,106.548 L76.648,107.736 C77.764,111.048 79.276,114.108 81.184,116.952 C78.952,119.868 75.964,122.28 72.184,124.152 L73.66,126.492 C77.332,124.512 80.392,122.028 82.768,119.076 C84.964,121.92 87.628,124.476 90.76,126.78 L92.488,124.728 C89.32,122.424 86.584,119.832 84.352,116.88 C87.016,112.632 88.492,107.556 88.744,101.616 L91.732,101.616 L91.732,99.06 L79.816,99.06 C80.284,97.476 80.68,95.748 81.04,93.912 L78.448,93.48 C77.44,99.456 75.46,104.244 72.58,107.808 L74.2,109.788 C76.108,107.592 77.692,104.856 78.952,101.616 Z M96.484,115.512 L96.484,117.852 L110.812,117.852 L110.812,126.636 L113.404,126.636 L113.404,117.852 L127.516,117.852 L127.516,115.512 L113.404,115.512 L113.404,113.64 L110.812,113.64 L110.812,115.512 L96.484,115.512 Z M118.516,119.148 L116.86,120.768 C120.568,122.712 123.484,124.584 125.572,126.348 L127.444,124.512 C125.032,122.712 122.044,120.948 118.516,119.148 Z M105.592,119.328 C103.144,121.2 100.084,122.82 96.484,124.224 L98.068,126.312 C101.74,124.728 104.836,122.928 107.356,120.876 L105.592,119.328 Z M100.012,102.516 L100.012,112.668 L126.472,112.668 L126.472,110.472 L114.34,110.472 L114.34,107.916 L124.456,107.916 L124.456,105.9 L114.34,105.9 L114.34,103.524 L124.456,103.524 L124.456,101.508 L114.34,101.508 L114.34,99.06 L125.788,99.06 L125.788,96.9 L114.16,96.9 C113.692,95.604 113.188,94.452 112.684,93.372 L110.056,93.84 C110.632,94.776 111.136,95.784 111.604,96.9 L103.864,96.9 C104.296,95.964 104.728,95.028 105.088,94.092 L102.676,93.48 C101.092,97.368 98.716,100.752 95.512,103.632 L96.952,105.648 C98.068,104.64 99.076,103.596 100.012,102.516 Z M111.784,110.472 L102.424,110.472 L102.424,107.916 L111.784,107.916 L111.784,110.472 Z M111.784,105.9 L102.424,105.9 L102.424,103.524 L111.784,103.524 L111.784,105.9 Z M111.784,101.508 L102.424,101.508 L102.424,99.348 L102.604,99.06 L111.784,99.06 L111.784,101.508 Z M134.068,96.036 L134.068,98.16 L146.776,98.16 L146.776,100.608 L135.58,100.608 L135.58,102.66 L146.776,102.66 L146.776,105.108 L132.52,105.108 L132.52,107.304 L144.184,107.304 C141.952,108.996 139.972,110.148 138.316,110.724 C137.848,110.94 137.344,111.048 136.84,111.12 L137.308,113.028 C140.692,112.884 143.896,112.776 146.92,112.668 C143.392,114.288 139.828,115.584 136.228,116.52 L134.824,116.376 L135.328,118.536 L138.352,118.428 C140.368,118.428 143.248,118.32 146.956,118.14 L146.956,123.18 C146.956,124.044 146.56,124.476 145.804,124.476 C144.796,124.476 143.788,124.404 142.708,124.332 L143.212,126.636 L146.632,126.636 C148.504,126.636 149.476,125.664 149.476,123.756 L149.476,117.996 C152.068,117.852 155.092,117.636 158.512,117.384 C159.232,118.212 159.916,119.04 160.564,119.904 L162.4,118.644 C160.96,116.736 158.836,114.504 156.064,111.948 L154.3,113.064 C155.236,113.928 156.1,114.792 156.928,115.656 C150.736,116.16 145.48,116.484 141.16,116.628 C146.416,114.972 151.672,112.668 156.892,109.644 L154.876,108.348 C153.4,109.248 151.888,110.112 150.376,110.94 C147.208,111.084 144.004,111.192 140.8,111.3 C142.96,110.292 145.084,108.96 147.208,107.304 L163.516,107.304 L163.516,105.108 L149.368,105.108 L149.368,102.66 L160.42,102.66 L160.42,100.608 L149.368,100.608 L149.368,98.16 L161.932,98.16 L161.932,96.036 L149.368,96.036 L149.368,93.516 L146.776,93.516 L146.776,96.036 L134.068,96.036 Z M142.168,119.4 C139.54,121.272 136.192,122.748 132.124,123.9 L133.168,126.06 C137.344,124.728 140.836,123.072 143.644,121.056 L142.168,119.4 Z M153.508,119.292 L152.248,121.128 C155.776,122.352 159.196,124.044 162.544,126.168 L163.84,124.188 C160.708,122.28 157.252,120.66 153.508,119.292 Z M192.064,103.2 C189.616,109.932 185.584,115.44 180.04,119.688 L181.408,122.028 C186.736,117.6 190.696,112.02 193.216,105.288 L193.216,122.208 C193.216,123.252 192.712,123.792 191.776,123.792 C190.624,123.792 189.4,123.72 188.14,123.648 L188.716,126.168 L192.64,126.168 C194.728,126.168 195.808,125.052 195.808,122.856 L195.808,103.2 L199.948,103.2 L199.948,100.716 L195.808,100.716 L195.808,93.588 L193.216,93.588 L193.216,100.716 L182.884,100.716 L182.884,103.2 L192.064,103.2 Z M168.088,100.644 L168.088,103.128 L173.776,103.128 C172.48,107.664 170.356,111.696 167.368,115.224 L168.52,118.14 C170.752,115.008 172.552,111.48 173.884,107.592 L173.884,126.456 L176.476,126.456 L176.476,107.952 C177.628,109.32 178.996,111.12 180.58,113.352 L182.092,111.12 C180.184,108.924 178.312,106.98 176.476,105.252 L176.476,103.128 L181.264,103.128 L181.264,100.644 L176.476,100.644 L176.476,93.624 L173.884,93.624 L173.884,100.644 L168.088,100.644 Z" id="Shape" fill="#F8F8F8" fill-rule="nonzero"></path>
            <path d="M113.937,163.414 C113.397,164.58 112.583,165.163 111.493,165.163 C111.036,165.163 110.644,165.066 110.315,164.873 C109.981,164.709 109.712,164.495 109.507,164.231 C109.255,163.956 109.088,163.596 109.006,163.15 C108.912,162.705 108.865,161.853 108.865,160.593 C108.865,159.333 108.912,158.475 109.006,158.018 C109.088,157.584 109.255,157.229 109.507,156.954 C109.712,156.69 109.981,156.471 110.315,156.295 C110.644,156.125 111.036,156.034 111.493,156.022 C112.114,156.034 112.642,156.213 113.075,156.559 C113.491,156.922 113.778,157.361 113.937,157.877 L115.993,157.877 C115.788,156.805 115.296,155.905 114.517,155.179 C113.737,154.458 112.729,154.092 111.493,154.08 C110.485,154.092 109.645,154.332 108.971,154.801 C108.285,155.264 107.787,155.791 107.477,156.383 C107.283,156.693 107.14,157.101 107.046,157.604 C106.958,158.108 106.914,159.104 106.914,160.593 C106.914,162.058 106.958,163.048 107.046,163.563 C107.093,163.839 107.151,164.067 107.222,164.249 C107.298,164.425 107.383,164.609 107.477,164.803 C107.787,165.395 108.285,165.916 108.971,166.367 C109.645,166.836 110.485,167.082 111.493,167.105 C112.606,167.105 113.57,166.789 114.385,166.156 C115.176,165.518 115.712,164.604 115.993,163.414 L113.937,163.414 Z M116.758,162.43 C116.758,163.391 116.837,164.123 116.995,164.627 C117.159,165.131 117.411,165.567 117.751,165.937 C118.003,166.224 118.354,166.481 118.806,166.71 C119.251,166.962 119.822,167.094 120.52,167.105 C121.24,167.094 121.823,166.962 122.269,166.71 C122.509,166.604 122.705,166.479 122.857,166.332 C123.027,166.203 123.171,166.071 123.288,165.937 C123.651,165.567 123.909,165.131 124.062,164.627 C124.208,164.123 124.281,163.391 124.281,162.43 C124.281,161.469 124.208,160.73 124.062,160.215 C123.909,159.711 123.651,159.286 123.288,158.94 C123.048,158.636 122.708,158.363 122.269,158.123 C121.823,157.895 121.24,157.774 120.52,157.763 C119.822,157.774 119.251,157.895 118.806,158.123 C118.354,158.363 118.003,158.636 117.751,158.94 C117.411,159.286 117.159,159.711 116.995,160.215 C116.837,160.73 116.758,161.469 116.758,162.43 Z M122.444,162.447 C122.444,163.068 122.415,163.525 122.356,163.818 C122.298,164.117 122.178,164.381 121.996,164.609 C121.861,164.785 121.662,164.94 121.398,165.075 C121.146,165.204 120.854,165.269 120.52,165.269 C120.209,165.269 119.922,165.204 119.658,165.075 C119.406,164.94 119.201,164.785 119.043,164.609 C118.885,164.381 118.771,164.117 118.7,163.818 C118.63,163.525 118.595,163.062 118.595,162.43 C118.595,161.791 118.63,161.322 118.7,161.023 C118.771,160.736 118.885,160.484 119.043,160.268 C119.201,160.062 119.406,159.901 119.658,159.784 C119.922,159.661 120.209,159.6 120.52,159.6 C120.854,159.6 121.146,159.661 121.398,159.784 C121.662,159.901 121.861,160.062 121.996,160.268 C122.178,160.484 122.298,160.736 122.356,161.023 C122.415,161.322 122.444,161.797 122.444,162.447 Z M126.206,164.785 C126.206,165.588 126.435,166.159 126.892,166.499 C127.325,166.833 127.876,167 128.544,167 L129.361,167 L129.361,165.269 L128.729,165.269 C128.271,165.269 128.043,165.061 128.043,164.645 L128.043,154.186 L126.206,154.186 L126.206,164.785 Z M130.847,164.785 C130.847,165.588 131.075,166.159 131.532,166.499 C131.966,166.833 132.517,167 133.185,167 L134.002,167 L134.002,165.269 L133.369,165.269 C132.912,165.269 132.684,165.061 132.684,164.645 L132.684,154.186 L130.847,154.186 L130.847,164.785 Z M142.562,163.133 L142.562,161.621 C142.551,160.42 142.179,159.477 141.446,158.791 C140.726,158.117 139.844,157.774 138.801,157.763 C138.367,157.763 137.928,157.842 137.482,158 C137.031,158.158 136.624,158.416 136.261,158.773 C135.903,159.125 135.61,159.605 135.382,160.215 C135.153,160.812 135.039,161.562 135.039,162.465 C135.039,163.402 135.171,164.164 135.435,164.75 C135.675,165.359 135.988,165.834 136.375,166.174 C136.574,166.338 136.788,166.476 137.017,166.587 C137.233,166.716 137.456,166.818 137.685,166.895 C138.142,167.035 138.61,167.105 139.091,167.105 C140.351,167.117 141.446,166.625 142.378,165.629 L141.051,164.495 C140.465,165.087 139.8,165.383 139.056,165.383 C138.417,165.383 137.901,165.189 137.509,164.803 C137.087,164.422 136.876,163.865 136.876,163.133 L142.562,163.133 Z M136.876,161.621 C136.911,160.912 137.102,160.376 137.447,160.013 C137.799,159.667 138.25,159.494 138.801,159.494 C139.352,159.494 139.803,159.667 140.154,160.013 C140.512,160.376 140.702,160.912 140.726,161.621 L136.876,161.621 Z M149.849,164.319 C149.386,164.94 148.768,165.257 147.994,165.269 C146.436,165.298 145.645,164.357 145.621,162.447 C145.645,160.525 146.436,159.576 147.994,159.6 C148.768,159.623 149.386,159.942 149.849,160.558 L151.202,159.354 C150.804,158.873 150.335,158.489 149.796,158.202 C149.257,157.921 148.633,157.774 147.924,157.763 C146.846,157.751 145.899,158.111 145.085,158.844 C144.241,159.588 143.808,160.789 143.784,162.447 C143.808,164.088 144.241,165.274 145.085,166.007 C145.899,166.739 146.846,167.105 147.924,167.105 C148.633,167.094 149.257,166.938 149.796,166.64 C150.335,166.353 150.804,165.98 151.202,165.523 L149.849,164.319 Z M152.591,157.877 L151.677,157.877 L151.677,159.274 L152.591,159.274 L152.591,164.75 C152.591,165.471 152.802,166.021 153.224,166.402 C153.634,166.801 154.161,167 154.806,167 L155.764,167 L155.764,165.269 L155.078,165.269 C154.633,165.28 154.416,165.055 154.428,164.592 L154.428,159.274 L155.764,159.274 L155.764,157.877 L154.428,157.877 L154.428,155.1 L152.591,155.1 L152.591,157.877 Z" id="Shape" fill="#B7B7B7" fill-rule="nonzero"></path>
            <ellipse id="Oval" stroke="url(#linearGradient-2)" stroke-width="2" cx="130.5" cy="470.5" rx="130.5" ry="129.5"></ellipse>
            <path d="M59.728,443.164 L59.728,445.684 L63.868,445.684 L63.868,458.536 C62.428,458.968 60.952,459.328 59.44,459.652 L60.088,462.136 C63.688,461.2 67.072,460.012 70.204,458.644 L70.204,456.124 C68.944,456.7 67.648,457.204 66.352,457.708 L66.352,445.684 L70.276,445.684 L70.276,443.164 L66.352,443.164 L66.352,433.66 L63.868,433.66 L63.868,443.164 L59.728,443.164 Z M73.192,434.884 L73.192,445.648 L89.752,445.648 L89.752,434.884 L73.192,434.884 Z M87.34,443.632 L75.568,443.632 L75.568,441.256 L87.34,441.256 L87.34,443.632 Z M75.568,439.348 L75.568,436.972 L87.34,436.972 L87.34,439.348 L75.568,439.348 Z M70.924,447.772 L70.924,450.04 L76.144,450.04 C74.92,451.948 73.012,453.604 70.384,455.008 L71.824,456.952 C73.12,456.16 74.272,455.332 75.28,454.396 L78.88,454.396 C77.224,456.772 74.488,458.68 70.672,460.192 L72.184,461.992 C76.432,460.156 79.456,457.636 81.328,454.396 L84.424,454.396 C82.192,459.292 78.484,462.568 73.3,464.296 L74.704,466.384 C80.284,464.44 84.28,460.444 86.728,454.396 L88.744,454.396 C88.564,458.464 88.24,461.128 87.808,462.352 C87.34,463.576 86.368,464.188 84.892,464.188 C84.208,464.188 83.488,464.152 82.732,464.08 L83.38,466.42 L86.08,466.42 C87.52,466.348 88.564,465.916 89.212,465.124 C89.86,464.26 90.328,462.784 90.616,460.66 C90.904,458.5 91.084,455.728 91.156,452.272 L77.224,452.272 C77.764,451.552 78.232,450.832 78.664,450.04 L92.416,450.04 L92.416,447.772 L70.924,447.772 Z M100.768,451.084 L100.768,458.356 L111.136,458.356 L111.136,462.856 C111.136,463.756 110.776,464.224 110.056,464.224 C108.796,464.224 107.464,464.152 106.096,464.044 L106.636,466.456 L110.92,466.456 C112.756,466.456 113.692,465.448 113.692,463.468 L113.692,458.356 L123.52,458.356 L123.52,451.084 L100.768,451.084 Z M121,456.304 L103.288,456.304 L103.288,453.136 L121,453.136 L121,456.304 Z M100.156,434.632 L100.156,444.892 L109.768,444.892 C110.164,445.54 110.56,446.224 110.92,446.98 L96.16,446.98 L96.16,449.14 L127.84,449.14 L127.84,446.98 L113.62,446.98 C113.332,446.26 113.044,445.54 112.72,444.892 L123.88,444.892 L123.88,434.632 L100.156,434.632 Z M121.36,442.84 L102.676,442.84 L102.676,440.68 L121.36,440.68 L121.36,442.84 Z M102.676,438.772 L102.676,436.684 L121.36,436.684 L121.36,438.772 L102.676,438.772 Z M118.3,459.652 L117.22,461.704 C120.748,462.784 124.132,464.26 127.408,466.168 L128.308,463.792 C125.104,461.992 121.756,460.588 118.3,459.652 Z M104.692,459.472 C102.604,461.272 99.616,462.784 95.692,464.044 L97.132,466.168 C100.876,464.872 103.936,463.18 106.312,461.128 L104.692,459.472 Z M132.628,442.12 L132.628,455.908 L137.128,455.908 L137.128,458.932 L131.944,458.932 L131.944,461.128 L137.128,461.128 L137.128,466.492 L139.504,466.492 L139.504,461.128 L144.544,461.128 L144.544,458.932 L139.504,458.932 L139.504,455.908 L143.86,455.908 L143.86,442.12 L139.504,442.12 L139.504,439.096 L144.328,439.096 L144.328,436.936 L139.504,436.936 L139.504,433.66 L137.128,433.66 L137.128,436.936 L132.16,436.936 L132.16,439.096 L137.128,439.096 L137.128,442.12 L132.628,442.12 Z M141.916,453.964 L139.252,453.964 L139.252,449.968 L141.916,449.968 L141.916,453.964 Z M137.344,453.964 L134.68,453.964 L134.68,449.968 L137.344,449.968 L137.344,453.964 Z M134.68,448.024 L134.68,444.064 L137.344,444.064 L137.344,448.024 L134.68,448.024 Z M139.252,444.064 L141.916,444.064 L141.916,448.024 L139.252,448.024 L139.252,444.064 Z M145.588,435.496 L145.588,437.584 L153.256,437.584 L153.256,439.6 L146.416,439.6 L146.416,449.968 L153.292,449.968 L153.292,452.38 C150.952,452.452 148.396,452.524 145.624,452.596 L145.912,454.612 C150.484,454.468 154.372,454.324 157.612,454.108 L157.612,456.808 L145.696,456.808 L145.696,459.004 L157.612,459.004 L157.612,463.288 C157.612,464.008 157.252,464.404 156.604,464.404 C155.596,464.404 154.516,464.332 153.4,464.26 L153.904,466.564 L157.468,466.564 C159.16,466.564 160.024,465.664 160.024,463.864 L160.024,459.004 L164.236,459.004 L164.236,456.808 L160.024,456.808 L160.024,453.928 C160.6,453.892 161.14,453.856 161.716,453.784 C162.076,454.36 162.436,454.972 162.76,455.548 L164.38,454.396 C163.624,453.1 162.616,451.624 161.356,449.968 L162.508,449.968 L162.508,439.6 L155.668,439.6 L155.668,437.584 L163.444,437.584 L163.444,435.496 L155.668,435.496 L155.668,433.48 L153.256,433.48 L153.256,435.496 L145.588,435.496 Z M160.564,452.02 C159.088,452.092 157.432,452.2 155.632,452.272 L155.632,449.968 L159.088,449.968 C159.592,450.616 160.096,451.3 160.564,452.02 Z M160.312,448.24 L155.56,448.24 L155.56,445.648 L160.312,445.648 L160.312,448.24 Z M153.4,448.24 L148.612,448.24 L148.612,445.648 L153.4,445.648 L153.4,448.24 Z M148.612,443.884 L148.612,441.328 L153.4,441.328 L153.4,443.884 L148.612,443.884 Z M155.56,441.328 L160.312,441.328 L160.312,443.884 L155.56,443.884 L155.56,441.328 Z M147.892,459.364 L146.704,461.056 C148.36,461.884 149.98,463.036 151.564,464.512 L152.824,462.568 C151.312,461.308 149.692,460.228 147.892,459.364 Z M171.94,466.204 C173.776,466.204 174.712,465.196 174.712,463.18 L174.712,452.488 C175.9,451.948 177.088,451.372 178.276,450.76 L178.276,448.24 C177.124,448.888 175.936,449.464 174.712,450.004 L174.712,442.696 L177.844,442.696 L177.844,440.212 L174.712,440.212 L174.712,433.624 L172.192,433.624 L172.192,440.212 L168.124,440.212 L168.124,442.696 L172.192,442.696 L172.192,451.012 C170.68,451.588 169.132,452.056 167.584,452.452 L168.196,454.9 C169.528,454.468 170.86,454.036 172.192,453.532 L172.192,462.532 C172.192,463.396 171.796,463.828 171.04,463.828 C170.176,463.828 169.24,463.756 168.304,463.684 L168.844,466.204 L171.94,466.204 Z M198.22,441.724 L191.812,441.724 C192.928,440.608 194.044,439.24 195.16,437.62 L195.16,435.82 L186.844,435.82 C187.168,435.244 187.492,434.632 187.852,433.984 L185.512,433.48 C183.568,437.116 181.048,440.032 177.988,442.264 L179.536,444.136 C180.04,443.74 180.508,443.344 181.012,442.912 L181.012,455.224 L178.528,455.224 L178.528,457.528 L187.384,457.528 C186.916,458.5 186.34,459.364 185.62,460.156 C183.964,461.884 181.264,463.216 177.52,464.152 L178.492,466.384 C182.812,465.232 185.8,463.648 187.528,461.668 C188.536,460.48 189.364,459.112 189.94,457.528 L200.524,457.528 L200.524,455.224 L198.22,455.224 L198.22,441.724 Z M188.824,441.724 L182.272,441.724 C183.424,440.572 184.468,439.348 185.44,437.98 L192.172,437.98 C191.092,439.384 189.976,440.644 188.824,441.724 Z M183.316,455.224 L183.316,443.848 L195.88,443.848 L195.88,455.224 L190.624,455.224 C190.768,454.468 190.912,453.676 190.984,452.848 L188.68,452.596 C188.572,453.496 188.428,454.36 188.212,455.224 L183.316,455.224 Z M189.436,449.032 C191.02,450.112 192.352,451.264 193.468,452.488 L194.764,450.976 C193.504,449.68 191.992,448.492 190.228,447.412 C190.516,446.692 190.804,445.9 191.056,445.036 L189.112,444.748 C188.464,447.556 186.916,449.716 184.54,451.264 L185.8,452.884 C187.24,451.948 188.464,450.652 189.436,449.032 Z M191.488,458.932 L190.264,460.768 C193.36,462.208 196.384,464.152 199.336,466.6 L200.668,464.548 C197.896,462.352 194.836,460.48 191.488,458.932 Z" id="Shape" fill="#F8F8F8" fill-rule="nonzero"></path>
            <path d="M94.5244,507 L96.4756,507 L96.4756,495.917 L99.9824,495.917 L99.9824,494.186 L91.0176,494.186 L91.0176,495.917 L94.5244,495.917 L94.5244,507 Z M99.5342,507 L101.371,507 L101.371,501.507 C101.383,500.839 101.576,500.355 101.951,500.057 C102.285,499.752 102.687,499.6 103.155,499.6 C103.571,499.6 103.973,499.752 104.359,500.057 L105.695,498.466 C105.15,498.009 104.512,497.774 103.779,497.763 C102.801,497.763 102.01,498.123 101.406,498.844 L101.371,498.844 L101.371,497.877 L99.5342,497.877 L99.5342,507 Z M111.004,507 L112.841,507 L112.841,500.769 C112.829,499.655 112.48,498.87 111.795,498.413 C111.109,497.968 110.192,497.751 109.044,497.763 C107.685,497.739 106.656,498.185 105.959,499.099 L107.4,500.197 C107.559,499.934 107.775,499.746 108.051,499.635 C108.314,499.541 108.675,499.494 109.132,499.494 C110.392,499.471 111.016,499.86 111.004,500.663 L111.004,501.621 L108.464,501.621 C107.491,501.633 106.753,501.896 106.249,502.412 C105.745,502.916 105.493,503.552 105.493,504.319 C105.493,505.122 105.783,505.781 106.363,506.297 C106.914,506.824 107.699,507.094 108.719,507.105 C109.34,507.105 109.826,507.029 110.178,506.877 C110.535,506.73 110.799,506.502 110.969,506.191 L111.004,506.191 L111.004,507 Z M111.004,503.792 C111.004,504.478 110.86,504.917 110.573,505.11 C110.257,505.304 109.715,505.395 108.947,505.383 C108.338,505.383 107.901,505.263 107.638,505.022 C107.362,504.806 107.225,504.542 107.225,504.231 C107.213,503.522 107.74,503.156 108.807,503.133 L111.004,503.133 L111.004,503.792 Z M115.214,507 L117.051,507 L117.051,501.568 C117.051,500.93 117.224,500.443 117.569,500.109 C117.909,499.77 118.343,499.6 118.87,499.6 C119.397,499.6 119.828,499.77 120.162,500.109 C120.502,500.443 120.672,500.93 120.672,501.568 L120.672,507 L122.509,507 L122.509,500.936 C122.479,499.893 122.154,499.102 121.533,498.562 C120.906,498.029 120.215,497.763 119.459,497.763 C118.48,497.763 117.689,498.123 117.086,498.844 L117.051,498.844 L117.051,497.877 L115.214,497.877 L115.214,507 Z M125.154,504.214 L123.871,505.471 C125.061,506.561 126.399,507.105 127.888,507.105 C128.983,507.094 129.883,506.842 130.586,506.35 C131.295,505.869 131.655,505.187 131.667,504.302 C131.667,503.546 131.471,502.922 131.078,502.43 C130.656,501.926 129.971,501.639 129.021,501.568 L127.51,501.454 C127.064,501.407 126.754,501.299 126.578,501.129 C126.385,500.977 126.294,500.798 126.306,500.593 C126.306,500.271 126.426,500.007 126.666,499.802 C126.895,499.597 127.296,499.494 127.87,499.494 C128.374,499.494 128.819,499.567 129.206,499.714 C129.599,499.878 129.971,500.086 130.322,500.338 L131.456,499.011 C131.011,498.624 130.507,498.316 129.944,498.088 C129.651,497.982 129.338,497.9 129.004,497.842 C128.67,497.789 128.292,497.763 127.87,497.763 C126.897,497.763 126.095,497.997 125.462,498.466 C124.812,498.935 124.48,499.638 124.469,500.575 C124.48,501.354 124.732,501.961 125.225,502.395 C125.705,502.84 126.329,503.098 127.097,503.168 L128.714,503.309 C129.054,503.32 129.326,503.394 129.531,503.528 C129.73,503.657 129.83,503.886 129.83,504.214 C129.83,504.583 129.663,504.87 129.329,505.075 C128.995,505.28 128.564,505.383 128.037,505.383 C126.859,505.383 125.898,504.993 125.154,504.214 Z M133.82,507 L135.657,507 L135.657,499.274 L137.494,499.274 L137.494,497.877 L135.657,497.877 L135.657,496.673 C135.634,496.151 135.897,495.899 136.448,495.917 L137.494,495.917 L137.494,494.186 L136.308,494.186 C135.599,494.186 135.01,494.376 134.541,494.757 C134.061,495.167 133.82,495.806 133.82,496.673 L133.82,497.877 L132.897,497.877 L132.897,499.274 L133.82,499.274 L133.82,507 Z M138.092,502.43 C138.092,503.391 138.171,504.123 138.329,504.627 C138.493,505.131 138.745,505.567 139.085,505.937 C139.337,506.224 139.688,506.481 140.14,506.71 C140.585,506.962 141.156,507.094 141.854,507.105 C142.574,507.094 143.157,506.962 143.603,506.71 C143.843,506.604 144.039,506.479 144.191,506.332 C144.361,506.203 144.505,506.071 144.622,505.937 C144.985,505.567 145.243,505.131 145.396,504.627 C145.542,504.123 145.615,503.391 145.615,502.43 C145.615,501.469 145.542,500.73 145.396,500.215 C145.243,499.711 144.985,499.286 144.622,498.94 C144.382,498.636 144.042,498.363 143.603,498.123 C143.157,497.895 142.574,497.774 141.854,497.763 C141.156,497.774 140.585,497.895 140.14,498.123 C139.688,498.363 139.337,498.636 139.085,498.94 C138.745,499.286 138.493,499.711 138.329,500.215 C138.171,500.73 138.092,501.469 138.092,502.43 Z M143.778,502.447 C143.778,503.068 143.749,503.525 143.69,503.818 C143.632,504.117 143.512,504.381 143.33,504.609 C143.195,504.785 142.996,504.94 142.732,505.075 C142.48,505.204 142.188,505.269 141.854,505.269 C141.543,505.269 141.256,505.204 140.992,505.075 C140.74,504.94 140.535,504.785 140.377,504.609 C140.219,504.381 140.104,504.117 140.034,503.818 C139.964,503.525 139.929,503.062 139.929,502.43 C139.929,501.791 139.964,501.322 140.034,501.023 C140.104,500.736 140.219,500.484 140.377,500.268 C140.535,500.062 140.74,499.901 140.992,499.784 C141.256,499.661 141.543,499.6 141.854,499.6 C142.188,499.6 142.48,499.661 142.732,499.784 C142.996,499.901 143.195,500.062 143.33,500.268 C143.512,500.484 143.632,500.736 143.69,501.023 C143.749,501.322 143.778,501.797 143.778,502.447 Z M147.54,507 L149.377,507 L149.377,501.507 C149.389,500.839 149.582,500.355 149.957,500.057 C150.291,499.752 150.692,499.6 151.161,499.6 C151.577,499.6 151.979,499.752 152.365,500.057 L153.701,498.466 C153.156,498.009 152.518,497.774 151.785,497.763 C150.807,497.763 150.016,498.123 149.412,498.844 L149.377,498.844 L149.377,497.877 L147.54,497.877 L147.54,507 Z M154.659,507 L156.496,507 L156.496,501.568 C156.496,500.93 156.672,500.443 157.023,500.109 C157.357,499.77 157.788,499.6 158.315,499.6 C158.843,499.6 159.276,499.77 159.616,500.109 C159.95,500.443 160.117,500.93 160.117,501.568 L160.117,507 L161.954,507 L161.954,501.568 C161.954,500.93 162.127,500.443 162.473,500.109 C162.812,499.77 163.246,499.6 163.773,499.6 C164.301,499.6 164.731,499.77 165.065,500.109 C165.399,500.443 165.566,500.93 165.566,501.568 L165.566,507 L167.403,507 L167.403,500.936 C167.38,499.893 167.058,499.102 166.437,498.562 C165.81,498.029 165.118,497.763 164.362,497.763 C163.161,497.751 162.203,498.149 161.488,498.958 C161.172,498.606 160.823,498.316 160.442,498.088 C160.056,497.883 159.546,497.774 158.913,497.763 C157.929,497.763 157.135,498.123 156.531,498.844 L156.496,498.844 L156.496,497.877 L154.659,497.877 L154.659,507 Z" id="Shape" fill="#B7B7B7" fill-rule="nonzero"></path>
            <ellipse id="Oval" stroke="url(#linearGradient-3)" stroke-width="2" cx="130.5" cy="805.5" rx="130.5" ry="129.5"></ellipse>
            <path d="M81.496,784.072 L81.496,786.28 L96.92,786.28 L96.92,784.072 L90.424,784.072 C89.976,782.152 89.528,780.456 89.08,778.984 L86.776,779.368 C87.288,780.776 87.736,782.344 88.152,784.072 L81.496,784.072 Z M80.696,804.808 L80.696,807.08 L97.304,807.08 L97.304,804.808 L91.992,804.808 C93.336,800.2 94.456,794.92 95.384,788.968 L93.208,788.424 C92.216,794.952 91.064,800.424 89.72,804.808 L80.696,804.808 Z M84.952,788.776 L82.904,789.448 C83.864,793.896 84.664,798.536 85.336,803.336 L87.384,802.792 C86.68,797.544 85.88,792.872 84.952,788.776 Z M68.76,790.184 L68.76,792.328 L73.656,792.328 L73.656,808.2 L75.896,808.2 L75.896,792.328 L80.312,792.328 L80.312,790.184 L75.896,790.184 L75.896,778.92 L73.656,778.92 L73.656,790.184 L68.76,790.184 Z M78.68,780.968 C78.488,783.528 78.008,785.8 77.24,787.752 L79.064,788.328 C79.864,786.248 80.376,783.88 80.568,781.192 L78.68,780.968 Z M70.616,781.544 L68.824,782.12 C69.464,784.168 69.976,786.312 70.424,788.552 L72.216,788.04 C71.736,785.608 71.192,783.432 70.616,781.544 Z M70.616,795.016 C70.104,798.344 69.496,801.096 68.824,803.272 L70.552,803.88 C71.256,801.48 71.832,798.664 72.28,795.464 L70.616,795.016 Z M78.968,794.888 L77.4,795.4 C77.912,797.768 78.36,800.232 78.712,802.792 L80.504,802.344 C80.056,799.528 79.544,797.064 78.968,794.888 Z M101.016,792.616 L101.016,794.856 L114.488,794.856 L114.488,804.36 C114.488,805.32 113.976,805.832 112.952,805.832 C111.096,805.832 109.4,805.8 107.8,805.736 L108.408,807.976 L113.88,807.976 C115.832,807.976 116.824,807.016 116.824,805.096 L116.824,794.856 L128.984,794.856 L128.984,792.616 L116.824,792.616 L116.824,789.256 C120.088,787.112 122.968,784.84 125.496,782.44 L125.496,780.264 L104.376,780.264 L104.376,782.44 L122.36,782.44 C119.864,784.616 117.24,786.504 114.488,788.072 L114.488,792.616 L101.016,792.616 Z M145.944,808.008 C147.672,808.008 148.536,807.144 148.536,805.416 L148.536,797.256 C151.544,797.064 154.264,796.84 156.696,796.584 C157.368,797.608 157.976,798.632 158.552,799.624 L160.376,798.376 C159.032,796.136 157.144,793.512 154.648,790.504 L152.952,791.56 C153.848,792.648 154.648,793.704 155.416,794.76 C151.48,795.144 146.808,795.496 141.368,795.784 C145.88,793.96 151.128,791.016 157.144,786.984 L154.936,785.928 C153.464,786.92 152.056,787.88 150.648,788.776 L141.848,789.448 C144.856,788.104 147.704,786.376 150.424,784.264 L148.728,783.048 C144.632,786.152 140.536,788.264 136.376,789.352 L136.728,791.304 C140.312,791.144 143.864,790.952 147.448,790.696 C143.576,792.904 140.088,794.504 136.952,795.496 C136.344,795.688 135.672,795.848 134.968,795.912 L135.608,797.928 C139.416,797.8 142.936,797.608 146.2,797.416 L146.2,804.872 C146.2,805.608 145.848,805.992 145.144,805.992 C144.056,805.992 142.936,805.928 141.784,805.832 L142.296,808.008 L145.944,808.008 Z M152.696,798.824 L151.192,800.264 C154.424,802.888 156.984,805.32 158.84,807.624 L160.44,806.024 C158.328,803.624 155.768,801.224 152.696,798.824 Z M140.952,799.144 C138.808,801.64 136.184,803.848 133.08,805.704 L134.456,807.56 C137.656,805.544 140.376,803.208 142.552,800.52 L140.952,799.144 Z M153.592,778.952 C151.288,779.848 148.728,780.584 145.944,781.224 C142.776,781.928 139.224,782.536 135.32,782.984 L136.504,784.872 C141.144,784.136 144.888,783.432 147.704,782.76 C150.36,782.088 152.984,781.224 155.576,780.2 L153.592,778.952 Z M188.184,786.504 L186.488,787.592 C187.288,788.616 188.056,789.64 188.76,790.632 C185.688,790.952 182.552,791.24 179.352,791.464 C180.632,789.8 182.04,787.432 183.64,784.424 L192.824,784.424 L192.824,782.28 L184.728,782.28 C185.144,781.384 185.592,780.456 186.04,779.496 L183.928,778.664 C183.352,779.944 182.808,781.16 182.296,782.28 L175.992,782.28 L175.992,784.424 L181.272,784.424 C179.576,787.816 178.136,790.056 176.984,791.208 C176.728,791.304 176.44,791.368 176.12,791.432 L176.632,793.512 L180.056,793.32 C179.864,796.968 179.384,799.656 178.616,801.416 C177.72,803.368 176.216,805.064 174.104,806.472 L175.512,808.264 C177.88,806.6 179.576,804.648 180.6,802.344 C181.464,800.36 182.008,797.32 182.232,793.16 L185.624,792.872 L185.624,805.288 C185.624,806.888 186.552,807.72 188.472,807.72 L190.296,807.72 C191.704,807.656 192.6,807.304 193.016,806.664 C193.464,805.992 193.688,804.232 193.688,801.384 L191.736,800.648 C191.736,802.44 191.64,803.72 191.48,804.52 C191.352,805.224 190.936,805.576 190.168,805.608 L188.536,805.608 C188.024,805.576 187.8,805.352 187.8,804.904 L187.8,792.648 C188.504,792.584 189.24,792.488 189.976,792.424 C190.52,793.256 191,794.088 191.448,794.888 L193.208,793.64 C192.024,791.592 190.36,789.224 188.184,786.504 Z M173.784,791.432 L172.024,792.008 C172.408,792.968 172.792,793.96 173.112,795.016 C171.288,795.528 169.464,795.912 167.608,796.232 C169.592,794.024 172.088,790.184 175.096,784.744 L173.112,784.008 C172.408,785.352 171.704,786.6 171.064,787.784 C169.624,788.04 168.184,788.232 166.744,788.392 C168.28,786.184 169.816,783.24 171.352,779.56 L169.272,778.728 C168.088,782.12 166.712,785.096 165.112,787.72 C164.856,788.104 164.536,788.392 164.184,788.552 L164.76,790.536 C166.456,790.312 168.152,790.088 169.88,789.832 C168.152,792.648 166.712,794.632 165.496,795.848 C165.24,796.104 164.888,796.296 164.504,796.456 L165.08,798.472 C167.8,798.152 170.648,797.544 173.624,796.712 L174.008,798.248 L175.864,797.768 C175.256,795.4 174.552,793.288 173.784,791.432 Z M165.432,800.04 C165.272,802.664 164.92,804.968 164.344,807.016 L166.36,807.624 C166.872,805.512 167.192,803.048 167.32,800.264 L165.432,800.04 Z M170.584,799.656 L168.856,800.008 C169.144,801.928 169.4,804.136 169.592,806.632 L171.576,806.184 C171.288,803.816 170.968,801.64 170.584,799.656 Z M174.04,798.824 L172.376,799.368 C172.888,800.84 173.336,802.536 173.72,804.488 L175.448,803.688 C175.064,801.96 174.584,800.36 174.04,798.824 Z" id="Shape" fill="#F8F8F8" fill-rule="nonzero"></path>
            <path d="M104.848,748.204 L104.848,750.024 L106.976,750.024 L106.976,763.548 L108.936,763.548 L108.936,762.008 L115.208,762.008 L115.208,750.024 L117.28,750.024 L117.28,748.204 L115.208,748.204 L115.208,745.432 L113.276,745.432 L113.276,748.204 L108.936,748.204 L108.936,745.404 L106.976,745.404 L106.976,748.204 L104.848,748.204 Z M108.936,760.16 L108.936,755.876 L113.276,755.876 L113.276,760.16 L108.936,760.16 Z M113.276,754.112 L108.936,754.112 L108.936,750.024 L113.276,750.024 L113.276,754.112 Z M116.048,738.236 L116.048,742.184 L108.712,742.184 L108.712,739.188 L106.696,739.188 L106.696,743.976 L127.192,743.976 L127.192,739.104 L125.176,739.104 L125.176,742.184 L118.064,742.184 L118.064,738.236 L116.048,738.236 Z M119.772,744.76 C119.324,748.456 118.288,751.368 116.664,753.44 L118.204,754.504 C119.212,753.244 120.052,751.592 120.668,749.576 L126.576,749.576 C126.212,751.144 125.764,752.544 125.204,753.804 L126.968,754.308 C127.612,752.572 128.144,750.808 128.592,749.016 L128.592,747.784 L121.144,747.784 C121.34,746.944 121.508,746.02 121.648,745.068 L119.772,744.76 Z M121.816,751.004 C121.816,753.58 121.508,755.68 120.92,757.36 C120.136,759.32 118.54,760.944 116.132,762.288 L117.364,763.8 C120.164,762.232 121.984,760.216 122.768,757.808 L122.824,757.612 C124.168,760.076 126.128,762.148 128.704,763.828 L129.992,762.316 C126.884,760.524 124.672,758.088 123.384,755.008 C123.552,753.776 123.664,752.46 123.664,751.004 L121.816,751.004 Z M144.356,741.232 C142.564,750.192 138.504,757.024 132.176,761.7 L133.38,763.408 C139.204,759.096 143.124,752.964 145.112,745.012 C146.764,752.012 150.572,758.172 156.508,763.492 L157.656,761.756 C150.6,755.316 146.68,747.812 145.896,739.272 L140.184,739.272 L140.184,741.232 L144.356,741.232 Z" id="Shape" fill="#F8F8F8" fill-rule="nonzero"></path>
            <path d="M94.4902,845 L102.673,845 L102.673,843.163 L96.4326,843.163 L96.4326,839.401 L101.759,839.401 L101.759,837.679 L96.4326,837.679 L96.4326,834.022 L102.673,834.022 L102.673,832.186 L94.4902,832.186 L94.4902,845 Z M104.448,845 L106.285,845 L106.285,839.568 C106.285,838.93 106.461,838.443 106.812,838.109 C107.146,837.77 107.577,837.6 108.104,837.6 C108.632,837.6 109.065,837.77 109.405,838.109 C109.739,838.443 109.906,838.93 109.906,839.568 L109.906,845 L111.743,845 L111.743,839.568 C111.743,838.93 111.916,838.443 112.262,838.109 C112.602,837.77 113.035,837.6 113.562,837.6 C114.09,837.6 114.521,837.77 114.854,838.109 C115.188,838.443 115.355,838.93 115.355,839.568 L115.355,845 L117.192,845 L117.192,838.936 C117.169,837.893 116.847,837.102 116.226,836.562 C115.599,836.029 114.907,835.763 114.151,835.763 C112.95,835.751 111.992,836.149 111.277,836.958 C110.961,836.606 110.612,836.316 110.231,836.088 C109.845,835.883 109.335,835.774 108.702,835.763 C107.718,835.763 106.924,836.123 106.32,836.844 L106.285,836.844 L106.285,835.877 L104.448,835.877 L104.448,845 Z M119.688,845 L121.525,845 L121.525,844.042 C122.135,844.728 122.92,845.082 123.881,845.105 C124.449,845.094 124.936,844.979 125.34,844.763 C125.75,844.552 126.081,844.271 126.333,843.919 C126.585,843.632 126.758,843.242 126.852,842.75 C126.939,842.281 126.983,841.508 126.983,840.43 C126.983,839.334 126.939,838.555 126.852,838.092 C126.758,837.623 126.585,837.245 126.333,836.958 C125.817,836.19 125,835.792 123.881,835.763 C123.412,835.763 122.993,835.859 122.624,836.053 C122.226,836.258 121.859,836.521 121.525,836.844 L121.525,832.186 L119.688,832.186 L119.688,845 Z M123.327,837.6 C123.761,837.6 124.104,837.673 124.355,837.819 C124.607,837.978 124.786,838.194 124.892,838.47 C125.009,838.745 125.088,839.044 125.129,839.366 C125.141,839.712 125.146,840.066 125.146,840.43 C125.146,840.775 125.141,841.112 125.129,841.44 C125.088,841.786 125.009,842.097 124.892,842.372 C124.786,842.636 124.607,842.853 124.355,843.022 C124.104,843.187 123.761,843.269 123.327,843.269 C122.917,843.269 122.592,843.181 122.352,843.005 C122.1,842.835 121.915,842.612 121.798,842.337 C121.687,842.062 121.613,841.754 121.578,841.414 C121.543,841.08 121.525,840.752 121.525,840.43 C121.525,840.078 121.543,839.741 121.578,839.419 C121.613,839.097 121.687,838.798 121.798,838.522 C121.915,838.247 122.1,838.024 122.352,837.854 C122.592,837.685 122.917,837.6 123.327,837.6 Z M136.115,841.133 L136.115,839.621 C136.104,838.42 135.731,837.477 134.999,836.791 C134.278,836.117 133.396,835.774 132.354,835.763 C131.92,835.763 131.48,835.842 131.035,836 C130.584,836.158 130.177,836.416 129.813,836.773 C129.456,837.125 129.163,837.605 128.935,838.215 C128.706,838.812 128.592,839.562 128.592,840.465 C128.592,841.402 128.724,842.164 128.987,842.75 C129.228,843.359 129.541,843.834 129.928,844.174 C130.127,844.338 130.341,844.476 130.569,844.587 C130.786,844.716 131.009,844.818 131.237,844.895 C131.694,845.035 132.163,845.105 132.644,845.105 C133.903,845.117 134.999,844.625 135.931,843.629 L134.604,842.495 C134.018,843.087 133.353,843.383 132.608,843.383 C131.97,843.383 131.454,843.189 131.062,842.803 C130.64,842.422 130.429,841.865 130.429,841.133 L136.115,841.133 Z M130.429,839.621 C130.464,838.912 130.654,838.376 131,838.013 C131.352,837.667 131.803,837.494 132.354,837.494 C132.904,837.494 133.355,837.667 133.707,838.013 C134.064,838.376 134.255,838.912 134.278,839.621 L130.429,839.621 Z M143.498,844.042 L143.498,845 L145.335,845 L145.335,832.186 L143.498,832.186 L143.498,836.844 C143.158,836.521 142.804,836.258 142.435,836.053 C142.036,835.859 141.603,835.763 141.134,835.763 C140.021,835.792 139.206,836.19 138.69,836.958 C138.438,837.245 138.271,837.623 138.189,838.092 C138.09,838.555 138.04,839.334 138.04,840.43 C138.04,841.508 138.09,842.281 138.189,842.75 C138.271,843.242 138.438,843.632 138.69,843.919 C138.966,844.271 139.309,844.552 139.719,844.763 C140.111,844.979 140.583,845.094 141.134,845.105 C142.106,845.082 142.895,844.728 143.498,844.042 Z M141.696,837.6 C142.13,837.6 142.473,837.685 142.725,837.854 C142.977,838.024 143.149,838.247 143.243,838.522 C143.36,838.798 143.439,839.097 143.48,839.419 C143.492,839.741 143.498,840.078 143.498,840.43 C143.498,840.752 143.492,841.08 143.48,841.414 C143.439,841.754 143.36,842.062 143.243,842.337 C143.149,842.612 142.977,842.835 142.725,843.005 C142.473,843.181 142.13,843.269 141.696,843.269 C141.263,843.269 140.932,843.187 140.703,843.022 C140.451,842.853 140.267,842.636 140.149,842.372 C140.038,842.097 139.965,841.786 139.93,841.44 C139.895,841.112 139.877,840.775 139.877,840.43 C139.877,840.066 139.895,839.712 139.93,839.366 C139.965,839.044 140.038,838.745 140.149,838.47 C140.267,838.194 140.451,837.978 140.703,837.819 C140.932,837.673 141.263,837.6 141.696,837.6 Z M151.821,835.877 L150.907,835.877 L150.907,837.274 L151.821,837.274 L151.821,842.75 C151.821,843.471 152.032,844.021 152.454,844.402 C152.864,844.801 153.392,845 154.036,845 L154.994,845 L154.994,843.269 L154.309,843.269 C153.863,843.28 153.646,843.055 153.658,842.592 L153.658,837.274 L154.994,837.274 L154.994,835.877 L153.658,835.877 L153.658,833.1 L151.821,833.1 L151.821,835.877 Z M156.277,840.43 C156.277,841.391 156.356,842.123 156.515,842.627 C156.679,843.131 156.931,843.567 157.271,843.937 C157.522,844.224 157.874,844.481 158.325,844.71 C158.771,844.962 159.342,845.094 160.039,845.105 C160.76,845.094 161.343,844.962 161.788,844.71 C162.028,844.604 162.225,844.479 162.377,844.332 C162.547,844.203 162.69,844.071 162.808,843.937 C163.171,843.567 163.429,843.131 163.581,842.627 C163.728,842.123 163.801,841.391 163.801,840.43 C163.801,839.469 163.728,838.73 163.581,838.215 C163.429,837.711 163.171,837.286 162.808,836.94 C162.567,836.636 162.228,836.363 161.788,836.123 C161.343,835.895 160.76,835.774 160.039,835.763 C159.342,835.774 158.771,835.895 158.325,836.123 C157.874,836.363 157.522,836.636 157.271,836.94 C156.931,837.286 156.679,837.711 156.515,838.215 C156.356,838.73 156.277,839.469 156.277,840.43 Z M161.964,840.447 C161.964,841.068 161.935,841.525 161.876,841.818 C161.817,842.117 161.697,842.381 161.516,842.609 C161.381,842.785 161.182,842.94 160.918,843.075 C160.666,843.204 160.373,843.269 160.039,843.269 C159.729,843.269 159.441,843.204 159.178,843.075 C158.926,842.94 158.721,842.785 158.562,842.609 C158.404,842.381 158.29,842.117 158.22,841.818 C158.149,841.525 158.114,841.062 158.114,840.43 C158.114,839.791 158.149,839.322 158.22,839.023 C158.29,838.736 158.404,838.484 158.562,838.268 C158.721,838.062 158.926,837.901 159.178,837.784 C159.441,837.661 159.729,837.6 160.039,837.6 C160.373,837.6 160.666,837.661 160.918,837.784 C161.182,837.901 161.381,838.062 161.516,838.268 C161.697,838.484 161.817,838.736 161.876,839.023 C161.935,839.322 161.964,839.797 161.964,840.447 Z M75.3652,855.022 L78.1689,855.022 C78.6963,855.011 79.1592,855.131 79.5576,855.383 C79.8213,855.535 80.0264,855.743 80.1729,856.007 C80.3135,856.3 80.3838,856.66 80.3838,857.088 C80.3838,857.604 80.2109,858.072 79.8652,858.494 C79.502,858.928 78.96,859.15 78.2393,859.162 L75.3652,859.162 L75.3652,855.022 Z M73.4229,866 L75.3652,866 L75.3652,860.999 L78.3184,860.999 C79.6367,860.976 80.6387,860.554 81.3242,859.733 C81.9922,858.954 82.3262,858.09 82.3262,857.141 C82.3262,856.438 82.1943,855.828 81.9307,855.312 C81.6787,854.779 81.3506,854.369 80.9463,854.082 C80.4658,853.701 79.9912,853.449 79.5225,853.326 C79.0537,853.232 78.5674,853.186 78.0635,853.186 L73.4229,853.186 L73.4229,866 Z M88.2588,866 L90.0957,866 L90.0957,859.769 C90.084,858.655 89.7354,857.87 89.0498,857.413 C88.3643,856.968 87.4473,856.751 86.2988,856.763 C84.9395,856.739 83.9111,857.185 83.2139,858.099 L84.6553,859.197 C84.8135,858.934 85.0303,858.746 85.3057,858.635 C85.5693,858.541 85.9297,858.494 86.3867,858.494 C87.6465,858.471 88.2705,858.86 88.2588,859.663 L88.2588,860.621 L85.7188,860.621 C84.7461,860.633 84.0078,860.896 83.5039,861.412 C83,861.916 82.748,862.552 82.748,863.319 C82.748,864.122 83.0381,864.781 83.6182,865.297 C84.1689,865.824 84.9541,866.094 85.9736,866.105 C86.5947,866.105 87.0811,866.029 87.4326,865.877 C87.79,865.73 88.0537,865.502 88.2236,865.191 L88.2588,865.191 L88.2588,866 Z M88.2588,862.792 C88.2588,863.478 88.1152,863.917 87.8281,864.11 C87.5117,864.304 86.9697,864.395 86.2021,864.383 C85.5928,864.383 85.1562,864.263 84.8926,864.022 C84.6172,863.806 84.4795,863.542 84.4795,863.231 C84.4678,862.522 84.9951,862.156 86.0615,862.133 L88.2588,862.133 L88.2588,862.792 Z M92.4688,866 L94.3057,866 L94.3057,860.507 C94.3174,859.839 94.5107,859.355 94.8857,859.057 C95.2197,858.752 95.6211,858.6 96.0898,858.6 C96.5059,858.6 96.9072,858.752 97.2939,859.057 L98.6299,857.466 C98.085,857.009 97.4463,856.774 96.7139,856.763 C95.7354,856.763 94.9443,857.123 94.3408,857.844 L94.3057,857.844 L94.3057,856.877 L92.4688,856.877 L92.4688,866 Z M99.5879,856.877 L98.6738,856.877 L98.6738,858.274 L99.5879,858.274 L99.5879,863.75 C99.5879,864.471 99.7988,865.021 100.221,865.402 C100.631,865.801 101.158,866 101.803,866 L102.761,866 L102.761,864.269 L102.075,864.269 C101.63,864.28 101.413,864.055 101.425,863.592 L101.425,858.274 L102.761,858.274 L102.761,856.877 L101.425,856.877 L101.425,854.1 L99.5879,854.1 L99.5879,856.877 Z M104.545,866 L106.382,866 L106.382,856.877 L104.545,856.877 L104.545,866 Z M104.545,855.022 L106.382,855.022 L106.382,853.186 L104.545,853.186 L104.545,855.022 Z M114.178,863.319 C113.715,863.94 113.097,864.257 112.323,864.269 C110.765,864.298 109.974,863.357 109.95,861.447 C109.974,859.525 110.765,858.576 112.323,858.6 C113.097,858.623 113.715,858.942 114.178,859.558 L115.531,858.354 C115.133,857.873 114.664,857.489 114.125,857.202 C113.586,856.921 112.962,856.774 112.253,856.763 C111.175,856.751 110.229,857.111 109.414,857.844 C108.57,858.588 108.137,859.789 108.113,861.447 C108.137,863.088 108.57,864.274 109.414,865.007 C110.229,865.739 111.175,866.105 112.253,866.105 C112.962,866.094 113.586,865.938 114.125,865.64 C114.664,865.353 115.133,864.98 115.531,864.523 L114.178,863.319 Z M116.814,863.785 C116.814,864.588 117.043,865.159 117.5,865.499 C117.934,865.833 118.484,866 119.152,866 L119.97,866 L119.97,864.269 L119.337,864.269 C118.88,864.269 118.651,864.061 118.651,863.645 L118.651,853.186 L116.814,853.186 L116.814,863.785 Z M128.53,862.133 L128.53,860.621 C128.519,859.42 128.146,858.477 127.414,857.791 C126.693,857.117 125.812,856.774 124.769,856.763 C124.335,856.763 123.896,856.842 123.45,857 C122.999,857.158 122.592,857.416 122.229,857.773 C121.871,858.125 121.578,858.605 121.35,859.215 C121.121,859.812 121.007,860.562 121.007,861.465 C121.007,862.402 121.139,863.164 121.402,863.75 C121.643,864.359 121.956,864.834 122.343,865.174 C122.542,865.338 122.756,865.476 122.984,865.587 C123.201,865.716 123.424,865.818 123.652,865.895 C124.109,866.035 124.578,866.105 125.059,866.105 C126.318,866.117 127.414,865.625 128.346,864.629 L127.019,863.495 C126.433,864.087 125.768,864.383 125.023,864.383 C124.385,864.383 123.869,864.189 123.477,863.803 C123.055,863.422 122.844,862.865 122.844,862.133 L128.53,862.133 Z M122.844,860.621 C122.879,859.912 123.069,859.376 123.415,859.013 C123.767,858.667 124.218,858.494 124.769,858.494 C125.319,858.494 125.771,858.667 126.122,859.013 C126.479,859.376 126.67,859.912 126.693,860.621 L122.844,860.621 Z M135.104,862.889 L133.83,864.348 C135.195,865.52 136.827,866.105 138.726,866.105 C141.661,866.07 143.161,864.828 143.226,862.379 C143.226,861.471 142.941,860.674 142.373,859.988 C141.799,859.291 140.911,858.86 139.71,858.696 C139.101,858.62 138.62,858.553 138.269,858.494 C137.636,858.377 137.176,858.166 136.889,857.861 C136.602,857.562 136.458,857.229 136.458,856.859 C136.47,856.244 136.684,855.781 137.1,855.471 C137.498,855.172 137.996,855.022 138.594,855.022 C139.748,855.046 140.806,855.374 141.767,856.007 L142.848,854.407 C141.67,853.558 140.284,853.115 138.69,853.08 C137.366,853.092 136.344,853.438 135.623,854.117 C134.879,854.803 134.507,855.705 134.507,856.824 C134.507,857.756 134.803,858.547 135.395,859.197 C135.969,859.83 136.807,860.237 137.908,860.419 C138.523,860.507 139.089,860.586 139.604,860.656 C140.729,860.85 141.286,861.424 141.274,862.379 C141.251,863.545 140.407,864.14 138.743,864.163 C137.337,864.151 136.124,863.727 135.104,862.889 Z M147.075,865.64 L146.574,867.169 C146.492,867.433 146.349,867.632 146.144,867.767 C145.938,867.896 145.716,867.96 145.476,867.96 L144.939,867.96 L144.939,869.691 L145.546,869.691 C146.114,869.691 146.624,869.565 147.075,869.313 C147.521,869.05 147.869,868.575 148.121,867.89 L152.05,856.877 L150.099,856.877 L147.945,863.267 L147.91,863.267 L145.748,856.877 L143.806,856.877 L147.075,865.64 Z M153.386,863.214 L152.103,864.471 C153.292,865.561 154.631,866.105 156.119,866.105 C157.215,866.094 158.114,865.842 158.817,865.35 C159.526,864.869 159.887,864.187 159.898,863.302 C159.898,862.546 159.702,861.922 159.31,861.43 C158.888,860.926 158.202,860.639 157.253,860.568 L155.741,860.454 C155.296,860.407 154.985,860.299 154.81,860.129 C154.616,859.977 154.525,859.798 154.537,859.593 C154.537,859.271 154.657,859.007 154.897,858.802 C155.126,858.597 155.527,858.494 156.102,858.494 C156.605,858.494 157.051,858.567 157.438,858.714 C157.83,858.878 158.202,859.086 158.554,859.338 L159.688,858.011 C159.242,857.624 158.738,857.316 158.176,857.088 C157.883,856.982 157.569,856.9 157.235,856.842 C156.901,856.789 156.523,856.763 156.102,856.763 C155.129,856.763 154.326,856.997 153.693,857.466 C153.043,857.935 152.712,858.638 152.7,859.575 C152.712,860.354 152.964,860.961 153.456,861.395 C153.937,861.84 154.561,862.098 155.328,862.168 L156.945,862.309 C157.285,862.32 157.558,862.394 157.763,862.528 C157.962,862.657 158.062,862.886 158.062,863.214 C158.062,863.583 157.895,863.87 157.561,864.075 C157.227,864.28 156.796,864.383 156.269,864.383 C155.091,864.383 154.13,863.993 153.386,863.214 Z M161.867,856.877 L160.953,856.877 L160.953,858.274 L161.867,858.274 L161.867,863.75 C161.867,864.471 162.078,865.021 162.5,865.402 C162.91,865.801 163.438,866 164.082,866 L165.04,866 L165.04,864.269 L164.354,864.269 C163.909,864.28 163.692,864.055 163.704,863.592 L163.704,858.274 L165.04,858.274 L165.04,856.877 L163.704,856.877 L163.704,854.1 L161.867,854.1 L161.867,856.877 Z M173.847,862.133 L173.847,860.621 C173.835,859.42 173.463,858.477 172.73,857.791 C172.01,857.117 171.128,856.774 170.085,856.763 C169.651,856.763 169.212,856.842 168.767,857 C168.315,857.158 167.908,857.416 167.545,857.773 C167.188,858.125 166.895,858.605 166.666,859.215 C166.438,859.812 166.323,860.562 166.323,861.465 C166.323,862.402 166.455,863.164 166.719,863.75 C166.959,864.359 167.272,864.834 167.659,865.174 C167.858,865.338 168.072,865.476 168.301,865.587 C168.518,865.716 168.74,865.818 168.969,865.895 C169.426,866.035 169.895,866.105 170.375,866.105 C171.635,866.117 172.73,865.625 173.662,864.629 L172.335,863.495 C171.749,864.087 171.084,864.383 170.34,864.383 C169.701,864.383 169.186,864.189 168.793,863.803 C168.371,863.422 168.16,862.865 168.16,862.133 L173.847,862.133 Z M168.16,860.621 C168.195,859.912 168.386,859.376 168.731,859.013 C169.083,858.667 169.534,858.494 170.085,858.494 C170.636,858.494 171.087,858.667 171.438,859.013 C171.796,859.376 171.986,859.912 172.01,860.621 L168.16,860.621 Z M175.877,866 L177.714,866 L177.714,860.568 C177.714,859.93 177.89,859.443 178.241,859.109 C178.575,858.77 179.006,858.6 179.533,858.6 C180.061,858.6 180.494,858.77 180.834,859.109 C181.168,859.443 181.335,859.93 181.335,860.568 L181.335,866 L183.172,866 L183.172,860.568 C183.172,859.93 183.345,859.443 183.69,859.109 C184.03,858.77 184.464,858.6 184.991,858.6 C185.519,858.6 185.949,858.77 186.283,859.109 C186.617,859.443 186.784,859.93 186.784,860.568 L186.784,866 L188.621,866 L188.621,859.936 C188.598,858.893 188.275,858.102 187.654,857.562 C187.027,857.029 186.336,856.763 185.58,856.763 C184.379,856.751 183.421,857.149 182.706,857.958 C182.39,857.606 182.041,857.316 181.66,857.088 C181.273,856.883 180.764,856.774 180.131,856.763 C179.146,856.763 178.353,857.123 177.749,857.844 L177.714,857.844 L177.714,856.877 L175.877,856.877 L175.877,866 Z" id="Shape" fill="#B7B7B7" fill-rule="nonzero"></path>
            <path d="M129.939,313.061 C130.525,313.646 131.475,313.646 132.061,313.061 L141.607,303.515 C142.192,302.929 142.192,301.979 141.607,301.393 C141.021,300.808 140.071,300.808 139.485,301.393 L131,309.879 L122.515,301.393 C121.929,300.808 120.979,300.808 120.393,301.393 C119.808,301.979 119.808,302.929 120.393,303.515 L129.939,313.061 Z M129.5,282 L129.5,312 L132.5,312 L132.5,282 L129.5,282 Z" id="Shape" fill="#F2F2F2" fill-rule="nonzero"></path>
            <path d="M129.939,654.061 C130.525,654.646 131.475,654.646 132.061,654.061 L141.607,644.515 C142.192,643.929 142.192,642.979 141.607,642.393 C141.021,641.808 140.071,641.808 139.485,642.393 L131,650.879 L122.515,642.393 C121.929,641.808 120.979,641.808 120.393,642.393 C119.808,642.979 119.808,643.929 120.393,644.515 L129.939,654.061 Z M129.5,623 L129.5,653 L132.5,653 L132.5,623 L129.5,623 Z" id="Shape" fill="#F2F2F2" fill-rule="nonzero"></path>
        </g>
    </g>
</svg>