<?xml version="1.0" encoding="UTF-8"?>
<svg width="982px" height="287px" viewBox="0 0 982 287" version="1.1" xmlns="http://www.w3.org/2000/svg" xmlns:xlink="http://www.w3.org/1999/xlink">
    <title>process-overview</title>
    <defs>
        <linearGradient x1="8.04927557%" y1="22.3831376%" x2="92.2509974%" y2="78.0958692%" id="linearGradient-1">
            <stop stop-color="#FFFFFF" offset="0%"></stop>
            <stop stop-color="#FFFFFF" stop-opacity="0" offset="40.1042%"></stop>
            <stop stop-color="#FFFFFF" offset="100%"></stop>
        </linearGradient>
        <linearGradient x1="5.55400014%" y1="75.4575226%" x2="97.8543431%" y2="32.2505191%" id="linearGradient-2">
            <stop stop-color="#FFFFFF" offset="0%"></stop>
            <stop stop-color="#FFFFFF" stop-opacity="0" offset="50.5208%"></stop>
            <stop stop-color="#FFFFFF" offset="100%"></stop>
        </linearGradient>
        <linearGradient x1="82.8515434%" y1="7.46686179%" x2="10.6302933%" y2="89.1800554%" id="linearGradient-3">
            <stop stop-color="#FFFFFF" offset="0%"></stop>
            <stop stop-color="#FFFFFF" stop-opacity="0" offset="50%"></stop>
            <stop stop-color="#FFFFFF" offset="100%"></stop>
        </linearGradient>
    </defs>
    <g id="Page-1" stroke="none" stroke-width="1" fill="none" fill-rule="evenodd">
        <g id="Artboard" transform="translate(1.000000, -227.000000)">
            <g id="process-overview" transform="translate(0.000000, 228.000000)">
                <ellipse id="Oval" stroke="url(#linearGradient-1)" stroke-width="2" cx="142.87" cy="142.225" rx="142.87" ry="142"></ellipse>
                <path d="M66.276,131.209 C68.976,130.489 71.568,129.697 74.088,128.833 L74.088,138.121 L76.644,138.121 L76.644,105.505 L74.088,105.505 L74.088,126.313 C72.36,126.997 70.596,127.609 68.796,128.149 L68.796,108.565 L66.276,108.565 L66.276,128.113 C66.276,128.509 65.988,128.797 65.484,129.013 L66.276,131.209 Z M83.952,113.353 L91.26,113.353 C91.044,118.321 89.892,122.641 87.732,126.349 C86.112,123.865 84.78,121.165 83.772,118.285 L81.648,119.473 C82.764,122.785 84.276,125.845 86.184,128.689 C83.952,131.605 80.964,134.017 77.184,135.889 L78.66,138.229 C82.332,136.249 85.392,133.765 87.768,130.813 C89.964,133.657 92.628,136.213 95.76,138.517 L97.488,136.465 C94.32,134.161 91.584,131.569 89.352,128.617 C92.016,124.369 93.492,119.293 93.744,113.353 L96.732,113.353 L96.732,110.797 L84.816,110.797 C85.284,109.213 85.68,107.485 86.04,105.649 L83.448,105.217 C82.44,111.193 80.46,115.981 77.58,119.545 L79.2,121.525 C81.108,119.329 82.692,116.593 83.952,113.353 Z M101.484,127.249 L101.484,129.589 L115.812,129.589 L115.812,138.373 L118.404,138.373 L118.404,129.589 L132.516,129.589 L132.516,127.249 L118.404,127.249 L118.404,125.377 L115.812,125.377 L115.812,127.249 L101.484,127.249 Z M123.516,130.885 L121.86,132.505 C125.568,134.449 128.484,136.321 130.572,138.085 L132.444,136.249 C130.032,134.449 127.044,132.685 123.516,130.885 Z M110.592,131.065 C108.144,132.937 105.084,134.557 101.484,135.961 L103.068,138.049 C106.74,136.465 109.836,134.665 112.356,132.613 L110.592,131.065 Z M105.012,114.253 L105.012,124.405 L131.472,124.405 L131.472,122.209 L119.34,122.209 L119.34,119.653 L129.456,119.653 L129.456,117.637 L119.34,117.637 L119.34,115.261 L129.456,115.261 L129.456,113.245 L119.34,113.245 L119.34,110.797 L130.788,110.797 L130.788,108.637 L119.16,108.637 C118.692,107.341 118.188,106.189 117.684,105.109 L115.056,105.577 C115.632,106.513 116.136,107.521 116.604,108.637 L108.864,108.637 C109.296,107.701 109.728,106.765 110.088,105.829 L107.676,105.217 C106.092,109.105 103.716,112.489 100.512,115.369 L101.952,117.385 C103.068,116.377 104.076,115.333 105.012,114.253 Z M116.784,122.209 L107.424,122.209 L107.424,119.653 L116.784,119.653 L116.784,122.209 Z M116.784,117.637 L107.424,117.637 L107.424,115.261 L116.784,115.261 L116.784,117.637 Z M116.784,113.245 L107.424,113.245 L107.424,111.085 L107.604,110.797 L116.784,110.797 L116.784,113.245 Z M139.068,107.773 L139.068,109.897 L151.776,109.897 L151.776,112.345 L140.58,112.345 L140.58,114.397 L151.776,114.397 L151.776,116.845 L137.52,116.845 L137.52,119.041 L149.184,119.041 C146.952,120.733 144.972,121.885 143.316,122.461 C142.848,122.677 142.344,122.785 141.84,122.857 L142.308,124.765 C145.692,124.621 148.896,124.513 151.92,124.405 C148.392,126.025 144.828,127.321 141.228,128.257 L139.824,128.113 L140.328,130.273 L143.352,130.165 C145.368,130.165 148.248,130.057 151.956,129.877 L151.956,134.917 C151.956,135.781 151.56,136.213 150.804,136.213 C149.796,136.213 148.788,136.141 147.708,136.069 L148.212,138.373 L151.632,138.373 C153.504,138.373 154.476,137.401 154.476,135.493 L154.476,129.733 C157.068,129.589 160.092,129.373 163.512,129.121 C164.232,129.949 164.916,130.777 165.564,131.641 L167.4,130.381 C165.96,128.473 163.836,126.241 161.064,123.685 L159.3,124.801 C160.236,125.665 161.1,126.529 161.928,127.393 C155.736,127.897 150.48,128.221 146.16,128.365 C151.416,126.709 156.672,124.405 161.892,121.381 L159.876,120.085 C158.4,120.985 156.888,121.849 155.376,122.677 C152.208,122.821 149.004,122.929 145.8,123.037 C147.96,122.029 150.084,120.697 152.208,119.041 L168.516,119.041 L168.516,116.845 L154.368,116.845 L154.368,114.397 L165.42,114.397 L165.42,112.345 L154.368,112.345 L154.368,109.897 L166.932,109.897 L166.932,107.773 L154.368,107.773 L154.368,105.253 L151.776,105.253 L151.776,107.773 L139.068,107.773 Z M147.168,131.137 C144.54,133.009 141.192,134.485 137.124,135.637 L138.168,137.797 C142.344,136.465 145.836,134.809 148.644,132.793 L147.168,131.137 Z M158.508,131.029 L157.248,132.865 C160.776,134.089 164.196,135.781 167.544,137.905 L168.84,135.925 C165.708,134.017 162.252,132.397 158.508,131.029 Z M197.064,114.937 C194.616,121.669 190.584,127.177 185.04,131.425 L186.408,133.765 C191.736,129.337 195.696,123.757 198.216,117.025 L198.216,133.945 C198.216,134.989 197.712,135.529 196.776,135.529 C195.624,135.529 194.4,135.457 193.14,135.385 L193.716,137.905 L197.64,137.905 C199.728,137.905 200.808,136.789 200.808,134.593 L200.808,114.937 L204.948,114.937 L204.948,112.453 L200.808,112.453 L200.808,105.325 L198.216,105.325 L198.216,112.453 L187.884,112.453 L187.884,114.937 L197.064,114.937 Z M173.088,112.381 L173.088,114.865 L178.776,114.865 C177.48,119.401 175.356,123.433 172.368,126.961 L173.52,129.877 C175.752,126.745 177.552,123.217 178.884,119.329 L178.884,138.193 L181.476,138.193 L181.476,119.689 C182.628,121.057 183.996,122.857 185.58,125.089 L187.092,122.857 C185.184,120.661 183.312,118.717 181.476,116.989 L181.476,114.865 L186.264,114.865 L186.264,112.381 L181.476,112.381 L181.476,105.361 L178.884,105.361 L178.884,112.381 L173.088,112.381 Z" id="Shape" fill="#F8F8F8" fill-rule="nonzero"></path>
                <path d="M74.0505,178.315 C73.4516,179.61 72.5466,180.258 71.3357,180.258 C70.8279,180.258 70.3917,180.151 70.0271,179.936 C69.656,179.753 69.3565,179.516 69.1287,179.223 C68.8487,178.917 68.6632,178.517 68.572,178.022 C68.4679,177.527 68.4158,176.58 68.4158,175.18 C68.4158,173.78 68.4679,172.826 68.572,172.319 C68.6632,171.837 68.8487,171.443 69.1287,171.137 C69.3565,170.844 69.656,170.6 70.0271,170.405 C70.3917,170.216 70.8279,170.115 71.3357,170.102 C72.0258,170.115 72.6117,170.313 73.0935,170.698 C73.5557,171.101 73.8748,171.589 74.0505,172.162 L76.3357,172.162 C76.1078,170.971 75.561,169.972 74.6951,169.164 C73.8292,168.364 72.7094,167.957 71.3357,167.944 C70.2159,167.957 69.2817,168.224 68.533,168.744 C67.7712,169.259 67.2179,169.845 66.8728,170.502 C66.658,170.847 66.4985,171.3 66.3943,171.86 C66.2966,172.42 66.2478,173.526 66.2478,175.18 C66.2478,176.808 66.2966,177.908 66.3943,178.481 C66.4464,178.787 66.5115,179.041 66.5896,179.242 C66.6742,179.438 66.7686,179.643 66.8728,179.858 C67.2179,180.515 67.7712,181.095 68.533,181.596 C69.2817,182.117 70.2159,182.39 71.3357,182.416 C72.5727,182.416 73.6436,182.065 74.5486,181.362 C75.4275,180.652 76.0232,179.636 76.3357,178.315 L74.0505,178.315 Z M77.1853,177.221 C77.1853,178.289 77.2732,179.102 77.449,179.662 C77.6313,180.222 77.9112,180.707 78.2888,181.117 C78.5688,181.436 78.9594,181.723 79.4607,181.977 C79.9555,182.257 80.5903,182.403 81.365,182.416 C82.1658,182.403 82.8136,182.257 83.3083,181.977 C83.5753,181.86 83.7934,181.72 83.9626,181.557 C84.1514,181.414 84.311,181.267 84.4412,181.117 C84.8448,180.707 85.1313,180.222 85.3005,179.662 C85.4633,179.102 85.5447,178.289 85.5447,177.221 C85.5447,176.153 85.4633,175.333 85.3005,174.76 C85.1313,174.2 84.8448,173.728 84.4412,173.344 C84.1742,173.005 83.7966,172.703 83.3083,172.436 C82.8136,172.182 82.1658,172.048 81.365,172.035 C80.5903,172.048 79.9555,172.182 79.4607,172.436 C78.9594,172.703 78.5688,173.005 78.2888,173.344 C77.9112,173.728 77.6313,174.2 77.449,174.76 C77.2732,175.333 77.1853,176.153 77.1853,177.221 Z M83.5037,177.24 C83.5037,177.931 83.4711,178.438 83.406,178.764 C83.3409,179.096 83.2074,179.389 83.0056,179.643 C82.8559,179.838 82.6345,180.011 82.3416,180.16 C82.0616,180.304 81.7361,180.375 81.365,180.375 C81.0199,180.375 80.7009,180.304 80.408,180.16 C80.128,180.011 79.9001,179.838 79.7244,179.643 C79.5486,179.389 79.4216,179.096 79.3435,178.764 C79.2654,178.438 79.2263,177.924 79.2263,177.221 C79.2263,176.511 79.2654,175.99 79.3435,175.658 C79.4216,175.339 79.5486,175.059 79.7244,174.819 C79.9001,174.591 80.128,174.412 80.408,174.281 C80.7009,174.145 81.0199,174.076 81.365,174.076 C81.7361,174.076 82.0616,174.145 82.3416,174.281 C82.6345,174.412 82.8559,174.591 83.0056,174.819 C83.2074,175.059 83.3409,175.339 83.406,175.658 C83.4711,175.99 83.5037,176.518 83.5037,177.24 Z M87.6833,179.838 C87.6833,180.73 87.9373,181.365 88.4451,181.742 C88.9268,182.114 89.5388,182.299 90.281,182.299 L91.1892,182.299 L91.1892,180.375 L90.4861,180.375 C89.9783,180.375 89.7244,180.144 89.7244,179.682 L89.7244,168.061 L87.6833,168.061 L87.6833,179.838 Z M92.8396,179.838 C92.8396,180.73 93.0935,181.365 93.6013,181.742 C94.0831,182.114 94.6951,182.299 95.4373,182.299 L96.3455,182.299 L96.3455,180.375 L95.6423,180.375 C95.1345,180.375 94.8806,180.144 94.8806,179.682 L94.8806,168.061 L92.8396,168.061 L92.8396,179.838 Z M105.857,178.002 L105.857,176.323 C105.844,174.988 105.431,173.94 104.617,173.178 C103.816,172.429 102.836,172.048 101.677,172.035 C101.196,172.035 100.707,172.123 100.213,172.299 C99.7113,172.475 99.2589,172.761 98.8552,173.158 C98.4581,173.549 98.1326,174.083 97.8787,174.76 C97.6248,175.424 97.4978,176.257 97.4978,177.26 C97.4978,178.302 97.6443,179.148 97.9373,179.799 C98.2042,180.476 98.5525,181.003 98.9822,181.381 C99.2035,181.563 99.4412,181.716 99.6951,181.84 C99.936,181.983 100.183,182.097 100.437,182.182 C100.945,182.338 101.466,182.416 102,182.416 C103.399,182.429 104.617,181.882 105.652,180.776 L104.177,179.516 C103.526,180.173 102.788,180.502 101.961,180.502 C101.251,180.502 100.678,180.287 100.242,179.858 C99.7732,179.434 99.5388,178.816 99.5388,178.002 L105.857,178.002 Z M99.5388,176.323 C99.5779,175.535 99.7895,174.939 100.174,174.535 C100.564,174.151 101.066,173.959 101.677,173.959 C102.289,173.959 102.791,174.151 103.181,174.535 C103.579,174.939 103.79,175.535 103.816,176.323 L99.5388,176.323 Z M113.953,179.321 C113.439,180.011 112.752,180.362 111.892,180.375 C110.161,180.408 109.282,179.363 109.256,177.24 C109.282,175.105 110.161,174.05 111.892,174.076 C112.752,174.102 113.439,174.457 113.953,175.141 L115.457,173.803 C115.014,173.269 114.493,172.843 113.894,172.524 C113.295,172.211 112.602,172.048 111.814,172.035 C110.616,172.022 109.565,172.423 108.66,173.237 C107.722,174.063 107.241,175.398 107.215,177.24 C107.241,179.063 107.722,180.382 108.66,181.196 C109.565,182.009 110.616,182.416 111.814,182.416 C112.602,182.403 113.295,182.231 113.894,181.899 C114.493,181.58 115.014,181.166 115.457,180.658 L113.953,179.321 Z M117,172.162 L115.984,172.162 L115.984,173.715 L117,173.715 L117,179.799 C117,180.6 117.234,181.212 117.703,181.635 C118.159,182.078 118.745,182.299 119.461,182.299 L120.525,182.299 L120.525,180.375 L119.763,180.375 C119.269,180.388 119.028,180.138 119.041,179.623 L119.041,173.715 L120.525,173.715 L120.525,172.162 L119.041,172.162 L119.041,169.076 L117,169.076 L117,172.162 Z" id="Shape" fill="#B7B7B7" fill-rule="nonzero"></path>
                <ellipse id="Oval" stroke="url(#linearGradient-2)" stroke-width="2" cx="490" cy="142.225" rx="142.87" ry="142"></ellipse>
                <path d="M411.728,114.901 L411.728,117.421 L415.868,117.421 L415.868,130.273 C414.428,130.705 412.952,131.065 411.44,131.389 L412.088,133.873 C415.688,132.937 419.072,131.749 422.204,130.381 L422.204,127.861 C420.944,128.437 419.648,128.941 418.352,129.445 L418.352,117.421 L422.276,117.421 L422.276,114.901 L418.352,114.901 L418.352,105.397 L415.868,105.397 L415.868,114.901 L411.728,114.901 Z M425.192,106.621 L425.192,117.385 L441.752,117.385 L441.752,106.621 L425.192,106.621 Z M439.34,115.369 L427.568,115.369 L427.568,112.993 L439.34,112.993 L439.34,115.369 Z M427.568,111.085 L427.568,108.709 L439.34,108.709 L439.34,111.085 L427.568,111.085 Z M422.924,119.509 L422.924,121.777 L428.144,121.777 C426.92,123.685 425.012,125.341 422.384,126.745 L423.824,128.689 C425.12,127.897 426.272,127.069 427.28,126.133 L430.88,126.133 C429.224,128.509 426.488,130.417 422.672,131.929 L424.184,133.729 C428.432,131.893 431.456,129.373 433.328,126.133 L436.424,126.133 C434.192,131.029 430.484,134.305 425.3,136.033 L426.704,138.121 C432.284,136.177 436.28,132.181 438.728,126.133 L440.744,126.133 C440.564,130.201 440.24,132.865 439.808,134.089 C439.34,135.313 438.368,135.925 436.892,135.925 C436.208,135.925 435.488,135.889 434.732,135.817 L435.38,138.157 L438.08,138.157 C439.52,138.085 440.564,137.653 441.212,136.861 C441.86,135.997 442.328,134.521 442.616,132.397 C442.904,130.237 443.084,127.465 443.156,124.009 L429.224,124.009 C429.764,123.289 430.232,122.569 430.664,121.777 L444.416,121.777 L444.416,119.509 L422.924,119.509 Z M452.768,122.821 L452.768,130.093 L463.136,130.093 L463.136,134.593 C463.136,135.493 462.776,135.961 462.056,135.961 C460.796,135.961 459.464,135.889 458.096,135.781 L458.636,138.193 L462.92,138.193 C464.756,138.193 465.692,137.185 465.692,135.205 L465.692,130.093 L475.52,130.093 L475.52,122.821 L452.768,122.821 Z M473,128.041 L455.288,128.041 L455.288,124.873 L473,124.873 L473,128.041 Z M452.156,106.369 L452.156,116.629 L461.768,116.629 C462.164,117.277 462.56,117.961 462.92,118.717 L448.16,118.717 L448.16,120.877 L479.84,120.877 L479.84,118.717 L465.62,118.717 C465.332,117.997 465.044,117.277 464.72,116.629 L475.88,116.629 L475.88,106.369 L452.156,106.369 Z M473.36,114.577 L454.676,114.577 L454.676,112.417 L473.36,112.417 L473.36,114.577 Z M454.676,110.509 L454.676,108.421 L473.36,108.421 L473.36,110.509 L454.676,110.509 Z M470.3,131.389 L469.22,133.441 C472.748,134.521 476.132,135.997 479.408,137.905 L480.308,135.529 C477.104,133.729 473.756,132.325 470.3,131.389 Z M456.692,131.209 C454.604,133.009 451.616,134.521 447.692,135.781 L449.132,137.905 C452.876,136.609 455.936,134.917 458.312,132.865 L456.692,131.209 Z M484.628,113.857 L484.628,127.645 L489.128,127.645 L489.128,130.669 L483.944,130.669 L483.944,132.865 L489.128,132.865 L489.128,138.229 L491.504,138.229 L491.504,132.865 L496.544,132.865 L496.544,130.669 L491.504,130.669 L491.504,127.645 L495.86,127.645 L495.86,113.857 L491.504,113.857 L491.504,110.833 L496.328,110.833 L496.328,108.673 L491.504,108.673 L491.504,105.397 L489.128,105.397 L489.128,108.673 L484.16,108.673 L484.16,110.833 L489.128,110.833 L489.128,113.857 L484.628,113.857 Z M493.916,125.701 L491.252,125.701 L491.252,121.705 L493.916,121.705 L493.916,125.701 Z M489.344,125.701 L486.68,125.701 L486.68,121.705 L489.344,121.705 L489.344,125.701 Z M486.68,119.761 L486.68,115.801 L489.344,115.801 L489.344,119.761 L486.68,119.761 Z M491.252,115.801 L493.916,115.801 L493.916,119.761 L491.252,119.761 L491.252,115.801 Z M497.588,107.233 L497.588,109.321 L505.256,109.321 L505.256,111.337 L498.416,111.337 L498.416,121.705 L505.292,121.705 L505.292,124.117 C502.952,124.189 500.396,124.261 497.624,124.333 L497.912,126.349 C502.484,126.205 506.372,126.061 509.612,125.845 L509.612,128.545 L497.696,128.545 L497.696,130.741 L509.612,130.741 L509.612,135.025 C509.612,135.745 509.252,136.141 508.604,136.141 C507.596,136.141 506.516,136.069 505.4,135.997 L505.904,138.301 L509.468,138.301 C511.16,138.301 512.024,137.401 512.024,135.601 L512.024,130.741 L516.236,130.741 L516.236,128.545 L512.024,128.545 L512.024,125.665 C512.6,125.629 513.14,125.593 513.716,125.521 C514.076,126.097 514.436,126.709 514.76,127.285 L516.38,126.133 C515.624,124.837 514.616,123.361 513.356,121.705 L514.508,121.705 L514.508,111.337 L507.668,111.337 L507.668,109.321 L515.444,109.321 L515.444,107.233 L507.668,107.233 L507.668,105.217 L505.256,105.217 L505.256,107.233 L497.588,107.233 Z M512.564,123.757 C511.088,123.829 509.432,123.937 507.632,124.009 L507.632,121.705 L511.088,121.705 C511.592,122.353 512.096,123.037 512.564,123.757 Z M512.312,119.977 L507.56,119.977 L507.56,117.385 L512.312,117.385 L512.312,119.977 Z M505.4,119.977 L500.612,119.977 L500.612,117.385 L505.4,117.385 L505.4,119.977 Z M500.612,115.621 L500.612,113.065 L505.4,113.065 L505.4,115.621 L500.612,115.621 Z M507.56,113.065 L512.312,113.065 L512.312,115.621 L507.56,115.621 L507.56,113.065 Z M499.892,131.101 L498.704,132.793 C500.36,133.621 501.98,134.773 503.564,136.249 L504.824,134.305 C503.312,133.045 501.692,131.965 499.892,131.101 Z M523.94,137.941 C525.776,137.941 526.712,136.933 526.712,134.917 L526.712,124.225 C527.9,123.685 529.088,123.109 530.276,122.497 L530.276,119.977 C529.124,120.625 527.936,121.201 526.712,121.741 L526.712,114.433 L529.844,114.433 L529.844,111.949 L526.712,111.949 L526.712,105.361 L524.192,105.361 L524.192,111.949 L520.124,111.949 L520.124,114.433 L524.192,114.433 L524.192,122.749 C522.68,123.325 521.132,123.793 519.584,124.189 L520.196,126.637 C521.528,126.205 522.86,125.773 524.192,125.269 L524.192,134.269 C524.192,135.133 523.796,135.565 523.04,135.565 C522.176,135.565 521.24,135.493 520.304,135.421 L520.844,137.941 L523.94,137.941 Z M550.22,113.461 L543.812,113.461 C544.928,112.345 546.044,110.977 547.16,109.357 L547.16,107.557 L538.844,107.557 C539.168,106.981 539.492,106.369 539.852,105.721 L537.512,105.217 C535.568,108.853 533.048,111.769 529.988,114.001 L531.536,115.873 C532.04,115.477 532.508,115.081 533.012,114.649 L533.012,126.961 L530.528,126.961 L530.528,129.265 L539.384,129.265 C538.916,130.237 538.34,131.101 537.62,131.893 C535.964,133.621 533.264,134.953 529.52,135.889 L530.492,138.121 C534.812,136.969 537.8,135.385 539.528,133.405 C540.536,132.217 541.364,130.849 541.94,129.265 L552.524,129.265 L552.524,126.961 L550.22,126.961 L550.22,113.461 Z M540.824,113.461 L534.272,113.461 C535.424,112.309 536.468,111.085 537.44,109.717 L544.172,109.717 C543.092,111.121 541.976,112.381 540.824,113.461 Z M535.316,126.961 L535.316,115.585 L547.88,115.585 L547.88,126.961 L542.624,126.961 C542.768,126.205 542.912,125.413 542.984,124.585 L540.68,124.333 C540.572,125.233 540.428,126.097 540.212,126.961 L535.316,126.961 Z M541.436,120.769 C543.02,121.849 544.352,123.001 545.468,124.225 L546.764,122.713 C545.504,121.417 543.992,120.229 542.228,119.149 C542.516,118.429 542.804,117.637 543.056,116.773 L541.112,116.485 C540.464,119.293 538.916,121.453 536.54,123.001 L537.8,124.621 C539.24,123.685 540.464,122.389 541.436,120.769 Z M543.488,130.669 L542.264,132.505 C545.36,133.945 548.384,135.889 551.336,138.337 L552.668,136.285 C549.896,134.089 546.836,132.217 543.488,130.669 Z" id="Shape" fill="#F8F8F8" fill-rule="nonzero"></path>
                <path d="M416.148,182.299 L418.316,182.299 L418.316,169.985 L422.213,169.985 L422.213,168.061 L412.252,168.061 L412.252,169.985 L416.148,169.985 L416.148,182.299 Z M421.715,182.299 L423.756,182.299 L423.756,176.196 C423.769,175.453 423.984,174.916 424.4,174.584 C424.771,174.246 425.217,174.076 425.738,174.076 C426.201,174.076 426.646,174.246 427.076,174.584 L428.561,172.817 C427.955,172.309 427.245,172.048 426.432,172.035 C425.344,172.035 424.465,172.436 423.795,173.237 L423.756,173.237 L423.756,172.162 L421.715,172.162 L421.715,182.299 Z M434.459,182.299 L436.5,182.299 L436.5,175.375 C436.487,174.138 436.1,173.266 435.338,172.758 C434.576,172.263 433.557,172.022 432.281,172.035 C430.771,172.009 429.628,172.504 428.854,173.52 L430.455,174.74 C430.631,174.448 430.872,174.239 431.178,174.115 C431.471,174.011 431.871,173.959 432.379,173.959 C433.779,173.933 434.472,174.366 434.459,175.258 L434.459,176.323 L431.637,176.323 C430.556,176.336 429.736,176.628 429.176,177.201 C428.616,177.761 428.336,178.468 428.336,179.321 C428.336,180.212 428.658,180.945 429.303,181.518 C429.915,182.104 430.787,182.403 431.92,182.416 C432.61,182.416 433.15,182.332 433.541,182.162 C433.938,182 434.231,181.746 434.42,181.401 L434.459,181.401 L434.459,182.299 Z M434.459,178.735 C434.459,179.496 434.299,179.985 433.98,180.199 C433.629,180.414 433.027,180.515 432.174,180.502 C431.497,180.502 431.012,180.369 430.719,180.102 C430.413,179.861 430.26,179.568 430.26,179.223 C430.247,178.435 430.833,178.028 432.018,178.002 L434.459,178.002 L434.459,178.735 Z M439.137,182.299 L441.178,182.299 L441.178,176.264 C441.178,175.554 441.37,175.014 441.754,174.643 C442.132,174.265 442.613,174.076 443.199,174.076 C443.785,174.076 444.264,174.265 444.635,174.643 C445.012,175.014 445.201,175.554 445.201,176.264 L445.201,182.299 L447.242,182.299 L447.242,175.561 C447.21,174.402 446.848,173.523 446.158,172.924 C445.462,172.332 444.693,172.035 443.854,172.035 C442.766,172.035 441.887,172.436 441.217,173.237 L441.178,173.237 L441.178,172.162 L439.137,172.162 L439.137,182.299 Z M450.182,179.203 L448.756,180.6 C450.077,181.811 451.565,182.416 453.219,182.416 C454.436,182.403 455.436,182.123 456.217,181.576 C457.005,181.043 457.405,180.284 457.418,179.301 C457.418,178.461 457.2,177.768 456.764,177.221 C456.295,176.661 455.533,176.342 454.479,176.264 L452.799,176.137 C452.304,176.085 451.959,175.964 451.764,175.776 C451.549,175.606 451.448,175.408 451.461,175.18 C451.461,174.822 451.594,174.529 451.861,174.301 C452.115,174.073 452.561,173.959 453.199,173.959 C453.759,173.959 454.254,174.041 454.684,174.203 C455.12,174.386 455.533,174.617 455.924,174.897 L457.184,173.422 C456.689,172.992 456.129,172.651 455.504,172.397 C455.178,172.28 454.83,172.188 454.459,172.123 C454.088,172.065 453.668,172.035 453.199,172.035 C452.118,172.035 451.227,172.296 450.523,172.817 C449.801,173.337 449.433,174.119 449.42,175.16 C449.433,176.026 449.713,176.7 450.26,177.182 C450.794,177.677 451.487,177.963 452.34,178.041 L454.137,178.198 C454.514,178.211 454.817,178.292 455.045,178.442 C455.266,178.585 455.377,178.839 455.377,179.203 C455.377,179.614 455.191,179.933 454.82,180.16 C454.449,180.388 453.971,180.502 453.385,180.502 C452.076,180.502 451.008,180.069 450.182,179.203 Z M459.811,182.299 L461.852,182.299 L461.852,173.715 L463.893,173.715 L463.893,172.162 L461.852,172.162 L461.852,170.824 C461.826,170.245 462.118,169.965 462.73,169.985 L463.893,169.985 L463.893,168.061 L462.574,168.061 C461.786,168.061 461.132,168.272 460.611,168.696 C460.077,169.151 459.811,169.861 459.811,170.824 L459.811,172.162 L458.785,172.162 L458.785,173.715 L459.811,173.715 L459.811,182.299 Z M464.557,177.221 C464.557,178.289 464.645,179.102 464.82,179.662 C465.003,180.222 465.283,180.707 465.66,181.117 C465.94,181.436 466.331,181.723 466.832,181.977 C467.327,182.257 467.962,182.403 468.736,182.416 C469.537,182.403 470.185,182.257 470.68,181.977 C470.947,181.86 471.165,181.72 471.334,181.557 C471.523,181.414 471.682,181.267 471.812,181.117 C472.216,180.707 472.503,180.222 472.672,179.662 C472.835,179.102 472.916,178.289 472.916,177.221 C472.916,176.153 472.835,175.333 472.672,174.76 C472.503,174.2 472.216,173.728 471.812,173.344 C471.546,173.005 471.168,172.703 470.68,172.436 C470.185,172.182 469.537,172.048 468.736,172.035 C467.962,172.048 467.327,172.182 466.832,172.436 C466.331,172.703 465.94,173.005 465.66,173.344 C465.283,173.728 465.003,174.2 464.82,174.76 C464.645,175.333 464.557,176.153 464.557,177.221 Z M470.875,177.24 C470.875,177.931 470.842,178.438 470.777,178.764 C470.712,179.096 470.579,179.389 470.377,179.643 C470.227,179.838 470.006,180.011 469.713,180.16 C469.433,180.304 469.107,180.375 468.736,180.375 C468.391,180.375 468.072,180.304 467.779,180.16 C467.499,180.011 467.271,179.838 467.096,179.643 C466.92,179.389 466.793,179.096 466.715,178.764 C466.637,178.438 466.598,177.924 466.598,177.221 C466.598,176.511 466.637,175.99 466.715,175.658 C466.793,175.339 466.92,175.059 467.096,174.819 C467.271,174.591 467.499,174.412 467.779,174.281 C468.072,174.145 468.391,174.076 468.736,174.076 C469.107,174.076 469.433,174.145 469.713,174.281 C470.006,174.412 470.227,174.591 470.377,174.819 C470.579,175.059 470.712,175.339 470.777,175.658 C470.842,175.99 470.875,176.518 470.875,177.24 Z M475.055,182.299 L477.096,182.299 L477.096,176.196 C477.109,175.453 477.324,174.916 477.74,174.584 C478.111,174.246 478.557,174.076 479.078,174.076 C479.54,174.076 479.986,174.246 480.416,174.584 L481.9,172.817 C481.295,172.309 480.585,172.048 479.771,172.035 C478.684,172.035 477.805,172.436 477.135,173.237 L477.096,173.237 L477.096,172.162 L475.055,172.162 L475.055,182.299 Z M482.965,182.299 L485.006,182.299 L485.006,176.264 C485.006,175.554 485.201,175.014 485.592,174.643 C485.963,174.265 486.441,174.076 487.027,174.076 C487.613,174.076 488.095,174.265 488.473,174.643 C488.844,175.014 489.029,175.554 489.029,176.264 L489.029,182.299 L491.07,182.299 L491.07,176.264 C491.07,175.554 491.262,175.014 491.646,174.643 C492.024,174.265 492.506,174.076 493.092,174.076 C493.678,174.076 494.156,174.265 494.527,174.643 C494.898,175.014 495.084,175.554 495.084,176.264 L495.084,182.299 L497.125,182.299 L497.125,175.561 C497.099,174.402 496.741,173.523 496.051,172.924 C495.354,172.332 494.586,172.035 493.746,172.035 C492.411,172.022 491.347,172.465 490.553,173.364 C490.201,172.973 489.814,172.651 489.391,172.397 C488.961,172.169 488.395,172.048 487.691,172.035 C486.598,172.035 485.715,172.436 485.045,173.237 L485.006,173.237 L485.006,172.162 L482.965,172.162 L482.965,182.299 Z" id="Shape" fill="#B7B7B7" fill-rule="nonzero"></path>
                <ellipse id="Oval" stroke="url(#linearGradient-3)" stroke-width="2" cx="837.13" cy="142.225" rx="142.87" ry="142"></ellipse>
                <path d="M784.308,121.884 L784.308,124.368 L801.66,124.368 L801.66,121.884 L794.352,121.884 C793.848,119.724 793.344,117.816 792.84,116.16 L790.248,116.592 C790.824,118.176 791.328,119.94 791.796,121.884 L784.308,121.884 Z M783.408,145.212 L783.408,147.768 L802.092,147.768 L802.092,145.212 L796.116,145.212 C797.628,140.028 798.888,134.088 799.932,127.392 L797.484,126.78 C796.368,134.124 795.072,140.28 793.56,145.212 L783.408,145.212 Z M788.196,127.176 L785.892,127.932 C786.972,132.936 787.872,138.156 788.628,143.556 L790.932,142.944 C790.14,137.04 789.24,131.784 788.196,127.176 Z M769.98,128.76 L769.98,131.172 L775.488,131.172 L775.488,149.028 L778.008,149.028 L778.008,131.172 L782.976,131.172 L782.976,128.76 L778.008,128.76 L778.008,116.088 L775.488,116.088 L775.488,128.76 L769.98,128.76 Z M781.14,118.392 C780.924,121.272 780.384,123.828 779.52,126.024 L781.572,126.672 C782.472,124.332 783.048,121.668 783.264,118.644 L781.14,118.392 Z M772.068,119.04 L770.052,119.688 C770.772,121.992 771.348,124.404 771.852,126.924 L773.868,126.348 C773.328,123.612 772.716,121.164 772.068,119.04 Z M772.068,134.196 C771.492,137.94 770.808,141.036 770.052,143.484 L771.996,144.168 C772.788,141.468 773.436,138.3 773.94,134.7 L772.068,134.196 Z M781.464,134.052 L779.7,134.628 C780.276,137.292 780.78,140.064 781.176,142.944 L783.192,142.44 C782.688,139.272 782.112,136.5 781.464,134.052 Z M806.268,131.496 L806.268,134.016 L821.424,134.016 L821.424,144.708 C821.424,145.788 820.848,146.364 819.696,146.364 C817.608,146.364 815.7,146.328 813.9,146.256 L814.584,148.776 L820.74,148.776 C822.936,148.776 824.052,147.696 824.052,145.536 L824.052,134.016 L837.732,134.016 L837.732,131.496 L824.052,131.496 L824.052,127.716 C827.724,125.304 830.964,122.748 833.808,120.048 L833.808,117.6 L810.048,117.6 L810.048,120.048 L830.28,120.048 C827.472,122.496 824.52,124.62 821.424,126.384 L821.424,131.496 L806.268,131.496 Z M856.812,148.812 C858.756,148.812 859.728,147.84 859.728,145.896 L859.728,136.716 C863.112,136.5 866.172,136.248 868.908,135.96 C869.664,137.112 870.348,138.264 870.996,139.38 L873.048,137.976 C871.536,135.456 869.412,132.504 866.604,129.12 L864.696,130.308 C865.704,131.532 866.604,132.72 867.468,133.908 C863.04,134.34 857.784,134.736 851.664,135.06 C856.74,133.008 862.644,129.696 869.412,125.16 L866.928,123.972 C865.272,125.088 863.688,126.168 862.104,127.176 L852.204,127.932 C855.588,126.42 858.792,124.476 861.852,122.1 L859.944,120.732 C855.336,124.224 850.728,126.6 846.048,127.824 L846.444,130.02 C850.476,129.84 854.472,129.624 858.504,129.336 C854.148,131.82 850.224,133.62 846.696,134.736 C846.012,134.952 845.256,135.132 844.464,135.204 L845.184,137.472 C849.468,137.328 853.428,137.112 857.1,136.896 L857.1,145.284 C857.1,146.112 856.704,146.544 855.912,146.544 C854.688,146.544 853.428,146.472 852.132,146.364 L852.708,148.812 L856.812,148.812 Z M864.408,138.48 L862.716,140.1 C866.352,143.052 869.232,145.788 871.32,148.38 L873.12,146.58 C870.744,143.88 867.864,141.18 864.408,138.48 Z M851.196,138.84 C848.784,141.648 845.832,144.132 842.34,146.22 L843.888,148.308 C847.488,146.04 850.548,143.412 852.996,140.388 L851.196,138.84 Z M865.416,116.124 C862.824,117.132 859.944,117.96 856.812,118.68 C853.248,119.472 849.252,120.156 844.86,120.66 L846.192,122.784 C851.412,121.956 855.624,121.164 858.792,120.408 C861.78,119.652 864.732,118.68 867.648,117.528 L865.416,116.124 Z M904.332,124.62 L902.424,125.844 C903.324,126.996 904.188,128.148 904.98,129.264 C901.524,129.624 897.996,129.948 894.396,130.2 C895.836,128.328 897.42,125.664 899.22,122.28 L909.552,122.28 L909.552,119.868 L900.444,119.868 C900.912,118.86 901.416,117.816 901.92,116.736 L899.544,115.8 C898.896,117.24 898.284,118.608 897.708,119.868 L890.616,119.868 L890.616,122.28 L896.556,122.28 C894.648,126.096 893.028,128.616 891.732,129.912 C891.444,130.02 891.12,130.092 890.76,130.164 L891.336,132.504 L895.188,132.288 C894.972,136.392 894.432,139.416 893.568,141.396 C892.56,143.592 890.868,145.5 888.492,147.084 L890.076,149.1 C892.74,147.228 894.648,145.032 895.8,142.44 C896.772,140.208 897.384,136.788 897.636,132.108 L901.452,131.784 L901.452,145.752 C901.452,147.552 902.496,148.488 904.656,148.488 L906.708,148.488 C908.292,148.416 909.3,148.02 909.768,147.3 C910.272,146.544 910.524,144.564 910.524,141.36 L908.328,140.532 C908.328,142.548 908.22,143.988 908.04,144.888 C907.896,145.68 907.428,146.076 906.564,146.112 L904.728,146.112 C904.152,146.076 903.9,145.824 903.9,145.32 L903.9,131.532 C904.692,131.46 905.52,131.352 906.348,131.28 C906.96,132.216 907.5,133.152 908.004,134.052 L909.984,132.648 C908.652,130.344 906.78,127.68 904.332,124.62 Z M888.132,130.164 L886.152,130.812 C886.584,131.892 887.016,133.008 887.376,134.196 C885.324,134.772 883.272,135.204 881.184,135.564 C883.416,133.08 886.224,128.76 889.608,122.64 L887.376,121.812 C886.584,123.324 885.792,124.728 885.072,126.06 C883.452,126.348 881.832,126.564 880.212,126.744 C881.94,124.26 883.668,120.948 885.396,116.808 L883.056,115.872 C881.724,119.688 880.176,123.036 878.376,125.988 C878.088,126.42 877.728,126.744 877.332,126.924 L877.98,129.156 C879.888,128.904 881.796,128.652 883.74,128.364 C881.796,131.532 880.176,133.764 878.808,135.132 C878.52,135.42 878.124,135.636 877.692,135.816 L878.34,138.084 C881.4,137.724 884.604,137.04 887.952,136.104 L888.384,137.832 L890.472,137.292 C889.788,134.628 888.996,132.252 888.132,130.164 Z M878.736,139.848 C878.556,142.8 878.16,145.392 877.512,147.696 L879.78,148.38 C880.356,146.004 880.716,143.232 880.86,140.1 L878.736,139.848 Z M884.532,139.416 L882.588,139.812 C882.912,141.972 883.2,144.456 883.416,147.264 L885.648,146.76 C885.324,144.096 884.964,141.648 884.532,139.416 Z M888.42,138.48 L886.548,139.092 C887.124,140.748 887.628,142.656 888.06,144.852 L890.004,143.952 C889.572,142.008 889.032,140.208 888.42,138.48 Z" id="Shape" fill="#F8F8F8" fill-rule="nonzero"></path>
                <path d="M769.98,79.1246 L769.98,81.0746 L772.26,81.0746 L772.26,95.5646 L774.36,95.5646 L774.36,93.9146 L781.08,93.9146 L781.08,81.0746 L783.3,81.0746 L783.3,79.1246 L781.08,79.1246 L781.08,76.1546 L779.01,76.1546 L779.01,79.1246 L774.36,79.1246 L774.36,76.1246 L772.26,76.1246 L772.26,79.1246 L769.98,79.1246 Z M774.36,91.9346 L774.36,87.3446 L779.01,87.3446 L779.01,91.9346 L774.36,91.9346 Z M779.01,85.4546 L774.36,85.4546 L774.36,81.0746 L779.01,81.0746 L779.01,85.4546 Z M781.98,68.4446 L781.98,72.6746 L774.12,72.6746 L774.12,69.4646 L771.96,69.4646 L771.96,74.5946 L793.92,74.5946 L793.92,69.3746 L791.76,69.3746 L791.76,72.6746 L784.14,72.6746 L784.14,68.4446 L781.98,68.4446 Z M785.97,75.4346 C785.49,79.3946 784.38,82.5146 782.64,84.7346 L784.29,85.8746 C785.37,84.5246 786.27,82.7546 786.93,80.5946 L793.26,80.5946 C792.87,82.2746 792.39,83.7746 791.79,85.1246 L793.68,85.6646 C794.37,83.8046 794.94,81.9146 795.42,79.9946 L795.42,78.6746 L787.44,78.6746 C787.65,77.7746 787.83,76.7846 787.98,75.7646 L785.97,75.4346 Z M788.16,82.1246 C788.16,84.8846 787.83,87.1346 787.2,88.9346 C786.36,91.0346 784.65,92.7746 782.07,94.2146 L783.39,95.8346 C786.39,94.1546 788.34,91.9946 789.18,89.4146 L789.24,89.2046 C790.68,91.8446 792.78,94.0646 795.54,95.8646 L796.92,94.2446 C793.59,92.3246 791.22,89.7146 789.84,86.4146 C790.02,85.0946 790.14,83.6846 790.14,82.1246 L788.16,82.1246 Z M812.31,71.6546 C810.39,81.2546 806.04,88.5746 799.26,93.5846 L800.55,95.4146 C806.79,90.7946 810.99,84.2246 813.12,75.7046 C814.89,83.2046 818.97,89.8046 825.33,95.5046 L826.56,93.6446 C819,86.7446 814.8,78.7046 813.96,69.5546 L807.84,69.5546 L807.84,71.6546 L812.31,71.6546 Z" id="Shape" fill="#F8F8F8" fill-rule="nonzero"></path>
                <path d="M771.736,192.991 L780.828,192.991 L780.828,190.95 L773.894,190.95 L773.894,186.77 L779.812,186.77 L779.812,184.856 L773.894,184.856 L773.894,180.794 L780.828,180.794 L780.828,178.753 L771.736,178.753 L771.736,192.991 Z M782.801,192.991 L784.842,192.991 L784.842,186.956 C784.842,186.246 785.037,185.706 785.427,185.335 C785.799,184.957 786.277,184.768 786.863,184.768 C787.449,184.768 787.931,184.957 788.308,185.335 C788.679,185.706 788.865,186.246 788.865,186.956 L788.865,192.991 L790.906,192.991 L790.906,186.956 C790.906,186.246 791.098,185.706 791.482,185.335 C791.86,184.957 792.342,184.768 792.927,184.768 C793.513,184.768 793.992,184.957 794.363,185.335 C794.734,185.706 794.92,186.246 794.92,186.956 L794.92,192.991 L796.961,192.991 L796.961,186.253 C796.935,185.094 796.577,184.215 795.886,183.616 C795.19,183.023 794.422,182.727 793.582,182.727 C792.247,182.714 791.183,183.157 790.388,184.055 C790.037,183.665 789.649,183.342 789.226,183.089 C788.797,182.861 788.23,182.74 787.527,182.727 C786.433,182.727 785.551,183.128 784.881,183.928 L784.842,183.928 L784.842,182.854 L782.801,182.854 L782.801,192.991 Z M799.734,192.991 L801.775,192.991 L801.775,191.926 C802.452,192.688 803.325,193.082 804.392,193.108 C805.024,193.095 805.564,192.968 806.013,192.727 C806.469,192.493 806.837,192.18 807.117,191.79 C807.397,191.471 807.589,191.038 807.693,190.491 C807.791,189.97 807.84,189.111 807.84,187.913 C807.84,186.695 807.791,185.829 807.693,185.315 C807.589,184.794 807.397,184.374 807.117,184.055 C806.544,183.202 805.636,182.76 804.392,182.727 C803.872,182.727 803.406,182.835 802.996,183.049 C802.553,183.277 802.146,183.57 801.775,183.928 L801.775,178.753 L799.734,178.753 L799.734,192.991 Z M803.777,184.768 C804.259,184.768 804.64,184.85 804.92,185.012 C805.2,185.188 805.398,185.429 805.515,185.735 C805.646,186.041 805.733,186.373 805.779,186.731 C805.792,187.115 805.799,187.509 805.799,187.913 C805.799,188.297 805.792,188.671 805.779,189.036 C805.733,189.42 805.646,189.765 805.515,190.071 C805.398,190.364 805.2,190.605 804.92,190.794 C804.64,190.976 804.259,191.067 803.777,191.067 C803.321,191.067 802.96,190.969 802.693,190.774 C802.413,190.585 802.208,190.338 802.078,190.032 C801.954,189.726 801.873,189.384 801.834,189.006 C801.795,188.635 801.775,188.271 801.775,187.913 C801.775,187.522 801.795,187.148 801.834,186.79 C801.873,186.432 801.954,186.1 802.078,185.794 C802.208,185.488 802.413,185.24 802.693,185.051 C802.96,184.863 803.321,184.768 803.777,184.768 Z M817.986,188.694 L817.986,187.014 C817.973,185.68 817.56,184.631 816.746,183.87 C815.945,183.121 814.965,182.74 813.806,182.727 C813.325,182.727 812.836,182.815 812.342,182.991 C811.84,183.167 811.388,183.453 810.984,183.85 C810.587,184.241 810.261,184.775 810.008,185.452 C809.754,186.116 809.627,186.949 809.627,187.952 C809.627,188.993 809.773,189.84 810.066,190.491 C810.333,191.168 810.681,191.695 811.111,192.073 C811.332,192.255 811.57,192.408 811.824,192.532 C812.065,192.675 812.312,192.789 812.566,192.874 C813.074,193.03 813.595,193.108 814.129,193.108 C815.528,193.121 816.746,192.574 817.781,191.467 L816.306,190.208 C815.655,190.865 814.916,191.194 814.09,191.194 C813.38,191.194 812.807,190.979 812.371,190.549 C811.902,190.126 811.668,189.508 811.668,188.694 L817.986,188.694 Z M811.668,187.014 C811.707,186.227 811.918,185.631 812.302,185.227 C812.693,184.843 813.194,184.651 813.806,184.651 C814.418,184.651 814.92,184.843 815.31,185.227 C815.707,185.631 815.919,186.227 815.945,187.014 L811.668,187.014 Z M826.189,191.926 L826.189,192.991 L828.23,192.991 L828.23,178.753 L826.189,178.753 L826.189,183.928 C825.812,183.57 825.418,183.277 825.008,183.049 C824.565,182.835 824.083,182.727 823.562,182.727 C822.325,182.76 821.42,183.202 820.847,184.055 C820.567,184.374 820.382,184.794 820.291,185.315 C820.18,185.829 820.125,186.695 820.125,187.913 C820.125,189.111 820.18,189.97 820.291,190.491 C820.382,191.038 820.567,191.471 820.847,191.79 C821.153,192.18 821.534,192.493 821.99,192.727 C822.426,192.968 822.95,193.095 823.562,193.108 C824.643,193.082 825.519,192.688 826.189,191.926 Z M824.187,184.768 C824.669,184.768 825.05,184.863 825.33,185.051 C825.61,185.24 825.802,185.488 825.906,185.794 C826.036,186.1 826.124,186.432 826.17,186.79 C826.183,187.148 826.189,187.522 826.189,187.913 C826.189,188.271 826.183,188.635 826.17,189.006 C826.124,189.384 826.036,189.726 825.906,190.032 C825.802,190.338 825.61,190.585 825.33,190.774 C825.05,190.969 824.669,191.067 824.187,191.067 C823.705,191.067 823.338,190.976 823.084,190.794 C822.804,190.605 822.599,190.364 822.469,190.071 C822.345,189.765 822.263,189.42 822.224,189.036 C822.185,188.671 822.166,188.297 822.166,187.913 C822.166,187.509 822.185,187.115 822.224,186.731 C822.263,186.373 822.345,186.041 822.469,185.735 C822.599,185.429 822.804,185.188 823.084,185.012 C823.338,184.85 823.705,184.768 824.187,184.768 Z M835.437,182.854 L834.422,182.854 L834.422,184.407 L835.437,184.407 L835.437,190.491 C835.437,191.292 835.672,191.904 836.14,192.327 C836.596,192.769 837.182,192.991 837.898,192.991 L838.963,192.991 L838.963,191.067 L838.201,191.067 C837.706,191.08 837.465,190.829 837.478,190.315 L837.478,184.407 L838.963,184.407 L838.963,182.854 L837.478,182.854 L837.478,179.768 L835.437,179.768 L835.437,182.854 Z M840.388,187.913 C840.388,188.98 840.476,189.794 840.652,190.354 C840.834,190.914 841.114,191.399 841.492,191.809 C841.772,192.128 842.163,192.415 842.664,192.669 C843.159,192.949 843.793,193.095 844.568,193.108 C845.369,193.095 846.017,192.949 846.511,192.669 C846.778,192.551 846.997,192.411 847.166,192.249 C847.355,192.105 847.514,191.959 847.644,191.809 C848.048,191.399 848.334,190.914 848.504,190.354 C848.666,189.794 848.748,188.98 848.748,187.913 C848.748,186.845 848.666,186.025 848.504,185.452 C848.334,184.892 848.048,184.42 847.644,184.036 C847.377,183.697 847,183.394 846.511,183.128 C846.017,182.874 845.369,182.74 844.568,182.727 C843.793,182.74 843.159,182.874 842.664,183.128 C842.163,183.394 841.772,183.697 841.492,184.036 C841.114,184.42 840.834,184.892 840.652,185.452 C840.476,186.025 840.388,186.845 840.388,187.913 Z M846.707,187.932 C846.707,188.622 846.674,189.13 846.609,189.456 C846.544,189.788 846.411,190.081 846.209,190.335 C846.059,190.53 845.838,190.702 845.545,190.852 C845.265,190.995 844.939,191.067 844.568,191.067 C844.223,191.067 843.904,190.995 843.611,190.852 C843.331,190.702 843.103,190.53 842.927,190.335 C842.752,190.081 842.625,189.788 842.547,189.456 C842.469,189.13 842.429,188.616 842.429,187.913 C842.429,187.203 842.469,186.682 842.547,186.35 C842.625,186.031 842.752,185.751 842.927,185.51 C843.103,185.283 843.331,185.103 843.611,184.973 C843.904,184.837 844.223,184.768 844.568,184.768 C844.939,184.768 845.265,184.837 845.545,184.973 C845.838,185.103 846.059,185.283 846.209,185.51 C846.411,185.751 846.544,186.031 846.609,186.35 C846.674,186.682 846.707,187.21 846.707,187.932 Z M773.894,203.794 L777.01,203.794 C777.595,203.781 778.11,203.914 778.552,204.194 C778.845,204.363 779.073,204.594 779.236,204.887 C779.392,205.213 779.47,205.613 779.47,206.089 C779.47,206.661 779.278,207.182 778.894,207.651 C778.491,208.133 777.888,208.38 777.088,208.393 L773.894,208.393 L773.894,203.794 Z M771.736,215.991 L773.894,215.991 L773.894,210.434 L777.176,210.434 C778.64,210.408 779.754,209.939 780.515,209.028 C781.258,208.162 781.629,207.202 781.629,206.147 C781.629,205.366 781.482,204.689 781.189,204.116 C780.909,203.523 780.545,203.068 780.095,202.749 C779.562,202.325 779.034,202.046 778.513,201.909 C777.993,201.805 777.452,201.753 776.892,201.753 L771.736,201.753 L771.736,215.991 Z M788.22,215.991 L790.261,215.991 L790.261,209.067 C790.248,207.83 789.861,206.958 789.099,206.45 C788.338,205.955 787.319,205.714 786.043,205.727 C784.532,205.701 783.39,206.196 782.615,207.212 L784.217,208.432 C784.392,208.139 784.633,207.931 784.939,207.807 C785.232,207.703 785.633,207.651 786.14,207.651 C787.54,207.625 788.233,208.058 788.22,208.95 L788.22,210.014 L785.398,210.014 C784.317,210.027 783.497,210.32 782.937,210.893 C782.377,211.453 782.097,212.159 782.097,213.012 C782.097,213.904 782.42,214.637 783.064,215.21 C783.676,215.796 784.549,216.095 785.681,216.108 C786.372,216.108 786.912,216.023 787.302,215.854 C787.7,215.691 787.993,215.437 788.181,215.092 L788.22,215.092 L788.22,215.991 Z M788.22,212.426 C788.22,213.188 788.061,213.676 787.742,213.891 C787.39,214.106 786.788,214.207 785.935,214.194 C785.258,214.194 784.773,214.061 784.48,213.794 C784.174,213.553 784.021,213.26 784.021,212.915 C784.008,212.127 784.594,211.72 785.779,211.694 L788.22,211.694 L788.22,212.426 Z M792.898,215.991 L794.939,215.991 L794.939,209.887 C794.952,209.145 795.167,208.608 795.584,208.276 C795.955,207.937 796.401,207.768 796.922,207.768 C797.384,207.768 797.83,207.937 798.26,208.276 L799.744,206.508 C799.138,206.001 798.429,205.74 797.615,205.727 C796.528,205.727 795.649,206.128 794.978,206.928 L794.939,206.928 L794.939,205.854 L792.898,205.854 L792.898,215.991 Z M800.808,205.854 L799.793,205.854 L799.793,207.407 L800.808,207.407 L800.808,213.491 C800.808,214.292 801.043,214.904 801.511,215.327 C801.967,215.769 802.553,215.991 803.269,215.991 L804.334,215.991 L804.334,214.067 L803.572,214.067 C803.077,214.08 802.836,213.829 802.849,213.315 L802.849,207.407 L804.334,207.407 L804.334,205.854 L802.849,205.854 L802.849,202.768 L800.808,202.768 L800.808,205.854 Z M806.316,215.991 L808.357,215.991 L808.357,205.854 L806.316,205.854 L806.316,215.991 Z M806.316,203.794 L808.357,203.794 L808.357,201.753 L806.316,201.753 L806.316,203.794 Z M817.019,213.012 C816.505,213.702 815.818,214.054 814.959,214.067 C813.227,214.1 812.348,213.055 812.322,210.932 C812.348,208.797 813.227,207.742 814.959,207.768 C815.818,207.794 816.505,208.149 817.019,208.833 L818.523,207.495 C818.08,206.961 817.56,206.534 816.961,206.215 C816.362,205.903 815.668,205.74 814.881,205.727 C813.683,205.714 812.631,206.115 811.726,206.928 C810.789,207.755 810.307,209.09 810.281,210.932 C810.307,212.755 810.789,214.074 811.726,214.887 C812.631,215.701 813.683,216.108 814.881,216.108 C815.668,216.095 816.362,215.922 816.961,215.59 C817.56,215.271 818.08,214.858 818.523,214.35 L817.019,213.012 Z M819.949,213.53 C819.949,214.422 820.203,215.057 820.711,215.434 C821.192,215.805 821.804,215.991 822.547,215.991 L823.455,215.991 L823.455,214.067 L822.752,214.067 C822.244,214.067 821.99,213.836 821.99,213.374 L821.99,201.753 L819.949,201.753 L819.949,213.53 Z M832.967,211.694 L832.967,210.014 C832.954,208.68 832.54,207.631 831.726,206.87 C830.926,206.121 829.946,205.74 828.787,205.727 C828.305,205.727 827.817,205.815 827.322,205.991 C826.821,206.167 826.368,206.453 825.965,206.85 C825.567,207.241 825.242,207.775 824.988,208.452 C824.734,209.116 824.607,209.949 824.607,210.952 C824.607,211.993 824.754,212.84 825.047,213.491 C825.314,214.168 825.662,214.695 826.092,215.073 C826.313,215.255 826.551,215.408 826.804,215.532 C827.045,215.675 827.293,215.789 827.547,215.874 C828.054,216.03 828.575,216.108 829.109,216.108 C830.509,216.121 831.726,215.574 832.761,214.467 L831.287,213.208 C830.636,213.865 829.897,214.194 829.07,214.194 C828.36,214.194 827.788,213.979 827.351,213.549 C826.883,213.126 826.648,212.508 826.648,211.694 L832.967,211.694 Z M826.648,210.014 C826.687,209.227 826.899,208.631 827.283,208.227 C827.674,207.843 828.175,207.651 828.787,207.651 C829.399,207.651 829.9,207.843 830.291,208.227 C830.688,208.631 830.899,209.227 830.926,210.014 L826.648,210.014 Z M840.271,212.534 L838.855,214.155 C840.372,215.457 842.185,216.108 844.295,216.108 C847.556,216.069 849.223,214.689 849.295,211.967 C849.295,210.958 848.979,210.073 848.347,209.311 C847.709,208.536 846.723,208.058 845.388,207.876 C844.711,207.791 844.177,207.716 843.787,207.651 C843.084,207.521 842.573,207.286 842.254,206.948 C841.935,206.616 841.775,206.245 841.775,205.835 C841.788,205.151 842.026,204.637 842.488,204.292 C842.931,203.96 843.484,203.794 844.148,203.794 C845.431,203.82 846.606,204.184 847.674,204.887 L848.875,203.11 C847.566,202.166 846.026,201.674 844.256,201.635 C842.784,201.648 841.648,202.033 840.847,202.788 C840.021,203.549 839.607,204.552 839.607,205.796 C839.607,206.831 839.936,207.71 840.594,208.432 C841.232,209.135 842.163,209.588 843.386,209.79 C844.07,209.887 844.698,209.975 845.271,210.053 C846.521,210.268 847.14,210.906 847.127,211.967 C847.101,213.263 846.163,213.924 844.314,213.95 C842.752,213.937 841.404,213.465 840.271,212.534 Z M853.572,215.59 L853.015,217.29 C852.924,217.583 852.765,217.804 852.537,217.954 C852.309,218.097 852.062,218.169 851.795,218.169 L851.199,218.169 L851.199,220.092 L851.873,220.092 C852.504,220.092 853.071,219.952 853.572,219.672 C854.067,219.38 854.454,218.852 854.734,218.09 L859.099,205.854 L856.931,205.854 L854.539,212.954 L854.5,212.954 L852.097,205.854 L849.939,205.854 L853.572,215.59 Z M860.584,212.895 L859.158,214.292 C860.48,215.503 861.967,216.108 863.621,216.108 C864.838,216.095 865.838,215.815 866.619,215.268 C867.407,214.734 867.807,213.976 867.82,212.993 C867.82,212.153 867.602,211.46 867.166,210.913 C866.697,210.353 865.935,210.034 864.881,209.956 L863.201,209.829 C862.706,209.777 862.361,209.656 862.166,209.467 C861.951,209.298 861.85,209.1 861.863,208.872 C861.863,208.514 861.997,208.221 862.263,207.993 C862.517,207.765 862.963,207.651 863.601,207.651 C864.161,207.651 864.656,207.732 865.086,207.895 C865.522,208.077 865.935,208.309 866.326,208.589 L867.586,207.114 C867.091,206.684 866.531,206.342 865.906,206.089 C865.58,205.971 865.232,205.88 864.861,205.815 C864.49,205.756 864.07,205.727 863.601,205.727 C862.521,205.727 861.629,205.988 860.926,206.508 C860.203,207.029 859.835,207.811 859.822,208.852 C859.835,209.718 860.115,210.392 860.662,210.874 C861.196,211.368 861.889,211.655 862.742,211.733 L864.539,211.889 C864.916,211.902 865.219,211.984 865.447,212.133 C865.668,212.277 865.779,212.531 865.779,212.895 C865.779,213.305 865.594,213.624 865.222,213.852 C864.851,214.08 864.373,214.194 863.787,214.194 C862.478,214.194 861.411,213.761 860.584,212.895 Z M870.008,205.854 L868.992,205.854 L868.992,207.407 L870.008,207.407 L870.008,213.491 C870.008,214.292 870.242,214.904 870.711,215.327 C871.166,215.769 871.752,215.991 872.469,215.991 L873.533,215.991 L873.533,214.067 L872.771,214.067 C872.276,214.08 872.036,213.829 872.049,213.315 L872.049,207.407 L873.533,207.407 L873.533,205.854 L872.049,205.854 L872.049,202.768 L870.008,202.768 L870.008,205.854 Z M883.318,211.694 L883.318,210.014 C883.305,208.68 882.892,207.631 882.078,206.87 C881.277,206.121 880.297,205.74 879.138,205.727 C878.657,205.727 878.168,205.815 877.674,205.991 C877.172,206.167 876.72,206.453 876.316,206.85 C875.919,207.241 875.594,207.775 875.34,208.452 C875.086,209.116 874.959,209.949 874.959,210.952 C874.959,211.993 875.105,212.84 875.398,213.491 C875.665,214.168 876.013,214.695 876.443,215.073 C876.664,215.255 876.902,215.408 877.156,215.532 C877.397,215.675 877.644,215.789 877.898,215.874 C878.406,216.03 878.927,216.108 879.461,216.108 C880.86,216.121 882.078,215.574 883.113,214.467 L881.638,213.208 C880.987,213.865 880.248,214.194 879.422,214.194 C878.712,214.194 878.139,213.979 877.703,213.549 C877.234,213.126 877,212.508 877,211.694 L883.318,211.694 Z M877,210.014 C877.039,209.227 877.25,208.631 877.635,208.227 C878.025,207.843 878.526,207.651 879.138,207.651 C879.75,207.651 880.252,207.843 880.642,208.227 C881.039,208.631 881.251,209.227 881.277,210.014 L877,210.014 Z M885.574,215.991 L887.615,215.991 L887.615,209.956 C887.615,209.246 887.81,208.706 888.201,208.335 C888.572,207.957 889.051,207.768 889.636,207.768 C890.222,207.768 890.704,207.957 891.082,208.335 C891.453,208.706 891.638,209.246 891.638,209.956 L891.638,215.991 L893.679,215.991 L893.679,209.956 C893.679,209.246 893.872,208.706 894.256,208.335 C894.633,207.957 895.115,207.768 895.701,207.768 C896.287,207.768 896.765,207.957 897.136,208.335 C897.508,208.706 897.693,209.246 897.693,209.956 L897.693,215.991 L899.734,215.991 L899.734,209.253 C899.708,208.094 899.35,207.215 898.66,206.616 C897.963,206.023 897.195,205.727 896.355,205.727 C895.021,205.714 893.956,206.157 893.162,207.055 C892.81,206.665 892.423,206.342 892,206.089 C891.57,205.861 891.004,205.74 890.301,205.727 C889.207,205.727 888.325,206.128 887.654,206.928 L887.615,206.928 L887.615,205.854 L885.574,205.854 L885.574,215.991 Z" id="Shape" fill="#B7B7B7" fill-rule="nonzero"></path>
                <path d="M333.68,147.723 C334.266,147.137 334.266,146.187 333.68,145.602 L324.134,136.056 C323.548,135.47 322.599,135.47 322.013,136.056 C321.427,136.641 321.427,137.591 322.013,138.177 L330.498,146.662 L322.013,155.148 C321.427,155.733 321.427,156.683 322.013,157.269 C322.599,157.855 323.548,157.855 324.134,157.269 L333.68,147.723 Z M299.134,148.162 L332.619,148.162 L332.619,145.162 L299.134,145.162 L299.134,148.162 Z" id="Shape" fill="#F2F2F2" fill-rule="nonzero"></path>
                <path d="M681.926,147.723 C682.512,147.137 682.512,146.187 681.926,145.602 L672.38,136.056 C671.794,135.47 670.845,135.47 670.259,136.056 C669.673,136.641 669.673,137.591 670.259,138.177 L678.744,146.662 L670.259,155.148 C669.673,155.733 669.673,156.683 670.259,157.269 C670.845,157.855 671.794,157.855 672.38,157.269 L681.926,147.723 Z M647.38,148.162 L680.866,148.162 L680.866,145.162 L647.38,145.162 L647.38,148.162 Z" id="Shape" fill="#F2F2F2" fill-rule="nonzero"></path>
            </g>
        </g>
    </g>
</svg>