<svg xmlns="http://www.w3.org/2000/svg" xmlns:xlink="http://www.w3.org/1999/xlink" viewBox="0 0 253.61 80.76"><defs><style>.cls-1{fill:#fff;}.cls-2{mask:url(#mask);}.cls-3{fill:none;stroke:#fff;stroke-linecap:round;stroke-linejoin:round;stroke-width:2px;}</style><mask id="mask" x="-414.83" y="-127.34" width="858.9" height="612.56" maskUnits="userSpaceOnUse"><rect class="cls-1" x="-414.83" y="-127.34" width="858.9" height="612.56"/></mask></defs><title>p08_logotype</title><g id="圖層_2" data-name="圖層 2"><g id="Page_01." data-name="Page 01."><g class="cls-2"><line class="cls-3" x1="4.3" y1="25.31" x2="17.17" y2="4.49"/><polyline class="cls-3" points="17.25 18 3.13 44.16 15.63 44.16 16.12 36.24"/><polyline class="cls-3" points="9.38 44.16 7.25 78.58 1 78.58"/><line class="cls-3" x1="2.53" y1="53.8" x2="1.64" y2="68.25"/><polyline class="cls-3" points="35.26 4.23 34.4 18 38.73 18"/><polyline class="cls-3" points="45.83 4.23 44.98 18 50.43 18"/><line class="cls-3" x1="7.89" y1="68.25" x2="16.54" y2="68.25"/><polyline class="cls-3" points="44.29 29.09 42.84 52.51 48.29 52.51"/><line class="cls-3" x1="33.72" y1="29.09" x2="30.65" y2="78.58"/><polyline class="cls-3" points="22.06 18 28.15 18 24.4 78.58 18.31 78.58"/><line class="cls-3" x1="31.45" y1="65.67" x2="46.68" y2="78.58"/><line class="cls-3" x1="17.62" y1="4.23" x2="29" y2="4.23"/><polyline class="cls-3" points="89.86 3.5 77.76 3.5 72.88 18 47.7 18"/><polyline class="cls-3" points="71.7 43.08 76.16 29.31 88.27 29.31 90.5 43.08"/><polygon class="cls-3" points="73.48 51.77 71.81 78.78 84.95 78.78 86.62 51.77 73.48 51.77"/><polyline class="cls-3" points="116.38 17.26 120.05 3.5 98.03 3.5"/><line class="cls-3" x1="107.64" y1="3.5" x2="91.17" y2="78.85"/><line class="cls-3" x1="101.57" y1="34.47" x2="114.55" y2="79.01"/><polyline class="cls-3" points="157.73 29.8 159.37 3.38 178.58 3.38 177.14 26.54 206.18 26.54"/><polyline class="cls-3" points="179.27 68.44 181.16 38.03 152.49 38.03 150.61 68.44"/><polyline class="cls-3" points="177.89 14.42 168.29 14.42 166.82 38.03"/><polyline class="cls-3" points="180.35 51.02 170.82 51.02 169.08 79.18"/><line class="cls-3" x1="140.31" y1="3.38" x2="144.99" y2="9.12"/><polyline class="cls-3" points="135.9 26.23 144.72 26.23 146.57 31.95 145.6 47.69 132.62 79.18"/><line class="cls-3" x1="141.44" y1="79.18" x2="178.61" y2="79.18"/><polyline class="cls-3" points="252.61 4.21 223.42 4.21 220.65 10.67 216.74 73.8 213.83 79.37"/><polyline class="cls-3" points="246.69 4.21 244.9 33.05 227.94 33.05 229.04 15.35 251 15.45"/><polyline class="cls-3" points="225.05 79.76 243.09 68.75 244.78 41.33 227.43 41.33 225.66 69.85 242.41 79.76"/><line class="cls-3" x1="205.22" y1="2.97" x2="210.13" y2="9.43"/><polyline class="cls-3" points="201.79 26.54 210.27 26.54 212.04 32.27 211.06 48.01 198.51 79.49"/><line class="cls-3" x1="238.21" y1="1" x2="238.01" y2="4.22"/></g></g></g></svg>