<?xml version="1.0" encoding="utf-8"?>
<!-- Generator: Adobe Illustrator 23.0.4, SVG Export Plug-In . SVG Version: 6.00 Build 0)  -->
<svg version="1.1" id="圖層_1" xmlns="http://www.w3.org/2000/svg" xmlns:xlink="http://www.w3.org/1999/xlink" x="0px" y="0px"
	 viewBox="0 0 999 493" style="enable-background:new 0 0 999 493;" xml:space="preserve">
<style type="text/css">
	.st0{fill:url(#metaball_bg_1_);}
</style>
<title>metaball_tr1</title>
<desc>Created with Sketch.</desc>
<g id="v3">
	<g id="sec1_index" transform="translate(-92.000000, -280.000000)">
		<g transform="translate(-786.000000, -390.000000)">
			<g id="metaball_tr1" transform="translate(877.000000, 669.000000)">
				
					<linearGradient id="metaball_bg_1_" gradientUnits="userSpaceOnUse" x1="-458.515" y1="786.8622" x2="-457.5562" y2="786.9274" gradientTransform="matrix(996.7726 52.2386 25.768 -491.6833 436783.9375 411082.5)">
					<stop  offset="0" style="stop-color:#E3A2C6"/>
					<stop  offset="0.14" style="stop-color:#EEC3D9;stop-opacity:0.88"/>
					<stop  offset="0.34" style="stop-color:#FAE8EF;stop-opacity:0.75"/>
					<stop  offset="0.47" style="stop-color:#FEF5F7;stop-opacity:0.7"/>
					<stop  offset="0.55" style="stop-color:#FDEEF3;stop-opacity:0.7"/>
					<stop  offset="0.64" style="stop-color:#FBDAE6;stop-opacity:0.7"/>
					<stop  offset="0.73" style="stop-color:#F7B9D0;stop-opacity:0.7"/>
					<stop  offset="0.83" style="stop-color:#F28AB2;stop-opacity:0.7"/>
					<stop  offset="0.94" style="stop-color:#EB4F8C;stop-opacity:0.7"/>
					<stop  offset="1" style="stop-color:#E62671;stop-opacity:0.7"/>
				</linearGradient>
				<path id="metaball_bg" class="st0" d="M994.6,326.3C972.4,429,871.1,494.1,768.4,471.9c-23.3-5-45.5-14.4-65.4-27.6l0,0.1
					c-28-18.5-65.7-69.1-139.5-72.9c-79-4.1-109.1,33.7-169.8,74.8c-0.2,0.1-0.4,0.3-0.6,0.4c-2.1,1.4-4.2,3-6.3,4.5
					c-0.1,0.1-0.1,0.1-0.2,0.1c-55.7,37.8-124.4,51-190.2,36.7C63.4,459.3-21.1,328.3,7.7,195.4S167.5-21.8,300.5,6.9
					c44,9.5,84.6,30.9,117.3,61.8l0.5-0.6c35,32.6,101,70.4,151.3,81.2c62.4,13.5,102.4-9,155.7-34.8l0.2,0.4
					c38.3-18.7,81.7-23.9,123.4-14.8C951.6,122.5,1016.8,223.7,994.6,326.3z"/>
			</g>
		</g>
	</g>
</g>
</svg>
