<?xml version="1.0" encoding="UTF-8"?>
<svg width="700px" height="263px" viewBox="0 0 700 263" version="1.1" xmlns="http://www.w3.org/2000/svg" xmlns:xlink="http://www.w3.org/1999/xlink">
    <title>color-palatte</title>
    <defs>
        <rect id="path-1" x="0" y="0" width="137" height="201" rx="8"></rect>
        <filter x="-33.9%" y="-23.1%" width="167.9%" height="146.3%" filterUnits="objectBoundingBox" id="filter-2">
            <feOffset dx="0" dy="0" in="SourceAlpha" result="shadowOffsetOuter1"></feOffset>
            <feGaussianBlur stdDeviation="15.5" in="shadowOffsetOuter1" result="shadowBlurOuter1"></feGaussianBlur>
            <feColorMatrix values="0 0 0 0 0.613658076   0 0 0 0 0.613658076   0 0 0 0 0.613658076  0 0 0 0.5 0" type="matrix" in="shadowBlurOuter1"></feColorMatrix>
        </filter>
        <rect id="path-3" x="0" y="0" width="137" height="201" rx="8"></rect>
        <filter x="-33.9%" y="-23.1%" width="167.9%" height="146.3%" filterUnits="objectBoundingBox" id="filter-4">
            <feOffset dx="0" dy="0" in="SourceAlpha" result="shadowOffsetOuter1"></feOffset>
            <feGaussianBlur stdDeviation="15.5" in="shadowOffsetOuter1" result="shadowBlurOuter1"></feGaussianBlur>
            <feColorMatrix values="0 0 0 0 0.613658076   0 0 0 0 0.613658076   0 0 0 0 0.613658076  0 0 0 0.5 0" type="matrix" in="shadowBlurOuter1"></feColorMatrix>
        </filter>
        <rect id="path-5" x="0" y="0" width="137" height="201" rx="8"></rect>
        <filter x="-33.9%" y="-23.1%" width="167.9%" height="146.3%" filterUnits="objectBoundingBox" id="filter-6">
            <feOffset dx="0" dy="0" in="SourceAlpha" result="shadowOffsetOuter1"></feOffset>
            <feGaussianBlur stdDeviation="15.5" in="shadowOffsetOuter1" result="shadowBlurOuter1"></feGaussianBlur>
            <feColorMatrix values="0 0 0 0 0.613658076   0 0 0 0 0.613658076   0 0 0 0 0.613658076  0 0 0 0.5 0" type="matrix" in="shadowBlurOuter1"></feColorMatrix>
        </filter>
        <rect id="path-7" x="5.68434189e-14" y="0" width="137" height="201" rx="8"></rect>
        <filter x="-33.9%" y="-23.1%" width="167.9%" height="146.3%" filterUnits="objectBoundingBox" id="filter-8">
            <feOffset dx="0" dy="0" in="SourceAlpha" result="shadowOffsetOuter1"></feOffset>
            <feGaussianBlur stdDeviation="15.5" in="shadowOffsetOuter1" result="shadowBlurOuter1"></feGaussianBlur>
            <feColorMatrix values="0 0 0 0 0.613658076   0 0 0 0 0.613658076   0 0 0 0 0.613658076  0 0 0 0.5 0" type="matrix" in="shadowBlurOuter1"></feColorMatrix>
        </filter>
    </defs>
    <g id="Page-1" stroke="none" stroke-width="1" fill="none" fill-rule="evenodd">
        <g id="color-palatte" transform="translate(31.000000, 31.000000)">
            <g id="Group-2">
                <g id="Rectangle">
                    <use fill="black" fill-opacity="1" filter="url(#filter-2)" xlink:href="#path-1"></use>
                    <use fill="#FFFFFF" fill-rule="evenodd" xlink:href="#path-1"></use>
                </g>
                <rect id="purple" fill="#7D4F95" fill-rule="nonzero" x="32" y="22" width="74.8" height="74.8"></rect>
                <g id="Group" transform="translate(15.000000, 126.000000)" fill="#7D4F95" fill-rule="nonzero">
                    <path d="M7.2,13.1 L5.2,13.1 L3.9,17 L1.2,17 L2.5,13.1 L0.3,13.1 L1,10.8 L3.2,10.8 L4.4,7.2 L2.3,7.2 L3,5 L5.3,5 L6.6,1 L9.2,1 L7.9,5 L10,5 L11.3,1 L14,1 L12.7,5 L14.9,5 L14.2,7.3 L11.9,7.3 L10.7,10.9 L13,10.9 L12.3,13.2 L9.9,13.2 L8.6,17.1 L5.9,17.1 L7.2,13.1 Z M7.1,7.3 L6,10.9 L8,10.9 L9.2,7.3 L7.1,7.3 L7.1,7.3 Z" id="Shape"></path>
                    <polygon id="Path" points="23.5 4.7 15.7 4.7 15.7 1.1 28.3 1.1 28.3 4 22.7 17.2 18 17.2"></polygon>
                    <path d="M30,1.1 L36.7,1.1 C41.7,1.1 45.4,4.1 45.4,9.1 C45.4,14.1 41.8,17.1 36.8,17.1 L30,17.1 L30,1.1 Z M36.8,13.5 C39.6,13.5 41.2,11.5 41.2,9.1 C41.2,6.6 39.7,4.7 36.8,4.7 L34.2,4.7 L34.2,13.5 L36.8,13.5 L36.8,13.5 Z" id="Shape"></path>
                    <path d="M54.2,14.1 L46.5,14.1 L46.5,10.9 L52.6,1 L58.3,1 L58.3,10.5 L60.2,10.5 L60.2,14.1 L58.3,14.1 L58.3,17 L54.1,17 L54.1,14.1 L54.2,14.1 Z M50.6,10.5 L54.2,10.5 L54.2,4.6 L50.6,10.5 Z" id="Shape"></path>
                    <polygon id="Path" points="62.3 1.1 74 1.1 74 4.6 66.4 4.6 66.4 7.3 73.8 7.3 73.8 10.8 66.4 10.8 66.4 17.2 62.3 17.2"></polygon>
                    <path d="M78,12.8 C78.9,13.5 79.8,13.9 81.1,13.9 C83.3,13.9 84.8,12.2 84.8,10 L84.8,9.8 C84,10.9 82.5,11.6 80.9,11.6 C78,11.6 75.3,9.8 75.3,6.4 C75.3,3.1 78,0.8 81.7,0.8 C86.8,0.8 89,4.4 89,9.1 C89,14.2 85.9,17.4 81.1,17.4 C79.2,17.4 77.5,16.8 76.3,15.9 L78,12.8 Z M81.9,4.3 C80.4,4.3 79.5,5.3 79.5,6.2 C79.5,7.6 80.8,8.2 82.1,8.2 C83.1,8.2 84.1,7.8 84.8,7.1 C84.7,5.8 83.9,4.3 81.9,4.3 Z" id="Shape"></path>
                    <path d="M92.8,12.3 C93.9,13.3 95.5,13.9 97,13.9 C98.8,13.9 99.6,13 99.6,11.9 C99.6,10.8 98.8,10 97.1,10 C95.8,10 94.8,10.4 93.9,11.2 L91,10.5 L91,1.1 L102.6,1.1 L102.6,4.6 L95,4.6 L95,7.9 C95.9,7.1 97.2,6.6 98.6,6.6 C101.3,6.6 103.8,8.6 103.8,11.8 C103.8,15.3 101.2,17.4 97,17.4 C94.2,17.4 92,16.5 90.5,15.1 L92.8,12.3 Z" id="Path"></path>
                </g>
                <g transform="translate(10.000000, 159.000000)" fill="#7D4F95" fill-rule="nonzero">
                    <g id="Group">
                        <polygon id="Path" points="5.2 6.3 2.5 9 0.1 6.5 5.7 1 9.3 1 9.3 17 5.2 17"></polygon>
                        <path d="M11.8,13.9 C18.7,8.9 20,7.8 20,6.2 C20,5.1 19,4.5 17.7,4.5 C16,4.5 14.7,5.2 13.5,6.3 L11.2,3.6 C12.9,1.7 15.4,0.9 17.7,0.9 C21.5,0.9 24.2,3 24.2,6.2 C24.2,8.6 22.4,10.7 18.2,13.5 L24.4,13.5 L24.4,17.1 L11.8,17.1 L11.8,13.9 Z" id="Path"></path>
                        <path d="M28.5,12.3 C29.6,13.3 31.2,13.9 32.7,13.9 C34.5,13.9 35.3,13 35.3,11.9 C35.3,10.8 34.5,10 32.8,10 C31.5,10 30.5,10.4 29.6,11.2 L26.7,10.5 L26.7,1.1 L38.3,1.1 L38.3,4.6 L30.7,4.6 L30.7,7.9 C31.6,7.1 32.9,6.6 34.3,6.6 C37,6.6 39.5,8.6 39.5,11.8 C39.5,15.3 36.9,17.4 32.7,17.4 C29.9,17.4 27.7,16.5 26.2,15.1 L28.5,12.3 Z" id="Path"></path>
                    </g>
                    <path d="M41.4,19.2 C42.2,18.8 43.2,17.9 43.4,17 C43.3,17 43.1,17.1 42.8,17.1 C41.8,17.1 40.9,16.2 40.9,15.1 C40.9,13.9 41.9,12.9 43.1,12.9 C44.4,12.9 45.5,13.9 45.5,15.7 C45.5,17.7 44.4,19.4 42.8,20.6 L41.4,19.2 Z" id="Path"></path>
                    <polygon id="Path" points="53 4.7 45.2 4.7 45.2 1.1 57.8 1.1 57.8 4 52.2 17.2 47.7 17.2"></polygon>
                    <path d="M61.3,12.8 C62.2,13.5 63.1,13.9 64.4,13.9 C66.6,13.9 68.1,12.2 68.1,10 L68.1,9.8 C67.3,10.9 65.8,11.6 64.2,11.6 C61.3,11.6 58.6,9.8 58.6,6.4 C58.6,3.1 61.3,0.8 65,0.8 C70.1,0.8 72.3,4.4 72.3,9.1 C72.3,14.2 69.2,17.4 64.4,17.4 C62.5,17.4 60.8,16.8 59.6,15.9 L61.3,12.8 Z M65.2,4.3 C63.7,4.3 62.8,5.3 62.8,6.2 C62.8,7.6 64.1,8.2 65.4,8.2 C66.4,8.2 67.4,7.8 68.1,7.1 C68,5.8 67.2,4.3 65.2,4.3 Z" id="Shape"></path>
                    <path d="M73.9,19.2 C74.7,18.8 75.7,17.9 75.9,17 C75.8,17 75.6,17.1 75.3,17.1 C74.3,17.1 73.4,16.2 73.4,15.1 C73.4,13.9 74.4,12.9 75.6,12.9 C76.9,12.9 78,13.9 78,15.7 C78,17.7 76.9,19.4 75.3,20.6 L73.9,19.2 Z" id="Path"></path>
                    <g id="Group" transform="translate(76.000000, 0.000000)">
                        <polygon id="Path" points="5.5 6.3 2.8 9 0.4 6.5 6 1 9.6 1 9.6 17 5.5 17"></polygon>
                        <path d="M19.3,14.1 L11.6,14.1 L11.6,10.9 L17.7,1 L23.4,1 L23.4,10.5 L25.3,10.5 L25.3,14.1 L23.4,14.1 L23.4,17 L19.2,17 L19.2,14.1 L19.3,14.1 Z M15.6,10.5 L19.2,10.5 L19.2,4.6 L15.6,10.5 Z" id="Shape"></path>
                        <path d="M29.1,12.8 C30,13.5 30.9,13.9 32.2,13.9 C34.4,13.9 35.9,12.2 35.9,10 L35.9,9.8 C35.1,10.9 33.6,11.6 32,11.6 C29.1,11.6 26.4,9.8 26.4,6.4 C26.4,3.1 29.1,0.8 32.8,0.8 C37.9,0.8 40.1,4.4 40.1,9.1 C40.1,14.2 37,17.4 32.2,17.4 C30.3,17.4 28.6,16.8 27.4,15.9 L29.1,12.8 Z M33,4.3 C31.5,4.3 30.6,5.3 30.6,6.2 C30.6,7.6 31.9,8.2 33.2,8.2 C34.2,8.2 35.2,7.8 35.9,7.1 C35.8,5.8 35,4.3 33,4.3 Z" id="Shape"></path>
                    </g>
                </g>
            </g>
            <g id="Group-3" transform="translate(167.000000, 0.000000)">
                <g id="Rectangle">
                    <use fill="black" fill-opacity="1" filter="url(#filter-4)" xlink:href="#path-3"></use>
                    <use fill="#FFFFFF" fill-rule="evenodd" xlink:href="#path-3"></use>
                </g>
                <rect id="pink" fill="#D7356F" fill-rule="nonzero" x="31" y="22" width="74.8" height="74.8"></rect>
                <g id="Group" transform="translate(15.000000, 126.000000)" fill="#D7356F" fill-rule="nonzero">
                    <path d="M7.2,13.1 L5.1,13.1 L3.8,17 L1.2,17 L2.5,13.1 L0.3,13.1 L1,10.8 L3.2,10.8 L4.4,7.2 L2.2,7.2 L2.9,4.9 L5.2,4.9 L6.5,0.9 L9.1,0.9 L7.8,4.9 L9.9,4.9 L11.2,0.9 L13.9,0.9 L12.6,4.9 L14.8,4.9 L14.1,7.2 L11.8,7.2 L10.6,10.8 L12.9,10.8 L12.2,13.1 L9.8,13.1 L8.5,17 L5.8,17 L7.2,13.1 Z M7.1,7.3 L5.9,10.9 L7.9,10.9 L9.1,7.3 L7.1,7.3 Z" id="Shape"></path>
                    <path d="M16.6,1.1 L23.3,1.1 C28.3,1.1 32,4.1 32,9.1 C32,14.1 28.4,17.1 23.4,17.1 L16.7,17.1 L16.7,1.1 L16.6,1.1 Z M23.3,13.5 C26.1,13.5 27.7,11.5 27.7,9.1 C27.7,6.6 26.2,4.7 23.3,4.7 L20.7,4.7 L20.7,13.5 L23.3,13.5 L23.3,13.5 Z" id="Shape"></path>
                    <polygon id="Path" points="40.9 4.7 33.1 4.7 33.1 1.1 45.7 1.1 45.7 4 40.1 17.2 35.6 17.2"></polygon>
                    <path d="M48.5,12.1 C49.7,13.2 51.5,13.8 52.9,13.8 C54.7,13.8 55.6,13.1 55.6,12.1 C55.6,11.2 54.9,10.6 52.7,10.6 C52,10.6 50.8,10.6 50.5,10.6 L50.5,7 C50.8,7 52.1,7 52.7,7 C54.4,7 55.3,6.5 55.3,5.6 C55.3,4.6 54.1,4.1 52.6,4.1 C51.1,4.1 49.7,4.7 48.6,5.7 L46.7,3.2 C48,1.7 50.2,0.6 53.1,0.6 C57.2,0.6 59.5,2.4 59.5,5 C59.5,6.9 57.9,8.3 56,8.6 C57.7,8.8 59.8,10.1 59.8,12.4 C59.8,15.2 57.2,17.2 53.2,17.2 C50.1,17.2 47.8,16.1 46.6,14.7 L48.5,12.1 Z" id="Path"></path>
                    <path d="M63.7,12.3 C64.8,13.3 66.4,13.9 67.9,13.9 C69.7,13.9 70.5,13 70.5,11.9 C70.5,10.8 69.7,10 68,10 C66.7,10 65.7,10.4 64.8,11.2 L61.9,10.5 L61.9,1.1 L73.5,1.1 L73.5,4.6 L66,4.6 L66,7.9 C66.9,7.1 68.2,6.6 69.6,6.6 C72.3,6.6 74.8,8.6 74.8,11.8 C74.8,15.3 72.2,17.4 68,17.4 C65.2,17.4 63,16.5 61.5,15.1 L63.7,12.3 Z" id="Path"></path>
                    <path d="M83.9,0.8 C85.8,0.8 87.6,1.4 88.8,2.3 L87,5.3 C86.1,4.6 85.2,4.2 83.9,4.2 C81.8,4.2 80.2,5.8 80.2,8.1 L80.2,8.3 C81,7.2 82.5,6.5 84.1,6.5 C87,6.5 89.6,8.3 89.6,11.7 C89.6,15 86.9,17.3 83.2,17.3 C78.1,17.3 75.9,13.6 75.9,9 C75.9,4 79,0.8 83.9,0.8 Z M82.8,9.9 C81.8,9.9 80.8,10.3 80.1,11 C80.2,12.3 81,13.9 83,13.9 C84.6,13.9 85.4,12.9 85.4,12 C85.4,10.5 84.1,9.9 82.8,9.9 Z" id="Shape"></path>
                    <polygon id="Path" points="91.6 1.1 103.3 1.1 103.3 4.6 95.7 4.6 95.7 7.3 103.1 7.3 103.1 10.8 95.7 10.8 95.7 17.2 91.6 17.2"></polygon>
                </g>
                <g id="Group" transform="translate(14.000000, 159.000000)" fill="#D7356F" fill-rule="nonzero">
                    <path d="M1.1,13.9 C8,8.9 9.3,7.8 9.3,6.2 C9.3,5.1 8.3,4.5 7,4.5 C5.3,4.5 4,5.2 2.8,6.3 L0.5,3.6 C2.2,1.7 4.7,0.9 7,0.9 C10.8,0.9 13.5,3 13.5,6.2 C13.5,8.6 11.7,10.7 7.5,13.5 L13.7,13.5 L13.7,17.1 L1.1,17.1 L1.1,13.9 L1.1,13.9 Z" id="Path"></path>
                    <polygon id="Path" points="19.7 6.3 17 9 14.6 6.5 20.2 1 23.8 1 23.8 17 19.7 17"></polygon>
                    <path d="M28.5,12.3 C29.6,13.3 31.2,13.9 32.7,13.9 C34.5,13.9 35.3,13 35.3,11.9 C35.3,10.8 34.5,10 32.8,10 C31.5,10 30.5,10.4 29.6,11.2 L26.7,10.5 L26.7,1.1 L38.3,1.1 L38.3,4.6 L30.7,4.6 L30.7,7.9 C31.6,7.1 32.9,6.6 34.3,6.6 C37,6.6 39.5,8.6 39.5,11.8 C39.5,15.3 36.9,17.4 32.7,17.4 C29.9,17.4 27.7,16.5 26.2,15.1 L28.5,12.3 Z" id="Path"></path>
                    <path d="M41.4,19.2 C42.2,18.8 43.2,17.9 43.4,17 C43.3,17 43.1,17.1 42.8,17.1 C41.8,17.1 40.9,16.2 40.9,15.1 C40.9,13.9 41.9,12.9 43.1,12.9 C44.4,12.9 45.5,13.9 45.5,15.7 C45.5,17.7 44.4,19.4 42.8,20.6 L41.4,19.2 Z" id="Path"></path>
                    <path d="M49.7,12.3 C50.8,13.3 52.4,13.9 53.9,13.9 C55.7,13.9 56.5,13 56.5,11.9 C56.5,10.8 55.7,10 54,10 C52.7,10 51.7,10.4 50.8,11.2 L47.9,10.5 L47.9,1.1 L59.5,1.1 L59.5,4.6 L52,4.6 L52,7.9 C52.9,7.1 54.2,6.6 55.6,6.6 C58.3,6.6 60.8,8.6 60.8,11.8 C60.8,15.3 58.2,17.4 54,17.4 C51.2,17.4 49,16.5 47.5,15.1 L49.7,12.3 Z" id="Path"></path>
                    <path d="M63.8,12.1 C65,13.2 66.8,13.8 68.2,13.8 C70,13.8 70.9,13.1 70.9,12.1 C70.9,11.2 70.2,10.6 68,10.6 C67.3,10.6 66.1,10.6 65.8,10.6 L65.8,7 C66.1,7 67.4,7 68,7 C69.7,7 70.6,6.5 70.6,5.6 C70.6,4.6 69.4,4.1 67.9,4.1 C66.4,4.1 65,4.7 63.9,5.7 L62,3.2 C63.3,1.7 65.5,0.6 68.4,0.6 C72.5,0.6 74.8,2.4 74.8,5 C74.8,6.9 73.2,8.3 71.3,8.6 C73,8.8 75.1,10.1 75.1,12.4 C75.1,15.2 72.5,17.2 68.5,17.2 C65.4,17.2 63.1,16.1 61.9,14.7 L63.8,12.1 Z" id="Path"></path>
                </g>
                <path d="M91.1,178.2 C91.9,177.8 92.9,176.9 93.1,176 C93,176 92.8,176.1 92.5,176.1 C91.5,176.1 90.6,175.2 90.6,174.1 C90.6,172.9 91.6,171.9 92.8,171.9 C94.1,171.9 95.2,172.9 95.2,174.7 C95.2,176.7 94.1,178.4 92.5,179.6 L91.1,178.2 Z" id="Path" fill="#D7356F" fill-rule="nonzero"></path>
                <g id="Group" transform="translate(93.000000, 160.000000)" fill="#D7356F" fill-rule="nonzero">
                    <polygon id="Path" points="5.7 5.3 3 8 0.6 5.5 6.2 0 9.8 0 9.8 16 5.7 16"></polygon>
                    <polygon id="Path" points="16.5 5.3 13.8 8 11.4 5.5 17 0 20.6 0 20.6 16 16.5 16"></polygon>
                    <polygon id="Path" points="27.2 5.3 24.5 8 22.1 5.5 27.7 0 31.3 0 31.3 16 27.2 16"></polygon>
                </g>
            </g>
            <g id="Group-4" transform="translate(334.000000, 0.000000)">
                <g id="Rectangle">
                    <use fill="black" fill-opacity="1" filter="url(#filter-6)" xlink:href="#path-5"></use>
                    <use fill="#FFFFFF" fill-rule="evenodd" xlink:href="#path-5"></use>
                </g>
                <rect id="pink-2" fill="#E3A2C6" fill-rule="nonzero" x="31" y="22" width="75" height="75"></rect>
                <g id="Group" transform="translate(15.000000, 126.000000)" fill="#E3A2C6" fill-rule="nonzero">
                    <path d="M7.2,13.1 L5.1,13.1 L3.8,17 L1.2,17 L2.5,13.1 L0.3,13.1 L1,10.8 L3.2,10.8 L4.4,7.2 L2.2,7.2 L2.9,4.9 L5.2,4.9 L6.5,0.9 L9.1,0.9 L7.8,4.9 L9.9,4.9 L11.2,0.9 L13.9,0.9 L12.6,4.9 L14.8,4.9 L14.1,7.2 L11.8,7.2 L10.6,10.8 L12.9,10.8 L12.2,13.1 L9.8,13.1 L8.5,17 L5.8,17 L7.2,13.1 Z M7.1,7.3 L5.9,10.9 L7.9,10.9 L9.1,7.3 L7.1,7.3 Z" id="Shape"></path>
                    <polygon id="Path" points="16.6 1.1 28.3 1.1 28.3 4.6 20.7 4.6 20.7 7.3 28.1 7.3 28.1 10.8 20.7 10.8 20.7 13.7 28.3 13.7 28.3 17.2 16.6 17.2"></polygon>
                    <path d="M31.8,12.1 C33,13.2 34.8,13.8 36.2,13.8 C38,13.8 38.9,13.1 38.9,12.1 C38.9,11.2 38.2,10.6 36,10.6 C35.3,10.6 34.1,10.6 33.8,10.6 L33.8,7 C34.1,7 35.4,7 36,7 C37.7,7 38.6,6.5 38.6,5.6 C38.6,4.6 37.4,4.1 35.9,4.1 C34.4,4.1 33,4.7 31.9,5.7 L30,3.2 C31.3,1.7 33.5,0.6 36.4,0.6 C40.5,0.6 42.8,2.4 42.8,5 C42.8,6.9 41.2,8.3 39.3,8.6 C41,8.8 43.1,10.1 43.1,12.4 C43.1,15.2 40.5,17.2 36.5,17.2 C33.4,17.2 31.1,16.1 29.9,14.7 L31.8,12.1 Z" id="Path"></path>
                    <path d="M55.4,14.6 L48.8,14.6 L48,17 L43.5,17 L49.5,1 L54.7,1 L60.7,17 L56.2,17 L55.4,14.6 Z M49.9,11.2 L54.4,11.2 L52.1,4.7 L49.9,11.2 Z" id="Shape"></path>
                    <path d="M61.5,13.9 C68.4,8.9 69.7,7.8 69.7,6.2 C69.7,5.1 68.7,4.5 67.4,4.5 C65.7,4.5 64.4,5.2 63.2,6.3 L60.9,3.6 C62.6,1.7 65.1,0.9 67.4,0.9 C71.2,0.9 73.9,3 73.9,6.2 C73.9,8.6 72.1,10.7 67.9,13.5 L74.1,13.5 L74.1,17.1 L61.5,17.1 L61.5,13.9 L61.5,13.9 Z" id="Path"></path>
                    <path d="M75.7,9.1 C75.7,4.2 79.4,0.8 84.2,0.8 C88.2,0.8 90.2,3 91.3,5.1 L87.7,6.8 C87.2,5.5 85.8,4.5 84.1,4.5 C81.6,4.5 79.8,6.5 79.8,9.1 C79.8,11.7 81.6,13.7 84.1,13.7 C85.8,13.7 87.1,12.6 87.7,11.4 L91.3,13.1 C90.3,15.2 88.2,17.4 84.2,17.4 C79.4,17.4 75.7,14 75.7,9.1 Z" id="Path"></path>
                    <path d="M100.2,0.8 C102.1,0.8 103.9,1.4 105.1,2.3 L103.3,5.3 C102.4,4.6 101.5,4.2 100.2,4.2 C98.1,4.2 96.5,5.8 96.5,8.1 L96.5,8.3 C97.3,7.2 98.8,6.5 100.4,6.5 C103.3,6.5 105.9,8.3 105.9,11.7 C105.9,15 103.2,17.3 99.5,17.3 C94.4,17.3 92.2,13.6 92.2,9 C92.3,4 95.4,0.8 100.2,0.8 Z M99.1,9.9 C98.1,9.9 97.1,10.3 96.4,11 C96.5,12.3 97.3,13.9 99.3,13.9 C100.9,13.9 101.7,12.9 101.7,12 C101.8,10.5 100.5,9.9 99.1,9.9 Z" id="Shape"></path>
                </g>
                <g id="Group" transform="translate(5.000000, 159.000000)" fill="#E3A2C6" fill-rule="nonzero">
                    <path d="M1.1,13.9 C8,8.9 9.3,7.8 9.3,6.2 C9.3,5.1 8.3,4.5 7,4.5 C5.3,4.5 4,5.2 2.8,6.3 L0.5,3.6 C2.2,1.7 4.7,0.9 7,0.9 C10.8,0.9 13.5,3 13.5,6.2 C13.5,8.6 11.7,10.7 7.5,13.5 L13.7,13.5 L13.7,17.1 L1.1,17.1 L1.1,13.9 L1.1,13.9 Z" id="Path"></path>
                    <path d="M15.6,13.9 C22.5,8.9 23.8,7.8 23.8,6.2 C23.8,5.1 22.8,4.5 21.5,4.5 C19.8,4.5 18.5,5.2 17.3,6.3 L15,3.6 C16.7,1.7 19.2,0.9 21.5,0.9 C25.3,0.9 28,3 28,6.2 C28,8.6 26.2,10.7 22,13.5 L28.2,13.5 L28.2,17.1 L15.6,17.1 L15.6,13.9 L15.6,13.9 Z" id="Path"></path>
                </g>
                <polygon id="Path" fill="#E3A2C6" fill-rule="nonzero" points="42.4 163.7 34.6 163.7 34.6 160.1 47.2 160.1 47.2 163 41.6 176.2 37 176.2"></polygon>
                <path d="M46.7,178.2 C47.5,177.8 48.5,176.9 48.7,176 C48.6,176 48.4,176.1 48.1,176.1 C47.1,176.1 46.2,175.2 46.2,174.1 C46.2,172.9 47.2,171.9 48.4,171.9 C49.7,171.9 50.8,172.9 50.8,174.7 C50.8,176.7 49.7,178.4 48.1,179.6 L46.7,178.2 Z" id="Path" fill="#E3A2C6" fill-rule="nonzero"></path>
                <g id="Group" transform="translate(49.000000, 159.000000)" fill="#E3A2C6" fill-rule="nonzero">
                    <polygon id="Path" points="5.3 6.3 2.6 9 0.2 6.5 5.8 1 9.4 1 9.4 17 5.3 17"></polygon>
                    <path d="M19.4,0.8 C21.3,0.8 23.1,1.4 24.3,2.3 L22.5,5.3 C21.6,4.6 20.7,4.2 19.4,4.2 C17.3,4.2 15.7,5.8 15.7,8.1 L15.7,8.3 C16.5,7.2 18,6.5 19.6,6.5 C22.5,6.5 25.1,8.3 25.1,11.7 C25.1,15 22.4,17.3 18.7,17.3 C13.6,17.3 11.4,13.6 11.4,9 C11.5,4 14.6,0.8 19.4,0.8 Z M18.4,9.9 C17.4,9.9 16.4,10.3 15.7,11 C15.8,12.3 16.6,13.9 18.6,13.9 C20.2,13.9 21,12.9 21,12 C21,10.5 19.7,9.9 18.4,9.9 Z" id="Shape"></path>
                    <path d="M26.8,13.9 C33.7,8.9 35,7.8 35,6.2 C35,5.1 34,4.5 32.7,4.5 C31,4.5 29.7,5.2 28.5,6.3 L26.2,3.6 C27.9,1.7 30.4,0.9 32.7,0.9 C36.5,0.9 39.2,3 39.2,6.2 C39.2,8.6 37.4,10.7 33.2,13.5 L39.4,13.5 L39.4,17.1 L26.8,17.1 L26.8,13.9 L26.8,13.9 Z" id="Path"></path>
                </g>
                <path d="M90.6,178.2 C91.4,177.8 92.4,176.9 92.6,176 C92.5,176 92.3,176.1 92,176.1 C91,176.1 90.1,175.2 90.1,174.1 C90.1,172.9 91.1,171.9 92.3,171.9 C93.6,171.9 94.7,172.9 94.7,174.7 C94.7,176.7 93.6,178.4 92,179.6 L90.6,178.2 Z" id="Path" fill="#E3A2C6" fill-rule="nonzero"></path>
                <g id="Group" transform="translate(93.000000, 159.000000)" fill="#E3A2C6" fill-rule="nonzero">
                    <polygon id="Path" points="5.2 6.3 2.5 9 0.1 6.5 5.7 1 9.3 1 9.3 17 5.2 17"></polygon>
                    <path d="M14,12.8 C14.9,13.5 15.8,13.9 17.1,13.9 C19.3,13.9 20.8,12.2 20.8,10 L20.8,9.8 C20,10.9 18.5,11.6 16.9,11.6 C14,11.6 11.3,9.8 11.3,6.4 C11.3,3.1 14,0.8 17.7,0.8 C22.8,0.8 25,4.4 25,9.1 C25,14.2 21.9,17.4 17.1,17.4 C15.2,17.4 13.5,16.8 12.3,15.9 L14,12.8 Z M17.9,4.3 C16.4,4.3 15.5,5.3 15.5,6.2 C15.5,7.6 16.8,8.2 18.1,8.2 C19.1,8.2 20.1,7.8 20.8,7.1 C20.7,5.8 19.9,4.3 17.9,4.3 Z" id="Shape"></path>
                    <path d="M29.5,8.8 C27.8,8.2 26.5,7 26.5,5.1 C26.5,2 29.9,0.8 33,0.8 C36.1,0.8 39.5,2 39.5,5.1 C39.5,7 38.2,8.2 36.5,8.8 C38.3,9.5 39.7,11 39.7,12.8 C39.7,15.9 36.4,17.3 32.9,17.3 C29.4,17.3 26.1,15.9 26.1,12.8 C26.2,11 27.6,9.5 29.5,8.8 Z M33,10.6 C32,10.7 30.4,11.3 30.4,12.4 C30.4,13.3 31.5,13.9 33,13.9 C34.5,13.9 35.6,13.3 35.6,12.4 C35.6,11.3 34,10.7 33,10.6 Z M33,4.3 C31.6,4.3 30.7,4.9 30.7,5.7 C30.7,6.6 32,7.2 33,7.3 C34,7.1 35.3,6.6 35.3,5.7 C35.3,4.8 34.4,4.3 33,4.3 Z" id="Shape"></path>
                </g>
            </g>
            <g id="Group-5" transform="translate(501.000000, 0.000000)">
                <g id="Rectangle">
                    <use fill="black" fill-opacity="1" filter="url(#filter-8)" xlink:href="#path-7"></use>
                    <use fill="#FFFFFF" fill-rule="evenodd" xlink:href="#path-7"></use>
                </g>
                <rect id="pink-3" fill="#DF6223" fill-rule="nonzero" x="31" y="22" width="74.5" height="74.5"></rect>
                <g id="Group" transform="translate(16.000000, 126.000000)" fill="#DF6223" fill-rule="nonzero">
                    <path d="M7.2,13.1 L5.1,13.1 L3.8,17 L1.2,17 L2.5,13.1 L0.3,13.1 L1,10.8 L3.2,10.8 L4.4,7.2 L2.2,7.2 L2.9,4.9 L5.2,4.9 L6.5,0.9 L9.1,0.9 L7.8,4.9 L9.9,4.9 L11.2,0.9 L13.9,0.9 L12.6,4.9 L14.8,4.9 L14.1,7.2 L11.8,7.2 L10.6,10.8 L12.9,10.8 L12.2,13.1 L9.8,13.1 L8.5,17 L5.8,17 L7.2,13.1 Z M7.1,7.3 L5.9,10.9 L7.9,10.9 L9.1,7.3 L7.1,7.3 Z" id="Shape"></path>
                    <path d="M16.6,1.1 L23.3,1.1 C28.3,1.1 32,4.1 32,9.1 C32,14.1 28.4,17.1 23.4,17.1 L16.7,17.1 L16.7,1.1 L16.6,1.1 Z M23.3,13.5 C26.1,13.5 27.7,11.5 27.7,9.1 C27.7,6.6 26.2,4.7 23.3,4.7 L20.7,4.7 L20.7,13.5 L23.3,13.5 L23.3,13.5 Z" id="Shape"></path>
                    <polygon id="Path" points="34.1 1.1 45.8 1.1 45.8 4.6 38.2 4.6 38.2 7.3 45.6 7.3 45.6 10.8 38.2 10.8 38.2 17.2 34.1 17.2"></polygon>
                    <path d="M55.1,0.8 C57,0.8 58.8,1.4 60,2.3 L58.2,5.3 C57.3,4.6 56.4,4.2 55.1,4.2 C53,4.2 51.4,5.8 51.4,8.1 L51.4,8.3 C52.2,7.2 53.7,6.5 55.3,6.5 C58.2,6.5 60.8,8.3 60.8,11.7 C60.8,15 58.1,17.3 54.4,17.3 C49.3,17.3 47.1,13.6 47.1,9 C47.2,4 50.3,0.8 55.1,0.8 Z M54.1,9.9 C53.1,9.9 52.1,10.3 51.4,11 C51.5,12.3 52.3,13.9 54.3,13.9 C55.9,13.9 56.7,12.9 56.7,12 C56.7,10.5 55.4,9.9 54.1,9.9 Z" id="Shape"></path>
                    <path d="M62.4,13.9 C69.3,8.9 70.6,7.8 70.6,6.2 C70.6,5.1 69.6,4.5 68.3,4.5 C66.6,4.5 65.3,5.2 64.1,6.3 L61.8,3.6 C63.5,1.7 66,0.9 68.3,0.9 C72.1,0.9 74.8,3 74.8,6.2 C74.8,8.6 73,10.7 68.8,13.5 L75,13.5 L75,17.1 L62.4,17.1 L62.4,13.9 L62.4,13.9 Z" id="Path"></path>
                    <path d="M77,13.9 C83.9,8.9 85.2,7.8 85.2,6.2 C85.2,5.1 84.2,4.5 82.9,4.5 C81.2,4.5 79.9,5.2 78.7,6.3 L76.4,3.6 C78.1,1.7 80.6,0.9 82.9,0.9 C86.7,0.9 89.4,3 89.4,6.2 C89.4,8.6 87.6,10.7 83.4,13.5 L89.6,13.5 L89.6,17.1 L77,17.1 L77,13.9 Z" id="Path"></path>
                    <path d="M93,12.1 C94.2,13.2 96,13.8 97.4,13.8 C99.2,13.8 100.1,13.1 100.1,12.1 C100.1,11.2 99.4,10.6 97.2,10.6 C96.5,10.6 95.3,10.6 95,10.6 L95,7 C95.3,7 96.6,7 97.2,7 C98.9,7 99.8,6.5 99.8,5.6 C99.8,4.6 98.6,4.1 97.1,4.1 C95.6,4.1 94.2,4.7 93.1,5.7 L91.2,3.2 C92.5,1.7 94.7,0.6 97.6,0.6 C101.7,0.6 104,2.4 104,5 C104,6.9 102.4,8.3 100.5,8.6 C102.2,8.8 104.3,10.1 104.3,12.4 C104.3,15.2 101.7,17.2 97.7,17.2 C94.6,17.2 92.3,16.1 91.1,14.7 L93,12.1 Z" id="Path"></path>
                </g>
                <g id="Group" transform="translate(12.000000, 159.000000)" fill="#DF6223" fill-rule="nonzero">
                    <path d="M1.1,13.9 C8,8.9 9.3,7.8 9.3,6.2 C9.3,5.1 8.3,4.5 7,4.5 C5.3,4.5 4,5.2 2.8,6.3 L0.5,3.6 C2.2,1.7 4.7,0.9 7,0.9 C10.8,0.9 13.5,3 13.5,6.2 C13.5,8.6 11.7,10.7 7.5,13.5 L13.7,13.5 L13.7,17.1 L1.1,17.1 L1.1,13.9 L1.1,13.9 Z" id="Path"></path>
                    <path d="M15.6,13.9 C22.5,8.9 23.8,7.8 23.8,6.2 C23.8,5.1 22.8,4.5 21.5,4.5 C19.8,4.5 18.5,5.2 17.3,6.3 L15,3.6 C16.7,1.7 19.2,0.9 21.5,0.9 C25.3,0.9 28,3 28,6.2 C28,8.6 26.2,10.7 22,13.5 L28.2,13.5 L28.2,17.1 L15.6,17.1 L15.6,13.9 L15.6,13.9 Z" id="Path"></path>
                    <path d="M31.6,12.1 C32.8,13.2 34.6,13.8 36,13.8 C37.8,13.8 38.7,13.1 38.7,12.1 C38.7,11.2 38,10.6 35.8,10.6 C35.1,10.6 33.9,10.6 33.6,10.6 L33.6,7 C33.9,7 35.2,7 35.8,7 C37.5,7 38.4,6.5 38.4,5.6 C38.4,4.6 37.2,4.1 35.7,4.1 C34.2,4.1 32.8,4.7 31.7,5.7 L29.8,3.2 C31.1,1.7 33.3,0.6 36.2,0.6 C40.3,0.6 42.6,2.4 42.6,5 C42.6,6.9 41,8.3 39.1,8.6 C40.8,8.8 42.9,10.1 42.9,12.4 C42.9,15.2 40.3,17.2 36.3,17.2 C33.2,17.2 30.9,16.1 29.7,14.7 L31.6,12.1 Z" id="Path"></path>
                    <path d="M44.9,19.2 C45.7,18.8 46.7,17.9 46.9,17 C46.8,17 46.6,17.1 46.3,17.1 C45.3,17.1 44.4,16.2 44.4,15.1 C44.4,13.9 45.4,12.9 46.6,12.9 C47.9,12.9 49,13.9 49,15.7 C49,17.7 47.9,19.4 46.3,20.6 L44.9,19.2 Z" id="Path"></path>
                    <path d="M53.2,12.8 C54.1,13.5 55,13.9 56.3,13.9 C58.5,13.9 60,12.2 60,10 L60,9.8 C59.2,10.9 57.7,11.6 56.1,11.6 C53.2,11.6 50.5,9.8 50.5,6.4 C50.5,3.1 53.2,0.8 56.9,0.8 C62,0.8 64.2,4.4 64.2,9.1 C64.2,14.2 61.1,17.4 56.3,17.4 C54.4,17.4 52.7,16.8 51.5,15.9 L53.2,12.8 Z M57.1,4.3 C55.6,4.3 54.7,5.3 54.7,6.2 C54.7,7.6 56,8.2 57.3,8.2 C58.3,8.2 59.3,7.8 60,7.1 C59.9,5.8 59.1,4.3 57.1,4.3 Z" id="Shape"></path>
                    <path d="M68.7,8.8 C67,8.2 65.7,7 65.7,5.1 C65.7,2 69.1,0.8 72.2,0.8 C75.3,0.8 78.7,2 78.7,5.1 C78.7,7 77.4,8.2 75.7,8.8 C77.5,9.5 78.9,11 78.9,12.8 C78.9,15.9 75.6,17.3 72.1,17.3 C68.6,17.3 65.3,15.9 65.3,12.8 C65.4,11 66.8,9.5 68.7,8.8 Z M72.2,10.6 C71.2,10.7 69.6,11.3 69.6,12.4 C69.6,13.3 70.7,13.9 72.2,13.9 C73.7,13.9 74.8,13.3 74.8,12.4 C74.8,11.3 73.2,10.7 72.2,10.6 Z M72.2,4.3 C70.8,4.3 69.9,4.9 69.9,5.7 C69.9,6.6 71.2,7.2 72.2,7.3 C73.2,7.1 74.5,6.6 74.5,5.7 C74.5,4.8 73.6,4.3 72.2,4.3 Z" id="Shape"></path>
                    <path d="M81,19.2 C81.8,18.8 82.8,17.9 83,17 C82.9,17 82.7,17.1 82.4,17.1 C81.4,17.1 80.5,16.2 80.5,15.1 C80.5,13.9 81.5,12.9 82.7,12.9 C84,12.9 85.1,13.9 85.1,15.7 C85.1,17.7 84,19.4 82.4,20.6 L81,19.2 Z" id="Path"></path>
                    <path d="M88.6,12.1 C89.8,13.2 91.6,13.8 93,13.8 C94.8,13.8 95.7,13.1 95.7,12.1 C95.7,11.2 95,10.6 92.8,10.6 C92.1,10.6 90.9,10.6 90.6,10.6 L90.6,7 C90.9,7 92.2,7 92.8,7 C94.5,7 95.4,6.5 95.4,5.6 C95.4,4.6 94.2,4.1 92.7,4.1 C91.2,4.1 89.8,4.7 88.7,5.7 L86.8,3.2 C88.1,1.7 90.3,0.6 93.2,0.6 C97.3,0.6 99.6,2.4 99.6,5 C99.6,6.9 98,8.3 96.1,8.6 C97.8,8.8 99.9,10.1 99.9,12.4 C99.9,15.2 97.3,17.2 93.3,17.2 C90.2,17.2 87.9,16.1 86.7,14.7 L88.6,12.1 Z" id="Path"></path>
                    <path d="M103.7,12.3 C104.8,13.3 106.4,13.9 107.9,13.9 C109.7,13.9 110.5,13 110.5,11.9 C110.5,10.8 109.7,10 108,10 C106.7,10 105.7,10.4 104.8,11.2 L101.9,10.5 L101.9,1.1 L113.5,1.1 L113.5,4.6 L106,4.6 L106,7.9 C106.9,7.1 108.2,6.6 109.6,6.6 C112.3,6.6 114.8,8.6 114.8,11.8 C114.8,15.3 112.2,17.4 108,17.4 C105.2,17.4 103,16.5 101.5,15.1 L103.7,12.3 Z" id="Path"></path>
                </g>
            </g>
        </g>
    </g>
</svg>