<svg width="201" height="147" viewBox="0 0 201 147" fill="none" xmlns="http://www.w3.org/2000/svg">
<g clip-path="url(#clip0_1002_106)">
<path opacity="0.145485" d="M6 135C9.31371 135 12 137.686 12 141C12 144.314 9.31371 147 6 147C2.68629 147 0 144.314 0 141C0 137.686 2.68629 135 6 135Z" fill="#E6E6E6"/>
<path opacity="0.145485" d="M33 135C36.3137 135 39 137.686 39 141C39 144.314 36.3137 147 33 147C29.6863 147 27 144.314 27 141C27 137.686 29.6863 135 33 135Z" fill="#D8D8D8"/>
<path opacity="0.145485" d="M60 135C63.3137 135 66 137.686 66 141C66 144.314 63.3137 147 60 147C56.6863 147 54 144.314 54 141C54 137.686 56.6863 135 60 135Z" fill="#C4C4C4"/>
<path opacity="0.145485" d="M87 135C90.3137 135 93 137.686 93 141C93 144.314 90.3137 147 87 147C83.6863 147 81 144.314 81 141C81 137.686 83.6863 135 87 135Z" fill="#BBBBBB"/>
<path opacity="0.145485" d="M114 135C117.314 135 120 137.686 120 141C120 144.314 117.314 147 114 147C110.686 147 108 144.314 108 141C108 137.686 110.686 135 114 135Z" fill="#9D9D9D"/>
<path opacity="0.145485" d="M141 135C144.314 135 147 137.686 147 141C147 144.314 144.314 147 141 147C137.686 147 135 144.314 135 141C135 137.686 137.686 135 141 135Z" fill="#717171"/>
<path opacity="0.145485" d="M168 135C171.314 135 174 137.686 174 141C174 144.314 171.314 147 168 147C164.686 147 162 144.314 162 141C162 137.686 164.686 135 168 135Z" fill="#656565"/>
<path opacity="0.145485" d="M195 135C198.314 135 201 137.686 201 141C201 144.314 198.314 147 195 147C191.686 147 189 144.314 189 141C189 137.686 191.686 135 195 135Z" fill="#303030"/>
<path opacity="0.145485" d="M6 108C9.31371 108 12 110.686 12 114C12 117.314 9.31371 120 6 120C2.68629 120 0 117.314 0 114C0 110.686 2.68629 108 6 108Z" fill="#E6E6E6"/>
<path opacity="0.145485" d="M33 108C36.3137 108 39 110.686 39 114C39 117.314 36.3137 120 33 120C29.6863 120 27 117.314 27 114C27 110.686 29.6863 108 33 108Z" fill="#D8D8D8"/>
<path opacity="0.145485" d="M60 108C63.3137 108 66 110.686 66 114C66 117.314 63.3137 120 60 120C56.6863 120 54 117.314 54 114C54 110.686 56.6863 108 60 108Z" fill="#C4C4C4"/>
<path opacity="0.145485" d="M87 108C90.3137 108 93 110.686 93 114C93 117.314 90.3137 120 87 120C83.6863 120 81 117.314 81 114C81 110.686 83.6863 108 87 108Z" fill="#BBBBBB"/>
<path opacity="0.145485" d="M114 108C117.314 108 120 110.686 120 114C120 117.314 117.314 120 114 120C110.686 120 108 117.314 108 114C108 110.686 110.686 108 114 108Z" fill="#9D9D9D"/>
<path opacity="0.145485" d="M141 108C144.314 108 147 110.686 147 114C147 117.314 144.314 120 141 120C137.686 120 135 117.314 135 114C135 110.686 137.686 108 141 108Z" fill="#717171"/>
<path opacity="0.145485" d="M168 108C171.314 108 174 110.686 174 114C174 117.314 171.314 120 168 120C164.686 120 162 117.314 162 114C162 110.686 164.686 108 168 108Z" fill="#656565"/>
<path opacity="0.145485" d="M195 108C198.314 108 201 110.686 201 114C201 117.314 198.314 120 195 120C191.686 120 189 117.314 189 114C189 110.686 191.686 108 195 108Z" fill="#303030"/>
<path opacity="0.145485" d="M6 81C9.31371 81 12 83.6863 12 87C12 90.3137 9.31371 93 6 93C2.68629 93 0 90.3137 0 87C0 83.6863 2.68629 81 6 81Z" fill="#E6E6E6"/>
<path opacity="0.145485" d="M33 81C36.3137 81 39 83.6863 39 87C39 90.3137 36.3137 93 33 93C29.6863 93 27 90.3137 27 87C27 83.6863 29.6863 81 33 81Z" fill="#D8D8D8"/>
<path opacity="0.145485" d="M60 81C63.3137 81 66 83.6863 66 87C66 90.3137 63.3137 93 60 93C56.6863 93 54 90.3137 54 87C54 83.6863 56.6863 81 60 81Z" fill="#C4C4C4"/>
<path opacity="0.145485" d="M87 81C90.3137 81 93 83.6863 93 87C93 90.3137 90.3137 93 87 93C83.6863 93 81 90.3137 81 87C81 83.6863 83.6863 81 87 81Z" fill="#BBBBBB"/>
<path opacity="0.145485" d="M114 81C117.314 81 120 83.6863 120 87C120 90.3137 117.314 93 114 93C110.686 93 108 90.3137 108 87C108 83.6863 110.686 81 114 81Z" fill="#9D9D9D"/>
<path opacity="0.145485" d="M141 81C144.314 81 147 83.6863 147 87C147 90.3137 144.314 93 141 93C137.686 93 135 90.3137 135 87C135 83.6863 137.686 81 141 81Z" fill="#717171"/>
<path opacity="0.145485" d="M168 81C171.314 81 174 83.6863 174 87C174 90.3137 171.314 93 168 93C164.686 93 162 90.3137 162 87C162 83.6863 164.686 81 168 81Z" fill="#656565"/>
<path opacity="0.145485" d="M195 81C198.314 81 201 83.6863 201 87C201 90.3137 198.314 93 195 93C191.686 93 189 90.3137 189 87C189 83.6863 191.686 81 195 81Z" fill="#303030"/>
<path opacity="0.145485" d="M6 54C9.31371 54 12 56.6863 12 60C12 63.3137 9.31371 66 6 66C2.68629 66 0 63.3137 0 60C0 56.6863 2.68629 54 6 54Z" fill="#E6E6E6"/>
<path opacity="0.145485" d="M33 54C36.3137 54 39 56.6863 39 60C39 63.3137 36.3137 66 33 66C29.6863 66 27 63.3137 27 60C27 56.6863 29.6863 54 33 54Z" fill="#D8D8D8"/>
<path opacity="0.145485" d="M60 54C63.3137 54 66 56.6863 66 60C66 63.3137 63.3137 66 60 66C56.6863 66 54 63.3137 54 60C54 56.6863 56.6863 54 60 54Z" fill="#C4C4C4"/>
<path opacity="0.145485" d="M87 54C90.3137 54 93 56.6863 93 60C93 63.3137 90.3137 66 87 66C83.6863 66 81 63.3137 81 60C81 56.6863 83.6863 54 87 54Z" fill="#BBBBBB"/>
<path opacity="0.145485" d="M114 54C117.314 54 120 56.6863 120 60C120 63.3137 117.314 66 114 66C110.686 66 108 63.3137 108 60C108 56.6863 110.686 54 114 54Z" fill="#9D9D9D"/>
<path opacity="0.145485" d="M141 54C144.314 54 147 56.6863 147 60C147 63.3137 144.314 66 141 66C137.686 66 135 63.3137 135 60C135 56.6863 137.686 54 141 54Z" fill="#717171"/>
<path opacity="0.145485" d="M168 54C171.314 54 174 56.6863 174 60C174 63.3137 171.314 66 168 66C164.686 66 162 63.3137 162 60C162 56.6863 164.686 54 168 54Z" fill="#656565"/>
<path opacity="0.145485" d="M195 54C198.314 54 201 56.6863 201 60C201 63.3137 198.314 66 195 66C191.686 66 189 63.3137 189 60C189 56.6863 191.686 54 195 54Z" fill="#303030"/>
<path opacity="0.145485" d="M6 27C9.31371 27 12 29.6863 12 33C12 36.3137 9.31371 39 6 39C2.68629 39 0 36.3137 0 33C0 29.6863 2.68629 27 6 27Z" fill="#E6E6E6"/>
<path opacity="0.145485" d="M33 27C36.3137 27 39 29.6863 39 33C39 36.3137 36.3137 39 33 39C29.6863 39 27 36.3137 27 33C27 29.6863 29.6863 27 33 27Z" fill="#D8D8D8"/>
<path opacity="0.145485" d="M60 27C63.3137 27 66 29.6863 66 33C66 36.3137 63.3137 39 60 39C56.6863 39 54 36.3137 54 33C54 29.6863 56.6863 27 60 27Z" fill="#C4C4C4"/>
<path opacity="0.145485" d="M87 27C90.3137 27 93 29.6863 93 33C93 36.3137 90.3137 39 87 39C83.6863 39 81 36.3137 81 33C81 29.6863 83.6863 27 87 27Z" fill="#BBBBBB"/>
<path opacity="0.145485" d="M114 27C117.314 27 120 29.6863 120 33C120 36.3137 117.314 39 114 39C110.686 39 108 36.3137 108 33C108 29.6863 110.686 27 114 27Z" fill="#9D9D9D"/>
<path opacity="0.145485" d="M141 27C144.314 27 147 29.6863 147 33C147 36.3137 144.314 39 141 39C137.686 39 135 36.3137 135 33C135 29.6863 137.686 27 141 27Z" fill="#717171"/>
<path opacity="0.145485" d="M168 27C171.314 27 174 29.6863 174 33C174 36.3137 171.314 39 168 39C164.686 39 162 36.3137 162 33C162 29.6863 164.686 27 168 27Z" fill="#656565"/>
<path opacity="0.145485" d="M195 27C198.314 27 201 29.6863 201 33C201 36.3137 198.314 39 195 39C191.686 39 189 36.3137 189 33C189 29.6863 191.686 27 195 27Z" fill="#303030"/>
<path opacity="0.145485" d="M6 0C9.31371 0 12 2.68629 12 6C12 9.31371 9.31371 12 6 12C2.68629 12 0 9.31371 0 6C0 2.68629 2.68629 0 6 0Z" fill="#E6E6E6"/>
<path opacity="0.145485" d="M33 0C36.3137 0 39 2.68629 39 6C39 9.31371 36.3137 12 33 12C29.6863 12 27 9.31371 27 6C27 2.68629 29.6863 0 33 0Z" fill="#D8D8D8"/>
<path opacity="0.145485" d="M60 0C63.3137 0 66 2.68629 66 6C66 9.31371 63.3137 12 60 12C56.6863 12 54 9.31371 54 6C54 2.68629 56.6863 0 60 0Z" fill="#C4C4C4"/>
<path opacity="0.145485" d="M87 0C90.3137 0 93 2.68629 93 6C93 9.31371 90.3137 12 87 12C83.6863 12 81 9.31371 81 6C81 2.68629 83.6863 0 87 0Z" fill="#BBBBBB"/>
<path opacity="0.145485" d="M114 0C117.314 0 120 2.68629 120 6C120 9.31371 117.314 12 114 12C110.686 12 108 9.31371 108 6C108 2.68629 110.686 0 114 0Z" fill="#9D9D9D"/>
<path opacity="0.145485" d="M141 0C144.314 0 147 2.68629 147 6C147 9.31371 144.314 12 141 12C137.686 12 135 9.31371 135 6C135 2.68629 137.686 0 141 0Z" fill="#717171"/>
<path opacity="0.145485" d="M168 0C171.314 0 174 2.68629 174 6C174 9.31371 171.314 12 168 12C164.686 12 162 9.31371 162 6C162 2.68629 164.686 0 168 0Z" fill="#656565"/>
<path opacity="0.145485" d="M195 0C198.314 0 201 2.68629 201 6C201 9.31371 198.314 12 195 12C191.686 12 189 9.31371 189 6C189 2.68629 191.686 0 195 0Z" fill="#303030"/>
</g>
<defs>
<clipPath id="clip0_1002_106">
<rect width="201" height="147" fill="white" transform="matrix(-1 0 0 1 201 0)"/>
</clipPath>
</defs>
</svg>
