<svg width="329" height="329" viewBox="0 0 329 329" fill="none" xmlns="http://www.w3.org/2000/svg">
<path fill-rule="evenodd" clip-rule="evenodd" d="M164.5 329C255.351 329 329 255.351 329 164.5C329 73.6492 255.351 0 164.5 0C73.6492 0 0 73.6492 0 164.5C0 255.351 73.6492 329 164.5 329ZM164.5 306.31C242.82 306.31 306.31 242.82 306.31 164.5C306.31 86.1803 242.82 22.6897 164.5 22.6897C86.1803 22.6897 22.6897 86.1803 22.6897 164.5C22.6897 242.82 86.1803 306.31 164.5 306.31Z" fill="#F5F5F5"/>
<path fill-rule="evenodd" clip-rule="evenodd" d="M164.5 285.168C231.143 285.168 285.168 231.143 285.168 164.5C285.168 97.8571 231.143 43.8323 164.5 43.8323C97.8571 43.8323 43.8323 97.8571 43.8323 164.5C43.8323 231.143 97.8571 285.168 164.5 285.168ZM164.5 262.478C218.612 262.478 262.478 218.612 262.478 164.5C262.478 110.388 218.612 66.5219 164.5 66.5219C110.388 66.5219 66.5219 110.388 66.5219 164.5C66.5219 218.612 110.388 262.478 164.5 262.478Z" fill="#F5F5F5"/>
<path fill-rule="evenodd" clip-rule="evenodd" d="M164.5 241.335C206.935 241.335 241.335 206.935 241.335 164.5C241.335 122.065 206.935 87.6646 164.5 87.6646C122.065 87.6646 87.6646 122.065 87.6646 164.5C87.6646 206.935 122.065 241.335 164.5 241.335ZM164.5 219.677C194.973 219.677 219.677 194.973 219.677 164.5C219.677 134.026 194.973 109.323 164.5 109.323C134.026 109.323 109.323 134.026 109.323 164.5C109.323 194.973 134.026 219.677 164.5 219.677Z" fill="#F5F5F5"/>
<path fill-rule="evenodd" clip-rule="evenodd" d="M164.5 200.081C184.151 200.081 200.082 184.151 200.082 164.5C200.082 144.849 184.151 128.918 164.5 128.918C144.849 128.918 128.919 144.849 128.919 164.5C128.919 184.151 144.849 200.081 164.5 200.081ZM164.5 182.549C174.468 182.549 182.549 174.468 182.549 164.5C182.549 154.532 174.468 146.451 164.5 146.451C154.532 146.451 146.451 154.532 146.451 164.5C146.451 174.468 154.532 182.549 164.5 182.549Z" fill="#F5F5F5"/>
</svg>
