<svg width="201" height="147" viewBox="0 0 201 147" fill="none" xmlns="http://www.w3.org/2000/svg">
<g clip-path="url(#clip0_1002_2)">
<path opacity="0.145485" d="M195 135C191.686 135 189 137.686 189 141C189 144.314 191.686 147 195 147C198.314 147 201 144.314 201 141C201 137.686 198.314 135 195 135Z" fill="#E6E6E6"/>
<path opacity="0.145485" d="M168 135C164.686 135 162 137.686 162 141C162 144.314 164.686 147 168 147C171.314 147 174 144.314 174 141C174 137.686 171.314 135 168 135Z" fill="#D8D8D8"/>
<path opacity="0.145485" d="M141 135C137.686 135 135 137.686 135 141C135 144.314 137.686 147 141 147C144.314 147 147 144.314 147 141C147 137.686 144.314 135 141 135Z" fill="#C4C4C4"/>
<path opacity="0.145485" d="M114 135C110.686 135 108 137.686 108 141C108 144.314 110.686 147 114 147C117.314 147 120 144.314 120 141C120 137.686 117.314 135 114 135Z" fill="#BBBBBB"/>
<path opacity="0.145485" d="M87 135C83.6863 135 81 137.686 81 141C81 144.314 83.6863 147 87 147C90.3137 147 93 144.314 93 141C93 137.686 90.3137 135 87 135Z" fill="#9D9D9D"/>
<path opacity="0.145485" d="M60 135C56.6863 135 54 137.686 54 141C54 144.314 56.6863 147 60 147C63.3137 147 66 144.314 66 141C66 137.686 63.3137 135 60 135Z" fill="#717171"/>
<path opacity="0.145485" d="M33 135C29.6863 135 27 137.686 27 141C27 144.314 29.6863 147 33 147C36.3137 147 39 144.314 39 141C39 137.686 36.3137 135 33 135Z" fill="#656565"/>
<path opacity="0.145485" d="M6 135C2.68629 135 0 137.686 0 141C0 144.314 2.68629 147 6 147C9.31371 147 12 144.314 12 141C12 137.686 9.31371 135 6 135Z" fill="#303030"/>
<path opacity="0.145485" d="M195 108C191.686 108 189 110.686 189 114C189 117.314 191.686 120 195 120C198.314 120 201 117.314 201 114C201 110.686 198.314 108 195 108Z" fill="#E6E6E6"/>
<path opacity="0.145485" d="M168 108C164.686 108 162 110.686 162 114C162 117.314 164.686 120 168 120C171.314 120 174 117.314 174 114C174 110.686 171.314 108 168 108Z" fill="#D8D8D8"/>
<path opacity="0.145485" d="M141 108C137.686 108 135 110.686 135 114C135 117.314 137.686 120 141 120C144.314 120 147 117.314 147 114C147 110.686 144.314 108 141 108Z" fill="#C4C4C4"/>
<path opacity="0.145485" d="M114 108C110.686 108 108 110.686 108 114C108 117.314 110.686 120 114 120C117.314 120 120 117.314 120 114C120 110.686 117.314 108 114 108Z" fill="#BBBBBB"/>
<path opacity="0.145485" d="M87 108C83.6863 108 81 110.686 81 114C81 117.314 83.6863 120 87 120C90.3137 120 93 117.314 93 114C93 110.686 90.3137 108 87 108Z" fill="#9D9D9D"/>
<path opacity="0.145485" d="M60 108C56.6863 108 54 110.686 54 114C54 117.314 56.6863 120 60 120C63.3137 120 66 117.314 66 114C66 110.686 63.3137 108 60 108Z" fill="#717171"/>
<path opacity="0.145485" d="M33 108C29.6863 108 27 110.686 27 114C27 117.314 29.6863 120 33 120C36.3137 120 39 117.314 39 114C39 110.686 36.3137 108 33 108Z" fill="#656565"/>
<path opacity="0.145485" d="M6 108C2.68629 108 0 110.686 0 114C0 117.314 2.68629 120 6 120C9.31371 120 12 117.314 12 114C12 110.686 9.31371 108 6 108Z" fill="#303030"/>
<path opacity="0.145485" d="M195 81C191.686 81 189 83.6863 189 87C189 90.3137 191.686 93 195 93C198.314 93 201 90.3137 201 87C201 83.6863 198.314 81 195 81Z" fill="#E6E6E6"/>
<path opacity="0.145485" d="M168 81C164.686 81 162 83.6863 162 87C162 90.3137 164.686 93 168 93C171.314 93 174 90.3137 174 87C174 83.6863 171.314 81 168 81Z" fill="#D8D8D8"/>
<path opacity="0.145485" d="M141 81C137.686 81 135 83.6863 135 87C135 90.3137 137.686 93 141 93C144.314 93 147 90.3137 147 87C147 83.6863 144.314 81 141 81Z" fill="#C4C4C4"/>
<path opacity="0.145485" d="M114 81C110.686 81 108 83.6863 108 87C108 90.3137 110.686 93 114 93C117.314 93 120 90.3137 120 87C120 83.6863 117.314 81 114 81Z" fill="#BBBBBB"/>
<path opacity="0.145485" d="M87 81C83.6863 81 81 83.6863 81 87C81 90.3137 83.6863 93 87 93C90.3137 93 93 90.3137 93 87C93 83.6863 90.3137 81 87 81Z" fill="#9D9D9D"/>
<path opacity="0.145485" d="M60 81C56.6863 81 54 83.6863 54 87C54 90.3137 56.6863 93 60 93C63.3137 93 66 90.3137 66 87C66 83.6863 63.3137 81 60 81Z" fill="#717171"/>
<path opacity="0.145485" d="M33 81C29.6863 81 27 83.6863 27 87C27 90.3137 29.6863 93 33 93C36.3137 93 39 90.3137 39 87C39 83.6863 36.3137 81 33 81Z" fill="#656565"/>
<path opacity="0.145485" d="M6 81C2.68629 81 0 83.6863 0 87C0 90.3137 2.68629 93 6 93C9.31371 93 12 90.3137 12 87C12 83.6863 9.31371 81 6 81Z" fill="#303030"/>
<path opacity="0.145485" d="M195 54C191.686 54 189 56.6863 189 60C189 63.3137 191.686 66 195 66C198.314 66 201 63.3137 201 60C201 56.6863 198.314 54 195 54Z" fill="#E6E6E6"/>
<path opacity="0.145485" d="M168 54C164.686 54 162 56.6863 162 60C162 63.3137 164.686 66 168 66C171.314 66 174 63.3137 174 60C174 56.6863 171.314 54 168 54Z" fill="#D8D8D8"/>
<path opacity="0.145485" d="M141 54C137.686 54 135 56.6863 135 60C135 63.3137 137.686 66 141 66C144.314 66 147 63.3137 147 60C147 56.6863 144.314 54 141 54Z" fill="#C4C4C4"/>
<path opacity="0.145485" d="M114 54C110.686 54 108 56.6863 108 60C108 63.3137 110.686 66 114 66C117.314 66 120 63.3137 120 60C120 56.6863 117.314 54 114 54Z" fill="#BBBBBB"/>
<path opacity="0.145485" d="M87 54C83.6863 54 81 56.6863 81 60C81 63.3137 83.6863 66 87 66C90.3137 66 93 63.3137 93 60C93 56.6863 90.3137 54 87 54Z" fill="#9D9D9D"/>
<path opacity="0.145485" d="M60 54C56.6863 54 54 56.6863 54 60C54 63.3137 56.6863 66 60 66C63.3137 66 66 63.3137 66 60C66 56.6863 63.3137 54 60 54Z" fill="#717171"/>
<path opacity="0.145485" d="M33 54C29.6863 54 27 56.6863 27 60C27 63.3137 29.6863 66 33 66C36.3137 66 39 63.3137 39 60C39 56.6863 36.3137 54 33 54Z" fill="#656565"/>
<path opacity="0.145485" d="M6 54C2.68629 54 0 56.6863 0 60C0 63.3137 2.68629 66 6 66C9.31371 66 12 63.3137 12 60C12 56.6863 9.31371 54 6 54Z" fill="#303030"/>
<path opacity="0.145485" d="M195 27C191.686 27 189 29.6863 189 33C189 36.3137 191.686 39 195 39C198.314 39 201 36.3137 201 33C201 29.6863 198.314 27 195 27Z" fill="#E6E6E6"/>
<path opacity="0.145485" d="M168 27C164.686 27 162 29.6863 162 33C162 36.3137 164.686 39 168 39C171.314 39 174 36.3137 174 33C174 29.6863 171.314 27 168 27Z" fill="#D8D8D8"/>
<path opacity="0.145485" d="M141 27C137.686 27 135 29.6863 135 33C135 36.3137 137.686 39 141 39C144.314 39 147 36.3137 147 33C147 29.6863 144.314 27 141 27Z" fill="#C4C4C4"/>
<path opacity="0.145485" d="M114 27C110.686 27 108 29.6863 108 33C108 36.3137 110.686 39 114 39C117.314 39 120 36.3137 120 33C120 29.6863 117.314 27 114 27Z" fill="#BBBBBB"/>
<path opacity="0.145485" d="M87 27C83.6863 27 81 29.6863 81 33C81 36.3137 83.6863 39 87 39C90.3137 39 93 36.3137 93 33C93 29.6863 90.3137 27 87 27Z" fill="#9D9D9D"/>
<path opacity="0.145485" d="M60 27C56.6863 27 54 29.6863 54 33C54 36.3137 56.6863 39 60 39C63.3137 39 66 36.3137 66 33C66 29.6863 63.3137 27 60 27Z" fill="#717171"/>
<path opacity="0.145485" d="M33 27C29.6863 27 27 29.6863 27 33C27 36.3137 29.6863 39 33 39C36.3137 39 39 36.3137 39 33C39 29.6863 36.3137 27 33 27Z" fill="#656565"/>
<path opacity="0.145485" d="M6 27C2.68629 27 0 29.6863 0 33C0 36.3137 2.68629 39 6 39C9.31371 39 12 36.3137 12 33C12 29.6863 9.31371 27 6 27Z" fill="#303030"/>
<path opacity="0.145485" d="M195 0C191.686 0 189 2.68629 189 6C189 9.31371 191.686 12 195 12C198.314 12 201 9.31371 201 6C201 2.68629 198.314 0 195 0Z" fill="#E6E6E6"/>
<path opacity="0.145485" d="M168 0C164.686 0 162 2.68629 162 6C162 9.31371 164.686 12 168 12C171.314 12 174 9.31371 174 6C174 2.68629 171.314 0 168 0Z" fill="#D8D8D8"/>
<path opacity="0.145485" d="M141 0C137.686 0 135 2.68629 135 6C135 9.31371 137.686 12 141 12C144.314 12 147 9.31371 147 6C147 2.68629 144.314 0 141 0Z" fill="#C4C4C4"/>
<path opacity="0.145485" d="M114 0C110.686 0 108 2.68629 108 6C108 9.31371 110.686 12 114 12C117.314 12 120 9.31371 120 6C120 2.68629 117.314 0 114 0Z" fill="#BBBBBB"/>
<path opacity="0.145485" d="M87 0C83.6863 0 81 2.68629 81 6C81 9.31371 83.6863 12 87 12C90.3137 12 93 9.31371 93 6C93 2.68629 90.3137 0 87 0Z" fill="#9D9D9D"/>
<path opacity="0.145485" d="M60 0C56.6863 0 54 2.68629 54 6C54 9.31371 56.6863 12 60 12C63.3137 12 66 9.31371 66 6C66 2.68629 63.3137 0 60 0Z" fill="#717171"/>
<path opacity="0.145485" d="M33 0C29.6863 0 27 2.68629 27 6C27 9.31371 29.6863 12 33 12C36.3137 12 39 9.31371 39 6C39 2.68629 36.3137 0 33 0Z" fill="#656565"/>
<path opacity="0.145485" d="M6 0C2.68629 0 0 2.68629 0 6C0 9.31371 2.68629 12 6 12C9.31371 12 12 9.31371 12 6C12 2.68629 9.31371 0 6 0Z" fill="#303030"/>
</g>
<defs>
<clipPath id="clip0_1002_2">
<rect width="201" height="147" fill="white"/>
</clipPath>
</defs>
</svg>
