<svg width="664" height="966" viewBox="0 0 664 966" fill="none" xmlns="http://www.w3.org/2000/svg">
<rect width="664" height="966" fill="white"/>
<path d="M70 709H596L556 869H40L70 709Z" fill="#F92A75" fill-opacity="0.05"/>
<path d="M101.016 774.881C101.016 776.508 101.064 777.609 101.162 778.182C101.214 778.488 101.279 778.742 101.357 778.943C101.442 779.139 101.536 779.344 101.641 779.559C101.986 780.216 102.539 780.796 103.301 781.297C104.049 781.818 104.984 782.091 106.104 782.117C107.236 782.091 108.18 781.818 108.936 781.297C109.684 780.796 110.225 780.216 110.557 779.559C110.798 779.214 110.964 778.755 111.055 778.182C111.139 777.609 111.182 776.508 111.182 774.881C111.182 773.227 111.139 772.12 111.055 771.561C110.964 771.001 110.798 770.548 110.557 770.203C110.225 769.546 109.684 768.96 108.936 768.445C108.18 767.924 107.236 767.658 106.104 767.645C104.984 767.658 104.049 767.924 103.301 768.445C102.539 768.96 101.986 769.546 101.641 770.203C101.426 770.548 101.266 771.001 101.162 771.561C101.064 772.12 101.016 773.227 101.016 774.881ZM103.184 774.881C103.184 773.481 103.236 772.527 103.34 772.02C103.431 771.538 103.617 771.144 103.896 770.838C104.124 770.545 104.424 770.301 104.795 770.105C105.16 769.917 105.596 769.816 106.104 769.803C106.618 769.816 107.064 769.917 107.441 770.105C107.799 770.301 108.086 770.545 108.301 770.838C108.581 771.144 108.773 771.538 108.877 772.02C108.975 772.527 109.023 773.481 109.023 774.881C109.023 776.281 108.975 777.228 108.877 777.723C108.773 778.217 108.581 778.618 108.301 778.924C108.086 779.217 107.799 779.454 107.441 779.637C107.064 779.852 106.618 779.959 106.104 779.959C105.596 779.959 105.16 779.852 104.795 779.637C104.424 779.454 104.124 779.217 103.896 778.924C103.617 778.618 103.431 778.217 103.34 777.723C103.236 777.228 103.184 776.281 103.184 774.881Z" fill="#FF91B9"/>
<path d="M113.643 771.863H112.627V773.416H113.643V779.5C113.643 780.301 113.877 780.913 114.346 781.336C114.801 781.779 115.387 782 116.104 782H117.168V780.076H116.406C115.911 780.089 115.671 779.839 115.684 779.324V773.416H117.168V771.863H115.684V768.777H113.643V771.863Z" fill="#FF91B9"/>
<path d="M119.092 782H121.133V775.965C121.133 775.255 121.325 774.715 121.709 774.344C122.087 773.966 122.568 773.777 123.154 773.777C123.74 773.777 124.219 773.966 124.59 774.344C124.967 774.715 125.156 775.255 125.156 775.965V782H127.197V775.262C127.165 774.103 126.803 773.224 126.113 772.625C125.417 772.033 124.648 771.736 123.809 771.736C122.721 771.736 121.842 772.137 121.172 772.938H121.133V767.762H119.092V782Z" fill="#FF91B9"/>
<path d="M137.695 777.703V776.023C137.682 774.689 137.269 773.641 136.455 772.879C135.654 772.13 134.674 771.749 133.516 771.736C133.034 771.736 132.546 771.824 132.051 772C131.549 772.176 131.097 772.462 130.693 772.859C130.296 773.25 129.971 773.784 129.717 774.461C129.463 775.125 129.336 775.958 129.336 776.961C129.336 778.003 129.482 778.849 129.775 779.5C130.042 780.177 130.391 780.704 130.82 781.082C131.042 781.264 131.279 781.417 131.533 781.541C131.774 781.684 132.021 781.798 132.275 781.883C132.783 782.039 133.304 782.117 133.838 782.117C135.238 782.13 136.455 781.583 137.49 780.477L136.016 779.217C135.365 779.874 134.626 780.203 133.799 780.203C133.089 780.203 132.516 779.988 132.08 779.559C131.611 779.135 131.377 778.517 131.377 777.703H137.695ZM131.377 776.023C131.416 775.236 131.628 774.64 132.012 774.236C132.402 773.852 132.904 773.66 133.516 773.66C134.128 773.66 134.629 773.852 135.02 774.236C135.417 774.64 135.628 775.236 135.654 776.023H131.377Z" fill="#FF91B9"/>
<path d="M139.834 782H141.875V775.896C141.888 775.154 142.103 774.617 142.52 774.285C142.891 773.947 143.337 773.777 143.857 773.777C144.32 773.777 144.766 773.947 145.195 774.285L146.68 772.518C146.074 772.01 145.365 771.749 144.551 771.736C143.464 771.736 142.585 772.137 141.914 772.938H141.875V771.863H139.834V782Z" fill="#FF91B9"/>
<path d="M152.617 782H161.709V779.959H154.775V767.762H152.617V782Z" fill="#FF91B9"/>
<path d="M163.623 782H165.664V771.863H163.623V782ZM163.623 769.803H165.664V767.762H163.623V769.803Z" fill="#FF91B9"/>
<path d="M168.369 782H170.41V775.965C170.41 775.255 170.602 774.715 170.986 774.344C171.364 773.966 171.846 773.777 172.432 773.777C173.018 773.777 173.496 773.966 173.867 774.344C174.245 774.715 174.434 775.255 174.434 775.965V782H176.475V775.262C176.442 774.103 176.081 773.224 175.391 772.625C174.694 772.033 173.926 771.736 173.086 771.736C171.999 771.736 171.12 772.137 170.449 772.938H170.41V771.863H168.369V782Z" fill="#FF91B9"/>
<path d="M179.111 782H181.152V779.08L182.754 777.264L185.449 782H188.008L184.033 775.818L187.529 771.863H185.088L181.191 776.619H181.152V767.762H179.111V782Z" fill="#FF91B9"/>
<path d="M101.504 810H107.5C108.62 810 109.554 809.626 110.303 808.877C111.058 808.161 111.442 807.188 111.455 805.957C111.455 805.215 111.27 804.528 110.898 803.896C110.501 803.285 109.915 802.878 109.141 802.676V802.637C109.551 802.441 109.896 802.223 110.176 801.982C110.456 801.755 110.671 801.514 110.82 801.26C111.113 800.726 111.253 800.166 111.24 799.58C111.24 798.434 110.885 797.513 110.176 796.816C109.473 796.126 108.421 795.775 107.021 795.762H101.504V810ZM106.982 803.682C107.783 803.695 108.369 803.906 108.74 804.316C109.111 804.733 109.297 805.234 109.297 805.82C109.297 806.393 109.111 806.888 108.74 807.305C108.369 807.728 107.783 807.946 106.982 807.959H103.662V803.682H106.982ZM106.777 797.686C107.565 797.699 108.145 797.891 108.516 798.262C108.893 798.659 109.082 799.144 109.082 799.717C109.082 800.29 108.893 800.765 108.516 801.143C108.145 801.553 107.565 801.758 106.777 801.758H103.662V797.686H106.777Z" fill="#FF91B9"/>
<path d="M118.848 810H120.889V803.076C120.876 801.839 120.488 800.967 119.727 800.459C118.965 799.964 117.946 799.723 116.67 799.736C115.16 799.71 114.017 800.205 113.242 801.221L114.844 802.441C115.02 802.148 115.26 801.94 115.566 801.816C115.859 801.712 116.26 801.66 116.768 801.66C118.167 801.634 118.861 802.067 118.848 802.959V804.023H116.025C114.945 804.036 114.124 804.329 113.564 804.902C113.005 805.462 112.725 806.169 112.725 807.021C112.725 807.913 113.047 808.646 113.691 809.219C114.303 809.805 115.176 810.104 116.309 810.117C116.999 810.117 117.539 810.033 117.93 809.863C118.327 809.701 118.62 809.447 118.809 809.102H118.848V810ZM118.848 806.436C118.848 807.197 118.688 807.686 118.369 807.9C118.018 808.115 117.415 808.216 116.562 808.203C115.885 808.203 115.4 808.07 115.107 807.803C114.801 807.562 114.648 807.269 114.648 806.924C114.635 806.136 115.221 805.729 116.406 805.703H118.848V806.436Z" fill="#FF91B9"/>
<path d="M123.828 806.904L122.402 808.301C123.724 809.512 125.212 810.117 126.865 810.117C128.083 810.104 129.082 809.824 129.863 809.277C130.651 808.743 131.051 807.985 131.064 807.002C131.064 806.162 130.846 805.469 130.41 804.922C129.941 804.362 129.18 804.043 128.125 803.965L126.445 803.838C125.951 803.786 125.605 803.665 125.41 803.477C125.195 803.307 125.094 803.109 125.107 802.881C125.107 802.523 125.241 802.23 125.508 802.002C125.762 801.774 126.208 801.66 126.846 801.66C127.406 801.66 127.9 801.742 128.33 801.904C128.766 802.087 129.18 802.318 129.57 802.598L130.83 801.123C130.335 800.693 129.775 800.352 129.15 800.098C128.825 799.98 128.477 799.889 128.105 799.824C127.734 799.766 127.314 799.736 126.846 799.736C125.765 799.736 124.873 799.997 124.17 800.518C123.447 801.038 123.079 801.82 123.066 802.861C123.079 803.727 123.359 804.401 123.906 804.883C124.44 805.378 125.133 805.664 125.986 805.742L127.783 805.898C128.161 805.911 128.464 805.993 128.691 806.143C128.913 806.286 129.023 806.54 129.023 806.904C129.023 807.314 128.838 807.633 128.467 807.861C128.096 808.089 127.617 808.203 127.031 808.203C125.723 808.203 124.655 807.77 123.828 806.904Z" fill="#FF91B9"/>
<path d="M133.193 810H135.234V799.863H133.193V810ZM133.193 797.803H135.234V795.762H133.193V797.803Z" fill="#FF91B9"/>
<path d="M143.896 807.021C143.382 807.712 142.695 808.063 141.836 808.076C140.104 808.109 139.225 807.064 139.199 804.941C139.225 802.806 140.104 801.751 141.836 801.777C142.695 801.803 143.382 802.158 143.896 802.842L145.4 801.504C144.958 800.97 144.437 800.544 143.838 800.225C143.239 799.912 142.546 799.749 141.758 799.736C140.56 799.723 139.508 800.124 138.604 800.938C137.666 801.764 137.184 803.099 137.158 804.941C137.184 806.764 137.666 808.083 138.604 808.896C139.508 809.71 140.56 810.117 141.758 810.117C142.546 810.104 143.239 809.932 143.838 809.6C144.437 809.281 144.958 808.867 145.4 808.359L143.896 807.021Z" fill="#FF91B9"/>
<path d="M151.816 810H153.975V795.762H151.816V810Z" fill="#FF91B9"/>
<path d="M156.787 810H158.828V803.965C158.828 803.255 159.02 802.715 159.404 802.344C159.782 801.966 160.264 801.777 160.85 801.777C161.436 801.777 161.914 801.966 162.285 802.344C162.663 802.715 162.852 803.255 162.852 803.965V810H164.893V803.262C164.86 802.103 164.499 801.224 163.809 800.625C163.112 800.033 162.344 799.736 161.504 799.736C160.417 799.736 159.538 800.137 158.867 800.938H158.828V799.863H156.787V810Z" fill="#FF91B9"/>
<path d="M167.852 810H169.893V801.416H171.934V799.863H169.893V798.525C169.867 797.946 170.16 797.666 170.771 797.686H171.934V795.762H170.615C169.827 795.762 169.173 795.973 168.652 796.396C168.118 796.852 167.852 797.562 167.852 798.525V799.863H166.826V801.416H167.852V810Z" fill="#FF91B9"/>
<path d="M172.598 804.922C172.598 805.99 172.686 806.803 172.861 807.363C173.044 807.923 173.324 808.408 173.701 808.818C173.981 809.137 174.372 809.424 174.873 809.678C175.368 809.958 176.003 810.104 176.777 810.117C177.578 810.104 178.226 809.958 178.721 809.678C178.988 809.561 179.206 809.421 179.375 809.258C179.564 809.115 179.723 808.968 179.854 808.818C180.257 808.408 180.544 807.923 180.713 807.363C180.876 806.803 180.957 805.99 180.957 804.922C180.957 803.854 180.876 803.034 180.713 802.461C180.544 801.901 180.257 801.429 179.854 801.045C179.587 800.706 179.209 800.404 178.721 800.137C178.226 799.883 177.578 799.749 176.777 799.736C176.003 799.749 175.368 799.883 174.873 800.137C174.372 800.404 173.981 800.706 173.701 801.045C173.324 801.429 173.044 801.901 172.861 802.461C172.686 803.034 172.598 803.854 172.598 804.922ZM178.916 804.941C178.916 805.632 178.883 806.139 178.818 806.465C178.753 806.797 178.62 807.09 178.418 807.344C178.268 807.539 178.047 807.712 177.754 807.861C177.474 808.005 177.148 808.076 176.777 808.076C176.432 808.076 176.113 808.005 175.82 807.861C175.54 807.712 175.312 807.539 175.137 807.344C174.961 807.09 174.834 806.797 174.756 806.465C174.678 806.139 174.639 805.625 174.639 804.922C174.639 804.212 174.678 803.691 174.756 803.359C174.834 803.04 174.961 802.76 175.137 802.52C175.312 802.292 175.54 802.113 175.82 801.982C176.113 801.846 176.432 801.777 176.777 801.777C177.148 801.777 177.474 801.846 177.754 801.982C178.047 802.113 178.268 802.292 178.418 802.52C178.62 802.76 178.753 803.04 178.818 803.359C178.883 803.691 178.916 804.219 178.916 804.941Z" fill="#FF91B9"/>
<path d="M183.213 810H185.254V803.965C185.254 803.255 185.449 802.715 185.84 802.344C186.211 801.966 186.689 801.777 187.275 801.777C187.861 801.777 188.343 801.966 188.721 802.344C189.092 802.715 189.277 803.255 189.277 803.965V810H191.318V803.965C191.318 803.255 191.51 802.715 191.895 802.344C192.272 801.966 192.754 801.777 193.34 801.777C193.926 801.777 194.404 801.966 194.775 802.344C195.146 802.715 195.332 803.255 195.332 803.965V810H197.373V803.262C197.347 802.103 196.989 801.224 196.299 800.625C195.602 800.033 194.834 799.736 193.994 799.736C192.66 799.723 191.595 800.166 190.801 801.064C190.449 800.674 190.062 800.352 189.639 800.098C189.209 799.87 188.643 799.749 187.939 799.736C186.846 799.736 185.964 800.137 185.293 800.938H185.254V799.863H183.213V810Z" fill="#FF91B9"/>
<path d="M205.469 810H207.51V803.076C207.497 801.839 207.109 800.967 206.348 800.459C205.586 799.964 204.567 799.723 203.291 799.736C201.781 799.71 200.638 800.205 199.863 801.221L201.465 802.441C201.641 802.148 201.882 801.94 202.188 801.816C202.48 801.712 202.881 801.66 203.389 801.66C204.788 801.634 205.482 802.067 205.469 802.959V804.023H202.646C201.566 804.036 200.745 804.329 200.186 804.902C199.626 805.462 199.346 806.169 199.346 807.021C199.346 807.913 199.668 808.646 200.312 809.219C200.924 809.805 201.797 810.104 202.93 810.117C203.62 810.117 204.16 810.033 204.551 809.863C204.948 809.701 205.241 809.447 205.43 809.102H205.469V810ZM205.469 806.436C205.469 807.197 205.309 807.686 204.99 807.9C204.639 808.115 204.036 808.216 203.184 808.203C202.507 808.203 202.021 808.07 201.729 807.803C201.423 807.562 201.27 807.269 201.27 806.924C201.257 806.136 201.842 805.729 203.027 805.703H205.469V806.436Z" fill="#FF91B9"/>
<path d="M210.264 799.863H209.248V801.416H210.264V807.5C210.264 808.301 210.498 808.913 210.967 809.336C211.423 809.779 212.008 810 212.725 810H213.789V808.076H213.027C212.533 808.089 212.292 807.839 212.305 807.324V801.416H213.789V799.863H212.305V796.777H210.264V799.863Z" fill="#FF91B9"/>
<path d="M215.771 810H217.812V799.863H215.771V810ZM215.771 797.803H217.812V795.762H215.771V797.803Z" fill="#FF91B9"/>
<path d="M220.02 804.922C220.02 805.99 220.107 806.803 220.283 807.363C220.465 807.923 220.745 808.408 221.123 808.818C221.403 809.137 221.794 809.424 222.295 809.678C222.79 809.958 223.424 810.104 224.199 810.117C225 810.104 225.648 809.958 226.143 809.678C226.41 809.561 226.628 809.421 226.797 809.258C226.986 809.115 227.145 808.968 227.275 808.818C227.679 808.408 227.965 807.923 228.135 807.363C228.298 806.803 228.379 805.99 228.379 804.922C228.379 803.854 228.298 803.034 228.135 802.461C227.965 801.901 227.679 801.429 227.275 801.045C227.008 800.706 226.631 800.404 226.143 800.137C225.648 799.883 225 799.749 224.199 799.736C223.424 799.749 222.79 799.883 222.295 800.137C221.794 800.404 221.403 800.706 221.123 801.045C220.745 801.429 220.465 801.901 220.283 802.461C220.107 803.034 220.02 803.854 220.02 804.922ZM226.338 804.941C226.338 805.632 226.305 806.139 226.24 806.465C226.175 806.797 226.042 807.09 225.84 807.344C225.69 807.539 225.469 807.712 225.176 807.861C224.896 808.005 224.57 808.076 224.199 808.076C223.854 808.076 223.535 808.005 223.242 807.861C222.962 807.712 222.734 807.539 222.559 807.344C222.383 807.09 222.256 806.797 222.178 806.465C222.1 806.139 222.061 805.625 222.061 804.922C222.061 804.212 222.1 803.691 222.178 803.359C222.256 803.04 222.383 802.76 222.559 802.52C222.734 802.292 222.962 802.113 223.242 801.982C223.535 801.846 223.854 801.777 224.199 801.777C224.57 801.777 224.896 801.846 225.176 801.982C225.469 802.113 225.69 802.292 225.84 802.52C226.042 802.76 226.175 803.04 226.24 803.359C226.305 803.691 226.338 804.219 226.338 804.941Z" fill="#FF91B9"/>
<path d="M230.518 810H232.559V803.965C232.559 803.255 232.751 802.715 233.135 802.344C233.512 801.966 233.994 801.777 234.58 801.777C235.166 801.777 235.645 801.966 236.016 802.344C236.393 802.715 236.582 803.255 236.582 803.965V810H238.623V803.262C238.59 802.103 238.229 801.224 237.539 800.625C236.842 800.033 236.074 799.736 235.234 799.736C234.147 799.736 233.268 800.137 232.598 800.938H232.559V799.863H230.518V810Z" fill="#FF91B9"/>
<path d="M452.438 800H455.891V790.266H465.359V787.203H455.891V780.484H466.984V777.219H452.438V800Z" fill="#F92A75"/>
<path d="M467.938 791.875C467.938 793.583 468.078 794.885 468.359 795.781C468.651 796.677 469.099 797.453 469.703 798.109C470.151 798.62 470.776 799.078 471.578 799.484C472.37 799.932 473.385 800.167 474.625 800.188C475.906 800.167 476.943 799.932 477.734 799.484C478.161 799.297 478.51 799.073 478.781 798.812C479.083 798.583 479.339 798.349 479.547 798.109C480.193 797.453 480.651 796.677 480.922 795.781C481.182 794.885 481.312 793.583 481.312 791.875C481.312 790.167 481.182 788.854 480.922 787.938C480.651 787.042 480.193 786.286 479.547 785.672C479.12 785.13 478.516 784.646 477.734 784.219C476.943 783.812 475.906 783.599 474.625 783.578C473.385 783.599 472.37 783.812 471.578 784.219C470.776 784.646 470.151 785.13 469.703 785.672C469.099 786.286 468.651 787.042 468.359 787.938C468.078 788.854 467.938 790.167 467.938 791.875ZM478.047 791.906C478.047 793.01 477.995 793.823 477.891 794.344C477.786 794.875 477.573 795.344 477.25 795.75C477.01 796.062 476.656 796.339 476.188 796.578C475.74 796.807 475.219 796.922 474.625 796.922C474.073 796.922 473.562 796.807 473.094 796.578C472.646 796.339 472.281 796.062 472 795.75C471.719 795.344 471.516 794.875 471.391 794.344C471.266 793.823 471.203 793 471.203 791.875C471.203 790.74 471.266 789.906 471.391 789.375C471.516 788.865 471.719 788.417 472 788.031C472.281 787.667 472.646 787.38 473.094 787.172C473.562 786.953 474.073 786.844 474.625 786.844C475.219 786.844 475.74 786.953 476.188 787.172C476.656 787.38 477.01 787.667 477.25 788.031C477.573 788.417 477.786 788.865 477.891 789.375C477.995 789.906 478.047 790.75 478.047 791.906Z" fill="#F92A75"/>
<path d="M483.938 791.875C483.938 793.583 484.078 794.885 484.359 795.781C484.651 796.677 485.099 797.453 485.703 798.109C486.151 798.62 486.776 799.078 487.578 799.484C488.37 799.932 489.385 800.167 490.625 800.188C491.906 800.167 492.943 799.932 493.734 799.484C494.161 799.297 494.51 799.073 494.781 798.812C495.083 798.583 495.339 798.349 495.547 798.109C496.193 797.453 496.651 796.677 496.922 795.781C497.182 794.885 497.312 793.583 497.312 791.875C497.312 790.167 497.182 788.854 496.922 787.938C496.651 787.042 496.193 786.286 495.547 785.672C495.12 785.13 494.516 784.646 493.734 784.219C492.943 783.812 491.906 783.599 490.625 783.578C489.385 783.599 488.37 783.812 487.578 784.219C486.776 784.646 486.151 785.13 485.703 785.672C485.099 786.286 484.651 787.042 484.359 787.938C484.078 788.854 483.938 790.167 483.938 791.875ZM494.047 791.906C494.047 793.01 493.995 793.823 493.891 794.344C493.786 794.875 493.573 795.344 493.25 795.75C493.01 796.062 492.656 796.339 492.188 796.578C491.74 796.807 491.219 796.922 490.625 796.922C490.073 796.922 489.562 796.807 489.094 796.578C488.646 796.339 488.281 796.062 488 795.75C487.719 795.344 487.516 794.875 487.391 794.344C487.266 793.823 487.203 793 487.203 791.875C487.203 790.74 487.266 789.906 487.391 789.375C487.516 788.865 487.719 788.417 488 788.031C488.281 787.667 488.646 787.38 489.094 787.172C489.562 786.953 490.073 786.844 490.625 786.844C491.219 786.844 491.74 786.953 492.188 787.172C492.656 787.38 493.01 787.667 493.25 788.031C493.573 788.417 493.786 788.865 493.891 789.375C493.995 789.906 494.047 790.75 494.047 791.906Z" fill="#F92A75"/>
<path d="M500.922 783.781H499.297V786.266H500.922V796C500.922 797.281 501.297 798.26 502.047 798.938C502.776 799.646 503.714 800 504.859 800H506.562V796.922H505.344C504.552 796.943 504.167 796.542 504.188 795.719V786.266H506.562V783.781H504.188V778.844H500.922V783.781Z" fill="#F92A75"/>
<path d="M522.219 793.125V790.438C522.198 788.302 521.536 786.625 520.234 785.406C518.953 784.208 517.385 783.599 515.531 783.578C514.76 783.578 513.979 783.719 513.188 784C512.385 784.281 511.661 784.74 511.016 785.375C510.38 786 509.859 786.854 509.453 787.938C509.047 789 508.844 790.333 508.844 791.938C508.844 793.604 509.078 794.958 509.547 796C509.974 797.083 510.531 797.927 511.219 798.531C511.573 798.823 511.953 799.068 512.359 799.266C512.745 799.495 513.141 799.677 513.547 799.812C514.359 800.062 515.193 800.188 516.047 800.188C518.286 800.208 520.234 799.333 521.891 797.562L519.531 795.547C518.49 796.599 517.307 797.125 515.984 797.125C514.849 797.125 513.932 796.781 513.234 796.094C512.484 795.417 512.109 794.427 512.109 793.125H522.219ZM512.109 790.438C512.172 789.177 512.51 788.224 513.125 787.578C513.75 786.964 514.552 786.656 515.531 786.656C516.51 786.656 517.312 786.964 517.938 787.578C518.573 788.224 518.911 789.177 518.953 790.438H512.109Z" fill="#F92A75"/>
<path d="M525.641 800H528.906V790.234C528.927 789.047 529.271 788.188 529.938 787.656C530.531 787.115 531.245 786.844 532.078 786.844C532.818 786.844 533.531 787.115 534.219 787.656L536.594 784.828C535.625 784.016 534.49 783.599 533.188 783.578C531.448 783.578 530.042 784.219 528.969 785.5H528.906V783.781H525.641V800Z" fill="#F92A75"/>
<path d="M70 571H596L556 731H40L70 571Z" fill="#1ED95D" fill-opacity="0.05"/>
<path d="M101.504 644H103.662V637.916H109.58V636.002H103.662V631.803H110.596V629.762H101.504V644Z" fill="#82ECA5"/>
<path d="M111.689 644H113.73V637.896C113.743 637.154 113.958 636.617 114.375 636.285C114.746 635.947 115.192 635.777 115.713 635.777C116.175 635.777 116.621 635.947 117.051 636.285L118.535 634.518C117.93 634.01 117.22 633.749 116.406 633.736C115.319 633.736 114.44 634.137 113.77 634.938H113.73V633.863H111.689V644Z" fill="#82ECA5"/>
<path d="M126.973 639.703V638.023C126.96 636.689 126.546 635.641 125.732 634.879C124.932 634.13 123.952 633.749 122.793 633.736C122.311 633.736 121.823 633.824 121.328 634C120.827 634.176 120.374 634.462 119.971 634.859C119.574 635.25 119.248 635.784 118.994 636.461C118.74 637.125 118.613 637.958 118.613 638.961C118.613 640.003 118.76 640.849 119.053 641.5C119.32 642.177 119.668 642.704 120.098 643.082C120.319 643.264 120.557 643.417 120.811 643.541C121.051 643.684 121.299 643.798 121.553 643.883C122.061 644.039 122.581 644.117 123.115 644.117C124.515 644.13 125.732 643.583 126.768 642.477L125.293 641.217C124.642 641.874 123.903 642.203 123.076 642.203C122.367 642.203 121.794 641.988 121.357 641.559C120.889 641.135 120.654 640.517 120.654 639.703H126.973ZM120.654 638.023C120.693 637.236 120.905 636.64 121.289 636.236C121.68 635.852 122.181 635.66 122.793 635.66C123.405 635.66 123.906 635.852 124.297 636.236C124.694 636.64 124.906 637.236 124.932 638.023H120.654Z" fill="#82ECA5"/>
<path d="M136.973 639.703V638.023C136.96 636.689 136.546 635.641 135.732 634.879C134.932 634.13 133.952 633.749 132.793 633.736C132.311 633.736 131.823 633.824 131.328 634C130.827 634.176 130.374 634.462 129.971 634.859C129.574 635.25 129.248 635.784 128.994 636.461C128.74 637.125 128.613 637.958 128.613 638.961C128.613 640.003 128.76 640.849 129.053 641.5C129.32 642.177 129.668 642.704 130.098 643.082C130.319 643.264 130.557 643.417 130.811 643.541C131.051 643.684 131.299 643.798 131.553 643.883C132.061 644.039 132.581 644.117 133.115 644.117C134.515 644.13 135.732 643.583 136.768 642.477L135.293 641.217C134.642 641.874 133.903 642.203 133.076 642.203C132.367 642.203 131.794 641.988 131.357 641.559C130.889 641.135 130.654 640.517 130.654 639.703H136.973ZM130.654 638.023C130.693 637.236 130.905 636.64 131.289 636.236C131.68 635.852 132.181 635.66 132.793 635.66C133.405 635.66 133.906 635.852 134.297 636.236C134.694 636.64 134.906 637.236 134.932 638.023H130.654Z" fill="#82ECA5"/>
<path d="M146.514 644H148.682V631.686H152.578V629.762H142.617V631.686H146.514V644Z" fill="#82ECA5"/>
<path d="M152.08 644H154.121V637.896C154.134 637.154 154.349 636.617 154.766 636.285C155.137 635.947 155.583 635.777 156.104 635.777C156.566 635.777 157.012 635.947 157.441 636.285L158.926 634.518C158.32 634.01 157.611 633.749 156.797 633.736C155.71 633.736 154.831 634.137 154.16 634.938H154.121V633.863H152.08V644Z" fill="#82ECA5"/>
<path d="M159.932 644H161.973V633.863H159.932V644ZM159.932 631.803H161.973V629.762H159.932V631.803Z" fill="#82ECA5"/>
<path d="M170 644H172.041V637.076C172.028 635.839 171.641 634.967 170.879 634.459C170.117 633.964 169.098 633.723 167.822 633.736C166.312 633.71 165.169 634.205 164.395 635.221L165.996 636.441C166.172 636.148 166.413 635.94 166.719 635.816C167.012 635.712 167.412 635.66 167.92 635.66C169.32 635.634 170.013 636.067 170 636.959V638.023H167.178C166.097 638.036 165.277 638.329 164.717 638.902C164.157 639.462 163.877 640.169 163.877 641.021C163.877 641.913 164.199 642.646 164.844 643.219C165.456 643.805 166.328 644.104 167.461 644.117C168.151 644.117 168.691 644.033 169.082 643.863C169.479 643.701 169.772 643.447 169.961 643.102H170V644ZM170 640.436C170 641.197 169.84 641.686 169.521 641.9C169.17 642.115 168.568 642.216 167.715 642.203C167.038 642.203 166.553 642.07 166.26 641.803C165.954 641.562 165.801 641.269 165.801 640.924C165.788 640.136 166.374 639.729 167.559 639.703H170V640.436Z" fill="#82ECA5"/>
<path d="M174.678 641.539C174.678 642.431 174.932 643.066 175.439 643.443C175.921 643.814 176.533 644 177.275 644H178.184V642.076H177.48C176.973 642.076 176.719 641.845 176.719 641.383V629.762H174.678V641.539Z" fill="#82ECA5"/>
<path d="M108.818 668.016C108.219 669.311 107.314 669.959 106.104 669.959C105.596 669.959 105.16 669.852 104.795 669.637C104.424 669.454 104.124 669.217 103.896 668.924C103.617 668.618 103.431 668.217 103.34 667.723C103.236 667.228 103.184 666.281 103.184 664.881C103.184 663.481 103.236 662.527 103.34 662.02C103.431 661.538 103.617 661.144 103.896 660.838C104.124 660.545 104.424 660.301 104.795 660.105C105.16 659.917 105.596 659.816 106.104 659.803C106.794 659.816 107.38 660.014 107.861 660.398C108.324 660.802 108.643 661.29 108.818 661.863H111.104C110.876 660.672 110.329 659.673 109.463 658.865C108.597 658.064 107.477 657.658 106.104 657.645C104.984 657.658 104.049 657.924 103.301 658.445C102.539 658.96 101.986 659.546 101.641 660.203C101.426 660.548 101.266 661.001 101.162 661.561C101.064 662.12 101.016 663.227 101.016 664.881C101.016 666.508 101.064 667.609 101.162 668.182C101.214 668.488 101.279 668.742 101.357 668.943C101.442 669.139 101.536 669.344 101.641 669.559C101.986 670.216 102.539 670.796 103.301 671.297C104.049 671.818 104.984 672.091 106.104 672.117C107.34 672.117 108.411 671.766 109.316 671.062C110.195 670.353 110.791 669.337 111.104 668.016H108.818Z" fill="#82ECA5"/>
<path d="M111.953 666.922C111.953 667.99 112.041 668.803 112.217 669.363C112.399 669.923 112.679 670.408 113.057 670.818C113.337 671.137 113.727 671.424 114.229 671.678C114.723 671.958 115.358 672.104 116.133 672.117C116.934 672.104 117.581 671.958 118.076 671.678C118.343 671.561 118.561 671.421 118.73 671.258C118.919 671.115 119.079 670.968 119.209 670.818C119.613 670.408 119.899 669.923 120.068 669.363C120.231 668.803 120.312 667.99 120.312 666.922C120.312 665.854 120.231 665.034 120.068 664.461C119.899 663.901 119.613 663.429 119.209 663.045C118.942 662.706 118.564 662.404 118.076 662.137C117.581 661.883 116.934 661.749 116.133 661.736C115.358 661.749 114.723 661.883 114.229 662.137C113.727 662.404 113.337 662.706 113.057 663.045C112.679 663.429 112.399 663.901 112.217 664.461C112.041 665.034 111.953 665.854 111.953 666.922ZM118.271 666.941C118.271 667.632 118.239 668.139 118.174 668.465C118.109 668.797 117.975 669.09 117.773 669.344C117.624 669.539 117.402 669.712 117.109 669.861C116.829 670.005 116.504 670.076 116.133 670.076C115.788 670.076 115.469 670.005 115.176 669.861C114.896 669.712 114.668 669.539 114.492 669.344C114.316 669.09 114.189 668.797 114.111 668.465C114.033 668.139 113.994 667.625 113.994 666.922C113.994 666.212 114.033 665.691 114.111 665.359C114.189 665.04 114.316 664.76 114.492 664.52C114.668 664.292 114.896 664.113 115.176 663.982C115.469 663.846 115.788 663.777 116.133 663.777C116.504 663.777 116.829 663.846 117.109 663.982C117.402 664.113 117.624 664.292 117.773 664.52C117.975 664.76 118.109 665.04 118.174 665.359C118.239 665.691 118.271 666.219 118.271 666.941Z" fill="#82ECA5"/>
<path d="M122.451 672H124.492V665.965C124.492 665.255 124.684 664.715 125.068 664.344C125.446 663.966 125.928 663.777 126.514 663.777C127.1 663.777 127.578 663.966 127.949 664.344C128.327 664.715 128.516 665.255 128.516 665.965V672H130.557V665.262C130.524 664.103 130.163 663.224 129.473 662.625C128.776 662.033 128.008 661.736 127.168 661.736C126.081 661.736 125.202 662.137 124.531 662.938H124.492V661.863H122.451V672Z" fill="#82ECA5"/>
<path d="M133.311 661.863H132.295V663.416H133.311V669.5C133.311 670.301 133.545 670.913 134.014 671.336C134.469 671.779 135.055 672 135.771 672H136.836V670.076H136.074C135.579 670.089 135.339 669.839 135.352 669.324V663.416H136.836V661.863H135.352V658.777H133.311V661.863Z" fill="#82ECA5"/>
<path d="M144.082 672H146.123V665.076C146.11 663.839 145.723 662.967 144.961 662.459C144.199 661.964 143.18 661.723 141.904 661.736C140.394 661.71 139.251 662.205 138.477 663.221L140.078 664.441C140.254 664.148 140.495 663.94 140.801 663.816C141.094 663.712 141.494 663.66 142.002 663.66C143.402 663.634 144.095 664.067 144.082 664.959V666.023H141.26C140.179 666.036 139.359 666.329 138.799 666.902C138.239 667.462 137.959 668.169 137.959 669.021C137.959 669.913 138.281 670.646 138.926 671.219C139.538 671.805 140.41 672.104 141.543 672.117C142.233 672.117 142.773 672.033 143.164 671.863C143.561 671.701 143.854 671.447 144.043 671.102H144.082V672ZM144.082 668.436C144.082 669.197 143.923 669.686 143.604 669.9C143.252 670.115 142.65 670.216 141.797 670.203C141.12 670.203 140.635 670.07 140.342 669.803C140.036 669.562 139.883 669.269 139.883 668.924C139.87 668.136 140.456 667.729 141.641 667.703H144.082V668.436Z" fill="#82ECA5"/>
<path d="M154.717 669.021C154.202 669.712 153.516 670.063 152.656 670.076C150.924 670.109 150.046 669.064 150.02 666.941C150.046 664.806 150.924 663.751 152.656 663.777C153.516 663.803 154.202 664.158 154.717 664.842L156.221 663.504C155.778 662.97 155.257 662.544 154.658 662.225C154.059 661.912 153.366 661.749 152.578 661.736C151.38 661.723 150.329 662.124 149.424 662.938C148.486 663.764 148.005 665.099 147.979 666.941C148.005 668.764 148.486 670.083 149.424 670.896C150.329 671.71 151.38 672.117 152.578 672.117C153.366 672.104 154.059 671.932 154.658 671.6C155.257 671.281 155.778 670.867 156.221 670.359L154.717 669.021Z" fill="#82ECA5"/>
<path d="M157.764 661.863H156.748V663.416H157.764V669.5C157.764 670.301 157.998 670.913 158.467 671.336C158.923 671.779 159.508 672 160.225 672H161.289V670.076H160.527C160.033 670.089 159.792 669.839 159.805 669.324V663.416H161.289V661.863H159.805V658.777H157.764V661.863Z" fill="#82ECA5"/>
<path d="M499.141 655.625C498.182 657.698 496.734 658.734 494.797 658.734C493.984 658.734 493.286 658.562 492.703 658.219C492.109 657.927 491.63 657.547 491.266 657.078C490.818 656.589 490.521 655.948 490.375 655.156C490.208 654.365 490.125 652.849 490.125 650.609C490.125 648.37 490.208 646.844 490.375 646.031C490.521 645.26 490.818 644.63 491.266 644.141C491.63 643.672 492.109 643.281 492.703 642.969C493.286 642.667 493.984 642.505 494.797 642.484C495.901 642.505 496.839 642.823 497.609 643.438C498.349 644.083 498.859 644.865 499.141 645.781H502.797C502.432 643.875 501.557 642.276 500.172 640.984C498.786 639.703 496.995 639.052 494.797 639.031C493.005 639.052 491.51 639.479 490.312 640.312C489.094 641.135 488.208 642.073 487.656 643.125C487.312 643.677 487.057 644.401 486.891 645.297C486.734 646.193 486.656 647.964 486.656 650.609C486.656 653.214 486.734 654.974 486.891 655.891C486.974 656.38 487.078 656.786 487.203 657.109C487.339 657.422 487.49 657.75 487.656 658.094C488.208 659.146 489.094 660.073 490.312 660.875C491.51 661.708 493.005 662.146 494.797 662.188C496.776 662.188 498.49 661.625 499.938 660.5C501.344 659.365 502.297 657.74 502.797 655.625H499.141Z" fill="#82DEA1"/>
<path d="M509.109 662H512.578V642.297H518.812V639.219H502.875V642.297H509.109V662Z" fill="#82DEA1"/>
<path d="M522.906 653.844L526.203 643.891H526.266L529.562 653.844H522.906ZM532.312 662H535.953L527.672 639.219H524.781L516.5 662H520.156L521.906 656.906H530.547L532.312 662Z" fill="#82DEA1"/>
<path d="M130 206H656L541 604H25L130 206Z" fill="#66A3EB" fill-opacity="0.05"/>
<path d="M156 450H606L583 533H130L156 450Z" fill="#66A3EB" fill-opacity="0.15"/>
<path d="M188.818 495.016C188.219 496.311 187.314 496.959 186.104 496.959C185.596 496.959 185.16 496.852 184.795 496.637C184.424 496.454 184.124 496.217 183.896 495.924C183.617 495.618 183.431 495.217 183.34 494.723C183.236 494.228 183.184 493.281 183.184 491.881C183.184 490.481 183.236 489.527 183.34 489.02C183.431 488.538 183.617 488.144 183.896 487.838C184.124 487.545 184.424 487.301 184.795 487.105C185.16 486.917 185.596 486.816 186.104 486.803C186.794 486.816 187.38 487.014 187.861 487.398C188.324 487.802 188.643 488.29 188.818 488.863H191.104C190.876 487.672 190.329 486.673 189.463 485.865C188.597 485.064 187.477 484.658 186.104 484.645C184.984 484.658 184.049 484.924 183.301 485.445C182.539 485.96 181.986 486.546 181.641 487.203C181.426 487.548 181.266 488.001 181.162 488.561C181.064 489.12 181.016 490.227 181.016 491.881C181.016 493.508 181.064 494.609 181.162 495.182C181.214 495.488 181.279 495.742 181.357 495.943C181.442 496.139 181.536 496.344 181.641 496.559C181.986 497.216 182.539 497.796 183.301 498.297C184.049 498.818 184.984 499.091 186.104 499.117C187.34 499.117 188.411 498.766 189.316 498.062C190.195 497.353 190.791 496.337 191.104 495.016H188.818Z" fill="#4B9CFF"/>
<path d="M191.953 493.922C191.953 494.99 192.041 495.803 192.217 496.363C192.399 496.923 192.679 497.408 193.057 497.818C193.337 498.137 193.727 498.424 194.229 498.678C194.723 498.958 195.358 499.104 196.133 499.117C196.934 499.104 197.581 498.958 198.076 498.678C198.343 498.561 198.561 498.421 198.73 498.258C198.919 498.115 199.079 497.968 199.209 497.818C199.613 497.408 199.899 496.923 200.068 496.363C200.231 495.803 200.312 494.99 200.312 493.922C200.312 492.854 200.231 492.034 200.068 491.461C199.899 490.901 199.613 490.429 199.209 490.045C198.942 489.706 198.564 489.404 198.076 489.137C197.581 488.883 196.934 488.749 196.133 488.736C195.358 488.749 194.723 488.883 194.229 489.137C193.727 489.404 193.337 489.706 193.057 490.045C192.679 490.429 192.399 490.901 192.217 491.461C192.041 492.034 191.953 492.854 191.953 493.922ZM198.271 493.941C198.271 494.632 198.239 495.139 198.174 495.465C198.109 495.797 197.975 496.09 197.773 496.344C197.624 496.539 197.402 496.712 197.109 496.861C196.829 497.005 196.504 497.076 196.133 497.076C195.788 497.076 195.469 497.005 195.176 496.861C194.896 496.712 194.668 496.539 194.492 496.344C194.316 496.09 194.189 495.797 194.111 495.465C194.033 495.139 193.994 494.625 193.994 493.922C193.994 493.212 194.033 492.691 194.111 492.359C194.189 492.04 194.316 491.76 194.492 491.52C194.668 491.292 194.896 491.113 195.176 490.982C195.469 490.846 195.788 490.777 196.133 490.777C196.504 490.777 196.829 490.846 197.109 490.982C197.402 491.113 197.624 491.292 197.773 491.52C197.975 491.76 198.109 492.04 198.174 492.359C198.239 492.691 198.271 493.219 198.271 493.941Z" fill="#4B9CFF"/>
<path d="M202.451 499H204.492V492.965C204.492 492.255 204.684 491.715 205.068 491.344C205.446 490.966 205.928 490.777 206.514 490.777C207.1 490.777 207.578 490.966 207.949 491.344C208.327 491.715 208.516 492.255 208.516 492.965V499H210.557V492.262C210.524 491.103 210.163 490.224 209.473 489.625C208.776 489.033 208.008 488.736 207.168 488.736C206.081 488.736 205.202 489.137 204.531 489.938H204.492V488.863H202.451V499Z" fill="#4B9CFF"/>
<path d="M213.311 488.863H212.295V490.416H213.311V496.5C213.311 497.301 213.545 497.913 214.014 498.336C214.469 498.779 215.055 499 215.771 499H216.836V497.076H216.074C215.579 497.089 215.339 496.839 215.352 496.324V490.416H216.836V488.863H215.352V485.777H213.311V488.863Z" fill="#4B9CFF"/>
<path d="M226.621 494.703V493.023C226.608 491.689 226.195 490.641 225.381 489.879C224.58 489.13 223.6 488.749 222.441 488.736C221.96 488.736 221.471 488.824 220.977 489C220.475 489.176 220.023 489.462 219.619 489.859C219.222 490.25 218.896 490.784 218.643 491.461C218.389 492.125 218.262 492.958 218.262 493.961C218.262 495.003 218.408 495.849 218.701 496.5C218.968 497.177 219.316 497.704 219.746 498.082C219.967 498.264 220.205 498.417 220.459 498.541C220.7 498.684 220.947 498.798 221.201 498.883C221.709 499.039 222.23 499.117 222.764 499.117C224.163 499.13 225.381 498.583 226.416 497.477L224.941 496.217C224.29 496.874 223.551 497.203 222.725 497.203C222.015 497.203 221.442 496.988 221.006 496.559C220.537 496.135 220.303 495.517 220.303 494.703H226.621ZM220.303 493.023C220.342 492.236 220.553 491.64 220.938 491.236C221.328 490.852 221.829 490.66 222.441 490.66C223.053 490.66 223.555 490.852 223.945 491.236C224.342 491.64 224.554 492.236 224.58 493.023H220.303Z" fill="#4B9CFF"/>
<path d="M228.76 499H230.801V492.965C230.801 492.255 230.993 491.715 231.377 491.344C231.755 490.966 232.236 490.777 232.822 490.777C233.408 490.777 233.887 490.966 234.258 491.344C234.635 491.715 234.824 492.255 234.824 492.965V499H236.865V492.262C236.833 491.103 236.471 490.224 235.781 489.625C235.085 489.033 234.316 488.736 233.477 488.736C232.389 488.736 231.51 489.137 230.84 489.938H230.801V488.863H228.76V499Z" fill="#4B9CFF"/>
<path d="M239.619 488.863H238.604V490.416H239.619V496.5C239.619 497.301 239.854 497.913 240.322 498.336C240.778 498.779 241.364 499 242.08 499H243.145V497.076H242.383C241.888 497.089 241.647 496.839 241.66 496.324V490.416H243.145V488.863H241.66V485.777H239.619V488.863Z" fill="#4B9CFF"/>
<path d="M252.07 492.564H252.93C253.561 492.564 254.082 492.757 254.492 493.141C254.909 493.538 255.124 494.098 255.137 494.82C255.124 495.53 254.909 496.077 254.492 496.461C254.082 496.871 253.577 497.076 252.979 497.076C252.419 497.076 251.969 496.923 251.631 496.617C251.299 496.324 251.042 495.94 250.859 495.465H248.818C249.04 496.65 249.525 497.555 250.273 498.18C251.022 498.805 251.882 499.117 252.852 499.117C254.108 499.104 255.137 498.704 255.938 497.916C256.751 497.148 257.165 496.096 257.178 494.762C257.178 494.163 257.051 493.59 256.797 493.043C256.53 492.496 256.097 492.027 255.498 491.637C256.084 491.24 256.491 490.787 256.719 490.279C256.914 489.771 257.012 489.244 257.012 488.697C256.999 487.617 256.628 486.679 255.898 485.885C255.137 485.071 254.108 484.658 252.812 484.645C251.79 484.658 250.911 485.022 250.176 485.738C249.427 486.461 249.001 487.35 248.896 488.404H250.938C251.068 487.818 251.322 487.385 251.699 487.105C252.057 486.826 252.454 486.686 252.891 486.686C253.496 486.699 253.991 486.891 254.375 487.262C254.759 487.646 254.958 488.137 254.971 488.736C254.971 489.329 254.779 489.811 254.395 490.182C254.01 490.566 253.47 490.758 252.773 490.758H252.07V492.564Z" fill="#4B9CFF"/>
<path d="M259.541 499H261.582V496.959H259.541V499Z" fill="#4B9CFF"/>
<path d="M264.346 499H266.387V496.959H264.346V499Z" fill="#4B9CFF"/>
<path d="M269.15 499H271.191V496.959H269.15V499Z" fill="#4B9CFF"/>
<path d="M156 381H606L583 464H130L156 381Z" fill="#66A3EB" fill-opacity="0.15"/>
<path d="M188.818 426.016C188.219 427.311 187.314 427.959 186.104 427.959C185.596 427.959 185.16 427.852 184.795 427.637C184.424 427.454 184.124 427.217 183.896 426.924C183.617 426.618 183.431 426.217 183.34 425.723C183.236 425.228 183.184 424.281 183.184 422.881C183.184 421.481 183.236 420.527 183.34 420.02C183.431 419.538 183.617 419.144 183.896 418.838C184.124 418.545 184.424 418.301 184.795 418.105C185.16 417.917 185.596 417.816 186.104 417.803C186.794 417.816 187.38 418.014 187.861 418.398C188.324 418.802 188.643 419.29 188.818 419.863H191.104C190.876 418.672 190.329 417.673 189.463 416.865C188.597 416.064 187.477 415.658 186.104 415.645C184.984 415.658 184.049 415.924 183.301 416.445C182.539 416.96 181.986 417.546 181.641 418.203C181.426 418.548 181.266 419.001 181.162 419.561C181.064 420.12 181.016 421.227 181.016 422.881C181.016 424.508 181.064 425.609 181.162 426.182C181.214 426.488 181.279 426.742 181.357 426.943C181.442 427.139 181.536 427.344 181.641 427.559C181.986 428.216 182.539 428.796 183.301 429.297C184.049 429.818 184.984 430.091 186.104 430.117C187.34 430.117 188.411 429.766 189.316 429.062C190.195 428.353 190.791 427.337 191.104 426.016H188.818Z" fill="#4B9CFF"/>
<path d="M191.953 424.922C191.953 425.99 192.041 426.803 192.217 427.363C192.399 427.923 192.679 428.408 193.057 428.818C193.337 429.137 193.727 429.424 194.229 429.678C194.723 429.958 195.358 430.104 196.133 430.117C196.934 430.104 197.581 429.958 198.076 429.678C198.343 429.561 198.561 429.421 198.73 429.258C198.919 429.115 199.079 428.968 199.209 428.818C199.613 428.408 199.899 427.923 200.068 427.363C200.231 426.803 200.312 425.99 200.312 424.922C200.312 423.854 200.231 423.034 200.068 422.461C199.899 421.901 199.613 421.429 199.209 421.045C198.942 420.706 198.564 420.404 198.076 420.137C197.581 419.883 196.934 419.749 196.133 419.736C195.358 419.749 194.723 419.883 194.229 420.137C193.727 420.404 193.337 420.706 193.057 421.045C192.679 421.429 192.399 421.901 192.217 422.461C192.041 423.034 191.953 423.854 191.953 424.922ZM198.271 424.941C198.271 425.632 198.239 426.139 198.174 426.465C198.109 426.797 197.975 427.09 197.773 427.344C197.624 427.539 197.402 427.712 197.109 427.861C196.829 428.005 196.504 428.076 196.133 428.076C195.788 428.076 195.469 428.005 195.176 427.861C194.896 427.712 194.668 427.539 194.492 427.344C194.316 427.09 194.189 426.797 194.111 426.465C194.033 426.139 193.994 425.625 193.994 424.922C193.994 424.212 194.033 423.691 194.111 423.359C194.189 423.04 194.316 422.76 194.492 422.52C194.668 422.292 194.896 422.113 195.176 421.982C195.469 421.846 195.788 421.777 196.133 421.777C196.504 421.777 196.829 421.846 197.109 421.982C197.402 422.113 197.624 422.292 197.773 422.52C197.975 422.76 198.109 423.04 198.174 423.359C198.239 423.691 198.271 424.219 198.271 424.941Z" fill="#4B9CFF"/>
<path d="M202.451 430H204.492V423.965C204.492 423.255 204.684 422.715 205.068 422.344C205.446 421.966 205.928 421.777 206.514 421.777C207.1 421.777 207.578 421.966 207.949 422.344C208.327 422.715 208.516 423.255 208.516 423.965V430H210.557V423.262C210.524 422.103 210.163 421.224 209.473 420.625C208.776 420.033 208.008 419.736 207.168 419.736C206.081 419.736 205.202 420.137 204.531 420.938H204.492V419.863H202.451V430Z" fill="#4B9CFF"/>
<path d="M213.311 419.863H212.295V421.416H213.311V427.5C213.311 428.301 213.545 428.913 214.014 429.336C214.469 429.779 215.055 430 215.771 430H216.836V428.076H216.074C215.579 428.089 215.339 427.839 215.352 427.324V421.416H216.836V419.863H215.352V416.777H213.311V419.863Z" fill="#4B9CFF"/>
<path d="M226.621 425.703V424.023C226.608 422.689 226.195 421.641 225.381 420.879C224.58 420.13 223.6 419.749 222.441 419.736C221.96 419.736 221.471 419.824 220.977 420C220.475 420.176 220.023 420.462 219.619 420.859C219.222 421.25 218.896 421.784 218.643 422.461C218.389 423.125 218.262 423.958 218.262 424.961C218.262 426.003 218.408 426.849 218.701 427.5C218.968 428.177 219.316 428.704 219.746 429.082C219.967 429.264 220.205 429.417 220.459 429.541C220.7 429.684 220.947 429.798 221.201 429.883C221.709 430.039 222.23 430.117 222.764 430.117C224.163 430.13 225.381 429.583 226.416 428.477L224.941 427.217C224.29 427.874 223.551 428.203 222.725 428.203C222.015 428.203 221.442 427.988 221.006 427.559C220.537 427.135 220.303 426.517 220.303 425.703H226.621ZM220.303 424.023C220.342 423.236 220.553 422.64 220.938 422.236C221.328 421.852 221.829 421.66 222.441 421.66C223.053 421.66 223.555 421.852 223.945 422.236C224.342 422.64 224.554 423.236 224.58 424.023H220.303Z" fill="#4B9CFF"/>
<path d="M228.76 430H230.801V423.965C230.801 423.255 230.993 422.715 231.377 422.344C231.755 421.966 232.236 421.777 232.822 421.777C233.408 421.777 233.887 421.966 234.258 422.344C234.635 422.715 234.824 423.255 234.824 423.965V430H236.865V423.262C236.833 422.103 236.471 421.224 235.781 420.625C235.085 420.033 234.316 419.736 233.477 419.736C232.389 419.736 231.51 420.137 230.84 420.938H230.801V419.863H228.76V430Z" fill="#4B9CFF"/>
<path d="M239.619 419.863H238.604V421.416H239.619V427.5C239.619 428.301 239.854 428.913 240.322 429.336C240.778 429.779 241.364 430 242.08 430H243.145V428.076H242.383C241.888 428.089 241.647 427.839 241.66 427.324V421.416H243.145V419.863H241.66V416.777H239.619V419.863Z" fill="#4B9CFF"/>
<path d="M249.199 430H257.314V427.959H251.875L256.455 422.217C257.028 421.488 257.314 420.654 257.314 419.717C257.301 418.545 256.908 417.578 256.133 416.816C255.371 416.048 254.378 415.658 253.154 415.645C252.061 415.658 251.139 416.042 250.391 416.797C249.648 417.572 249.251 418.551 249.199 419.736H251.23C251.302 419.085 251.53 418.581 251.914 418.223C252.285 417.865 252.751 417.686 253.311 417.686C253.942 417.699 254.43 417.904 254.775 418.301C255.107 418.698 255.273 419.163 255.273 419.697C255.273 419.899 255.247 420.114 255.195 420.342C255.117 420.583 254.971 420.843 254.756 421.123L249.199 428.076V430Z" fill="#4B9CFF"/>
<path d="M259.541 430H261.582V427.959H259.541V430Z" fill="#4B9CFF"/>
<path d="M264.346 430H266.387V427.959H264.346V430Z" fill="#4B9CFF"/>
<path d="M269.15 430H271.191V427.959H269.15V430Z" fill="#4B9CFF"/>
<path d="M156 312H606L583 395H130L156 312Z" fill="#66A3EB" fill-opacity="0.15"/>
<path d="M188.818 357.016C188.219 358.311 187.314 358.959 186.104 358.959C185.596 358.959 185.16 358.852 184.795 358.637C184.424 358.454 184.124 358.217 183.896 357.924C183.617 357.618 183.431 357.217 183.34 356.723C183.236 356.228 183.184 355.281 183.184 353.881C183.184 352.481 183.236 351.527 183.34 351.02C183.431 350.538 183.617 350.144 183.896 349.838C184.124 349.545 184.424 349.301 184.795 349.105C185.16 348.917 185.596 348.816 186.104 348.803C186.794 348.816 187.38 349.014 187.861 349.398C188.324 349.802 188.643 350.29 188.818 350.863H191.104C190.876 349.672 190.329 348.673 189.463 347.865C188.597 347.064 187.477 346.658 186.104 346.645C184.984 346.658 184.049 346.924 183.301 347.445C182.539 347.96 181.986 348.546 181.641 349.203C181.426 349.548 181.266 350.001 181.162 350.561C181.064 351.12 181.016 352.227 181.016 353.881C181.016 355.508 181.064 356.609 181.162 357.182C181.214 357.488 181.279 357.742 181.357 357.943C181.442 358.139 181.536 358.344 181.641 358.559C181.986 359.216 182.539 359.796 183.301 360.297C184.049 360.818 184.984 361.091 186.104 361.117C187.34 361.117 188.411 360.766 189.316 360.062C190.195 359.353 190.791 358.337 191.104 357.016H188.818Z" fill="#4B9CFF"/>
<path d="M191.953 355.922C191.953 356.99 192.041 357.803 192.217 358.363C192.399 358.923 192.679 359.408 193.057 359.818C193.337 360.137 193.727 360.424 194.229 360.678C194.723 360.958 195.358 361.104 196.133 361.117C196.934 361.104 197.581 360.958 198.076 360.678C198.343 360.561 198.561 360.421 198.73 360.258C198.919 360.115 199.079 359.968 199.209 359.818C199.613 359.408 199.899 358.923 200.068 358.363C200.231 357.803 200.312 356.99 200.312 355.922C200.312 354.854 200.231 354.034 200.068 353.461C199.899 352.901 199.613 352.429 199.209 352.045C198.942 351.706 198.564 351.404 198.076 351.137C197.581 350.883 196.934 350.749 196.133 350.736C195.358 350.749 194.723 350.883 194.229 351.137C193.727 351.404 193.337 351.706 193.057 352.045C192.679 352.429 192.399 352.901 192.217 353.461C192.041 354.034 191.953 354.854 191.953 355.922ZM198.271 355.941C198.271 356.632 198.239 357.139 198.174 357.465C198.109 357.797 197.975 358.09 197.773 358.344C197.624 358.539 197.402 358.712 197.109 358.861C196.829 359.005 196.504 359.076 196.133 359.076C195.788 359.076 195.469 359.005 195.176 358.861C194.896 358.712 194.668 358.539 194.492 358.344C194.316 358.09 194.189 357.797 194.111 357.465C194.033 357.139 193.994 356.625 193.994 355.922C193.994 355.212 194.033 354.691 194.111 354.359C194.189 354.04 194.316 353.76 194.492 353.52C194.668 353.292 194.896 353.113 195.176 352.982C195.469 352.846 195.788 352.777 196.133 352.777C196.504 352.777 196.829 352.846 197.109 352.982C197.402 353.113 197.624 353.292 197.773 353.52C197.975 353.76 198.109 354.04 198.174 354.359C198.239 354.691 198.271 355.219 198.271 355.941Z" fill="#4B9CFF"/>
<path d="M202.451 361H204.492V354.965C204.492 354.255 204.684 353.715 205.068 353.344C205.446 352.966 205.928 352.777 206.514 352.777C207.1 352.777 207.578 352.966 207.949 353.344C208.327 353.715 208.516 354.255 208.516 354.965V361H210.557V354.262C210.524 353.103 210.163 352.224 209.473 351.625C208.776 351.033 208.008 350.736 207.168 350.736C206.081 350.736 205.202 351.137 204.531 351.938H204.492V350.863H202.451V361Z" fill="#4B9CFF"/>
<path d="M213.311 350.863H212.295V352.416H213.311V358.5C213.311 359.301 213.545 359.913 214.014 360.336C214.469 360.779 215.055 361 215.771 361H216.836V359.076H216.074C215.579 359.089 215.339 358.839 215.352 358.324V352.416H216.836V350.863H215.352V347.777H213.311V350.863Z" fill="#4B9CFF"/>
<path d="M226.621 356.703V355.023C226.608 353.689 226.195 352.641 225.381 351.879C224.58 351.13 223.6 350.749 222.441 350.736C221.96 350.736 221.471 350.824 220.977 351C220.475 351.176 220.023 351.462 219.619 351.859C219.222 352.25 218.896 352.784 218.643 353.461C218.389 354.125 218.262 354.958 218.262 355.961C218.262 357.003 218.408 357.849 218.701 358.5C218.968 359.177 219.316 359.704 219.746 360.082C219.967 360.264 220.205 360.417 220.459 360.541C220.7 360.684 220.947 360.798 221.201 360.883C221.709 361.039 222.23 361.117 222.764 361.117C224.163 361.13 225.381 360.583 226.416 359.477L224.941 358.217C224.29 358.874 223.551 359.203 222.725 359.203C222.015 359.203 221.442 358.988 221.006 358.559C220.537 358.135 220.303 357.517 220.303 356.703H226.621ZM220.303 355.023C220.342 354.236 220.553 353.64 220.938 353.236C221.328 352.852 221.829 352.66 222.441 352.66C223.053 352.66 223.555 352.852 223.945 353.236C224.342 353.64 224.554 354.236 224.58 355.023H220.303Z" fill="#4B9CFF"/>
<path d="M228.76 361H230.801V354.965C230.801 354.255 230.993 353.715 231.377 353.344C231.755 352.966 232.236 352.777 232.822 352.777C233.408 352.777 233.887 352.966 234.258 353.344C234.635 353.715 234.824 354.255 234.824 354.965V361H236.865V354.262C236.833 353.103 236.471 352.224 235.781 351.625C235.085 351.033 234.316 350.736 233.477 350.736C232.389 350.736 231.51 351.137 230.84 351.938H230.801V350.863H228.76V361Z" fill="#4B9CFF"/>
<path d="M239.619 350.863H238.604V352.416H239.619V358.5C239.619 359.301 239.854 359.913 240.322 360.336C240.778 360.779 241.364 361 242.08 361H243.145V359.076H242.383C241.888 359.089 241.647 358.839 241.66 358.324V352.416H243.145V350.863H241.66V347.777H239.619V350.863Z" fill="#4B9CFF"/>
<path d="M252.432 348.92V361H254.473V346.762H252.432L250.41 348.236V350.404L252.432 348.92Z" fill="#4B9CFF"/>
<path d="M259.541 361H261.582V358.959H259.541V361Z" fill="#4B9CFF"/>
<path d="M264.346 361H266.387V358.959H264.346V361Z" fill="#4B9CFF"/>
<path d="M269.15 361H271.191V358.959H269.15V361Z" fill="#4B9CFF"/>
<path d="M256 287H259.453V272.797H259.516L264.281 283.734H267.156L271.922 272.797H272V287H275.453V264.219H272.188L265.781 279.062L259.25 264.219H256V287Z" fill="#66A3EB"/>
<path d="M288.469 287H291.734V275.922C291.714 273.943 291.094 272.547 289.875 271.734C288.656 270.943 287.026 270.557 284.984 270.578C282.568 270.536 280.74 271.328 279.5 272.953L282.062 274.906C282.344 274.438 282.729 274.104 283.219 273.906C283.688 273.74 284.328 273.656 285.141 273.656C287.38 273.615 288.49 274.307 288.469 275.734V277.438H283.953C282.224 277.458 280.911 277.927 280.016 278.844C279.12 279.74 278.672 280.87 278.672 282.234C278.672 283.661 279.188 284.833 280.219 285.75C281.198 286.688 282.594 287.167 284.406 287.188C285.51 287.188 286.375 287.052 287 286.781C287.635 286.521 288.104 286.115 288.406 285.562H288.469V287ZM288.469 281.297C288.469 282.516 288.214 283.297 287.703 283.641C287.141 283.984 286.177 284.146 284.812 284.125C283.729 284.125 282.953 283.911 282.484 283.484C281.995 283.099 281.75 282.63 281.75 282.078C281.729 280.818 282.667 280.167 284.562 280.125H288.469V281.297Z" fill="#66A3EB"/>
<path d="M296.047 287H299.312V270.781H296.047V287ZM296.047 267.484H299.312V264.219H296.047V267.484Z" fill="#66A3EB"/>
<path d="M303.641 287H306.906V277.344C306.906 276.208 307.214 275.344 307.828 274.75C308.432 274.146 309.203 273.844 310.141 273.844C311.078 273.844 311.844 274.146 312.438 274.75C313.042 275.344 313.344 276.208 313.344 277.344V287H316.609V276.219C316.557 274.365 315.979 272.958 314.875 272C313.76 271.052 312.531 270.578 311.188 270.578C309.448 270.578 308.042 271.219 306.969 272.5H306.906V270.781H303.641V287Z" fill="#66A3EB"/>
<path d="M340.516 280.625C339.557 282.698 338.109 283.734 336.172 283.734C335.359 283.734 334.661 283.562 334.078 283.219C333.484 282.927 333.005 282.547 332.641 282.078C332.193 281.589 331.896 280.948 331.75 280.156C331.583 279.365 331.5 277.849 331.5 275.609C331.5 273.37 331.583 271.844 331.75 271.031C331.896 270.26 332.193 269.63 332.641 269.141C333.005 268.672 333.484 268.281 334.078 267.969C334.661 267.667 335.359 267.505 336.172 267.484C337.276 267.505 338.214 267.823 338.984 268.438C339.724 269.083 340.234 269.865 340.516 270.781H344.172C343.807 268.875 342.932 267.276 341.547 265.984C340.161 264.703 338.37 264.052 336.172 264.031C334.38 264.052 332.885 264.479 331.688 265.312C330.469 266.135 329.583 267.073 329.031 268.125C328.688 268.677 328.432 269.401 328.266 270.297C328.109 271.193 328.031 272.964 328.031 275.609C328.031 278.214 328.109 279.974 328.266 280.891C328.349 281.38 328.453 281.786 328.578 282.109C328.714 282.422 328.865 282.75 329.031 283.094C329.583 284.146 330.469 285.073 331.688 285.875C332.885 286.708 334.38 287.146 336.172 287.188C338.151 287.188 339.865 286.625 341.312 285.5C342.719 284.365 343.672 282.74 344.172 280.625H340.516Z" fill="#66A3EB"/>
<path d="M345.531 278.875C345.531 280.583 345.672 281.885 345.953 282.781C346.245 283.677 346.693 284.453 347.297 285.109C347.745 285.62 348.37 286.078 349.172 286.484C349.964 286.932 350.979 287.167 352.219 287.188C353.5 287.167 354.536 286.932 355.328 286.484C355.755 286.297 356.104 286.073 356.375 285.812C356.677 285.583 356.932 285.349 357.141 285.109C357.786 284.453 358.245 283.677 358.516 282.781C358.776 281.885 358.906 280.583 358.906 278.875C358.906 277.167 358.776 275.854 358.516 274.938C358.245 274.042 357.786 273.286 357.141 272.672C356.714 272.13 356.109 271.646 355.328 271.219C354.536 270.812 353.5 270.599 352.219 270.578C350.979 270.599 349.964 270.812 349.172 271.219C348.37 271.646 347.745 272.13 347.297 272.672C346.693 273.286 346.245 274.042 345.953 274.938C345.672 275.854 345.531 277.167 345.531 278.875ZM355.641 278.906C355.641 280.01 355.589 280.823 355.484 281.344C355.38 281.875 355.167 282.344 354.844 282.75C354.604 283.062 354.25 283.339 353.781 283.578C353.333 283.807 352.812 283.922 352.219 283.922C351.667 283.922 351.156 283.807 350.688 283.578C350.24 283.339 349.875 283.062 349.594 282.75C349.312 282.344 349.109 281.875 348.984 281.344C348.859 280.823 348.797 280 348.797 278.875C348.797 277.74 348.859 276.906 348.984 276.375C349.109 275.865 349.312 275.417 349.594 275.031C349.875 274.667 350.24 274.38 350.688 274.172C351.156 273.953 351.667 273.844 352.219 273.844C352.812 273.844 353.333 273.953 353.781 274.172C354.25 274.38 354.604 274.667 354.844 275.031C355.167 275.417 355.38 275.865 355.484 276.375C355.589 276.906 355.641 277.75 355.641 278.906Z" fill="#66A3EB"/>
<path d="M362.328 287H365.594V277.344C365.594 276.208 365.901 275.344 366.516 274.75C367.12 274.146 367.891 273.844 368.828 273.844C369.766 273.844 370.531 274.146 371.125 274.75C371.729 275.344 372.031 276.208 372.031 277.344V287H375.297V276.219C375.245 274.365 374.667 272.958 373.562 272C372.448 271.052 371.219 270.578 369.875 270.578C368.135 270.578 366.729 271.219 365.656 272.5H365.594V270.781H362.328V287Z" fill="#66A3EB"/>
<path d="M379.703 270.781H378.078V273.266H379.703V283C379.703 284.281 380.078 285.26 380.828 285.938C381.557 286.646 382.495 287 383.641 287H385.344V283.922H384.125C383.333 283.943 382.948 283.542 382.969 282.719V273.266H385.344V270.781H382.969V265.844H379.703V270.781Z" fill="#66A3EB"/>
<path d="M401 280.125V277.438C400.979 275.302 400.318 273.625 399.016 272.406C397.734 271.208 396.167 270.599 394.312 270.578C393.542 270.578 392.76 270.719 391.969 271C391.167 271.281 390.443 271.74 389.797 272.375C389.161 273 388.641 273.854 388.234 274.938C387.828 276 387.625 277.333 387.625 278.938C387.625 280.604 387.859 281.958 388.328 283C388.755 284.083 389.312 284.927 390 285.531C390.354 285.823 390.734 286.068 391.141 286.266C391.526 286.495 391.922 286.677 392.328 286.812C393.141 287.062 393.974 287.188 394.828 287.188C397.068 287.208 399.016 286.333 400.672 284.562L398.312 282.547C397.271 283.599 396.089 284.125 394.766 284.125C393.63 284.125 392.714 283.781 392.016 283.094C391.266 282.417 390.891 281.427 390.891 280.125H401ZM390.891 277.438C390.953 276.177 391.292 275.224 391.906 274.578C392.531 273.964 393.333 273.656 394.312 273.656C395.292 273.656 396.094 273.964 396.719 274.578C397.354 275.224 397.693 276.177 397.734 277.438H390.891Z" fill="#66A3EB"/>
<path d="M404.422 287H407.688V277.344C407.688 276.208 407.995 275.344 408.609 274.75C409.214 274.146 409.984 273.844 410.922 273.844C411.859 273.844 412.625 274.146 413.219 274.75C413.823 275.344 414.125 276.208 414.125 277.344V287H417.391V276.219C417.339 274.365 416.76 272.958 415.656 272C414.542 271.052 413.312 270.578 411.969 270.578C410.229 270.578 408.823 271.219 407.75 272.5H407.688V270.781H404.422V287Z" fill="#66A3EB"/>
<path d="M421.797 270.781H420.172V273.266H421.797V283C421.797 284.281 422.172 285.26 422.922 285.938C423.651 286.646 424.589 287 425.734 287H427.438V283.922H426.219C425.427 283.943 425.042 283.542 425.062 282.719V273.266H427.438V270.781H425.062V265.844H421.797V270.781Z" fill="#66A3EB"/>
<path d="M84 69H610L570 229H54L84 69Z" fill="#F92A75" fill-opacity="0.05"/>
<path d="M115.504 142H117.662V131.883H117.701L124.137 142H126.178V127.762H124.02V137.879H123.98L117.535 127.762H115.504V142Z" fill="#FF91B9"/>
<path d="M134.332 142H136.373V135.076C136.36 133.839 135.973 132.967 135.211 132.459C134.449 131.964 133.43 131.723 132.154 131.736C130.644 131.71 129.501 132.205 128.727 133.221L130.328 134.441C130.504 134.148 130.745 133.94 131.051 133.816C131.344 133.712 131.744 133.66 132.252 133.66C133.652 133.634 134.345 134.067 134.332 134.959V136.023H131.51C130.429 136.036 129.609 136.329 129.049 136.902C128.489 137.462 128.209 138.169 128.209 139.021C128.209 139.913 128.531 140.646 129.176 141.219C129.788 141.805 130.66 142.104 131.793 142.117C132.483 142.117 133.023 142.033 133.414 141.863C133.811 141.701 134.104 141.447 134.293 141.102H134.332V142ZM134.332 138.436C134.332 139.197 134.173 139.686 133.854 139.9C133.502 140.115 132.9 140.216 132.047 140.203C131.37 140.203 130.885 140.07 130.592 139.803C130.286 139.562 130.133 139.269 130.133 138.924C130.12 138.136 130.706 137.729 131.891 137.703H134.332V138.436Z" fill="#FF91B9"/>
<path d="M141.295 142H142.975L146.695 131.863H144.527L142.154 138.963H142.115L139.732 131.863H137.574L141.295 142Z" fill="#FF91B9"/>
<path d="M147.955 142H149.996V131.863H147.955V142ZM147.955 129.803H149.996V127.762H147.955V129.803Z" fill="#FF91B9"/>
<path d="M158.404 140.936V141.98C158.391 142.671 158.176 143.211 157.76 143.602C157.337 143.986 156.777 144.178 156.08 144.178C155.709 144.165 155.351 144.064 155.006 143.875C154.667 143.706 154.368 143.501 154.107 143.26L152.525 144.52C153.495 145.626 154.667 146.193 156.041 146.219C157.239 146.219 158.268 145.851 159.127 145.115C159.98 144.399 160.419 143.279 160.445 141.756V131.863H158.404V132.938C157.669 132.137 156.796 131.736 155.787 131.736C155.13 131.749 154.583 131.876 154.146 132.117C153.691 132.371 153.342 132.658 153.102 132.977C152.835 133.302 152.643 133.702 152.525 134.178C152.402 134.66 152.34 135.581 152.34 136.941C152.34 138.276 152.402 139.181 152.525 139.656C152.643 140.138 152.835 140.545 153.102 140.877C153.342 141.17 153.691 141.443 154.146 141.697C154.583 141.964 155.13 142.104 155.787 142.117C156.861 142.091 157.734 141.697 158.404 140.936ZM154.381 136.941C154.381 136.154 154.407 135.607 154.459 135.301C154.505 134.995 154.612 134.747 154.781 134.559C154.918 134.376 155.126 134.197 155.406 134.021C155.673 133.872 156.005 133.79 156.402 133.777C156.799 133.79 157.132 133.872 157.398 134.021C157.665 134.197 157.867 134.376 158.004 134.559C158.173 134.747 158.287 134.995 158.346 135.301C158.385 135.607 158.404 136.154 158.404 136.941C158.404 137.716 158.385 138.25 158.346 138.543C158.287 138.849 158.173 139.103 158.004 139.305C157.867 139.487 157.665 139.653 157.398 139.803C157.132 139.985 156.799 140.076 156.402 140.076C156.005 140.076 155.673 139.985 155.406 139.803C155.126 139.653 154.918 139.487 154.781 139.305C154.612 139.103 154.505 138.849 154.459 138.543C154.407 138.25 154.381 137.716 154.381 136.941Z" fill="#FF91B9"/>
<path d="M168.414 142H170.455V135.076C170.442 133.839 170.055 132.967 169.293 132.459C168.531 131.964 167.512 131.723 166.236 131.736C164.726 131.71 163.583 132.205 162.809 133.221L164.41 134.441C164.586 134.148 164.827 133.94 165.133 133.816C165.426 133.712 165.826 133.66 166.334 133.66C167.734 133.634 168.427 134.067 168.414 134.959V136.023H165.592C164.511 136.036 163.691 136.329 163.131 136.902C162.571 137.462 162.291 138.169 162.291 139.021C162.291 139.913 162.613 140.646 163.258 141.219C163.87 141.805 164.742 142.104 165.875 142.117C166.565 142.117 167.105 142.033 167.496 141.863C167.893 141.701 168.186 141.447 168.375 141.102H168.414V142ZM168.414 138.436C168.414 139.197 168.255 139.686 167.936 139.9C167.584 140.115 166.982 140.216 166.129 140.203C165.452 140.203 164.967 140.07 164.674 139.803C164.368 139.562 164.215 139.269 164.215 138.924C164.202 138.136 164.788 137.729 165.973 137.703H168.414V138.436Z" fill="#FF91B9"/>
<path d="M173.209 131.863H172.193V133.416H173.209V139.5C173.209 140.301 173.443 140.913 173.912 141.336C174.368 141.779 174.954 142 175.67 142H176.734V140.076H175.973C175.478 140.089 175.237 139.839 175.25 139.324V133.416H176.734V131.863H175.25V128.777H173.209V131.863Z" fill="#FF91B9"/>
<path d="M178.717 142H180.758V131.863H178.717V142ZM178.717 129.803H180.758V127.762H178.717V129.803Z" fill="#FF91B9"/>
<path d="M182.965 136.922C182.965 137.99 183.053 138.803 183.229 139.363C183.411 139.923 183.691 140.408 184.068 140.818C184.348 141.137 184.739 141.424 185.24 141.678C185.735 141.958 186.37 142.104 187.145 142.117C187.945 142.104 188.593 141.958 189.088 141.678C189.355 141.561 189.573 141.421 189.742 141.258C189.931 141.115 190.09 140.968 190.221 140.818C190.624 140.408 190.911 139.923 191.08 139.363C191.243 138.803 191.324 137.99 191.324 136.922C191.324 135.854 191.243 135.034 191.08 134.461C190.911 133.901 190.624 133.429 190.221 133.045C189.954 132.706 189.576 132.404 189.088 132.137C188.593 131.883 187.945 131.749 187.145 131.736C186.37 131.749 185.735 131.883 185.24 132.137C184.739 132.404 184.348 132.706 184.068 133.045C183.691 133.429 183.411 133.901 183.229 134.461C183.053 135.034 182.965 135.854 182.965 136.922ZM189.283 136.941C189.283 137.632 189.251 138.139 189.186 138.465C189.12 138.797 188.987 139.09 188.785 139.344C188.635 139.539 188.414 139.712 188.121 139.861C187.841 140.005 187.516 140.076 187.145 140.076C186.799 140.076 186.48 140.005 186.188 139.861C185.908 139.712 185.68 139.539 185.504 139.344C185.328 139.09 185.201 138.797 185.123 138.465C185.045 138.139 185.006 137.625 185.006 136.922C185.006 136.212 185.045 135.691 185.123 135.359C185.201 135.04 185.328 134.76 185.504 134.52C185.68 134.292 185.908 134.113 186.188 133.982C186.48 133.846 186.799 133.777 187.145 133.777C187.516 133.777 187.841 133.846 188.121 133.982C188.414 134.113 188.635 134.292 188.785 134.52C188.987 134.76 189.12 135.04 189.186 135.359C189.251 135.691 189.283 136.219 189.283 136.941Z" fill="#FF91B9"/>
<path d="M193.463 142H195.504V135.965C195.504 135.255 195.696 134.715 196.08 134.344C196.458 133.966 196.939 133.777 197.525 133.777C198.111 133.777 198.59 133.966 198.961 134.344C199.339 134.715 199.527 135.255 199.527 135.965V142H201.568V135.262C201.536 134.103 201.174 133.224 200.484 132.625C199.788 132.033 199.02 131.736 198.18 131.736C197.092 131.736 196.214 132.137 195.543 132.938H195.504V131.863H193.463V142Z" fill="#FF91B9"/>
<path d="M115.504 170H124.596V167.959H117.662V155.762H115.504V170Z" fill="#FF91B9"/>
<path d="M125.953 164.922C125.953 165.99 126.041 166.803 126.217 167.363C126.399 167.923 126.679 168.408 127.057 168.818C127.337 169.137 127.727 169.424 128.229 169.678C128.723 169.958 129.358 170.104 130.133 170.117C130.934 170.104 131.581 169.958 132.076 169.678C132.343 169.561 132.561 169.421 132.73 169.258C132.919 169.115 133.079 168.968 133.209 168.818C133.613 168.408 133.899 167.923 134.068 167.363C134.231 166.803 134.312 165.99 134.312 164.922C134.312 163.854 134.231 163.034 134.068 162.461C133.899 161.901 133.613 161.429 133.209 161.045C132.942 160.706 132.564 160.404 132.076 160.137C131.581 159.883 130.934 159.749 130.133 159.736C129.358 159.749 128.723 159.883 128.229 160.137C127.727 160.404 127.337 160.706 127.057 161.045C126.679 161.429 126.399 161.901 126.217 162.461C126.041 163.034 125.953 163.854 125.953 164.922ZM132.271 164.941C132.271 165.632 132.239 166.139 132.174 166.465C132.109 166.797 131.975 167.09 131.773 167.344C131.624 167.539 131.402 167.712 131.109 167.861C130.829 168.005 130.504 168.076 130.133 168.076C129.788 168.076 129.469 168.005 129.176 167.861C128.896 167.712 128.668 167.539 128.492 167.344C128.316 167.09 128.189 166.797 128.111 166.465C128.033 166.139 127.994 165.625 127.994 164.922C127.994 164.212 128.033 163.691 128.111 163.359C128.189 163.04 128.316 162.76 128.492 162.52C128.668 162.292 128.896 162.113 129.176 161.982C129.469 161.846 129.788 161.777 130.133 161.777C130.504 161.777 130.829 161.846 131.109 161.982C131.402 162.113 131.624 162.292 131.773 162.52C131.975 162.76 132.109 163.04 132.174 163.359C132.239 163.691 132.271 164.219 132.271 164.941Z" fill="#FF91B9"/>
<path d="M142.154 168.936V169.98C142.141 170.671 141.926 171.211 141.51 171.602C141.087 171.986 140.527 172.178 139.83 172.178C139.459 172.165 139.101 172.064 138.756 171.875C138.417 171.706 138.118 171.501 137.857 171.26L136.275 172.52C137.245 173.626 138.417 174.193 139.791 174.219C140.989 174.219 142.018 173.851 142.877 173.115C143.73 172.399 144.169 171.279 144.195 169.756V159.863H142.154V160.938C141.419 160.137 140.546 159.736 139.537 159.736C138.88 159.749 138.333 159.876 137.896 160.117C137.441 160.371 137.092 160.658 136.852 160.977C136.585 161.302 136.393 161.702 136.275 162.178C136.152 162.66 136.09 163.581 136.09 164.941C136.09 166.276 136.152 167.181 136.275 167.656C136.393 168.138 136.585 168.545 136.852 168.877C137.092 169.17 137.441 169.443 137.896 169.697C138.333 169.964 138.88 170.104 139.537 170.117C140.611 170.091 141.484 169.697 142.154 168.936ZM138.131 164.941C138.131 164.154 138.157 163.607 138.209 163.301C138.255 162.995 138.362 162.747 138.531 162.559C138.668 162.376 138.876 162.197 139.156 162.021C139.423 161.872 139.755 161.79 140.152 161.777C140.549 161.79 140.882 161.872 141.148 162.021C141.415 162.197 141.617 162.376 141.754 162.559C141.923 162.747 142.037 162.995 142.096 163.301C142.135 163.607 142.154 164.154 142.154 164.941C142.154 165.716 142.135 166.25 142.096 166.543C142.037 166.849 141.923 167.103 141.754 167.305C141.617 167.487 141.415 167.653 141.148 167.803C140.882 167.985 140.549 168.076 140.152 168.076C139.755 168.076 139.423 167.985 139.156 167.803C138.876 167.653 138.668 167.487 138.531 167.305C138.362 167.103 138.255 166.849 138.209 166.543C138.157 166.25 138.131 165.716 138.131 164.941Z" fill="#FF91B9"/>
<path d="M146.9 170H148.941V159.863H146.9V170ZM146.9 157.803H148.941V155.762H146.9V157.803Z" fill="#FF91B9"/>
<path d="M151.646 170H153.688V163.965C153.688 163.255 153.88 162.715 154.264 162.344C154.641 161.966 155.123 161.777 155.709 161.777C156.295 161.777 156.773 161.966 157.145 162.344C157.522 162.715 157.711 163.255 157.711 163.965V170H159.752V163.262C159.719 162.103 159.358 161.224 158.668 160.625C157.971 160.033 157.203 159.736 156.363 159.736C155.276 159.736 154.397 160.137 153.727 160.938H153.688V159.863H151.646V170Z" fill="#FF91B9"/>
<path d="M169.996 158.799C169.996 158.415 170.136 158.089 170.416 157.822C170.67 157.568 170.995 157.441 171.393 157.441C171.809 157.441 172.151 157.568 172.418 157.822C172.672 158.089 172.799 158.415 172.799 158.799C172.799 159.157 172.678 159.486 172.438 159.785C172.171 160.078 171.708 160.358 171.051 160.625C170.745 160.332 170.501 160.023 170.318 159.697C170.104 159.391 169.996 159.092 169.996 158.799ZM175.133 168.564L176.451 170H178.854L176.451 167.139C176.855 166.702 177.216 166.211 177.535 165.664C177.854 165.13 178.115 164.596 178.316 164.062L176.49 163.34C176.223 164.193 175.81 164.987 175.25 165.723L172.213 162.061C173.827 161.26 174.622 160.199 174.596 158.877C174.583 157.985 174.29 157.227 173.717 156.602C173.144 155.977 172.369 155.658 171.393 155.645C170.423 155.658 169.651 155.977 169.078 156.602C168.492 157.227 168.199 157.985 168.199 158.877C168.199 159.359 168.316 159.827 168.551 160.283C168.753 160.745 169.026 161.178 169.371 161.582C167.574 162.578 166.669 163.965 166.656 165.742C166.669 166.94 167.089 167.959 167.916 168.799C168.717 169.652 169.798 170.091 171.158 170.117C171.913 170.104 172.62 169.951 173.277 169.658C173.941 169.365 174.56 169.001 175.133 168.564ZM170.514 162.939L173.951 167.061C172.968 167.913 172.014 168.333 171.09 168.32C170.374 168.32 169.762 168.066 169.254 167.559C168.733 167.077 168.466 166.465 168.453 165.723C168.44 164.681 169.127 163.753 170.514 162.939Z" fill="#FF91B9"/>
<path d="M185.152 170H187.311V163.916H193.229V162.002H187.311V157.803H194.244V155.762H185.152V170Z" fill="#FF91B9"/>
<path d="M195.338 170H197.379V163.896C197.392 163.154 197.607 162.617 198.023 162.285C198.395 161.947 198.84 161.777 199.361 161.777C199.824 161.777 200.27 161.947 200.699 162.285L202.184 160.518C201.578 160.01 200.868 159.749 200.055 159.736C198.967 159.736 198.089 160.137 197.418 160.938H197.379V159.863H195.338V170Z" fill="#FF91B9"/>
<path d="M210.621 165.703V164.023C210.608 162.689 210.195 161.641 209.381 160.879C208.58 160.13 207.6 159.749 206.441 159.736C205.96 159.736 205.471 159.824 204.977 160C204.475 160.176 204.023 160.462 203.619 160.859C203.222 161.25 202.896 161.784 202.643 162.461C202.389 163.125 202.262 163.958 202.262 164.961C202.262 166.003 202.408 166.849 202.701 167.5C202.968 168.177 203.316 168.704 203.746 169.082C203.967 169.264 204.205 169.417 204.459 169.541C204.7 169.684 204.947 169.798 205.201 169.883C205.709 170.039 206.23 170.117 206.764 170.117C208.163 170.13 209.381 169.583 210.416 168.477L208.941 167.217C208.29 167.874 207.551 168.203 206.725 168.203C206.015 168.203 205.442 167.988 205.006 167.559C204.537 167.135 204.303 166.517 204.303 165.703H210.621ZM204.303 164.023C204.342 163.236 204.553 162.64 204.938 162.236C205.328 161.852 205.829 161.66 206.441 161.66C207.053 161.66 207.555 161.852 207.945 162.236C208.342 162.64 208.554 163.236 208.58 164.023H204.303Z" fill="#FF91B9"/>
<path d="M220.621 165.703V164.023C220.608 162.689 220.195 161.641 219.381 160.879C218.58 160.13 217.6 159.749 216.441 159.736C215.96 159.736 215.471 159.824 214.977 160C214.475 160.176 214.023 160.462 213.619 160.859C213.222 161.25 212.896 161.784 212.643 162.461C212.389 163.125 212.262 163.958 212.262 164.961C212.262 166.003 212.408 166.849 212.701 167.5C212.968 168.177 213.316 168.704 213.746 169.082C213.967 169.264 214.205 169.417 214.459 169.541C214.7 169.684 214.947 169.798 215.201 169.883C215.709 170.039 216.23 170.117 216.764 170.117C218.163 170.13 219.381 169.583 220.416 168.477L218.941 167.217C218.29 167.874 217.551 168.203 216.725 168.203C216.015 168.203 215.442 167.988 215.006 167.559C214.537 167.135 214.303 166.517 214.303 165.703H220.621ZM214.303 164.023C214.342 163.236 214.553 162.64 214.938 162.236C215.328 161.852 215.829 161.66 216.441 161.66C217.053 161.66 217.555 161.852 217.945 162.236C218.342 162.64 218.554 163.236 218.58 164.023H214.303Z" fill="#FF91B9"/>
<path d="M230.162 170H232.33V157.686H236.227V155.762H226.266V157.686H230.162V170Z" fill="#FF91B9"/>
<path d="M235.729 170H237.77V163.896C237.783 163.154 237.997 162.617 238.414 162.285C238.785 161.947 239.231 161.777 239.752 161.777C240.214 161.777 240.66 161.947 241.09 162.285L242.574 160.518C241.969 160.01 241.259 159.749 240.445 159.736C239.358 159.736 238.479 160.137 237.809 160.938H237.77V159.863H235.729V170Z" fill="#FF91B9"/>
<path d="M243.58 170H245.621V159.863H243.58V170ZM243.58 157.803H245.621V155.762H243.58V157.803Z" fill="#FF91B9"/>
<path d="M253.648 170H255.689V163.076C255.676 161.839 255.289 160.967 254.527 160.459C253.766 159.964 252.747 159.723 251.471 159.736C249.96 159.71 248.818 160.205 248.043 161.221L249.645 162.441C249.82 162.148 250.061 161.94 250.367 161.816C250.66 161.712 251.061 161.66 251.568 161.66C252.968 161.634 253.661 162.067 253.648 162.959V164.023H250.826C249.745 164.036 248.925 164.329 248.365 164.902C247.805 165.462 247.525 166.169 247.525 167.021C247.525 167.913 247.848 168.646 248.492 169.219C249.104 169.805 249.977 170.104 251.109 170.117C251.799 170.117 252.34 170.033 252.73 169.863C253.128 169.701 253.421 169.447 253.609 169.102H253.648V170ZM253.648 166.436C253.648 167.197 253.489 167.686 253.17 167.9C252.818 168.115 252.216 168.216 251.363 168.203C250.686 168.203 250.201 168.07 249.908 167.803C249.602 167.562 249.449 167.269 249.449 166.924C249.436 166.136 250.022 165.729 251.207 165.703H253.648V166.436Z" fill="#FF91B9"/>
<path d="M258.326 167.539C258.326 168.431 258.58 169.066 259.088 169.443C259.57 169.814 260.182 170 260.924 170H261.832V168.076H261.129C260.621 168.076 260.367 167.845 260.367 167.383V155.762H258.326V167.539Z" fill="#FF91B9"/>
<path d="M467.031 160H470.484V137.219H467.031V146.984H458.016V137.219H454.562V160H458.016V150.047H467.031V160Z" fill="#F92A75"/>
<path d="M487.594 153.125V150.438C487.573 148.302 486.911 146.625 485.609 145.406C484.328 144.208 482.76 143.599 480.906 143.578C480.135 143.578 479.354 143.719 478.562 144C477.76 144.281 477.036 144.74 476.391 145.375C475.755 146 475.234 146.854 474.828 147.938C474.422 149 474.219 150.333 474.219 151.938C474.219 153.604 474.453 154.958 474.922 156C475.349 157.083 475.906 157.927 476.594 158.531C476.948 158.823 477.328 159.068 477.734 159.266C478.12 159.495 478.516 159.677 478.922 159.812C479.734 160.062 480.568 160.188 481.422 160.188C483.661 160.208 485.609 159.333 487.266 157.562L484.906 155.547C483.865 156.599 482.682 157.125 481.359 157.125C480.224 157.125 479.307 156.781 478.609 156.094C477.859 155.417 477.484 154.427 477.484 153.125H487.594ZM477.484 150.438C477.547 149.177 477.885 148.224 478.5 147.578C479.125 146.964 479.927 146.656 480.906 146.656C481.885 146.656 482.688 146.964 483.312 147.578C483.948 148.224 484.286 149.177 484.328 150.438H477.484Z" fill="#F92A75"/>
<path d="M499.531 160H502.797V148.922C502.776 146.943 502.156 145.547 500.938 144.734C499.719 143.943 498.089 143.557 496.047 143.578C493.63 143.536 491.802 144.328 490.562 145.953L493.125 147.906C493.406 147.438 493.792 147.104 494.281 146.906C494.75 146.74 495.391 146.656 496.203 146.656C498.443 146.615 499.552 147.307 499.531 148.734V150.438H495.016C493.286 150.458 491.974 150.927 491.078 151.844C490.182 152.74 489.734 153.87 489.734 155.234C489.734 156.661 490.25 157.833 491.281 158.75C492.26 159.688 493.656 160.167 495.469 160.188C496.573 160.188 497.438 160.052 498.062 159.781C498.698 159.521 499.167 159.115 499.469 158.562H499.531V160ZM499.531 154.297C499.531 155.516 499.276 156.297 498.766 156.641C498.203 156.984 497.24 157.146 495.875 157.125C494.792 157.125 494.016 156.911 493.547 156.484C493.057 156.099 492.812 155.63 492.812 155.078C492.792 153.818 493.729 153.167 495.625 153.125H499.531V154.297Z" fill="#F92A75"/>
<path d="M516.719 158.297V160H519.984V137.219H516.719V145.5C516.115 144.927 515.484 144.458 514.828 144.094C514.12 143.75 513.349 143.578 512.516 143.578C510.536 143.63 509.089 144.339 508.172 145.703C507.724 146.214 507.427 146.885 507.281 147.719C507.104 148.542 507.016 149.927 507.016 151.875C507.016 153.792 507.104 155.167 507.281 156C507.427 156.875 507.724 157.568 508.172 158.078C508.661 158.703 509.271 159.203 510 159.578C510.698 159.964 511.536 160.167 512.516 160.188C514.245 160.146 515.646 159.516 516.719 158.297ZM513.516 146.844C514.286 146.844 514.896 146.995 515.344 147.297C515.792 147.599 516.099 147.995 516.266 148.484C516.474 148.974 516.615 149.505 516.688 150.078C516.708 150.651 516.719 151.25 516.719 151.875C516.719 152.448 516.708 153.031 516.688 153.625C516.615 154.229 516.474 154.776 516.266 155.266C516.099 155.755 515.792 156.151 515.344 156.453C514.896 156.766 514.286 156.922 513.516 156.922C512.745 156.922 512.156 156.776 511.75 156.484C511.302 156.182 510.974 155.797 510.766 155.328C510.568 154.839 510.438 154.286 510.375 153.672C510.312 153.089 510.281 152.49 510.281 151.875C510.281 151.229 510.312 150.599 510.375 149.984C510.438 149.411 510.568 148.88 510.766 148.391C510.974 147.901 511.302 147.516 511.75 147.234C512.156 146.974 512.745 146.844 513.516 146.844Z" fill="#F92A75"/>
<path d="M536.219 153.125V150.438C536.198 148.302 535.536 146.625 534.234 145.406C532.953 144.208 531.385 143.599 529.531 143.578C528.76 143.578 527.979 143.719 527.188 144C526.385 144.281 525.661 144.74 525.016 145.375C524.38 146 523.859 146.854 523.453 147.938C523.047 149 522.844 150.333 522.844 151.938C522.844 153.604 523.078 154.958 523.547 156C523.974 157.083 524.531 157.927 525.219 158.531C525.573 158.823 525.953 159.068 526.359 159.266C526.745 159.495 527.141 159.677 527.547 159.812C528.359 160.062 529.193 160.188 530.047 160.188C532.286 160.208 534.234 159.333 535.891 157.562L533.531 155.547C532.49 156.599 531.307 157.125 529.984 157.125C528.849 157.125 527.932 156.781 527.234 156.094C526.484 155.417 526.109 154.427 526.109 153.125H536.219ZM526.109 150.438C526.172 149.177 526.51 148.224 527.125 147.578C527.75 146.964 528.552 146.656 529.531 146.656C530.51 146.656 531.312 146.964 531.938 147.578C532.573 148.224 532.911 149.177 532.953 150.438H526.109Z" fill="#F92A75"/>
<path d="M539.641 160H542.906V150.234C542.927 149.047 543.271 148.188 543.938 147.656C544.531 147.115 545.245 146.844 546.078 146.844C546.818 146.844 547.531 147.115 548.219 147.656L550.594 144.828C549.625 144.016 548.49 143.599 547.188 143.578C545.448 143.578 544.042 144.219 542.969 145.5H542.906V143.781H539.641V160Z" fill="#F92A75"/>
<path d="M168.969 179.248C169.106 178.713 168.783 178.168 168.248 178.031C167.713 177.894 167.168 178.217 167.031 178.752L168.969 179.248ZM72 554L71.0312 553.752C70.9546 554.051 71.0206 554.369 71.2101 554.613C71.3995 554.857 71.6911 555 72 555V554ZM626 554L626.965 554.264C627.047 553.963 626.984 553.641 626.795 553.393C626.606 553.145 626.312 553 626 553V554ZM525 923L533.209 914.879L522.071 911.831L525 923ZM165.531 184.611C165.394 185.146 165.717 185.691 166.252 185.828C166.787 185.965 167.332 185.642 167.469 185.107L165.531 184.611ZM164.469 196.826C164.606 196.291 164.283 195.746 163.748 195.609C163.213 195.472 162.668 195.795 162.531 196.33L164.469 196.826ZM159.531 208.049C159.394 208.584 159.717 209.129 160.252 209.266C160.787 209.403 161.332 209.08 161.469 208.545L159.531 208.049ZM158.469 220.264C158.606 219.729 158.283 219.184 157.748 219.047C157.213 218.91 156.668 219.233 156.531 219.768L158.469 220.264ZM153.531 231.486C153.394 232.021 153.717 232.566 154.252 232.703C154.787 232.84 155.332 232.517 155.469 231.982L153.531 231.486ZM152.469 243.701C152.606 243.166 152.283 242.621 151.748 242.484C151.213 242.347 150.668 242.67 150.531 243.205L152.469 243.701ZM147.531 254.924C147.394 255.459 147.717 256.004 148.252 256.141C148.787 256.278 149.332 255.955 149.469 255.42L147.531 254.924ZM146.469 267.139C146.606 266.604 146.283 266.059 145.748 265.922C145.213 265.785 144.668 266.108 144.531 266.643L146.469 267.139ZM141.531 278.361C141.394 278.896 141.717 279.441 142.252 279.578C142.787 279.715 143.332 279.392 143.469 278.857L141.531 278.361ZM140.469 290.576C140.606 290.041 140.283 289.496 139.748 289.359C139.213 289.222 138.668 289.545 138.531 290.08L140.469 290.576ZM135.531 301.799C135.394 302.334 135.717 302.879 136.252 303.016C136.787 303.153 137.332 302.83 137.469 302.295L135.531 301.799ZM134.469 314.014C134.606 313.479 134.283 312.934 133.748 312.797C133.213 312.66 132.668 312.983 132.531 313.518L134.469 314.014ZM129.531 325.236C129.394 325.771 129.717 326.316 130.252 326.453C130.787 326.59 131.332 326.267 131.469 325.732L129.531 325.236ZM128.469 337.451C128.606 336.916 128.283 336.371 127.748 336.234C127.213 336.097 126.668 336.42 126.531 336.955L128.469 337.451ZM123.531 348.674C123.394 349.209 123.717 349.754 124.252 349.891C124.787 350.028 125.332 349.705 125.469 349.17L123.531 348.674ZM122.469 360.889C122.606 360.354 122.283 359.809 121.748 359.672C121.213 359.535 120.668 359.858 120.531 360.393L122.469 360.889ZM117.531 372.111C117.394 372.646 117.717 373.191 118.252 373.328C118.787 373.465 119.332 373.142 119.469 372.607L117.531 372.111ZM116.469 384.326C116.606 383.791 116.283 383.246 115.748 383.109C115.213 382.972 114.668 383.295 114.531 383.83L116.469 384.326ZM111.531 395.549C111.394 396.084 111.717 396.629 112.252 396.766C112.787 396.903 113.332 396.58 113.469 396.045L111.531 395.549ZM110.469 407.764C110.606 407.229 110.283 406.684 109.748 406.547C109.213 406.41 108.668 406.733 108.531 407.268L110.469 407.764ZM105.531 418.986C105.394 419.521 105.717 420.066 106.252 420.203C106.787 420.34 107.332 420.017 107.469 419.482L105.531 418.986ZM104.469 431.201C104.606 430.666 104.283 430.121 103.748 429.984C103.213 429.847 102.668 430.17 102.531 430.705L104.469 431.201ZM99.5313 442.424C99.3943 442.959 99.717 443.504 100.252 443.641C100.787 443.778 101.332 443.455 101.469 442.92L99.5313 442.424ZM98.4688 454.639C98.6057 454.104 98.2831 453.559 97.748 453.422C97.213 453.285 96.6682 453.608 96.5313 454.143L98.4688 454.639ZM93.5313 465.861C93.3943 466.396 93.717 466.941 94.252 467.078C94.787 467.215 95.3318 466.892 95.4688 466.357L93.5313 465.861ZM92.4688 478.076C92.6058 477.541 92.2831 476.996 91.748 476.859C91.213 476.722 90.6682 477.045 90.5313 477.58L92.4688 478.076ZM87.5313 489.299C87.3943 489.834 87.717 490.379 88.252 490.516C88.7871 490.653 89.3318 490.33 89.4688 489.795L87.5313 489.299ZM86.4688 501.514C86.6058 500.979 86.2831 500.434 85.748 500.297C85.213 500.16 84.6682 500.483 84.5313 501.018L86.4688 501.514ZM81.5313 512.736C81.3943 513.271 81.717 513.816 82.252 513.953C82.7871 514.09 83.3318 513.767 83.4688 513.232L81.5313 512.736ZM80.4688 524.951C80.6058 524.416 80.2831 523.871 79.748 523.734C79.213 523.597 78.6682 523.92 78.5313 524.455L80.4688 524.951ZM75.5313 536.174C75.3943 536.709 75.717 537.254 76.252 537.391C76.7871 537.527 77.3318 537.205 77.4688 536.67L75.5313 536.174ZM74.4688 548.388C74.6058 547.853 74.2831 547.309 73.748 547.172C73.213 547.035 72.6682 547.357 72.5313 547.892L74.4688 548.388ZM78.0217 555C78.574 555 79.0217 554.552 79.0217 554C79.0217 553.448 78.574 553 78.0217 553V555ZM90.0652 553C89.5129 553 89.0652 553.448 89.0652 554C89.0652 554.552 89.5129 555 90.0652 555V553ZM102.109 555C102.661 555 103.109 554.552 103.109 554C103.109 553.448 102.661 553 102.109 553V555ZM114.152 553C113.6 553 113.152 553.448 113.152 554C113.152 554.552 113.6 555 114.152 555V553ZM126.196 555C126.748 555 127.196 554.552 127.196 554C127.196 553.448 126.748 553 126.196 553V555ZM138.239 553C137.687 553 137.239 553.448 137.239 554C137.239 554.552 137.687 555 138.239 555V553ZM150.283 555C150.835 555 151.283 554.552 151.283 554C151.283 553.448 150.835 553 150.283 553V555ZM162.326 553C161.774 553 161.326 553.448 161.326 554C161.326 554.552 161.774 555 162.326 555V553ZM174.37 555C174.922 555 175.37 554.552 175.37 554C175.37 553.448 174.922 553 174.37 553V555ZM186.413 553C185.861 553 185.413 553.448 185.413 554C185.413 554.552 185.861 555 186.413 555V553ZM198.457 555C199.009 555 199.457 554.552 199.457 554C199.457 553.448 199.009 553 198.457 553V555ZM210.5 553C209.948 553 209.5 553.448 209.5 554C209.5 554.552 209.948 555 210.5 555V553ZM222.543 555C223.096 555 223.543 554.552 223.543 554C223.543 553.448 223.096 553 222.543 553V555ZM234.587 553C234.035 553 233.587 553.448 233.587 554C233.587 554.552 234.035 555 234.587 555V553ZM246.63 555C247.183 555 247.63 554.552 247.63 554C247.63 553.448 247.183 553 246.63 553V555ZM258.674 553C258.122 553 257.674 553.448 257.674 554C257.674 554.552 258.122 555 258.674 555V553ZM270.717 555C271.27 555 271.717 554.552 271.717 554C271.717 553.448 271.27 553 270.717 553V555ZM282.761 553C282.209 553 281.761 553.448 281.761 554C281.761 554.552 282.209 555 282.761 555V553ZM294.804 555C295.357 555 295.804 554.552 295.804 554C295.804 553.448 295.357 553 294.804 553V555ZM306.848 553C306.295 553 305.848 553.448 305.848 554C305.848 554.552 306.295 555 306.848 555V553ZM318.891 555C319.444 555 319.891 554.552 319.891 554C319.891 553.448 319.444 553 318.891 553V555ZM330.935 553C330.382 553 329.935 553.448 329.935 554C329.935 554.552 330.382 555 330.935 555V553ZM342.978 555C343.53 555 343.978 554.552 343.978 554C343.978 553.448 343.53 553 342.978 553V555ZM355.022 553C354.469 553 354.022 553.448 354.022 554C354.022 554.552 354.469 555 355.022 555V553ZM367.065 555C367.617 555 368.065 554.552 368.065 554C368.065 553.448 367.617 553 367.065 553V555ZM379.109 553C378.556 553 378.109 553.448 378.109 554C378.109 554.552 378.556 555 379.109 555V553ZM391.152 555C391.704 555 392.152 554.552 392.152 554C392.152 553.448 391.704 553 391.152 553V555ZM403.196 553C402.643 553 402.196 553.448 402.196 554C402.196 554.552 402.643 555 403.196 555V553ZM415.239 555C415.791 555 416.239 554.552 416.239 554C416.239 553.448 415.791 553 415.239 553V555ZM427.283 553C426.73 553 426.283 553.448 426.283 554C426.283 554.552 426.73 555 427.283 555V553ZM439.326 555C439.878 555 440.326 554.552 440.326 554C440.326 553.448 439.878 553 439.326 553V555ZM451.37 553C450.817 553 450.37 553.448 450.37 554C450.37 554.552 450.817 555 451.37 555V553ZM463.413 555C463.965 555 464.413 554.552 464.413 554C464.413 553.448 463.965 553 463.413 553V555ZM475.457 553C474.904 553 474.457 553.448 474.457 554C474.457 554.552 474.904 555 475.457 555V553ZM487.5 555C488.052 555 488.5 554.552 488.5 554C488.5 553.448 488.052 553 487.5 553V555ZM499.544 553C498.991 553 498.544 553.448 498.544 554C498.544 554.552 498.991 555 499.544 555V553ZM511.587 555C512.139 555 512.587 554.552 512.587 554C512.587 553.448 512.139 553 511.587 553V555ZM523.631 553C523.078 553 522.631 553.448 522.631 554C522.631 554.552 523.078 555 523.631 555V553ZM535.674 555C536.226 555 536.674 554.552 536.674 554C536.674 553.448 536.226 553 535.674 553V555ZM547.718 553C547.165 553 546.718 553.448 546.718 554C546.718 554.552 547.165 555 547.718 555V553ZM559.761 555C560.313 555 560.761 554.552 560.761 554C560.761 553.448 560.313 553 559.761 553V555ZM571.804 553C571.252 553 570.804 553.448 570.804 554C570.804 554.552 571.252 555 571.804 555V553ZM583.848 555C584.4 555 584.848 554.552 584.848 554C584.848 553.448 584.4 553 583.848 553V555ZM595.891 553C595.339 553 594.891 553.448 594.891 554C594.891 554.552 595.339 555 595.891 555V553ZM607.935 555C608.487 555 608.935 554.552 608.935 554C608.935 553.448 608.487 553 607.935 553V555ZM619.978 553C619.426 553 618.978 553.448 618.978 554C618.978 554.552 619.426 555 619.978 555V553ZM623.457 559.502C623.312 560.034 623.625 560.584 624.158 560.73C624.691 560.876 625.241 560.562 625.386 560.03L623.457 559.502ZM622.23 571.561C622.376 571.028 622.062 570.478 621.53 570.332C620.997 570.187 620.447 570.5 620.301 571.033L622.23 571.561ZM617.145 582.564C616.999 583.097 617.313 583.647 617.845 583.793C618.378 583.938 618.928 583.625 619.074 583.092L617.145 582.564ZM615.918 594.623C616.063 594.091 615.75 593.541 615.217 593.395C614.684 593.249 614.134 593.563 613.989 594.095L615.918 594.623ZM610.832 605.627C610.687 606.159 611 606.709 611.533 606.855C612.066 607.001 612.616 606.687 612.761 606.155L610.832 605.627ZM609.605 617.686C609.751 617.153 609.437 616.603 608.905 616.457C608.372 616.312 607.822 616.625 607.676 617.158L609.605 617.686ZM604.52 628.689C604.374 629.222 604.688 629.772 605.22 629.918C605.753 630.063 606.303 629.75 606.449 629.217L604.52 628.689ZM603.293 640.748C603.438 640.216 603.125 639.666 602.592 639.52C602.059 639.374 601.509 639.688 601.364 640.22L603.293 640.748ZM598.207 651.752C598.062 652.284 598.375 652.834 598.908 652.98C599.441 653.126 599.991 652.812 600.136 652.28L598.207 651.752ZM596.98 663.811C597.126 663.278 596.812 662.728 596.28 662.582C595.747 662.437 595.197 662.75 595.051 663.283L596.98 663.811ZM591.895 674.814C591.749 675.347 592.063 675.897 592.595 676.043C593.128 676.188 593.678 675.875 593.824 675.342L591.895 674.814ZM590.668 686.873C590.813 686.341 590.5 685.791 589.967 685.645C589.434 685.499 588.884 685.813 588.739 686.345L590.668 686.873ZM585.582 697.877C585.437 698.409 585.75 698.959 586.283 699.105C586.816 699.251 587.366 698.937 587.511 698.405L585.582 697.877ZM584.355 709.936C584.501 709.403 584.187 708.853 583.655 708.707C583.122 708.562 582.572 708.875 582.426 709.408L584.355 709.936ZM579.27 720.939C579.124 721.472 579.438 722.022 579.97 722.168C580.503 722.313 581.053 722 581.199 721.467L579.27 720.939ZM578.043 732.998C578.188 732.466 577.875 731.916 577.342 731.77C576.809 731.624 576.259 731.938 576.114 732.47L578.043 732.998ZM572.957 744.002C572.812 744.534 573.125 745.084 573.658 745.23C574.191 745.376 574.741 745.062 574.886 744.53L572.957 744.002ZM571.73 756.061C571.876 755.528 571.562 754.978 571.03 754.832C570.497 754.687 569.947 755 569.801 755.533L571.73 756.061ZM566.645 767.064C566.499 767.597 566.813 768.147 567.345 768.293C567.878 768.438 568.428 768.125 568.574 767.592L566.645 767.064ZM565.418 779.123C565.563 778.591 565.25 778.041 564.717 777.895C564.184 777.749 563.634 778.063 563.489 778.595L565.418 779.123ZM560.332 790.127C560.187 790.659 560.5 791.209 561.033 791.355C561.566 791.501 562.116 791.187 562.261 790.655L560.332 790.127ZM559.105 802.186C559.251 801.653 558.937 801.103 558.405 800.957C557.872 800.812 557.322 801.125 557.176 801.658L559.105 802.186ZM554.02 813.189C553.874 813.722 554.188 814.272 554.72 814.418C555.253 814.563 555.803 814.25 555.949 813.717L554.02 813.189ZM552.793 825.248C552.938 824.716 552.625 824.166 552.092 824.02C551.559 823.874 551.009 824.188 550.864 824.72L552.793 825.248ZM547.707 836.252C547.562 836.784 547.875 837.334 548.408 837.48C548.941 837.626 549.491 837.312 549.636 836.78L547.707 836.252ZM546.48 848.311C546.626 847.778 546.312 847.228 545.78 847.082C545.247 846.937 544.697 847.25 544.551 847.783L546.48 848.311ZM541.395 859.314C541.249 859.847 541.563 860.397 542.095 860.543C542.628 860.688 543.178 860.375 543.324 859.842L541.395 859.314ZM540.168 871.373C540.313 870.841 540 870.291 539.467 870.145C538.934 869.999 538.384 870.313 538.239 870.845L540.168 871.373ZM535.082 882.377C534.937 882.909 535.25 883.459 535.783 883.605C536.316 883.751 536.866 883.437 537.011 882.905L535.082 882.377ZM533.855 894.436C534.001 893.903 533.687 893.353 533.155 893.207C532.622 893.062 532.072 893.375 531.926 893.908L533.855 894.436ZM528.77 905.439C528.624 905.972 528.938 906.522 529.47 906.668C530.003 906.814 530.553 906.5 530.699 905.967L528.77 905.439ZM527.543 917.498C527.688 916.966 527.375 916.416 526.842 916.27C526.309 916.124 525.759 916.438 525.614 916.97L527.543 917.498ZM167.031 178.752L165.531 184.611L167.469 185.107L168.969 179.248L167.031 178.752ZM162.531 196.33L159.531 208.049L161.469 208.545L164.469 196.826L162.531 196.33ZM156.531 219.768L153.531 231.486L155.469 231.982L158.469 220.264L156.531 219.768ZM150.531 243.205L147.531 254.924L149.469 255.42L152.469 243.701L150.531 243.205ZM144.531 266.643L141.531 278.361L143.469 278.857L146.469 267.139L144.531 266.643ZM138.531 290.08L135.531 301.799L137.469 302.295L140.469 290.576L138.531 290.08ZM132.531 313.518L129.531 325.236L131.469 325.732L134.469 314.014L132.531 313.518ZM126.531 336.955L123.531 348.674L125.469 349.17L128.469 337.451L126.531 336.955ZM120.531 360.393L117.531 372.111L119.469 372.607L122.469 360.889L120.531 360.393ZM114.531 383.83L111.531 395.549L113.469 396.045L116.469 384.326L114.531 383.83ZM108.531 407.268L105.531 418.986L107.469 419.482L110.469 407.764L108.531 407.268ZM102.531 430.705L99.5313 442.424L101.469 442.92L104.469 431.201L102.531 430.705ZM96.5313 454.143L93.5313 465.861L95.4688 466.357L98.4688 454.639L96.5313 454.143ZM90.5313 477.58L87.5313 489.299L89.4688 489.795L92.4688 478.076L90.5313 477.58ZM84.5313 501.018L81.5313 512.736L83.4688 513.232L86.4688 501.514L84.5313 501.018ZM78.5313 524.455L75.5313 536.174L77.4688 536.67L80.4688 524.951L78.5313 524.455ZM72.5313 547.892L71.0312 553.752L72.9688 554.248L74.4688 548.388L72.5313 547.892ZM72 555H78.0217V553H72V555ZM90.0652 555H102.109V553H90.0652V555ZM114.152 555H126.196V553H114.152V555ZM138.239 555H150.283V553H138.239V555ZM162.326 555H174.37V553H162.326V555ZM186.413 555H198.457V553H186.413V555ZM210.5 555H222.543V553H210.5V555ZM234.587 555H246.63V553H234.587V555ZM258.674 555H270.717V553H258.674V555ZM282.761 555H294.804V553H282.761V555ZM306.848 555H318.891V553H306.848V555ZM330.935 555H342.978V553H330.935V555ZM355.022 555H367.065V553H355.022V555ZM379.109 555H391.152V553H379.109V555ZM403.196 555H415.239V553H403.196V555ZM427.283 555H439.326V553H427.283V555ZM451.37 555H463.413V553H451.37V555ZM475.457 555H487.5V553H475.457V555ZM499.544 555H511.587V553H499.544V555ZM523.631 555H535.674V553H523.631V555ZM547.718 555H559.761V553H547.718V555ZM571.804 555H583.848V553H571.804V555ZM595.891 555H607.935V553H595.891V555ZM619.978 555H626V553H619.978V555ZM625.035 553.736L623.457 559.502L625.386 560.03L626.965 554.264L625.035 553.736ZM620.301 571.033L617.145 582.564L619.074 583.092L622.23 571.561L620.301 571.033ZM613.989 594.095L610.832 605.627L612.761 606.155L615.918 594.623L613.989 594.095ZM607.676 617.158L604.52 628.689L606.449 629.217L609.605 617.686L607.676 617.158ZM601.364 640.22L598.207 651.752L600.136 652.28L603.293 640.748L601.364 640.22ZM595.051 663.283L591.895 674.814L593.824 675.342L596.98 663.811L595.051 663.283ZM588.739 686.345L585.582 697.877L587.511 698.405L590.668 686.873L588.739 686.345ZM582.426 709.408L579.27 720.939L581.199 721.467L584.355 709.936L582.426 709.408ZM576.114 732.47L572.957 744.002L574.886 744.53L578.043 732.998L576.114 732.47ZM569.801 755.533L566.645 767.064L568.574 767.592L571.73 756.061L569.801 755.533ZM563.489 778.595L560.332 790.127L562.261 790.655L565.418 779.123L563.489 778.595ZM557.176 801.658L554.02 813.189L555.949 813.717L559.105 802.186L557.176 801.658ZM550.864 824.72L547.707 836.252L549.636 836.78L552.793 825.248L550.864 824.72ZM544.551 847.783L541.395 859.314L543.324 859.842L546.48 848.311L544.551 847.783ZM538.239 870.845L535.082 882.377L537.011 882.905L540.168 871.373L538.239 870.845ZM531.926 893.908L528.77 905.439L530.699 905.967L533.855 894.436L531.926 893.908Z" fill="#CDCDCD"/>
</svg>
