<svg width="1732" height="1232" viewBox="0 0 1732 1232" fill="none" xmlns="http://www.w3.org/2000/svg">
<rect width="1732" height="1232" fill="white"/>
<path d="M474 976H1253L1203 1136H434L474 976Z" fill="#F92A75" fill-opacity="0.05"/>
<path d="M507.422 1036.03C507.422 1038.31 507.49 1039.85 507.627 1040.65C507.7 1041.08 507.791 1041.44 507.9 1041.72C508.019 1041.99 508.151 1042.28 508.297 1042.58C508.78 1043.5 509.555 1044.31 510.621 1045.02C511.669 1045.74 512.977 1046.13 514.545 1046.16C516.131 1046.13 517.452 1045.74 518.51 1045.02C519.558 1044.31 520.314 1043.5 520.779 1042.58C521.117 1042.1 521.349 1041.46 521.477 1040.65C521.595 1039.85 521.654 1038.31 521.654 1036.03C521.654 1033.72 521.595 1032.17 521.477 1031.38C521.349 1030.6 521.117 1029.97 520.779 1029.48C520.314 1028.56 519.558 1027.74 518.51 1027.02C517.452 1026.29 516.131 1025.92 514.545 1025.9C512.977 1025.92 511.669 1026.29 510.621 1027.02C509.555 1027.74 508.78 1028.56 508.297 1029.48C507.996 1029.97 507.773 1030.6 507.627 1031.38C507.49 1032.17 507.422 1033.72 507.422 1036.03ZM510.457 1036.03C510.457 1034.07 510.53 1032.74 510.676 1032.03C510.803 1031.35 511.063 1030.8 511.455 1030.37C511.774 1029.96 512.193 1029.62 512.713 1029.35C513.223 1029.08 513.834 1028.94 514.545 1028.92C515.265 1028.94 515.889 1029.08 516.418 1029.35C516.919 1029.62 517.32 1029.96 517.621 1030.37C518.013 1030.8 518.282 1031.35 518.428 1032.03C518.564 1032.74 518.633 1034.07 518.633 1036.03C518.633 1037.99 518.564 1039.32 518.428 1040.01C518.282 1040.7 518.013 1041.26 517.621 1041.69C517.32 1042.1 516.919 1042.44 516.418 1042.69C515.889 1042.99 515.265 1043.14 514.545 1043.14C513.834 1043.14 513.223 1042.99 512.713 1042.69C512.193 1042.44 511.774 1042.1 511.455 1041.69C511.063 1041.26 510.803 1040.7 510.676 1040.01C510.53 1039.32 510.457 1037.99 510.457 1036.03Z" fill="#FF91B9"/>
<path d="M525.1 1031.81H523.678V1033.98H525.1V1042.5C525.1 1043.62 525.428 1044.48 526.084 1045.07C526.722 1045.69 527.542 1046 528.545 1046H530.035V1043.31H528.969C528.276 1043.32 527.939 1042.97 527.957 1042.25V1033.98H530.035V1031.81H527.957V1027.49H525.1V1031.81Z" fill="#FF91B9"/>
<path d="M532.729 1046H535.586V1037.55C535.586 1036.56 535.855 1035.8 536.393 1035.28C536.921 1034.75 537.596 1034.49 538.416 1034.49C539.236 1034.49 539.906 1034.75 540.426 1035.28C540.954 1035.8 541.219 1036.56 541.219 1037.55V1046H544.076V1036.57C544.031 1034.94 543.525 1033.71 542.559 1032.88C541.583 1032.05 540.508 1031.63 539.332 1031.63C537.81 1031.63 536.579 1032.19 535.641 1033.31H535.586V1026.07H532.729V1046Z" fill="#FF91B9"/>
<path d="M558.773 1039.98V1037.63C558.755 1035.76 558.176 1034.3 557.037 1033.23C555.916 1032.18 554.544 1031.65 552.922 1031.63C552.247 1031.63 551.564 1031.75 550.871 1032C550.169 1032.25 549.536 1032.65 548.971 1033.2C548.415 1033.75 547.959 1034.5 547.604 1035.45C547.248 1036.38 547.07 1037.54 547.07 1038.95C547.07 1040.4 547.275 1041.59 547.686 1042.5C548.059 1043.45 548.547 1044.19 549.148 1044.71C549.458 1044.97 549.791 1045.18 550.146 1045.36C550.484 1045.56 550.83 1045.72 551.186 1045.84C551.896 1046.05 552.626 1046.16 553.373 1046.16C555.333 1046.18 557.037 1045.42 558.486 1043.87L556.422 1042.1C555.51 1043.02 554.476 1043.48 553.318 1043.48C552.325 1043.48 551.523 1043.18 550.912 1042.58C550.256 1041.99 549.928 1041.12 549.928 1039.98H558.773ZM549.928 1037.63C549.982 1036.53 550.279 1035.7 550.816 1035.13C551.363 1034.59 552.065 1034.32 552.922 1034.32C553.779 1034.32 554.48 1034.59 555.027 1035.13C555.583 1035.7 555.88 1036.53 555.916 1037.63H549.928Z" fill="#FF91B9"/>
<path d="M561.768 1046H564.625V1037.46C564.643 1036.42 564.944 1035.66 565.527 1035.2C566.047 1034.73 566.671 1034.49 567.4 1034.49C568.048 1034.49 568.672 1034.73 569.273 1035.2L571.352 1032.72C570.504 1032.01 569.51 1031.65 568.371 1031.63C566.849 1031.63 565.618 1032.19 564.68 1033.31H564.625V1031.81H561.768V1046Z" fill="#FF91B9"/>
<path d="M579.664 1046H592.393V1043.14H582.686V1026.07H579.664V1046Z" fill="#FF91B9"/>
<path d="M595.072 1046H597.93V1031.81H595.072V1046ZM595.072 1028.92H597.93V1026.07H595.072V1028.92Z" fill="#FF91B9"/>
<path d="M601.717 1046H604.574V1037.55C604.574 1036.56 604.843 1035.8 605.381 1035.28C605.91 1034.75 606.584 1034.49 607.404 1034.49C608.225 1034.49 608.895 1034.75 609.414 1035.28C609.943 1035.8 610.207 1036.56 610.207 1037.55V1046H613.064V1036.57C613.019 1034.94 612.513 1033.71 611.547 1032.88C610.572 1032.05 609.496 1031.63 608.32 1031.63C606.798 1031.63 605.568 1032.19 604.629 1033.31H604.574V1031.81H601.717V1046Z" fill="#FF91B9"/>
<path d="M616.756 1046H619.613V1041.91L621.855 1039.37L625.629 1046H629.211L623.646 1037.35L628.541 1031.81H625.123L619.668 1038.47H619.613V1026.07H616.756V1046Z" fill="#FF91B9"/>
<path d="M508.105 1084H516.5C518.068 1084 519.376 1083.48 520.424 1082.43C521.481 1081.43 522.019 1080.06 522.037 1078.34C522.037 1077.3 521.777 1076.34 521.258 1075.46C520.702 1074.6 519.882 1074.03 518.797 1073.75V1073.69C519.371 1073.42 519.854 1073.11 520.246 1072.78C520.638 1072.46 520.939 1072.12 521.148 1071.76C521.559 1071.02 521.755 1070.23 521.736 1069.41C521.736 1067.81 521.24 1066.52 520.246 1065.54C519.262 1064.58 517.79 1064.08 515.83 1064.07H508.105V1084ZM515.775 1075.15C516.896 1075.17 517.717 1075.47 518.236 1076.04C518.756 1076.63 519.016 1077.33 519.016 1078.15C519.016 1078.95 518.756 1079.64 518.236 1080.23C517.717 1080.82 516.896 1081.12 515.775 1081.14H511.127V1075.15H515.775ZM515.488 1066.76C516.591 1066.78 517.402 1067.05 517.922 1067.57C518.451 1068.12 518.715 1068.8 518.715 1069.6C518.715 1070.41 518.451 1071.07 517.922 1071.6C517.402 1072.17 516.591 1072.46 515.488 1072.46H511.127V1066.76H515.488Z" fill="#FF91B9"/>
<path d="M532.387 1084H535.244V1074.31C535.226 1072.57 534.684 1071.35 533.617 1070.64C532.551 1069.95 531.124 1069.61 529.338 1069.63C527.223 1069.59 525.624 1070.29 524.539 1071.71L526.781 1073.42C527.027 1073.01 527.365 1072.72 527.793 1072.54C528.203 1072.4 528.764 1072.32 529.475 1072.32C531.434 1072.29 532.405 1072.89 532.387 1074.14V1075.63H528.436C526.923 1075.65 525.774 1076.06 524.99 1076.86C524.206 1077.65 523.814 1078.64 523.814 1079.83C523.814 1081.08 524.266 1082.1 525.168 1082.91C526.025 1083.73 527.246 1084.15 528.832 1084.16C529.798 1084.16 530.555 1084.05 531.102 1083.81C531.658 1083.58 532.068 1083.23 532.332 1082.74H532.387V1084ZM532.387 1079.01C532.387 1080.08 532.163 1080.76 531.717 1081.06C531.225 1081.36 530.382 1081.5 529.188 1081.48C528.24 1081.48 527.561 1081.3 527.15 1080.92C526.722 1080.59 526.508 1080.18 526.508 1079.69C526.49 1078.59 527.31 1078.02 528.969 1077.98H532.387V1079.01Z" fill="#FF91B9"/>
<path d="M539.359 1079.67L537.363 1081.62C539.214 1083.32 541.296 1084.16 543.611 1084.16C545.316 1084.15 546.715 1083.75 547.809 1082.99C548.911 1082.24 549.472 1081.18 549.49 1079.8C549.49 1078.63 549.185 1077.66 548.574 1076.89C547.918 1076.11 546.852 1075.66 545.375 1075.55L543.023 1075.37C542.331 1075.3 541.848 1075.13 541.574 1074.87C541.273 1074.63 541.132 1074.35 541.15 1074.03C541.15 1073.53 541.337 1073.12 541.711 1072.8C542.066 1072.48 542.691 1072.32 543.584 1072.32C544.368 1072.32 545.061 1072.44 545.662 1072.67C546.273 1072.92 546.852 1073.24 547.398 1073.64L549.162 1071.57C548.469 1070.97 547.686 1070.49 546.811 1070.14C546.355 1069.97 545.867 1069.85 545.348 1069.75C544.828 1069.67 544.24 1069.63 543.584 1069.63C542.071 1069.63 540.822 1070 539.838 1070.72C538.826 1071.45 538.311 1072.55 538.293 1074.01C538.311 1075.22 538.703 1076.16 539.469 1076.84C540.216 1077.53 541.187 1077.93 542.381 1078.04L544.896 1078.26C545.425 1078.28 545.849 1078.39 546.168 1078.6C546.478 1078.8 546.633 1079.16 546.633 1079.67C546.633 1080.24 546.373 1080.69 545.854 1081.01C545.334 1081.32 544.664 1081.48 543.844 1081.48C542.012 1081.48 540.517 1080.88 539.359 1079.67Z" fill="#FF91B9"/>
<path d="M552.471 1084H555.328V1069.81H552.471V1084ZM552.471 1066.92H555.328V1064.07H552.471V1066.92Z" fill="#FF91B9"/>
<path d="M567.455 1079.83C566.735 1080.8 565.773 1081.29 564.57 1081.31C562.146 1081.35 560.915 1079.89 560.879 1076.92C560.915 1073.93 562.146 1072.45 564.57 1072.49C565.773 1072.52 566.735 1073.02 567.455 1073.98L569.561 1072.11C568.941 1071.36 568.212 1070.76 567.373 1070.31C566.535 1069.88 565.564 1069.65 564.461 1069.63C562.784 1069.61 561.312 1070.17 560.045 1071.31C558.732 1072.47 558.058 1074.34 558.021 1076.92C558.058 1079.47 558.732 1081.32 560.045 1082.46C561.312 1083.59 562.784 1084.16 564.461 1084.16C565.564 1084.15 566.535 1083.9 567.373 1083.44C568.212 1082.99 568.941 1082.41 569.561 1081.7L567.455 1079.83Z" fill="#FF91B9"/>
<path d="M578.543 1084H581.564V1064.07H578.543V1084Z" fill="#FF91B9"/>
<path d="M585.502 1084H588.359V1075.55C588.359 1074.56 588.628 1073.8 589.166 1073.28C589.695 1072.75 590.369 1072.49 591.189 1072.49C592.01 1072.49 592.68 1072.75 593.199 1073.28C593.728 1073.8 593.992 1074.56 593.992 1075.55V1084H596.85V1074.57C596.804 1072.94 596.298 1071.71 595.332 1070.88C594.357 1070.05 593.281 1069.63 592.105 1069.63C590.583 1069.63 589.353 1070.19 588.414 1071.31H588.359V1069.81H585.502V1084Z" fill="#FF91B9"/>
<path d="M600.992 1084H603.85V1071.98H606.707V1069.81H603.85V1067.94C603.813 1067.12 604.223 1066.73 605.08 1066.76H606.707V1064.07H604.861C603.758 1064.07 602.842 1064.36 602.113 1064.96C601.366 1065.59 600.992 1066.59 600.992 1067.94V1069.81H599.557V1071.98H600.992V1084Z" fill="#FF91B9"/>
<path d="M607.637 1076.89C607.637 1078.39 607.76 1079.52 608.006 1080.31C608.261 1081.09 608.653 1081.77 609.182 1082.35C609.574 1082.79 610.12 1083.19 610.822 1083.55C611.515 1083.94 612.404 1084.15 613.488 1084.16C614.609 1084.15 615.516 1083.94 616.209 1083.55C616.583 1083.38 616.888 1083.19 617.125 1082.96C617.389 1082.76 617.613 1082.56 617.795 1082.35C618.36 1081.77 618.761 1081.09 618.998 1080.31C619.226 1079.52 619.34 1078.39 619.34 1076.89C619.34 1075.4 619.226 1074.25 618.998 1073.45C618.761 1072.66 618.36 1072 617.795 1071.46C617.421 1070.99 616.893 1070.57 616.209 1070.19C615.516 1069.84 614.609 1069.65 613.488 1069.63C612.404 1069.65 611.515 1069.84 610.822 1070.19C610.12 1070.57 609.574 1070.99 609.182 1071.46C608.653 1072 608.261 1072.66 608.006 1073.45C607.76 1074.25 607.637 1075.4 607.637 1076.89ZM616.482 1076.92C616.482 1077.88 616.437 1078.6 616.346 1079.05C616.255 1079.52 616.068 1079.93 615.785 1080.28C615.576 1080.55 615.266 1080.8 614.855 1081.01C614.464 1081.21 614.008 1081.31 613.488 1081.31C613.005 1081.31 612.559 1081.21 612.148 1081.01C611.757 1080.8 611.438 1080.55 611.191 1080.28C610.945 1079.93 610.768 1079.52 610.658 1079.05C610.549 1078.6 610.494 1077.88 610.494 1076.89C610.494 1075.9 610.549 1075.17 610.658 1074.7C610.768 1074.26 610.945 1073.86 611.191 1073.53C611.438 1073.21 611.757 1072.96 612.148 1072.78C612.559 1072.58 613.005 1072.49 613.488 1072.49C614.008 1072.49 614.464 1072.58 614.855 1072.78C615.266 1072.96 615.576 1073.21 615.785 1073.53C616.068 1073.86 616.255 1074.26 616.346 1074.7C616.437 1075.17 616.482 1075.91 616.482 1076.92Z" fill="#FF91B9"/>
<path d="M622.498 1084H625.355V1075.55C625.355 1074.56 625.629 1073.8 626.176 1073.28C626.695 1072.75 627.365 1072.49 628.186 1072.49C629.006 1072.49 629.68 1072.75 630.209 1073.28C630.729 1073.8 630.988 1074.56 630.988 1075.55V1084H633.846V1075.55C633.846 1074.56 634.115 1073.8 634.652 1073.28C635.181 1072.75 635.855 1072.49 636.676 1072.49C637.496 1072.49 638.166 1072.75 638.686 1073.28C639.205 1073.8 639.465 1074.56 639.465 1075.55V1084H642.322V1074.57C642.286 1072.94 641.785 1071.71 640.818 1070.88C639.843 1070.05 638.768 1069.63 637.592 1069.63C635.723 1069.61 634.233 1070.23 633.121 1071.49C632.629 1070.94 632.087 1070.49 631.494 1070.14C630.893 1069.82 630.1 1069.65 629.115 1069.63C627.584 1069.63 626.349 1070.19 625.41 1071.31H625.355V1069.81H622.498V1084Z" fill="#FF91B9"/>
<path d="M653.656 1084H656.514V1074.31C656.495 1072.57 655.953 1071.35 654.887 1070.64C653.82 1069.95 652.394 1069.61 650.607 1069.63C648.493 1069.59 646.893 1070.29 645.809 1071.71L648.051 1073.42C648.297 1073.01 648.634 1072.72 649.062 1072.54C649.473 1072.4 650.033 1072.32 650.744 1072.32C652.704 1072.29 653.674 1072.89 653.656 1074.14V1075.63H649.705C648.192 1075.65 647.044 1076.06 646.26 1076.86C645.476 1077.65 645.084 1078.64 645.084 1079.83C645.084 1081.08 645.535 1082.1 646.438 1082.91C647.294 1083.73 648.516 1084.15 650.102 1084.16C651.068 1084.16 651.824 1084.05 652.371 1083.81C652.927 1083.58 653.337 1083.23 653.602 1082.74H653.656V1084ZM653.656 1079.01C653.656 1080.08 653.433 1080.76 652.986 1081.06C652.494 1081.36 651.651 1081.5 650.457 1081.48C649.509 1081.48 648.83 1081.3 648.42 1080.92C647.992 1080.59 647.777 1080.18 647.777 1079.69C647.759 1078.59 648.579 1078.02 650.238 1077.98H653.656V1079.01Z" fill="#FF91B9"/>
<path d="M660.369 1069.81H658.947V1071.98H660.369V1080.5C660.369 1081.62 660.697 1082.48 661.354 1083.07C661.992 1083.69 662.812 1084 663.814 1084H665.305V1081.31H664.238C663.546 1081.32 663.208 1080.97 663.227 1080.25V1071.98H665.305V1069.81H663.227V1065.49H660.369V1069.81Z" fill="#FF91B9"/>
<path d="M668.08 1084H670.938V1069.81H668.08V1084ZM668.08 1066.92H670.938V1064.07H668.08V1066.92Z" fill="#FF91B9"/>
<path d="M674.027 1076.89C674.027 1078.39 674.15 1079.52 674.396 1080.31C674.652 1081.09 675.044 1081.77 675.572 1082.35C675.964 1082.79 676.511 1083.19 677.213 1083.55C677.906 1083.94 678.794 1084.15 679.879 1084.16C681 1084.15 681.907 1083.94 682.6 1083.55C682.973 1083.38 683.279 1083.19 683.516 1082.96C683.78 1082.76 684.003 1082.56 684.186 1082.35C684.751 1081.77 685.152 1081.09 685.389 1080.31C685.617 1079.52 685.73 1078.39 685.73 1076.89C685.73 1075.4 685.617 1074.25 685.389 1073.45C685.152 1072.66 684.751 1072 684.186 1071.46C683.812 1070.99 683.283 1070.57 682.6 1070.19C681.907 1069.84 681 1069.65 679.879 1069.63C678.794 1069.65 677.906 1069.84 677.213 1070.19C676.511 1070.57 675.964 1070.99 675.572 1071.46C675.044 1072 674.652 1072.66 674.396 1073.45C674.15 1074.25 674.027 1075.4 674.027 1076.89ZM682.873 1076.92C682.873 1077.88 682.827 1078.6 682.736 1079.05C682.645 1079.52 682.458 1079.93 682.176 1080.28C681.966 1080.55 681.656 1080.8 681.246 1081.01C680.854 1081.21 680.398 1081.31 679.879 1081.31C679.396 1081.31 678.949 1081.21 678.539 1081.01C678.147 1080.8 677.828 1080.55 677.582 1080.28C677.336 1079.93 677.158 1079.52 677.049 1079.05C676.939 1078.6 676.885 1077.88 676.885 1076.89C676.885 1075.9 676.939 1075.17 677.049 1074.7C677.158 1074.26 677.336 1073.86 677.582 1073.53C677.828 1073.21 678.147 1072.96 678.539 1072.78C678.949 1072.58 679.396 1072.49 679.879 1072.49C680.398 1072.49 680.854 1072.58 681.246 1072.78C681.656 1072.96 681.966 1073.21 682.176 1073.53C682.458 1073.86 682.645 1074.26 682.736 1074.7C682.827 1075.17 682.873 1075.91 682.873 1076.92Z" fill="#FF91B9"/>
<path d="M688.725 1084H691.582V1075.55C691.582 1074.56 691.851 1073.8 692.389 1073.28C692.917 1072.75 693.592 1072.49 694.412 1072.49C695.232 1072.49 695.902 1072.75 696.422 1073.28C696.951 1073.8 697.215 1074.56 697.215 1075.55V1084H700.072V1074.57C700.027 1072.94 699.521 1071.71 698.555 1070.88C697.579 1070.05 696.504 1069.63 695.328 1069.63C693.806 1069.63 692.576 1070.19 691.637 1071.31H691.582V1069.81H688.725V1084Z" fill="#FF91B9"/>
<path d="M1058.55 1070H1062.86V1057.83H1074.7V1054H1062.86V1045.61H1076.73V1041.52H1058.55V1070Z" fill="#F92A75"/>
<path d="M1077.92 1059.84C1077.92 1061.98 1078.1 1063.61 1078.45 1064.73C1078.81 1065.85 1079.37 1066.82 1080.13 1067.64C1080.69 1068.27 1081.47 1068.85 1082.47 1069.36C1083.46 1069.92 1084.73 1070.21 1086.28 1070.23C1087.88 1070.21 1089.18 1069.92 1090.17 1069.36C1090.7 1069.12 1091.14 1068.84 1091.48 1068.52C1091.85 1068.23 1092.17 1067.94 1092.43 1067.64C1093.24 1066.82 1093.81 1065.85 1094.15 1064.73C1094.48 1063.61 1094.64 1061.98 1094.64 1059.84C1094.64 1057.71 1094.48 1056.07 1094.15 1054.92C1093.81 1053.8 1093.24 1052.86 1092.43 1052.09C1091.9 1051.41 1091.14 1050.81 1090.17 1050.27C1089.18 1049.77 1087.88 1049.5 1086.28 1049.47C1084.73 1049.5 1083.46 1049.77 1082.47 1050.27C1081.47 1050.81 1080.69 1051.41 1080.13 1052.09C1079.37 1052.86 1078.81 1053.8 1078.45 1054.92C1078.1 1056.07 1077.92 1057.71 1077.92 1059.84ZM1090.56 1059.88C1090.56 1061.26 1090.49 1062.28 1090.36 1062.93C1090.23 1063.59 1089.97 1064.18 1089.56 1064.69C1089.26 1065.08 1088.82 1065.42 1088.23 1065.72C1087.67 1066.01 1087.02 1066.15 1086.28 1066.15C1085.59 1066.15 1084.95 1066.01 1084.37 1065.72C1083.81 1065.42 1083.35 1065.08 1083 1064.69C1082.65 1064.18 1082.39 1063.59 1082.24 1062.93C1082.08 1062.28 1082 1061.25 1082 1059.84C1082 1058.42 1082.08 1057.38 1082.24 1056.72C1082.39 1056.08 1082.65 1055.52 1083 1055.04C1083.35 1054.58 1083.81 1054.23 1084.37 1053.96C1084.95 1053.69 1085.59 1053.55 1086.28 1053.55C1087.02 1053.55 1087.67 1053.69 1088.23 1053.96C1088.82 1054.23 1089.26 1054.58 1089.56 1055.04C1089.97 1055.52 1090.23 1056.08 1090.36 1056.72C1090.49 1057.38 1090.56 1058.44 1090.56 1059.88Z" fill="#F92A75"/>
<path d="M1097.92 1059.84C1097.92 1061.98 1098.1 1063.61 1098.45 1064.73C1098.81 1065.85 1099.37 1066.82 1100.13 1067.64C1100.69 1068.27 1101.47 1068.85 1102.47 1069.36C1103.46 1069.92 1104.73 1070.21 1106.28 1070.23C1107.88 1070.21 1109.18 1069.92 1110.17 1069.36C1110.7 1069.12 1111.14 1068.84 1111.48 1068.52C1111.85 1068.23 1112.17 1067.94 1112.43 1067.64C1113.24 1066.82 1113.81 1065.85 1114.15 1064.73C1114.48 1063.61 1114.64 1061.98 1114.64 1059.84C1114.64 1057.71 1114.48 1056.07 1114.15 1054.92C1113.81 1053.8 1113.24 1052.86 1112.43 1052.09C1111.9 1051.41 1111.14 1050.81 1110.17 1050.27C1109.18 1049.77 1107.88 1049.5 1106.28 1049.47C1104.73 1049.5 1103.46 1049.77 1102.47 1050.27C1101.47 1050.81 1100.69 1051.41 1100.13 1052.09C1099.37 1052.86 1098.81 1053.8 1098.45 1054.92C1098.1 1056.07 1097.92 1057.71 1097.92 1059.84ZM1110.56 1059.88C1110.56 1061.26 1110.49 1062.28 1110.36 1062.93C1110.23 1063.59 1109.97 1064.18 1109.56 1064.69C1109.26 1065.08 1108.82 1065.42 1108.23 1065.72C1107.67 1066.01 1107.02 1066.15 1106.28 1066.15C1105.59 1066.15 1104.95 1066.01 1104.37 1065.72C1103.81 1065.42 1103.35 1065.08 1103 1064.69C1102.65 1064.18 1102.39 1063.59 1102.24 1062.93C1102.08 1062.28 1102 1061.25 1102 1059.84C1102 1058.42 1102.08 1057.38 1102.24 1056.72C1102.39 1056.08 1102.65 1055.52 1103 1055.04C1103.35 1054.58 1103.81 1054.23 1104.37 1053.96C1104.95 1053.69 1105.59 1053.55 1106.28 1053.55C1107.02 1053.55 1107.67 1053.69 1108.23 1053.96C1108.82 1054.23 1109.26 1054.58 1109.56 1055.04C1109.97 1055.52 1110.23 1056.08 1110.36 1056.72C1110.49 1057.38 1110.56 1058.44 1110.56 1059.88Z" fill="#F92A75"/>
<path d="M1119.15 1049.73H1117.12V1052.83H1119.15V1065C1119.15 1066.6 1119.62 1067.83 1120.56 1068.67C1121.47 1069.56 1122.64 1070 1124.07 1070H1126.2V1066.15H1124.68C1123.69 1066.18 1123.21 1065.68 1123.23 1064.65V1052.83H1126.2V1049.73H1123.23V1043.55H1119.15V1049.73Z" fill="#F92A75"/>
<path d="M1145.77 1061.41V1058.05C1145.75 1055.38 1144.92 1053.28 1143.29 1051.76C1141.69 1050.26 1139.73 1049.5 1137.41 1049.47C1136.45 1049.47 1135.47 1049.65 1134.48 1050C1133.48 1050.35 1132.58 1050.92 1131.77 1051.72C1130.98 1052.5 1130.32 1053.57 1129.82 1054.92C1129.31 1056.25 1129.05 1057.92 1129.05 1059.92C1129.05 1062.01 1129.35 1063.7 1129.93 1065C1130.47 1066.35 1131.16 1067.41 1132.02 1068.16C1132.47 1068.53 1132.94 1068.83 1133.45 1069.08C1133.93 1069.37 1134.43 1069.6 1134.93 1069.77C1135.95 1070.08 1136.99 1070.23 1138.06 1070.23C1140.86 1070.26 1143.29 1069.17 1145.36 1066.95L1142.41 1064.43C1141.11 1065.75 1139.63 1066.41 1137.98 1066.41C1136.56 1066.41 1135.42 1065.98 1134.54 1065.12C1133.61 1064.27 1133.14 1063.03 1133.14 1061.41H1145.77ZM1133.14 1058.05C1133.21 1056.47 1133.64 1055.28 1134.41 1054.47C1135.19 1053.7 1136.19 1053.32 1137.41 1053.32C1138.64 1053.32 1139.64 1053.7 1140.42 1054.47C1141.22 1055.28 1141.64 1056.47 1141.69 1058.05H1133.14Z" fill="#F92A75"/>
<path d="M1150.05 1070H1154.13V1057.79C1154.16 1056.31 1154.59 1055.23 1155.42 1054.57C1156.16 1053.89 1157.06 1053.55 1158.1 1053.55C1159.02 1053.55 1159.91 1053.89 1160.77 1054.57L1163.74 1051.04C1162.53 1050.02 1161.11 1049.5 1159.48 1049.47C1157.31 1049.47 1155.55 1050.27 1154.21 1051.88H1154.13V1049.73H1150.05V1070Z" fill="#F92A75"/>
<path d="M472 840H1253L1203 1000H432L472 840Z" fill="#1ED95D" fill-opacity="0.05"/>
<path d="M506.105 910H509.127V901.482H517.412V898.803H509.127V892.924H518.834V890.066H506.105V910Z" fill="#82ECA5"/>
<path d="M520.365 910H523.223V901.455C523.241 900.416 523.542 899.664 524.125 899.199C524.645 898.725 525.269 898.488 525.998 898.488C526.645 898.488 527.27 898.725 527.871 899.199L529.949 896.725C529.102 896.014 528.108 895.649 526.969 895.631C525.447 895.631 524.216 896.191 523.277 897.312H523.223V895.809H520.365V910Z" fill="#82ECA5"/>
<path d="M541.762 903.984V901.633C541.743 899.764 541.165 898.297 540.025 897.23C538.904 896.182 537.533 895.649 535.91 895.631C535.236 895.631 534.552 895.754 533.859 896C533.158 896.246 532.524 896.647 531.959 897.203C531.403 897.75 530.947 898.497 530.592 899.445C530.236 900.375 530.059 901.542 530.059 902.945C530.059 904.404 530.264 905.589 530.674 906.5C531.048 907.448 531.535 908.186 532.137 908.715C532.447 908.97 532.779 909.184 533.135 909.357C533.472 909.558 533.818 909.717 534.174 909.836C534.885 910.055 535.614 910.164 536.361 910.164C538.321 910.182 540.025 909.417 541.475 907.867L539.41 906.104C538.499 907.024 537.464 907.484 536.307 907.484C535.313 907.484 534.511 907.184 533.9 906.582C533.244 905.99 532.916 905.124 532.916 903.984H541.762ZM532.916 901.633C532.971 900.53 533.267 899.696 533.805 899.131C534.352 898.593 535.053 898.324 535.91 898.324C536.767 898.324 537.469 898.593 538.016 899.131C538.572 899.696 538.868 900.53 538.904 901.633H532.916Z" fill="#82ECA5"/>
<path d="M555.762 903.984V901.633C555.743 899.764 555.165 898.297 554.025 897.23C552.904 896.182 551.533 895.649 549.91 895.631C549.236 895.631 548.552 895.754 547.859 896C547.158 896.246 546.524 896.647 545.959 897.203C545.403 897.75 544.947 898.497 544.592 899.445C544.236 900.375 544.059 901.542 544.059 902.945C544.059 904.404 544.264 905.589 544.674 906.5C545.048 907.448 545.535 908.186 546.137 908.715C546.447 908.97 546.779 909.184 547.135 909.357C547.472 909.558 547.818 909.717 548.174 909.836C548.885 910.055 549.614 910.164 550.361 910.164C552.321 910.182 554.025 909.417 555.475 907.867L553.41 906.104C552.499 907.024 551.464 907.484 550.307 907.484C549.313 907.484 548.511 907.184 547.9 906.582C547.244 905.99 546.916 905.124 546.916 903.984H555.762ZM546.916 901.633C546.971 900.53 547.267 899.696 547.805 899.131C548.352 898.593 549.053 898.324 549.91 898.324C550.767 898.324 551.469 898.593 552.016 899.131C552.572 899.696 552.868 900.53 552.904 901.633H546.916Z" fill="#82ECA5"/>
<path d="M569.119 910H572.154V892.76H577.609V890.066H563.664V892.76H569.119V910Z" fill="#82ECA5"/>
<path d="M576.912 910H579.77V901.455C579.788 900.416 580.089 899.664 580.672 899.199C581.191 898.725 581.816 898.488 582.545 898.488C583.192 898.488 583.816 898.725 584.418 899.199L586.496 896.725C585.648 896.014 584.655 895.649 583.516 895.631C581.993 895.631 580.763 896.191 579.824 897.312H579.77V895.809H576.912V910Z" fill="#82ECA5"/>
<path d="M587.904 910H590.762V895.809H587.904V910ZM587.904 892.924H590.762V890.066H587.904V892.924Z" fill="#82ECA5"/>
<path d="M602 910H604.857V900.307C604.839 898.575 604.297 897.354 603.23 896.643C602.164 895.95 600.738 895.613 598.951 895.631C596.837 895.594 595.237 896.287 594.152 897.709L596.395 899.418C596.641 899.008 596.978 898.716 597.406 898.543C597.816 898.397 598.377 898.324 599.088 898.324C601.048 898.288 602.018 898.894 602 900.143V901.633H598.049C596.536 901.651 595.387 902.061 594.604 902.863C593.82 903.647 593.428 904.636 593.428 905.83C593.428 907.079 593.879 908.104 594.781 908.906C595.638 909.727 596.859 910.146 598.445 910.164C599.411 910.164 600.168 910.046 600.715 909.809C601.271 909.581 601.681 909.225 601.945 908.742H602V910ZM602 905.01C602 906.076 601.777 906.76 601.33 907.061C600.838 907.361 599.995 907.503 598.801 907.484C597.853 907.484 597.174 907.298 596.764 906.924C596.335 906.587 596.121 906.176 596.121 905.693C596.103 904.59 596.923 904.021 598.582 903.984H602V905.01Z" fill="#82ECA5"/>
<path d="M608.549 906.555C608.549 907.803 608.904 908.692 609.615 909.221C610.29 909.74 611.146 910 612.186 910H613.457V907.307H612.473C611.762 907.307 611.406 906.983 611.406 906.336V890.066H608.549V906.555Z" fill="#82ECA5"/>
<path d="M516.346 942.422C515.507 944.236 514.24 945.143 512.545 945.143C511.834 945.143 511.223 944.992 510.713 944.691C510.193 944.436 509.774 944.104 509.455 943.693C509.063 943.265 508.803 942.704 508.676 942.012C508.53 941.319 508.457 939.993 508.457 938.033C508.457 936.074 508.53 934.738 508.676 934.027C508.803 933.353 509.063 932.801 509.455 932.373C509.774 931.963 510.193 931.621 510.713 931.348C511.223 931.083 511.834 930.942 512.545 930.924C513.511 930.942 514.331 931.22 515.006 931.758C515.653 932.323 516.1 933.007 516.346 933.809H519.545C519.226 932.141 518.46 930.742 517.248 929.611C516.036 928.49 514.468 927.921 512.545 927.902C510.977 927.921 509.669 928.294 508.621 929.023C507.555 929.743 506.78 930.564 506.297 931.484C505.996 931.967 505.773 932.601 505.627 933.385C505.49 934.169 505.422 935.718 505.422 938.033C505.422 940.312 505.49 941.852 505.627 942.654C505.7 943.083 505.791 943.438 505.9 943.721C506.019 943.994 506.151 944.281 506.297 944.582C506.78 945.503 507.555 946.314 508.621 947.016C509.669 947.745 510.977 948.128 512.545 948.164C514.277 948.164 515.776 947.672 517.043 946.688C518.273 945.694 519.107 944.272 519.545 942.422H516.346Z" fill="#82ECA5"/>
<path d="M520.734 940.891C520.734 942.385 520.857 943.525 521.104 944.309C521.359 945.092 521.751 945.771 522.279 946.346C522.671 946.792 523.218 947.193 523.92 947.549C524.613 947.941 525.501 948.146 526.586 948.164C527.707 948.146 528.614 947.941 529.307 947.549C529.68 947.385 529.986 947.189 530.223 946.961C530.487 946.76 530.71 946.555 530.893 946.346C531.458 945.771 531.859 945.092 532.096 944.309C532.324 943.525 532.438 942.385 532.438 940.891C532.438 939.396 532.324 938.247 532.096 937.445C531.859 936.661 531.458 936.001 530.893 935.463C530.519 934.989 529.99 934.565 529.307 934.191C528.614 933.836 527.707 933.649 526.586 933.631C525.501 933.649 524.613 933.836 523.92 934.191C523.218 934.565 522.671 934.989 522.279 935.463C521.751 936.001 521.359 936.661 521.104 937.445C520.857 938.247 520.734 939.396 520.734 940.891ZM529.58 940.918C529.58 941.884 529.535 942.595 529.443 943.051C529.352 943.516 529.165 943.926 528.883 944.281C528.673 944.555 528.363 944.796 527.953 945.006C527.561 945.206 527.105 945.307 526.586 945.307C526.103 945.307 525.656 945.206 525.246 945.006C524.854 944.796 524.535 944.555 524.289 944.281C524.043 943.926 523.865 943.516 523.756 943.051C523.646 942.595 523.592 941.875 523.592 940.891C523.592 939.897 523.646 939.168 523.756 938.703C523.865 938.257 524.043 937.865 524.289 937.527C524.535 937.208 524.854 936.958 525.246 936.775C525.656 936.584 526.103 936.488 526.586 936.488C527.105 936.488 527.561 936.584 527.953 936.775C528.363 936.958 528.673 937.208 528.883 937.527C529.165 937.865 529.352 938.257 529.443 938.703C529.535 939.168 529.58 939.906 529.58 940.918Z" fill="#82ECA5"/>
<path d="M535.432 948H538.289V939.551C538.289 938.557 538.558 937.801 539.096 937.281C539.624 936.753 540.299 936.488 541.119 936.488C541.939 936.488 542.609 936.753 543.129 937.281C543.658 937.801 543.922 938.557 543.922 939.551V948H546.779V938.566C546.734 936.944 546.228 935.714 545.262 934.875C544.286 934.046 543.211 933.631 542.035 933.631C540.513 933.631 539.283 934.191 538.344 935.312H538.289V933.809H535.432V948Z" fill="#82ECA5"/>
<path d="M550.635 933.809H549.213V935.982H550.635V944.5C550.635 945.621 550.963 946.478 551.619 947.07C552.257 947.69 553.077 948 554.08 948H555.57V945.307H554.504C553.811 945.325 553.474 944.974 553.492 944.254V935.982H555.57V933.809H553.492V929.488H550.635V933.809Z" fill="#82ECA5"/>
<path d="M565.715 948H568.572V938.307C568.554 936.575 568.012 935.354 566.945 934.643C565.879 933.95 564.452 933.613 562.666 933.631C560.551 933.594 558.952 934.287 557.867 935.709L560.109 937.418C560.355 937.008 560.693 936.716 561.121 936.543C561.531 936.397 562.092 936.324 562.803 936.324C564.762 936.288 565.733 936.894 565.715 938.143V939.633H561.764C560.251 939.651 559.102 940.061 558.318 940.863C557.535 941.647 557.143 942.636 557.143 943.83C557.143 945.079 557.594 946.104 558.496 946.906C559.353 947.727 560.574 948.146 562.16 948.164C563.126 948.164 563.883 948.046 564.43 947.809C564.986 947.581 565.396 947.225 565.66 946.742H565.715V948ZM565.715 943.01C565.715 944.076 565.492 944.76 565.045 945.061C564.553 945.361 563.71 945.503 562.516 945.484C561.568 945.484 560.889 945.298 560.479 944.924C560.05 944.587 559.836 944.176 559.836 943.693C559.818 942.59 560.638 942.021 562.297 941.984H565.715V943.01Z" fill="#82ECA5"/>
<path d="M580.604 943.83C579.883 944.796 578.922 945.288 577.719 945.307C575.294 945.352 574.064 943.889 574.027 940.918C574.064 937.928 575.294 936.452 577.719 936.488C578.922 936.525 579.883 937.021 580.604 937.979L582.709 936.105C582.089 935.358 581.36 934.761 580.521 934.314C579.683 933.877 578.712 933.649 577.609 933.631C575.932 933.613 574.46 934.173 573.193 935.312C571.881 936.47 571.206 938.339 571.17 940.918C571.206 943.47 571.881 945.316 573.193 946.455C574.46 947.594 575.932 948.164 577.609 948.164C578.712 948.146 579.683 947.904 580.521 947.439C581.36 946.993 582.089 946.414 582.709 945.703L580.604 943.83Z" fill="#82ECA5"/>
<path d="M584.869 933.809H583.447V935.982H584.869V944.5C584.869 945.621 585.197 946.478 585.854 947.07C586.492 947.69 587.312 948 588.314 948H589.805V945.307H588.738C588.046 945.325 587.708 944.974 587.727 944.254V935.982H589.805V933.809H587.727V929.488H584.869V933.809Z" fill="#82ECA5"/>
<path d="M1116.93 926.031C1115.73 928.622 1113.92 929.918 1111.5 929.918C1110.48 929.918 1109.61 929.703 1108.88 929.273C1108.14 928.909 1107.54 928.434 1107.08 927.848C1106.52 927.236 1106.15 926.435 1105.97 925.445C1105.76 924.456 1105.66 922.561 1105.66 919.762C1105.66 916.962 1105.76 915.055 1105.97 914.039C1106.15 913.076 1106.52 912.288 1107.08 911.676C1107.54 911.09 1108.14 910.602 1108.88 910.211C1109.61 909.833 1110.48 909.632 1111.5 909.605C1112.88 909.632 1114.05 910.029 1115.01 910.797C1115.94 911.604 1116.57 912.581 1116.93 913.727H1121.5C1121.04 911.344 1119.95 909.345 1118.21 907.73C1116.48 906.129 1114.24 905.315 1111.5 905.289C1109.26 905.315 1107.39 905.849 1105.89 906.891C1104.37 907.919 1103.26 909.091 1102.57 910.406C1102.14 911.096 1101.82 912.001 1101.61 913.121C1101.42 914.241 1101.32 916.454 1101.32 919.762C1101.32 923.017 1101.42 925.217 1101.61 926.363C1101.72 926.975 1101.85 927.483 1102 927.887C1102.17 928.277 1102.36 928.688 1102.57 929.117C1103.26 930.432 1104.37 931.591 1105.89 932.594C1107.39 933.635 1109.26 934.182 1111.5 934.234C1113.97 934.234 1116.11 933.531 1117.92 932.125C1119.68 930.706 1120.87 928.674 1121.5 926.031H1116.93Z" fill="#82DEA1"/>
<path d="M1129.39 934H1133.72V909.371H1141.52V905.523H1121.59V909.371H1129.39V934Z" fill="#82DEA1"/>
<path d="M1146.63 923.805L1150.75 911.363H1150.83L1154.95 923.805H1146.63ZM1158.39 934H1162.94L1152.59 905.523H1148.98L1138.62 934H1143.2L1145.38 927.633H1156.18L1158.39 934Z" fill="#82DEA1"/>
<path d="M336 242H1614L1464 865H166L336 242Z" fill="#66A3EB" fill-opacity="0.05"/>
<path d="M1366.6 525H1370.92V507.246H1371L1376.95 520.918H1380.55L1386.5 507.246H1386.6V525H1390.92V496.523H1386.84L1378.83 515.078L1370.66 496.523H1366.6V525Z" fill="#66A3EB"/>
<path d="M1407.19 525H1411.27V511.152C1411.24 508.678 1410.47 506.934 1408.95 505.918C1407.42 504.928 1405.38 504.447 1402.83 504.473C1399.81 504.421 1397.53 505.41 1395.98 507.441L1399.18 509.883C1399.53 509.297 1400.01 508.88 1400.62 508.633C1401.21 508.424 1402.01 508.32 1403.03 508.32C1405.83 508.268 1407.21 509.134 1407.19 510.918V513.047H1401.54C1399.38 513.073 1397.74 513.659 1396.62 514.805C1395.5 515.924 1394.94 517.337 1394.94 519.043C1394.94 520.827 1395.59 522.292 1396.88 523.438C1398.1 524.609 1399.84 525.208 1402.11 525.234C1403.49 525.234 1404.57 525.065 1405.35 524.727C1406.15 524.401 1406.73 523.893 1407.11 523.203H1407.19V525ZM1407.19 517.871C1407.19 519.395 1406.87 520.371 1406.23 520.801C1405.53 521.23 1404.32 521.432 1402.62 521.406C1401.26 521.406 1400.29 521.139 1399.71 520.605C1399.1 520.124 1398.79 519.538 1398.79 518.848C1398.76 517.272 1399.93 516.458 1402.3 516.406H1407.19V517.871Z" fill="#66A3EB"/>
<path d="M1416.66 525H1420.74V504.727H1416.66V525ZM1416.66 500.605H1420.74V496.523H1416.66V500.605Z" fill="#66A3EB"/>
<path d="M1426.15 525H1430.23V512.93C1430.23 511.51 1430.62 510.43 1431.39 509.688C1432.14 508.932 1433.11 508.555 1434.28 508.555C1435.45 508.555 1436.41 508.932 1437.15 509.688C1437.9 510.43 1438.28 511.51 1438.28 512.93V525H1442.36V511.523C1442.3 509.206 1441.58 507.448 1440.2 506.25C1438.8 505.065 1437.27 504.473 1435.59 504.473C1433.41 504.473 1431.65 505.273 1430.31 506.875H1430.23V504.727H1426.15V525Z" fill="#66A3EB"/>
<path d="M1335.14 574.031C1333.94 576.622 1332.13 577.918 1329.71 577.918C1328.69 577.918 1327.82 577.703 1327.09 577.273C1326.35 576.909 1325.75 576.434 1325.29 575.848C1324.73 575.236 1324.36 574.435 1324.18 573.445C1323.97 572.456 1323.87 570.561 1323.87 567.762C1323.87 564.962 1323.97 563.055 1324.18 562.039C1324.36 561.076 1324.73 560.288 1325.29 559.676C1325.75 559.09 1326.35 558.602 1327.09 558.211C1327.82 557.833 1328.69 557.632 1329.71 557.605C1331.09 557.632 1332.26 558.029 1333.22 558.797C1334.15 559.604 1334.79 560.581 1335.14 561.727H1339.71C1339.25 559.344 1338.16 557.345 1336.43 555.73C1334.69 554.129 1332.45 553.315 1329.71 553.289C1327.47 553.315 1325.6 553.849 1324.1 554.891C1322.58 555.919 1321.47 557.091 1320.78 558.406C1320.35 559.096 1320.03 560.001 1319.82 561.121C1319.63 562.241 1319.53 564.454 1319.53 567.762C1319.53 571.017 1319.63 573.217 1319.82 574.363C1319.93 574.975 1320.06 575.483 1320.21 575.887C1320.38 576.277 1320.57 576.688 1320.78 577.117C1321.47 578.432 1322.58 579.591 1324.1 580.594C1325.6 581.635 1327.47 582.182 1329.71 582.234C1332.18 582.234 1334.32 581.531 1336.13 580.125C1337.89 578.706 1339.08 576.674 1339.71 574.031H1335.14Z" fill="#66A3EB"/>
<path d="M1341.41 571.844C1341.41 573.979 1341.58 575.607 1341.93 576.727C1342.3 577.846 1342.86 578.816 1343.61 579.637C1344.17 580.275 1344.95 580.848 1345.96 581.355C1346.95 581.915 1348.22 582.208 1349.77 582.234C1351.37 582.208 1352.66 581.915 1353.65 581.355C1354.19 581.121 1354.62 580.841 1354.96 580.516C1355.34 580.229 1355.66 579.936 1355.92 579.637C1356.73 578.816 1357.3 577.846 1357.64 576.727C1357.96 575.607 1358.12 573.979 1358.12 571.844C1358.12 569.708 1357.96 568.068 1357.64 566.922C1357.3 565.802 1356.73 564.858 1355.92 564.09C1355.38 563.413 1354.63 562.807 1353.65 562.273C1352.66 561.766 1351.37 561.499 1349.77 561.473C1348.22 561.499 1346.95 561.766 1345.96 562.273C1344.95 562.807 1344.17 563.413 1343.61 564.09C1342.86 564.858 1342.3 565.802 1341.93 566.922C1341.58 568.068 1341.41 569.708 1341.41 571.844ZM1354.04 571.883C1354.04 573.263 1353.98 574.279 1353.85 574.93C1353.72 575.594 1353.45 576.18 1353.05 576.688C1352.75 577.078 1352.3 577.423 1351.72 577.723C1351.16 578.009 1350.51 578.152 1349.77 578.152C1349.08 578.152 1348.44 578.009 1347.85 577.723C1347.29 577.423 1346.84 577.078 1346.48 576.688C1346.13 576.18 1345.88 575.594 1345.72 574.93C1345.57 574.279 1345.49 573.25 1345.49 571.844C1345.49 570.424 1345.57 569.383 1345.72 568.719C1345.88 568.081 1346.13 567.521 1346.48 567.039C1346.84 566.583 1347.29 566.225 1347.85 565.965C1348.44 565.691 1349.08 565.555 1349.77 565.555C1350.51 565.555 1351.16 565.691 1351.72 565.965C1352.3 566.225 1352.75 566.583 1353.05 567.039C1353.45 567.521 1353.72 568.081 1353.85 568.719C1353.98 569.383 1354.04 570.438 1354.04 571.883Z" fill="#66A3EB"/>
<path d="M1362.4 582H1366.48V569.93C1366.48 568.51 1366.87 567.43 1367.64 566.688C1368.39 565.932 1369.36 565.555 1370.53 565.555C1371.7 565.555 1372.66 565.932 1373.4 566.688C1374.15 567.43 1374.53 568.51 1374.53 569.93V582H1378.61V568.523C1378.55 566.206 1377.83 564.448 1376.45 563.25C1375.05 562.065 1373.52 561.473 1371.84 561.473C1369.66 561.473 1367.9 562.273 1366.56 563.875H1366.48V561.727H1362.4V582Z" fill="#66A3EB"/>
<path d="M1384.12 561.727H1382.09V564.832H1384.12V577C1384.12 578.602 1384.59 579.826 1385.53 580.672C1386.44 581.557 1387.61 582 1389.04 582H1391.17V578.152H1389.65C1388.66 578.178 1388.18 577.677 1388.2 576.648V564.832H1391.17V561.727H1388.2V555.555H1384.12V561.727Z" fill="#66A3EB"/>
<path d="M1410.74 573.406V570.047C1410.72 567.378 1409.89 565.281 1408.26 563.758C1406.66 562.26 1404.7 561.499 1402.38 561.473C1401.42 561.473 1400.44 561.648 1399.45 562C1398.45 562.352 1397.55 562.924 1396.74 563.719C1395.94 564.5 1395.29 565.568 1394.79 566.922C1394.28 568.25 1394.02 569.917 1394.02 571.922C1394.02 574.005 1394.32 575.698 1394.9 577C1395.44 578.354 1396.13 579.409 1396.99 580.164C1397.43 580.529 1397.91 580.835 1398.42 581.082C1398.9 581.368 1399.39 581.596 1399.9 581.766C1400.92 582.078 1401.96 582.234 1403.03 582.234C1405.83 582.26 1408.26 581.167 1410.33 578.953L1407.38 576.434C1406.08 577.749 1404.6 578.406 1402.95 578.406C1401.53 578.406 1400.38 577.977 1399.51 577.117C1398.57 576.271 1398.11 575.034 1398.11 573.406H1410.74ZM1398.11 570.047C1398.18 568.471 1398.61 567.28 1399.38 566.473C1400.16 565.704 1401.16 565.32 1402.38 565.32C1403.61 565.32 1404.61 565.704 1405.39 566.473C1406.18 567.28 1406.61 568.471 1406.66 570.047H1398.11Z" fill="#66A3EB"/>
<path d="M1415.02 582H1419.1V569.93C1419.1 568.51 1419.49 567.43 1420.25 566.688C1421.01 565.932 1421.97 565.555 1423.14 565.555C1424.32 565.555 1425.27 565.932 1426.02 566.688C1426.77 567.43 1427.15 568.51 1427.15 569.93V582H1431.23V568.523C1431.17 566.206 1430.44 564.448 1429.06 563.25C1427.67 562.065 1426.13 561.473 1424.45 561.473C1422.28 561.473 1420.52 562.273 1419.18 563.875H1419.1V561.727H1415.02V582Z" fill="#66A3EB"/>
<path d="M1436.74 561.727H1434.71V564.832H1436.74V577C1436.74 578.602 1437.21 579.826 1438.14 580.672C1439.06 581.557 1440.23 582 1441.66 582H1443.79V578.152H1442.27C1441.28 578.178 1440.79 577.677 1440.82 576.648V564.832H1443.79V561.727H1440.82V555.555H1436.74V561.727Z" fill="#66A3EB"/>
<path d="M279 302H1209L1159 462H239L279 302Z" fill="#66A3EB" fill-opacity="0.15"/>
<path d="M340.346 389.422C339.507 391.236 338.24 392.143 336.545 392.143C335.834 392.143 335.223 391.992 334.713 391.691C334.193 391.436 333.774 391.104 333.455 390.693C333.063 390.265 332.803 389.704 332.676 389.012C332.53 388.319 332.457 386.993 332.457 385.033C332.457 383.074 332.53 381.738 332.676 381.027C332.803 380.353 333.063 379.801 333.455 379.373C333.774 378.963 334.193 378.621 334.713 378.348C335.223 378.083 335.834 377.942 336.545 377.924C337.511 377.942 338.331 378.22 339.006 378.758C339.653 379.323 340.1 380.007 340.346 380.809H343.545C343.226 379.141 342.46 377.742 341.248 376.611C340.036 375.49 338.468 374.921 336.545 374.902C334.977 374.921 333.669 375.294 332.621 376.023C331.555 376.743 330.78 377.564 330.297 378.484C329.996 378.967 329.773 379.601 329.627 380.385C329.49 381.169 329.422 382.718 329.422 385.033C329.422 387.312 329.49 388.852 329.627 389.654C329.7 390.083 329.791 390.438 329.9 390.721C330.019 390.994 330.151 391.281 330.297 391.582C330.78 392.503 331.555 393.314 332.621 394.016C333.669 394.745 334.977 395.128 336.545 395.164C338.277 395.164 339.776 394.672 341.043 393.688C342.273 392.694 343.107 391.272 343.545 389.422H340.346Z" fill="#4B9CFF"/>
<path d="M344.734 387.891C344.734 389.385 344.857 390.525 345.104 391.309C345.359 392.092 345.751 392.771 346.279 393.346C346.671 393.792 347.218 394.193 347.92 394.549C348.613 394.941 349.501 395.146 350.586 395.164C351.707 395.146 352.614 394.941 353.307 394.549C353.68 394.385 353.986 394.189 354.223 393.961C354.487 393.76 354.71 393.555 354.893 393.346C355.458 392.771 355.859 392.092 356.096 391.309C356.324 390.525 356.438 389.385 356.438 387.891C356.438 386.396 356.324 385.247 356.096 384.445C355.859 383.661 355.458 383.001 354.893 382.463C354.519 381.989 353.99 381.565 353.307 381.191C352.614 380.836 351.707 380.649 350.586 380.631C349.501 380.649 348.613 380.836 347.92 381.191C347.218 381.565 346.671 381.989 346.279 382.463C345.751 383.001 345.359 383.661 345.104 384.445C344.857 385.247 344.734 386.396 344.734 387.891ZM353.58 387.918C353.58 388.884 353.535 389.595 353.443 390.051C353.352 390.516 353.165 390.926 352.883 391.281C352.673 391.555 352.363 391.796 351.953 392.006C351.561 392.206 351.105 392.307 350.586 392.307C350.103 392.307 349.656 392.206 349.246 392.006C348.854 391.796 348.535 391.555 348.289 391.281C348.043 390.926 347.865 390.516 347.756 390.051C347.646 389.595 347.592 388.875 347.592 387.891C347.592 386.897 347.646 386.168 347.756 385.703C347.865 385.257 348.043 384.865 348.289 384.527C348.535 384.208 348.854 383.958 349.246 383.775C349.656 383.584 350.103 383.488 350.586 383.488C351.105 383.488 351.561 383.584 351.953 383.775C352.363 383.958 352.673 384.208 352.883 384.527C353.165 384.865 353.352 385.257 353.443 385.703C353.535 386.168 353.58 386.906 353.58 387.918Z" fill="#4B9CFF"/>
<path d="M359.432 395H362.289V386.551C362.289 385.557 362.558 384.801 363.096 384.281C363.624 383.753 364.299 383.488 365.119 383.488C365.939 383.488 366.609 383.753 367.129 384.281C367.658 384.801 367.922 385.557 367.922 386.551V395H370.779V385.566C370.734 383.944 370.228 382.714 369.262 381.875C368.286 381.046 367.211 380.631 366.035 380.631C364.513 380.631 363.283 381.191 362.344 382.312H362.289V380.809H359.432V395Z" fill="#4B9CFF"/>
<path d="M374.635 380.809H373.213V382.982H374.635V391.5C374.635 392.621 374.963 393.478 375.619 394.07C376.257 394.69 377.077 395 378.08 395H379.57V392.307H378.504C377.811 392.325 377.474 391.974 377.492 391.254V382.982H379.57V380.809H377.492V376.488H374.635V380.809Z" fill="#4B9CFF"/>
<path d="M393.27 388.984V386.633C393.251 384.764 392.673 383.297 391.533 382.23C390.412 381.182 389.04 380.649 387.418 380.631C386.743 380.631 386.06 380.754 385.367 381C384.665 381.246 384.032 381.647 383.467 382.203C382.911 382.75 382.455 383.497 382.1 384.445C381.744 385.375 381.566 386.542 381.566 387.945C381.566 389.404 381.771 390.589 382.182 391.5C382.555 392.448 383.043 393.186 383.645 393.715C383.954 393.97 384.287 394.184 384.643 394.357C384.98 394.558 385.326 394.717 385.682 394.836C386.393 395.055 387.122 395.164 387.869 395.164C389.829 395.182 391.533 394.417 392.982 392.867L390.918 391.104C390.007 392.024 388.972 392.484 387.814 392.484C386.821 392.484 386.019 392.184 385.408 391.582C384.752 390.99 384.424 390.124 384.424 388.984H393.27ZM384.424 386.633C384.479 385.53 384.775 384.696 385.312 384.131C385.859 383.593 386.561 383.324 387.418 383.324C388.275 383.324 388.977 383.593 389.523 384.131C390.079 384.696 390.376 385.53 390.412 386.633H384.424Z" fill="#4B9CFF"/>
<path d="M396.264 395H399.121V386.551C399.121 385.557 399.39 384.801 399.928 384.281C400.456 383.753 401.131 383.488 401.951 383.488C402.771 383.488 403.441 383.753 403.961 384.281C404.49 384.801 404.754 385.557 404.754 386.551V395H407.611V385.566C407.566 383.944 407.06 382.714 406.094 381.875C405.118 381.046 404.043 380.631 402.867 380.631C401.345 380.631 400.115 381.191 399.176 382.312H399.121V380.809H396.264V395Z" fill="#4B9CFF"/>
<path d="M411.467 380.809H410.045V382.982H411.467V391.5C411.467 392.621 411.795 393.478 412.451 394.07C413.089 394.69 413.91 395 414.912 395H416.402V392.307H415.336C414.643 392.325 414.306 391.974 414.324 391.254V382.982H416.402V380.809H414.324V376.488H411.467V380.809Z" fill="#4B9CFF"/>
<path d="M429.404 378.088V395H432.262V375.066H429.404L426.574 377.131V380.166L429.404 378.088Z" fill="#4B9CFF"/>
<path d="M439.357 395H442.215V392.143H439.357V395Z" fill="#4B9CFF"/>
<path d="M446.084 395H448.941V392.143H446.084V395Z" fill="#4B9CFF"/>
<path d="M452.811 395H455.668V392.143H452.811V395Z" fill="#4B9CFF"/>
<path d="M229 476H1159L1109 636H189L229 476Z" fill="#66A3EB" fill-opacity="0.15"/>
<path d="M340.346 559.422C339.507 561.236 338.24 562.143 336.545 562.143C335.834 562.143 335.223 561.992 334.713 561.691C334.193 561.436 333.774 561.104 333.455 560.693C333.063 560.265 332.803 559.704 332.676 559.012C332.53 558.319 332.457 556.993 332.457 555.033C332.457 553.074 332.53 551.738 332.676 551.027C332.803 550.353 333.063 549.801 333.455 549.373C333.774 548.963 334.193 548.621 334.713 548.348C335.223 548.083 335.834 547.942 336.545 547.924C337.511 547.942 338.331 548.22 339.006 548.758C339.653 549.323 340.1 550.007 340.346 550.809H343.545C343.226 549.141 342.46 547.742 341.248 546.611C340.036 545.49 338.468 544.921 336.545 544.902C334.977 544.921 333.669 545.294 332.621 546.023C331.555 546.743 330.78 547.564 330.297 548.484C329.996 548.967 329.773 549.601 329.627 550.385C329.49 551.169 329.422 552.718 329.422 555.033C329.422 557.312 329.49 558.852 329.627 559.654C329.7 560.083 329.791 560.438 329.9 560.721C330.019 560.994 330.151 561.281 330.297 561.582C330.78 562.503 331.555 563.314 332.621 564.016C333.669 564.745 334.977 565.128 336.545 565.164C338.277 565.164 339.776 564.672 341.043 563.688C342.273 562.694 343.107 561.272 343.545 559.422H340.346Z" fill="#4B9CFF"/>
<path d="M344.734 557.891C344.734 559.385 344.857 560.525 345.104 561.309C345.359 562.092 345.751 562.771 346.279 563.346C346.671 563.792 347.218 564.193 347.92 564.549C348.613 564.941 349.501 565.146 350.586 565.164C351.707 565.146 352.614 564.941 353.307 564.549C353.68 564.385 353.986 564.189 354.223 563.961C354.487 563.76 354.71 563.555 354.893 563.346C355.458 562.771 355.859 562.092 356.096 561.309C356.324 560.525 356.438 559.385 356.438 557.891C356.438 556.396 356.324 555.247 356.096 554.445C355.859 553.661 355.458 553.001 354.893 552.463C354.519 551.989 353.99 551.565 353.307 551.191C352.614 550.836 351.707 550.649 350.586 550.631C349.501 550.649 348.613 550.836 347.92 551.191C347.218 551.565 346.671 551.989 346.279 552.463C345.751 553.001 345.359 553.661 345.104 554.445C344.857 555.247 344.734 556.396 344.734 557.891ZM353.58 557.918C353.58 558.884 353.535 559.595 353.443 560.051C353.352 560.516 353.165 560.926 352.883 561.281C352.673 561.555 352.363 561.796 351.953 562.006C351.561 562.206 351.105 562.307 350.586 562.307C350.103 562.307 349.656 562.206 349.246 562.006C348.854 561.796 348.535 561.555 348.289 561.281C348.043 560.926 347.865 560.516 347.756 560.051C347.646 559.595 347.592 558.875 347.592 557.891C347.592 556.897 347.646 556.168 347.756 555.703C347.865 555.257 348.043 554.865 348.289 554.527C348.535 554.208 348.854 553.958 349.246 553.775C349.656 553.584 350.103 553.488 350.586 553.488C351.105 553.488 351.561 553.584 351.953 553.775C352.363 553.958 352.673 554.208 352.883 554.527C353.165 554.865 353.352 555.257 353.443 555.703C353.535 556.168 353.58 556.906 353.58 557.918Z" fill="#4B9CFF"/>
<path d="M359.432 565H362.289V556.551C362.289 555.557 362.558 554.801 363.096 554.281C363.624 553.753 364.299 553.488 365.119 553.488C365.939 553.488 366.609 553.753 367.129 554.281C367.658 554.801 367.922 555.557 367.922 556.551V565H370.779V555.566C370.734 553.944 370.228 552.714 369.262 551.875C368.286 551.046 367.211 550.631 366.035 550.631C364.513 550.631 363.283 551.191 362.344 552.312H362.289V550.809H359.432V565Z" fill="#4B9CFF"/>
<path d="M374.635 550.809H373.213V552.982H374.635V561.5C374.635 562.621 374.963 563.478 375.619 564.07C376.257 564.69 377.077 565 378.08 565H379.57V562.307H378.504C377.811 562.325 377.474 561.974 377.492 561.254V552.982H379.57V550.809H377.492V546.488H374.635V550.809Z" fill="#4B9CFF"/>
<path d="M393.27 558.984V556.633C393.251 554.764 392.673 553.297 391.533 552.23C390.412 551.182 389.04 550.649 387.418 550.631C386.743 550.631 386.06 550.754 385.367 551C384.665 551.246 384.032 551.647 383.467 552.203C382.911 552.75 382.455 553.497 382.1 554.445C381.744 555.375 381.566 556.542 381.566 557.945C381.566 559.404 381.771 560.589 382.182 561.5C382.555 562.448 383.043 563.186 383.645 563.715C383.954 563.97 384.287 564.184 384.643 564.357C384.98 564.558 385.326 564.717 385.682 564.836C386.393 565.055 387.122 565.164 387.869 565.164C389.829 565.182 391.533 564.417 392.982 562.867L390.918 561.104C390.007 562.024 388.972 562.484 387.814 562.484C386.821 562.484 386.019 562.184 385.408 561.582C384.752 560.99 384.424 560.124 384.424 558.984H393.27ZM384.424 556.633C384.479 555.53 384.775 554.696 385.312 554.131C385.859 553.593 386.561 553.324 387.418 553.324C388.275 553.324 388.977 553.593 389.523 554.131C390.079 554.696 390.376 555.53 390.412 556.633H384.424Z" fill="#4B9CFF"/>
<path d="M396.264 565H399.121V556.551C399.121 555.557 399.39 554.801 399.928 554.281C400.456 553.753 401.131 553.488 401.951 553.488C402.771 553.488 403.441 553.753 403.961 554.281C404.49 554.801 404.754 555.557 404.754 556.551V565H407.611V555.566C407.566 553.944 407.06 552.714 406.094 551.875C405.118 551.046 404.043 550.631 402.867 550.631C401.345 550.631 400.115 551.191 399.176 552.312H399.121V550.809H396.264V565Z" fill="#4B9CFF"/>
<path d="M411.467 550.809H410.045V552.982H411.467V561.5C411.467 562.621 411.795 563.478 412.451 564.07C413.089 564.69 413.91 565 414.912 565H416.402V562.307H415.336C414.643 562.325 414.306 561.974 414.324 561.254V552.982H416.402V550.809H414.324V546.488H411.467V550.809Z" fill="#4B9CFF"/>
<path d="M424.879 565H436.24V562.143H428.625L435.037 554.104C435.839 553.083 436.24 551.916 436.24 550.604C436.222 548.963 435.671 547.609 434.586 546.543C433.52 545.467 432.13 544.921 430.416 544.902C428.885 544.921 427.595 545.458 426.547 546.516C425.508 547.6 424.952 548.972 424.879 550.631H427.723C427.823 549.719 428.142 549.013 428.68 548.512C429.199 548.01 429.851 547.76 430.635 547.76C431.519 547.778 432.202 548.065 432.686 548.621C433.15 549.177 433.383 549.829 433.383 550.576C433.383 550.859 433.346 551.16 433.273 551.479C433.164 551.816 432.959 552.18 432.658 552.572L424.879 562.307V565Z" fill="#4B9CFF"/>
<path d="M439.357 565H442.215V562.143H439.357V565Z" fill="#4B9CFF"/>
<path d="M446.084 565H448.941V562.143H446.084V565Z" fill="#4B9CFF"/>
<path d="M452.811 565H455.668V562.143H452.811V565Z" fill="#4B9CFF"/>
<path d="M185 650H596L546 810H145L185 650Z" fill="#66A3EB" fill-opacity="0.15"/>
<path d="M340.346 733.422C339.507 735.236 338.24 736.143 336.545 736.143C335.834 736.143 335.223 735.992 334.713 735.691C334.193 735.436 333.774 735.104 333.455 734.693C333.063 734.265 332.803 733.704 332.676 733.012C332.53 732.319 332.457 730.993 332.457 729.033C332.457 727.074 332.53 725.738 332.676 725.027C332.803 724.353 333.063 723.801 333.455 723.373C333.774 722.963 334.193 722.621 334.713 722.348C335.223 722.083 335.834 721.942 336.545 721.924C337.511 721.942 338.331 722.22 339.006 722.758C339.653 723.323 340.1 724.007 340.346 724.809H343.545C343.226 723.141 342.46 721.742 341.248 720.611C340.036 719.49 338.468 718.921 336.545 718.902C334.977 718.921 333.669 719.294 332.621 720.023C331.555 720.743 330.78 721.564 330.297 722.484C329.996 722.967 329.773 723.601 329.627 724.385C329.49 725.169 329.422 726.718 329.422 729.033C329.422 731.312 329.49 732.852 329.627 733.654C329.7 734.083 329.791 734.438 329.9 734.721C330.019 734.994 330.151 735.281 330.297 735.582C330.78 736.503 331.555 737.314 332.621 738.016C333.669 738.745 334.977 739.128 336.545 739.164C338.277 739.164 339.776 738.672 341.043 737.688C342.273 736.694 343.107 735.272 343.545 733.422H340.346Z" fill="#4B9CFF"/>
<path d="M344.734 731.891C344.734 733.385 344.857 734.525 345.104 735.309C345.359 736.092 345.751 736.771 346.279 737.346C346.671 737.792 347.218 738.193 347.92 738.549C348.613 738.941 349.501 739.146 350.586 739.164C351.707 739.146 352.614 738.941 353.307 738.549C353.68 738.385 353.986 738.189 354.223 737.961C354.487 737.76 354.71 737.555 354.893 737.346C355.458 736.771 355.859 736.092 356.096 735.309C356.324 734.525 356.438 733.385 356.438 731.891C356.438 730.396 356.324 729.247 356.096 728.445C355.859 727.661 355.458 727.001 354.893 726.463C354.519 725.989 353.99 725.565 353.307 725.191C352.614 724.836 351.707 724.649 350.586 724.631C349.501 724.649 348.613 724.836 347.92 725.191C347.218 725.565 346.671 725.989 346.279 726.463C345.751 727.001 345.359 727.661 345.104 728.445C344.857 729.247 344.734 730.396 344.734 731.891ZM353.58 731.918C353.58 732.884 353.535 733.595 353.443 734.051C353.352 734.516 353.165 734.926 352.883 735.281C352.673 735.555 352.363 735.796 351.953 736.006C351.561 736.206 351.105 736.307 350.586 736.307C350.103 736.307 349.656 736.206 349.246 736.006C348.854 735.796 348.535 735.555 348.289 735.281C348.043 734.926 347.865 734.516 347.756 734.051C347.646 733.595 347.592 732.875 347.592 731.891C347.592 730.897 347.646 730.168 347.756 729.703C347.865 729.257 348.043 728.865 348.289 728.527C348.535 728.208 348.854 727.958 349.246 727.775C349.656 727.584 350.103 727.488 350.586 727.488C351.105 727.488 351.561 727.584 351.953 727.775C352.363 727.958 352.673 728.208 352.883 728.527C353.165 728.865 353.352 729.257 353.443 729.703C353.535 730.168 353.58 730.906 353.58 731.918Z" fill="#4B9CFF"/>
<path d="M359.432 739H362.289V730.551C362.289 729.557 362.558 728.801 363.096 728.281C363.624 727.753 364.299 727.488 365.119 727.488C365.939 727.488 366.609 727.753 367.129 728.281C367.658 728.801 367.922 729.557 367.922 730.551V739H370.779V729.566C370.734 727.944 370.228 726.714 369.262 725.875C368.286 725.046 367.211 724.631 366.035 724.631C364.513 724.631 363.283 725.191 362.344 726.312H362.289V724.809H359.432V739Z" fill="#4B9CFF"/>
<path d="M374.635 724.809H373.213V726.982H374.635V735.5C374.635 736.621 374.963 737.478 375.619 738.07C376.257 738.69 377.077 739 378.08 739H379.57V736.307H378.504C377.811 736.325 377.474 735.974 377.492 735.254V726.982H379.57V724.809H377.492V720.488H374.635V724.809Z" fill="#4B9CFF"/>
<path d="M393.27 732.984V730.633C393.251 728.764 392.673 727.297 391.533 726.23C390.412 725.182 389.04 724.649 387.418 724.631C386.743 724.631 386.06 724.754 385.367 725C384.665 725.246 384.032 725.647 383.467 726.203C382.911 726.75 382.455 727.497 382.1 728.445C381.744 729.375 381.566 730.542 381.566 731.945C381.566 733.404 381.771 734.589 382.182 735.5C382.555 736.448 383.043 737.186 383.645 737.715C383.954 737.97 384.287 738.184 384.643 738.357C384.98 738.558 385.326 738.717 385.682 738.836C386.393 739.055 387.122 739.164 387.869 739.164C389.829 739.182 391.533 738.417 392.982 736.867L390.918 735.104C390.007 736.024 388.972 736.484 387.814 736.484C386.821 736.484 386.019 736.184 385.408 735.582C384.752 734.99 384.424 734.124 384.424 732.984H393.27ZM384.424 730.633C384.479 729.53 384.775 728.696 385.312 728.131C385.859 727.593 386.561 727.324 387.418 727.324C388.275 727.324 388.977 727.593 389.523 728.131C390.079 728.696 390.376 729.53 390.412 730.633H384.424Z" fill="#4B9CFF"/>
<path d="M396.264 739H399.121V730.551C399.121 729.557 399.39 728.801 399.928 728.281C400.456 727.753 401.131 727.488 401.951 727.488C402.771 727.488 403.441 727.753 403.961 728.281C404.49 728.801 404.754 729.557 404.754 730.551V739H407.611V729.566C407.566 727.944 407.06 726.714 406.094 725.875C405.118 725.046 404.043 724.631 402.867 724.631C401.345 724.631 400.115 725.191 399.176 726.312H399.121V724.809H396.264V739Z" fill="#4B9CFF"/>
<path d="M411.467 724.809H410.045V726.982H411.467V735.5C411.467 736.621 411.795 737.478 412.451 738.07C413.089 738.69 413.91 739 414.912 739H416.402V736.307H415.336C414.643 736.325 414.306 735.974 414.324 735.254V726.982H416.402V724.809H414.324V720.488H411.467V724.809Z" fill="#4B9CFF"/>
<path d="M428.898 729.99H430.102C430.986 729.99 431.715 730.259 432.289 730.797C432.872 731.353 433.173 732.137 433.191 733.148C433.173 734.142 432.872 734.908 432.289 735.445C431.715 736.02 431.008 736.307 430.17 736.307C429.386 736.307 428.757 736.092 428.283 735.664C427.818 735.254 427.458 734.716 427.203 734.051H424.346C424.656 735.71 425.335 736.977 426.383 737.852C427.431 738.727 428.634 739.164 429.992 739.164C431.751 739.146 433.191 738.585 434.312 737.482C435.452 736.407 436.031 734.935 436.049 733.066C436.049 732.228 435.871 731.426 435.516 730.66C435.142 729.895 434.536 729.238 433.697 728.691C434.518 728.135 435.087 727.502 435.406 726.791C435.68 726.08 435.816 725.342 435.816 724.576C435.798 723.063 435.279 721.751 434.258 720.639C433.191 719.499 431.751 718.921 429.938 718.902C428.507 718.921 427.276 719.431 426.246 720.434C425.198 721.445 424.601 722.689 424.455 724.166H427.312C427.495 723.346 427.85 722.74 428.379 722.348C428.88 721.956 429.436 721.76 430.047 721.76C430.895 721.778 431.587 722.047 432.125 722.566C432.663 723.104 432.941 723.792 432.959 724.631C432.959 725.46 432.69 726.135 432.152 726.654C431.615 727.192 430.858 727.461 429.883 727.461H428.898V729.99Z" fill="#4B9CFF"/>
<path d="M439.357 739H442.215V736.143H439.357V739Z" fill="#4B9CFF"/>
<path d="M446.084 739H448.941V736.143H446.084V739Z" fill="#4B9CFF"/>
<path d="M452.811 739H455.668V736.143H452.811V739Z" fill="#4B9CFF"/>
<path d="M472 110H1258L1218 270H442L472 110Z" fill="#F92A75" fill-opacity="0.05"/>
<path d="M506.105 180H509.127V165.836H509.182L518.191 180H521.049V160.066H518.027V174.23H517.973L508.949 160.066H506.105V180Z" fill="#FF91B9"/>
<path d="M532.465 180H535.322V170.307C535.304 168.575 534.762 167.354 533.695 166.643C532.629 165.95 531.202 165.613 529.416 165.631C527.301 165.594 525.702 166.287 524.617 167.709L526.859 169.418C527.105 169.008 527.443 168.716 527.871 168.543C528.281 168.397 528.842 168.324 529.553 168.324C531.512 168.288 532.483 168.894 532.465 170.143V171.633H528.514C527.001 171.651 525.852 172.061 525.068 172.863C524.285 173.647 523.893 174.636 523.893 175.83C523.893 177.079 524.344 178.104 525.246 178.906C526.103 179.727 527.324 180.146 528.91 180.164C529.876 180.164 530.633 180.046 531.18 179.809C531.736 179.581 532.146 179.225 532.41 178.742H532.465V180ZM532.465 175.01C532.465 176.076 532.242 176.76 531.795 177.061C531.303 177.361 530.46 177.503 529.266 177.484C528.318 177.484 527.639 177.298 527.229 176.924C526.8 176.587 526.586 176.176 526.586 175.693C526.568 174.59 527.388 174.021 529.047 173.984H532.465V175.01Z" fill="#FF91B9"/>
<path d="M542.213 180H544.564L549.773 165.809H546.738L543.416 175.748H543.361L540.025 165.809H537.004L542.213 180Z" fill="#FF91B9"/>
<path d="M551.537 180H554.395V165.809H551.537V180ZM551.537 162.924H554.395V160.066H551.537V162.924Z" fill="#FF91B9"/>
<path d="M566.166 178.51V179.973C566.148 180.939 565.847 181.695 565.264 182.242C564.671 182.78 563.887 183.049 562.912 183.049C562.393 183.031 561.891 182.889 561.408 182.625C560.934 182.388 560.515 182.101 560.15 181.764L557.936 183.527C559.294 185.077 560.934 185.87 562.857 185.906C564.535 185.906 565.975 185.391 567.178 184.361C568.372 183.359 568.987 181.791 569.023 179.658V165.809H566.166V167.312C565.136 166.191 563.915 165.631 562.502 165.631C561.581 165.649 560.816 165.827 560.205 166.164C559.567 166.52 559.079 166.921 558.742 167.367C558.368 167.823 558.1 168.383 557.936 169.049C557.762 169.723 557.676 171.013 557.676 172.918C557.676 174.786 557.762 176.053 557.936 176.719C558.1 177.393 558.368 177.963 558.742 178.428C559.079 178.838 559.567 179.221 560.205 179.576C560.816 179.95 561.581 180.146 562.502 180.164C564.006 180.128 565.227 179.576 566.166 178.51ZM560.533 172.918C560.533 171.815 560.57 171.049 560.643 170.621C560.706 170.193 560.857 169.846 561.094 169.582C561.285 169.327 561.577 169.076 561.969 168.83C562.342 168.62 562.807 168.507 563.363 168.488C563.919 168.507 564.384 168.62 564.758 168.83C565.132 169.076 565.414 169.327 565.605 169.582C565.842 169.846 566.002 170.193 566.084 170.621C566.139 171.049 566.166 171.815 566.166 172.918C566.166 174.003 566.139 174.75 566.084 175.16C566.002 175.589 565.842 175.944 565.605 176.227C565.414 176.482 565.132 176.714 564.758 176.924C564.384 177.179 563.919 177.307 563.363 177.307C562.807 177.307 562.342 177.179 561.969 176.924C561.577 176.714 561.285 176.482 561.094 176.227C560.857 175.944 560.706 175.589 560.643 175.16C560.57 174.75 560.533 174.003 560.533 172.918Z" fill="#FF91B9"/>
<path d="M580.18 180H583.037V170.307C583.019 168.575 582.477 167.354 581.41 166.643C580.344 165.95 578.917 165.613 577.131 165.631C575.016 165.594 573.417 166.287 572.332 167.709L574.574 169.418C574.82 169.008 575.158 168.716 575.586 168.543C575.996 168.397 576.557 168.324 577.268 168.324C579.227 168.288 580.198 168.894 580.18 170.143V171.633H576.229C574.715 171.651 573.567 172.061 572.783 172.863C571.999 173.647 571.607 174.636 571.607 175.83C571.607 177.079 572.059 178.104 572.961 178.906C573.818 179.727 575.039 180.146 576.625 180.164C577.591 180.164 578.348 180.046 578.895 179.809C579.451 179.581 579.861 179.225 580.125 178.742H580.18V180ZM580.18 175.01C580.18 176.076 579.956 176.76 579.51 177.061C579.018 177.361 578.174 177.503 576.98 177.484C576.033 177.484 575.354 177.298 574.943 176.924C574.515 176.587 574.301 176.176 574.301 175.693C574.283 174.59 575.103 174.021 576.762 173.984H580.18V175.01Z" fill="#FF91B9"/>
<path d="M586.893 165.809H585.471V167.982H586.893V176.5C586.893 177.621 587.221 178.478 587.877 179.07C588.515 179.69 589.335 180 590.338 180H591.828V177.307H590.762C590.069 177.325 589.732 176.974 589.75 176.254V167.982H591.828V165.809H589.75V161.488H586.893V165.809Z" fill="#FF91B9"/>
<path d="M594.604 180H597.461V165.809H594.604V180ZM594.604 162.924H597.461V160.066H594.604V162.924Z" fill="#FF91B9"/>
<path d="M600.551 172.891C600.551 174.385 600.674 175.525 600.92 176.309C601.175 177.092 601.567 177.771 602.096 178.346C602.488 178.792 603.035 179.193 603.736 179.549C604.429 179.941 605.318 180.146 606.402 180.164C607.523 180.146 608.43 179.941 609.123 179.549C609.497 179.385 609.802 179.189 610.039 178.961C610.303 178.76 610.527 178.555 610.709 178.346C611.274 177.771 611.675 177.092 611.912 176.309C612.14 175.525 612.254 174.385 612.254 172.891C612.254 171.396 612.14 170.247 611.912 169.445C611.675 168.661 611.274 168.001 610.709 167.463C610.335 166.989 609.807 166.565 609.123 166.191C608.43 165.836 607.523 165.649 606.402 165.631C605.318 165.649 604.429 165.836 603.736 166.191C603.035 166.565 602.488 166.989 602.096 167.463C601.567 168.001 601.175 168.661 600.92 169.445C600.674 170.247 600.551 171.396 600.551 172.891ZM609.396 172.918C609.396 173.884 609.351 174.595 609.26 175.051C609.169 175.516 608.982 175.926 608.699 176.281C608.49 176.555 608.18 176.796 607.77 177.006C607.378 177.206 606.922 177.307 606.402 177.307C605.919 177.307 605.473 177.206 605.062 177.006C604.671 176.796 604.352 176.555 604.105 176.281C603.859 175.926 603.682 175.516 603.572 175.051C603.463 174.595 603.408 173.875 603.408 172.891C603.408 171.897 603.463 171.168 603.572 170.703C603.682 170.257 603.859 169.865 604.105 169.527C604.352 169.208 604.671 168.958 605.062 168.775C605.473 168.584 605.919 168.488 606.402 168.488C606.922 168.488 607.378 168.584 607.77 168.775C608.18 168.958 608.49 169.208 608.699 169.527C608.982 169.865 609.169 170.257 609.26 170.703C609.351 171.168 609.396 171.906 609.396 172.918Z" fill="#FF91B9"/>
<path d="M615.248 180H618.105V171.551C618.105 170.557 618.374 169.801 618.912 169.281C619.441 168.753 620.115 168.488 620.936 168.488C621.756 168.488 622.426 168.753 622.945 169.281C623.474 169.801 623.738 170.557 623.738 171.551V180H626.596V170.566C626.55 168.944 626.044 167.714 625.078 166.875C624.103 166.046 623.027 165.631 621.852 165.631C620.329 165.631 619.099 166.191 618.16 167.312H618.105V165.809H615.248V180Z" fill="#FF91B9"/>
<path d="M506.105 218H518.834V215.143H509.127V198.066H506.105V218Z" fill="#FF91B9"/>
<path d="M520.734 210.891C520.734 212.385 520.857 213.525 521.104 214.309C521.359 215.092 521.751 215.771 522.279 216.346C522.671 216.792 523.218 217.193 523.92 217.549C524.613 217.941 525.501 218.146 526.586 218.164C527.707 218.146 528.614 217.941 529.307 217.549C529.68 217.385 529.986 217.189 530.223 216.961C530.487 216.76 530.71 216.555 530.893 216.346C531.458 215.771 531.859 215.092 532.096 214.309C532.324 213.525 532.438 212.385 532.438 210.891C532.438 209.396 532.324 208.247 532.096 207.445C531.859 206.661 531.458 206.001 530.893 205.463C530.519 204.989 529.99 204.565 529.307 204.191C528.614 203.836 527.707 203.649 526.586 203.631C525.501 203.649 524.613 203.836 523.92 204.191C523.218 204.565 522.671 204.989 522.279 205.463C521.751 206.001 521.359 206.661 521.104 207.445C520.857 208.247 520.734 209.396 520.734 210.891ZM529.58 210.918C529.58 211.884 529.535 212.595 529.443 213.051C529.352 213.516 529.165 213.926 528.883 214.281C528.673 214.555 528.363 214.796 527.953 215.006C527.561 215.206 527.105 215.307 526.586 215.307C526.103 215.307 525.656 215.206 525.246 215.006C524.854 214.796 524.535 214.555 524.289 214.281C524.043 213.926 523.865 213.516 523.756 213.051C523.646 212.595 523.592 211.875 523.592 210.891C523.592 209.897 523.646 209.168 523.756 208.703C523.865 208.257 524.043 207.865 524.289 207.527C524.535 207.208 524.854 206.958 525.246 206.775C525.656 206.584 526.103 206.488 526.586 206.488C527.105 206.488 527.561 206.584 527.953 206.775C528.363 206.958 528.673 207.208 528.883 207.527C529.165 207.865 529.352 208.257 529.443 208.703C529.535 209.168 529.58 209.906 529.58 210.918Z" fill="#FF91B9"/>
<path d="M543.416 216.51V217.973C543.398 218.939 543.097 219.695 542.514 220.242C541.921 220.78 541.137 221.049 540.162 221.049C539.643 221.031 539.141 220.889 538.658 220.625C538.184 220.388 537.765 220.101 537.4 219.764L535.186 221.527C536.544 223.077 538.184 223.87 540.107 223.906C541.785 223.906 543.225 223.391 544.428 222.361C545.622 221.359 546.237 219.791 546.273 217.658V203.809H543.416V205.312C542.386 204.191 541.165 203.631 539.752 203.631C538.831 203.649 538.066 203.827 537.455 204.164C536.817 204.52 536.329 204.921 535.992 205.367C535.618 205.823 535.35 206.383 535.186 207.049C535.012 207.723 534.926 209.013 534.926 210.918C534.926 212.786 535.012 214.053 535.186 214.719C535.35 215.393 535.618 215.963 535.992 216.428C536.329 216.838 536.817 217.221 537.455 217.576C538.066 217.95 538.831 218.146 539.752 218.164C541.256 218.128 542.477 217.576 543.416 216.51ZM537.783 210.918C537.783 209.815 537.82 209.049 537.893 208.621C537.956 208.193 538.107 207.846 538.344 207.582C538.535 207.327 538.827 207.076 539.219 206.83C539.592 206.62 540.057 206.507 540.613 206.488C541.169 206.507 541.634 206.62 542.008 206.83C542.382 207.076 542.664 207.327 542.855 207.582C543.092 207.846 543.252 208.193 543.334 208.621C543.389 209.049 543.416 209.815 543.416 210.918C543.416 212.003 543.389 212.75 543.334 213.16C543.252 213.589 543.092 213.944 542.855 214.227C542.664 214.482 542.382 214.714 542.008 214.924C541.634 215.179 541.169 215.307 540.613 215.307C540.057 215.307 539.592 215.179 539.219 214.924C538.827 214.714 538.535 214.482 538.344 214.227C538.107 213.944 537.956 213.589 537.893 213.16C537.82 212.75 537.783 212.003 537.783 210.918Z" fill="#FF91B9"/>
<path d="M550.061 218H552.918V203.809H550.061V218ZM550.061 200.924H552.918V198.066H550.061V200.924Z" fill="#FF91B9"/>
<path d="M556.705 218H559.562V209.551C559.562 208.557 559.831 207.801 560.369 207.281C560.898 206.753 561.572 206.488 562.393 206.488C563.213 206.488 563.883 206.753 564.402 207.281C564.931 207.801 565.195 208.557 565.195 209.551V218H568.053V208.566C568.007 206.944 567.501 205.714 566.535 204.875C565.56 204.046 564.484 203.631 563.309 203.631C561.786 203.631 560.556 204.191 559.617 205.312H559.562V203.809H556.705V218Z" fill="#FF91B9"/>
<path d="M582.395 202.318C582.395 201.781 582.59 201.325 582.982 200.951C583.338 200.596 583.794 200.418 584.35 200.418C584.933 200.418 585.411 200.596 585.785 200.951C586.141 201.325 586.318 201.781 586.318 202.318C586.318 202.82 586.15 203.28 585.812 203.699C585.439 204.109 584.792 204.501 583.871 204.875C583.443 204.465 583.101 204.032 582.846 203.576C582.545 203.148 582.395 202.729 582.395 202.318ZM589.586 215.99L591.432 218H594.795L591.432 213.994C591.997 213.383 592.503 212.695 592.949 211.93C593.396 211.182 593.76 210.435 594.043 209.688L591.486 208.676C591.113 209.87 590.534 210.982 589.75 212.012L585.498 206.885C587.758 205.764 588.87 204.278 588.834 202.428C588.816 201.179 588.406 200.117 587.604 199.242C586.801 198.367 585.717 197.921 584.35 197.902C582.992 197.921 581.911 198.367 581.109 199.242C580.289 200.117 579.879 201.179 579.879 202.428C579.879 203.102 580.043 203.758 580.371 204.396C580.654 205.044 581.036 205.65 581.52 206.215C579.004 207.609 577.737 209.551 577.719 212.039C577.737 213.716 578.325 215.143 579.482 216.318C580.604 217.512 582.117 218.128 584.021 218.164C585.079 218.146 586.068 217.932 586.988 217.521C587.918 217.111 588.784 216.601 589.586 215.99ZM583.119 208.115L587.932 213.885C586.555 215.079 585.22 215.667 583.926 215.648C582.923 215.648 582.066 215.293 581.355 214.582C580.626 213.908 580.253 213.051 580.234 212.012C580.216 210.553 581.178 209.255 583.119 208.115Z" fill="#FF91B9"/>
<path d="M603.613 218H606.635V209.482H614.92V206.803H606.635V200.924H616.342V198.066H603.613V218Z" fill="#FF91B9"/>
<path d="M617.873 218H620.73V209.455C620.749 208.416 621.049 207.664 621.633 207.199C622.152 206.725 622.777 206.488 623.506 206.488C624.153 206.488 624.777 206.725 625.379 207.199L627.457 204.725C626.609 204.014 625.616 203.649 624.477 203.631C622.954 203.631 621.724 204.191 620.785 205.312H620.73V203.809H617.873V218Z" fill="#FF91B9"/>
<path d="M639.27 211.984V209.633C639.251 207.764 638.673 206.297 637.533 205.23C636.412 204.182 635.04 203.649 633.418 203.631C632.743 203.631 632.06 203.754 631.367 204C630.665 204.246 630.032 204.647 629.467 205.203C628.911 205.75 628.455 206.497 628.1 207.445C627.744 208.375 627.566 209.542 627.566 210.945C627.566 212.404 627.771 213.589 628.182 214.5C628.555 215.448 629.043 216.186 629.645 216.715C629.954 216.97 630.287 217.184 630.643 217.357C630.98 217.558 631.326 217.717 631.682 217.836C632.393 218.055 633.122 218.164 633.869 218.164C635.829 218.182 637.533 217.417 638.982 215.867L636.918 214.104C636.007 215.024 634.972 215.484 633.814 215.484C632.821 215.484 632.019 215.184 631.408 214.582C630.752 213.99 630.424 213.124 630.424 211.984H639.27ZM630.424 209.633C630.479 208.53 630.775 207.696 631.312 207.131C631.859 206.593 632.561 206.324 633.418 206.324C634.275 206.324 634.977 206.593 635.523 207.131C636.079 207.696 636.376 208.53 636.412 209.633H630.424Z" fill="#FF91B9"/>
<path d="M653.27 211.984V209.633C653.251 207.764 652.673 206.297 651.533 205.23C650.412 204.182 649.04 203.649 647.418 203.631C646.743 203.631 646.06 203.754 645.367 204C644.665 204.246 644.032 204.647 643.467 205.203C642.911 205.75 642.455 206.497 642.1 207.445C641.744 208.375 641.566 209.542 641.566 210.945C641.566 212.404 641.771 213.589 642.182 214.5C642.555 215.448 643.043 216.186 643.645 216.715C643.954 216.97 644.287 217.184 644.643 217.357C644.98 217.558 645.326 217.717 645.682 217.836C646.393 218.055 647.122 218.164 647.869 218.164C649.829 218.182 651.533 217.417 652.982 215.867L650.918 214.104C650.007 215.024 648.972 215.484 647.814 215.484C646.821 215.484 646.019 215.184 645.408 214.582C644.752 213.99 644.424 213.124 644.424 211.984H653.27ZM644.424 209.633C644.479 208.53 644.775 207.696 645.312 207.131C645.859 206.593 646.561 206.324 647.418 206.324C648.275 206.324 648.977 206.593 649.523 207.131C650.079 207.696 650.376 208.53 650.412 209.633H644.424Z" fill="#FF91B9"/>
<path d="M666.627 218H669.662V200.76H675.117V198.066H661.172V200.76H666.627V218Z" fill="#FF91B9"/>
<path d="M674.42 218H677.277V209.455C677.296 208.416 677.596 207.664 678.18 207.199C678.699 206.725 679.324 206.488 680.053 206.488C680.7 206.488 681.324 206.725 681.926 207.199L684.004 204.725C683.156 204.014 682.163 203.649 681.023 203.631C679.501 203.631 678.271 204.191 677.332 205.312H677.277V203.809H674.42V218Z" fill="#FF91B9"/>
<path d="M685.412 218H688.27V203.809H685.412V218ZM685.412 200.924H688.27V198.066H685.412V200.924Z" fill="#FF91B9"/>
<path d="M699.508 218H702.365V208.307C702.347 206.575 701.805 205.354 700.738 204.643C699.672 203.95 698.245 203.613 696.459 203.631C694.344 203.594 692.745 204.287 691.66 205.709L693.902 207.418C694.148 207.008 694.486 206.716 694.914 206.543C695.324 206.397 695.885 206.324 696.596 206.324C698.555 206.288 699.526 206.894 699.508 208.143V209.633H695.557C694.044 209.651 692.895 210.061 692.111 210.863C691.327 211.647 690.936 212.636 690.936 213.83C690.936 215.079 691.387 216.104 692.289 216.906C693.146 217.727 694.367 218.146 695.953 218.164C696.919 218.164 697.676 218.046 698.223 217.809C698.779 217.581 699.189 217.225 699.453 216.742H699.508V218ZM699.508 213.01C699.508 214.076 699.285 214.76 698.838 215.061C698.346 215.361 697.503 215.503 696.309 215.484C695.361 215.484 694.682 215.298 694.271 214.924C693.843 214.587 693.629 214.176 693.629 213.693C693.611 212.59 694.431 212.021 696.09 211.984H699.508V213.01Z" fill="#FF91B9"/>
<path d="M706.057 214.555C706.057 215.803 706.412 216.692 707.123 217.221C707.798 217.74 708.654 218 709.693 218H710.965V215.307H709.98C709.27 215.307 708.914 214.983 708.914 214.336V198.066H706.057V214.555Z" fill="#FF91B9"/>
<path d="M1059.29 204H1063.61V175.523H1059.29V187.73H1048.02V175.523H1043.7V204H1048.02V191.559H1059.29V204Z" fill="#F92A75"/>
<path d="M1084.99 195.406V192.047C1084.97 189.378 1084.14 187.281 1082.51 185.758C1080.91 184.26 1078.95 183.499 1076.63 183.473C1075.67 183.473 1074.69 183.648 1073.7 184C1072.7 184.352 1071.8 184.924 1070.99 185.719C1070.19 186.5 1069.54 187.568 1069.04 188.922C1068.53 190.25 1068.27 191.917 1068.27 193.922C1068.27 196.005 1068.57 197.698 1069.15 199C1069.69 200.354 1070.38 201.409 1071.24 202.164C1071.68 202.529 1072.16 202.835 1072.67 203.082C1073.15 203.368 1073.64 203.596 1074.15 203.766C1075.17 204.078 1076.21 204.234 1077.28 204.234C1080.08 204.26 1082.51 203.167 1084.58 200.953L1081.63 198.434C1080.33 199.749 1078.85 200.406 1077.2 200.406C1075.78 200.406 1074.63 199.977 1073.76 199.117C1072.82 198.271 1072.36 197.034 1072.36 195.406H1084.99ZM1072.36 192.047C1072.43 190.471 1072.86 189.28 1073.62 188.473C1074.41 187.704 1075.41 187.32 1076.63 187.32C1077.86 187.32 1078.86 187.704 1079.64 188.473C1080.43 189.28 1080.86 190.471 1080.91 192.047H1072.36Z" fill="#F92A75"/>
<path d="M1099.91 204H1104V190.152C1103.97 187.678 1103.2 185.934 1101.67 184.918C1100.15 183.928 1098.11 183.447 1095.56 183.473C1092.54 183.421 1090.25 184.41 1088.7 186.441L1091.91 188.883C1092.26 188.297 1092.74 187.88 1093.35 187.633C1093.94 187.424 1094.74 187.32 1095.75 187.32C1098.55 187.268 1099.94 188.134 1099.91 189.918V192.047H1094.27C1092.11 192.073 1090.47 192.659 1089.35 193.805C1088.23 194.924 1087.67 196.337 1087.67 198.043C1087.67 199.827 1088.31 201.292 1089.6 202.438C1090.83 203.609 1092.57 204.208 1094.84 204.234C1096.22 204.234 1097.3 204.065 1098.08 203.727C1098.87 203.401 1099.46 202.893 1099.84 202.203H1099.91V204ZM1099.91 196.871C1099.91 198.395 1099.6 199.371 1098.96 199.801C1098.25 200.23 1097.05 200.432 1095.34 200.406C1093.99 200.406 1093.02 200.139 1092.43 199.605C1091.82 199.124 1091.52 198.538 1091.52 197.848C1091.49 196.272 1092.66 195.458 1095.03 195.406H1099.91V196.871Z" fill="#F92A75"/>
<path d="M1121.4 201.871V204H1125.48V175.523H1121.4V185.875C1120.64 185.159 1119.86 184.573 1119.04 184.117C1118.15 183.688 1117.19 183.473 1116.14 183.473C1113.67 183.538 1111.86 184.423 1110.71 186.129C1110.15 186.767 1109.78 187.607 1109.6 188.648C1109.38 189.677 1109.27 191.409 1109.27 193.844C1109.27 196.24 1109.38 197.958 1109.6 199C1109.78 200.094 1110.15 200.96 1110.71 201.598C1111.33 202.379 1112.09 203.004 1113 203.473C1113.87 203.954 1114.92 204.208 1116.14 204.234C1118.31 204.182 1120.06 203.395 1121.4 201.871ZM1117.39 187.555C1118.36 187.555 1119.12 187.743 1119.68 188.121C1120.24 188.499 1120.62 188.993 1120.83 189.605C1121.09 190.217 1121.27 190.882 1121.36 191.598C1121.39 192.314 1121.4 193.062 1121.4 193.844C1121.4 194.56 1121.39 195.289 1121.36 196.031C1121.27 196.786 1121.09 197.47 1120.83 198.082C1120.62 198.694 1120.24 199.189 1119.68 199.566C1119.12 199.957 1118.36 200.152 1117.39 200.152C1116.43 200.152 1115.7 199.97 1115.19 199.605C1114.63 199.228 1114.22 198.746 1113.96 198.16C1113.71 197.548 1113.55 196.858 1113.47 196.09C1113.39 195.361 1113.35 194.612 1113.35 193.844C1113.35 193.036 1113.39 192.249 1113.47 191.48C1113.55 190.764 1113.71 190.1 1113.96 189.488C1114.22 188.876 1114.63 188.395 1115.19 188.043C1115.7 187.717 1116.43 187.555 1117.39 187.555Z" fill="#F92A75"/>
<path d="M1145.77 195.406V192.047C1145.75 189.378 1144.92 187.281 1143.29 185.758C1141.69 184.26 1139.73 183.499 1137.41 183.473C1136.45 183.473 1135.47 183.648 1134.48 184C1133.48 184.352 1132.58 184.924 1131.77 185.719C1130.98 186.5 1130.32 187.568 1129.82 188.922C1129.31 190.25 1129.05 191.917 1129.05 193.922C1129.05 196.005 1129.35 197.698 1129.93 199C1130.47 200.354 1131.16 201.409 1132.02 202.164C1132.47 202.529 1132.94 202.835 1133.45 203.082C1133.93 203.368 1134.43 203.596 1134.93 203.766C1135.95 204.078 1136.99 204.234 1138.06 204.234C1140.86 204.26 1143.29 203.167 1145.36 200.953L1142.41 198.434C1141.11 199.749 1139.63 200.406 1137.98 200.406C1136.56 200.406 1135.42 199.977 1134.54 199.117C1133.61 198.271 1133.14 197.034 1133.14 195.406H1145.77ZM1133.14 192.047C1133.21 190.471 1133.64 189.28 1134.41 188.473C1135.19 187.704 1136.19 187.32 1137.41 187.32C1138.64 187.32 1139.64 187.704 1140.42 188.473C1141.22 189.28 1141.64 190.471 1141.69 192.047H1133.14Z" fill="#F92A75"/>
<path d="M1150.05 204H1154.13V191.793C1154.16 190.309 1154.59 189.234 1155.42 188.57C1156.16 187.893 1157.06 187.555 1158.1 187.555C1159.02 187.555 1159.91 187.893 1160.77 188.57L1163.74 185.035C1162.53 184.02 1161.11 183.499 1159.48 183.473C1157.31 183.473 1155.55 184.273 1154.21 185.875H1154.13V183.727H1150.05V204Z" fill="#F92A75"/>
<path d="M837.447 80.3934C837.665 79.594 837.193 78.7698 836.393 78.5525C835.594 78.3352 834.77 78.8071 834.553 79.6066L837.447 80.3934ZM674 676L672.553 675.607C672.43 676.057 672.525 676.54 672.808 676.911C673.092 677.282 673.533 677.5 674 677.5V676ZM1023 676L1024.44 676.433C1024.57 675.979 1024.49 675.486 1024.2 675.105C1023.92 674.725 1023.47 674.5 1023 674.5V676ZM874 1170L886.623 1158.14L870.04 1153.14L874 1170ZM831.853 89.5399C831.635 90.3393 832.107 91.1635 832.907 91.3808C833.706 91.5981 834.53 91.1262 834.747 90.3268L831.853 89.5399ZM829.347 110.193C829.565 109.394 829.093 108.57 828.293 108.353C827.494 108.135 826.67 108.607 826.453 109.407L829.347 110.193ZM821.053 129.273C820.835 130.073 821.307 130.897 822.107 131.114C822.906 131.331 823.73 130.86 823.947 130.06L821.053 129.273ZM818.547 149.927C818.765 149.127 818.293 148.303 817.493 148.086C816.694 147.869 815.87 148.34 815.653 149.14L818.547 149.927ZM810.253 169.007C810.035 169.806 810.507 170.63 811.307 170.847C812.106 171.065 812.93 170.593 813.147 169.793L810.253 169.007ZM807.747 189.66C807.965 188.861 807.493 188.036 806.693 187.819C805.894 187.602 805.07 188.074 804.853 188.873L807.747 189.66ZM799.453 208.74C799.235 209.539 799.707 210.364 800.507 210.581C801.306 210.798 802.13 210.326 802.347 209.527L799.453 208.74ZM796.947 229.393C797.165 228.594 796.693 227.77 795.893 227.553C795.094 227.335 794.27 227.807 794.053 228.607L796.947 229.393ZM788.653 248.473C788.435 249.273 788.907 250.097 789.707 250.314C790.506 250.531 791.33 250.06 791.547 249.26L788.653 248.473ZM786.147 269.127C786.365 268.327 785.893 267.503 785.093 267.286C784.294 267.069 783.47 267.54 783.253 268.34L786.147 269.127ZM777.853 288.207C777.635 289.006 778.107 289.83 778.907 290.047C779.706 290.265 780.53 289.793 780.747 288.993L777.853 288.207ZM775.347 308.86C775.565 308.061 775.093 307.236 774.293 307.019C773.494 306.802 772.67 307.274 772.453 308.073L775.347 308.86ZM767.053 327.94C766.835 328.739 767.307 329.564 768.107 329.781C768.906 329.998 769.73 329.526 769.947 328.727L767.053 327.94ZM764.547 348.593C764.765 347.794 764.293 346.97 763.493 346.753C762.694 346.535 761.87 347.007 761.653 347.807L764.547 348.593ZM756.253 367.673C756.035 368.473 756.507 369.297 757.307 369.514C758.106 369.731 758.93 369.26 759.147 368.46L756.253 367.673ZM753.747 388.327C753.965 387.527 753.493 386.703 752.693 386.486C751.894 386.269 751.07 386.74 750.853 387.54L753.747 388.327ZM745.453 407.407C745.235 408.206 745.707 409.03 746.507 409.248C747.306 409.465 748.13 408.993 748.347 408.193L745.453 407.407ZM742.947 428.06C743.165 427.261 742.693 426.437 741.893 426.219C741.094 426.002 740.27 426.474 740.053 427.273L742.947 428.06ZM734.653 447.14C734.435 447.939 734.907 448.764 735.707 448.981C736.506 449.198 737.33 448.726 737.547 447.927L734.653 447.14ZM732.147 467.793C732.365 466.994 731.893 466.17 731.093 465.953C730.294 465.735 729.47 466.207 729.253 467.007L732.147 467.793ZM723.852 486.873C723.635 487.673 724.107 488.497 724.907 488.714C725.706 488.932 726.53 488.46 726.747 487.66L723.852 486.873ZM721.347 507.527C721.565 506.727 721.093 505.903 720.293 505.686C719.494 505.469 718.67 505.941 718.452 506.74L721.347 507.527ZM713.052 526.607C712.835 527.406 713.307 528.23 714.107 528.448C714.906 528.665 715.73 528.193 715.947 527.394L713.052 526.607ZM710.547 547.26C710.765 546.461 710.293 545.637 709.493 545.419C708.694 545.202 707.87 545.674 707.652 546.473L710.547 547.26ZM702.252 566.34C702.035 567.139 702.507 567.964 703.307 568.181C704.106 568.398 704.93 567.926 705.147 567.127L702.252 566.34ZM699.747 586.994C699.965 586.194 699.493 585.37 698.693 585.153C697.894 584.935 697.07 585.407 696.852 586.207L699.747 586.994ZM691.452 606.073C691.235 606.873 691.707 607.697 692.507 607.914C693.306 608.132 694.13 607.66 694.347 606.86L691.452 606.073ZM688.947 626.727C689.165 625.927 688.693 625.103 687.893 624.886C687.094 624.669 686.27 625.141 686.052 625.94L688.947 626.727ZM680.653 645.807C680.435 646.606 680.907 647.43 681.707 647.648C682.506 647.865 683.33 647.393 683.547 646.594L680.653 645.807ZM678.147 666.46C678.365 665.661 677.893 664.837 677.093 664.619C676.294 664.402 675.47 664.874 675.253 665.673L678.147 666.46ZM683.694 677.5C684.523 677.5 685.194 676.828 685.194 676C685.194 675.172 684.523 674.5 683.694 674.5V677.5ZM703.083 674.5C702.255 674.5 701.583 675.172 701.583 676C701.583 676.828 702.255 677.5 703.083 677.5V674.5ZM722.472 677.5C723.301 677.5 723.972 676.828 723.972 676C723.972 675.172 723.301 674.5 722.472 674.5V677.5ZM741.861 674.5C741.033 674.5 740.361 675.172 740.361 676C740.361 676.828 741.033 677.5 741.861 677.5V674.5ZM761.25 677.5C762.078 677.5 762.75 676.828 762.75 676C762.75 675.172 762.078 674.5 761.25 674.5V677.5ZM780.639 674.5C779.81 674.5 779.139 675.172 779.139 676C779.139 676.828 779.81 677.5 780.639 677.5V674.5ZM800.028 677.5C800.856 677.5 801.528 676.828 801.528 676C801.528 675.172 800.856 674.5 800.028 674.5V677.5ZM819.417 674.5C818.588 674.5 817.917 675.172 817.917 676C817.917 676.828 818.588 677.5 819.417 677.5V674.5ZM838.806 677.5C839.634 677.5 840.306 676.828 840.306 676C840.306 675.172 839.634 674.5 838.806 674.5V677.5ZM858.194 674.5C857.366 674.5 856.694 675.172 856.694 676C856.694 676.828 857.366 677.5 858.194 677.5V674.5ZM877.583 677.5C878.412 677.5 879.083 676.828 879.083 676C879.083 675.172 878.412 674.5 877.583 674.5V677.5ZM896.972 674.5C896.144 674.5 895.472 675.172 895.472 676C895.472 676.828 896.144 677.5 896.972 677.5V674.5ZM916.361 677.5C917.19 677.5 917.861 676.828 917.861 676C917.861 675.172 917.19 674.5 916.361 674.5V677.5ZM935.75 674.5C934.922 674.5 934.25 675.172 934.25 676C934.25 676.828 934.922 677.5 935.75 677.5V674.5ZM955.139 677.5C955.967 677.5 956.639 676.828 956.639 676C956.639 675.172 955.967 674.5 955.139 674.5V677.5ZM974.528 674.5C973.699 674.5 973.028 675.172 973.028 676C973.028 676.828 973.699 677.5 974.528 677.5V674.5ZM993.917 677.5C994.745 677.5 995.417 676.828 995.417 676C995.417 675.172 994.745 674.5 993.917 674.5V677.5ZM1013.31 674.5C1012.48 674.5 1011.81 675.172 1011.81 676C1011.81 676.828 1012.48 677.5 1013.31 677.5V674.5ZM1018.7 685.067C1018.46 685.86 1018.91 686.697 1019.7 686.936C1020.49 687.175 1021.33 686.726 1021.57 685.933L1018.7 685.067ZM1015.84 704.933C1016.08 704.14 1015.63 703.303 1014.84 703.064C1014.04 702.825 1013.21 703.274 1012.97 704.067L1015.84 704.933ZM1007.24 723.067C1007 723.86 1007.45 724.697 1008.24 724.936C1009.03 725.175 1009.87 724.726 1010.11 723.933L1007.24 723.067ZM1004.38 742.933C1004.62 742.14 1004.17 741.303 1003.38 741.064C1002.58 740.825 1001.75 741.274 1001.51 742.067L1004.38 742.933ZM995.775 761.067C995.536 761.86 995.985 762.697 996.778 762.936C997.572 763.175 998.408 762.726 998.648 761.933L995.775 761.067ZM992.917 780.933C993.156 780.14 992.707 779.303 991.914 779.064C991.121 778.825 990.284 779.274 990.045 780.067L992.917 780.933ZM984.314 799.067C984.075 799.86 984.524 800.697 985.317 800.936C986.11 801.175 986.947 800.726 987.186 799.933L984.314 799.067ZM981.455 818.933C981.695 818.14 981.246 817.303 980.452 817.064C979.659 816.825 978.822 817.274 978.583 818.067L981.455 818.933ZM972.852 837.067C972.613 837.86 973.062 838.697 973.855 838.936C974.648 839.175 975.485 838.726 975.725 837.933L972.852 837.067ZM969.994 856.933C970.233 856.14 969.784 855.303 968.991 855.064C968.198 854.825 967.361 855.274 967.122 856.067L969.994 856.933ZM961.391 875.067C961.152 875.86 961.601 876.697 962.394 876.936C963.187 877.175 964.024 876.726 964.263 875.933L961.391 875.067ZM958.532 894.933C958.771 894.14 958.322 893.303 957.529 893.064C956.736 892.825 955.899 893.274 955.66 894.067L958.532 894.933ZM949.929 913.067C949.69 913.86 950.139 914.697 950.932 914.936C951.725 915.175 952.562 914.726 952.801 913.933L949.929 913.067ZM947.071 932.933C947.31 932.14 946.861 931.303 946.068 931.064C945.275 930.825 944.438 931.274 944.199 932.067L947.071 932.933ZM938.468 951.067C938.229 951.86 938.678 952.697 939.471 952.936C940.264 953.175 941.101 952.726 941.34 951.933L938.468 951.067ZM935.609 970.933C935.848 970.14 935.399 969.303 934.606 969.064C933.813 968.825 932.976 969.274 932.737 970.067L935.609 970.933ZM927.006 989.067C926.767 989.86 927.216 990.697 928.009 990.936C928.802 991.175 929.639 990.726 929.878 989.933L927.006 989.067ZM924.148 1008.93C924.387 1008.14 923.938 1007.3 923.145 1007.06C922.352 1006.82 921.515 1007.27 921.275 1008.07L924.148 1008.93ZM915.545 1027.07C915.305 1027.86 915.754 1028.7 916.548 1028.94C917.341 1029.18 918.178 1028.73 918.417 1027.93L915.545 1027.07ZM912.686 1046.93C912.925 1046.14 912.476 1045.3 911.683 1045.06C910.89 1044.82 910.053 1045.27 909.814 1046.07L912.686 1046.93ZM904.083 1065.07C903.844 1065.86 904.293 1066.7 905.086 1066.94C905.879 1067.18 906.716 1066.73 906.955 1065.93L904.083 1065.07ZM901.225 1084.93C901.464 1084.14 901.015 1083.3 900.222 1083.06C899.428 1082.82 898.592 1083.27 898.352 1084.07L901.225 1084.93ZM892.622 1103.07C892.382 1103.86 892.831 1104.7 893.624 1104.94C894.418 1105.18 895.255 1104.73 895.494 1103.93L892.622 1103.07ZM889.763 1122.93C890.002 1122.14 889.553 1121.3 888.76 1121.06C887.967 1120.82 887.13 1121.27 886.891 1122.07L889.763 1122.93ZM881.16 1141.07C880.921 1141.86 881.37 1142.7 882.163 1142.94C882.956 1143.18 883.793 1142.73 884.032 1141.93L881.16 1141.07ZM878.301 1160.93C878.541 1160.14 878.092 1159.3 877.298 1159.06C876.505 1158.82 875.668 1159.27 875.429 1160.07L878.301 1160.93ZM834.553 79.6066L831.853 89.5399L834.747 90.3268L837.447 80.3934L834.553 79.6066ZM826.453 109.407L821.053 129.273L823.947 130.06L829.347 110.193L826.453 109.407ZM815.653 149.14L810.253 169.007L813.147 169.793L818.547 149.927L815.653 149.14ZM804.853 188.873L799.453 208.74L802.347 209.527L807.747 189.66L804.853 188.873ZM794.053 228.607L788.653 248.473L791.547 249.26L796.947 229.393L794.053 228.607ZM783.253 268.34L777.853 288.207L780.747 288.993L786.147 269.127L783.253 268.34ZM772.453 308.073L767.053 327.94L769.947 328.727L775.347 308.86L772.453 308.073ZM761.653 347.807L756.253 367.673L759.147 368.46L764.547 348.593L761.653 347.807ZM750.853 387.54L745.453 407.407L748.347 408.193L753.747 388.327L750.853 387.54ZM740.053 427.273L734.653 447.14L737.547 447.927L742.947 428.06L740.053 427.273ZM729.253 467.007L723.852 486.873L726.747 487.66L732.147 467.793L729.253 467.007ZM718.452 506.74L713.052 526.607L715.947 527.394L721.347 507.527L718.452 506.74ZM707.652 546.473L702.252 566.34L705.147 567.127L710.547 547.26L707.652 546.473ZM696.852 586.207L691.452 606.073L694.347 606.86L699.747 586.994L696.852 586.207ZM686.052 625.94L680.653 645.807L683.547 646.594L688.947 626.727L686.052 625.94ZM675.253 665.673L672.553 675.607L675.447 676.393L678.147 666.46L675.253 665.673ZM674 677.5H683.694V674.5H674V677.5ZM703.083 677.5H722.472V674.5H703.083V677.5ZM741.861 677.5H761.25V674.5H741.861V677.5ZM780.639 677.5H800.028V674.5H780.639V677.5ZM819.417 677.5H838.806V674.5H819.417V677.5ZM858.194 677.5H877.583V674.5H858.194V677.5ZM896.972 677.5H916.361V674.5H896.972V677.5ZM935.75 677.5H955.139V674.5H935.75V677.5ZM974.528 677.5H993.917V674.5H974.528V677.5ZM1013.31 677.5H1023V674.5H1013.31V677.5ZM1021.56 675.567L1018.7 685.067L1021.57 685.933L1024.44 676.433L1021.56 675.567ZM1012.97 704.067L1007.24 723.067L1010.11 723.933L1015.84 704.933L1012.97 704.067ZM1001.51 742.067L995.775 761.067L998.648 761.933L1004.38 742.933L1001.51 742.067ZM990.045 780.067L984.314 799.067L987.186 799.933L992.917 780.933L990.045 780.067ZM978.583 818.067L972.852 837.067L975.725 837.933L981.455 818.933L978.583 818.067ZM967.122 856.067L961.391 875.067L964.263 875.933L969.994 856.933L967.122 856.067ZM955.66 894.067L949.929 913.067L952.801 913.933L958.532 894.933L955.66 894.067ZM944.199 932.067L938.468 951.067L941.34 951.933L947.071 932.933L944.199 932.067ZM932.737 970.067L927.006 989.067L929.878 989.933L935.609 970.933L932.737 970.067ZM921.275 1008.07L915.545 1027.07L918.417 1027.93L924.148 1008.93L921.275 1008.07ZM909.814 1046.07L904.083 1065.07L906.955 1065.93L912.686 1046.93L909.814 1046.07ZM898.352 1084.07L892.622 1103.07L895.494 1103.93L901.225 1084.93L898.352 1084.07ZM886.891 1122.07L881.16 1141.07L884.032 1141.93L889.763 1122.93L886.891 1122.07Z" fill="#CDCDCD"/>
</svg>
