<svg width="109" height="147" viewBox="0 0 109 147" fill="none" xmlns="http://www.w3.org/2000/svg">
<path fill-rule="evenodd" clip-rule="evenodd" d="M25.8851 100.738L10.2347 135.591C8.44824 139.569 10.2268 144.239 14.2073 146.021C18.1878 147.803 22.8628 146.022 24.6493 142.044L40.3892 106.991C35.2101 105.609 30.3349 103.484 25.8851 100.738Z" fill="url(#paint0_linear)"/>
<path fill-rule="evenodd" clip-rule="evenodd" d="M54.5 108.833C84.5995 108.833 109 84.4698 109 54.4164C109 24.3631 84.5995 0 54.5 0C24.4005 0 0 24.3631 0 54.4164C0 84.4698 24.4005 108.833 54.5 108.833ZM54.5 100.946C80.2373 100.946 101.101 80.1142 101.101 54.4164C101.101 28.7186 80.2373 7.88641 54.5 7.88641C28.7627 7.88641 7.89856 28.7186 7.89856 54.4164C7.89856 80.1142 28.7627 100.946 54.5 100.946Z" fill="url(#paint1_linear)"/>
<ellipse cx="54.5" cy="54.4164" rx="46.6014" ry="46.53" fill="url(#paint2_linear)" fill-opacity="0.75"/>
<defs>
<linearGradient id="paint0_linear" x1="49.9694" y1="104.948" x2="11.4799" y2="153.591" gradientUnits="userSpaceOnUse">
<stop stop-color="#FFB084"/>
<stop offset="1" stop-color="#FFCD6B"/>
</linearGradient>
<linearGradient id="paint1_linear" x1="21.3261" y1="10.2524" x2="93.0801" y2="90.8035" gradientUnits="userSpaceOnUse">
<stop stop-color="#EBEBEB"/>
<stop offset="0.520833" stop-color="#848484"/>
<stop offset="1" stop-color="#D5D5D5"/>
</linearGradient>
<linearGradient id="paint2_linear" x1="28.4348" y1="14.9842" x2="91.5182" y2="83.6927" gradientUnits="userSpaceOnUse">
<stop stop-color="white"/>
<stop offset="0.489795" stop-color="white" stop-opacity="0"/>
<stop offset="1" stop-color="white"/>
</linearGradient>
</defs>
</svg>
