<svg width="370" height="317" viewBox="0 0 370 317" fill="none" xmlns="http://www.w3.org/2000/svg">
<g clip-path="url(#clip0)">
<rect width="370" height="317" fill="white"/>
<g filter="url(#filter0_d)">
<rect x="34.0385" y="24.3153" width="340.385" height="272.308" rx="2" fill="white"/>
<rect x="34.0385" y="24.3153" width="340.385" height="272.308" rx="2" stroke="url(#paint0_linear)" stroke-width="0.5"/>
</g>
<mask id="mask0" mask-type="alpha" maskUnits="userSpaceOnUse" x="34" y="24" width="341" height="273">
<rect x="34.0385" y="24.3153" width="340.385" height="272.308" rx="2" fill="white"/>
</mask>
<g mask="url(#mask0)">
<path d="M28.7294 299.171H28.7338C28.405 294.768 18.2712 160.181 130.845 160.181C247.143 160.181 221.614 100.614 281.181 63.7387C340.749 26.8637 371.951 41.0464 371.951 41.0464V299.171H28.7338C28.7447 299.317 28.7448 299.32 28.7294 299.171Z" fill="url(#paint1_linear)"/>
<path d="M28.7294 338.883H28.7338C28.405 334.479 18.2712 199.893 130.845 199.893C247.143 199.893 221.614 140.325 281.181 103.45C340.749 66.5753 371.951 80.7579 371.951 80.7579V338.883H28.7338C28.7447 339.029 28.7448 339.032 28.7294 338.883Z" fill="url(#paint2_linear)"/>
</g>
<g filter="url(#filter1_d)">
<rect x="96.4423" y="7" width="181.538" height="124.808" rx="1" fill="url(#paint3_linear)"/>
</g>
<path d="M107.788 19.3461C107.788 18.7938 108.236 18.3461 108.788 18.3461H265.635C266.187 18.3461 266.635 18.7938 266.635 19.3461V46.7115H107.788V19.3461Z" fill="#CCEFF1"/>
<rect x="113.462" y="29.6923" width="62.4038" height="5.67308" rx="1" fill="#34B9C0"/>
<rect x="181.538" y="29.6923" width="17.0192" height="5.67308" rx="1" fill="#34B9C0"/>
<circle cx="235.433" cy="32.5289" r="2.83654" fill="#CCCCCC"/>
<circle cx="246.779" cy="32.5289" r="2.83654" fill="#CCCCCC"/>
<circle cx="258.125" cy="32.5289" r="2.83654" fill="#CCCCCC"/>
<path d="M107.788 58.0577H170.192V119.462C170.192 120.014 169.745 120.462 169.192 120.462H108.788C108.236 120.462 107.788 120.014 107.788 119.462V58.0577Z" fill="#64DFE6"/>
<g clip-path="url(#clip1)">
<path fill-rule="evenodd" clip-rule="evenodd" d="M139.889 69.4039C140.142 69.4039 140.347 69.6088 140.347 69.8616C140.347 70.1143 140.142 70.3192 139.889 70.3192H138.974C138.722 70.3192 138.517 70.1143 138.517 69.8616C138.517 69.6088 138.722 69.4039 138.974 69.4039H139.889ZM143.602 69.9256C143.767 69.9513 143.905 70.065 143.962 70.2221C144.019 70.3792 143.985 70.5548 143.875 70.6803C143.765 70.8057 143.595 70.861 143.432 70.8245L142.532 70.6534C142.29 70.6005 142.134 70.3642 142.181 70.1206C142.227 69.8769 142.459 69.7146 142.703 69.7545L143.602 69.9247V69.9256ZM147.182 71.1522C147.417 71.2458 147.532 71.5122 147.438 71.7472C147.345 71.9823 147.079 72.0971 146.844 72.0035L145.993 71.6639C145.758 71.5699 145.644 71.3033 145.738 71.0685C145.832 70.8337 146.098 70.7195 146.333 70.8136L147.182 71.1522ZM150.425 73.0141C150.566 73.1004 150.65 73.2567 150.644 73.4226C150.638 73.5885 150.542 73.7379 150.394 73.8131C150.246 73.8883 150.069 73.8775 149.931 73.7849L149.161 73.2915C149.016 73.2068 148.929 73.0496 148.935 72.8818C148.94 72.714 149.037 72.5626 149.187 72.4872C149.336 72.4119 149.516 72.4248 149.653 72.5207L150.425 73.0141ZM153.303 75.4893C153.421 75.602 153.471 75.7693 153.433 75.9283C153.394 76.0873 153.274 76.2138 153.117 76.2601C152.961 76.3065 152.791 76.2656 152.673 76.153L152.009 75.5232C151.826 75.349 151.819 75.0593 151.993 74.876C152.167 74.6927 152.456 74.6854 152.64 74.8595L153.303 75.4893ZM155.607 78.3819C155.707 78.5141 155.728 78.6903 155.661 78.8423C155.594 78.9943 155.451 79.0983 155.286 79.114C155.121 79.1298 154.96 79.0549 154.866 78.9183L154.329 78.1769C154.229 78.0446 154.208 77.8684 154.275 77.7164C154.342 77.5645 154.485 77.4605 154.651 77.4447C154.816 77.4289 154.976 77.5038 155.071 77.6404L155.607 78.3819ZM157.367 81.7249C157.474 81.9541 157.374 82.2265 157.145 82.3331C156.916 82.4398 156.644 82.3404 156.537 82.1111L156.151 81.2809C156.082 81.1326 156.097 80.9587 156.191 80.8248C156.285 80.6909 156.443 80.6173 156.606 80.6317C156.769 80.6461 156.912 80.7463 156.981 80.8946L157.367 81.7249ZM158.461 85.3562C158.513 85.5977 158.364 85.8369 158.124 85.8965C157.885 85.956 157.641 85.8145 157.574 85.5768L157.354 84.6889C157.309 84.5281 157.355 84.3555 157.473 84.2383C157.592 84.1211 157.766 84.078 157.926 84.1259C158.086 84.1738 158.207 84.305 158.242 84.4682L158.461 85.3562ZM158.846 89.1422C158.854 89.3057 158.774 89.4612 158.637 89.5502C158.5 89.6392 158.325 89.6481 158.18 89.5735C158.034 89.499 157.939 89.3524 157.931 89.1889L157.885 88.2753C157.881 88.029 158.073 87.8237 158.319 87.8109C158.564 87.798 158.776 87.9823 158.798 88.2277L158.845 89.1422H158.846ZM158.514 92.8952C158.472 93.1376 158.245 93.3029 158.002 93.2694C157.758 93.2359 157.584 93.0156 157.609 92.7707L157.733 91.8645C157.749 91.6973 157.855 91.5522 158.01 91.4865C158.164 91.4208 158.342 91.4451 158.474 91.5498C158.605 91.6545 158.668 91.8227 158.639 91.9881L158.514 92.8943V92.8952ZM157.48 96.5238C157.427 96.6786 157.296 96.7936 157.135 96.8254C156.975 96.8573 156.81 96.8011 156.702 96.6781C156.594 96.555 156.561 96.3839 156.613 96.229L156.908 95.3622C156.996 95.1323 157.25 95.0132 157.482 95.0925C157.715 95.1718 157.844 95.4211 157.773 95.6569L157.48 96.5238ZM155.787 99.8649C155.711 100.016 155.558 100.113 155.389 100.116C155.22 100.12 155.063 100.031 154.98 99.8835C154.897 99.7362 154.902 99.5552 154.993 99.4127L155.445 98.6172C155.526 98.475 155.676 98.3866 155.84 98.3854C156.003 98.3843 156.155 98.4705 156.237 98.6116C156.32 98.7526 156.322 98.9272 156.241 99.0694L155.788 99.8658L155.787 99.8649ZM153.469 102.864C153.363 102.988 153.199 103.046 153.038 103.016C152.877 102.986 152.745 102.873 152.69 102.719C152.636 102.564 152.668 102.393 152.774 102.269L153.369 101.573C153.475 101.449 153.639 101.391 153.8 101.421C153.961 101.45 154.093 101.564 154.148 101.718C154.202 101.872 154.17 102.044 154.064 102.168L153.469 102.864ZM150.693 105.322C150.496 105.481 150.207 105.45 150.049 105.252C149.891 105.055 149.922 104.767 150.119 104.608L150.833 104.035C151.03 103.877 151.318 103.909 151.476 104.106C151.634 104.303 151.602 104.591 151.405 104.749L150.692 105.322H150.693ZM147.45 107.252C147.227 107.371 146.95 107.286 146.831 107.062C146.713 106.839 146.798 106.561 147.021 106.443L147.83 106.014C147.975 105.931 148.154 105.933 148.297 106.02C148.44 106.107 148.523 106.266 148.515 106.433C148.507 106.6 148.409 106.75 148.258 106.823L147.45 107.252ZM143.887 108.534C143.731 108.581 143.561 108.542 143.442 108.43C143.322 108.318 143.272 108.151 143.309 107.992C143.346 107.833 143.465 107.705 143.621 107.658L144.496 107.391C144.738 107.317 144.993 107.454 145.067 107.696C145.141 107.937 145.005 108.193 144.763 108.267L143.887 108.533V108.534ZM140.131 109.113C139.968 109.13 139.809 109.059 139.713 108.926C139.617 108.794 139.599 108.62 139.666 108.471C139.733 108.321 139.874 108.219 140.036 108.202L140.947 108.108C141.109 108.091 141.269 108.162 141.365 108.295C141.46 108.427 141.478 108.601 141.412 108.75C141.345 108.899 141.204 109.002 141.041 109.019L140.131 109.113ZM136.352 108.974C136.186 108.965 136.037 108.866 135.965 108.716C135.892 108.565 135.907 108.388 136.004 108.252C136.1 108.116 136.263 108.043 136.429 108.062L137.341 108.14C137.587 108.168 137.767 108.387 137.745 108.634C137.724 108.881 137.511 109.066 137.263 109.052L136.351 108.974H136.352ZM132.686 108.13C132.449 108.057 132.313 107.807 132.381 107.568C132.448 107.329 132.694 107.187 132.935 107.249L133.815 107.498C133.976 107.54 134.102 107.665 134.144 107.826C134.186 107.986 134.137 108.157 134.017 108.272C133.897 108.387 133.725 108.428 133.566 108.379L132.686 108.13ZM129.259 106.612C129.033 106.499 128.942 106.223 129.055 105.997C129.168 105.771 129.444 105.68 129.669 105.794L130.487 106.205C130.713 106.319 130.804 106.594 130.69 106.82C130.577 107.046 130.302 107.137 130.076 107.023L129.259 106.611V106.612ZM126.152 104.455C125.952 104.3 125.915 104.013 126.069 103.812C126.223 103.612 126.51 103.575 126.711 103.729L127.435 104.287C127.635 104.441 127.673 104.729 127.519 104.929C127.365 105.13 127.077 105.167 126.877 105.013L126.152 104.455ZM123.521 101.765C123.353 101.576 123.371 101.287 123.56 101.119C123.748 100.951 124.038 100.968 124.205 101.157L124.813 101.842C124.921 101.964 124.957 102.135 124.905 102.291C124.853 102.446 124.723 102.562 124.563 102.594C124.403 102.627 124.237 102.572 124.129 102.45L123.521 101.765ZM121.458 98.6621C121.374 98.5218 121.371 98.3473 121.451 98.2044C121.53 98.0614 121.68 97.9718 121.843 97.9691C122.006 97.9665 122.159 98.0513 122.243 98.1916L122.712 98.977C122.834 99.1932 122.761 99.4671 122.548 99.5945C122.336 99.7218 122.06 99.6562 121.927 99.4466L121.458 98.6612V98.6621ZM119.994 95.1727C119.933 95.0177 119.961 94.8417 120.067 94.7133C120.173 94.5849 120.341 94.5243 120.504 94.5551C120.668 94.5859 120.802 94.7032 120.854 94.8614L121.166 95.7219C121.244 95.9572 121.12 96.2115 120.887 96.2957C120.654 96.38 120.397 96.2636 120.306 96.0331L119.995 95.1727H119.994ZM119.221 91.4526C119.196 91.291 119.258 91.1282 119.385 91.0255C119.513 90.9228 119.685 90.8957 119.837 90.9546C119.99 91.0134 120.1 91.1491 120.125 91.3107L120.267 92.2151C120.306 92.4648 120.135 92.699 119.886 92.7382C119.636 92.7774 119.402 92.6067 119.363 92.357L119.221 91.4526ZM119.166 87.6547C119.175 87.4019 119.387 87.2042 119.639 87.213C119.892 87.2219 120.09 87.4339 120.081 87.6867L120.05 88.6012C120.044 88.7647 119.952 88.9128 119.808 88.9898C119.663 89.0667 119.489 89.0608 119.35 88.9742C119.211 88.8876 119.129 88.7336 119.135 88.5701L119.167 87.6547H119.166ZM119.818 83.9556C119.879 83.7145 120.121 83.5658 120.363 83.6207C120.606 83.6757 120.76 83.9142 120.71 84.1579L120.508 85.0504C120.475 85.2132 120.357 85.3453 120.199 85.3957C120.041 85.4461 119.868 85.4069 119.747 85.2932C119.626 85.1795 119.576 85.0092 119.616 84.8481L119.818 83.9556ZM121.177 80.4095C121.243 80.2598 121.384 80.1568 121.546 80.1392C121.709 80.1216 121.868 80.1921 121.965 80.3241C122.061 80.4562 122.08 80.6297 122.014 80.7793L121.645 81.6168C121.579 81.7665 121.438 81.8695 121.275 81.8871C121.113 81.9047 120.953 81.8342 120.857 81.7022C120.76 81.5701 120.741 81.3966 120.807 81.247L121.177 80.4095ZM123.146 77.2413C123.238 77.1055 123.396 77.0296 123.56 77.0424C123.724 77.0553 123.868 77.1549 123.938 77.3034C124.008 77.452 123.993 77.6267 123.899 77.7613L123.378 78.5146C123.285 78.6492 123.128 78.7239 122.965 78.7106C122.802 78.6973 122.658 78.5981 122.588 78.4502C122.518 78.3023 122.532 78.1284 122.625 77.9938L123.146 77.2413ZM125.726 74.4458C125.842 74.3285 126.012 74.283 126.172 74.3265C126.331 74.37 126.454 74.496 126.495 74.656C126.535 74.8161 126.486 74.9855 126.367 75.0994L125.713 75.7401C125.532 75.9127 125.246 75.9078 125.071 75.7292C124.896 75.5505 124.897 75.2642 125.073 75.0865L125.726 74.4458ZM128.69 72.2489C128.826 72.1576 129 72.1457 129.147 72.2176C129.294 72.2895 129.391 72.4344 129.402 72.5975C129.413 72.7607 129.337 72.9174 129.201 73.0086L128.442 73.5185C128.232 73.6595 127.948 73.6038 127.807 73.394C127.666 73.1842 127.721 72.8998 127.931 72.7587L128.69 72.2479V72.2489ZM132.094 70.6067C132.244 70.5429 132.418 70.5643 132.548 70.6629C132.679 70.7614 132.747 70.9221 132.726 71.0844C132.706 71.2467 132.601 71.386 132.451 71.4497L131.607 71.8067C131.374 71.9053 131.106 71.7963 131.007 71.5632C130.908 71.3302 131.017 71.0613 131.25 70.9628L132.094 70.6067ZM135.763 69.641C135.923 69.6074 136.089 69.6619 136.198 69.7837C136.307 69.9056 136.342 70.0764 136.291 70.2318C136.24 70.3872 136.11 70.5036 135.95 70.5371L135.056 70.7257C134.895 70.7595 134.729 70.7053 134.62 70.5835C134.511 70.4616 134.475 70.2906 134.525 70.1349C134.576 69.9792 134.706 69.8625 134.866 69.8286L135.761 69.64L135.763 69.641ZM137.323 95.7741C138.407 96.0533 139.513 96.0487 140.552 95.7997L144.473 105.942C140.825 107.149 136.881 107.119 133.251 105.858L137.323 95.7741ZM144.941 92.3863L155.002 96.4524C153.228 100.416 150.045 103.579 146.07 105.327L142.152 95.1919C143.343 94.5592 144.316 93.5813 144.942 92.3863H144.941ZM133.322 92.8769C133.923 93.8217 134.752 94.6004 135.732 95.1416L131.663 105.22C128.144 103.61 125.259 100.876 123.46 97.4483L133.323 92.8769H133.322ZM122.473 83.303L132.534 87.3691C132.154 88.6641 132.174 90.0437 132.592 91.3272L122.737 95.8949C121.091 91.8756 120.997 87.3877 122.473 83.303ZM155.279 82.6988C156.843 86.5797 156.967 90.8928 155.627 94.8569L145.54 90.7789C145.811 89.6189 145.769 88.4075 145.417 87.2693L155.28 82.6988H155.279ZM131.824 73.2173L135.744 83.3597C134.7 83.9338 133.828 84.7759 133.218 85.7992L123.131 81.7221C124.92 77.9394 128.003 74.9227 131.823 73.2183L131.824 73.2173ZM146.39 73.3208C149.906 74.9494 152.782 77.7013 154.565 81.1436L144.709 85.7113C144.119 84.7535 143.296 83.9601 142.318 83.4046L146.39 73.3208ZM144.805 72.6754L140.735 82.7537C140.388 82.6599 140.035 82.5941 139.678 82.5569L139.677 78.2666H141.926L139.071 74.7771L136.151 78.2666H138.4L138.399 82.5487C138.04 82.5808 137.685 82.6418 137.336 82.7309L133.418 72.5949C137.116 71.3489 141.125 71.3773 144.805 72.6754ZM139.678 84.1616C142.34 84.4993 144.281 86.8486 144.112 89.5276C143.942 92.2066 141.721 94.2929 139.038 94.2929C136.355 94.2929 134.134 92.2066 133.965 89.5276C133.796 86.8486 135.737 84.4993 138.399 84.1616V86.7686C137.167 87.0998 136.392 88.3182 136.614 89.5753C136.836 90.8323 137.981 91.7111 139.252 91.5996C140.523 91.4881 141.498 90.4233 141.499 89.1467L141.494 88.9911C141.427 87.9371 140.696 87.0429 139.677 86.7686L139.678 84.1616Z" fill="white"/>
</g>
<rect x="181.538" y="63.7308" width="73.75" height="5.67308" rx="1" fill="#E9E9E9"/>
<rect x="181.538" y="75.0769" width="51.0577" height="5.67308" rx="1" fill="#E9E9E9"/>
<rect x="181.538" y="86.4231" width="62.4038" height="5.67308" rx="1" fill="#E9E9E9"/>
<g filter="url(#filter2_d)">
<rect x="215.577" y="112.115" width="181.538" height="124.808" rx="1" fill="url(#paint4_linear)"/>
</g>
<path d="M226.923 124.461C226.923 123.909 227.371 123.461 227.923 123.461H384.769C385.322 123.461 385.769 123.909 385.769 124.461V151.827H226.923V124.461Z" fill="#D8F1CC"/>
<rect x="232.596" y="134.808" width="62.4038" height="5.67308" rx="1" fill="#6DBA49"/>
<rect x="300.673" y="134.808" width="17.0192" height="5.67308" rx="1" fill="#6DBA49"/>
<circle cx="354.567" cy="137.644" r="2.83654" fill="#CCCCCC"/>
<circle cx="365.913" cy="137.644" r="2.83654" fill="#CCCCCC"/>
<path d="M226.923 163.173H289.327V224.577C289.327 225.129 288.879 225.577 288.327 225.577H227.923C227.371 225.577 226.923 225.129 226.923 224.577V163.173Z" fill="#AEE693"/>
<g clip-path="url(#clip2)">
<path fill-rule="evenodd" clip-rule="evenodd" d="M270.127 197.335L277.981 203.924L270.127 211.394V207.086C268.323 207.197 266.285 206.874 264.013 206.119C261.742 205.363 259.779 203.836 258.125 201.537C260.565 198.736 261.785 197.335 261.785 197.335C261.785 197.335 264.127 200.102 266.13 200.602C267.466 200.935 268.798 201.067 270.127 200.999V197.335ZM270.082 177.356L277.981 184.163L270.082 191.178V187.08C268.429 187.028 266.799 187.458 265.193 188.367C262.784 189.732 260.84 191.418 258.125 195.38C255.41 199.342 253.303 201.714 251.399 203.527C249.496 205.339 247.674 206.119 245.436 206.119H238.269V200.522H245.436C247.747 200.522 250.06 197.53 252.478 194.229L253.574 192.732C253.819 192.398 254.065 192.066 254.313 191.737C257.41 187.627 260.636 183.843 263.994 182.867C266.232 182.216 268.262 181.791 270.082 181.59V177.356ZM247.519 182.954C250.031 183.938 251.726 185.263 252.604 186.93L249.184 191.178C248.311 190.238 247.062 189.412 245.436 188.702C243.811 187.992 241.422 187.787 238.269 188.088V182.116C241.923 181.691 245.006 181.97 247.519 182.954Z" fill="white"/>
</g>
<rect x="300.673" y="168.846" width="73.75" height="5.67308" rx="1" fill="#E9E9E9"/>
<rect x="300.673" y="180.192" width="51.0577" height="5.67308" rx="1" fill="#E9E9E9"/>
<rect x="300.673" y="191.538" width="62.4038" height="5.67308" rx="1" fill="#E9E9E9"/>
<g filter="url(#filter3_d)">
<rect x="8" y="166" width="206.294" height="141.827" rx="1" fill="url(#paint5_linear)"/>
</g>
<path d="M20.8932 179.893C20.8932 179.341 21.3409 178.893 21.8932 178.893H200.4C200.952 178.893 201.4 179.341 201.4 179.893V211.127H20.8932V179.893Z" fill="#E7F2C7"/>
<rect x="27.3398" y="191.787" width="70.9135" height="6.44668" rx="1" fill="#AFCE55"/>
<rect x="104.7" y="191.787" width="19.34" height="6.44668" rx="1" fill="#AFCE55"/>
<circle cx="165.944" cy="195.01" r="3.22334" fill="#CCCCCC"/>
<circle cx="178.837" cy="195.01" r="3.22334" fill="#CCCCCC"/>
<circle cx="191.731" cy="195.01" r="3.22334" fill="#CCCCCC"/>
<path d="M20.8932 224.02H91.8066V293.934C91.8066 294.486 91.3589 294.934 90.8066 294.934H21.8932C21.3409 294.934 20.8932 294.486 20.8932 293.934V224.02Z" fill="#AFCE55"/>
<g clip-path="url(#clip3)">
<path d="M69.8374 253.4C68.9625 252.523 67.5523 252.531 66.6878 253.419C65.8232 254.306 65.8317 255.737 66.7066 256.614L68.499 258.411H58.4484V247.438L60.2194 249.256C61.084 250.144 62.4941 250.152 63.369 249.275C64.244 248.398 64.2525 246.968 63.3879 246.08L57.8767 240.421C57.0122 239.534 55.602 239.525 54.7271 240.402L49.0733 246.069C48.1984 246.947 48.1899 248.377 49.0545 249.265C49.4902 249.712 50.0644 249.936 50.6389 249.936C51.2043 249.936 51.7702 249.719 52.2041 249.284L53.994 247.49V258.411H43.9434L45.7357 256.614C46.6107 255.737 46.6192 254.306 45.7546 253.419C44.8902 252.531 43.48 252.522 42.605 253.4L37.0272 258.991C36.607 259.412 36.369 259.985 36.3654 260.584C36.3619 261.184 36.5931 261.76 37.0083 262.186L42.5947 267.922C43.0304 268.369 43.6045 268.593 44.179 268.593C44.7445 268.593 45.3103 268.376 45.7443 267.941C46.6193 267.064 46.6277 265.633 45.7632 264.746L43.9947 262.93H53.994V277.202C53.994 278.45 54.9911 279.462 56.2212 279.462C57.4512 279.462 58.4484 278.45 58.4484 277.202V262.93H68.4477L66.6792 264.746C65.8146 265.633 65.8231 267.064 66.698 267.941C67.1321 268.376 67.6978 268.593 68.2633 268.593C68.8377 268.593 69.412 268.369 69.8477 267.922L75.434 262.186C75.8492 261.76 76.0804 261.184 76.0769 260.584C76.0733 259.985 75.8353 259.412 75.4151 258.991L69.8374 253.4Z" fill="white"/>
</g>
<rect x="104.7" y="230.467" width="83.8068" height="6.44668" rx="1" fill="#E9E9E9"/>
<rect x="104.7" y="243.36" width="58.0201" height="6.44668" rx="1" fill="#E9E9E9"/>
<rect x="104.7" y="256.254" width="70.9135" height="6.44668" rx="1" fill="#E9E9E9"/>
</g>
<defs>
<filter id="filter0_d" x="22.7885" y="13.0653" width="352.885" height="284.808" filterUnits="userSpaceOnUse" color-interpolation-filters="sRGB">
<feFlood flood-opacity="0" result="BackgroundImageFix"/>
<feColorMatrix in="SourceAlpha" type="matrix" values="0 0 0 0 0 0 0 0 0 0 0 0 0 0 0 0 0 0 127 0"/>
<feMorphology radius="4" operator="erode" in="SourceAlpha" result="effect1_dropShadow"/>
<feOffset dx="-5" dy="-5"/>
<feGaussianBlur stdDeviation="5"/>
<feColorMatrix type="matrix" values="0 0 0 0 0 0 0 0 0 0 0 0 0 0 0 0 0 0 0.05 0"/>
<feBlend mode="normal" in2="BackgroundImageFix" result="effect1_dropShadow"/>
<feBlend mode="normal" in="SourceGraphic" in2="effect1_dropShadow" result="shape"/>
</filter>
<filter id="filter1_d" x="86.4423" y="7" width="191.538" height="134.808" filterUnits="userSpaceOnUse" color-interpolation-filters="sRGB">
<feFlood flood-opacity="0" result="BackgroundImageFix"/>
<feColorMatrix in="SourceAlpha" type="matrix" values="0 0 0 0 0 0 0 0 0 0 0 0 0 0 0 0 0 0 127 0"/>
<feMorphology radius="5" operator="erode" in="SourceAlpha" result="effect1_dropShadow"/>
<feOffset dx="-5" dy="5"/>
<feGaussianBlur stdDeviation="5"/>
<feColorMatrix type="matrix" values="0 0 0 0 0 0 0 0 0 0 0 0 0 0 0 0 0 0 0.15 0"/>
<feBlend mode="normal" in2="BackgroundImageFix" result="effect1_dropShadow"/>
<feBlend mode="normal" in="SourceGraphic" in2="effect1_dropShadow" result="shape"/>
</filter>
<filter id="filter2_d" x="205.577" y="102.115" width="191.538" height="134.808" filterUnits="userSpaceOnUse" color-interpolation-filters="sRGB">
<feFlood flood-opacity="0" result="BackgroundImageFix"/>
<feColorMatrix in="SourceAlpha" type="matrix" values="0 0 0 0 0 0 0 0 0 0 0 0 0 0 0 0 0 0 127 0"/>
<feMorphology radius="5" operator="erode" in="SourceAlpha" result="effect1_dropShadow"/>
<feOffset dx="-5" dy="-5"/>
<feGaussianBlur stdDeviation="5"/>
<feColorMatrix type="matrix" values="0 0 0 0 0 0 0 0 0 0 0 0 0 0 0 0 0 0 0.15 0"/>
<feBlend mode="normal" in2="BackgroundImageFix" result="effect1_dropShadow"/>
<feBlend mode="normal" in="SourceGraphic" in2="effect1_dropShadow" result="shape"/>
</filter>
<filter id="filter3_d" x="1" y="164" width="216.294" height="151.827" filterUnits="userSpaceOnUse" color-interpolation-filters="sRGB">
<feFlood flood-opacity="0" result="BackgroundImageFix"/>
<feColorMatrix in="SourceAlpha" type="matrix" values="0 0 0 0 0 0 0 0 0 0 0 0 0 0 0 0 0 0 127 0"/>
<feMorphology radius="5" operator="erode" in="SourceAlpha" result="effect1_dropShadow"/>
<feOffset dx="-2" dy="3"/>
<feGaussianBlur stdDeviation="5"/>
<feColorMatrix type="matrix" values="0 0 0 0 0 0 0 0 0 0 0 0 0 0 0 0 0 0 0.15 0"/>
<feBlend mode="normal" in2="BackgroundImageFix" result="effect1_dropShadow"/>
<feBlend mode="normal" in="SourceGraphic" in2="effect1_dropShadow" result="shape"/>
</filter>
<linearGradient id="paint0_linear" x1="153.173" y1="80.9135" x2="355.941" y2="283.904" gradientUnits="userSpaceOnUse">
<stop stop-color="#FF7C9C" stop-opacity="0"/>
<stop offset="0.557292" stop-color="#FFECF0" stop-opacity="0.5"/>
<stop offset="1" stop-color="#FF95AE"/>
</linearGradient>
<linearGradient id="paint1_linear" x1="200.34" y1="41.0464" x2="200.34" y2="299.171" gradientUnits="userSpaceOnUse">
<stop stop-color="#FF9CC0"/>
<stop offset="1" stop-color="white" stop-opacity="0"/>
</linearGradient>
<linearGradient id="paint2_linear" x1="200.34" y1="80.758" x2="200.34" y2="338.883" gradientUnits="userSpaceOnUse">
<stop stop-color="#FF9C9C"/>
<stop offset="1" stop-color="white" stop-opacity="0"/>
</linearGradient>
<linearGradient id="paint3_linear" x1="198.558" y1="73.3041" x2="268.641" y2="46.8359" gradientUnits="userSpaceOnUse">
<stop stop-color="white"/>
<stop offset="1" stop-color="#F5F5F5"/>
</linearGradient>
<linearGradient id="paint4_linear" x1="317.692" y1="178.419" x2="387.776" y2="151.951" gradientUnits="userSpaceOnUse">
<stop stop-color="white"/>
<stop offset="1" stop-color="#F5F5F5"/>
</linearGradient>
<linearGradient id="paint5_linear" x1="124.04" y1="241.346" x2="203.681" y2="211.268" gradientUnits="userSpaceOnUse">
<stop stop-color="white"/>
<stop offset="1" stop-color="#F5F5F5"/>
</linearGradient>
<clipPath id="clip0">
<rect width="370" height="317" fill="white"/>
</clipPath>
<clipPath id="clip1">
<rect width="39.7115" height="39.7115" fill="white" transform="translate(119.135 69.4039)"/>
</clipPath>
<clipPath id="clip2">
<rect width="39.7115" height="39.7115" fill="white" transform="translate(238.269 174.519)"/>
</clipPath>
<clipPath id="clip3">
<rect width="39.7115" height="39.7115" fill="white" transform="translate(36.3654 239.75)"/>
</clipPath>
</defs>
</svg>
