<svg width="370" height="317" viewBox="0 0 370 317" fill="none" xmlns="http://www.w3.org/2000/svg">
<rect width="370" height="317" fill="white"/>
<g filter="url(#filter0_d)">
<rect x="14.5" y="22.6" width="338.5" height="270.8" rx="2" fill="white"/>
<rect x="14.5" y="22.6" width="338.5" height="270.8" rx="2" stroke="url(#paint0_linear)"/>
</g>
<mask id="mask0" mask-type="alpha" maskUnits="userSpaceOnUse" x="14" y="22" width="339" height="272">
<rect x="14.5" y="22.6" width="338.5" height="270.8" rx="2" fill="white"/>
</mask>
<g mask="url(#mask0)">
<circle cx="254.271" cy="53.6292" r="8.4625" fill="#FF8FAA"/>
<circle cx="288.121" cy="53.6292" r="8.4625" fill="#FFCB8F"/>
<circle cx="321.971" cy="53.6292" r="8.4625" fill="#BDFAA0"/>
<path d="M127.333 208.775C170.955 208.775 206.317 173.413 206.317 129.792C206.317 86.1707 170.955 50.8087 127.333 50.8087C83.7122 50.8087 48.3502 86.1707 48.3502 129.792C48.3502 173.413 83.7122 208.775 127.333 208.775Z" fill="url(#paint1_linear)"/>
<path d="M234.525 265.192C278.146 265.192 313.508 229.83 313.508 186.209C313.508 142.587 278.146 107.225 234.525 107.225C190.904 107.225 155.542 142.587 155.542 186.209C155.542 229.83 190.904 265.192 234.525 265.192Z" fill="url(#paint2_linear)"/>
<g clip-path="url(#clip0)">
<path d="M183.267 258.583C239.084 258.583 284.333 213.334 284.333 157.517C284.333 101.699 239.084 56.4503 183.267 56.4503C127.449 56.4503 82.2002 101.699 82.2002 157.517C82.2002 213.334 127.449 258.583 183.267 258.583Z" fill="#FF3366"/>
<path d="M192.022 112.061C196.405 112.061 200.405 112.448 204.016 113.218C207.627 113.988 210.723 115.259 213.302 117.013C215.882 118.772 217.881 121.109 219.297 124.025C220.716 126.941 221.424 130.545 221.424 134.837C221.424 139.471 220.369 143.33 218.265 146.419C216.155 149.508 213.042 152.041 208.915 154.009C214.589 155.64 218.822 158.492 221.616 162.566C224.41 166.643 225.807 171.555 225.807 177.3C225.807 181.934 224.903 185.943 223.1 189.333C221.296 192.722 218.863 195.488 215.813 197.634C212.759 199.78 209.28 201.365 205.367 202.395C201.455 203.425 197.437 203.94 193.31 203.94H148.691V112.061H192.022ZM191.324 167.354H175.408C169.66 167.354 165.004 172.138 165.004 178.043L165.008 178.364C165.153 183.393 168.676 187.549 173.328 188.518L173.39 196.554L183.473 188.731L191.324 188.731C196.967 188.731 201.559 184.12 201.724 178.364L201.728 178.043C201.728 172.138 197.072 167.354 191.324 167.354ZM176.586 176.002C177.681 176.002 178.568 176.887 178.568 177.979C178.568 179.071 177.681 179.956 176.586 179.956C175.492 179.956 174.605 179.071 174.605 177.979C174.605 176.887 175.492 176.002 176.586 176.002ZM183.517 176.002C184.611 176.002 185.498 176.887 185.498 177.979C185.498 179.071 184.611 179.956 183.517 179.956C182.422 179.956 181.535 179.071 181.535 177.979C181.535 176.887 182.422 176.002 183.517 176.002ZM190.443 176.002C191.537 176.002 192.424 176.887 192.424 177.979C192.424 179.071 191.537 179.956 190.443 179.956C189.348 179.956 188.461 179.071 188.461 177.979C188.461 176.887 189.348 176.002 190.443 176.002ZM187.895 127.761H168.939V149.253H189.443C193.054 149.253 196.017 148.396 198.341 146.678C200.66 144.965 201.824 142.172 201.824 138.313C201.824 136.172 201.436 134.409 200.665 133.037C199.893 131.666 198.861 130.591 197.569 129.821C196.282 129.051 194.798 128.513 193.118 128.212C191.442 127.912 189.703 127.761 187.895 127.761Z" fill="white"/>
</g>
</g>
<defs>
<filter id="filter0_d" x="3" y="11.1" width="351.5" height="283.8" filterUnits="userSpaceOnUse" color-interpolation-filters="sRGB">
<feFlood flood-opacity="0" result="BackgroundImageFix"/>
<feColorMatrix in="SourceAlpha" type="matrix" values="0 0 0 0 0 0 0 0 0 0 0 0 0 0 0 0 0 0 127 0"/>
<feMorphology radius="4" operator="erode" in="SourceAlpha" result="effect1_dropShadow"/>
<feOffset dx="-5" dy="-5"/>
<feGaussianBlur stdDeviation="5"/>
<feColorMatrix type="matrix" values="0 0 0 0 0 0 0 0 0 0 0 0 0 0 0 0 0 0 0.1 0"/>
<feBlend mode="normal" in2="BackgroundImageFix" result="effect1_dropShadow"/>
<feBlend mode="normal" in="SourceGraphic" in2="effect1_dropShadow" result="shape"/>
</filter>
<linearGradient id="paint0_linear" x1="132.975" y1="78.8848" x2="334.621" y2="280.752" gradientUnits="userSpaceOnUse">
<stop stop-color="#FF7C9C" stop-opacity="0"/>
<stop offset="0.557292" stop-color="#FFECF0" stop-opacity="0.5"/>
<stop offset="1" stop-color="#FF95AE"/>
</linearGradient>
<linearGradient id="paint1_linear" x1="81.4173" y1="64.5867" x2="125.507" y2="144.499" gradientUnits="userSpaceOnUse">
<stop stop-color="#FFC0D0"/>
<stop offset="1" stop-color="#FFC0D0" stop-opacity="0"/>
</linearGradient>
<linearGradient id="paint2_linear" x1="287.811" y1="228.472" x2="251.988" y2="192.649" gradientUnits="userSpaceOnUse">
<stop stop-color="#FFC0D0"/>
<stop offset="1" stop-color="#FFC0D0" stop-opacity="0"/>
</linearGradient>
<clipPath id="clip0">
<rect width="203.1" height="203.1" fill="white" transform="translate(82.2002 56.4503)"/>
</clipPath>
</defs>
</svg>
