<svg width="70" height="60" viewBox="0 0 70 60" fill="none" xmlns="http://www.w3.org/2000/svg">
<g clip-path="url(#clip0)">
<g filter="url(#filter0_d)">
<rect x="12" y="5.52338" width="60" height="48" rx="2" fill="white"/>
<rect x="12" y="5.52338" width="60" height="48" rx="2" stroke="url(#paint0_linear)" stroke-width="0.5"/>
</g>
<mask id="mask0" mask-type="alpha" maskUnits="userSpaceOnUse" x="12" y="5" width="60" height="49">
<rect x="12" y="5.52338" width="60" height="48" rx="2" fill="white"/>
</mask>
<g mask="url(#mask0)">
<circle cx="54.5" cy="11.0234" r="1.5" fill="#FF8FAA"/>
<circle cx="60.5" cy="11.0234" r="1.5" fill="#FFCB8F"/>
<circle cx="66.5" cy="11.0234" r="1.5" fill="#BDFAA0"/>
<path d="M32 38.5234C39.732 38.5234 46 32.2554 46 24.5234C46 16.7915 39.732 10.5234 32 10.5234C24.268 10.5234 18 16.7915 18 24.5234C18 32.2554 24.268 38.5234 32 38.5234Z" fill="url(#paint1_linear)"/>
<path d="M51 48.5234C58.732 48.5234 65 42.2554 65 34.5234C65 26.7915 58.732 20.5234 51 20.5234C43.268 20.5234 37 26.7915 37 34.5234C37 42.2554 43.268 48.5234 51 48.5234Z" fill="url(#paint2_linear)"/>
<g clip-path="url(#clip1)">
<path d="M41.9143 47.352C51.8081 47.352 59.8286 39.3315 59.8286 29.4377C59.8286 19.5439 51.8081 11.5234 41.9143 11.5234C32.0205 11.5234 24 19.5439 24 29.4377C24 39.3315 32.0205 47.352 41.9143 47.352Z" fill="#FF3366"/>
<path d="M43.4663 21.3806C44.2432 21.3806 44.9521 21.4492 45.5922 21.5857C46.2323 21.7222 46.7809 21.9475 47.2382 22.2584C47.6954 22.5701 48.0498 22.9844 48.3007 23.5013C48.5524 24.0181 48.6778 24.6569 48.6778 25.4177C48.6778 26.239 48.4909 26.923 48.1178 27.4705C47.7439 28.0181 47.192 28.4671 46.4605 28.816C47.4664 29.1051 48.2165 29.6106 48.7118 30.3326C49.2071 31.0554 49.4547 31.926 49.4547 32.9443C49.4547 33.7656 49.2945 34.4763 48.9748 35.0772C48.6552 35.678 48.2238 36.1682 47.6833 36.5486C47.1419 36.9289 46.5252 37.21 45.8317 37.3925C45.1382 37.575 44.426 37.6663 43.6945 37.6663H35.7857V21.3806H43.4663ZM43.3425 31.1814H40.5214C39.5026 31.1814 38.6772 32.0293 38.6772 33.076L38.678 33.1329C38.7036 34.0244 39.3282 34.761 40.1527 34.9327L40.1638 36.3572L41.951 34.9706L43.3425 34.9706C44.3428 34.9706 45.1567 34.1532 45.1859 33.1329L45.1867 33.076C45.1867 32.0293 44.3613 31.1814 43.3425 31.1814ZM40.7302 32.7142C40.9242 32.7142 41.0814 32.8711 41.0814 33.0647C41.0814 33.2582 40.9242 33.4152 40.7302 33.4152C40.5363 33.4152 40.379 33.2582 40.379 33.0647C40.379 32.8711 40.5363 32.7142 40.7302 32.7142ZM41.9587 32.7142C42.1526 32.7142 42.3099 32.8711 42.3099 33.0647C42.3099 33.2582 42.1526 33.4152 41.9587 33.4152C41.7647 33.4152 41.6074 33.2582 41.6074 33.0647C41.6074 32.8711 41.7647 32.7142 41.9587 32.7142ZM43.1863 32.7142C43.3803 32.7142 43.5375 32.8711 43.5375 33.0647C43.5375 33.2582 43.3803 33.4152 43.1863 33.4152C42.9923 33.4152 42.8351 33.2582 42.8351 33.0647C42.8351 32.8711 42.9923 32.7142 43.1863 32.7142ZM42.7347 24.1635H39.3747V27.9729H43.0091C43.6492 27.9729 44.1744 27.821 44.5863 27.5166C44.9974 27.2129 45.2037 26.7179 45.2037 26.0338C45.2037 25.6543 45.1349 25.3417 44.9982 25.0987C44.8614 24.8556 44.6785 24.665 44.4495 24.5285C44.2213 24.392 43.9583 24.2967 43.6605 24.2434C43.3635 24.1901 43.0552 24.1635 42.7347 24.1635Z" fill="white"/>
</g>
</g>
</g>
<defs>
<filter id="filter0_d" x="0.75" y="-5.72662" width="72.5" height="60.5" filterUnits="userSpaceOnUse" color-interpolation-filters="sRGB">
<feFlood flood-opacity="0" result="BackgroundImageFix"/>
<feColorMatrix in="SourceAlpha" type="matrix" values="0 0 0 0 0 0 0 0 0 0 0 0 0 0 0 0 0 0 127 0"/>
<feMorphology radius="4" operator="erode" in="SourceAlpha" result="effect1_dropShadow"/>
<feOffset dx="-5" dy="-5"/>
<feGaussianBlur stdDeviation="5"/>
<feColorMatrix type="matrix" values="0 0 0 0 0 0 0 0 0 0 0 0 0 0 0 0 0 0 0.1 0"/>
<feBlend mode="normal" in2="BackgroundImageFix" result="effect1_dropShadow"/>
<feBlend mode="normal" in="SourceGraphic" in2="effect1_dropShadow" result="shape"/>
</filter>
<linearGradient id="paint0_linear" x1="33" y1="15.5" x2="68.7422" y2="51.2814" gradientUnits="userSpaceOnUse">
<stop stop-color="#FF7C9C" stop-opacity="0"/>
<stop offset="0.557292" stop-color="#FFECF0" stop-opacity="0.5"/>
<stop offset="1" stop-color="#FF95AE"/>
</linearGradient>
<linearGradient id="paint1_linear" x1="23.8613" y1="12.9656" x2="31.6763" y2="27.1303" gradientUnits="userSpaceOnUse">
<stop stop-color="#FFC0D0"/>
<stop offset="1" stop-color="#FFC0D0" stop-opacity="0"/>
</linearGradient>
<linearGradient id="paint2_linear" x1="60.445" y1="42.0147" x2="54.0953" y2="35.665" gradientUnits="userSpaceOnUse">
<stop stop-color="#FFC0D0"/>
<stop offset="1" stop-color="#FFC0D0" stop-opacity="0"/>
</linearGradient>
<clipPath id="clip0">
<rect width="70" height="60" fill="white"/>
</clipPath>
<clipPath id="clip1">
<rect width="36" height="36" fill="white" transform="translate(24 11.5234)"/>
</clipPath>
</defs>
</svg>
