<svg width="70" height="60" viewBox="0 0 70 60" fill="none" xmlns="http://www.w3.org/2000/svg">
<g clip-path="url(#clip0)">
<g filter="url(#filter0_d)">
<rect x="12" y="5.52338" width="60" height="48" rx="2" fill="white"/>
<rect x="12" y="5.52338" width="60" height="48" rx="2" stroke="url(#paint0_linear)" stroke-width="0.5"/>
</g>
<mask id="mask0" mask-type="alpha" maskUnits="userSpaceOnUse" x="12" y="5" width="60" height="49">
<rect x="12" y="5.52338" width="60" height="48" rx="2" fill="white"/>
</mask>
<g mask="url(#mask0)">
<path d="M11.0642 53.9726H11.0649C11.007 53.1964 9.22068 29.4726 29.0642 29.4726C49.5642 29.4726 45.0642 18.9726 55.5642 12.4726C66.0642 5.9726 71.5642 8.47259 71.5642 8.47259V53.9726H11.0649C11.0669 53.9983 11.0669 53.9988 11.0642 53.9726Z" fill="url(#paint1_linear)"/>
<path d="M11.0642 60.9726H11.0649C11.007 60.1964 9.22068 36.4726 29.0642 36.4726C49.5642 36.4726 45.0642 25.9726 55.5642 19.4726C66.0642 12.9726 71.5642 15.4726 71.5642 15.4726V60.9726H11.0649C11.0669 60.9983 11.0669 60.9988 11.0642 60.9726Z" fill="url(#paint2_linear)"/>
</g>
<g filter="url(#filter1_d)">
<rect x="23" y="3" width="32" height="22" rx="1" fill="url(#paint3_linear)"/>
</g>
<path d="M25 6C25 5.44772 25.4477 5 26 5H52C52.5523 5 53 5.44772 53 6V10H25V6Z" fill="#CCEFF1"/>
<rect x="26" y="7" width="11" height="1" rx="0.5" fill="#34B9C0"/>
<rect x="38" y="7" width="3" height="1" rx="0.5" fill="#34B9C0"/>
<circle cx="47.5" cy="7.5" r="0.5" fill="#CCCCCC"/>
<circle cx="49.5" cy="7.5" r="0.5" fill="#CCCCCC"/>
<circle cx="51.5" cy="7.5" r="0.5" fill="#CCCCCC"/>
<path d="M25 12H36V22C36 22.5523 35.5523 23 35 23H26C25.4477 23 25 22.5523 25 22V12Z" fill="#64DFE6"/>
<path fill-rule="evenodd" clip-rule="evenodd" d="M30.6584 14C30.703 14 30.7391 14.0361 30.7391 14.0807C30.7391 14.1252 30.703 14.1614 30.6584 14.1614H30.4971C30.4526 14.1614 30.4165 14.1252 30.4165 14.0807C30.4165 14.0361 30.4526 14 30.4971 14H30.6584ZM31.3129 14.092C31.342 14.0965 31.3663 14.1165 31.3763 14.1442C31.3863 14.1719 31.3805 14.2029 31.361 14.225C31.3416 14.2471 31.3116 14.2569 31.2829 14.2504L31.1243 14.2202C31.0817 14.2109 31.0541 14.1693 31.0623 14.1263C31.0705 14.0834 31.1114 14.0548 31.1545 14.0618L31.3129 14.0918V14.092ZM31.944 14.3082C31.9854 14.3247 32.0056 14.3716 31.9891 14.4131C31.9726 14.4545 31.9257 14.4747 31.8843 14.4582L31.7343 14.3984C31.6929 14.3818 31.6728 14.3348 31.6894 14.2934C31.7059 14.252 31.7529 14.2319 31.7943 14.2485L31.944 14.3082ZM32.5155 14.6364C32.5405 14.6516 32.5553 14.6791 32.5542 14.7084C32.5531 14.7376 32.5362 14.764 32.5101 14.7772C32.4841 14.7905 32.4529 14.7886 32.4286 14.7722L32.2928 14.6853C32.2673 14.6703 32.2519 14.6426 32.2529 14.6131C32.2538 14.5835 32.2708 14.5568 32.2973 14.5435C32.3237 14.5302 32.3553 14.5325 32.3796 14.5494L32.5155 14.6364ZM33.0229 15.0727C33.0438 15.0925 33.0525 15.122 33.0457 15.1501C33.039 15.1781 33.0178 15.2004 32.9902 15.2086C32.9625 15.2167 32.9327 15.2095 32.9118 15.1897L32.7948 15.0787C32.7626 15.048 32.7613 14.9969 32.7919 14.9646C32.8226 14.9323 32.8737 14.931 32.906 14.9617L33.0229 15.0727ZM33.429 15.5826C33.4466 15.6059 33.4503 15.6369 33.4386 15.6637C33.4268 15.6905 33.4015 15.7088 33.3724 15.7116C33.3433 15.7144 33.3149 15.7012 33.2983 15.6771L33.2038 15.5464C33.1862 15.5231 33.1825 15.4921 33.1942 15.4653C33.206 15.4385 33.2313 15.4201 33.2604 15.4174C33.2895 15.4146 33.3179 15.4278 33.3345 15.4519L33.429 15.5826ZM33.7393 16.1718C33.7581 16.2122 33.7406 16.2603 33.7002 16.2791C33.6598 16.2979 33.6118 16.2803 33.593 16.2399L33.5249 16.0936C33.5128 16.0674 33.5155 16.0368 33.532 16.0132C33.5486 15.9896 33.5765 15.9766 33.6052 15.9791C33.6339 15.9817 33.6591 15.9993 33.6712 16.0255L33.7393 16.1718ZM33.9322 16.8119C33.9413 16.8545 33.915 16.8967 33.8728 16.9072C33.8305 16.9177 33.7876 16.8927 33.7757 16.8508L33.737 16.6943C33.729 16.666 33.7371 16.6355 33.758 16.6149C33.779 16.5942 33.8095 16.5866 33.8377 16.5951C33.8659 16.6035 33.8873 16.6266 33.8935 16.6554L33.9322 16.8119ZM33.9999 17.4793C34.0014 17.5081 33.9874 17.5355 33.9631 17.5512C33.9389 17.5669 33.9082 17.5685 33.8825 17.5553C33.8568 17.5422 33.8401 17.5163 33.8386 17.4875L33.8306 17.3265C33.8299 17.2831 33.8636 17.2469 33.907 17.2446C33.9503 17.2424 33.9877 17.2748 33.9915 17.3181L33.9997 17.4793H33.9999ZM33.9415 18.1408C33.934 18.1836 33.8941 18.2127 33.8511 18.2068C33.8082 18.2009 33.7776 18.1621 33.7818 18.1189L33.8038 17.9592C33.8066 17.9297 33.8253 17.9041 33.8525 17.8925C33.8798 17.8809 33.9112 17.8852 33.9343 17.9037C33.9575 17.9221 33.9686 17.9518 33.9634 17.9809L33.9415 18.1407V18.1408ZM33.7591 18.7805C33.7498 18.8078 33.7267 18.828 33.6984 18.8336C33.6702 18.8392 33.6411 18.8293 33.6221 18.8077C33.6031 18.786 33.5971 18.7558 33.6064 18.7285L33.6583 18.5757C33.6738 18.5352 33.7186 18.5142 33.7596 18.5282C33.8007 18.5421 33.8233 18.5861 33.8109 18.6277L33.7591 18.7805ZM33.4608 19.3694C33.4473 19.396 33.4204 19.4131 33.3906 19.4137C33.3608 19.4144 33.3331 19.3986 33.3185 19.3727C33.3039 19.3467 33.3047 19.3148 33.3208 19.2897L33.4004 19.1495C33.4147 19.1244 33.4412 19.1088 33.47 19.1086C33.4988 19.1084 33.5256 19.1236 33.5402 19.1485C33.5548 19.1733 33.555 19.2041 33.5407 19.2292L33.4609 19.3696L33.4608 19.3694ZM33.0522 19.898C33.0335 19.9199 33.0045 19.9302 32.9762 19.9249C32.9479 19.9196 32.9245 19.8996 32.9149 19.8724C32.9053 19.8453 32.9109 19.815 32.9297 19.7931L33.0345 19.6705C33.0532 19.6486 33.0822 19.6383 33.1105 19.6436C33.1389 19.6489 33.1622 19.6689 33.1718 19.6961C33.1814 19.7232 33.1758 19.7535 33.1571 19.7754L33.0522 19.898ZM32.5628 20.3314C32.528 20.3593 32.4772 20.3538 32.4493 20.3191C32.4214 20.2843 32.4269 20.2335 32.4616 20.2055L32.5874 20.1045C32.6222 20.0766 32.6729 20.0822 32.7008 20.117C32.7287 20.1517 32.7231 20.2025 32.6884 20.2304L32.5626 20.3314H32.5628ZM31.9912 20.6715C31.9518 20.6924 31.903 20.6774 31.8821 20.6381C31.8612 20.5987 31.8762 20.5498 31.9156 20.5289L32.0581 20.4534C32.0837 20.4386 32.1153 20.439 32.1404 20.4544C32.1656 20.4698 32.1804 20.4977 32.179 20.5272C32.1776 20.5566 32.1602 20.583 32.1336 20.5959L31.9912 20.6715ZM31.3632 20.8974C31.3356 20.9058 31.3057 20.8989 31.2846 20.8792C31.2636 20.8595 31.2546 20.83 31.2612 20.802C31.2677 20.7739 31.2887 20.7514 31.3163 20.743L31.4704 20.6961C31.5131 20.6831 31.5582 20.7071 31.5712 20.7497C31.5842 20.7924 31.5602 20.8375 31.5175 20.8505L31.3632 20.8973V20.8974ZM30.701 20.9996C30.6723 21.0025 30.6443 20.99 30.6274 20.9666C30.6105 20.9433 30.6073 20.9127 30.6191 20.8864C30.6308 20.86 30.6557 20.842 30.6844 20.839L30.8449 20.8224C30.8735 20.8194 30.9016 20.832 30.9185 20.8553C30.9354 20.8787 30.9386 20.9093 30.9268 20.9356C30.915 20.9619 30.8901 20.98 30.8615 20.983L30.701 20.9996ZM30.0349 20.975C30.0056 20.9735 29.9794 20.956 29.9666 20.9295C29.9539 20.9031 29.9565 20.8717 29.9735 20.8477C29.9906 20.8238 30.0193 20.811 30.0485 20.8143L30.2093 20.8281C30.2527 20.833 30.2843 20.8715 30.2805 20.9151C30.2768 20.9586 30.2392 20.9913 30.1956 20.9888L30.0348 20.975H30.0349ZM29.3887 20.8263C29.3469 20.8134 29.323 20.7694 29.3349 20.7272C29.3468 20.6851 29.3902 20.6601 29.4326 20.6711L29.5877 20.7149C29.6161 20.7222 29.6382 20.7443 29.6456 20.7726C29.6531 20.801 29.6445 20.8311 29.6234 20.8513C29.6023 20.8716 29.5718 20.8788 29.5438 20.8702L29.3887 20.8263ZM28.7846 20.5587C28.7447 20.5387 28.7287 20.4902 28.7487 20.4504C28.7687 20.4106 28.8172 20.3945 28.857 20.4145L29.0012 20.4869C29.041 20.507 29.057 20.5555 29.037 20.5954C29.0169 20.6352 28.9684 20.6512 28.9286 20.6312L28.7846 20.5586V20.5587ZM28.237 20.1784C28.2017 20.1513 28.1951 20.1006 28.2223 20.0652C28.2494 20.0299 28.3001 20.0233 28.3354 20.0505L28.4631 20.1489C28.4985 20.1761 28.5051 20.2268 28.4779 20.2621C28.4507 20.2974 28.4001 20.304 28.3648 20.2769L28.237 20.1784ZM27.7732 19.7044C27.7436 19.671 27.7467 19.62 27.78 19.5905C27.8133 19.5609 27.8643 19.5639 27.8938 19.5972L28.0009 19.7179C28.0201 19.7395 28.0262 19.7696 28.0171 19.797C28.008 19.8243 27.985 19.8448 27.9568 19.8505C27.9286 19.8563 27.8994 19.8466 27.8803 19.8251L27.7732 19.7044ZM27.4095 19.1574C27.3947 19.1327 27.3942 19.1019 27.4082 19.0767C27.4222 19.0515 27.4486 19.0357 27.4774 19.0352C27.5062 19.0348 27.5331 19.0497 27.5479 19.0744L27.6306 19.2129C27.6521 19.251 27.6393 19.2993 27.6018 19.3217C27.5642 19.3442 27.5157 19.3326 27.4923 19.2957L27.4095 19.1572V19.1574ZM27.1515 18.5423C27.1407 18.515 27.1457 18.484 27.1644 18.4613C27.1831 18.4387 27.2126 18.428 27.2414 18.4334C27.2703 18.4389 27.2939 18.4595 27.3031 18.4874L27.3581 18.6391C27.3718 18.6806 27.35 18.7254 27.3089 18.7403C27.2679 18.7551 27.2225 18.7346 27.2065 18.694L27.1516 18.5423H27.1515ZM27.0152 17.8866C27.0107 17.8581 27.0218 17.8294 27.0442 17.8113C27.0666 17.7932 27.097 17.7884 27.1239 17.7988C27.1508 17.8091 27.1701 17.8331 27.1745 17.8615L27.1995 18.021C27.2064 18.065 27.1764 18.1063 27.1324 18.1132C27.0884 18.1201 27.0471 18.09 27.0402 18.046L27.0152 17.8866ZM27.0055 17.2171C27.0071 17.1725 27.0445 17.1377 27.089 17.1392C27.1335 17.1408 27.1684 17.1782 27.1668 17.2227L27.1613 17.3839C27.1603 17.4128 27.1441 17.4389 27.1186 17.4524C27.0932 17.466 27.0625 17.4649 27.038 17.4497C27.0135 17.4344 26.9991 17.4073 27 17.3784L27.0057 17.2171H27.0055ZM27.1205 16.5651C27.1312 16.5225 27.1738 16.4963 27.2166 16.506C27.2593 16.5157 27.2865 16.5578 27.2778 16.6007L27.2421 16.758C27.2363 16.7867 27.2154 16.81 27.1876 16.8189C27.1597 16.8278 27.1292 16.8209 27.1079 16.8008C27.0866 16.7808 27.0778 16.7508 27.0849 16.7224L27.1205 16.5651ZM27.36 15.94C27.3717 15.9136 27.3965 15.8954 27.4251 15.8923C27.4538 15.8892 27.4819 15.9017 27.4989 15.9249C27.5159 15.9482 27.5192 15.9788 27.5076 16.0052L27.4424 16.1528C27.4308 16.1792 27.406 16.1973 27.3773 16.2004C27.3487 16.2035 27.3205 16.1911 27.3035 16.1678C27.2865 16.1446 27.2832 16.114 27.2949 16.0876L27.36 15.94ZM27.7071 15.3815C27.7234 15.3576 27.7512 15.3442 27.7801 15.3465C27.8089 15.3487 27.8343 15.3663 27.8467 15.3925C27.859 15.4187 27.8564 15.4495 27.8398 15.4732L27.748 15.606C27.7317 15.6297 27.7039 15.6429 27.6751 15.6405C27.6464 15.6382 27.6211 15.6207 27.6088 15.5946C27.5964 15.5685 27.5989 15.5379 27.6153 15.5142L27.7071 15.3815ZM28.1619 14.8887C28.1824 14.8681 28.2124 14.86 28.2404 14.8677C28.2685 14.8754 28.2902 14.8976 28.2973 14.9258C28.3044 14.954 28.2958 14.9839 28.2748 15.0039L28.1596 15.1169C28.1277 15.1473 28.0773 15.1465 28.0464 15.115C28.0156 15.0835 28.0157 15.033 28.0467 15.0017L28.1619 14.8887ZM28.6844 14.5015C28.7083 14.4854 28.739 14.4833 28.7649 14.496C28.7907 14.5087 28.8079 14.5342 28.8099 14.5629C28.8118 14.5917 28.7983 14.6193 28.7744 14.6354L28.6405 14.7253C28.6036 14.7502 28.5535 14.7403 28.5286 14.7033C28.5038 14.6664 28.5136 14.6162 28.5506 14.5914L28.6844 14.5013V14.5015ZM29.2844 14.212C29.3109 14.2008 29.3414 14.2046 29.3644 14.2219C29.3874 14.2393 29.3994 14.2676 29.3958 14.2962C29.3923 14.3248 29.3738 14.3494 29.3473 14.3606L29.1986 14.4236C29.1575 14.4409 29.1101 14.4217 29.0928 14.3806C29.0754 14.3396 29.0946 14.2922 29.1357 14.2748L29.2844 14.212ZM29.9311 14.0418C29.9593 14.0359 29.9885 14.0455 30.0077 14.067C30.0269 14.0884 30.0332 14.1186 30.0242 14.1459C30.0152 14.1733 29.9923 14.1938 29.9641 14.1998L29.8064 14.233C29.7782 14.239 29.7489 14.2294 29.7296 14.2079C29.7103 14.1864 29.704 14.1563 29.7129 14.1289C29.7219 14.1014 29.7448 14.0808 29.773 14.0749L29.9307 14.0416L29.9311 14.0418ZM30.206 18.6483C30.3972 18.6975 30.5921 18.6967 30.7753 18.6528L31.4664 20.4406C30.8234 20.6534 30.1282 20.6482 29.4884 20.4258L30.206 18.6483ZM31.549 18.0511L33.3224 18.7679C33.0096 19.4666 32.4485 20.0241 31.748 20.3322L31.0573 18.5457C31.2673 18.4342 31.4387 18.2618 31.5491 18.0511H31.549ZM29.5008 18.1376C29.6068 18.3042 29.7528 18.4414 29.9256 18.5368L29.2084 20.3133C28.5881 20.0295 28.0795 19.5476 27.7624 18.9434L29.5009 18.1376H29.5008ZM27.5885 16.45L29.3619 17.1667C29.295 17.395 29.2985 17.6382 29.3721 17.8644L27.635 18.6696C27.3449 17.9611 27.3283 17.17 27.5885 16.45ZM33.3712 16.3435C33.647 17.0276 33.6687 17.7879 33.4325 18.4866L31.6545 17.7678C31.7023 17.5633 31.6949 17.3498 31.6329 17.1492L33.3714 16.3435H33.3712ZM29.2368 14.6722L29.9277 16.46C29.7437 16.5612 29.5901 16.7096 29.4826 16.89L27.7045 16.1714C28.0198 15.5046 28.5633 14.9728 29.2366 14.6724L29.2368 14.6722ZM31.8043 14.6904C32.4241 14.9775 32.931 15.4626 33.2453 16.0694L31.508 16.8745C31.404 16.7057 31.259 16.5659 31.0866 16.4679L31.8043 14.6904ZM31.525 14.5767L30.8074 16.3532C30.7464 16.3367 30.6841 16.3251 30.6212 16.3185L30.621 15.5622H31.0174L30.5142 14.9472L29.9995 15.5622H30.3959L30.3957 16.3171C30.3325 16.3227 30.2698 16.3335 30.2083 16.3492L29.5177 14.5625C30.1696 14.3429 30.8762 14.3479 31.525 14.5767ZM30.6212 16.6014C31.0904 16.6609 31.4325 17.075 31.4027 17.5472C31.3729 18.0195 30.9814 18.3872 30.5084 18.3872C30.0355 18.3872 29.644 18.0195 29.6142 17.5472C29.5844 17.075 29.9265 16.6609 30.3957 16.6014V17.0609C30.1785 17.1193 30.0419 17.3341 30.0811 17.5556C30.1202 17.7772 30.3221 17.9321 30.5462 17.9125C30.7702 17.8928 30.9421 17.7051 30.9421 17.4801L30.9413 17.4527C30.9296 17.2669 30.8007 17.1093 30.621 17.0609L30.6212 16.6014Z" fill="white"/>
<rect x="38" y="13" width="13" height="1" rx="0.5" fill="#E9E9E9"/>
<rect x="38" y="15" width="9" height="1" rx="0.5" fill="#E9E9E9"/>
<rect x="38" y="17" width="11" height="1" rx="0.5" fill="#E9E9E9"/>
<g filter="url(#filter2_d)">
<rect x="44" y="21" width="32" height="22" rx="1" fill="url(#paint4_linear)"/>
</g>
<path d="M46 24C46 23.4477 46.4477 23 47 23H73C73.5523 23 74 23.4477 74 24V28H46V24Z" fill="#D8F1CC"/>
<rect x="47" y="25" width="11" height="1" rx="0.5" fill="#6DBA49"/>
<rect x="59" y="25" width="3" height="1" rx="0.5" fill="#6DBA49"/>
<circle cx="68.5" cy="25.5" r="0.5" fill="#CCCCCC"/>
<path d="M46 30H57V40C57 40.5523 56.5523 41 56 41H47C46.4477 41 46 40.5523 46 40V30Z" fill="#AEE693"/>
<g clip-path="url(#clip1)">
<path fill-rule="evenodd" clip-rule="evenodd" d="M53.6156 36.0217L55 37.1832L53.6156 38.5V37.7406C53.2976 37.7602 52.9384 37.7033 52.5379 37.5701C52.1375 37.4368 51.7915 37.1676 51.5 36.7624C51.9301 36.2686 52.1452 36.0217 52.1452 36.0217C52.1452 36.0217 52.558 36.5095 52.9111 36.5976C53.1466 36.6563 53.3814 36.6796 53.6156 36.6677V36.0217ZM53.6077 32.5L55 33.7L53.6077 34.9365V34.2141C53.3163 34.205 53.029 34.2806 52.7459 34.441C52.3212 34.6816 51.9787 34.9787 51.5 35.6771C51.0213 36.3755 50.65 36.7937 50.3145 37.1132C49.9789 37.4326 49.6577 37.5701 49.2634 37.5701H48V36.5835H49.2634C49.6707 36.5835 50.0783 36.0561 50.5046 35.4743L50.6977 35.2103C50.7409 35.1516 50.7844 35.093 50.8281 35.035C51.374 34.3106 51.9426 33.6435 52.5345 33.4715C52.9291 33.3568 53.2868 33.2818 53.6077 33.2464V32.5ZM49.6304 33.4868C50.0733 33.6602 50.3721 33.8939 50.5267 34.1877L49.9239 34.9365C49.7701 34.7707 49.5499 34.6252 49.2634 34.5C48.9768 34.3748 48.5557 34.3387 48 34.3918V33.3391C48.644 33.2641 49.1874 33.3134 49.6304 33.4868Z" fill="white"/>
</g>
<rect x="59" y="31" width="13" height="1" rx="0.5" fill="#E9E9E9"/>
<rect x="59" y="33" width="9" height="1" rx="0.5" fill="#E9E9E9"/>
<rect x="59" y="35" width="11" height="1" rx="0.5" fill="#E9E9E9"/>
<g filter="url(#filter3_d)">
<rect x="6" y="30" width="36.3636" height="25" rx="1" fill="url(#paint5_linear)"/>
</g>
<path d="M8.27274 33.2727C8.27274 32.7204 8.72045 32.2727 9.27274 32.2727H39.0909C39.6432 32.2727 40.0909 32.7204 40.0909 33.2727V37.9545H8.27274V33.2727Z" fill="#E7F2C7"/>
<rect x="9.40909" y="34.5455" width="12.5" height="1.13636" rx="0.568182" fill="#AFCE55"/>
<rect x="23.0454" y="34.5455" width="3.40909" height="1.13636" rx="0.568182" fill="#AFCE55"/>
<circle cx="33.8409" cy="35.1137" r="0.568182" fill="#CCCCCC"/>
<circle cx="36.1137" cy="35.1137" r="0.568182" fill="#CCCCCC"/>
<circle cx="38.3864" cy="35.1137" r="0.568182" fill="#CCCCCC"/>
<path d="M8.27274 40.2273H20.7727V51.7273C20.7727 52.2796 20.325 52.7273 19.7727 52.7273H9.27274C8.72045 52.7273 8.27274 52.2796 8.27274 51.7273V40.2273Z" fill="#AFCE55"/>
<g clip-path="url(#clip2)">
<path d="M16.9002 45.406C16.7459 45.2514 16.4974 45.2529 16.345 45.4094C16.1926 45.5659 16.1941 45.8181 16.3483 45.9727L16.6642 46.2894H14.8926V44.3551L15.2048 44.6757C15.3572 44.8321 15.6057 44.8336 15.76 44.679C15.9142 44.5244 15.9157 44.2723 15.7633 44.1158L14.7918 43.1183C14.6394 42.9619 14.3909 42.9604 14.2366 43.115L13.2401 44.1139C13.0858 44.2685 13.0843 44.5207 13.2367 44.6772C13.3135 44.756 13.4147 44.7955 13.516 44.7955C13.6157 44.7955 13.7154 44.7573 13.7919 44.6806L14.1074 44.3643V46.2893H12.3358L12.6517 45.9726C12.806 45.818 12.8075 45.5659 12.6551 45.4094C12.5027 45.2529 12.2541 45.2514 12.0999 45.406L11.1167 46.3916C11.0426 46.4658 11.0006 46.5669 11 46.6725C10.9994 46.7781 11.0401 46.8797 11.1133 46.9548L12.098 47.9659C12.1749 48.0447 12.2761 48.0842 12.3773 48.0842C12.477 48.0842 12.5767 48.0459 12.6532 47.9692C12.8075 47.8146 12.809 47.5625 12.6566 47.406L12.3448 47.0859H14.1074V49.6017C14.1074 49.8217 14.2832 50 14.5 50C14.7168 50 14.8926 49.8217 14.8926 49.6017V47.0859H16.6552L16.3435 47.406C16.191 47.5625 16.1925 47.8146 16.3468 47.9692C16.4233 48.0459 16.523 48.0842 16.6227 48.0842C16.7239 48.0842 16.8252 48.0447 16.902 47.9659L17.8867 46.9548C17.9599 46.8797 18.0006 46.7781 18 46.6725C17.9994 46.5669 17.9574 46.4658 17.8833 46.3916L16.9002 45.406Z" fill="white"/>
</g>
<rect x="23.0454" y="41.3636" width="14.7727" height="1.13636" rx="0.568182" fill="#E9E9E9"/>
<rect x="23.0454" y="43.6364" width="10.2273" height="1.13636" rx="0.568182" fill="#E9E9E9"/>
<rect x="23.0454" y="45.9091" width="12.5" height="1.13636" rx="0.568182" fill="#E9E9E9"/>
</g>
<defs>
<filter id="filter0_d" x="0.75" y="-5.72662" width="72.5" height="60.5" filterUnits="userSpaceOnUse" color-interpolation-filters="sRGB">
<feFlood flood-opacity="0" result="BackgroundImageFix"/>
<feColorMatrix in="SourceAlpha" type="matrix" values="0 0 0 0 0 0 0 0 0 0 0 0 0 0 0 0 0 0 127 0"/>
<feMorphology radius="4" operator="erode" in="SourceAlpha" result="effect1_dropShadow"/>
<feOffset dx="-5" dy="-5"/>
<feGaussianBlur stdDeviation="5"/>
<feColorMatrix type="matrix" values="0 0 0 0 0 0 0 0 0 0 0 0 0 0 0 0 0 0 0.05 0"/>
<feBlend mode="normal" in2="BackgroundImageFix" result="effect1_dropShadow"/>
<feBlend mode="normal" in="SourceGraphic" in2="effect1_dropShadow" result="shape"/>
</filter>
<filter id="filter1_d" x="13" y="3" width="42" height="32" filterUnits="userSpaceOnUse" color-interpolation-filters="sRGB">
<feFlood flood-opacity="0" result="BackgroundImageFix"/>
<feColorMatrix in="SourceAlpha" type="matrix" values="0 0 0 0 0 0 0 0 0 0 0 0 0 0 0 0 0 0 127 0"/>
<feMorphology radius="5" operator="erode" in="SourceAlpha" result="effect1_dropShadow"/>
<feOffset dx="-5" dy="5"/>
<feGaussianBlur stdDeviation="5"/>
<feColorMatrix type="matrix" values="0 0 0 0 0 0 0 0 0 0 0 0 0 0 0 0 0 0 0.15 0"/>
<feBlend mode="normal" in2="BackgroundImageFix" result="effect1_dropShadow"/>
<feBlend mode="normal" in="SourceGraphic" in2="effect1_dropShadow" result="shape"/>
</filter>
<filter id="filter2_d" x="34" y="11" width="42" height="32" filterUnits="userSpaceOnUse" color-interpolation-filters="sRGB">
<feFlood flood-opacity="0" result="BackgroundImageFix"/>
<feColorMatrix in="SourceAlpha" type="matrix" values="0 0 0 0 0 0 0 0 0 0 0 0 0 0 0 0 0 0 127 0"/>
<feMorphology radius="5" operator="erode" in="SourceAlpha" result="effect1_dropShadow"/>
<feOffset dx="-5" dy="-5"/>
<feGaussianBlur stdDeviation="5"/>
<feColorMatrix type="matrix" values="0 0 0 0 0 0 0 0 0 0 0 0 0 0 0 0 0 0 0.15 0"/>
<feBlend mode="normal" in2="BackgroundImageFix" result="effect1_dropShadow"/>
<feBlend mode="normal" in="SourceGraphic" in2="effect1_dropShadow" result="shape"/>
</filter>
<filter id="filter3_d" x="-1" y="28" width="46.3636" height="35" filterUnits="userSpaceOnUse" color-interpolation-filters="sRGB">
<feFlood flood-opacity="0" result="BackgroundImageFix"/>
<feColorMatrix in="SourceAlpha" type="matrix" values="0 0 0 0 0 0 0 0 0 0 0 0 0 0 0 0 0 0 127 0"/>
<feMorphology radius="5" operator="erode" in="SourceAlpha" result="effect1_dropShadow"/>
<feOffset dx="-2" dy="3"/>
<feGaussianBlur stdDeviation="5"/>
<feColorMatrix type="matrix" values="0 0 0 0 0 0 0 0 0 0 0 0 0 0 0 0 0 0 0.15 0"/>
<feBlend mode="normal" in2="BackgroundImageFix" result="effect1_dropShadow"/>
<feBlend mode="normal" in="SourceGraphic" in2="effect1_dropShadow" result="shape"/>
</filter>
<linearGradient id="paint0_linear" x1="33" y1="15.5" x2="68.7422" y2="51.2814" gradientUnits="userSpaceOnUse">
<stop stop-color="#FF7C9C" stop-opacity="0"/>
<stop offset="0.557292" stop-color="#FFECF0" stop-opacity="0.5"/>
<stop offset="1" stop-color="#FF95AE"/>
</linearGradient>
<linearGradient id="paint1_linear" x1="41.3142" y1="8.4726" x2="41.3142" y2="53.9726" gradientUnits="userSpaceOnUse">
<stop stop-color="#FF9CC0"/>
<stop offset="1" stop-color="white" stop-opacity="0"/>
</linearGradient>
<linearGradient id="paint2_linear" x1="41.3142" y1="15.4726" x2="41.3142" y2="60.9726" gradientUnits="userSpaceOnUse">
<stop stop-color="#FF9C9C"/>
<stop offset="1" stop-color="white" stop-opacity="0"/>
</linearGradient>
<linearGradient id="paint3_linear" x1="41" y1="14.6875" x2="53.3537" y2="10.0219" gradientUnits="userSpaceOnUse">
<stop stop-color="white"/>
<stop offset="1" stop-color="#F5F5F5"/>
</linearGradient>
<linearGradient id="paint4_linear" x1="62" y1="32.6875" x2="74.3537" y2="28.0219" gradientUnits="userSpaceOnUse">
<stop stop-color="white"/>
<stop offset="1" stop-color="#F5F5F5"/>
</linearGradient>
<linearGradient id="paint5_linear" x1="26.4545" y1="43.2813" x2="40.4929" y2="37.9795" gradientUnits="userSpaceOnUse">
<stop stop-color="white"/>
<stop offset="1" stop-color="#F5F5F5"/>
</linearGradient>
<clipPath id="clip0">
<rect width="70" height="60" fill="white"/>
</clipPath>
<clipPath id="clip1">
<rect width="7" height="7" fill="white" transform="translate(48 32)"/>
</clipPath>
<clipPath id="clip2">
<rect width="7" height="7" fill="white" transform="translate(11 43)"/>
</clipPath>
</defs>
</svg>
