<svg width="250" height="250" viewBox="0 0 250 250" fill="none" xmlns="http://www.w3.org/2000/svg">
<circle cx="125" cy="125" r="125" fill="#FFF3F6"/>
<circle cx="90.5" cy="90.5" r="2" transform="rotate(90 90.5 90.5)" fill="#FFC1D0"/>
<circle cx="100.5" cy="90.5" r="2" transform="rotate(90 100.5 90.5)" fill="#FFC1D0"/>
<circle cx="81.5" cy="90.5" r="2" transform="rotate(90 81.5 90.5)" fill="#FFC1D0"/>
<circle cx="71.5" cy="90.5" r="2" transform="rotate(90 71.5 90.5)" fill="#FFC1D0"/>
<circle cx="90.5" cy="79.5" r="2" transform="rotate(90 90.5 79.5)" fill="#FFC1D0"/>
<circle cx="100.5" cy="79.5" r="2" transform="rotate(90 100.5 79.5)" fill="#FFC1D0"/>
<circle cx="110.5" cy="79.5" r="2" transform="rotate(90 110.5 79.5)" fill="#FFC1D0"/>
<circle cx="81.5" cy="79.5" r="2" transform="rotate(90 81.5 79.5)" fill="#FFC1D0"/>
<circle cx="71.5" cy="79.5" r="2" transform="rotate(90 71.5 79.5)" fill="#FFC1D0"/>
<circle cx="61.5" cy="90.5" r="2" transform="rotate(90 61.5 90.5)" fill="#FFC1D0"/>
<circle cx="86.5" cy="84.5" r="2" transform="rotate(90 86.5 84.5)" fill="#FFC1D0"/>
<circle cx="96.5" cy="84.5" r="2" transform="rotate(90 96.5 84.5)" fill="#FFC1D0"/>
<circle cx="76.5" cy="84.5" r="2" transform="rotate(90 76.5 84.5)" fill="#FFC1D0"/>
<circle cx="66.5" cy="84.5" r="2" transform="rotate(90 66.5 84.5)" fill="#FFC1D0"/>
<circle cx="57.5" cy="84.5" r="2" transform="rotate(90 57.5 84.5)" fill="#FFC1D0"/>
<circle cx="86.5" cy="97.5" r="2" transform="rotate(90 86.5 97.5)" fill="#FFC1D0"/>
<circle cx="96.5" cy="97.5" r="2" transform="rotate(90 96.5 97.5)" fill="#FFC1D0"/>
<circle cx="76.5" cy="97.5" r="2" transform="rotate(90 76.5 97.5)" fill="#FFC1D0"/>
<circle cx="66.5" cy="97.5" r="2" transform="rotate(90 66.5 97.5)" fill="#FFC1D0"/>
<circle cx="57.5" cy="97.5" r="2" transform="rotate(90 57.5 97.5)" fill="#FFC1D0"/>
<circle cx="181" cy="139" r="2" fill="#FFC1D0"/>
<circle cx="181" cy="129" r="2" fill="#FFC1D0"/>
<circle cx="181" cy="148" r="2" fill="#FFC1D0"/>
<circle cx="181" cy="158" r="2" fill="#FFC1D0"/>
<circle cx="170" cy="139" r="2" fill="#FFC1D0"/>
<circle cx="170" cy="129" r="2" fill="#FFC1D0"/>
<circle cx="170" cy="119" r="2" fill="#FFC1D0"/>
<circle cx="170" cy="148" r="2" fill="#FFC1D0"/>
<circle cx="170" cy="158" r="2" fill="#FFC1D0"/>
<circle cx="181" cy="168" r="2" fill="#FFC1D0"/>
<circle cx="175" cy="143" r="2" fill="#FFC1D0"/>
<circle cx="175" cy="133" r="2" fill="#FFC1D0"/>
<circle cx="175" cy="153" r="2" fill="#FFC1D0"/>
<circle cx="175" cy="163" r="2" fill="#FFC1D0"/>
<circle cx="175" cy="172" r="2" fill="#FFC1D0"/>
<circle cx="188" cy="143" r="2" fill="#FFC1D0"/>
<circle cx="188" cy="133" r="2" fill="#FFC1D0"/>
<circle cx="188" cy="153" r="2" fill="#FFC1D0"/>
<circle cx="188" cy="163" r="2" fill="#FFC1D0"/>
<circle cx="188" cy="172" r="2" fill="#FFC1D0"/>
<path d="M186 100C186 124.29 166.087 144 141.5 144C116.913 144 97 124.29 97 100C97 75.7099 116.913 56 141.5 56C166.087 56 186 75.7099 186 100Z" stroke="#EB436B" stroke-width="2"/>
<path fill-rule="evenodd" clip-rule="evenodd" d="M164.438 88.4521C164.415 88.2877 164.388 88.1231 164.359 87.9584C162.777 78.9841 154.219 72.9919 145.244 74.5743C136.27 76.1567 130.278 84.7145 131.86 93.6888C131.889 93.8535 131.921 94.0172 131.954 94.1799L131.947 94.1812C131.947 94.1812 131.958 94.2218 131.979 94.2974C132.842 98.3151 135.115 101.695 138.184 104.004C139.865 106.294 141.772 109.988 143.095 112.729C144.098 114.807 146.348 116.012 148.62 115.611L155.999 114.31C158.321 113.901 160.041 111.924 160.252 109.575C160.515 106.645 161.01 102.711 161.908 99.8706C163.247 97.8295 164.137 95.4907 164.468 93.0123C164.831 90.4845 164.446 88.4508 164.446 88.4508L164.438 88.4521Z" fill="#FFDDE5"/>
<path d="M160.137 87.0034L159.147 87.1476C159.186 87.4152 159.332 87.6555 159.551 87.8139C159.77 87.9722 160.044 88.0351 160.31 87.9882L160.137 87.0034ZM127.653 92.7312L127.826 93.716C128.093 93.669 128.329 93.5163 128.48 93.2925C128.632 93.0687 128.687 92.793 128.632 92.5283L127.653 92.7312ZM127.645 92.7325L127.472 91.7476C127.196 91.7962 126.954 91.958 126.803 92.1938C126.652 92.4295 126.607 92.7176 126.679 92.9881L127.645 92.7325ZM127.677 92.8487L128.655 92.6388C128.651 92.618 128.646 92.5973 128.64 92.5768L127.677 92.8487ZM133.882 102.556L134.688 101.964C134.63 101.885 134.561 101.815 134.483 101.757L133.882 102.556ZM138.793 111.28L137.893 111.715L138.793 111.28ZM155.95 108.126L154.954 108.037L155.95 108.126ZM157.607 98.4219L156.77 97.8734C156.72 97.95 156.681 98.0331 156.653 98.1204L157.607 98.4219ZM160.167 91.5636L159.177 91.4216L159.175 91.4313L160.167 91.5636ZM160.144 87.0021L161.126 86.816C161.025 86.2782 160.509 85.9222 159.97 86.0173L160.144 87.0021ZM159.072 86.6833C159.1 86.8383 159.125 86.993 159.147 87.1476L161.126 86.8591C161.101 86.6849 161.073 86.5105 161.042 86.336L159.072 86.6833ZM141.116 74.1103C149.547 72.6238 157.586 78.2529 159.072 86.6833L161.042 86.336C159.364 76.8179 150.287 70.4624 140.769 72.1407L141.116 74.1103ZM128.543 92.0664C127.057 83.636 132.686 75.5968 141.116 74.1103L140.769 72.1407C131.251 73.819 124.895 82.8955 126.574 92.4137L128.543 92.0664ZM128.632 92.5283C128.6 92.3753 128.571 92.2214 128.543 92.0664L126.574 92.4137C126.605 92.5882 126.638 92.7616 126.673 92.934L128.632 92.5283ZM127.819 93.7173L127.826 93.716L127.479 91.7464L127.472 91.7476L127.819 93.7173ZM128.64 92.5768C128.63 92.5418 128.623 92.5156 128.618 92.4987C128.616 92.4903 128.614 92.4842 128.613 92.4805C128.613 92.4786 128.612 92.4774 128.612 92.4768C128.612 92.4765 128.612 92.4764 128.612 92.4764C128.612 92.4764 128.612 92.4764 128.612 92.4765C128.612 92.4765 128.612 92.4766 128.612 92.4766C128.612 92.4767 128.612 92.4767 128.612 92.4767C128.612 92.4767 128.612 92.4768 128.612 92.4768C128.612 92.4768 128.612 92.4768 128.612 92.4768C128.612 92.4768 128.612 92.4768 127.645 92.7325C126.679 92.9881 126.679 92.9881 126.679 92.9881C126.679 92.9881 126.679 92.9881 126.679 92.9881C126.679 92.9881 126.679 92.9882 126.679 92.9882C126.679 92.9882 126.679 92.9883 126.679 92.9883C126.679 92.9884 126.679 92.9885 126.679 92.9887C126.679 92.9889 126.679 92.9892 126.679 92.9895C126.679 92.9901 126.679 92.9909 126.68 92.9919C126.68 92.9938 126.681 92.9963 126.682 92.9995C126.683 93.0058 126.686 93.0146 126.689 93.0257C126.695 93.048 126.704 93.0799 126.715 93.1206L128.64 92.5768ZM134.483 101.757C131.6 99.5861 129.465 96.4125 128.655 92.6388L126.7 93.0586C127.615 97.3203 130.027 100.906 133.281 103.355L134.483 101.757ZM139.694 110.846C138.372 108.107 136.43 104.336 134.688 101.964L133.076 103.147C134.697 105.354 136.568 108.971 137.893 111.715L139.694 110.846ZM144.145 113.178C142.331 113.498 140.51 112.537 139.694 110.846L137.893 111.715C139.083 114.18 141.761 115.629 144.492 115.148L144.145 113.178ZM151.524 111.877L144.145 113.178L144.492 115.148L151.871 113.846L151.524 111.877ZM154.954 108.037C154.782 109.962 153.375 111.55 151.524 111.877L151.871 113.846C154.664 113.354 156.698 110.988 156.946 108.216L154.954 108.037ZM156.653 98.1204C155.72 101.073 155.218 105.101 154.954 108.037L156.946 108.216C157.208 105.292 157.697 101.452 158.56 98.7233L156.653 98.1204ZM159.175 91.4313C158.865 93.758 158.029 95.9551 156.77 97.8734L158.443 98.9703C159.862 96.8065 160.807 94.3259 161.158 91.696L159.175 91.4313ZM160.144 87.0021C159.161 87.1881 159.161 87.188 159.161 87.1878C159.161 87.1877 159.161 87.1876 159.161 87.1875C159.161 87.1873 159.161 87.1871 159.161 87.187C159.161 87.1867 159.161 87.1866 159.161 87.1865C159.161 87.1865 159.161 87.1869 159.161 87.1878C159.162 87.1897 159.162 87.1934 159.163 87.199C159.165 87.2102 159.169 87.2288 159.173 87.2545C159.181 87.306 159.193 87.3856 159.207 87.4905C159.235 87.7004 159.269 88.0103 159.293 88.3966C159.341 89.1717 159.346 90.2415 159.177 91.4216L161.156 91.7056C161.35 90.358 161.343 89.1469 161.289 88.2732C161.262 87.8352 161.223 87.4787 161.19 87.2282C161.173 87.1029 161.158 87.0039 161.147 86.9343C161.141 86.8994 161.137 86.8719 161.133 86.8521C161.131 86.8422 161.13 86.8342 161.129 86.8281C161.128 86.8251 161.128 86.8226 161.127 86.8206C161.127 86.8196 161.127 86.8187 161.127 86.8179C161.127 86.8175 161.127 86.8172 161.127 86.8169C161.127 86.8167 161.127 86.8165 161.127 86.8164C161.127 86.8162 161.126 86.816 160.144 87.0021ZM160.31 87.9882L160.318 87.9869L159.97 86.0173L159.963 86.0185L160.31 87.9882Z" fill="#EB436B"/>
<rect width="16" height="2" rx="1" transform="matrix(0.984808 -0.173648 0.150573 0.988599 140.56 119.903)" fill="#EB436B"/>
<rect width="16" height="2" rx="1" transform="matrix(0.984808 -0.173648 0.150573 0.988599 140.039 116.948)" fill="#EB436B"/>
<path d="M154.057 121.585L144.208 123.321L146.38 127L152.782 125.871L154.057 121.585Z" stroke="#EB436B" stroke-width="2" stroke-linecap="round" stroke-linejoin="round"/>
<path fill-rule="evenodd" clip-rule="evenodd" d="M138.925 91.759C138.218 91.8837 138.042 92.7113 138.558 93.1056C138.807 93.2954 139.065 93.487 139.324 93.6736L139.754 93.0601C140.181 92.4508 139.658 91.6299 138.925 91.759ZM140.148 94.2402L140.573 93.6336C141.511 92.2946 140.361 90.4904 138.752 90.7742C137.254 91.0383 136.689 92.9367 137.952 93.9005C138.208 94.0964 138.477 94.2964 138.751 94.4928L137.547 96.2125C137.388 96.4387 137.443 96.7505 137.669 96.9089C137.896 97.0673 138.207 97.0123 138.366 96.7861L139.575 95.0597C139.827 95.2249 140.077 95.3806 140.319 95.5206C140.705 95.7435 141.086 95.9346 141.434 96.0612C141.768 96.1824 142.138 96.2696 142.475 96.2103C143.168 96.0881 143.82 95.5274 144.366 94.9159C144.482 94.785 144.598 94.6473 144.713 94.5046C144.869 94.5996 145.025 94.6894 145.179 94.7724C145.901 95.1603 146.706 95.4642 147.399 95.342C147.78 95.2747 148.139 95.0771 148.461 94.8325C148.786 94.5851 149.103 94.2671 149.403 93.9184C149.556 93.7404 149.707 93.5515 149.855 93.3559L151.457 94.4778C151.683 94.6362 151.995 94.5812 152.153 94.355C152.312 94.1288 152.257 93.817 152.03 93.6586L150.431 92.5387C150.646 92.2138 150.85 91.8855 151.038 91.5694C151.852 90.1992 150.633 88.6792 149.155 88.9398C147.502 89.2312 147.027 91.3759 148.402 92.3386L149.035 92.7819C148.906 92.9515 148.776 93.114 148.644 93.2665C148.372 93.5833 148.106 93.8458 147.856 94.0365C147.601 94.23 147.39 94.3282 147.225 94.3572C146.893 94.4158 146.356 94.2691 145.652 93.8915C145.54 93.8309 145.426 93.766 145.31 93.6974C145.53 93.3793 145.739 93.0537 145.934 92.736C146.848 91.2445 145.509 89.5827 143.895 89.8673C142.281 90.1519 141.591 92.1714 142.96 93.2605C143.251 93.4925 143.559 93.7268 143.875 93.9505C143.79 94.0544 143.705 94.1545 143.62 94.25C143.088 94.8453 142.633 95.167 142.301 95.2255C142.229 95.2382 142.063 95.2256 141.776 95.1213C141.504 95.0224 141.179 94.8624 140.819 94.6545C140.602 94.5294 140.377 94.3896 140.148 94.2402ZM144.068 90.8521C143.194 91.0064 142.973 91.9934 143.582 92.478C143.871 92.7079 144.171 92.9356 144.474 93.1493C144.684 92.8451 144.889 92.5285 145.081 92.2137C145.488 91.55 144.943 90.6979 144.068 90.8521ZM148.975 91.5195C148.33 91.0677 148.553 90.0613 149.329 89.9246C150.057 89.7962 150.508 90.5033 150.178 91.0587C150 91.3587 149.81 91.6652 149.612 91.965L148.975 91.5195Z" fill="#EB436B"/>
<path fill-rule="evenodd" clip-rule="evenodd" d="M123.569 71.0903C123.992 70.7353 124.541 70.6925 124.795 70.9947L127.09 73.7306C127.344 74.0328 127.206 74.5655 126.783 74.9205C126.36 75.2755 125.812 75.3183 125.558 75.0161L123.262 72.2803C123.009 71.9781 123.146 71.4453 123.569 71.0903Z" fill="#FF4E79"/>
<path fill-rule="evenodd" clip-rule="evenodd" d="M117.883 77.8961C118.05 77.3697 118.498 77.0111 118.883 77.0953L122.373 77.8575C122.758 77.9417 122.935 78.4367 122.768 78.9632C122.601 79.4896 122.154 79.8482 121.768 79.764L118.279 79.0018C117.894 78.9176 117.716 78.4226 117.883 77.8961Z" fill="#FF4E79"/>
<path fill-rule="evenodd" clip-rule="evenodd" d="M131.801 67.5017C132.349 67.4288 132.805 67.6892 132.821 68.0833L132.966 71.6518C132.982 72.046 132.551 72.4247 132.004 72.4976C131.456 72.5705 131 72.3101 130.984 71.916L130.839 68.3475C130.823 67.9533 131.254 67.5747 131.801 67.5017Z" fill="#FF4E79"/>
<circle cx="102" cy="148" r="39" fill="#FFDDE5"/>
<circle cx="98" cy="139" r="35.5" stroke="#EB436B" stroke-width="3"/>
<path d="M93 149.421C93 149.421 96.25 147.487 100.15 148.132C104.05 148.776 106 152 106 152" stroke="#EB436B" stroke-width="2" stroke-linecap="round" stroke-linejoin="round"/>
<circle cx="91.5" cy="132.5" r="2.5" fill="#EB436B"/>
<path d="M81.289 122.391C81.289 122.391 84.0839 119.867 88.0409 119.742C91.9979 119.616 94.5664 122.394 94.5664 122.394" stroke="#EB436B" stroke-width="2" stroke-linecap="round" stroke-linejoin="round"/>
<circle cx="107.5" cy="134.5" r="2.5" fill="#EB436B"/>
<path d="M106 127.204C106 127.204 108.588 125.531 112.471 126.129C116.353 126.728 117 129 117 129" stroke="#EB436B" stroke-width="2" stroke-linecap="round" stroke-linejoin="round"/>
<path d="M124 163H160V142" stroke="#EB436B" stroke-width="2" stroke-linecap="round" stroke-dasharray="4 4"/>
</svg>
