<svg width="250" height="250" viewBox="0 0 250 250" fill="none" xmlns="http://www.w3.org/2000/svg">
<circle cx="125" cy="125" r="125" fill="#FFF3F6"/>
<circle cx="65" cy="109" r="2" fill="#FFC1D0"/>
<circle cx="65" cy="99" r="2" fill="#FFC1D0"/>
<circle cx="65" cy="118" r="2" fill="#FFC1D0"/>
<circle cx="65" cy="128" r="2" fill="#FFC1D0"/>
<circle cx="54" cy="109" r="2" fill="#FFC1D0"/>
<circle cx="54" cy="99" r="2" fill="#FFC1D0"/>
<circle cx="54" cy="89" r="2" fill="#FFC1D0"/>
<circle cx="54" cy="118" r="2" fill="#FFC1D0"/>
<circle cx="54" cy="128" r="2" fill="#FFC1D0"/>
<circle cx="65" cy="138" r="2" fill="#FFC1D0"/>
<circle cx="59" cy="113" r="2" fill="#FFC1D0"/>
<circle cx="59" cy="103" r="2" fill="#FFC1D0"/>
<circle cx="59" cy="123" r="2" fill="#FFC1D0"/>
<circle cx="59" cy="133" r="2" fill="#FFC1D0"/>
<circle cx="59" cy="142" r="2" fill="#FFC1D0"/>
<circle cx="72" cy="113" r="2" fill="#FFC1D0"/>
<circle cx="72" cy="103" r="2" fill="#FFC1D0"/>
<circle cx="72" cy="123" r="2" fill="#FFC1D0"/>
<circle cx="72" cy="133" r="2" fill="#FFC1D0"/>
<circle cx="72" cy="142" r="2" fill="#FFC1D0"/>
<path d="M68 98H143.5L95 174H68V98Z" fill="#FFDDE5"/>
<path d="M181.5 174H106L154.5 98H181.5V174Z" fill="#FFDDE5"/>
<circle r="2" transform="matrix(-1 -1.74552e-07 -1.75139e-07 1 166 128)" fill="white"/>
<circle r="2" transform="matrix(-1 -1.74552e-07 -1.75139e-07 1 166 118)" fill="white"/>
<circle r="2" transform="matrix(-1 -1.74552e-07 -1.75139e-07 1 166 137)" fill="white"/>
<circle r="2" transform="matrix(-1 -1.74552e-07 -1.75139e-07 1 166 147)" fill="white"/>
<circle r="2" transform="matrix(-1 -1.74552e-07 -1.75139e-07 1 177 128)" fill="white"/>
<circle r="2" transform="matrix(-1 -1.74552e-07 -1.75139e-07 1 177 118)" fill="white"/>
<circle r="2" transform="matrix(-1 -1.74552e-07 -1.75139e-07 1 177 108)" fill="white"/>
<circle r="2" transform="matrix(-1 -1.74552e-07 -1.75139e-07 1 177 137)" fill="white"/>
<circle r="2" transform="matrix(-1 -1.74552e-07 -1.75139e-07 1 177 147)" fill="white"/>
<circle r="2" transform="matrix(-1 -1.74552e-07 -1.75139e-07 1 166 157)" fill="white"/>
<circle r="2" transform="matrix(-1 -1.74552e-07 -1.75139e-07 1 172 132)" fill="white"/>
<circle r="2" transform="matrix(-1 -1.74552e-07 -1.75139e-07 1 172 122)" fill="white"/>
<circle r="2" transform="matrix(-1 -1.74552e-07 -1.75139e-07 1 172 142)" fill="white"/>
<circle r="2" transform="matrix(-1 -1.74552e-07 -1.75139e-07 1 172 152)" fill="white"/>
<circle r="2" transform="matrix(-1 -1.74552e-07 -1.75139e-07 1 172 161)" fill="white"/>
<circle r="2" transform="matrix(-1 -1.74552e-07 -1.75139e-07 1 159 132)" fill="white"/>
<circle r="2" transform="matrix(-1 -1.74552e-07 -1.75139e-07 1 159 122)" fill="white"/>
<circle r="2" transform="matrix(-1 -1.74552e-07 -1.75139e-07 1 159 142)" fill="white"/>
<circle r="2" transform="matrix(-1 -1.74552e-07 -1.75139e-07 1 159 152)" fill="white"/>
<circle r="2" transform="matrix(-1 -1.74552e-07 -1.75139e-07 1 159 161)" fill="white"/>
<path fill-rule="evenodd" clip-rule="evenodd" d="M78.4079 69C72.6598 69 68 73.5704 68 79.2083V163.792C68 169.43 72.6598 174 78.4079 174H170.592C176.34 174 181 169.43 181 163.792V79.2083C181 73.5704 176.34 69 170.592 69H78.4079ZM70.9737 79.2083C70.9737 75.1813 74.3021 71.9167 78.4079 71.9167H170.592C174.698 71.9167 178.026 75.1813 178.026 79.2083V96H70.9737V79.2083ZM70.9737 99V163.792C70.9737 167.819 74.3021 171.083 78.4079 171.083H170.592C174.698 171.083 178.026 167.819 178.026 163.792V99H70.9737Z" fill="#EB436B"/>
<circle cx="84.5" cy="85.5" r="2.5" fill="#DD1E4C"/>
<circle cx="93.5" cy="85.5" r="2.5" fill="#DD1E4C"/>
<circle cx="102.5" cy="85.5" r="2.5" fill="#DD1E4C"/>
<path d="M125.133 161C140.045 161 152 149.045 152 134.133C152 119.221 140.045 107 125.133 107C110.221 107 98 119.221 98 134.133C98 149.045 110.221 161 125.133 161Z" fill="#EB436B"/>
<path d="M127.169 122C128.306 122 129.349 122.06 130.286 122.261C131.222 122.462 132.214 122.846 132.883 123.304C133.552 123.764 133.815 124.369 134.182 125.13C134.55 125.892 134.961 126.879 134.961 128C134.961 129.21 134.468 130.063 133.922 130.87C133.375 131.676 132.655 132.442 131.584 132.957C133.056 133.383 134.236 134.24 134.961 135.304C135.686 136.37 136 137.456 136 138.957C136 140.167 135.688 141.202 135.221 142.087C134.753 142.972 134.194 143.874 133.403 144.435C132.61 144.995 131.82 145.209 130.805 145.478C129.79 145.747 128.759 146 127.688 146H116V122H127.169ZM127.169 136.348H123.013C121.522 136.348 120.156 137.675 120.156 139.217V139.217C120.193 140.531 121.287 141.834 122.494 142.087V144.174L125.091 142.087H127.169C128.632 142.087 129.723 140.721 129.766 139.217V139.217C129.766 137.675 128.66 136.348 127.169 136.348ZM123.273 138.696C123.557 138.696 123.792 138.932 123.792 139.217C123.792 139.503 123.557 139.739 123.273 139.739C122.989 139.739 122.753 139.503 122.753 139.217C122.753 138.932 122.989 138.696 123.273 138.696ZM125.091 138.696C125.375 138.696 125.61 138.932 125.61 139.217C125.61 139.503 125.375 139.739 125.091 139.739C124.807 139.739 124.571 139.503 124.571 139.217C124.571 138.932 124.807 138.696 125.091 138.696ZM126.909 138.696C127.193 138.696 127.429 138.932 127.429 139.217C127.429 139.503 127.193 139.739 126.909 139.739C126.625 139.739 126.39 139.503 126.39 139.217C126.39 138.932 126.625 138.696 126.909 138.696ZM126.13 126.174H121.195V131.652H126.649C127.586 131.652 128.384 131.579 128.987 131.13C129.589 130.683 129.766 129.791 129.766 128.783C129.766 128.223 129.707 127.836 129.506 127.478C129.306 127.12 129.062 126.897 128.727 126.696C128.393 126.495 127.864 126.252 127.429 126.174C126.994 126.095 126.599 126.174 126.13 126.174Z" fill="white"/>
</svg>
