<svg width="250" height="250" viewBox="0 0 250 250" fill="none" xmlns="http://www.w3.org/2000/svg">
<circle cx="125" cy="125" r="125" fill="#FFF3F6"/>
<circle cx="181.5" cy="158.5" r="30.5" fill="#FFEBF0"/>
<circle cx="75.5" cy="86.5" r="27.5" fill="#FFD8E2"/>
<circle cx="129.5" cy="120.5" r="46.5" fill="#FFE4EB"/>
<circle cx="152.5" cy="117.5" r="1.5" fill="white"/>
<circle cx="152.5" cy="107.5" r="1.5" fill="white"/>
<circle cx="152.5" cy="126.5" r="1.5" fill="white"/>
<circle cx="152.5" cy="135.5" r="1.5" fill="white"/>
<circle cx="141.5" cy="117.5" r="1.5" fill="white"/>
<circle cx="141.5" cy="107.5" r="1.5" fill="white"/>
<circle cx="141.5" cy="98.5" r="1.5" fill="white"/>
<circle cx="141.5" cy="126.5" r="1.5" fill="white"/>
<circle cx="141.5" cy="135.5" r="1.5" fill="white"/>
<circle cx="152.5" cy="144.5" r="1.5" fill="white"/>
<circle cx="146.5" cy="121.5" r="1.5" fill="white"/>
<circle cx="146.5" cy="112.5" r="1.5" fill="white"/>
<circle cx="146.5" cy="130.5" r="1.5" fill="white"/>
<circle cx="146.5" cy="139.5" r="1.5" fill="white"/>
<circle cx="146.5" cy="149.5" r="1.5" fill="white"/>
<circle cx="158.5" cy="121.5" r="1.5" fill="white"/>
<circle cx="158.5" cy="112.5" r="1.5" fill="white"/>
<circle cx="158.5" cy="130.5" r="1.5" fill="white"/>
<circle cx="158.5" cy="139.5" r="1.5" fill="white"/>
<circle cx="158.5" cy="149.5" r="1.5" fill="white"/>
<circle r="1.5" transform="matrix(1 0 0 -1 112.5 119.5)" fill="white"/>
<circle r="1.5" transform="matrix(1 0 0 -1 112.5 129.5)" fill="white"/>
<circle r="1.5" transform="matrix(1 0 0 -1 112.5 110.5)" fill="white"/>
<circle r="1.5" transform="matrix(1 0 0 -1 112.5 101.5)" fill="white"/>
<circle r="1.5" transform="matrix(1 0 0 -1 101.5 119.5)" fill="white"/>
<circle r="1.5" transform="matrix(1 0 0 -1 101.5 129.5)" fill="white"/>
<circle r="1.5" transform="matrix(1 0 0 -1 101.5 138.5)" fill="white"/>
<circle r="1.5" transform="matrix(1 0 0 -1 101.5 110.5)" fill="white"/>
<circle r="1.5" transform="matrix(1 0 0 -1 101.5 101.5)" fill="white"/>
<circle r="1.5" transform="matrix(1 0 0 -1 112.5 92.5)" fill="white"/>
<circle r="1.5" transform="matrix(1 0 0 -1 106.5 115.5)" fill="white"/>
<circle r="1.5" transform="matrix(1 0 0 -1 106.5 124.5)" fill="white"/>
<circle r="1.5" transform="matrix(1 0 0 -1 106.5 106.5)" fill="white"/>
<circle r="1.5" transform="matrix(1 0 0 -1 106.5 97.5)" fill="white"/>
<circle r="1.5" transform="matrix(1 0 0 -1 106.5 87.5)" fill="white"/>
<circle r="1.5" transform="matrix(1 0 0 -1 118.5 115.5)" fill="white"/>
<circle r="1.5" transform="matrix(1 0 0 -1 118.5 124.5)" fill="white"/>
<circle r="1.5" transform="matrix(1 0 0 -1 118.5 106.5)" fill="white"/>
<circle r="1.5" transform="matrix(1 0 0 -1 118.5 97.5)" fill="white"/>
<circle r="1.5" transform="matrix(1 0 0 -1 118.5 87.5)" fill="white"/>
<path d="M112.052 125.816C111.769 125.816 111.523 125.711 111.314 125.503C111.105 125.294 111 125.048 111 124.766V117.287C111 117.004 111.105 116.759 111.314 116.55C111.523 116.341 111.769 116.237 112.052 116.237H113.085C113.368 116.237 113.614 116.341 113.823 116.55C114.033 116.759 114.137 117.004 114.137 117.287V124.766C114.137 125.048 114.033 125.294 113.823 125.503C113.614 125.711 113.368 125.816 113.085 125.816H112.052ZM112.052 114.395C111.769 114.395 111.523 114.29 111.314 114.082C111.105 113.873 111 113.627 111 113.345V113.05C111 112.768 111.105 112.522 111.314 112.313C111.523 112.104 111.769 112 112.052 112H113.085C113.368 112 113.614 112.104 113.823 112.313C114.033 112.522 114.137 112.768 114.137 113.05V113.345C114.137 113.627 114.033 113.873 113.823 114.082C113.614 114.29 113.368 114.395 113.085 114.395H112.052Z" fill="#EB436B"/>
<path d="M118.429 117.766C118.257 117.901 118.072 117.919 117.875 117.821C117.691 117.723 117.599 117.563 117.599 117.342V115.997C117.599 115.297 117.881 114.745 118.447 114.339L120.311 112.976C120.865 112.571 121.498 112.368 122.212 112.368H123.375C123.658 112.368 123.904 112.473 124.113 112.682C124.322 112.89 124.427 113.136 124.427 113.418V124.766C124.427 125.048 124.322 125.294 124.113 125.503C123.904 125.711 123.658 125.816 123.375 125.816H122.212C121.929 125.816 121.683 125.711 121.474 125.503C121.265 125.294 121.16 125.048 121.16 124.766V115.813H121.142H121.123L118.429 117.766Z" fill="#EB436B"/>
<path d="M133.347 119.939C132.67 120.222 132.191 120.529 131.908 120.861C131.637 121.18 131.502 121.554 131.502 121.984C131.502 122.512 131.717 122.948 132.148 123.292C132.578 123.636 133.132 123.808 133.808 123.808C134.485 123.808 135.033 123.636 135.451 123.292C135.882 122.948 136.097 122.512 136.097 121.984C136.097 121.518 135.931 121.137 135.599 120.842C135.279 120.535 134.627 120.228 133.642 119.921C133.556 119.884 133.458 119.89 133.347 119.939ZM133.808 114.376C133.206 114.376 132.726 114.524 132.369 114.818C132.025 115.101 131.852 115.469 131.852 115.924C131.852 116.304 131.994 116.636 132.277 116.918C132.572 117.201 133.076 117.459 133.79 117.692C133.888 117.729 133.987 117.729 134.085 117.692C135.229 117.25 135.802 116.661 135.802 115.924C135.802 115.469 135.623 115.101 135.266 114.818C134.91 114.524 134.424 114.376 133.808 114.376ZM137.739 124.95C136.804 125.65 135.494 126 133.808 126C132.123 126 130.807 125.65 129.859 124.95C128.924 124.25 128.457 123.311 128.457 122.132C128.457 120.793 129.306 119.731 131.003 118.945C131.016 118.945 131.022 118.932 131.022 118.908C131.022 118.896 131.016 118.889 131.003 118.889C129.576 118.079 128.863 116.992 128.863 115.629C128.863 114.622 129.3 113.799 130.173 113.161C131.047 112.51 132.258 112.184 133.808 112.184C135.359 112.184 136.57 112.51 137.444 113.161C138.317 113.799 138.754 114.622 138.754 115.629C138.754 116.796 137.998 117.766 136.484 118.539C136.472 118.539 136.466 118.546 136.466 118.558C136.466 118.582 136.472 118.595 136.484 118.595C138.268 119.332 139.16 120.511 139.16 122.132C139.16 123.311 138.687 124.25 137.739 124.95Z" fill="#EB436B"/>
<path d="M142.065 125.816C141.782 125.816 141.536 125.711 141.327 125.503C141.13 125.294 141.031 125.048 141.031 124.766V117.287C141.031 117.004 141.13 116.759 141.327 116.55C141.536 116.341 141.782 116.237 142.065 116.237H142.821C143.117 116.237 143.363 116.341 143.559 116.55C143.769 116.746 143.879 116.992 143.892 117.287L143.91 117.434C143.91 117.446 143.916 117.453 143.929 117.453L143.965 117.416C144.765 116.507 145.725 116.053 146.844 116.053C147.964 116.053 148.77 116.372 149.262 117.011C149.754 117.637 150 118.711 150 120.234V124.766C150 125.048 149.895 125.294 149.686 125.503C149.489 125.711 149.25 125.816 148.967 125.816H148.155C147.872 125.816 147.626 125.711 147.416 125.503C147.207 125.294 147.103 125.048 147.103 124.766V120.326C147.103 119.589 147.004 119.086 146.807 118.816C146.611 118.533 146.254 118.392 145.737 118.392C145.306 118.392 144.907 118.57 144.538 118.926C144.181 119.27 144.002 119.645 144.002 120.05V124.766C144.002 125.048 143.898 125.294 143.689 125.503C143.492 125.711 143.252 125.816 142.969 125.816H142.065Z" fill="#EB436B"/>
<circle cx="129.5" cy="120.5" r="55.5" stroke="#EB436B" stroke-width="2"/>
<path d="M173 165L165.785 162.23L165.792 154.468" stroke="#EB436B" stroke-width="2" stroke-linecap="round"/>
<path d="M177 162L169.785 159.23L169.792 151.469" stroke="#EB436B" stroke-width="2" stroke-linecap="round"/>
<path d="M72 95L81 93L84 101" stroke="#EB436B" stroke-width="2" stroke-linecap="round"/>
<path d="M74 90L83 88L86 96" stroke="#EB436B" stroke-width="2" stroke-linecap="round"/>
<circle cx="86" cy="157" r="12" fill="#EB436B"/>
<path d="M85.9529 153.433L84.7812 158.151C84.7705 158.184 84.7758 158.216 84.7972 158.249C84.8293 158.271 84.8614 158.282 84.8935 158.282H87.0443C87.0764 158.282 87.1032 158.271 87.1246 158.249C87.1567 158.216 87.1674 158.184 87.1567 158.151L85.985 153.433C85.985 153.422 85.9796 153.416 85.9689 153.416C85.9582 153.416 85.9529 153.422 85.9529 153.433ZM81.6674 163C81.4427 163 81.2608 162.907 81.1216 162.721C80.9932 162.534 80.9665 162.332 81.0414 162.112L84.2836 151.888C84.3692 151.625 84.519 151.411 84.733 151.247C84.9577 151.082 85.2039 151 85.4714 151H86.5307C86.8089 151 87.0604 151.082 87.2851 151.247C87.5098 151.411 87.6596 151.625 87.7345 151.888L90.9607 162.112C91.0356 162.332 91.0035 162.534 90.8644 162.721C90.736 162.907 90.5594 163 90.3347 163H89.2593C88.9918 163 88.751 162.918 88.537 162.753C88.323 162.578 88.1839 162.359 88.1197 162.096L87.7345 160.534C87.7238 160.447 87.6703 160.403 87.574 160.403H84.3639C84.2783 160.403 84.2248 160.447 84.2034 160.534L83.8182 162.096C83.7539 162.359 83.6148 162.578 83.4008 162.753C83.1868 162.918 82.9461 163 82.6786 163H81.6674Z" fill="white"/>
<circle cx="169" cy="84" r="12" fill="#EB436B"/>
<path d="M168.324 84.7888C168.144 84.7888 167.988 84.7192 167.855 84.5799C167.722 84.4406 167.656 84.2767 167.656 84.0883V83.9531C167.656 83.7646 167.722 83.6007 167.855 83.4615C167.988 83.3222 168.144 83.2525 168.324 83.2525H168.629C168.692 83.2525 168.731 83.2197 168.746 83.1542L168.84 82.638C168.848 82.6134 168.84 82.5888 168.817 82.5642C168.801 82.5397 168.781 82.5274 168.758 82.5274H168.711C168.523 82.5274 168.363 82.4618 168.23 82.3307C168.105 82.1914 168.043 82.0235 168.043 81.8268C168.043 81.6384 168.109 81.4745 168.242 81.3352C168.375 81.1959 168.531 81.1263 168.711 81.1263H169.004C169.067 81.1263 169.106 81.0935 169.122 81.0279L169.204 80.6223C169.219 80.5568 169.192 80.524 169.122 80.524H168.383C168.203 80.524 168.047 80.4544 167.914 80.3151C167.781 80.1758 167.714 80.0119 167.714 79.8235V79.6883C167.714 79.4998 167.781 79.34 167.914 79.2089C168.047 79.0696 168.203 79 168.383 79H173.085C173.265 79 173.418 79.0696 173.543 79.2089C173.676 79.34 173.742 79.4998 173.742 79.6883V79.8235C173.742 80.0119 173.676 80.1758 173.543 80.3151C173.418 80.4544 173.265 80.524 173.085 80.524H171.033C170.963 80.524 170.92 80.5568 170.904 80.6223L170.834 81.0279C170.818 81.0935 170.845 81.1263 170.916 81.1263H172.593C172.773 81.1263 172.929 81.1959 173.062 81.3352C173.195 81.4745 173.261 81.6384 173.261 81.8268V83.1542C173.261 83.2197 173.292 83.2525 173.355 83.2525C173.527 83.2525 173.676 83.3222 173.801 83.4615C173.934 83.5926 174 83.7482 174 83.9285V84.0883C174 84.2767 173.934 84.4406 173.801 84.5799C173.668 84.7192 173.511 84.7888 173.332 84.7888H168.324ZM170.552 82.638L170.458 83.1542C170.443 83.2197 170.47 83.2525 170.541 83.2525H171.455C171.526 83.2525 171.561 83.2197 171.561 83.1542V82.638C171.561 82.5642 171.526 82.5274 171.455 82.5274H170.67C170.607 82.5274 170.568 82.5642 170.552 82.638ZM172.851 85.2927C173.031 85.2927 173.183 85.3624 173.308 85.5017C173.441 85.641 173.507 85.8048 173.507 85.9933V89.1028C173.507 89.2912 173.441 89.4551 173.308 89.5944C173.183 89.7337 173.031 89.8034 172.851 89.8034H172.03C171.936 89.8034 171.854 89.7665 171.784 89.6927C171.721 89.6272 171.69 89.5453 171.69 89.4469C171.69 89.406 171.674 89.3855 171.643 89.3855H169.731C169.7 89.3855 169.684 89.406 169.684 89.4469C169.684 89.5453 169.649 89.6272 169.579 89.6927C169.516 89.7665 169.438 89.8034 169.344 89.8034H168.617C168.437 89.8034 168.281 89.7337 168.148 89.5944C168.015 89.4551 167.949 89.2912 167.949 89.1028V85.9933C167.949 85.8048 168.015 85.641 168.148 85.5017C168.281 85.3624 168.437 85.2927 168.617 85.2927H172.851ZM171.69 87.8246V86.9151C171.69 86.8413 171.658 86.8045 171.596 86.8045H169.778C169.716 86.8045 169.684 86.8413 169.684 86.9151V87.8246C169.684 87.8901 169.716 87.9229 169.778 87.9229H171.596C171.658 87.9229 171.69 87.8901 171.69 87.8246ZM163.962 80.438C163.774 80.438 163.614 80.3724 163.481 80.2413C163.356 80.102 163.293 79.9341 163.293 79.7374C163.293 79.549 163.36 79.3851 163.493 79.2458C163.625 79.1065 163.782 79.0369 163.962 79.0369H166.635C166.815 79.0369 166.972 79.1065 167.104 79.2458C167.237 79.3851 167.304 79.549 167.304 79.7374C167.304 79.9341 167.237 80.102 167.104 80.2413C166.979 80.3724 166.823 80.438 166.635 80.438H163.962ZM166.94 80.8067C167.12 80.8067 167.276 80.8764 167.409 81.0156C167.542 81.1549 167.609 81.3188 167.609 81.5073V81.6425C167.609 81.8309 167.542 81.9948 167.409 82.1341C167.276 82.2734 167.12 82.343 166.94 82.343H163.657C163.477 82.343 163.321 82.2734 163.188 82.1341C163.063 81.9948 163 81.8309 163 81.6425V81.5073C163 81.3188 163.063 81.1549 163.188 81.0156C163.321 80.8764 163.477 80.8067 163.657 80.8067H166.94ZM164.055 84.076C163.876 84.076 163.723 84.0104 163.598 83.8793C163.473 83.7482 163.41 83.5885 163.41 83.4C163.41 83.2115 163.473 83.0518 163.598 82.9207C163.723 82.7896 163.876 82.724 164.055 82.724H166.647C166.819 82.724 166.968 82.7896 167.093 82.9207C167.226 83.0518 167.292 83.2115 167.292 83.4C167.292 83.5885 167.226 83.7482 167.093 83.8793C166.968 84.0104 166.819 84.076 166.647 84.076H164.055ZM164.055 85.8089C163.876 85.8089 163.723 85.7434 163.598 85.6123C163.473 85.473 163.41 85.3132 163.41 85.133C163.41 84.9527 163.473 84.797 163.598 84.6659C163.723 84.5266 163.876 84.457 164.055 84.457H166.647C166.819 84.457 166.968 84.5266 167.093 84.6659C167.226 84.797 167.292 84.9527 167.292 85.133C167.292 85.3132 167.226 85.473 167.093 85.6123C166.968 85.7434 166.819 85.8089 166.647 85.8089H164.055ZM163.293 89.2994V86.8782C163.293 86.6898 163.36 86.53 163.493 86.3989C163.625 86.2596 163.782 86.1899 163.962 86.1899H166.694C166.874 86.1899 167.026 86.2596 167.151 86.3989C167.284 86.53 167.351 86.6898 167.351 86.8782V88.8939C167.351 89.0823 167.284 89.2421 167.151 89.3732C167.026 89.5125 166.874 89.5821 166.694 89.5821H164.958C164.919 89.5821 164.9 89.6026 164.9 89.6436C164.9 89.7419 164.865 89.8238 164.794 89.8894C164.732 89.9631 164.654 90 164.56 90H163.962C163.782 90 163.625 89.9304 163.493 89.7911C163.36 89.6518 163.293 89.4879 163.293 89.2994ZM164.9 87.6034V88.1687C164.9 88.2425 164.935 88.2793 165.005 88.2793H165.826C165.897 88.2793 165.932 88.2425 165.932 88.1687V87.6034C165.932 87.5296 165.897 87.4927 165.826 87.4927H165.005C164.935 87.4927 164.9 87.5296 164.9 87.6034Z" fill="white"/>
</svg>
