<svg width="250" height="250" viewBox="0 0 250 250" fill="none" xmlns="http://www.w3.org/2000/svg">
<circle cx="125" cy="125" r="125" fill="#FFF3F6"/>
<rect x="78" y="82" width="113" height="104" rx="9" fill="#FFDDE5"/>
<path fill-rule="evenodd" clip-rule="evenodd" d="M80.5 72C74.701 72 70 76.701 70 82.5V169.5C70 175.299 74.701 180 80.5 180H173.5C179.299 180 184 175.299 184 169.5V82.5C184 76.701 179.299 72 173.5 72H80.5ZM73 82.5C73 78.3579 76.3579 75 80.5 75H173.5C177.642 75 181 78.3579 181 82.5V100H73V82.5ZM73 103V169.5C73 173.642 76.3579 177 80.5 177H173.5C177.642 177 181 173.642 181 169.5V103H73Z" fill="#EB436B"/>
<circle cx="84.5" cy="86.5" r="2.5" fill="#DD1E4C"/>
<circle cx="94.5" cy="86.5" r="2.5" fill="#DD1E4C"/>
<circle cx="104.5" cy="86.5" r="2.5" fill="#DD1E4C"/>
<path d="M120.038 113.895C120.464 111.747 123.536 111.747 123.962 113.895L125.049 119.378C125.207 120.173 125.827 120.793 126.622 120.951L132.105 122.038C134.253 122.464 134.253 125.536 132.105 125.962L126.622 127.049C125.827 127.207 125.207 127.827 125.049 128.622L123.962 134.105C123.536 136.253 120.464 136.253 120.038 134.105L118.951 128.622C118.793 127.827 118.173 127.207 117.378 127.049L111.895 125.962C109.747 125.536 109.747 122.464 111.895 122.038L117.378 120.951C118.173 120.793 118.793 120.173 118.951 119.378L120.038 113.895Z" fill="#EB436B"/>
<path d="M110.022 137.303C110.36 135.029 113.64 135.029 113.978 137.303L114.288 139.388C114.406 140.178 114.983 140.823 115.755 141.027L119.686 142.066C121.671 142.591 121.671 145.409 119.686 145.934L115.755 146.973C114.983 147.177 114.406 147.822 114.288 148.612L113.978 150.697C113.64 152.971 110.36 152.971 110.022 150.697L109.712 148.612C109.594 147.822 109.017 147.177 108.245 146.973L104.314 145.934C102.329 145.409 102.329 142.591 104.314 142.066L108.245 141.027C109.017 140.823 109.594 140.178 109.712 139.388L110.022 137.303Z" fill="#EB436B"/>
<path d="M136.536 150.149C136.954 147.989 140.046 147.989 140.464 150.149L141.049 153.174C141.185 153.876 141.685 154.452 142.362 154.685L146.501 156.109C148.301 156.728 148.301 159.272 146.501 159.891L142.362 161.315C141.685 161.548 141.185 162.124 141.049 162.826L140.464 165.851C140.046 168.011 136.954 168.011 136.536 165.851L135.951 162.826C135.815 162.124 135.315 161.548 134.638 161.315L130.499 159.891C128.699 159.272 128.699 156.728 130.499 156.109L134.638 154.685C135.315 154.452 135.815 153.876 135.951 153.174L136.536 150.149Z" fill="#EB436B"/>
<circle cx="167" cy="130" r="2" fill="white"/>
<circle cx="167" cy="119" r="2" fill="white"/>
<circle cx="167" cy="141" r="2" fill="white"/>
<circle cx="167" cy="152" r="2" fill="white"/>
<circle cx="154" cy="130" r="2" fill="white"/>
<circle cx="154" cy="119" r="2" fill="white"/>
<circle cx="154" cy="108" r="2" fill="white"/>
<circle cx="154" cy="141" r="2" fill="white"/>
<circle cx="154" cy="152" r="2" fill="white"/>
<circle cx="167" cy="163" r="2" fill="white"/>
<circle cx="160" cy="135" r="2" fill="white"/>
<circle cx="160" cy="124" r="2" fill="white"/>
<circle cx="160" cy="146" r="2" fill="white"/>
<circle cx="160" cy="157" r="2" fill="white"/>
<circle cx="160" cy="168" r="2" fill="white"/>
<circle cx="174" cy="135" r="2" fill="white"/>
<circle cx="174" cy="124" r="2" fill="white"/>
<circle cx="174" cy="146" r="2" fill="white"/>
<circle cx="174" cy="157" r="2" fill="white"/>
<circle cx="174" cy="168" r="2" fill="white"/>
<circle cx="167" cy="130" r="2" fill="white"/>
<circle cx="167" cy="119" r="2" fill="white"/>
<circle cx="167" cy="141" r="2" fill="white"/>
<circle cx="167" cy="152" r="2" fill="white"/>
<circle cx="154" cy="130" r="2" fill="white"/>
<circle cx="154" cy="119" r="2" fill="white"/>
<circle cx="154" cy="108" r="2" fill="white"/>
<circle cx="154" cy="141" r="2" fill="white"/>
<circle cx="154" cy="152" r="2" fill="white"/>
<circle cx="167" cy="163" r="2" fill="white"/>
<circle cx="160" cy="135" r="2" fill="white"/>
<circle cx="160" cy="124" r="2" fill="white"/>
<circle cx="160" cy="146" r="2" fill="white"/>
<circle cx="160" cy="157" r="2" fill="white"/>
<circle cx="160" cy="168" r="2" fill="white"/>
<circle cx="174" cy="135" r="2" fill="white"/>
<circle cx="174" cy="124" r="2" fill="white"/>
<circle cx="174" cy="146" r="2" fill="white"/>
<circle cx="174" cy="157" r="2" fill="white"/>
<circle cx="174" cy="168" r="2" fill="white"/>
</svg>
