<svg width="250" height="250" viewBox="0 0 250 250" fill="none" xmlns="http://www.w3.org/2000/svg">
<circle cx="125" cy="125" r="125" fill="#FFF3F6"/>
<circle cx="81" cy="81" r="2" transform="rotate(90 81 81)" fill="#FFC1D0"/>
<circle cx="92" cy="81" r="2" transform="rotate(90 92 81)" fill="#FFC1D0"/>
<circle cx="70" cy="81" r="2" transform="rotate(90 70 81)" fill="#FFC1D0"/>
<circle cx="59" cy="81" r="2" transform="rotate(90 59 81)" fill="#FFC1D0"/>
<circle cx="81" cy="68" r="2" transform="rotate(90 81 68)" fill="#FFC1D0"/>
<circle cx="92" cy="68" r="2" transform="rotate(90 92 68)" fill="#FFC1D0"/>
<circle cx="103" cy="68" r="2" transform="rotate(90 103 68)" fill="#FFC1D0"/>
<circle cx="70" cy="68" r="2" transform="rotate(90 70 68)" fill="#FFC1D0"/>
<circle cx="59" cy="68" r="2" transform="rotate(90 59 68)" fill="#FFC1D0"/>
<circle cx="48" cy="81" r="2" transform="rotate(90 48 81)" fill="#FFC1D0"/>
<circle cx="76" cy="74" r="2" transform="rotate(90 76 74)" fill="#FFC1D0"/>
<circle cx="87" cy="74" r="2" transform="rotate(90 87 74)" fill="#FFC1D0"/>
<circle cx="65" cy="74" r="2" transform="rotate(90 65 74)" fill="#FFC1D0"/>
<circle cx="54" cy="74" r="2" transform="rotate(90 54 74)" fill="#FFC1D0"/>
<circle cx="43" cy="74" r="2" transform="rotate(90 43 74)" fill="#FFC1D0"/>
<circle cx="76" cy="88" r="2" transform="rotate(90 76 88)" fill="#FFC1D0"/>
<circle cx="87" cy="88" r="2" transform="rotate(90 87 88)" fill="#FFC1D0"/>
<circle cx="65" cy="88" r="2" transform="rotate(90 65 88)" fill="#FFC1D0"/>
<circle cx="54" cy="88" r="2" transform="rotate(90 54 88)" fill="#FFC1D0"/>
<circle cx="43" cy="88" r="2" transform="rotate(90 43 88)" fill="#FFC1D0"/>
<circle cx="188" cy="173" r="2" transform="rotate(90 188 173)" fill="#FFC1D0"/>
<circle cx="199" cy="173" r="2" transform="rotate(90 199 173)" fill="#FFC1D0"/>
<circle cx="177" cy="173" r="2" transform="rotate(90 177 173)" fill="#FFC1D0"/>
<circle cx="166" cy="173" r="2" transform="rotate(90 166 173)" fill="#FFC1D0"/>
<circle cx="188" cy="160" r="2" transform="rotate(90 188 160)" fill="#FFC1D0"/>
<circle cx="199" cy="160" r="2" transform="rotate(90 199 160)" fill="#FFC1D0"/>
<circle cx="210" cy="160" r="2" transform="rotate(90 210 160)" fill="#FFC1D0"/>
<circle cx="177" cy="160" r="2" transform="rotate(90 177 160)" fill="#FFC1D0"/>
<circle cx="166" cy="160" r="2" transform="rotate(90 166 160)" fill="#FFC1D0"/>
<circle cx="155" cy="173" r="2" transform="rotate(90 155 173)" fill="#FFC1D0"/>
<circle cx="183" cy="166" r="2" transform="rotate(90 183 166)" fill="#FFC1D0"/>
<circle cx="194" cy="166" r="2" transform="rotate(90 194 166)" fill="#FFC1D0"/>
<circle cx="172" cy="166" r="2" transform="rotate(90 172 166)" fill="#FFC1D0"/>
<circle cx="161" cy="166" r="2" transform="rotate(90 161 166)" fill="#FFC1D0"/>
<circle cx="150" cy="166" r="2" transform="rotate(90 150 166)" fill="#FFC1D0"/>
<circle cx="183" cy="180" r="2" transform="rotate(90 183 180)" fill="#FFC1D0"/>
<circle cx="194" cy="180" r="2" transform="rotate(90 194 180)" fill="#FFC1D0"/>
<circle cx="172" cy="180" r="2" transform="rotate(90 172 180)" fill="#FFC1D0"/>
<circle cx="161" cy="180" r="2" transform="rotate(90 161 180)" fill="#FFC1D0"/>
<circle cx="150" cy="180" r="2" transform="rotate(90 150 180)" fill="#FFC1D0"/>
<rect x="59" y="84" width="144" height="37" rx="9" fill="#FFE4EB"/>
<rect x="54" y="79" width="142" height="37" rx="6" stroke="#EB436B" stroke-width="2"/>
<path fill-rule="evenodd" clip-rule="evenodd" d="M187 97C187 101.971 182.971 106 178 106C176.746 106 175.552 105.744 174.467 105.28L170.907 108.88C170.13 109.665 168.859 109.676 168.069 108.905C167.278 108.133 167.267 106.871 168.044 106.086L171.2 102.896C169.829 101.316 169 99.2551 169 97C169 92.0294 173.03 88 178 88C182.971 88 187 92.0294 187 97ZM176.835 102.887L181.456 98.216C182.232 97.4307 182.221 96.1687 181.431 95.3971C180.641 94.6255 179.37 94.6366 178.593 95.4218L173.319 100.754C172.494 99.7258 172 98.4206 172 97C172 93.6863 174.686 91 178 91C181.314 91 184 93.6863 184 97C184 100.314 181.314 103 178 103C177.601 103 177.212 102.961 176.835 102.887Z" fill="#EB436B"/>
<circle cx="178" cy="97" r="6" fill="white"/>
<path d="M77.2572 96.48C78.7288 96.9173 79.7537 97.44 80.3319 98.048C80.91 98.656 81.1991 99.4667 81.1991 100.48C81.1991 102.827 79.7012 104 76.7053 104C75.7488 104 74.8816 103.84 74.1037 103.52C73.862 103.424 73.6675 103.253 73.5203 103.008C73.3837 102.763 73.3153 102.496 73.3153 102.208V101.392C73.3153 101.189 73.3994 101.04 73.5676 100.944C73.7358 100.848 73.9093 100.843 74.088 100.928C74.9184 101.323 75.7383 101.52 76.5477 101.52C77.4937 101.52 77.9667 101.2 77.9667 100.56C77.9667 100.261 77.8932 100.032 77.746 99.872C77.5988 99.712 77.3308 99.568 76.9419 99.44C75.5438 99.0027 74.5347 98.4587 73.9145 97.808C73.3048 97.1467 73 96.3307 73 95.36C73 94.3147 73.3679 93.4933 74.1037 92.896C74.85 92.2987 75.9275 92 77.336 92C78.3452 92 79.2439 92.112 80.0323 92.336C80.2846 92.4107 80.4895 92.5653 80.6472 92.8C80.8049 93.024 80.8837 93.2747 80.8837 93.552V94.336C80.8837 94.5493 80.7944 94.72 80.6157 94.848C80.4475 94.9653 80.2583 94.9867 80.048 94.912C79.1125 94.6027 78.2611 94.448 77.4937 94.448C76.6318 94.448 76.2008 94.752 76.2008 95.36C76.2008 95.8933 76.5529 96.2667 77.2572 96.48Z" fill="#EB436B"/>
<path d="M89.7799 92.16C90.0216 92.16 90.2319 92.2507 90.4106 92.432C90.5893 92.6133 90.6786 92.8267 90.6786 93.072V93.808C90.6786 94.0533 90.5893 94.2667 90.4106 94.448C90.2319 94.6293 90.0216 94.72 89.7799 94.72H86.4056C86.311 94.72 86.2637 94.7627 86.2637 94.848V96.496C86.2637 96.592 86.311 96.64 86.4056 96.64H89.4645C89.7063 96.64 89.9165 96.7307 90.0952 96.912C90.2739 97.0933 90.3633 97.3067 90.3633 97.552V98.128C90.3633 98.3733 90.2739 98.5867 90.0952 98.768C89.9165 98.9493 89.7063 99.04 89.4645 99.04H86.4056C86.311 99.04 86.2637 99.0827 86.2637 99.168V101.136C86.2637 101.232 86.311 101.28 86.4056 101.28H89.7799C90.0216 101.28 90.2319 101.371 90.4106 101.552C90.5893 101.733 90.6786 101.947 90.6786 102.192V102.928C90.6786 103.173 90.5893 103.387 90.4106 103.568C90.2319 103.749 90.0216 103.84 89.7799 103.84H84.009C83.7672 103.84 83.557 103.749 83.3783 103.568C83.1996 103.387 83.1102 103.173 83.1102 102.928V93.072C83.1102 92.8267 83.1996 92.6133 83.3783 92.432C83.557 92.2507 83.7672 92.16 84.009 92.16H89.7799Z" fill="#EB436B"/>
<path d="M95.1951 98C95.1951 100.24 95.9572 101.36 97.4814 101.36C99.0056 101.36 99.7677 100.24 99.7677 98C99.7677 95.76 99.0056 94.64 97.4814 94.64C95.9572 94.64 95.1951 95.76 95.1951 98ZM93.4449 93.6C94.433 92.5333 95.7785 92 97.4814 92C99.1843 92 100.53 92.5333 101.518 93.6C102.506 94.6667 103 96.1333 103 98C103 99.8667 102.506 101.333 101.518 102.4C100.53 103.467 99.1843 104 97.4814 104C95.7785 104 94.433 103.467 93.4449 102.4C92.4568 101.333 91.9628 99.8667 91.9628 98C91.9628 96.1333 92.4568 94.6667 93.4449 93.6Z" fill="#EB436B"/>
<rect x="64" y="122" width="122" height="52" rx="4" fill="#FFE4EB" stroke="#EB436B" stroke-width="2"/>
<line x1="80" y1="137" x2="140" y2="137" stroke="#F95F84" stroke-width="2" stroke-linecap="round"/>
<line x1="80" y1="157" x2="83" y2="157" stroke="#F95F84" stroke-width="2" stroke-linecap="round"/>
<line x1="91" y1="157" x2="109" y2="157" stroke="#F95F84" stroke-width="2" stroke-linecap="round"/>
<line x1="114" y1="146" x2="119" y2="146" stroke="#F95F84" stroke-width="2" stroke-linecap="round"/>
<line x1="80" y1="146" x2="105" y2="146" stroke="#F95F84" stroke-width="2" stroke-linecap="round"/>
<line x1="149" y1="137" x2="166" y2="137" stroke="#F95F84" stroke-width="2" stroke-linecap="round"/>
</svg>
