<svg width="250" height="250" viewBox="0 0 250 250" fill="none" xmlns="http://www.w3.org/2000/svg">
<circle cx="125" cy="125" r="125" fill="#FFF3F6"/>
<rect x="61" y="64" width="113" height="107" rx="9" fill="#FFDDE5"/>
<path fill-rule="evenodd" clip-rule="evenodd" d="M80.5 72C74.701 72 70 76.701 70 82.5V169.5C70 175.299 74.701 180 80.5 180H173.5C179.299 180 184 175.299 184 169.5V82.5C184 76.701 179.299 72 173.5 72H80.5ZM73 82.5C73 78.3579 76.3579 75 80.5 75H173.5C177.642 75 181 78.3579 181 82.5V100H73V82.5ZM73 103V169.5C73 173.642 76.3579 177 80.5 177H173.5C177.642 177 181 173.642 181 169.5V103H73Z" fill="#EB436B"/>
<circle cx="84.5" cy="86.5" r="2.5" fill="#DD1E4C"/>
<circle cx="94.5" cy="86.5" r="2.5" fill="#DD1E4C"/>
<circle cx="104.5" cy="86.5" r="2.5" fill="#DD1E4C"/>
<path fill-rule="evenodd" clip-rule="evenodd" d="M72 161.464C75.9879 163.715 80.5939 165 85.5 165C100.688 165 113 152.688 113 137.5C113 122.312 100.688 110 85.5 110C80.5939 110 75.9879 111.285 72 113.536V161.464Z" fill="#EB436B"/>
<path d="M93.3947 146C94.2874 146 95.0385 145.611 95.7045 145.049H95.7753L95.9453 145.812H98V141.484C98 139.099 96.8239 138 94.7409 138C93.4798 138 92.332 138.402 91.2692 139.005L92.1478 140.573C92.9555 140.144 93.6215 139.903 94.2591 139.903C95.081 139.903 95.4211 140.265 95.4777 140.881C92.332 141.203 91 142.074 91 143.682C91 144.955 91.9069 146 93.3947 146ZM94.2591 144.151C93.7348 144.151 93.3947 143.936 93.3947 143.494C93.3947 142.958 93.9049 142.516 95.4777 142.328V143.548C95.1093 143.923 94.7692 144.151 94.2591 144.151Z" fill="white"/>
<path d="M82.5912 130.039V131.874H88.8924V130.039H82.5912ZM80 133.384V135.26H93V133.384H80ZM85.3148 132.731V136.77C85.3148 136.96 85.2265 137.015 84.9173 137.015C84.6082 137.015 83.4009 137.015 82.5617 136.974C82.9151 137.504 83.342 138.402 83.4745 139C84.6818 139 85.7123 138.973 86.5221 138.674C87.3613 138.374 87.6116 137.844 87.6116 136.838V132.731H85.3148ZM88.2299 130.039V130.433C87.7146 131.113 86.4926 132.16 85.3148 132.731C85.624 133.003 86.1835 133.547 86.4485 133.873C88.1416 133.18 89.6433 132.024 90.7622 130.977L89.3341 129.944L88.8335 130.039H88.2299ZM80.0147 127.319V130.637H82.12V129.182H90.718V130.637H92.9411V127.319H80.0147ZM84.9173 126.585C85.2854 127.088 85.6387 127.795 85.7565 128.257L88.0238 127.564C87.8618 127.101 87.479 126.462 87.0815 126L84.9173 126.585Z" fill="white"/>
<path fill-rule="evenodd" clip-rule="evenodd" d="M165.126 118.514C165.609 118.783 165.783 119.382 165.515 119.852L162.557 125.05H165.256L168.767 118.88C169.035 118.41 169.643 118.246 170.126 118.514C170.609 118.783 170.783 119.382 170.515 119.852L167.557 125.05H194.6L189.962 120.623C189.574 120.252 189.574 119.65 189.962 119.279C190.351 118.907 190.982 118.907 191.371 119.279L197.708 125.328C198.097 125.699 198.097 126.301 197.708 126.672L191.371 132.722C190.982 133.093 190.351 133.093 189.962 132.722C189.574 132.35 189.574 131.749 189.962 131.377L194.6 126.951H166.475L162.581 133.791C162.313 134.262 161.705 134.426 161.222 134.158C160.739 133.889 160.565 133.29 160.833 132.82L164.174 126.951H161.475L157.581 133.791C157.313 134.262 156.705 134.426 156.222 134.158C155.739 133.889 155.565 133.29 155.833 132.82L159.174 126.951H128.529C128.063 129.296 125.904 131.07 123.311 131.07C120.378 131.07 118 128.8 118 126C118 123.2 120.378 120.93 123.311 120.93C125.904 120.93 128.063 122.704 128.529 125.05H160.256L163.767 118.88C164.035 118.41 164.643 118.246 165.126 118.514Z" fill="#EB436B"/>
<path fill-rule="evenodd" clip-rule="evenodd" d="M191.371 142.278L197.708 148.328C198.097 148.699 198.097 149.301 197.708 149.672L191.371 155.722C190.982 156.093 190.351 156.093 189.962 155.722C189.574 155.35 189.574 154.748 189.962 154.377L194.6 149.951H167.044L162.581 157.791C162.313 158.262 161.705 158.426 161.222 158.158C160.739 157.889 160.565 157.29 160.833 156.82L164.743 149.951H162.044L157.581 157.791C157.313 158.262 156.705 158.426 156.222 158.158C155.739 157.889 155.565 157.29 155.833 156.82L159.743 149.951H128.529C128.063 152.296 125.904 154.07 123.311 154.07C120.378 154.07 118 151.8 118 149C118 146.2 120.378 143.93 123.311 143.93C125.904 143.93 128.063 145.704 128.529 148.049H160.825L163.767 142.88C164.035 142.41 164.643 142.246 165.126 142.514C165.609 142.782 165.783 143.382 165.515 143.852L163.126 148.049H165.825L168.767 142.88C169.035 142.41 169.643 142.246 170.126 142.514C170.609 142.782 170.783 143.382 170.515 143.852L168.126 148.049H194.6L189.962 143.623C189.574 143.252 189.574 142.65 189.962 142.278C190.351 141.907 190.982 141.907 191.371 142.278Z" fill="#EB436B"/>
</svg>
