<svg width="144" height="143" viewBox="0 0 144 143" fill="none" xmlns="http://www.w3.org/2000/svg">
<path d="M142.004 2.41788C141.451 2.41788 141.003 1.97014 141.003 1.41783C141.003 0.865513 141.451 0.417775 142.004 0.417778C142.556 0.417776 143.004 0.865517 143.004 1.41783C143.004 1.97014 142.556 2.41788 142.004 2.41788Z" fill="#EEB011"/>
<path d="M142.004 12.4184C141.451 12.4184 141.003 11.9706 141.003 11.4183C141.003 10.866 141.451 10.4183 142.004 10.4183C142.556 10.4183 143.004 10.866 143.004 11.4183C143.004 11.9706 142.556 12.4184 142.004 12.4184Z" fill="#EEB011"/>
<path d="M142.004 22.4189C141.451 22.4189 141.003 21.9712 141.003 21.4188C141.003 20.8665 141.451 20.4188 142.004 20.4188C142.556 20.4188 143.004 20.8665 143.004 21.4188C143.004 21.9712 142.556 22.4189 142.004 22.4189Z" fill="#EEB011"/>
<path d="M142.004 32.4194C141.451 32.4194 141.003 31.9717 141.003 31.4193C141.003 30.867 141.451 30.4193 142.004 30.4193C142.556 30.4193 143.004 30.867 143.004 31.4193C143.004 31.9717 142.556 32.4194 142.004 32.4194Z" fill="#EEB011"/>
<path d="M142.004 42.4199C141.451 42.4199 141.003 41.9722 141.003 41.4199C141.003 40.8675 141.451 40.4198 142.004 40.4198C142.556 40.4198 143.004 40.8675 143.004 41.4198C143.004 41.9722 142.556 42.4199 142.004 42.4199Z" fill="#EEB011"/>
<path d="M142.004 52.4204C141.451 52.4204 141.003 51.9727 141.003 51.4204C141.003 50.868 141.451 50.4203 142.004 50.4203C142.556 50.4203 143.004 50.868 143.004 51.4204C143.004 51.9727 142.556 52.4204 142.004 52.4204Z" fill="#EEB011"/>
<path d="M142.004 62.4209C141.451 62.4209 141.003 61.9732 141.003 61.4209C141.003 60.8686 141.451 60.4208 142.004 60.4208C142.556 60.4208 143.004 60.8685 143.004 61.4209C143.004 61.9732 142.556 62.4209 142.004 62.4209Z" fill="#EEB011"/>
<path d="M142.004 72.4214C141.451 72.4214 141.003 71.9737 141.003 71.4214C141.003 70.8691 141.451 70.4213 142.004 70.4213C142.556 70.4213 143.004 70.8691 143.004 71.4214C143.004 71.9737 142.556 72.4214 142.004 72.4214Z" fill="#EEB011"/>
<path d="M142.004 82.4219C141.451 82.4219 141.003 81.9742 141.003 81.4219C141.003 80.8696 141.451 80.4218 142.004 80.4218C142.556 80.4218 143.004 80.8696 143.004 81.4219C143.004 81.9742 142.556 82.4219 142.004 82.4219Z" fill="#EEB011"/>
<path d="M142.004 92.4224C141.451 92.4224 141.003 91.9747 141.003 91.4224C141.003 90.8701 141.451 90.4223 142.004 90.4223C142.556 90.4223 143.004 90.8701 143.004 91.4224C143.004 91.9747 142.556 92.4224 142.004 92.4224Z" fill="#EEB011"/>
<path d="M142.004 102.423C141.451 102.423 141.003 101.975 141.003 101.423C141.003 100.871 141.451 100.423 142.004 100.423C142.556 100.423 143.004 100.871 143.004 101.423C143.004 101.975 142.556 102.423 142.004 102.423Z" fill="#EEB011"/>
<path d="M142.004 112.423C141.451 112.423 141.003 111.976 141.003 111.423C141.003 110.871 141.451 110.423 142.004 110.423C142.556 110.423 143.004 110.871 143.004 111.423C143.004 111.976 142.556 112.423 142.004 112.423Z" fill="#EEB011"/>
<path d="M142.004 122.424C141.451 122.424 141.003 121.976 141.003 121.424C141.003 120.872 141.451 120.424 142.004 120.424C142.556 120.424 143.004 120.872 143.004 121.424C143.004 121.976 142.556 122.424 142.004 122.424Z" fill="#EEB011"/>
<path d="M142.004 132.424C141.451 132.424 141.003 131.977 141.003 131.424C141.003 130.872 141.451 130.424 142.004 130.424C142.556 130.424 143.004 130.872 143.004 131.424C143.004 131.977 142.556 132.424 142.004 132.424Z" fill="#EEB011"/>
<path d="M142.004 142.425C141.451 142.425 141.003 141.977 141.003 141.425C141.003 140.873 141.451 140.425 142.004 140.425C142.556 140.425 143.004 140.873 143.004 141.425C143.004 141.977 142.556 142.425 142.004 142.425Z" fill="#EEB011"/>
<path d="M132.003 2.41788C131.451 2.41788 131.003 1.97014 131.003 1.41783C131.003 0.865517 131.451 0.417779 132.003 0.417777C132.555 0.417775 133.003 0.865516 133.003 1.41783C133.003 1.97014 132.555 2.41788 132.003 2.41788Z" fill="#EEB011"/>
<path d="M132.003 12.4184C131.451 12.4184 131.003 11.9706 131.003 11.4183C131.003 10.866 131.451 10.4183 132.003 10.4183C132.555 10.4183 133.003 10.866 133.003 11.4183C133.003 11.9706 132.555 12.4184 132.003 12.4184Z" fill="#EEB011"/>
<path d="M132.003 22.4189C131.451 22.4189 131.003 21.9712 131.003 21.4188C131.003 20.8665 131.451 20.4188 132.003 20.4188C132.555 20.4188 133.003 20.8665 133.003 21.4188C133.003 21.9712 132.555 22.4189 132.003 22.4189Z" fill="#EEB011"/>
<path d="M132.003 32.4194C131.451 32.4194 131.003 31.9717 131.003 31.4193C131.003 30.867 131.451 30.4193 132.003 30.4193C132.555 30.4193 133.003 30.867 133.003 31.4193C133.003 31.9717 132.555 32.4194 132.003 32.4194Z" fill="#EEB011"/>
<path d="M132.003 42.4199C131.451 42.4199 131.003 41.9722 131.003 41.4199C131.003 40.8675 131.451 40.4198 132.003 40.4198C132.555 40.4198 133.003 40.8675 133.003 41.4199C133.003 41.9722 132.555 42.4199 132.003 42.4199Z" fill="#EEB011"/>
<path d="M132.003 52.4204C131.451 52.4204 131.003 51.9727 131.003 51.4204C131.003 50.868 131.451 50.4203 132.003 50.4203C132.555 50.4203 133.003 50.868 133.003 51.4204C133.003 51.9727 132.555 52.4204 132.003 52.4204Z" fill="#EEB011"/>
<path d="M132.003 62.4209C131.451 62.4209 131.003 61.9732 131.003 61.4209C131.003 60.8685 131.451 60.4208 132.003 60.4208C132.555 60.4208 133.003 60.8685 133.003 61.4209C133.003 61.9732 132.555 62.4209 132.003 62.4209Z" fill="#EEB011"/>
<path d="M132.003 72.4214C131.451 72.4214 131.003 71.9737 131.003 71.4214C131.003 70.8691 131.451 70.4213 132.003 70.4213C132.555 70.4213 133.003 70.8691 133.003 71.4214C133.003 71.9737 132.555 72.4214 132.003 72.4214Z" fill="#EEB011"/>
<path d="M132.003 82.4219C131.451 82.4219 131.003 81.9742 131.003 81.4219C131.003 80.8696 131.451 80.4218 132.003 80.4218C132.555 80.4218 133.003 80.8696 133.003 81.4219C133.003 81.9742 132.555 82.4219 132.003 82.4219Z" fill="#EEB011"/>
<path d="M132.003 92.4224C131.451 92.4224 131.003 91.9747 131.003 91.4224C131.003 90.8701 131.451 90.4223 132.003 90.4223C132.555 90.4223 133.003 90.8701 133.003 91.4224C133.003 91.9747 132.555 92.4224 132.003 92.4224Z" fill="#EEB011"/>
<path d="M132.003 102.423C131.451 102.423 131.003 101.975 131.003 101.423C131.003 100.871 131.451 100.423 132.003 100.423C132.555 100.423 133.003 100.871 133.003 101.423C133.003 101.975 132.555 102.423 132.003 102.423Z" fill="#EEB011"/>
<path d="M132.003 112.423C131.451 112.423 131.003 111.976 131.003 111.423C131.003 110.871 131.451 110.423 132.003 110.423C132.555 110.423 133.003 110.871 133.003 111.423C133.003 111.976 132.555 112.423 132.003 112.423Z" fill="#EEB011"/>
<path d="M132.003 122.424C131.451 122.424 131.003 121.976 131.003 121.424C131.003 120.872 131.451 120.424 132.003 120.424C132.555 120.424 133.003 120.872 133.003 121.424C133.003 121.976 132.555 122.424 132.003 122.424Z" fill="#EEB011"/>
<path d="M132.003 132.424C131.451 132.424 131.003 131.977 131.003 131.424C131.003 130.872 131.451 130.424 132.003 130.424C132.555 130.424 133.003 130.872 133.003 131.424C133.003 131.977 132.555 132.424 132.003 132.424Z" fill="#EEB011"/>
<path d="M132.003 142.425C131.451 142.425 131.003 141.977 131.003 141.425C131.003 140.873 131.451 140.425 132.003 140.425C132.555 140.425 133.003 140.873 133.003 141.425C133.003 141.977 132.555 142.425 132.003 142.425Z" fill="#EEB011"/>
<path d="M122.003 2.41788C121.45 2.41788 121.002 1.97014 121.002 1.41783C121.002 0.865516 121.45 0.417778 122.003 0.417776C122.555 0.417774 123.003 0.865516 123.003 1.41783C123.003 1.97014 122.555 2.41788 122.003 2.41788Z" fill="#EEB011"/>
<path d="M122.003 12.4184C121.45 12.4184 121.002 11.9706 121.002 11.4183C121.002 10.866 121.45 10.4183 122.003 10.4183C122.555 10.4183 123.003 10.866 123.003 11.4183C123.003 11.9706 122.555 12.4184 122.003 12.4184Z" fill="#EEB011"/>
<path d="M122.003 22.4189C121.45 22.4189 121.002 21.9712 121.002 21.4188C121.002 20.8665 121.45 20.4188 122.003 20.4188C122.555 20.4188 123.003 20.8665 123.003 21.4188C123.003 21.9712 122.555 22.4189 122.003 22.4189Z" fill="#EEB011"/>
<path d="M122.003 32.4194C121.45 32.4194 121.002 31.9717 121.002 31.4193C121.002 30.867 121.45 30.4193 122.003 30.4193C122.555 30.4193 123.003 30.867 123.003 31.4193C123.003 31.9717 122.555 32.4194 122.003 32.4194Z" fill="#EEB011"/>
<path d="M122.003 42.4199C121.45 42.4199 121.002 41.9722 121.002 41.4199C121.002 40.8675 121.45 40.4198 122.003 40.4198C122.555 40.4198 123.003 40.8675 123.003 41.4199C123.003 41.9722 122.555 42.4199 122.003 42.4199Z" fill="#EEB011"/>
<path d="M122.003 52.4204C121.45 52.4204 121.002 51.9727 121.002 51.4204C121.002 50.868 121.45 50.4203 122.003 50.4203C122.555 50.4203 123.003 50.868 123.003 51.4204C123.003 51.9727 122.555 52.4204 122.003 52.4204Z" fill="#EEB011"/>
<path d="M122.003 62.4209C121.45 62.4209 121.002 61.9732 121.002 61.4209C121.002 60.8686 121.45 60.4208 122.003 60.4208C122.555 60.4208 123.003 60.8686 123.003 61.4209C123.003 61.9732 122.555 62.4209 122.003 62.4209Z" fill="#EEB011"/>
<path d="M122.003 72.4214C121.45 72.4214 121.002 71.9737 121.002 71.4214C121.002 70.8691 121.45 70.4213 122.003 70.4213C122.555 70.4213 123.003 70.8691 123.003 71.4214C123.003 71.9737 122.555 72.4214 122.003 72.4214Z" fill="#EEB011"/>
<path d="M122.003 82.4219C121.45 82.4219 121.002 81.9742 121.002 81.4219C121.002 80.8696 121.45 80.4218 122.003 80.4218C122.555 80.4218 123.003 80.8696 123.003 81.4219C123.003 81.9742 122.555 82.4219 122.003 82.4219Z" fill="#EEB011"/>
<path d="M122.003 92.4224C121.45 92.4224 121.002 91.9747 121.002 91.4224C121.002 90.8701 121.45 90.4223 122.003 90.4223C122.555 90.4223 123.003 90.8701 123.003 91.4224C123.003 91.9747 122.555 92.4224 122.003 92.4224Z" fill="#EEB011"/>
<path d="M122.003 102.423C121.45 102.423 121.002 101.975 121.002 101.423C121.002 100.871 121.45 100.423 122.003 100.423C122.555 100.423 123.003 100.871 123.003 101.423C123.003 101.975 122.555 102.423 122.003 102.423Z" fill="#EEB011"/>
<path d="M122.003 112.423C121.45 112.423 121.002 111.976 121.002 111.423C121.002 110.871 121.45 110.423 122.003 110.423C122.555 110.423 123.003 110.871 123.003 111.423C123.003 111.976 122.555 112.423 122.003 112.423Z" fill="#EEB011"/>
<path d="M122.003 122.424C121.45 122.424 121.002 121.976 121.002 121.424C121.002 120.872 121.45 120.424 122.003 120.424C122.555 120.424 123.003 120.872 123.003 121.424C123.003 121.976 122.555 122.424 122.003 122.424Z" fill="#EEB011"/>
<path d="M122.003 132.424C121.45 132.424 121.002 131.977 121.002 131.424C121.002 130.872 121.45 130.424 122.003 130.424C122.555 130.424 123.003 130.872 123.003 131.424C123.003 131.977 122.555 132.424 122.003 132.424Z" fill="#EEB011"/>
<path d="M122.003 142.425C121.45 142.425 121.002 141.977 121.002 141.425C121.002 140.873 121.45 140.425 122.003 140.425C122.555 140.425 123.003 140.873 123.003 141.425C123.003 141.977 122.555 142.425 122.003 142.425Z" fill="#EEB011"/>
<path d="M112.002 2.41788C111.45 2.41788 111.002 1.97014 111.002 1.41782C111.002 0.865515 111.45 0.417776 112.002 0.417775C112.554 0.417778 113.002 0.865514 113.002 1.41783C113.002 1.97014 112.554 2.41788 112.002 2.41788Z" fill="#EEB011"/>
<path d="M112.002 12.4184C111.45 12.4184 111.002 11.9706 111.002 11.4183C111.002 10.866 111.45 10.4183 112.002 10.4183C112.554 10.4183 113.002 10.866 113.002 11.4183C113.002 11.9706 112.554 12.4184 112.002 12.4184Z" fill="#EEB011"/>
<path d="M112.002 22.4189C111.45 22.4189 111.002 21.9712 111.002 21.4188C111.002 20.8665 111.45 20.4188 112.002 20.4188C112.554 20.4188 113.002 20.8665 113.002 21.4188C113.002 21.9712 112.554 22.4189 112.002 22.4189Z" fill="#EEB011"/>
<path d="M112.002 32.4194C111.45 32.4194 111.002 31.9717 111.002 31.4193C111.002 30.867 111.45 30.4193 112.002 30.4193C112.554 30.4193 113.002 30.867 113.002 31.4193C113.002 31.9717 112.554 32.4194 112.002 32.4194Z" fill="#EEB011"/>
<path d="M112.002 42.4199C111.45 42.4199 111.002 41.9722 111.002 41.4199C111.002 40.8675 111.45 40.4198 112.002 40.4198C112.554 40.4198 113.002 40.8675 113.002 41.4199C113.002 41.9722 112.554 42.4199 112.002 42.4199Z" fill="#EEB011"/>
<path d="M112.002 52.4204C111.45 52.4204 111.002 51.9727 111.002 51.4204C111.002 50.868 111.45 50.4203 112.002 50.4203C112.554 50.4203 113.002 50.868 113.002 51.4204C113.002 51.9727 112.554 52.4204 112.002 52.4204Z" fill="#EEB011"/>
<path d="M112.002 62.4209C111.45 62.4209 111.002 61.9732 111.002 61.4209C111.002 60.8686 111.45 60.4208 112.002 60.4208C112.554 60.4208 113.002 60.8685 113.002 61.4209C113.002 61.9732 112.554 62.4209 112.002 62.4209Z" fill="#EEB011"/>
<path d="M112.002 72.4214C111.45 72.4214 111.002 71.9737 111.002 71.4214C111.002 70.8691 111.45 70.4213 112.002 70.4213C112.554 70.4213 113.002 70.8691 113.002 71.4214C113.002 71.9737 112.554 72.4214 112.002 72.4214Z" fill="#EEB011"/>
<path d="M112.002 82.4219C111.45 82.4219 111.002 81.9742 111.002 81.4219C111.002 80.8696 111.45 80.4218 112.002 80.4218C112.554 80.4218 113.002 80.8696 113.002 81.4219C113.002 81.9742 112.554 82.4219 112.002 82.4219Z" fill="#EEB011"/>
<path d="M112.002 92.4224C111.45 92.4224 111.002 91.9747 111.002 91.4224C111.002 90.8701 111.45 90.4223 112.002 90.4223C112.554 90.4223 113.002 90.8701 113.002 91.4224C113.002 91.9747 112.554 92.4224 112.002 92.4224Z" fill="#EEB011"/>
<path d="M112.002 102.423C111.45 102.423 111.002 101.975 111.002 101.423C111.002 100.871 111.45 100.423 112.002 100.423C112.554 100.423 113.002 100.871 113.002 101.423C113.002 101.975 112.554 102.423 112.002 102.423Z" fill="#EEB011"/>
<path d="M112.002 112.423C111.45 112.423 111.002 111.976 111.002 111.423C111.002 110.871 111.45 110.423 112.002 110.423C112.554 110.423 113.002 110.871 113.002 111.423C113.002 111.976 112.554 112.423 112.002 112.423Z" fill="#EEB011"/>
<path d="M112.002 122.424C111.45 122.424 111.002 121.976 111.002 121.424C111.002 120.872 111.45 120.424 112.002 120.424C112.554 120.424 113.002 120.872 113.002 121.424C113.002 121.976 112.554 122.424 112.002 122.424Z" fill="#EEB011"/>
<path d="M112.002 132.424C111.45 132.424 111.002 131.977 111.002 131.424C111.002 130.872 111.45 130.424 112.002 130.424C112.554 130.424 113.002 130.872 113.002 131.424C113.002 131.977 112.554 132.424 112.002 132.424Z" fill="#EEB011"/>
<path d="M112.002 142.425C111.45 142.425 111.002 141.977 111.002 141.425C111.002 140.873 111.45 140.425 112.002 140.425C112.554 140.425 113.002 140.873 113.002 141.425C113.002 141.977 112.554 142.425 112.002 142.425Z" fill="#EEB011"/>
<path d="M102.002 2.41788C101.449 2.41788 101.001 1.97014 101.001 1.41782C101.001 0.865514 101.449 0.417776 102.002 0.417774C102.554 0.417778 103.002 0.865514 103.002 1.41783C103.002 1.97014 102.554 2.41788 102.002 2.41788Z" fill="#EEB011"/>
<path d="M102.002 12.4184C101.449 12.4184 101.001 11.9706 101.001 11.4183C101.001 10.866 101.449 10.4183 102.002 10.4183C102.554 10.4183 103.002 10.866 103.002 11.4183C103.002 11.9706 102.554 12.4184 102.002 12.4184Z" fill="#EEB011"/>
<path d="M102.002 22.4189C101.449 22.4189 101.001 21.9712 101.001 21.4188C101.001 20.8665 101.449 20.4188 102.002 20.4188C102.554 20.4188 103.002 20.8665 103.002 21.4188C103.002 21.9712 102.554 22.4189 102.002 22.4189Z" fill="#EEB011"/>
<path d="M102.002 32.4194C101.449 32.4194 101.001 31.9717 101.001 31.4193C101.001 30.867 101.449 30.4193 102.002 30.4193C102.554 30.4193 103.002 30.867 103.002 31.4193C103.002 31.9717 102.554 32.4194 102.002 32.4194Z" fill="#EEB011"/>
<path d="M102.002 42.4199C101.449 42.4199 101.001 41.9722 101.001 41.4199C101.001 40.8675 101.449 40.4198 102.002 40.4198C102.554 40.4198 103.002 40.8675 103.002 41.4199C103.002 41.9722 102.554 42.4199 102.002 42.4199Z" fill="#EEB011"/>
<path d="M102.002 52.4204C101.449 52.4204 101.001 51.9727 101.001 51.4204C101.001 50.868 101.449 50.4203 102.002 50.4203C102.554 50.4203 103.002 50.868 103.002 51.4204C103.002 51.9727 102.554 52.4204 102.002 52.4204Z" fill="#EEB011"/>
<path d="M102.002 62.4209C101.449 62.4209 101.001 61.9732 101.001 61.4209C101.001 60.8685 101.449 60.4208 102.002 60.4208C102.554 60.4208 103.002 60.8685 103.002 61.4209C103.002 61.9732 102.554 62.4209 102.002 62.4209Z" fill="#EEB011"/>
<path d="M102.002 72.4214C101.449 72.4214 101.001 71.9737 101.001 71.4214C101.001 70.8691 101.449 70.4213 102.002 70.4213C102.554 70.4213 103.002 70.8691 103.002 71.4214C103.002 71.9737 102.554 72.4214 102.002 72.4214Z" fill="#EEB011"/>
<path d="M102.002 82.4219C101.449 82.4219 101.001 81.9742 101.001 81.4219C101.001 80.8696 101.449 80.4218 102.002 80.4218C102.554 80.4218 103.002 80.8696 103.002 81.4219C103.002 81.9742 102.554 82.4219 102.002 82.4219Z" fill="#EEB011"/>
<path d="M102.002 92.4224C101.449 92.4224 101.001 91.9747 101.001 91.4224C101.001 90.8701 101.449 90.4223 102.002 90.4223C102.554 90.4223 103.002 90.8701 103.002 91.4224C103.002 91.9747 102.554 92.4224 102.002 92.4224Z" fill="#EEB011"/>
<path d="M102.002 102.423C101.449 102.423 101.001 101.975 101.001 101.423C101.001 100.871 101.449 100.423 102.002 100.423C102.554 100.423 103.002 100.871 103.002 101.423C103.002 101.975 102.554 102.423 102.002 102.423Z" fill="#EEB011"/>
<path d="M102.002 112.423C101.449 112.423 101.001 111.976 101.001 111.423C101.001 110.871 101.449 110.423 102.002 110.423C102.554 110.423 103.002 110.871 103.002 111.423C103.002 111.976 102.554 112.423 102.002 112.423Z" fill="#EEB011"/>
<path d="M102.002 122.424C101.449 122.424 101.001 121.976 101.001 121.424C101.001 120.872 101.449 120.424 102.002 120.424C102.554 120.424 103.002 120.872 103.002 121.424C103.002 121.976 102.554 122.424 102.002 122.424Z" fill="#EEB011"/>
<path d="M102.002 132.424C101.449 132.424 101.001 131.977 101.001 131.424C101.001 130.872 101.449 130.424 102.002 130.424C102.554 130.424 103.002 130.872 103.002 131.424C103.002 131.977 102.554 132.424 102.002 132.424Z" fill="#EEB011"/>
<path d="M102.002 142.425C101.449 142.425 101.001 141.977 101.001 141.425C101.001 140.873 101.449 140.425 102.002 140.425C102.554 140.425 103.002 140.873 103.002 141.425C103.002 141.977 102.554 142.425 102.002 142.425Z" fill="#EEB011"/>
<path d="M92.001 2.41788C91.4487 2.41788 91.001 1.97014 91.001 1.41783C91.001 0.865514 91.4487 0.417775 92.001 0.417775C92.5533 0.417778 93.0011 0.865519 93.0011 1.41783C93.0011 1.97014 92.5533 2.41788 92.001 2.41788Z" fill="#EEB011"/>
<path d="M92.001 12.4184C91.4487 12.4184 91.001 11.9706 91.001 11.4183C91.001 10.866 91.4487 10.4183 92.001 10.4183C92.5533 10.4183 93.0011 10.866 93.0011 11.4183C93.0011 11.9706 92.5533 12.4184 92.001 12.4184Z" fill="#EEB011"/>
<path d="M92.001 22.4189C91.4487 22.4189 91.001 21.9712 91.001 21.4188C91.001 20.8665 91.4487 20.4188 92.001 20.4188C92.5533 20.4188 93.0011 20.8665 93.0011 21.4188C93.0011 21.9712 92.5533 22.4189 92.001 22.4189Z" fill="#EEB011"/>
<path d="M92.001 32.4194C91.4487 32.4194 91.001 31.9717 91.001 31.4193C91.001 30.867 91.4487 30.4193 92.001 30.4193C92.5533 30.4193 93.0011 30.867 93.0011 31.4193C93.0011 31.9717 92.5533 32.4194 92.001 32.4194Z" fill="#EEB011"/>
<path d="M92.001 42.4199C91.4487 42.4199 91.001 41.9722 91.001 41.4199C91.001 40.8675 91.4487 40.4198 92.001 40.4198C92.5533 40.4198 93.0011 40.8675 93.0011 41.4199C93.0011 41.9722 92.5533 42.4199 92.001 42.4199Z" fill="#EEB011"/>
<path d="M92.001 52.4204C91.4487 52.4204 91.001 51.9727 91.001 51.4204C91.001 50.868 91.4487 50.4203 92.001 50.4203C92.5533 50.4203 93.0011 50.868 93.0011 51.4204C93.0011 51.9727 92.5533 52.4204 92.001 52.4204Z" fill="#EEB011"/>
<path d="M92.001 62.4209C91.4487 62.4209 91.001 61.9732 91.001 61.4209C91.001 60.8685 91.4487 60.4208 92.001 60.4208C92.5533 60.4208 93.0011 60.8686 93.0011 61.4209C93.0011 61.9732 92.5533 62.4209 92.001 62.4209Z" fill="#EEB011"/>
<path d="M92.001 72.4214C91.4487 72.4214 91.001 71.9737 91.001 71.4214C91.001 70.8691 91.4487 70.4213 92.001 70.4213C92.5533 70.4213 93.0011 70.8691 93.0011 71.4214C93.0011 71.9737 92.5533 72.4214 92.001 72.4214Z" fill="#EEB011"/>
<path d="M92.001 82.4219C91.4487 82.4219 91.001 81.9742 91.001 81.4219C91.001 80.8696 91.4487 80.4218 92.001 80.4218C92.5533 80.4218 93.0011 80.8696 93.0011 81.4219C93.0011 81.9742 92.5533 82.4219 92.001 82.4219Z" fill="#EEB011"/>
<path d="M92.001 92.4224C91.4487 92.4224 91.001 91.9747 91.001 91.4224C91.001 90.8701 91.4487 90.4223 92.001 90.4223C92.5533 90.4223 93.0011 90.8701 93.0011 91.4224C93.0011 91.9747 92.5533 92.4224 92.001 92.4224Z" fill="#EEB011"/>
<path d="M92.001 102.423C91.4487 102.423 91.001 101.975 91.001 101.423C91.0009 100.871 91.4487 100.423 92.001 100.423C92.5533 100.423 93.0011 100.871 93.0011 101.423C93.0011 101.975 92.5533 102.423 92.001 102.423Z" fill="#EEB011"/>
<path d="M92.001 112.423C91.4487 112.423 91.001 111.976 91.001 111.423C91.001 110.871 91.4487 110.423 92.001 110.423C92.5533 110.423 93.0011 110.871 93.0011 111.423C93.0011 111.976 92.5533 112.423 92.001 112.423Z" fill="#EEB011"/>
<path d="M92.001 122.424C91.4487 122.424 91.001 121.976 91.001 121.424C91.001 120.872 91.4487 120.424 92.001 120.424C92.5533 120.424 93.0011 120.872 93.0011 121.424C93.0011 121.976 92.5533 122.424 92.001 122.424Z" fill="#EEB011"/>
<path d="M92.001 132.424C91.4487 132.424 91.001 131.977 91.001 131.424C91.001 130.872 91.4487 130.424 92.001 130.424C92.5533 130.424 93.0011 130.872 93.0011 131.424C93.0011 131.977 92.5533 132.424 92.001 132.424Z" fill="#EEB011"/>
<path d="M92.001 142.425C91.4487 142.425 91.001 141.977 91.001 141.425C91.001 140.873 91.4487 140.425 92.001 140.425C92.5533 140.425 93.0011 140.873 93.0011 141.425C93.0011 141.977 92.5533 142.425 92.001 142.425Z" fill="#EEB011"/>
<path d="M82.0005 2.41788C81.4482 2.41788 81.0005 1.97014 81.0005 1.41783C81.0005 0.865516 81.4482 0.417778 82.0005 0.417775C82.5528 0.417775 83.0006 0.865514 83.0006 1.41783C83.0006 1.97014 82.5528 2.41788 82.0005 2.41788Z" fill="#EEB011"/>
<path d="M82.0005 12.4184C81.4482 12.4184 81.0005 11.9706 81.0005 11.4183C81.0005 10.866 81.4482 10.4183 82.0005 10.4183C82.5528 10.4183 83.0006 10.866 83.0006 11.4183C83.0006 11.9706 82.5528 12.4184 82.0005 12.4184Z" fill="#EEB011"/>
<path d="M82.0005 22.4189C81.4482 22.4189 81.0005 21.9712 81.0005 21.4188C81.0005 20.8665 81.4482 20.4188 82.0005 20.4188C82.5528 20.4188 83.0006 20.8665 83.0006 21.4188C83.0006 21.9712 82.5528 22.4189 82.0005 22.4189Z" fill="#EEB011"/>
<path d="M82.0005 32.4194C81.4482 32.4194 81.0005 31.9717 81.0005 31.4193C81.0005 30.867 81.4482 30.4193 82.0005 30.4193C82.5528 30.4193 83.0006 30.867 83.0006 31.4193C83.0006 31.9717 82.5528 32.4194 82.0005 32.4194Z" fill="#EEB011"/>
<path d="M82.0005 42.4199C81.4482 42.4199 81.0005 41.9722 81.0005 41.4199C81.0005 40.8675 81.4482 40.4198 82.0005 40.4198C82.5528 40.4198 83.0006 40.8675 83.0006 41.4198C83.0006 41.9722 82.5528 42.4199 82.0005 42.4199Z" fill="#EEB011"/>
<path d="M82.0005 52.4204C81.4482 52.4204 81.0005 51.9727 81.0005 51.4204C81.0005 50.868 81.4482 50.4203 82.0005 50.4203C82.5528 50.4203 83.0006 50.868 83.0006 51.4204C83.0006 51.9727 82.5528 52.4204 82.0005 52.4204Z" fill="#EEB011"/>
<path d="M82.0005 62.4209C81.4482 62.4209 81.0005 61.9732 81.0005 61.4209C81.0005 60.8685 81.4482 60.4208 82.0005 60.4208C82.5528 60.4208 83.0006 60.8686 83.0006 61.4209C83.0006 61.9732 82.5528 62.4209 82.0005 62.4209Z" fill="#EEB011"/>
<path d="M82.0005 72.4214C81.4482 72.4214 81.0005 71.9737 81.0005 71.4214C81.0005 70.8691 81.4482 70.4213 82.0005 70.4213C82.5528 70.4213 83.0006 70.8691 83.0006 71.4214C83.0006 71.9737 82.5528 72.4214 82.0005 72.4214Z" fill="#EEB011"/>
<path d="M82.0005 82.4219C81.4482 82.4219 81.0005 81.9742 81.0005 81.4219C81.0005 80.8696 81.4482 80.4218 82.0005 80.4218C82.5528 80.4218 83.0006 80.8696 83.0006 81.4219C83.0006 81.9742 82.5528 82.4219 82.0005 82.4219Z" fill="#EEB011"/>
<path d="M82.0005 92.4224C81.4482 92.4224 81.0005 91.9747 81.0005 91.4224C81.0005 90.8701 81.4482 90.4223 82.0005 90.4223C82.5528 90.4223 83.0006 90.8701 83.0006 91.4224C83.0006 91.9747 82.5528 92.4224 82.0005 92.4224Z" fill="#EEB011"/>
<path d="M82.0005 102.423C81.4482 102.423 81.0005 101.975 81.0005 101.423C81.0005 100.871 81.4482 100.423 82.0005 100.423C82.5528 100.423 83.0006 100.871 83.0006 101.423C83.0006 101.975 82.5528 102.423 82.0005 102.423Z" fill="#EEB011"/>
<path d="M82.0005 112.423C81.4482 112.423 81.0005 111.976 81.0004 111.423C81.0004 110.871 81.4482 110.423 82.0005 110.423C82.5528 110.423 83.0006 110.871 83.0006 111.423C83.0005 111.976 82.5528 112.423 82.0005 112.423Z" fill="#EEB011"/>
<path d="M82.0005 122.424C81.4482 122.424 81.0005 121.976 81.0005 121.424C81.0005 120.872 81.4482 120.424 82.0005 120.424C82.5528 120.424 83.0006 120.872 83.0006 121.424C83.0006 121.976 82.5528 122.424 82.0005 122.424Z" fill="#EEB011"/>
<path d="M82.0005 132.424C81.4482 132.424 81.0005 131.977 81.0005 131.424C81.0005 130.872 81.4482 130.424 82.0005 130.424C82.5528 130.424 83.0006 130.872 83.0006 131.424C83.0006 131.977 82.5528 132.424 82.0005 132.424Z" fill="#EEB011"/>
<path d="M82.0005 142.425C81.4482 142.425 81.0005 141.977 81.0005 141.425C81.0005 140.873 81.4482 140.425 82.0005 140.425C82.5528 140.425 83.0006 140.873 83.0006 141.425C83.0006 141.977 82.5528 142.425 82.0005 142.425Z" fill="#EEB011"/>
<path d="M72 2.41788C71.4477 2.41788 70.9999 1.97014 71 1.41783C70.9999 0.865516 71.4477 0.417775 72 0.417778C72.5523 0.417775 73.0001 0.865516 73 1.41783C73.0001 1.97014 72.5523 2.41788 72 2.41788Z" fill="#EEB011"/>
<path d="M72 12.4184C71.4477 12.4184 70.9999 11.9706 70.9999 11.4183C71 10.866 71.4477 10.4183 72 10.4183C72.5523 10.4183 73 10.866 73.0001 11.4183C73.0001 11.9706 72.5523 12.4184 72 12.4184Z" fill="#EEB011"/>
<path d="M72 22.4189C71.4477 22.4189 71 21.9712 70.9999 21.4188C70.9999 20.8665 71.4477 20.4188 72 20.4188C72.5523 20.4188 73.0001 20.8665 73.0001 21.4188C73 21.9712 72.5523 22.4189 72 22.4189Z" fill="#EEB011"/>
<path d="M72 32.4194C71.4477 32.4194 71 31.9717 70.9999 31.4193C71 30.867 71.4477 30.4193 72 30.4193C72.5523 30.4193 73 30.867 73.0001 31.4193C73 31.9717 72.5523 32.4194 72 32.4194Z" fill="#EEB011"/>
<path d="M72 42.4199C71.4477 42.4199 71 41.9722 70.9999 41.4199C71 40.8675 71.4477 40.4198 72 40.4198C72.5523 40.4198 73 40.8675 73.0001 41.4199C73 41.9722 72.5523 42.4199 72 42.4199Z" fill="#EEB011"/>
<path d="M72 52.4204C71.4477 52.4204 70.9999 51.9727 71 51.4204C71 50.868 71.4477 50.4203 72 50.4203C72.5523 50.4203 73 50.868 73 51.4204C73.0001 51.9727 72.5523 52.4204 72 52.4204Z" fill="#EEB011"/>
<path d="M72 62.4209C71.4477 62.4209 70.9999 61.9732 71 61.4209C71 60.8686 71.4477 60.4208 72 60.4208C72.5523 60.4208 73 60.8686 73 61.4209C73.0001 61.9732 72.5523 62.4209 72 62.4209Z" fill="#EEB011"/>
<path d="M72 72.4214C71.4477 72.4214 70.9999 71.9737 71 71.4214C70.9999 70.8691 71.4477 70.4213 72 70.4213C72.5523 70.4213 73.0001 70.8691 73 71.4214C73.0001 71.9737 72.5523 72.4214 72 72.4214Z" fill="#EEB011"/>
<path d="M72 82.4219C71.4477 82.4219 71 81.9742 71 81.4219C70.9999 80.8696 71.4477 80.4218 72 80.4218C72.5523 80.4218 73.0001 80.8696 73 81.4219C73 81.9742 72.5523 82.4219 72 82.4219Z" fill="#EEB011"/>
<path d="M72 92.4224C71.4477 92.4224 71 91.9747 70.9999 91.4224C71 90.8701 71.4477 90.4223 72 90.4223C72.5523 90.4223 73 90.8701 73.0001 91.4224C73 91.9747 72.5523 92.4224 72 92.4224Z" fill="#EEB011"/>
<path d="M72 102.423C71.4477 102.423 71 101.975 70.9999 101.423C71 100.871 71.4477 100.423 72 100.423C72.5523 100.423 73 100.871 73.0001 101.423C73 101.975 72.5523 102.423 72 102.423Z" fill="#EEB011"/>
<path d="M72 112.423C71.4477 112.423 71 111.976 71 111.423C70.9999 110.871 71.4477 110.423 72 110.423C72.5523 110.423 73.0001 110.871 73 111.423C73 111.976 72.5523 112.423 72 112.423Z" fill="#EEB011"/>
<path d="M72 122.424C71.4477 122.424 71 121.976 70.9999 121.424C70.9999 120.872 71.4477 120.424 72 120.424C72.5523 120.424 73.0001 120.872 73.0001 121.424C73 121.976 72.5523 122.424 72 122.424Z" fill="#EEB011"/>
<path d="M72 132.424C71.4477 132.424 70.9999 131.977 70.9999 131.424C71 130.872 71.4477 130.424 72 130.424C72.5523 130.424 73 130.872 73.0001 131.424C73.0001 131.977 72.5523 132.424 72 132.424Z" fill="#EEB011"/>
<path d="M72 142.425C71.4477 142.425 71 141.977 70.9999 141.425C70.9999 140.873 71.4477 140.425 72 140.425C72.5523 140.425 73.0001 140.873 73.0001 141.425C73 141.977 72.5523 142.425 72 142.425Z" fill="#EEB011"/>
<path d="M61.9995 2.41788C61.4472 2.41788 60.9994 1.97014 60.9994 1.41783C60.9994 0.865514 61.4472 0.417775 61.9995 0.417775C62.5518 0.417778 62.9995 0.865516 62.9995 1.41783C62.9995 1.97014 62.5518 2.41788 61.9995 2.41788Z" fill="#EEB011"/>
<path d="M61.9995 12.4184C61.4472 12.4184 60.9994 11.9706 60.9994 11.4183C60.9994 10.866 61.4472 10.4183 61.9995 10.4183C62.5518 10.4183 62.9995 10.866 62.9995 11.4183C62.9995 11.9706 62.5518 12.4184 61.9995 12.4184Z" fill="#EEB011"/>
<path d="M61.9995 22.4189C61.4472 22.4189 60.9994 21.9712 60.9994 21.4188C60.9994 20.8665 61.4472 20.4188 61.9995 20.4188C62.5518 20.4188 62.9995 20.8665 62.9995 21.4188C62.9995 21.9712 62.5518 22.4189 61.9995 22.4189Z" fill="#EEB011"/>
<path d="M61.9995 32.4194C61.4472 32.4194 60.9994 31.9717 60.9994 31.4193C60.9994 30.867 61.4472 30.4193 61.9995 30.4193C62.5518 30.4193 62.9995 30.867 62.9995 31.4193C62.9995 31.9717 62.5518 32.4194 61.9995 32.4194Z" fill="#EEB011"/>
<path d="M61.9995 42.4199C61.4472 42.4199 60.9994 41.9722 60.9994 41.4198C60.9994 40.8675 61.4472 40.4198 61.9995 40.4198C62.5518 40.4198 62.9995 40.8675 62.9995 41.4199C62.9995 41.9722 62.5518 42.4199 61.9995 42.4199Z" fill="#EEB011"/>
<path d="M61.9995 52.4204C61.4472 52.4204 60.9994 51.9727 60.9994 51.4204C60.9994 50.868 61.4472 50.4203 61.9995 50.4203C62.5518 50.4203 62.9995 50.868 62.9995 51.4204C62.9995 51.9727 62.5518 52.4204 61.9995 52.4204Z" fill="#EEB011"/>
<path d="M61.9995 62.4209C61.4472 62.4209 60.9994 61.9732 60.9994 61.4209C60.9994 60.8686 61.4472 60.4208 61.9995 60.4208C62.5518 60.4208 62.9995 60.8685 62.9995 61.4209C62.9995 61.9732 62.5518 62.4209 61.9995 62.4209Z" fill="#EEB011"/>
<path d="M61.9995 72.4214C61.4472 72.4214 60.9994 71.9737 60.9994 71.4214C60.9994 70.8691 61.4472 70.4213 61.9995 70.4213C62.5518 70.4213 62.9995 70.8691 62.9995 71.4214C62.9995 71.9737 62.5518 72.4214 61.9995 72.4214Z" fill="#EEB011"/>
<path d="M61.9995 82.4219C61.4472 82.4219 60.9994 81.9742 60.9994 81.4219C60.9994 80.8696 61.4472 80.4218 61.9995 80.4218C62.5518 80.4218 62.9995 80.8696 62.9995 81.4219C62.9995 81.9742 62.5518 82.4219 61.9995 82.4219Z" fill="#EEB011"/>
<path d="M61.9995 92.4224C61.4472 92.4224 60.9994 91.9747 60.9994 91.4224C60.9994 90.8701 61.4472 90.4223 61.9995 90.4223C62.5518 90.4223 62.9995 90.8701 62.9995 91.4224C62.9995 91.9747 62.5518 92.4224 61.9995 92.4224Z" fill="#EEB011"/>
<path d="M61.9995 102.423C61.4472 102.423 60.9994 101.975 60.9994 101.423C60.9994 100.871 61.4472 100.423 61.9995 100.423C62.5518 100.423 62.9995 100.871 62.9995 101.423C62.9995 101.975 62.5518 102.423 61.9995 102.423Z" fill="#EEB011"/>
<path d="M61.9995 112.423C61.4472 112.423 60.9995 111.976 60.9994 111.423C60.9994 110.871 61.4472 110.423 61.9995 110.423C62.5518 110.423 62.9996 110.871 62.9996 111.423C62.9995 111.976 62.5518 112.423 61.9995 112.423Z" fill="#EEB011"/>
<path d="M61.9995 122.424C61.4472 122.424 60.9994 121.976 60.9994 121.424C60.9994 120.872 61.4472 120.424 61.9995 120.424C62.5518 120.424 62.9995 120.872 62.9995 121.424C62.9995 121.976 62.5518 122.424 61.9995 122.424Z" fill="#EEB011"/>
<path d="M61.9995 132.424C61.4472 132.424 60.9994 131.977 60.9994 131.424C60.9994 130.872 61.4472 130.424 61.9995 130.424C62.5518 130.424 62.9995 130.872 62.9995 131.424C62.9995 131.977 62.5518 132.424 61.9995 132.424Z" fill="#EEB011"/>
<path d="M61.9995 142.425C61.4472 142.425 60.9994 141.977 60.9994 141.425C60.9994 140.873 61.4472 140.425 61.9995 140.425C62.5518 140.425 62.9995 140.873 62.9995 141.425C62.9995 141.977 62.5518 142.425 61.9995 142.425Z" fill="#EEB011"/>
<path d="M51.999 2.41788C51.4467 2.41788 50.9989 1.97014 50.9989 1.41783C50.9989 0.865519 51.4467 0.417778 51.999 0.417775C52.5513 0.417775 52.999 0.865514 52.999 1.41783C52.999 1.97014 52.5513 2.41788 51.999 2.41788Z" fill="#EEB011"/>
<path d="M51.999 12.4184C51.4467 12.4184 50.9989 11.9706 50.9989 11.4183C50.9989 10.866 51.4467 10.4183 51.999 10.4183C52.5513 10.4183 52.999 10.866 52.999 11.4183C52.999 11.9706 52.5513 12.4184 51.999 12.4184Z" fill="#EEB011"/>
<path d="M51.999 22.4189C51.4467 22.4189 50.9989 21.9712 50.9989 21.4188C50.9989 20.8665 51.4467 20.4188 51.999 20.4188C52.5513 20.4188 52.999 20.8665 52.999 21.4188C52.999 21.9712 52.5513 22.4189 51.999 22.4189Z" fill="#EEB011"/>
<path d="M51.999 32.4194C51.4467 32.4194 50.9989 31.9717 50.9989 31.4193C50.9989 30.867 51.4467 30.4193 51.999 30.4193C52.5513 30.4193 52.999 30.867 52.999 31.4193C52.999 31.9717 52.5513 32.4194 51.999 32.4194Z" fill="#EEB011"/>
<path d="M51.999 42.4199C51.4467 42.4199 50.9989 41.9722 50.9989 41.4199C50.9989 40.8675 51.4467 40.4198 51.999 40.4198C52.5513 40.4198 52.999 40.8675 52.999 41.4199C52.999 41.9722 52.5513 42.4199 51.999 42.4199Z" fill="#EEB011"/>
<path d="M51.999 52.4204C51.4467 52.4204 50.9989 51.9727 50.9989 51.4204C50.9989 50.868 51.4467 50.4203 51.999 50.4203C52.5513 50.4203 52.999 50.868 52.999 51.4204C52.999 51.9727 52.5513 52.4204 51.999 52.4204Z" fill="#EEB011"/>
<path d="M51.999 62.4209C51.4467 62.4209 50.9989 61.9732 50.9989 61.4209C50.9989 60.8686 51.4467 60.4208 51.999 60.4208C52.5513 60.4208 52.999 60.8685 52.999 61.4209C52.999 61.9732 52.5513 62.4209 51.999 62.4209Z" fill="#EEB011"/>
<path d="M51.999 72.4214C51.4467 72.4214 50.9989 71.9737 50.9989 71.4214C50.9989 70.8691 51.4467 70.4213 51.999 70.4213C52.5513 70.4213 52.999 70.8691 52.999 71.4214C52.999 71.9737 52.5513 72.4214 51.999 72.4214Z" fill="#EEB011"/>
<path d="M51.999 82.4219C51.4467 82.4219 50.9989 81.9742 50.9989 81.4219C50.9989 80.8696 51.4467 80.4218 51.999 80.4218C52.5513 80.4218 52.999 80.8696 52.999 81.4219C52.999 81.9742 52.5513 82.4219 51.999 82.4219Z" fill="#EEB011"/>
<path d="M51.999 92.4224C51.4467 92.4224 50.9989 91.9747 50.9989 91.4224C50.9989 90.8701 51.4467 90.4223 51.999 90.4223C52.5513 90.4223 52.999 90.8701 52.999 91.4224C52.999 91.9747 52.5513 92.4224 51.999 92.4224Z" fill="#EEB011"/>
<path d="M51.999 102.423C51.4467 102.423 50.9989 101.975 50.9989 101.423C50.9989 100.871 51.4467 100.423 51.999 100.423C52.5513 100.423 52.9991 100.871 52.999 101.423C52.999 101.975 52.5513 102.423 51.999 102.423Z" fill="#EEB011"/>
<path d="M51.999 112.423C51.4467 112.423 50.9989 111.976 50.9989 111.423C50.9989 110.871 51.4467 110.423 51.999 110.423C52.5513 110.423 52.999 110.871 52.999 111.423C52.999 111.976 52.5513 112.423 51.999 112.423Z" fill="#EEB011"/>
<path d="M51.999 122.424C51.4467 122.424 50.9989 121.976 50.9989 121.424C50.9989 120.872 51.4467 120.424 51.999 120.424C52.5513 120.424 52.999 120.872 52.999 121.424C52.999 121.976 52.5513 122.424 51.999 122.424Z" fill="#EEB011"/>
<path d="M51.999 132.424C51.4467 132.424 50.9989 131.977 50.9989 131.424C50.9989 130.872 51.4467 130.424 51.999 130.424C52.5513 130.424 52.999 130.872 52.999 131.424C52.999 131.977 52.5513 132.424 51.999 132.424Z" fill="#EEB011"/>
<path d="M51.999 142.425C51.4467 142.425 50.9989 141.977 50.9989 141.425C50.9989 140.873 51.4467 140.425 51.999 140.425C52.5513 140.425 52.999 140.873 52.999 141.425C52.999 141.977 52.5513 142.425 51.999 142.425Z" fill="#EEB011"/>
<path d="M41.9985 2.41788C41.4462 2.41788 40.9984 1.97014 40.9984 1.41783C40.9984 0.865514 41.4462 0.417778 41.9985 0.417774C42.5508 0.417776 42.9985 0.865514 42.9985 1.41782C42.9985 1.97014 42.5508 2.41788 41.9985 2.41788Z" fill="#EEB011"/>
<path d="M41.9985 12.4184C41.4462 12.4184 40.9984 11.9706 40.9984 11.4183C40.9984 10.866 41.4462 10.4183 41.9985 10.4183C42.5508 10.4183 42.9985 10.866 42.9985 11.4183C42.9985 11.9706 42.5508 12.4184 41.9985 12.4184Z" fill="#EEB011"/>
<path d="M41.9985 22.4189C41.4462 22.4189 40.9984 21.9712 40.9984 21.4188C40.9984 20.8665 41.4462 20.4188 41.9985 20.4188C42.5508 20.4188 42.9985 20.8665 42.9985 21.4188C42.9985 21.9712 42.5508 22.4189 41.9985 22.4189Z" fill="#EEB011"/>
<path d="M41.9985 32.4194C41.4462 32.4194 40.9984 31.9717 40.9984 31.4193C40.9984 30.867 41.4462 30.4193 41.9985 30.4193C42.5508 30.4193 42.9985 30.867 42.9985 31.4193C42.9985 31.9717 42.5508 32.4194 41.9985 32.4194Z" fill="#EEB011"/>
<path d="M41.9985 42.4199C41.4462 42.4199 40.9984 41.9722 40.9984 41.4199C40.9984 40.8675 41.4462 40.4198 41.9985 40.4198C42.5508 40.4198 42.9985 40.8675 42.9985 41.4199C42.9985 41.9722 42.5508 42.4199 41.9985 42.4199Z" fill="#EEB011"/>
<path d="M41.9985 52.4204C41.4462 52.4204 40.9984 51.9727 40.9984 51.4204C40.9984 50.868 41.4462 50.4203 41.9985 50.4203C42.5508 50.4203 42.9985 50.868 42.9985 51.4204C42.9985 51.9727 42.5508 52.4204 41.9985 52.4204Z" fill="#EEB011"/>
<path d="M41.9985 62.4209C41.4462 62.4209 40.9984 61.9732 40.9984 61.4209C40.9984 60.8685 41.4462 60.4208 41.9985 60.4208C42.5508 60.4208 42.9985 60.8685 42.9985 61.4209C42.9985 61.9732 42.5508 62.4209 41.9985 62.4209Z" fill="#EEB011"/>
<path d="M41.9985 72.4214C41.4462 72.4214 40.9984 71.9737 40.9984 71.4214C40.9984 70.8691 41.4462 70.4213 41.9985 70.4213C42.5508 70.4213 42.9985 70.8691 42.9985 71.4214C42.9985 71.9737 42.5508 72.4214 41.9985 72.4214Z" fill="#EEB011"/>
<path d="M41.9985 82.4219C41.4462 82.4219 40.9984 81.9742 40.9984 81.4219C40.9984 80.8696 41.4462 80.4218 41.9985 80.4218C42.5508 80.4218 42.9985 80.8696 42.9985 81.4219C42.9985 81.9742 42.5508 82.4219 41.9985 82.4219Z" fill="#EEB011"/>
<path d="M41.9985 92.4224C41.4462 92.4224 40.9984 91.9747 40.9984 91.4224C40.9984 90.8701 41.4462 90.4223 41.9985 90.4223C42.5508 90.4223 42.9985 90.8701 42.9985 91.4224C42.9985 91.9747 42.5508 92.4224 41.9985 92.4224Z" fill="#EEB011"/>
<path d="M41.9985 102.423C41.4462 102.423 40.9984 101.975 40.9984 101.423C40.9984 100.871 41.4462 100.423 41.9985 100.423C42.5508 100.423 42.9985 100.871 42.9985 101.423C42.9985 101.975 42.5508 102.423 41.9985 102.423Z" fill="#EEB011"/>
<path d="M41.9985 112.423C41.4462 112.423 40.9984 111.976 40.9984 111.423C40.9984 110.871 41.4462 110.423 41.9985 110.423C42.5508 110.423 42.9985 110.871 42.9985 111.423C42.9985 111.976 42.5508 112.423 41.9985 112.423Z" fill="#EEB011"/>
<path d="M41.9985 122.424C41.4462 122.424 40.9984 121.976 40.9984 121.424C40.9984 120.872 41.4462 120.424 41.9985 120.424C42.5508 120.424 42.9985 120.872 42.9985 121.424C42.9985 121.976 42.5508 122.424 41.9985 122.424Z" fill="#EEB011"/>
<path d="M41.9985 132.424C41.4462 132.424 40.9984 131.977 40.9984 131.424C40.9984 130.872 41.4462 130.424 41.9985 130.424C42.5508 130.424 42.9985 130.872 42.9985 131.424C42.9985 131.977 42.5508 132.424 41.9985 132.424Z" fill="#EEB011"/>
<path d="M41.9985 142.425C41.4462 142.425 40.9984 141.977 40.9984 141.425C40.9984 140.873 41.4462 140.425 41.9985 140.425C42.5508 140.425 42.9985 140.873 42.9985 141.425C42.9985 141.977 42.5508 142.425 41.9985 142.425Z" fill="#EEB011"/>
<path d="M31.998 2.41788C31.4457 2.41788 30.9979 1.97014 30.9979 1.41783C30.9979 0.865514 31.4457 0.417778 31.998 0.417775C32.5503 0.417776 32.998 0.865515 32.998 1.41782C32.998 1.97014 32.5503 2.41788 31.998 2.41788Z" fill="#EEB011"/>
<path d="M31.998 12.4184C31.4457 12.4184 30.9979 11.9706 30.9979 11.4183C30.9979 10.866 31.4457 10.4183 31.998 10.4183C32.5503 10.4183 32.998 10.866 32.998 11.4183C32.998 11.9706 32.5503 12.4184 31.998 12.4184Z" fill="#EEB011"/>
<path d="M31.998 22.4189C31.4457 22.4189 30.9979 21.9712 30.9979 21.4188C30.9979 20.8665 31.4457 20.4188 31.998 20.4188C32.5503 20.4188 32.998 20.8665 32.998 21.4188C32.998 21.9712 32.5503 22.4189 31.998 22.4189Z" fill="#EEB011"/>
<path d="M31.998 32.4194C31.4457 32.4194 30.9979 31.9717 30.9979 31.4193C30.9979 30.867 31.4457 30.4193 31.998 30.4193C32.5503 30.4193 32.998 30.867 32.998 31.4193C32.998 31.9717 32.5503 32.4194 31.998 32.4194Z" fill="#EEB011"/>
<path d="M31.998 42.4199C31.4457 42.4199 30.9979 41.9722 30.9979 41.4199C30.9979 40.8675 31.4457 40.4198 31.998 40.4198C32.5503 40.4198 32.998 40.8675 32.998 41.4199C32.998 41.9722 32.5503 42.4199 31.998 42.4199Z" fill="#EEB011"/>
<path d="M31.998 52.4204C31.4457 52.4204 30.9979 51.9727 30.9979 51.4204C30.9979 50.868 31.4457 50.4203 31.998 50.4203C32.5503 50.4203 32.998 50.868 32.998 51.4204C32.998 51.9727 32.5503 52.4204 31.998 52.4204Z" fill="#EEB011"/>
<path d="M31.998 62.4209C31.4457 62.4209 30.9979 61.9732 30.9979 61.4209C30.9979 60.8685 31.4457 60.4208 31.998 60.4208C32.5503 60.4208 32.998 60.8686 32.998 61.4209C32.998 61.9732 32.5503 62.4209 31.998 62.4209Z" fill="#EEB011"/>
<path d="M31.998 72.4214C31.4457 72.4214 30.9979 71.9737 30.9979 71.4214C30.9979 70.8691 31.4457 70.4213 31.998 70.4213C32.5503 70.4213 32.998 70.8691 32.998 71.4214C32.998 71.9737 32.5503 72.4214 31.998 72.4214Z" fill="#EEB011"/>
<path d="M31.998 82.4219C31.4457 82.4219 30.9979 81.9742 30.9979 81.4219C30.9979 80.8696 31.4457 80.4218 31.998 80.4218C32.5503 80.4218 32.998 80.8696 32.998 81.4219C32.998 81.9742 32.5503 82.4219 31.998 82.4219Z" fill="#EEB011"/>
<path d="M31.998 92.4224C31.4457 92.4224 30.9979 91.9747 30.9979 91.4224C30.9979 90.8701 31.4457 90.4223 31.998 90.4223C32.5503 90.4223 32.998 90.8701 32.998 91.4224C32.998 91.9747 32.5503 92.4224 31.998 92.4224Z" fill="#EEB011"/>
<path d="M31.998 102.423C31.4457 102.423 30.9979 101.975 30.9979 101.423C30.9979 100.871 31.4457 100.423 31.998 100.423C32.5503 100.423 32.998 100.871 32.998 101.423C32.998 101.975 32.5503 102.423 31.998 102.423Z" fill="#EEB011"/>
<path d="M31.998 112.423C31.4457 112.423 30.9979 111.976 30.9979 111.423C30.9979 110.871 31.4457 110.423 31.998 110.423C32.5503 110.423 32.998 110.871 32.998 111.423C32.998 111.976 32.5503 112.423 31.998 112.423Z" fill="#EEB011"/>
<path d="M31.998 122.424C31.4457 122.424 30.9979 121.976 30.9979 121.424C30.9979 120.872 31.4457 120.424 31.998 120.424C32.5503 120.424 32.998 120.872 32.998 121.424C32.998 121.976 32.5503 122.424 31.998 122.424Z" fill="#EEB011"/>
<path d="M31.998 132.424C31.4457 132.424 30.9979 131.977 30.9979 131.424C30.9979 130.872 31.4457 130.424 31.998 130.424C32.5503 130.424 32.998 130.872 32.998 131.424C32.998 131.977 32.5503 132.424 31.998 132.424Z" fill="#EEB011"/>
<path d="M31.998 142.425C31.4457 142.425 30.9979 141.977 30.9979 141.425C30.9979 140.873 31.4457 140.425 31.998 140.425C32.5503 140.425 32.998 140.873 32.998 141.425C32.998 141.977 32.5503 142.425 31.998 142.425Z" fill="#EEB011"/>
<path d="M21.9975 2.41788C21.4452 2.41788 20.9974 1.97014 20.9974 1.41783C20.9974 0.865516 21.4452 0.417774 21.9975 0.417776C22.5498 0.417778 22.9975 0.865516 22.9975 1.41783C22.9975 1.97014 22.5498 2.41788 21.9975 2.41788Z" fill="#EEB011"/>
<path d="M21.9975 12.4184C21.4452 12.4184 20.9974 11.9706 20.9974 11.4183C20.9974 10.866 21.4452 10.4183 21.9975 10.4183C22.5498 10.4183 22.9975 10.866 22.9975 11.4183C22.9975 11.9706 22.5498 12.4184 21.9975 12.4184Z" fill="#EEB011"/>
<path d="M21.9975 22.4189C21.4452 22.4189 20.9974 21.9712 20.9974 21.4188C20.9974 20.8665 21.4452 20.4188 21.9975 20.4188C22.5498 20.4188 22.9975 20.8665 22.9975 21.4188C22.9975 21.9712 22.5498 22.4189 21.9975 22.4189Z" fill="#EEB011"/>
<path d="M21.9975 32.4194C21.4452 32.4194 20.9974 31.9717 20.9974 31.4193C20.9974 30.867 21.4452 30.4193 21.9975 30.4193C22.5498 30.4193 22.9975 30.867 22.9975 31.4193C22.9975 31.9717 22.5498 32.4194 21.9975 32.4194Z" fill="#EEB011"/>
<path d="M21.9975 42.4199C21.4452 42.4199 20.9974 41.9722 20.9974 41.4199C20.9974 40.8675 21.4452 40.4198 21.9975 40.4198C22.5498 40.4198 22.9975 40.8675 22.9975 41.4199C22.9975 41.9722 22.5498 42.4199 21.9975 42.4199Z" fill="#EEB011"/>
<path d="M21.9975 52.4204C21.4452 52.4204 20.9974 51.9727 20.9974 51.4204C20.9974 50.868 21.4452 50.4203 21.9975 50.4203C22.5498 50.4203 22.9975 50.868 22.9975 51.4204C22.9975 51.9727 22.5498 52.4204 21.9975 52.4204Z" fill="#EEB011"/>
<path d="M21.9975 62.4209C21.4452 62.4209 20.9974 61.9732 20.9974 61.4209C20.9974 60.8686 21.4452 60.4208 21.9975 60.4208C22.5498 60.4208 22.9975 60.8686 22.9975 61.4209C22.9975 61.9732 22.5498 62.4209 21.9975 62.4209Z" fill="#EEB011"/>
<path d="M21.9975 72.4214C21.4452 72.4214 20.9974 71.9737 20.9974 71.4214C20.9974 70.8691 21.4452 70.4213 21.9975 70.4213C22.5498 70.4213 22.9975 70.8691 22.9975 71.4214C22.9975 71.9737 22.5498 72.4214 21.9975 72.4214Z" fill="#EEB011"/>
<path d="M21.9975 82.4219C21.4452 82.4219 20.9974 81.9742 20.9974 81.4219C20.9974 80.8696 21.4452 80.4218 21.9975 80.4218C22.5498 80.4218 22.9975 80.8696 22.9975 81.4219C22.9975 81.9742 22.5498 82.4219 21.9975 82.4219Z" fill="#EEB011"/>
<path d="M21.9975 92.4224C21.4452 92.4224 20.9974 91.9747 20.9974 91.4224C20.9974 90.8701 21.4452 90.4223 21.9975 90.4223C22.5498 90.4223 22.9975 90.8701 22.9975 91.4224C22.9975 91.9747 22.5498 92.4224 21.9975 92.4224Z" fill="#EEB011"/>
<path d="M21.9975 102.423C21.4452 102.423 20.9974 101.975 20.9974 101.423C20.9974 100.871 21.4452 100.423 21.9975 100.423C22.5498 100.423 22.9975 100.871 22.9975 101.423C22.9975 101.975 22.5498 102.423 21.9975 102.423Z" fill="#EEB011"/>
<path d="M21.9975 112.423C21.4452 112.423 20.9974 111.976 20.9974 111.423C20.9974 110.871 21.4452 110.423 21.9975 110.423C22.5498 110.423 22.9975 110.871 22.9975 111.423C22.9975 111.976 22.5498 112.423 21.9975 112.423Z" fill="#EEB011"/>
<path d="M21.9975 122.424C21.4452 122.424 20.9974 121.976 20.9974 121.424C20.9974 120.872 21.4452 120.424 21.9975 120.424C22.5498 120.424 22.9975 120.872 22.9975 121.424C22.9975 121.976 22.5498 122.424 21.9975 122.424Z" fill="#EEB011"/>
<path d="M21.9975 132.424C21.4452 132.424 20.9974 131.977 20.9974 131.424C20.9974 130.872 21.4452 130.424 21.9975 130.424C22.5498 130.424 22.9975 130.872 22.9975 131.424C22.9975 131.977 22.5498 132.424 21.9975 132.424Z" fill="#EEB011"/>
<path d="M21.9975 142.425C21.4452 142.425 20.9974 141.977 20.9974 141.425C20.9974 140.873 21.4452 140.425 21.9975 140.425C22.5498 140.425 22.9975 140.873 22.9975 141.425C22.9975 141.977 22.5498 142.425 21.9975 142.425Z" fill="#EEB011"/>
<path d="M11.997 2.41788C11.4446 2.41788 10.9969 1.97014 10.9969 1.41783C10.9969 0.865516 11.4447 0.417775 11.997 0.417777C12.5493 0.417779 12.997 0.865517 12.997 1.41783C12.997 1.97014 12.5493 2.41788 11.997 2.41788Z" fill="#EEB011"/>
<path d="M11.997 12.4184C11.4446 12.4184 10.9969 11.9706 10.9969 11.4183C10.9969 10.866 11.4447 10.4183 11.997 10.4183C12.5493 10.4183 12.997 10.866 12.997 11.4183C12.997 11.9706 12.5493 12.4184 11.997 12.4184Z" fill="#EEB011"/>
<path d="M11.997 22.4189C11.4447 22.4189 10.9969 21.9712 10.9969 21.4188C10.9969 20.8665 11.4447 20.4188 11.997 20.4188C12.5493 20.4188 12.997 20.8665 12.997 21.4188C12.997 21.9712 12.5493 22.4189 11.997 22.4189Z" fill="#EEB011"/>
<path d="M11.997 32.4194C11.4447 32.4194 10.9969 31.9717 10.9969 31.4193C10.9969 30.867 11.4447 30.4193 11.997 30.4193C12.5493 30.4193 12.997 30.867 12.997 31.4193C12.997 31.9717 12.5493 32.4194 11.997 32.4194Z" fill="#EEB011"/>
<path d="M11.997 42.4199C11.4447 42.4199 10.9969 41.9722 10.9969 41.4199C10.9969 40.8675 11.4447 40.4198 11.997 40.4198C12.5493 40.4198 12.997 40.8675 12.997 41.4199C12.997 41.9722 12.5493 42.4199 11.997 42.4199Z" fill="#EEB011"/>
<path d="M11.997 52.4204C11.4447 52.4204 10.9969 51.9727 10.9969 51.4204C10.9969 50.868 11.4446 50.4203 11.997 50.4203C12.5493 50.4203 12.997 50.868 12.997 51.4204C12.997 51.9727 12.5493 52.4204 11.997 52.4204Z" fill="#EEB011"/>
<path d="M11.997 62.4209C11.4447 62.4209 10.9969 61.9732 10.9969 61.4209C10.9969 60.8685 11.4447 60.4208 11.997 60.4208C12.5493 60.4208 12.997 60.8685 12.997 61.4209C12.997 61.9732 12.5493 62.4209 11.997 62.4209Z" fill="#EEB011"/>
<path d="M11.997 72.4214C11.4446 72.4214 10.9969 71.9737 10.9969 71.4214C10.9969 70.8691 11.4447 70.4213 11.997 70.4213C12.5493 70.4213 12.997 70.8691 12.997 71.4214C12.997 71.9737 12.5493 72.4214 11.997 72.4214Z" fill="#EEB011"/>
<path d="M11.997 82.4219C11.4447 82.4219 10.9969 81.9742 10.9969 81.4219C10.9969 80.8696 11.4447 80.4218 11.997 80.4218C12.5493 80.4218 12.997 80.8696 12.997 81.4219C12.997 81.9742 12.5493 82.4219 11.997 82.4219Z" fill="#EEB011"/>
<path d="M11.997 92.4224C11.4446 92.4224 10.9969 91.9747 10.9969 91.4224C10.9969 90.8701 11.4447 90.4223 11.997 90.4223C12.5493 90.4223 12.997 90.8701 12.997 91.4224C12.997 91.9747 12.5493 92.4224 11.997 92.4224Z" fill="#EEB011"/>
<path d="M11.997 102.423C11.4447 102.423 10.9969 101.975 10.9969 101.423C10.9969 100.871 11.4447 100.423 11.997 100.423C12.5493 100.423 12.997 100.871 12.997 101.423C12.997 101.975 12.5493 102.423 11.997 102.423Z" fill="#EEB011"/>
<path d="M11.997 112.423C11.4447 112.423 10.9969 111.976 10.9969 111.423C10.9969 110.871 11.4447 110.423 11.997 110.423C12.5493 110.423 12.997 110.871 12.997 111.423C12.997 111.976 12.5493 112.423 11.997 112.423Z" fill="#EEB011"/>
<path d="M11.997 122.424C11.4447 122.424 10.9969 121.976 10.9969 121.424C10.9969 120.872 11.4447 120.424 11.997 120.424C12.5493 120.424 12.997 120.872 12.997 121.424C12.997 121.976 12.5493 122.424 11.997 122.424Z" fill="#EEB011"/>
<path d="M11.997 132.424C11.4447 132.424 10.9969 131.977 10.9969 131.424C10.9969 130.872 11.4446 130.424 11.997 130.424C12.5493 130.424 12.997 130.872 12.997 131.424C12.997 131.977 12.5493 132.424 11.997 132.424Z" fill="#EEB011"/>
<path d="M11.997 142.425C11.4447 142.425 10.9969 141.977 10.9969 141.425C10.9969 140.873 11.4447 140.425 11.997 140.425C12.5493 140.425 12.997 140.873 12.997 141.425C12.997 141.977 12.5493 142.425 11.997 142.425Z" fill="#EEB011"/>
<path d="M1.99646 2.41788C1.44414 2.41788 0.996404 1.97014 0.996407 1.41783C0.996405 0.865517 1.44415 0.417776 1.99646 0.417778C2.54877 0.417775 2.99651 0.865513 2.99651 1.41783C2.99651 1.97014 2.54877 2.41788 1.99646 2.41788Z" fill="#EEB011"/>
<path d="M1.99646 12.4184C1.44415 12.4184 0.996408 11.9706 0.996406 11.4183C0.996404 10.866 1.44414 10.4183 1.99646 10.4183C2.54877 10.4183 2.99651 10.866 2.99651 11.4183C2.99651 11.9706 2.54877 12.4184 1.99646 12.4184Z" fill="#EEB011"/>
<path d="M1.99646 22.4189C1.44415 22.4189 0.996407 21.9712 0.996405 21.4188C0.996409 20.8665 1.44414 20.4188 1.99646 20.4188C2.54877 20.4188 2.99651 20.8665 2.99651 21.4188C2.99651 21.9712 2.54877 22.4189 1.99646 22.4189Z" fill="#EEB011"/>
<path d="M1.99645 32.4194C1.44414 32.4194 0.996405 31.9717 0.996404 31.4193C0.996407 30.867 1.44414 30.4193 1.99646 30.4193C2.54877 30.4193 2.99651 30.867 2.99651 31.4193C2.99651 31.9717 2.54877 32.4194 1.99645 32.4194Z" fill="#EEB011"/>
<path d="M1.99646 42.4199C1.44414 42.4199 0.996405 41.9722 0.996408 41.4198C0.996401 40.8675 1.44414 40.4198 1.99646 40.4198C2.54877 40.4198 2.99651 40.8675 2.99651 41.4199C2.9965 41.9722 2.54876 42.4199 1.99646 42.4199Z" fill="#EEB011"/>
<path d="M1.99646 52.4204C1.44415 52.4204 0.996415 51.9727 0.996407 51.4204C0.996412 50.868 1.44415 50.4203 1.99646 50.4203C2.54878 50.4203 2.99652 50.868 2.99651 51.4204C2.99651 51.9727 2.54878 52.4204 1.99646 52.4204Z" fill="#EEB011"/>
<path d="M1.99646 62.4209C1.44414 62.4209 0.996404 61.9732 0.996407 61.4209C0.996409 60.8685 1.44415 60.4208 1.99646 60.4208C2.54877 60.4208 2.99651 60.8686 2.99651 61.4209C2.99651 61.9732 2.54878 62.4209 1.99646 62.4209Z" fill="#EEB011"/>
<path d="M1.99646 72.4214C1.44415 72.4214 0.996412 71.9737 0.996407 71.4214C0.996409 70.8691 1.44415 70.4213 1.99646 70.4213C2.54878 70.4213 2.99652 70.8691 2.99651 71.4214C2.99651 71.9737 2.54877 72.4214 1.99646 72.4214Z" fill="#EEB011"/>
<path d="M1.99646 82.4219C1.44414 82.4219 0.996401 81.9742 0.996404 81.4219C0.996409 80.8696 1.44415 80.4218 1.99646 80.4218C2.54876 80.4218 2.9965 80.8696 2.99651 81.4219C2.99651 81.9742 2.54877 82.4219 1.99646 82.4219Z" fill="#EEB011"/>
<path d="M1.99647 92.4224C1.44415 92.4224 0.996412 91.9747 0.996415 91.4224C0.996407 90.8701 1.44415 90.4223 1.99646 90.4223C2.54878 90.4223 2.99652 90.8701 2.99651 91.4224C2.99652 91.9747 2.54877 92.4224 1.99647 92.4224Z" fill="#EEB011"/>
<path d="M1.99646 102.423C1.44415 102.423 0.996412 101.975 0.996401 101.423C0.996407 100.871 1.44414 100.423 1.99646 100.423C2.54878 100.423 2.99651 100.871 2.99651 101.423C2.99651 101.975 2.54877 102.423 1.99646 102.423Z" fill="#EEB011"/>
<path d="M1.99647 112.423C1.44415 112.423 0.996412 111.976 0.996412 111.423C0.996407 110.871 1.44415 110.423 1.99646 110.423C2.54878 110.423 2.99651 110.871 2.99651 111.423C2.99652 111.976 2.54877 112.423 1.99647 112.423Z" fill="#EEB011"/>
<path d="M1.99645 122.424C1.44415 122.424 0.996407 121.976 0.996401 121.424C0.996407 120.872 1.44414 120.424 1.99646 120.424C2.54877 120.424 2.99651 120.872 2.99651 121.424C2.99651 121.976 2.54877 122.424 1.99645 122.424Z" fill="#EEB011"/>
<path d="M1.99646 132.424C1.44415 132.424 0.996407 131.977 0.996412 131.424C0.996417 130.872 1.44415 130.424 1.99647 130.424C2.54877 130.424 2.99651 130.872 2.99652 131.424C2.99652 131.977 2.54878 132.424 1.99646 132.424Z" fill="#EEB011"/>
<path d="M1.99646 142.425C1.44415 142.425 0.996407 141.977 0.996412 141.425C0.996401 140.873 1.44414 140.425 1.99646 140.425C2.54877 140.425 2.99651 140.873 2.99651 141.425C2.99651 141.977 2.54877 142.425 1.99646 142.425Z" fill="#EEB011"/>
</svg>
