<?xml version="1.0" encoding="UTF-8"?>
<svg width="201px" height="147px" viewBox="0 0 201 147" version="1.1" xmlns="http://www.w3.org/2000/svg" xmlns:xlink="http://www.w3.org/1999/xlink">
    <title>pattern_dot</title>
    <g id="index" stroke="none" stroke-width="1" fill="none" fill-rule="evenodd" opacity="0.145484561">
        <g id="img" transform="translate(0.000000, -30.000000)">
            <g id="pattern_dot" transform="translate(100.500000, 103.500000) rotate(-180.000000) translate(-100.500000, -103.500000) translate(0.000000, 30.000000)">
                <circle id="Oval" fill="#FFF5F8" cx="6" cy="6" r="6"></circle>
                <circle id="Oval" fill="#FFF0F5" cx="33" cy="6" r="6"></circle>
                <circle id="Oval" fill="#FFEAF1" cx="60" cy="6" r="6"></circle>
                <circle id="Oval" fill="#FFE5EE" cx="87" cy="6" r="6"></circle>
                <circle id="Oval" fill="#FFDCE8" cx="114" cy="6" r="6"></circle>
                <circle id="Oval" fill="#FFBDD4" cx="141" cy="6" r="6"></circle>
                <circle id="Oval" fill="#FFA7C6" cx="168" cy="6" r="6"></circle>
                <circle id="Oval" fill="#FFA4BC" cx="195" cy="6" r="6"></circle>
                <circle id="Oval" fill="#FFF5F8" cx="6" cy="33" r="6"></circle>
                <circle id="Oval" fill="#FFF0F5" cx="33" cy="33" r="6"></circle>
                <circle id="Oval" fill="#FFEAF1" cx="60" cy="33" r="6"></circle>
                <circle id="Oval" fill="#FFE5EE" cx="87" cy="33" r="6"></circle>
                <circle id="Oval" fill="#FFDCE8" cx="114" cy="33" r="6"></circle>
                <circle id="Oval" fill="#FFBDD4" cx="141" cy="33" r="6"></circle>
                <circle id="Oval" fill="#FFA7C6" cx="168" cy="33" r="6"></circle>
                <circle id="Oval" fill="#FFA4BC" cx="195" cy="33" r="6"></circle>
                <circle id="Oval" fill="#FFF5F8" cx="6" cy="60" r="6"></circle>
                <circle id="Oval" fill="#FFF0F5" cx="33" cy="60" r="6"></circle>
                <circle id="Oval" fill="#FFEAF1" cx="60" cy="60" r="6"></circle>
                <circle id="Oval" fill="#FFE5EE" cx="87" cy="60" r="6"></circle>
                <circle id="Oval" fill="#FFDCE8" cx="114" cy="60" r="6"></circle>
                <circle id="Oval" fill="#FFBDD4" cx="141" cy="60" r="6"></circle>
                <circle id="Oval" fill="#FFA7C6" cx="168" cy="60" r="6"></circle>
                <circle id="Oval" fill="#FFA4BC" cx="195" cy="60" r="6"></circle>
                <circle id="Oval" fill="#FFF5F8" cx="6" cy="87" r="6"></circle>
                <circle id="Oval" fill="#FFF0F5" cx="33" cy="87" r="6"></circle>
                <circle id="Oval" fill="#FFEAF1" cx="60" cy="87" r="6"></circle>
                <circle id="Oval" fill="#FFE5EE" cx="87" cy="87" r="6"></circle>
                <circle id="Oval" fill="#FFDCE8" cx="114" cy="87" r="6"></circle>
                <circle id="Oval" fill="#FFBDD4" cx="141" cy="87" r="6"></circle>
                <circle id="Oval" fill="#FFA7C6" cx="168" cy="87" r="6"></circle>
                <circle id="Oval" fill="#FFA4BC" cx="195" cy="87" r="6"></circle>
                <circle id="Oval" fill="#FFF5F8" cx="6" cy="114" r="6"></circle>
                <circle id="Oval" fill="#FFF0F5" cx="33" cy="114" r="6"></circle>
                <circle id="Oval" fill="#FFEAF1" cx="60" cy="114" r="6"></circle>
                <circle id="Oval" fill="#FFE5EE" cx="87" cy="114" r="6"></circle>
                <circle id="Oval" fill="#FFDCE8" cx="114" cy="114" r="6"></circle>
                <circle id="Oval" fill="#FFBDD4" cx="141" cy="114" r="6"></circle>
                <circle id="Oval" fill="#FFA7C6" cx="168" cy="114" r="6"></circle>
                <circle id="Oval" fill="#FFA4BC" cx="195" cy="114" r="6"></circle>
                <circle id="Oval" fill="#FFF5F8" cx="6" cy="141" r="6"></circle>
                <circle id="Oval" fill="#FFF0F5" cx="33" cy="141" r="6"></circle>
                <circle id="Oval" fill="#FFEAF1" cx="60" cy="141" r="6"></circle>
                <circle id="Oval" fill="#FFE5EE" cx="87" cy="141" r="6"></circle>
                <circle id="Oval" fill="#FFDCE8" cx="114" cy="141" r="6"></circle>
                <circle id="Oval" fill="#FFBDD4" cx="141" cy="141" r="6"></circle>
                <circle id="Oval" fill="#FFA7C6" cx="168" cy="141" r="6"></circle>
                <circle id="Oval" fill="#FFA4BC" cx="195" cy="141" r="6"></circle>
            </g>
        </g>
    </g>
</svg>