<svg width="150" height="150" viewBox="0 0 150 150" fill="none" xmlns="http://www.w3.org/2000/svg">
<path d="M5.06757 2.53378C5.06757 3.93315 3.93315 5.06757 2.53378 5.06757C1.13441 5.06757 0 3.93315 0 2.53378C0 1.13441 1.13441 0 2.53378 0C3.93315 0 5.06757 1.13441 5.06757 2.53378Z" fill="#8DFFDB"/>
<path d="M18.2432 2.53378C18.2432 3.93315 17.1088 5.06757 15.7095 5.06757C14.3101 5.06757 13.1757 3.93315 13.1757 2.53378C13.1757 1.13441 14.3101 0 15.7095 0C17.1088 0 18.2432 1.13441 18.2432 2.53378Z" fill="#8DFFDB"/>
<path d="M31.4189 2.53378C31.4189 3.93315 30.2845 5.06757 28.8851 5.06757C27.4858 5.06757 26.3514 3.93315 26.3514 2.53378C26.3514 1.13441 27.4858 0 28.8851 0C30.2845 0 31.4189 1.13441 31.4189 2.53378Z" fill="#8DFFDB"/>
<path d="M44.5946 2.53378C44.5946 3.93315 43.4602 5.06757 42.0608 5.06757C40.6614 5.06757 39.527 3.93315 39.527 2.53378C39.527 1.13441 40.6614 0 42.0608 0C43.4602 0 44.5946 1.13441 44.5946 2.53378Z" fill="#8DFFDB"/>
<path d="M57.7703 2.53378C57.7703 3.93315 56.6359 5.06757 55.2365 5.06757C53.8371 5.06757 52.7027 3.93315 52.7027 2.53378C52.7027 1.13441 53.8371 0 55.2365 0C56.6359 0 57.7703 1.13441 57.7703 2.53378Z" fill="#8DFFDB"/>
<path d="M70.946 2.53378C70.946 3.93315 69.8115 5.06757 68.4122 5.06757C67.0128 5.06757 65.8784 3.93315 65.8784 2.53378C65.8784 1.13441 67.0128 0 68.4122 0C69.8115 0 70.946 1.13441 70.946 2.53378Z" fill="#8DFFDB"/>
<path d="M84.1216 2.53378C84.1216 3.93315 82.9872 5.06757 81.5878 5.06757C80.1885 5.06757 79.0541 3.93315 79.0541 2.53378C79.0541 1.13441 80.1885 0 81.5878 0C82.9872 0 84.1216 1.13441 84.1216 2.53378Z" fill="#8DFFDB"/>
<path d="M97.2973 2.53378C97.2973 3.93315 96.1629 5.06757 94.7635 5.06757C93.3642 5.06757 92.2297 3.93315 92.2297 2.53378C92.2297 1.13441 93.3642 0 94.7635 0C96.1629 0 97.2973 1.13441 97.2973 2.53378Z" fill="#8DFFDB"/>
<path d="M110.473 2.53378C110.473 3.93315 109.339 5.06757 107.939 5.06757C106.54 5.06757 105.405 3.93315 105.405 2.53378C105.405 1.13441 106.54 0 107.939 0C109.339 0 110.473 1.13441 110.473 2.53378Z" fill="#8DFFDB"/>
<path d="M123.649 2.53378C123.649 3.93315 122.514 5.06757 121.115 5.06757C119.715 5.06757 118.581 3.93315 118.581 2.53378C118.581 1.13441 119.715 0 121.115 0C122.514 0 123.649 1.13441 123.649 2.53378Z" fill="#8DFFDB"/>
<path d="M136.824 2.53378C136.824 3.93315 135.69 5.06757 134.291 5.06757C132.891 5.06757 131.757 3.93315 131.757 2.53378C131.757 1.13441 132.891 0 134.291 0C135.69 0 136.824 1.13441 136.824 2.53378Z" fill="#8DFFDB"/>
<path d="M150 2.53378C150 3.93315 148.866 5.06757 147.466 5.06757C146.067 5.06757 144.932 3.93315 144.932 2.53378C144.932 1.13441 146.067 0 147.466 0C148.866 0 150 1.13441 150 2.53378Z" fill="#8DFFDB"/>
<path d="M5.06757 15.7095C5.06757 17.1088 3.93315 18.2432 2.53378 18.2432C1.13441 18.2432 0 17.1088 0 15.7095C0 14.3101 1.13441 13.1757 2.53378 13.1757C3.93315 13.1757 5.06757 14.3101 5.06757 15.7095Z" fill="#8DFFDB"/>
<path d="M18.2432 15.7095C18.2432 17.1088 17.1088 18.2432 15.7095 18.2432C14.3101 18.2432 13.1757 17.1088 13.1757 15.7095C13.1757 14.3101 14.3101 13.1757 15.7095 13.1757C17.1088 13.1757 18.2432 14.3101 18.2432 15.7095Z" fill="#8DFFDB"/>
<path d="M31.4189 15.7095C31.4189 17.1088 30.2845 18.2432 28.8851 18.2432C27.4858 18.2432 26.3514 17.1088 26.3514 15.7095C26.3514 14.3101 27.4858 13.1757 28.8851 13.1757C30.2845 13.1757 31.4189 14.3101 31.4189 15.7095Z" fill="#8DFFDB"/>
<path d="M44.5946 15.7095C44.5946 17.1088 43.4602 18.2432 42.0608 18.2432C40.6614 18.2432 39.527 17.1088 39.527 15.7095C39.527 14.3101 40.6614 13.1757 42.0608 13.1757C43.4602 13.1757 44.5946 14.3101 44.5946 15.7095Z" fill="#8DFFDB"/>
<path d="M57.7703 15.7095C57.7703 17.1088 56.6359 18.2432 55.2365 18.2432C53.8371 18.2432 52.7027 17.1088 52.7027 15.7095C52.7027 14.3101 53.8371 13.1757 55.2365 13.1757C56.6359 13.1757 57.7703 14.3101 57.7703 15.7095Z" fill="#8DFFDB"/>
<path d="M70.946 15.7095C70.946 17.1088 69.8115 18.2432 68.4122 18.2432C67.0128 18.2432 65.8784 17.1088 65.8784 15.7095C65.8784 14.3101 67.0128 13.1757 68.4122 13.1757C69.8115 13.1757 70.946 14.3101 70.946 15.7095Z" fill="#8DFFDB"/>
<path d="M84.1216 15.7095C84.1216 17.1088 82.9872 18.2432 81.5878 18.2432C80.1885 18.2432 79.0541 17.1088 79.0541 15.7095C79.0541 14.3101 80.1885 13.1757 81.5878 13.1757C82.9872 13.1757 84.1216 14.3101 84.1216 15.7095Z" fill="#8DFFDB"/>
<path d="M97.2973 15.7095C97.2973 17.1088 96.1629 18.2432 94.7635 18.2432C93.3642 18.2432 92.2297 17.1088 92.2297 15.7095C92.2297 14.3101 93.3642 13.1757 94.7635 13.1757C96.1629 13.1757 97.2973 14.3101 97.2973 15.7095Z" fill="#8DFFDB"/>
<path d="M110.473 15.7095C110.473 17.1088 109.339 18.2432 107.939 18.2432C106.54 18.2432 105.405 17.1088 105.405 15.7095C105.405 14.3101 106.54 13.1757 107.939 13.1757C109.339 13.1757 110.473 14.3101 110.473 15.7095Z" fill="#8DFFDB"/>
<path d="M123.649 15.7095C123.649 17.1088 122.514 18.2432 121.115 18.2432C119.715 18.2432 118.581 17.1088 118.581 15.7095C118.581 14.3101 119.715 13.1757 121.115 13.1757C122.514 13.1757 123.649 14.3101 123.649 15.7095Z" fill="#8DFFDB"/>
<path d="M136.824 15.7095C136.824 17.1088 135.69 18.2432 134.291 18.2432C132.891 18.2432 131.757 17.1088 131.757 15.7095C131.757 14.3101 132.891 13.1757 134.291 13.1757C135.69 13.1757 136.824 14.3101 136.824 15.7095Z" fill="#8DFFDB"/>
<path d="M150 15.7095C150 17.1088 148.866 18.2432 147.466 18.2432C146.067 18.2432 144.932 17.1088 144.932 15.7095C144.932 14.3101 146.067 13.1757 147.466 13.1757C148.866 13.1757 150 14.3101 150 15.7095Z" fill="#8DFFDB"/>
<path d="M5.06757 28.8851C5.06757 30.2845 3.93315 31.4189 2.53378 31.4189C1.13441 31.4189 0 30.2845 0 28.8851C0 27.4858 1.13441 26.3514 2.53378 26.3514C3.93315 26.3514 5.06757 27.4858 5.06757 28.8851Z" fill="#8DFFDB"/>
<path d="M18.2432 28.8851C18.2432 30.2845 17.1088 31.4189 15.7095 31.4189C14.3101 31.4189 13.1757 30.2845 13.1757 28.8851C13.1757 27.4858 14.3101 26.3514 15.7095 26.3514C17.1088 26.3514 18.2432 27.4858 18.2432 28.8851Z" fill="#8DFFDB"/>
<path d="M31.4189 28.8851C31.4189 30.2845 30.2845 31.4189 28.8851 31.4189C27.4858 31.4189 26.3514 30.2845 26.3514 28.8851C26.3514 27.4858 27.4858 26.3514 28.8851 26.3514C30.2845 26.3514 31.4189 27.4858 31.4189 28.8851Z" fill="#8DFFDB"/>
<path d="M44.5946 28.8851C44.5946 30.2845 43.4602 31.4189 42.0608 31.4189C40.6614 31.4189 39.527 30.2845 39.527 28.8851C39.527 27.4858 40.6614 26.3514 42.0608 26.3514C43.4602 26.3514 44.5946 27.4858 44.5946 28.8851Z" fill="#8DFFDB"/>
<path d="M57.7703 28.8851C57.7703 30.2845 56.6359 31.4189 55.2365 31.4189C53.8371 31.4189 52.7027 30.2845 52.7027 28.8851C52.7027 27.4858 53.8371 26.3514 55.2365 26.3514C56.6359 26.3514 57.7703 27.4858 57.7703 28.8851Z" fill="#8DFFDB"/>
<path d="M70.946 28.8851C70.946 30.2845 69.8115 31.4189 68.4122 31.4189C67.0128 31.4189 65.8784 30.2845 65.8784 28.8851C65.8784 27.4858 67.0128 26.3514 68.4122 26.3514C69.8115 26.3514 70.946 27.4858 70.946 28.8851Z" fill="#8DFFDB"/>
<path d="M84.1216 28.8851C84.1216 30.2845 82.9872 31.4189 81.5878 31.4189C80.1885 31.4189 79.0541 30.2845 79.0541 28.8851C79.0541 27.4858 80.1885 26.3514 81.5878 26.3514C82.9872 26.3514 84.1216 27.4858 84.1216 28.8851Z" fill="#8DFFDB"/>
<path d="M97.2973 28.8851C97.2973 30.2845 96.1629 31.4189 94.7635 31.4189C93.3642 31.4189 92.2297 30.2845 92.2297 28.8851C92.2297 27.4858 93.3642 26.3514 94.7635 26.3514C96.1629 26.3514 97.2973 27.4858 97.2973 28.8851Z" fill="#8DFFDB"/>
<path d="M110.473 28.8851C110.473 30.2845 109.339 31.4189 107.939 31.4189C106.54 31.4189 105.405 30.2845 105.405 28.8851C105.405 27.4858 106.54 26.3514 107.939 26.3514C109.339 26.3514 110.473 27.4858 110.473 28.8851Z" fill="#8DFFDB"/>
<path d="M123.649 28.8851C123.649 30.2845 122.514 31.4189 121.115 31.4189C119.715 31.4189 118.581 30.2845 118.581 28.8851C118.581 27.4858 119.715 26.3514 121.115 26.3514C122.514 26.3514 123.649 27.4858 123.649 28.8851Z" fill="#8DFFDB"/>
<path d="M136.824 28.8851C136.824 30.2845 135.69 31.4189 134.291 31.4189C132.891 31.4189 131.757 30.2845 131.757 28.8851C131.757 27.4858 132.891 26.3514 134.291 26.3514C135.69 26.3514 136.824 27.4858 136.824 28.8851Z" fill="#8DFFDB"/>
<path d="M150 28.8851C150 30.2845 148.866 31.4189 147.466 31.4189C146.067 31.4189 144.932 30.2845 144.932 28.8851C144.932 27.4858 146.067 26.3514 147.466 26.3514C148.866 26.3514 150 27.4858 150 28.8851Z" fill="#8DFFDB"/>
<path d="M5.06757 42.0608C5.06757 43.4602 3.93315 44.5946 2.53378 44.5946C1.13441 44.5946 0 43.4602 0 42.0608C0 40.6614 1.13441 39.527 2.53378 39.527C3.93315 39.527 5.06757 40.6614 5.06757 42.0608Z" fill="#8DFFDB"/>
<path d="M18.2432 42.0608C18.2432 43.4602 17.1088 44.5946 15.7095 44.5946C14.3101 44.5946 13.1757 43.4602 13.1757 42.0608C13.1757 40.6614 14.3101 39.527 15.7095 39.527C17.1088 39.527 18.2432 40.6614 18.2432 42.0608Z" fill="#8DFFDB"/>
<path d="M31.4189 42.0608C31.4189 43.4602 30.2845 44.5946 28.8851 44.5946C27.4858 44.5946 26.3514 43.4602 26.3514 42.0608C26.3514 40.6614 27.4858 39.527 28.8851 39.527C30.2845 39.527 31.4189 40.6614 31.4189 42.0608Z" fill="#8DFFDB"/>
<path d="M44.5946 42.0608C44.5946 43.4602 43.4602 44.5946 42.0608 44.5946C40.6614 44.5946 39.527 43.4602 39.527 42.0608C39.527 40.6614 40.6614 39.527 42.0608 39.527C43.4602 39.527 44.5946 40.6614 44.5946 42.0608Z" fill="#8DFFDB"/>
<path d="M57.7703 42.0608C57.7703 43.4602 56.6359 44.5946 55.2365 44.5946C53.8371 44.5946 52.7027 43.4602 52.7027 42.0608C52.7027 40.6614 53.8371 39.527 55.2365 39.527C56.6359 39.527 57.7703 40.6614 57.7703 42.0608Z" fill="#8DFFDB"/>
<path d="M70.946 42.0608C70.946 43.4602 69.8115 44.5946 68.4122 44.5946C67.0128 44.5946 65.8784 43.4602 65.8784 42.0608C65.8784 40.6614 67.0128 39.527 68.4122 39.527C69.8115 39.527 70.946 40.6614 70.946 42.0608Z" fill="#8DFFDB"/>
<path d="M84.1216 42.0608C84.1216 43.4602 82.9872 44.5946 81.5878 44.5946C80.1885 44.5946 79.0541 43.4602 79.0541 42.0608C79.0541 40.6614 80.1885 39.527 81.5878 39.527C82.9872 39.527 84.1216 40.6614 84.1216 42.0608Z" fill="#8DFFDB"/>
<path d="M97.2973 42.0608C97.2973 43.4602 96.1629 44.5946 94.7635 44.5946C93.3642 44.5946 92.2297 43.4602 92.2297 42.0608C92.2297 40.6614 93.3642 39.527 94.7635 39.527C96.1629 39.527 97.2973 40.6614 97.2973 42.0608Z" fill="#8DFFDB"/>
<path d="M110.473 42.0608C110.473 43.4602 109.339 44.5946 107.939 44.5946C106.54 44.5946 105.405 43.4602 105.405 42.0608C105.405 40.6614 106.54 39.527 107.939 39.527C109.339 39.527 110.473 40.6614 110.473 42.0608Z" fill="#8DFFDB"/>
<path d="M123.649 42.0608C123.649 43.4602 122.514 44.5946 121.115 44.5946C119.715 44.5946 118.581 43.4602 118.581 42.0608C118.581 40.6614 119.715 39.527 121.115 39.527C122.514 39.527 123.649 40.6614 123.649 42.0608Z" fill="#8DFFDB"/>
<path d="M136.824 42.0608C136.824 43.4602 135.69 44.5946 134.291 44.5946C132.891 44.5946 131.757 43.4602 131.757 42.0608C131.757 40.6614 132.891 39.527 134.291 39.527C135.69 39.527 136.824 40.6614 136.824 42.0608Z" fill="#8DFFDB"/>
<path d="M150 42.0608C150 43.4602 148.866 44.5946 147.466 44.5946C146.067 44.5946 144.932 43.4602 144.932 42.0608C144.932 40.6614 146.067 39.527 147.466 39.527C148.866 39.527 150 40.6614 150 42.0608Z" fill="#8DFFDB"/>
<path d="M5.06757 55.2365C5.06757 56.6359 3.93315 57.7703 2.53378 57.7703C1.13441 57.7703 0 56.6359 0 55.2365C0 53.8371 1.13441 52.7027 2.53378 52.7027C3.93315 52.7027 5.06757 53.8371 5.06757 55.2365Z" fill="#8DFFDB"/>
<path d="M18.2432 55.2365C18.2432 56.6359 17.1088 57.7703 15.7095 57.7703C14.3101 57.7703 13.1757 56.6359 13.1757 55.2365C13.1757 53.8371 14.3101 52.7027 15.7095 52.7027C17.1088 52.7027 18.2432 53.8371 18.2432 55.2365Z" fill="#8DFFDB"/>
<path d="M31.4189 55.2365C31.4189 56.6359 30.2845 57.7703 28.8851 57.7703C27.4858 57.7703 26.3514 56.6359 26.3514 55.2365C26.3514 53.8371 27.4858 52.7027 28.8851 52.7027C30.2845 52.7027 31.4189 53.8371 31.4189 55.2365Z" fill="#8DFFDB"/>
<path d="M44.5946 55.2365C44.5946 56.6359 43.4602 57.7703 42.0608 57.7703C40.6614 57.7703 39.527 56.6359 39.527 55.2365C39.527 53.8371 40.6614 52.7027 42.0608 52.7027C43.4602 52.7027 44.5946 53.8371 44.5946 55.2365Z" fill="#8DFFDB"/>
<path d="M57.7703 55.2365C57.7703 56.6359 56.6359 57.7703 55.2365 57.7703C53.8371 57.7703 52.7027 56.6359 52.7027 55.2365C52.7027 53.8371 53.8371 52.7027 55.2365 52.7027C56.6359 52.7027 57.7703 53.8371 57.7703 55.2365Z" fill="#8DFFDB"/>
<path d="M70.946 55.2365C70.946 56.6359 69.8115 57.7703 68.4122 57.7703C67.0128 57.7703 65.8784 56.6359 65.8784 55.2365C65.8784 53.8371 67.0128 52.7027 68.4122 52.7027C69.8115 52.7027 70.946 53.8371 70.946 55.2365Z" fill="#8DFFDB"/>
<path d="M84.1216 55.2365C84.1216 56.6359 82.9872 57.7703 81.5878 57.7703C80.1885 57.7703 79.0541 56.6359 79.0541 55.2365C79.0541 53.8371 80.1885 52.7027 81.5878 52.7027C82.9872 52.7027 84.1216 53.8371 84.1216 55.2365Z" fill="#8DFFDB"/>
<path d="M97.2973 55.2365C97.2973 56.6359 96.1629 57.7703 94.7635 57.7703C93.3642 57.7703 92.2297 56.6359 92.2297 55.2365C92.2297 53.8371 93.3642 52.7027 94.7635 52.7027C96.1629 52.7027 97.2973 53.8371 97.2973 55.2365Z" fill="#8DFFDB"/>
<path d="M110.473 55.2365C110.473 56.6359 109.339 57.7703 107.939 57.7703C106.54 57.7703 105.405 56.6359 105.405 55.2365C105.405 53.8371 106.54 52.7027 107.939 52.7027C109.339 52.7027 110.473 53.8371 110.473 55.2365Z" fill="#8DFFDB"/>
<path d="M123.649 55.2365C123.649 56.6359 122.514 57.7703 121.115 57.7703C119.715 57.7703 118.581 56.6359 118.581 55.2365C118.581 53.8371 119.715 52.7027 121.115 52.7027C122.514 52.7027 123.649 53.8371 123.649 55.2365Z" fill="#8DFFDB"/>
<path d="M136.824 55.2365C136.824 56.6359 135.69 57.7703 134.291 57.7703C132.891 57.7703 131.757 56.6359 131.757 55.2365C131.757 53.8371 132.891 52.7027 134.291 52.7027C135.69 52.7027 136.824 53.8371 136.824 55.2365Z" fill="#8DFFDB"/>
<path d="M150 55.2365C150 56.6359 148.866 57.7703 147.466 57.7703C146.067 57.7703 144.932 56.6359 144.932 55.2365C144.932 53.8371 146.067 52.7027 147.466 52.7027C148.866 52.7027 150 53.8371 150 55.2365Z" fill="#8DFFDB"/>
<path d="M5.06757 68.4122C5.06757 69.8115 3.93315 70.946 2.53378 70.946C1.13441 70.946 0 69.8115 0 68.4122C0 67.0128 1.13441 65.8784 2.53378 65.8784C3.93315 65.8784 5.06757 67.0128 5.06757 68.4122Z" fill="#8DFFDB"/>
<path d="M18.2432 68.4122C18.2432 69.8115 17.1088 70.946 15.7095 70.946C14.3101 70.946 13.1757 69.8115 13.1757 68.4122C13.1757 67.0128 14.3101 65.8784 15.7095 65.8784C17.1088 65.8784 18.2432 67.0128 18.2432 68.4122Z" fill="#8DFFDB"/>
<path d="M31.4189 68.4122C31.4189 69.8115 30.2845 70.946 28.8851 70.946C27.4858 70.946 26.3514 69.8115 26.3514 68.4122C26.3514 67.0128 27.4858 65.8784 28.8851 65.8784C30.2845 65.8784 31.4189 67.0128 31.4189 68.4122Z" fill="#8DFFDB"/>
<path d="M44.5946 68.4122C44.5946 69.8115 43.4602 70.946 42.0608 70.946C40.6614 70.946 39.527 69.8115 39.527 68.4122C39.527 67.0128 40.6614 65.8784 42.0608 65.8784C43.4602 65.8784 44.5946 67.0128 44.5946 68.4122Z" fill="#8DFFDB"/>
<path d="M57.7703 68.4122C57.7703 69.8115 56.6359 70.946 55.2365 70.946C53.8371 70.946 52.7027 69.8115 52.7027 68.4122C52.7027 67.0128 53.8371 65.8784 55.2365 65.8784C56.6359 65.8784 57.7703 67.0128 57.7703 68.4122Z" fill="#8DFFDB"/>
<path d="M70.946 68.4122C70.946 69.8115 69.8115 70.946 68.4122 70.946C67.0128 70.946 65.8784 69.8115 65.8784 68.4122C65.8784 67.0128 67.0128 65.8784 68.4122 65.8784C69.8115 65.8784 70.946 67.0128 70.946 68.4122Z" fill="#8DFFDB"/>
<path d="M84.1216 68.4122C84.1216 69.8115 82.9872 70.946 81.5878 70.946C80.1885 70.946 79.0541 69.8115 79.0541 68.4122C79.0541 67.0128 80.1885 65.8784 81.5878 65.8784C82.9872 65.8784 84.1216 67.0128 84.1216 68.4122Z" fill="#8DFFDB"/>
<path d="M97.2973 68.4122C97.2973 69.8115 96.1629 70.946 94.7635 70.946C93.3642 70.946 92.2297 69.8115 92.2297 68.4122C92.2297 67.0128 93.3642 65.8784 94.7635 65.8784C96.1629 65.8784 97.2973 67.0128 97.2973 68.4122Z" fill="#8DFFDB"/>
<path d="M110.473 68.4122C110.473 69.8115 109.339 70.946 107.939 70.946C106.54 70.946 105.405 69.8115 105.405 68.4122C105.405 67.0128 106.54 65.8784 107.939 65.8784C109.339 65.8784 110.473 67.0128 110.473 68.4122Z" fill="#8DFFDB"/>
<path d="M123.649 68.4122C123.649 69.8115 122.514 70.946 121.115 70.946C119.715 70.946 118.581 69.8115 118.581 68.4122C118.581 67.0128 119.715 65.8784 121.115 65.8784C122.514 65.8784 123.649 67.0128 123.649 68.4122Z" fill="#8DFFDB"/>
<path d="M136.824 68.4122C136.824 69.8115 135.69 70.946 134.291 70.946C132.891 70.946 131.757 69.8115 131.757 68.4122C131.757 67.0128 132.891 65.8784 134.291 65.8784C135.69 65.8784 136.824 67.0128 136.824 68.4122Z" fill="#8DFFDB"/>
<path d="M150 68.4122C150 69.8115 148.866 70.946 147.466 70.946C146.067 70.946 144.932 69.8115 144.932 68.4122C144.932 67.0128 146.067 65.8784 147.466 65.8784C148.866 65.8784 150 67.0128 150 68.4122Z" fill="#8DFFDB"/>
<path d="M5.06757 81.5878C5.06757 82.9872 3.93315 84.1216 2.53378 84.1216C1.13441 84.1216 0 82.9872 0 81.5878C0 80.1885 1.13441 79.0541 2.53378 79.0541C3.93315 79.0541 5.06757 80.1885 5.06757 81.5878Z" fill="#8DFFDB"/>
<path d="M18.2432 81.5878C18.2432 82.9872 17.1088 84.1216 15.7095 84.1216C14.3101 84.1216 13.1757 82.9872 13.1757 81.5878C13.1757 80.1885 14.3101 79.0541 15.7095 79.0541C17.1088 79.0541 18.2432 80.1885 18.2432 81.5878Z" fill="#8DFFDB"/>
<path d="M31.4189 81.5878C31.4189 82.9872 30.2845 84.1216 28.8851 84.1216C27.4858 84.1216 26.3514 82.9872 26.3514 81.5878C26.3514 80.1885 27.4858 79.0541 28.8851 79.0541C30.2845 79.0541 31.4189 80.1885 31.4189 81.5878Z" fill="#8DFFDB"/>
<path d="M44.5946 81.5878C44.5946 82.9872 43.4602 84.1216 42.0608 84.1216C40.6614 84.1216 39.527 82.9872 39.527 81.5878C39.527 80.1885 40.6614 79.0541 42.0608 79.0541C43.4602 79.0541 44.5946 80.1885 44.5946 81.5878Z" fill="#8DFFDB"/>
<path d="M57.7703 81.5878C57.7703 82.9872 56.6359 84.1216 55.2365 84.1216C53.8371 84.1216 52.7027 82.9872 52.7027 81.5878C52.7027 80.1885 53.8371 79.0541 55.2365 79.0541C56.6359 79.0541 57.7703 80.1885 57.7703 81.5878Z" fill="#8DFFDB"/>
<path d="M70.946 81.5878C70.946 82.9872 69.8115 84.1216 68.4122 84.1216C67.0128 84.1216 65.8784 82.9872 65.8784 81.5878C65.8784 80.1885 67.0128 79.0541 68.4122 79.0541C69.8115 79.0541 70.946 80.1885 70.946 81.5878Z" fill="#8DFFDB"/>
<path d="M84.1216 81.5878C84.1216 82.9872 82.9872 84.1216 81.5878 84.1216C80.1885 84.1216 79.0541 82.9872 79.0541 81.5878C79.0541 80.1885 80.1885 79.0541 81.5878 79.0541C82.9872 79.0541 84.1216 80.1885 84.1216 81.5878Z" fill="#8DFFDB"/>
<path d="M97.2973 81.5878C97.2973 82.9872 96.1629 84.1216 94.7635 84.1216C93.3642 84.1216 92.2297 82.9872 92.2297 81.5878C92.2297 80.1885 93.3642 79.0541 94.7635 79.0541C96.1629 79.0541 97.2973 80.1885 97.2973 81.5878Z" fill="#8DFFDB"/>
<path d="M110.473 81.5878C110.473 82.9872 109.339 84.1216 107.939 84.1216C106.54 84.1216 105.405 82.9872 105.405 81.5878C105.405 80.1885 106.54 79.0541 107.939 79.0541C109.339 79.0541 110.473 80.1885 110.473 81.5878Z" fill="#8DFFDB"/>
<path d="M123.649 81.5878C123.649 82.9872 122.514 84.1216 121.115 84.1216C119.715 84.1216 118.581 82.9872 118.581 81.5878C118.581 80.1885 119.715 79.0541 121.115 79.0541C122.514 79.0541 123.649 80.1885 123.649 81.5878Z" fill="#8DFFDB"/>
<path d="M136.824 81.5878C136.824 82.9872 135.69 84.1216 134.291 84.1216C132.891 84.1216 131.757 82.9872 131.757 81.5878C131.757 80.1885 132.891 79.0541 134.291 79.0541C135.69 79.0541 136.824 80.1885 136.824 81.5878Z" fill="#8DFFDB"/>
<path d="M150 81.5878C150 82.9872 148.866 84.1216 147.466 84.1216C146.067 84.1216 144.932 82.9872 144.932 81.5878C144.932 80.1885 146.067 79.0541 147.466 79.0541C148.866 79.0541 150 80.1885 150 81.5878Z" fill="#8DFFDB"/>
<path d="M5.06757 94.7635C5.06757 96.1629 3.93315 97.2973 2.53378 97.2973C1.13441 97.2973 0 96.1629 0 94.7635C0 93.3642 1.13441 92.2297 2.53378 92.2297C3.93315 92.2297 5.06757 93.3642 5.06757 94.7635Z" fill="#8DFFDB"/>
<path d="M18.2432 94.7635C18.2432 96.1629 17.1088 97.2973 15.7095 97.2973C14.3101 97.2973 13.1757 96.1629 13.1757 94.7635C13.1757 93.3642 14.3101 92.2297 15.7095 92.2297C17.1088 92.2297 18.2432 93.3642 18.2432 94.7635Z" fill="#8DFFDB"/>
<path d="M31.4189 94.7635C31.4189 96.1629 30.2845 97.2973 28.8851 97.2973C27.4858 97.2973 26.3514 96.1629 26.3514 94.7635C26.3514 93.3642 27.4858 92.2297 28.8851 92.2297C30.2845 92.2297 31.4189 93.3642 31.4189 94.7635Z" fill="#8DFFDB"/>
<path d="M44.5946 94.7635C44.5946 96.1629 43.4602 97.2973 42.0608 97.2973C40.6614 97.2973 39.527 96.1629 39.527 94.7635C39.527 93.3642 40.6614 92.2297 42.0608 92.2297C43.4602 92.2297 44.5946 93.3642 44.5946 94.7635Z" fill="#8DFFDB"/>
<path d="M57.7703 94.7635C57.7703 96.1629 56.6359 97.2973 55.2365 97.2973C53.8371 97.2973 52.7027 96.1629 52.7027 94.7635C52.7027 93.3642 53.8371 92.2297 55.2365 92.2297C56.6359 92.2297 57.7703 93.3642 57.7703 94.7635Z" fill="#8DFFDB"/>
<path d="M70.946 94.7635C70.946 96.1629 69.8115 97.2973 68.4122 97.2973C67.0128 97.2973 65.8784 96.1629 65.8784 94.7635C65.8784 93.3642 67.0128 92.2297 68.4122 92.2297C69.8115 92.2297 70.946 93.3642 70.946 94.7635Z" fill="#8DFFDB"/>
<path d="M84.1216 94.7635C84.1216 96.1629 82.9872 97.2973 81.5878 97.2973C80.1885 97.2973 79.0541 96.1629 79.0541 94.7635C79.0541 93.3642 80.1885 92.2297 81.5878 92.2297C82.9872 92.2297 84.1216 93.3642 84.1216 94.7635Z" fill="#8DFFDB"/>
<path d="M97.2973 94.7635C97.2973 96.1629 96.1629 97.2973 94.7635 97.2973C93.3642 97.2973 92.2297 96.1629 92.2297 94.7635C92.2297 93.3642 93.3642 92.2297 94.7635 92.2297C96.1629 92.2297 97.2973 93.3642 97.2973 94.7635Z" fill="#8DFFDB"/>
<path d="M110.473 94.7635C110.473 96.1629 109.339 97.2973 107.939 97.2973C106.54 97.2973 105.405 96.1629 105.405 94.7635C105.405 93.3642 106.54 92.2297 107.939 92.2297C109.339 92.2297 110.473 93.3642 110.473 94.7635Z" fill="#8DFFDB"/>
<path d="M123.649 94.7635C123.649 96.1629 122.514 97.2973 121.115 97.2973C119.715 97.2973 118.581 96.1629 118.581 94.7635C118.581 93.3642 119.715 92.2297 121.115 92.2297C122.514 92.2297 123.649 93.3642 123.649 94.7635Z" fill="#8DFFDB"/>
<path d="M136.824 94.7635C136.824 96.1629 135.69 97.2973 134.291 97.2973C132.891 97.2973 131.757 96.1629 131.757 94.7635C131.757 93.3642 132.891 92.2297 134.291 92.2297C135.69 92.2297 136.824 93.3642 136.824 94.7635Z" fill="#8DFFDB"/>
<path d="M150 94.7635C150 96.1629 148.866 97.2973 147.466 97.2973C146.067 97.2973 144.932 96.1629 144.932 94.7635C144.932 93.3642 146.067 92.2297 147.466 92.2297C148.866 92.2297 150 93.3642 150 94.7635Z" fill="#8DFFDB"/>
<path d="M5.06757 107.939C5.06757 109.339 3.93315 110.473 2.53378 110.473C1.13441 110.473 0 109.339 0 107.939C0 106.54 1.13441 105.405 2.53378 105.405C3.93315 105.405 5.06757 106.54 5.06757 107.939Z" fill="#8DFFDB"/>
<path d="M18.2432 107.939C18.2432 109.339 17.1088 110.473 15.7095 110.473C14.3101 110.473 13.1757 109.339 13.1757 107.939C13.1757 106.54 14.3101 105.405 15.7095 105.405C17.1088 105.405 18.2432 106.54 18.2432 107.939Z" fill="#8DFFDB"/>
<path d="M31.4189 107.939C31.4189 109.339 30.2845 110.473 28.8851 110.473C27.4858 110.473 26.3514 109.339 26.3514 107.939C26.3514 106.54 27.4858 105.405 28.8851 105.405C30.2845 105.405 31.4189 106.54 31.4189 107.939Z" fill="#8DFFDB"/>
<path d="M44.5946 107.939C44.5946 109.339 43.4602 110.473 42.0608 110.473C40.6614 110.473 39.527 109.339 39.527 107.939C39.527 106.54 40.6614 105.405 42.0608 105.405C43.4602 105.405 44.5946 106.54 44.5946 107.939Z" fill="#8DFFDB"/>
<path d="M57.7703 107.939C57.7703 109.339 56.6359 110.473 55.2365 110.473C53.8371 110.473 52.7027 109.339 52.7027 107.939C52.7027 106.54 53.8371 105.405 55.2365 105.405C56.6359 105.405 57.7703 106.54 57.7703 107.939Z" fill="#8DFFDB"/>
<path d="M70.946 107.939C70.946 109.339 69.8115 110.473 68.4122 110.473C67.0128 110.473 65.8784 109.339 65.8784 107.939C65.8784 106.54 67.0128 105.405 68.4122 105.405C69.8115 105.405 70.946 106.54 70.946 107.939Z" fill="#8DFFDB"/>
<path d="M84.1216 107.939C84.1216 109.339 82.9872 110.473 81.5878 110.473C80.1885 110.473 79.0541 109.339 79.0541 107.939C79.0541 106.54 80.1885 105.405 81.5878 105.405C82.9872 105.405 84.1216 106.54 84.1216 107.939Z" fill="#8DFFDB"/>
<path d="M97.2973 107.939C97.2973 109.339 96.1629 110.473 94.7635 110.473C93.3642 110.473 92.2297 109.339 92.2297 107.939C92.2297 106.54 93.3642 105.405 94.7635 105.405C96.1629 105.405 97.2973 106.54 97.2973 107.939Z" fill="#8DFFDB"/>
<path d="M110.473 107.939C110.473 109.339 109.339 110.473 107.939 110.473C106.54 110.473 105.405 109.339 105.405 107.939C105.405 106.54 106.54 105.405 107.939 105.405C109.339 105.405 110.473 106.54 110.473 107.939Z" fill="#8DFFDB"/>
<path d="M123.649 107.939C123.649 109.339 122.514 110.473 121.115 110.473C119.715 110.473 118.581 109.339 118.581 107.939C118.581 106.54 119.715 105.405 121.115 105.405C122.514 105.405 123.649 106.54 123.649 107.939Z" fill="#8DFFDB"/>
<path d="M136.824 107.939C136.824 109.339 135.69 110.473 134.291 110.473C132.891 110.473 131.757 109.339 131.757 107.939C131.757 106.54 132.891 105.405 134.291 105.405C135.69 105.405 136.824 106.54 136.824 107.939Z" fill="#8DFFDB"/>
<path d="M150 107.939C150 109.339 148.866 110.473 147.466 110.473C146.067 110.473 144.932 109.339 144.932 107.939C144.932 106.54 146.067 105.405 147.466 105.405C148.866 105.405 150 106.54 150 107.939Z" fill="#8DFFDB"/>
<path d="M5.06757 121.115C5.06757 122.514 3.93315 123.649 2.53378 123.649C1.13441 123.649 0 122.514 0 121.115C0 119.715 1.13441 118.581 2.53378 118.581C3.93315 118.581 5.06757 119.715 5.06757 121.115Z" fill="#8DFFDB"/>
<path d="M18.2432 121.115C18.2432 122.514 17.1088 123.649 15.7095 123.649C14.3101 123.649 13.1757 122.514 13.1757 121.115C13.1757 119.715 14.3101 118.581 15.7095 118.581C17.1088 118.581 18.2432 119.715 18.2432 121.115Z" fill="#8DFFDB"/>
<path d="M31.4189 121.115C31.4189 122.514 30.2845 123.649 28.8851 123.649C27.4858 123.649 26.3514 122.514 26.3514 121.115C26.3514 119.715 27.4858 118.581 28.8851 118.581C30.2845 118.581 31.4189 119.715 31.4189 121.115Z" fill="#8DFFDB"/>
<path d="M44.5946 121.115C44.5946 122.514 43.4602 123.649 42.0608 123.649C40.6614 123.649 39.527 122.514 39.527 121.115C39.527 119.715 40.6614 118.581 42.0608 118.581C43.4602 118.581 44.5946 119.715 44.5946 121.115Z" fill="#8DFFDB"/>
<path d="M57.7703 121.115C57.7703 122.514 56.6359 123.649 55.2365 123.649C53.8371 123.649 52.7027 122.514 52.7027 121.115C52.7027 119.715 53.8371 118.581 55.2365 118.581C56.6359 118.581 57.7703 119.715 57.7703 121.115Z" fill="#8DFFDB"/>
<path d="M70.946 121.115C70.946 122.514 69.8115 123.649 68.4122 123.649C67.0128 123.649 65.8784 122.514 65.8784 121.115C65.8784 119.715 67.0128 118.581 68.4122 118.581C69.8115 118.581 70.946 119.715 70.946 121.115Z" fill="#8DFFDB"/>
<path d="M84.1216 121.115C84.1216 122.514 82.9872 123.649 81.5878 123.649C80.1885 123.649 79.0541 122.514 79.0541 121.115C79.0541 119.715 80.1885 118.581 81.5878 118.581C82.9872 118.581 84.1216 119.715 84.1216 121.115Z" fill="#8DFFDB"/>
<path d="M97.2973 121.115C97.2973 122.514 96.1629 123.649 94.7635 123.649C93.3642 123.649 92.2297 122.514 92.2297 121.115C92.2297 119.715 93.3642 118.581 94.7635 118.581C96.1629 118.581 97.2973 119.715 97.2973 121.115Z" fill="#8DFFDB"/>
<path d="M110.473 121.115C110.473 122.514 109.339 123.649 107.939 123.649C106.54 123.649 105.405 122.514 105.405 121.115C105.405 119.715 106.54 118.581 107.939 118.581C109.339 118.581 110.473 119.715 110.473 121.115Z" fill="#8DFFDB"/>
<path d="M123.649 121.115C123.649 122.514 122.514 123.649 121.115 123.649C119.715 123.649 118.581 122.514 118.581 121.115C118.581 119.715 119.715 118.581 121.115 118.581C122.514 118.581 123.649 119.715 123.649 121.115Z" fill="#8DFFDB"/>
<path d="M136.824 121.115C136.824 122.514 135.69 123.649 134.291 123.649C132.891 123.649 131.757 122.514 131.757 121.115C131.757 119.715 132.891 118.581 134.291 118.581C135.69 118.581 136.824 119.715 136.824 121.115Z" fill="#8DFFDB"/>
<path d="M150 121.115C150 122.514 148.866 123.649 147.466 123.649C146.067 123.649 144.932 122.514 144.932 121.115C144.932 119.715 146.067 118.581 147.466 118.581C148.866 118.581 150 119.715 150 121.115Z" fill="#8DFFDB"/>
<path d="M5.06757 134.291C5.06757 135.69 3.93315 136.824 2.53378 136.824C1.13441 136.824 0 135.69 0 134.291C0 132.891 1.13441 131.757 2.53378 131.757C3.93315 131.757 5.06757 132.891 5.06757 134.291Z" fill="#8DFFDB"/>
<path d="M18.2432 134.291C18.2432 135.69 17.1088 136.824 15.7095 136.824C14.3101 136.824 13.1757 135.69 13.1757 134.291C13.1757 132.891 14.3101 131.757 15.7095 131.757C17.1088 131.757 18.2432 132.891 18.2432 134.291Z" fill="#8DFFDB"/>
<path d="M31.4189 134.291C31.4189 135.69 30.2845 136.824 28.8851 136.824C27.4858 136.824 26.3514 135.69 26.3514 134.291C26.3514 132.891 27.4858 131.757 28.8851 131.757C30.2845 131.757 31.4189 132.891 31.4189 134.291Z" fill="#8DFFDB"/>
<path d="M44.5946 134.291C44.5946 135.69 43.4602 136.824 42.0608 136.824C40.6614 136.824 39.527 135.69 39.527 134.291C39.527 132.891 40.6614 131.757 42.0608 131.757C43.4602 131.757 44.5946 132.891 44.5946 134.291Z" fill="#8DFFDB"/>
<path d="M57.7703 134.291C57.7703 135.69 56.6359 136.824 55.2365 136.824C53.8371 136.824 52.7027 135.69 52.7027 134.291C52.7027 132.891 53.8371 131.757 55.2365 131.757C56.6359 131.757 57.7703 132.891 57.7703 134.291Z" fill="#8DFFDB"/>
<path d="M70.946 134.291C70.946 135.69 69.8115 136.824 68.4122 136.824C67.0128 136.824 65.8784 135.69 65.8784 134.291C65.8784 132.891 67.0128 131.757 68.4122 131.757C69.8115 131.757 70.946 132.891 70.946 134.291Z" fill="#8DFFDB"/>
<path d="M84.1216 134.291C84.1216 135.69 82.9872 136.824 81.5878 136.824C80.1885 136.824 79.0541 135.69 79.0541 134.291C79.0541 132.891 80.1885 131.757 81.5878 131.757C82.9872 131.757 84.1216 132.891 84.1216 134.291Z" fill="#8DFFDB"/>
<path d="M97.2973 134.291C97.2973 135.69 96.1629 136.824 94.7635 136.824C93.3642 136.824 92.2297 135.69 92.2297 134.291C92.2297 132.891 93.3642 131.757 94.7635 131.757C96.1629 131.757 97.2973 132.891 97.2973 134.291Z" fill="#8DFFDB"/>
<path d="M110.473 134.291C110.473 135.69 109.339 136.824 107.939 136.824C106.54 136.824 105.405 135.69 105.405 134.291C105.405 132.891 106.54 131.757 107.939 131.757C109.339 131.757 110.473 132.891 110.473 134.291Z" fill="#8DFFDB"/>
<path d="M123.649 134.291C123.649 135.69 122.514 136.824 121.115 136.824C119.715 136.824 118.581 135.69 118.581 134.291C118.581 132.891 119.715 131.757 121.115 131.757C122.514 131.757 123.649 132.891 123.649 134.291Z" fill="#8DFFDB"/>
<path d="M136.824 134.291C136.824 135.69 135.69 136.824 134.291 136.824C132.891 136.824 131.757 135.69 131.757 134.291C131.757 132.891 132.891 131.757 134.291 131.757C135.69 131.757 136.824 132.891 136.824 134.291Z" fill="#8DFFDB"/>
<path d="M150 134.291C150 135.69 148.866 136.824 147.466 136.824C146.067 136.824 144.932 135.69 144.932 134.291C144.932 132.891 146.067 131.757 147.466 131.757C148.866 131.757 150 132.891 150 134.291Z" fill="#8DFFDB"/>
<path d="M5.06757 147.466C5.06757 148.866 3.93315 150 2.53378 150C1.13441 150 0 148.866 0 147.466C0 146.067 1.13441 144.932 2.53378 144.932C3.93315 144.932 5.06757 146.067 5.06757 147.466Z" fill="#8DFFDB"/>
<path d="M18.2432 147.466C18.2432 148.866 17.1088 150 15.7095 150C14.3101 150 13.1757 148.866 13.1757 147.466C13.1757 146.067 14.3101 144.932 15.7095 144.932C17.1088 144.932 18.2432 146.067 18.2432 147.466Z" fill="#8DFFDB"/>
<path d="M31.4189 147.466C31.4189 148.866 30.2845 150 28.8851 150C27.4858 150 26.3514 148.866 26.3514 147.466C26.3514 146.067 27.4858 144.932 28.8851 144.932C30.2845 144.932 31.4189 146.067 31.4189 147.466Z" fill="#8DFFDB"/>
<path d="M44.5946 147.466C44.5946 148.866 43.4602 150 42.0608 150C40.6614 150 39.527 148.866 39.527 147.466C39.527 146.067 40.6614 144.932 42.0608 144.932C43.4602 144.932 44.5946 146.067 44.5946 147.466Z" fill="#8DFFDB"/>
<path d="M57.7703 147.466C57.7703 148.866 56.6359 150 55.2365 150C53.8371 150 52.7027 148.866 52.7027 147.466C52.7027 146.067 53.8371 144.932 55.2365 144.932C56.6359 144.932 57.7703 146.067 57.7703 147.466Z" fill="#8DFFDB"/>
<path d="M70.946 147.466C70.946 148.866 69.8115 150 68.4122 150C67.0128 150 65.8784 148.866 65.8784 147.466C65.8784 146.067 67.0128 144.932 68.4122 144.932C69.8115 144.932 70.946 146.067 70.946 147.466Z" fill="#8DFFDB"/>
<path d="M84.1216 147.466C84.1216 148.866 82.9872 150 81.5878 150C80.1885 150 79.0541 148.866 79.0541 147.466C79.0541 146.067 80.1885 144.932 81.5878 144.932C82.9872 144.932 84.1216 146.067 84.1216 147.466Z" fill="#8DFFDB"/>
<path d="M97.2973 147.466C97.2973 148.866 96.1629 150 94.7635 150C93.3642 150 92.2297 148.866 92.2297 147.466C92.2297 146.067 93.3642 144.932 94.7635 144.932C96.1629 144.932 97.2973 146.067 97.2973 147.466Z" fill="#8DFFDB"/>
<path d="M110.473 147.466C110.473 148.866 109.339 150 107.939 150C106.54 150 105.405 148.866 105.405 147.466C105.405 146.067 106.54 144.932 107.939 144.932C109.339 144.932 110.473 146.067 110.473 147.466Z" fill="#8DFFDB"/>
<path d="M123.649 147.466C123.649 148.866 122.514 150 121.115 150C119.715 150 118.581 148.866 118.581 147.466C118.581 146.067 119.715 144.932 121.115 144.932C122.514 144.932 123.649 146.067 123.649 147.466Z" fill="#8DFFDB"/>
<path d="M136.824 147.466C136.824 148.866 135.69 150 134.291 150C132.891 150 131.757 148.866 131.757 147.466C131.757 146.067 132.891 144.932 134.291 144.932C135.69 144.932 136.824 146.067 136.824 147.466Z" fill="#8DFFDB"/>
<path d="M150 147.466C150 148.866 148.866 150 147.466 150C146.067 150 144.932 148.866 144.932 147.466C144.932 146.067 146.067 144.932 147.466 144.932C148.866 144.932 150 146.067 150 147.466Z" fill="#8DFFDB"/>
</svg>
