<svg width="412" height="959" viewBox="0 0 412 959" fill="none" xmlns="http://www.w3.org/2000/svg">
<rect width="412" height="959" fill="#F0F4F7"/>
<path d="M149.464 935.536C151.417 937.488 154.583 937.488 156.535 935.536L188.355 903.716C190.308 901.763 190.308 898.597 188.355 896.645C186.403 894.692 183.237 894.692 181.284 896.645L153 924.929L124.716 896.645C122.763 894.692 119.597 894.692 117.645 896.645C115.692 898.597 115.692 901.763 117.645 903.716L149.464 935.536ZM148 22L148 932L158 932L158 22L148 22Z" fill="#FFE4EC"/>
<g filter="url(#filter0_d)">
<circle cx="152.5" cy="128.5" r="71.5" fill="white"/>
</g>
<path d="M134.395 122.363H138.133C138.836 122.348 139.453 122.508 139.984 122.844C140.336 123.047 140.609 123.324 140.805 123.676C140.992 124.066 141.086 124.547 141.086 125.117C141.086 125.805 140.855 126.43 140.395 126.992C139.91 127.57 139.188 127.867 138.227 127.883H134.395V122.363ZM131.805 137H134.395V130.332H138.332C140.09 130.301 141.426 129.738 142.34 128.645C143.23 127.605 143.676 126.453 143.676 125.188C143.676 124.25 143.5 123.438 143.148 122.75C142.812 122.039 142.375 121.492 141.836 121.109C141.195 120.602 140.562 120.266 139.938 120.102C139.312 119.977 138.664 119.914 137.992 119.914H131.805V137ZM145.809 134.047C145.809 135.117 146.113 135.879 146.723 136.332C147.301 136.777 148.035 137 148.926 137H150.016V134.691H149.172C148.562 134.691 148.258 134.414 148.258 133.859V119.914H145.809V134.047ZM158.383 137H160.832V128.691C160.816 127.207 160.352 126.16 159.438 125.551C158.523 124.957 157.301 124.668 155.77 124.684C153.957 124.652 152.586 125.246 151.656 126.465L153.578 127.93C153.789 127.578 154.078 127.328 154.445 127.18C154.797 127.055 155.277 126.992 155.887 126.992C157.566 126.961 158.398 127.48 158.383 128.551V129.828H154.996C153.699 129.844 152.715 130.195 152.043 130.883C151.371 131.555 151.035 132.402 151.035 133.426C151.035 134.496 151.422 135.375 152.195 136.062C152.93 136.766 153.977 137.125 155.336 137.141C156.164 137.141 156.812 137.039 157.281 136.836C157.758 136.641 158.109 136.336 158.336 135.922H158.383V137ZM158.383 132.723C158.383 133.637 158.191 134.223 157.809 134.48C157.387 134.738 156.664 134.859 155.641 134.844C154.828 134.844 154.246 134.684 153.895 134.363C153.527 134.074 153.344 133.723 153.344 133.309C153.328 132.363 154.031 131.875 155.453 131.844H158.383V132.723ZM163.996 137H166.445V129.758C166.445 128.906 166.676 128.258 167.137 127.812C167.59 127.359 168.168 127.133 168.871 127.133C169.574 127.133 170.148 127.359 170.594 127.812C171.047 128.258 171.273 128.906 171.273 129.758V137H173.723V128.914C173.684 127.523 173.25 126.469 172.422 125.75C171.586 125.039 170.664 124.684 169.656 124.684C168.352 124.684 167.297 125.164 166.492 126.125H166.445V124.836H163.996V137Z" fill="#FF5C7A"/>
<path d="M252.24 105.08H258.02V109.22H259.84V105.08H265.7V108.04H267.56V103.66H259.84V102.44H266.6V101.04H251.34V102.44H258.02V103.66H250.48V108.04H252.24V105.08ZM265.46 108.38C264.4 108 262.36 107.58 260.86 107.4L260.48 108.5C262 108.72 264.02 109.2 265.1 109.58L265.46 108.38ZM264.34 105.12C263.42 105.48 261.8 106.06 260.72 106.28L261.36 107.2C262.46 107 264 106.62 265.1 106.14L264.34 105.12ZM252.88 109.58C254.18 109.3 255.66 108.98 257.16 108.66L257.1 107.54C255.34 107.82 253.64 108.06 252.38 108.2L252.88 109.58ZM252.96 106.22C254.18 106.46 255.78 106.94 256.62 107.3L257.12 106.22C256.26 105.88 254.66 105.48 253.46 105.26L252.96 106.22ZM267.74 111.26V109.8H250.32V111.26H257.9C257.8 111.68 257.68 112.08 257.54 112.5H251.82V118.52H253.58V113.96H256.12V118.4H257.82V113.96H260.46V118.4H262.16V113.96H264.86V116.78C264.86 116.96 264.8 117.02 264.58 117.04C264.38 117.04 263.72 117.04 263 117.02C263.24 117.44 263.5 118.1 263.56 118.56C264.62 118.56 265.4 118.54 265.96 118.28C266.52 118.02 266.64 117.6 266.64 116.8V112.5H259.34C259.5 112.1 259.66 111.7 259.8 111.26H267.74ZM285.38 105.96C284.56 107.14 283.22 108.62 282.04 109.72C281.16 108.38 280.44 106.92 279.9 105.4V105.2H287.74V103.4H285.42L286.26 102.44C285.44 101.8 283.82 100.88 282.6 100.28L281.5 101.46C282.52 101.98 283.8 102.76 284.64 103.4H279.9V100.26H278V103.4H270.34V105.2H278V110.42C275.04 112.12 271.78 113.96 269.82 114.94L271.02 116.62C273 115.46 275.56 113.92 278 112.36V116.18C278 116.56 277.86 116.68 277.5 116.68C277.1 116.7 275.82 116.7 274.54 116.66C274.8 117.2 275.1 118.08 275.2 118.62C276.94 118.62 278.18 118.56 278.9 118.24C279.62 117.94 279.9 117.38 279.9 116.18V109.34C281.58 112.66 283.92 115.38 286.94 116.9C287.24 116.38 287.84 115.64 288.28 115.24C286.26 114.38 284.48 112.92 283.04 111.08C284.3 109.98 285.84 108.46 287.02 107.1L285.38 105.96ZM275.96 109.86C275.32 108.78 273.86 107.24 272.62 106.18L271.22 107.18C272.46 108.3 273.84 109.9 274.44 110.96L275.96 109.86ZM298 100.56V102.28H301.36C302.12 104.22 303.3 106.08 304.76 107.62H293.24C294.68 105.9 295.86 103.74 296.66 101.36L294.72 100.9C293.76 103.92 291.96 106.6 289.66 108.24C290.12 108.54 290.9 109.24 291.24 109.6C291.8 109.16 292.36 108.62 292.88 108.04V109.42H296.64C296.2 112.6 295.14 115.5 290.52 117.04C290.96 117.42 291.5 118.2 291.72 118.7C296.84 116.82 298.14 113.3 298.66 109.42H303.26C303.06 114.08 302.8 115.96 302.34 116.44C302.12 116.66 301.88 116.72 301.5 116.72C301.02 116.72 299.88 116.7 298.68 116.58C299 117.12 299.26 117.9 299.28 118.46C300.5 118.52 301.72 118.54 302.38 118.46C303.1 118.36 303.58 118.2 304.02 117.64C304.72 116.86 304.98 114.54 305.24 108.46C305.24 108.38 305.26 108.24 305.26 108.12C305.82 108.66 306.44 109.14 307.08 109.56C307.38 109.02 308 108.24 308.42 107.86C305.76 106.42 303.68 103.58 302.74 100.56H298ZM317.52 110.68C317.14 110.12 315.54 107.98 314.82 107.08V106.16H317.68V104.4H314.82V100.22H313.04V104.4H310.18V106.16H312.82C312.22 108.74 310.94 111.68 309.64 113.3C309.94 113.74 310.38 114.48 310.58 115.02C311.5 113.8 312.36 111.9 313.04 109.88V118.58H314.82V109.4C315.44 110.38 316.08 111.48 316.4 112.14L317.52 110.68ZM328.12 106.96H320.36V103.72C322.68 103.28 325.16 102.68 327.02 101.9L325.44 100.44C323.84 101.2 321.06 101.94 318.6 102.4V108.4C318.6 111.18 318.44 114.98 316.62 117.6C317.06 117.78 317.84 118.24 318.16 118.54C320 115.86 320.34 111.74 320.36 108.72H323.54V118.58H325.38V108.72H328.12V106.96ZM257.96 154.24C257.48 153.64 255.46 151.34 254.64 150.54C254.66 150.26 254.7 149.96 254.72 149.68H257.8V147.98H254.78V147.4V145.06H257.46V143.4H254.78V140.42H253.04V143.4H250.32V145.06H253.04V147.4V147.98H249.94V149.68H252.98C252.8 152.32 252.14 155.22 249.74 157C250.18 157.32 250.76 157.94 251.02 158.32C252.92 156.78 253.88 154.66 254.34 152.46C255.2 153.52 256.22 154.84 256.68 155.6L257.96 154.24ZM260.22 148.86H265.32V150.48H260.22V148.86ZM260.22 145.72H265.32V147.36H260.22V145.72ZM260.22 142.64H265.32V144.22H260.22V142.64ZM265.28 156.58C264.9 156.58 264.84 156.52 264.84 156.02V152.16H267.1V140.96H258.48V152.16H259.92C259.62 154.48 258.88 156.2 255.9 157.18C256.28 157.48 256.74 158.16 256.94 158.56C260.36 157.32 261.32 155.12 261.68 152.16H263.12V156.04C263.12 157.68 263.44 158.22 264.98 158.22H266.46C267.74 158.22 268.18 157.52 268.32 154.76C267.88 154.64 267.14 154.38 266.8 154.06C266.74 156.3 266.66 156.58 266.3 156.58H265.28ZM269.98 158.12C272.82 158 277.12 157.78 281.16 157.58L281.22 156.16C277.04 156.36 272.64 156.54 269.86 156.62L269.98 158.12ZM278.58 152.88H276.38V152.08H278.58V152.88ZM278.58 154.64H276.38V153.8H278.58V154.64ZM272.56 153.8H274.78V154.64H272.56V153.8ZM272.56 152.08H274.78V152.88H272.56V152.08ZM271.06 151.12V155.58H280.12V151.12H271.06ZM278.5 145.44H276.3V144.52H278.5V145.44ZM276.3 142.5H278.5V143.32H276.3V142.5ZM280.1 141.42H276.3V140.22H274.6V141.42H271.06V142.5H274.6V143.32H269.86V144.52H274.6V145.44H271V146.54H274.6V147.28H270.9V148.38H274.6V149.16H269.98V150.4H281.14V149.16H276.3V148.38H280.36V147.28H276.3V146.54H280.1V144.52H281.24V143.32H280.1V141.42ZM283.6 142.62H281.9V153.66H283.6V142.62ZM285.66 140.62V156.34C285.66 156.66 285.52 156.76 285.22 156.76C284.9 156.76 283.88 156.76 282.78 156.74C283.02 157.26 283.28 158.06 283.36 158.56C284.92 158.56 285.94 158.5 286.56 158.22C287.2 157.9 287.42 157.38 287.42 156.34V140.62H285.66ZM303.76 147.4H294.44V145.9H303.76V147.4ZM303.76 150.28H294.44V148.76H303.76V150.28ZM303.76 153.18H294.44V151.64H303.76V153.18ZM292.5 144.44V154.62H305.78V144.44H299.54C299.7 143.96 299.88 143.44 300.04 142.9H307.24V141.2H290.68V142.9H297.9C297.82 143.42 297.7 143.96 297.58 144.44H292.5ZM296.14 154.66C294.76 155.52 292.06 156.58 289.96 157.14C290.38 157.52 290.94 158.16 291.24 158.56C293.36 157.98 296.04 156.92 297.78 155.9L296.14 154.66ZM300.26 155.98C302.5 156.76 304.84 157.82 306.2 158.58L308 157.32C306.46 156.56 303.9 155.52 301.6 154.76L300.26 155.98ZM325.04 155.84H322.42V147.12H325.04V155.84ZM312.86 147.12H315.36V155.84H312.86V147.12ZM320.74 149H317.02V147.12H320.74V149ZM317.02 153.86H320.74V155.84H317.02V153.86ZM320.74 152.38H317.02V150.48H320.74V152.38ZM327.88 143.22V141.46H310.2V143.22H317.66C317.54 143.94 317.38 144.74 317.22 145.42H311.06V158.6H312.86V157.56H325.04V158.6H326.94V145.42H319.14C319.34 144.74 319.58 143.96 319.82 143.22H327.88Z" fill="#686868"/>
<g filter="url(#filter1_d)">
<ellipse cx="152.5" cy="292" rx="71.5" ry="72" fill="white"/>
</g>
<path d="M130.84 287H133.43V269.914H130.84V287ZM140.051 280.883L142.523 273.418H142.57L145.043 280.883H140.051ZM147.105 287H149.836L143.625 269.914H141.457L135.246 287H137.988L139.301 283.18H145.781L147.105 287ZM160.582 273.559C160.582 273.098 160.75 272.707 161.086 272.387C161.391 272.082 161.781 271.93 162.258 271.93C162.758 271.93 163.168 272.082 163.488 272.387C163.793 272.707 163.945 273.098 163.945 273.559C163.945 273.988 163.801 274.383 163.512 274.742C163.191 275.094 162.637 275.43 161.848 275.75C161.48 275.398 161.188 275.027 160.969 274.637C160.711 274.27 160.582 273.91 160.582 273.559ZM166.746 285.277L168.328 287H171.211L168.328 283.566C168.812 283.043 169.246 282.453 169.629 281.797C170.012 281.156 170.324 280.516 170.566 279.875L168.375 279.008C168.055 280.031 167.559 280.984 166.887 281.867L163.242 277.473C165.18 276.512 166.133 275.238 166.102 273.652C166.086 272.582 165.734 271.672 165.047 270.922C164.359 270.172 163.43 269.789 162.258 269.773C161.094 269.789 160.168 270.172 159.48 270.922C158.777 271.672 158.426 272.582 158.426 273.652C158.426 274.23 158.566 274.793 158.848 275.34C159.09 275.895 159.418 276.414 159.832 276.898C157.676 278.094 156.59 279.758 156.574 281.891C156.59 283.328 157.094 284.551 158.086 285.559C159.047 286.582 160.344 287.109 161.977 287.141C162.883 287.125 163.73 286.941 164.52 286.59C165.316 286.238 166.059 285.801 166.746 285.277ZM161.203 278.527L165.328 283.473C164.148 284.496 163.004 285 161.895 284.984C161.035 284.984 160.301 284.68 159.691 284.07C159.066 283.492 158.746 282.758 158.73 281.867C158.715 280.617 159.539 279.504 161.203 278.527ZM113.227 310.852L111.527 312.797C113.348 314.359 115.523 315.141 118.055 315.141C121.969 315.094 123.969 313.438 124.055 310.172C124.055 308.961 123.676 307.898 122.918 306.984C122.152 306.055 120.969 305.48 119.367 305.262C118.555 305.16 117.914 305.07 117.445 304.992C116.602 304.836 115.988 304.555 115.605 304.148C115.223 303.75 115.031 303.305 115.031 302.812C115.047 301.992 115.332 301.375 115.887 300.961C116.418 300.562 117.082 300.363 117.879 300.363C119.418 300.395 120.828 300.832 122.109 301.676L123.551 299.543C121.98 298.41 120.133 297.82 118.008 297.773C116.242 297.789 114.879 298.25 113.918 299.156C112.926 300.07 112.43 301.273 112.43 302.766C112.43 304.008 112.824 305.062 113.613 305.93C114.379 306.773 115.496 307.316 116.965 307.559C117.785 307.676 118.539 307.781 119.227 307.875C120.727 308.133 121.469 308.898 121.453 310.172C121.422 311.727 120.297 312.52 118.078 312.551C116.203 312.535 114.586 311.969 113.227 310.852ZM126.797 315H129.387V297.914H126.797V315ZM132.902 302.836H131.684V304.699H132.902V312C132.902 312.961 133.184 313.695 133.746 314.203C134.293 314.734 134.996 315 135.855 315H137.133V312.691H136.219C135.625 312.707 135.336 312.406 135.352 311.789V304.699H137.133V302.836H135.352V299.133H132.902V302.836ZM148.875 309.844V307.828C148.859 306.227 148.363 304.969 147.387 304.055C146.426 303.156 145.25 302.699 143.859 302.684C143.281 302.684 142.695 302.789 142.102 303C141.5 303.211 140.957 303.555 140.473 304.031C139.996 304.5 139.605 305.141 139.301 305.953C138.996 306.75 138.844 307.75 138.844 308.953C138.844 310.203 139.02 311.219 139.371 312C139.691 312.812 140.109 313.445 140.625 313.898C140.891 314.117 141.176 314.301 141.48 314.449C141.77 314.621 142.066 314.758 142.371 314.859C142.98 315.047 143.605 315.141 144.246 315.141C145.926 315.156 147.387 314.5 148.629 313.172L146.859 311.66C146.078 312.449 145.191 312.844 144.199 312.844C143.348 312.844 142.66 312.586 142.137 312.07C141.574 311.562 141.293 310.82 141.293 309.844H148.875ZM141.293 307.828C141.34 306.883 141.594 306.168 142.055 305.684C142.523 305.223 143.125 304.992 143.859 304.992C144.594 304.992 145.195 305.223 145.664 305.684C146.141 306.168 146.395 306.883 146.426 307.828H141.293ZM151.582 315H154.031V307.758C154.031 306.906 154.266 306.258 154.734 305.812C155.18 305.359 155.754 305.133 156.457 305.133C157.16 305.133 157.738 305.359 158.191 305.812C158.637 306.258 158.859 306.906 158.859 307.758V315H161.309V307.758C161.309 306.906 161.539 306.258 162 305.812C162.453 305.359 163.031 305.133 163.734 305.133C164.438 305.133 165.012 305.359 165.457 305.812C165.902 306.258 166.125 306.906 166.125 307.758V315H168.574V306.914C168.543 305.523 168.113 304.469 167.285 303.75C166.449 303.039 165.527 302.684 164.52 302.684C162.918 302.668 161.641 303.199 160.688 304.277C160.266 303.809 159.801 303.422 159.293 303.117C158.777 302.844 158.098 302.699 157.254 302.684C155.941 302.684 154.883 303.164 154.078 304.125H154.031V302.836H151.582V315ZM178.289 315H180.738V306.691C180.723 305.207 180.258 304.16 179.344 303.551C178.43 302.957 177.207 302.668 175.676 302.684C173.863 302.652 172.492 303.246 171.562 304.465L173.484 305.93C173.695 305.578 173.984 305.328 174.352 305.18C174.703 305.055 175.184 304.992 175.793 304.992C177.473 304.961 178.305 305.48 178.289 306.551V307.828H174.902C173.605 307.844 172.621 308.195 171.949 308.883C171.277 309.555 170.941 310.402 170.941 311.426C170.941 312.496 171.328 313.375 172.102 314.062C172.836 314.766 173.883 315.125 175.242 315.141C176.07 315.141 176.719 315.039 177.188 314.836C177.664 314.641 178.016 314.336 178.242 313.922H178.289V315ZM178.289 310.723C178.289 311.637 178.098 312.223 177.715 312.48C177.293 312.738 176.57 312.859 175.547 312.844C174.734 312.844 174.152 312.684 173.801 312.363C173.434 312.074 173.25 311.723 173.25 311.309C173.234 310.363 173.938 309.875 175.359 309.844H178.289V310.723ZM183.902 319.922H186.352V313.699C186.797 314.137 187.285 314.48 187.816 314.73C188.309 315.004 188.867 315.141 189.492 315.141C190.25 315.125 190.898 314.973 191.438 314.684C191.984 314.402 192.426 314.027 192.762 313.559C193.098 313.16 193.328 312.648 193.453 312.023C193.57 311.398 193.629 310.367 193.629 308.93C193.629 307.453 193.57 306.406 193.453 305.789C193.328 305.164 193.098 304.66 192.762 304.277C192.074 303.254 190.984 302.723 189.492 302.684C188.211 302.723 187.164 303.195 186.352 304.102V302.836H183.902V319.922ZM188.754 312.691C188.207 312.691 187.773 312.574 187.453 312.34C187.117 312.113 186.871 311.816 186.715 311.449C186.566 311.082 186.469 310.672 186.422 310.219C186.375 309.789 186.352 309.359 186.352 308.93C186.352 308.469 186.375 308.012 186.422 307.559C186.469 307.129 186.566 306.73 186.715 306.363C186.871 305.996 187.117 305.699 187.453 305.473C187.773 305.246 188.207 305.133 188.754 305.133C189.332 305.133 189.789 305.23 190.125 305.426C190.461 305.637 190.699 305.926 190.84 306.293C190.996 306.645 191.102 307.051 191.156 307.512C191.172 307.973 191.18 308.445 191.18 308.93C191.18 309.391 191.172 309.84 191.156 310.277C191.102 310.723 190.996 311.129 190.84 311.496C190.699 311.848 190.461 312.137 190.125 312.363C189.789 312.582 189.332 312.691 188.754 312.691Z" fill="#FF665C"/>
<path d="M255.34 285.32H250.44V286.72H255.34V285.32ZM262.32 286.9H265.1C264.82 287.4 264.52 287.92 264.26 288.28L265.72 288.8C266.28 288.06 266.96 286.9 267.46 285.84L266.18 285.42L265.92 285.5H259.68C259.82 285.16 259.94 284.84 260.06 284.5L258.4 284.14C257.96 285.54 257.14 286.92 256.1 287.82C256.52 288.02 257.2 288.5 257.5 288.76C258.02 288.26 258.52 287.62 258.96 286.9H260.62V287.16C260.62 288.02 260.16 289.14 255.82 289.7V288.38H250.02V289.84H255.1C255.44 290.18 255.86 290.8 256.04 291.22C259.48 290.74 261.06 289.88 261.78 288.96C263.04 290.12 264.86 290.84 267.14 291.16C267.32 290.68 267.78 290.02 268.14 289.64C265.5 289.48 263.36 288.8 262.28 287.7C262.32 287.52 262.32 287.36 262.32 287.22V286.9ZM254.42 297H263.8V298.16H254.42V297ZM254.42 294.74H263.8V295.86H254.42V294.74ZM254.42 292.48H263.8V293.62H254.42V292.48ZM265.66 299.34V291.3H252.62V299.34H255.84C254.46 300.12 252.12 300.8 250.08 301.2C250.48 301.54 251.14 302.22 251.46 302.6C253.46 302.04 255.96 301.08 257.58 300.1L255.92 299.34H261.9L260.74 300.28C262.8 300.98 264.9 301.88 266.12 302.54L267.8 301.52C266.44 300.86 264.22 300.02 262.16 299.34H265.66ZM277.16 287.56H273.42L274.74 286.74C274.46 286.02 273.86 284.96 273.36 284.12L272.02 284.86C272.52 285.68 273.08 286.82 273.38 287.56H269.96V289.04H277.16V287.56ZM276.44 291.68V290.22H270.76V291.68H276.44ZM274.98 297.06V299.92H272.22V297.06H274.98ZM276.46 295.56H270.76V302.32H272.22V301.42H276.46V295.56ZM270.76 294.3H276.46V292.86H270.76V294.3ZM277.4 285.3V287.06H279.64V292.7H277.16V294.42H279.64V302.58H281.38V294.42H283.72V292.7H281.38V287.06H284.34C284.32 294.9 284.28 301.6 286.22 302.28C287.26 302.72 288.08 302.08 288.32 299.24C288.04 298.96 287.58 298.28 287.3 297.82C287.24 299.16 287.1 300.46 286.98 300.42C286.04 300.14 286.06 292.7 286.2 285.3H277.4ZM305.4 291.14H301.84V287.4H305.4V291.14ZM307.26 285.78H300.1V292.74H307.26V285.78ZM297.04 287.88C296.9 290.18 296.74 291.12 296.48 291.4C296.34 291.56 296.18 291.6 295.9 291.6C295.6 291.6 294.96 291.58 294.26 291.52C294.5 291.96 294.68 292.66 294.72 293.16C295.54 293.2 296.34 293.2 296.76 293.12C297.3 293.06 297.64 292.92 298 292.54C298.48 291.98 298.66 290.52 298.86 286.96C298.88 286.72 298.9 286.26 298.9 286.26H294.8C294.84 285.62 294.88 284.94 294.92 284.24H293.14C293.12 284.94 293.08 285.64 293.02 286.26H290.16V287.88H292.82C292.46 289.9 291.66 291.42 289.74 292.44C290.14 292.76 290.66 293.4 290.86 293.86C293.22 292.56 294.18 290.54 294.6 287.88H297.04ZM294.8 297.14C293.76 298.56 291.9 299.88 290.06 300.68C290.52 300.96 291.28 301.56 291.64 301.92C293.42 300.96 295.44 299.4 296.64 297.74L294.8 297.14ZM307.6 296.58V294.94H299.92V293.22H298V294.94H290.22V296.58H298V302.62H299.92V296.58H307.6ZM301.2 298.2C303.08 299.26 305.42 300.9 306.54 302L308 300.74C306.78 299.62 304.36 298.08 302.52 297.08L301.2 298.2ZM316.76 294.88C316.44 294.34 314.96 292.08 314.4 291.34V290.16H316.54V288.44H314.4V284.22H312.68V288.44H310.08V290.16H312.52C311.98 292.7 310.84 295.66 309.66 297.3C309.92 297.7 310.36 298.4 310.54 298.9C311.34 297.76 312.08 296 312.68 294.1V302.56H314.4V293.56C314.92 294.5 315.5 295.6 315.76 296.24L316.76 294.88ZM323.08 297.98V296.74H325.44V297.98H323.08ZM319.18 296.74H321.4V297.98H319.18V296.74ZM321.4 294.32V295.46H319.18V294.32H321.4ZM325.44 294.32V295.46H323.08V294.32H325.44ZM320.9 289.5H323.64V290.62H320.9V289.5ZM320.9 287.1H323.64V288.2H320.9V287.1ZM328.36 297.98H327.18V292.98H323.08V292H328.16V290.62H325.38V289.5H327.46V288.2H325.38V287.1H327.76V285.76H325.38V284.22H323.64V285.76H320.9V284.22H319.16V285.76H316.98V287.1H319.16V288.2H317.4V289.5H319.16V290.62H316.54V292H321.4V292.98H317.48V297.98H316.2V299.38H317.48V302.48H319.18V299.38H325.44V300.68C325.44 300.92 325.36 301 325.12 301C324.86 301.02 324 301.02 323.16 300.98C323.36 301.4 323.58 302.04 323.66 302.48C324.94 302.48 325.84 302.46 326.42 302.24C327 301.96 327.18 301.54 327.18 300.7V299.38H328.36V297.98Z" fill="#686868"/>
<g filter="url(#filter2_d)">
<ellipse cx="152.5" cy="456" rx="71.5" ry="72" fill="white"/>
</g>
<path d="M124.582 460.219C123.863 461.773 122.777 462.551 121.324 462.551C120.715 462.551 120.191 462.422 119.754 462.164C119.309 461.945 118.949 461.66 118.676 461.309C118.34 460.941 118.117 460.461 118.008 459.867C117.883 459.273 117.82 458.137 117.82 456.457C117.82 454.777 117.883 453.633 118.008 453.023C118.117 452.445 118.34 451.973 118.676 451.605C118.949 451.254 119.309 450.961 119.754 450.727C120.191 450.5 120.715 450.379 121.324 450.363C122.152 450.379 122.855 450.617 123.434 451.078C123.988 451.562 124.371 452.148 124.582 452.836H127.324C127.051 451.406 126.395 450.207 125.355 449.238C124.316 448.277 122.973 447.789 121.324 447.773C119.98 447.789 118.859 448.109 117.961 448.734C117.047 449.352 116.383 450.055 115.969 450.844C115.711 451.258 115.52 451.801 115.395 452.473C115.277 453.145 115.219 454.473 115.219 456.457C115.219 458.41 115.277 459.73 115.395 460.418C115.457 460.785 115.535 461.09 115.629 461.332C115.73 461.566 115.844 461.812 115.969 462.07C116.383 462.859 117.047 463.555 117.961 464.156C118.859 464.781 119.98 465.109 121.324 465.141C122.809 465.141 124.094 464.719 125.18 463.875C126.234 463.023 126.949 461.805 127.324 460.219H124.582ZM128.344 458.906C128.344 460.188 128.449 461.164 128.66 461.836C128.879 462.508 129.215 463.09 129.668 463.582C130.004 463.965 130.473 464.309 131.074 464.613C131.668 464.949 132.43 465.125 133.359 465.141C134.32 465.125 135.098 464.949 135.691 464.613C136.012 464.473 136.273 464.305 136.477 464.109C136.703 463.938 136.895 463.762 137.051 463.582C137.535 463.09 137.879 462.508 138.082 461.836C138.277 461.164 138.375 460.188 138.375 458.906C138.375 457.625 138.277 456.641 138.082 455.953C137.879 455.281 137.535 454.715 137.051 454.254C136.73 453.848 136.277 453.484 135.691 453.164C135.098 452.859 134.32 452.699 133.359 452.684C132.43 452.699 131.668 452.859 131.074 453.164C130.473 453.484 130.004 453.848 129.668 454.254C129.215 454.715 128.879 455.281 128.66 455.953C128.449 456.641 128.344 457.625 128.344 458.906ZM135.926 458.93C135.926 459.758 135.887 460.367 135.809 460.758C135.73 461.156 135.57 461.508 135.328 461.812C135.148 462.047 134.883 462.254 134.531 462.434C134.195 462.605 133.805 462.691 133.359 462.691C132.945 462.691 132.562 462.605 132.211 462.434C131.875 462.254 131.602 462.047 131.391 461.812C131.18 461.508 131.027 461.156 130.934 460.758C130.84 460.367 130.793 459.75 130.793 458.906C130.793 458.055 130.84 457.43 130.934 457.031C131.027 456.648 131.18 456.312 131.391 456.023C131.602 455.75 131.875 455.535 132.211 455.379C132.562 455.215 132.945 455.133 133.359 455.133C133.805 455.133 134.195 455.215 134.531 455.379C134.883 455.535 135.148 455.75 135.328 456.023C135.57 456.312 135.73 456.648 135.809 457.031C135.887 457.43 135.926 458.062 135.926 458.93ZM140.941 465H143.391V457.758C143.391 456.906 143.621 456.258 144.082 455.812C144.535 455.359 145.113 455.133 145.816 455.133C146.52 455.133 147.094 455.359 147.539 455.812C147.992 456.258 148.219 456.906 148.219 457.758V465H150.668V456.914C150.629 455.523 150.195 454.469 149.367 453.75C148.531 453.039 147.609 452.684 146.602 452.684C145.297 452.684 144.242 453.164 143.438 454.125H143.391V452.836H140.941V465ZM153.973 452.836H152.754V454.699H153.973V462C153.973 462.961 154.254 463.695 154.816 464.203C155.363 464.734 156.066 465 156.926 465H158.203V462.691H157.289C156.695 462.707 156.406 462.406 156.422 461.789V454.699H158.203V452.836H156.422V449.133H153.973V452.836ZM169.945 459.844V457.828C169.93 456.227 169.434 454.969 168.457 454.055C167.496 453.156 166.32 452.699 164.93 452.684C164.352 452.684 163.766 452.789 163.172 453C162.57 453.211 162.027 453.555 161.543 454.031C161.066 454.5 160.676 455.141 160.371 455.953C160.066 456.75 159.914 457.75 159.914 458.953C159.914 460.203 160.09 461.219 160.441 462C160.762 462.812 161.18 463.445 161.695 463.898C161.961 464.117 162.246 464.301 162.551 464.449C162.84 464.621 163.137 464.758 163.441 464.859C164.051 465.047 164.676 465.141 165.316 465.141C166.996 465.156 168.457 464.5 169.699 463.172L167.93 461.66C167.148 462.449 166.262 462.844 165.27 462.844C164.418 462.844 163.73 462.586 163.207 462.07C162.645 461.562 162.363 460.82 162.363 459.844H169.945ZM162.363 457.828C162.41 456.883 162.664 456.168 163.125 455.684C163.594 455.223 164.195 454.992 164.93 454.992C165.664 454.992 166.266 455.223 166.734 455.684C167.211 456.168 167.465 456.883 167.496 457.828H162.363ZM172.512 465H174.961V457.758C174.961 456.906 175.191 456.258 175.652 455.812C176.105 455.359 176.684 455.133 177.387 455.133C178.09 455.133 178.664 455.359 179.109 455.812C179.562 456.258 179.789 456.906 179.789 457.758V465H182.238V456.914C182.199 455.523 181.766 454.469 180.938 453.75C180.102 453.039 179.18 452.684 178.172 452.684C176.867 452.684 175.812 453.164 175.008 454.125H174.961V452.836H172.512V465ZM185.543 452.836H184.324V454.699H185.543V462C185.543 462.961 185.824 463.695 186.387 464.203C186.934 464.734 187.637 465 188.496 465H189.773V462.691H188.859C188.266 462.707 187.977 462.406 187.992 461.789V454.699H189.773V452.836H187.992V449.133H185.543V452.836Z" fill="#FF665C"/>
<path d="M262.84 452.46C261.94 454.92 260.7 456.96 259.08 458.64C257.38 456.88 256.04 454.82 255.08 452.46H262.84ZM268.02 452.46V450.66H259.04L260.82 450.1C260.56 449.28 259.92 448 259.34 447.06L257.38 447.64C257.92 448.58 258.48 449.84 258.72 450.66H250.06V452.46H253.14C254.26 455.38 255.74 457.88 257.68 459.94C255.56 461.68 252.94 462.92 249.72 463.78C250.1 464.22 250.66 465.08 250.88 465.56C254.12 464.56 256.84 463.16 259.06 461.28C261.22 463.16 263.88 464.58 267.06 465.44C267.36 464.9 267.9 464.12 268.32 463.72C265.24 462.96 262.64 461.66 260.5 459.92C262.38 457.92 263.86 455.48 264.92 452.46H268.02ZM285.66 451.58H287.44V448.64H280.24C279.98 448.16 279.62 447.62 279.36 447.18L277.44 447.62C277.6 447.94 277.8 448.28 278 448.64H270.64V451.58H272.36V450.2H285.66V451.58ZM281.38 453.72C280.82 454.34 280.12 454.88 279.28 455.28C278.1 455.06 276.88 454.84 275.66 454.64C275.96 454.34 276.28 454.04 276.6 453.72H281.38ZM287.62 457.42C286.04 456.9 283.96 456.32 281.64 455.8C282.44 455.22 283.1 454.54 283.64 453.72H287.74V452.24H284.42C284.54 451.94 284.66 451.64 284.76 451.32L282.94 450.94C282.78 451.4 282.62 451.84 282.4 452.24H277.94C278.38 451.74 278.76 451.24 279.1 450.76L277.34 450.2C276.92 450.86 276.42 451.54 275.84 452.24H270.3V453.72H274.54C273.9 454.38 273.28 455.04 272.72 455.54C274.02 455.74 275.32 455.98 276.58 456.22C274.84 456.6 272.76 456.8 270.22 456.9C270.48 457.3 270.74 457.9 270.88 458.44C274.64 458.2 277.54 457.78 279.7 456.88C282.18 457.42 284.28 458.04 285.82 458.62L287.62 457.42ZM274.8 461.12C273.8 462.22 271.96 463.22 270.22 463.82C270.68 464.12 271.42 464.72 271.78 465.08C273.48 464.32 275.48 463.08 276.64 461.72L274.8 461.12ZM287.96 459.34H279.88V457.82H278.02V459.34H270.12V460.88H278.02V465.56H279.88V460.88H282.44L281.18 462.04C282.94 462.9 285.18 464.28 286.26 465.24L287.68 463.92C286.52 462.96 284.24 461.68 282.5 460.88H287.96V459.34ZM306.1 449.22V450.6H303.98V449.22H306.1ZM306.78 454.7C307.28 454.7 307.86 454.7 308.14 454.6C308.08 454.24 308.04 453.62 308 453.22C307.7 453.3 307.1 453.34 306.74 453.34H304.48C304.06 453.34 303.98 453.14 303.98 452.56V451.82H307.56V448H302.48V452.52C302.48 454.14 302.86 454.7 304.46 454.7H306.78ZM300.06 449.22V450.58H297.94V449.22H300.06ZM297.94 453.44V451.8H301.5V448H296.48V452.9C296.48 453.62 296.22 453.82 295.98 453.94C296.18 454.24 296.42 454.88 296.5 455.24C296.9 455.04 297.54 454.92 301.76 454.32C301.72 454 301.72 453.38 301.74 452.98L297.94 453.44ZM300.5 458.04H303.5V460.08H300.5V458.04ZM308.18 460.08H305.2V458.04H307.7V456.5H305.2V455.4H303.5V456.5H300.5V455.42H298.82V456.5H296.3V458.04H298.82V460.08H295.8V461.62H308.18V460.08ZM295.34 455.9L293.8 456.36V452.84H295.44V451.12H293.8V447.26H292.04V451.12H289.9V452.84H292.04V456.88C291.14 457.14 290.3 457.38 289.6 457.54L290.04 459.34L292.04 458.7V463.36C292.04 463.62 291.96 463.7 291.7 463.7C291.48 463.7 290.74 463.7 289.96 463.68C290.2 464.18 290.44 464.98 290.5 465.46C291.72 465.46 292.54 465.4 293.1 465.1C293.62 464.8 293.8 464.3 293.8 463.34V458.16C294.4 457.96 295.02 457.76 295.6 457.58L295.34 455.9ZM299.6 461.78C298.64 462.82 296.9 463.8 295.24 464.38C295.64 464.68 296.32 465.28 296.68 465.64C298.32 464.9 300.2 463.7 301.36 462.4L299.6 461.78ZM302.78 462.6C304.18 463.46 305.96 464.76 306.82 465.56L308.4 464.62C307.44 463.8 305.62 462.58 304.26 461.76L302.78 462.6ZM313.88 465.1C314.62 464.16 315.18 462.68 315.6 461.52L314.12 460.92C313.78 462.06 313.14 463.52 312.4 464.38L313.88 465.1ZM316.24 461.3C316.6 462.44 316.84 463.9 316.82 464.8L318.32 464.6C318.32 463.68 318.04 462.24 317.64 461.12L316.24 461.3ZM318.72 461.34C319.24 462.28 319.72 463.54 319.86 464.34L321.26 463.94C321.12 463.14 320.6 461.9 320.04 460.98L318.72 461.34ZM323.96 462.8C323.7 462.2 323 461.34 322.4 460.74L321.18 461.28C321.76 461.9 322.42 462.8 322.7 463.42L323.96 462.8ZM316.24 458.96C316.56 458.6 316.84 458.24 317.12 457.84H325.08V451.74H319.48V453.06H323.4V454.12H319.82V455.4H323.4V456.52H314.54V455.4H318.16V454.12H314.54V453.04C315.98 452.74 317.46 452.38 318.62 451.94L317.5 450.78C316.38 451.24 314.5 451.74 312.9 452.08V457.84H315.06C313.82 459.32 311.88 460.5 309.92 461.24C310.24 461.58 310.78 462.32 310.98 462.68C312.28 462.12 313.54 461.36 314.68 460.44H325.02C324.88 462.6 324.7 463.54 324.44 463.8C324.28 463.96 324.1 463.98 323.76 463.98C323.44 463.98 322.56 463.98 321.66 463.88C321.96 464.34 322.14 465.02 322.18 465.5C323.16 465.54 324.12 465.56 324.62 465.48C325.2 465.44 325.6 465.3 325.98 464.92C326.48 464.36 326.7 462.98 326.9 459.66C326.92 459.42 326.94 458.96 326.94 458.96H316.24ZM320.12 448.74C319.88 448.2 319.58 447.58 319.28 447.1L317.38 447.62C317.58 447.96 317.74 448.34 317.92 448.74H310.54V452.48H312.22V450.34H325.72V452.48H327.48V448.74H320.12Z" fill="#686868"/>
<g filter="url(#filter3_d)">
<ellipse cx="152.5" cy="620" rx="71.5" ry="72" fill="white"/>
</g>
<path d="M108.828 622.883L111.301 615.418H111.348L113.82 622.883H108.828ZM115.883 629H118.613L112.402 611.914H110.234L104.023 629H106.766L108.078 625.18H114.559L115.883 629ZM120.371 616.836H119.152V618.699H120.371V626C120.371 626.961 120.652 627.695 121.215 628.203C121.762 628.734 122.465 629 123.324 629H124.602V626.691H123.688C123.094 626.707 122.805 626.406 122.82 625.789V618.699H124.602V616.836H122.82V613.133H120.371V616.836ZM126.312 622.906C126.312 624.188 126.418 625.164 126.629 625.836C126.848 626.508 127.184 627.09 127.637 627.582C127.973 627.965 128.441 628.309 129.043 628.613C129.637 628.949 130.398 629.125 131.328 629.141C132.289 629.125 133.066 628.949 133.66 628.613C133.98 628.473 134.242 628.305 134.445 628.109C134.672 627.938 134.863 627.762 135.02 627.582C135.504 627.09 135.848 626.508 136.051 625.836C136.246 625.164 136.344 624.188 136.344 622.906C136.344 621.625 136.246 620.641 136.051 619.953C135.848 619.281 135.504 618.715 135.02 618.254C134.699 617.848 134.246 617.484 133.66 617.164C133.066 616.859 132.289 616.699 131.328 616.684C130.398 616.699 129.637 616.859 129.043 617.164C128.441 617.484 127.973 617.848 127.637 618.254C127.184 618.715 126.848 619.281 126.629 619.953C126.418 620.641 126.312 621.625 126.312 622.906ZM133.895 622.93C133.895 623.758 133.855 624.367 133.777 624.758C133.699 625.156 133.539 625.508 133.297 625.812C133.117 626.047 132.852 626.254 132.5 626.434C132.164 626.605 131.773 626.691 131.328 626.691C130.914 626.691 130.531 626.605 130.18 626.434C129.844 626.254 129.57 626.047 129.359 625.812C129.148 625.508 128.996 625.156 128.902 624.758C128.809 624.367 128.762 623.75 128.762 622.906C128.762 622.055 128.809 621.43 128.902 621.031C128.996 620.648 129.148 620.312 129.359 620.023C129.57 619.75 129.844 619.535 130.18 619.379C130.531 619.215 130.914 619.133 131.328 619.133C131.773 619.133 132.164 619.215 132.5 619.379C132.852 619.535 133.117 619.75 133.297 620.023C133.539 620.312 133.699 620.648 133.777 621.031C133.855 621.43 133.895 622.062 133.895 622.93ZM139.051 629H141.5V621.758C141.5 620.906 141.734 620.258 142.203 619.812C142.648 619.359 143.223 619.133 143.926 619.133C144.629 619.133 145.207 619.359 145.66 619.812C146.105 620.258 146.328 620.906 146.328 621.758V629H148.777V621.758C148.777 620.906 149.008 620.258 149.469 619.812C149.922 619.359 150.5 619.133 151.203 619.133C151.906 619.133 152.48 619.359 152.926 619.812C153.371 620.258 153.594 620.906 153.594 621.758V629H156.043V620.914C156.012 619.523 155.582 618.469 154.754 617.75C153.918 617.039 152.996 616.684 151.988 616.684C150.387 616.668 149.109 617.199 148.156 618.277C147.734 617.809 147.27 617.422 146.762 617.117C146.246 616.844 145.566 616.699 144.723 616.684C143.41 616.684 142.352 617.164 141.547 618.125H141.5V616.836H139.051V629ZM159.441 629H161.891V616.836H159.441V629ZM159.441 614.363H161.891V611.914H159.441V614.363ZM172.285 625.426C171.668 626.254 170.844 626.676 169.812 626.691C167.734 626.73 166.68 625.477 166.648 622.93C166.68 620.367 167.734 619.102 169.812 619.133C170.844 619.164 171.668 619.59 172.285 620.41L174.09 618.805C173.559 618.164 172.934 617.652 172.215 617.27C171.496 616.895 170.664 616.699 169.719 616.684C168.281 616.668 167.02 617.148 165.934 618.125C164.809 619.117 164.23 620.719 164.199 622.93C164.23 625.117 164.809 626.699 165.934 627.676C167.02 628.652 168.281 629.141 169.719 629.141C170.664 629.125 171.496 628.918 172.215 628.52C172.934 628.137 173.559 627.641 174.09 627.031L172.285 625.426ZM181.473 623.211C181.488 625.008 182.082 626.434 183.254 627.488C184.402 628.574 185.832 629.125 187.543 629.141C189.285 629.125 190.727 628.574 191.867 627.488C193 626.434 193.582 625.008 193.613 623.211V611.914H191.023V622.93C191.008 624.094 190.68 624.98 190.039 625.59C189.383 626.23 188.551 626.551 187.543 626.551C186.535 626.551 185.711 626.23 185.07 625.59C184.414 624.98 184.078 624.094 184.062 622.93V611.914H181.473V623.211ZM196.906 629H199.496V611.914H196.906V629Z" fill="#FF665C"/>
<path d="M263.38 591.92H277.82V590.22H261.54V595.9C261.54 598.94 261.4 603.24 259.7 606.22C260.14 606.38 260.96 606.86 261.3 607.16C263.1 603.98 263.38 599.16 263.38 595.9V591.92ZM266.32 601.96C265.48 603.28 264.22 604.76 263.06 605.76C263.52 606 264.26 606.48 264.62 606.78C265.72 605.7 267.1 604.02 268.1 602.54L266.32 601.96ZM266.78 598.1H274.44V599.7H266.78V598.1ZM266.78 595.16H274.44V596.76H266.78V595.16ZM276.34 601.14V593.72H270.76C271.04 593.28 271.3 592.82 271.58 592.36L269.38 592.06C269.22 592.54 268.98 593.14 268.7 593.72H264.96V601.14H269.7V605.6C269.7 605.84 269.62 605.92 269.32 605.94C269.04 605.94 268.04 605.94 267 605.92C267.22 606.38 267.46 607.06 267.54 607.56C269.02 607.56 270.02 607.54 270.68 607.28C271.34 607.02 271.5 606.54 271.5 605.64V601.14H276.34ZM272.88 602.76C274 604.04 275.56 605.82 276.28 606.88L277.86 605.94C277.06 604.9 275.48 603.2 274.34 601.96L272.88 602.76ZM298 597.94H290.06V596.1C292.34 594.9 294.8 593.1 296.5 591.46L295.1 590.38L294.68 590.48H282.04V592.3H292.64C291.34 593.34 289.6 594.42 288.12 595.12V597.94H280.06V599.8H288.12V605.22C288.12 605.58 288 605.68 287.58 605.7C287.14 605.72 285.64 605.72 284.12 605.66C284.44 606.18 284.8 607.04 284.92 607.58C286.78 607.58 288.1 607.54 288.94 607.24C289.78 606.96 290.06 606.4 290.06 605.26V599.8H298V597.94ZM305.02 589.32C303.78 592.28 301.72 595.18 299.6 597C299.94 597.44 300.46 598.44 300.62 598.88C301.44 598.12 302.24 597.22 303 596.22V607.56H304.76V593.66C305.5 592.44 306.18 591.16 306.72 589.88L305.02 589.32ZM311.6 605.32C310.6 605.32 310.4 605.1 310.4 603.98V596.62H317.44V594.84H310.4V589.56H308.62V603.94C308.62 606.34 309.24 607 311.44 607H315.02C317.28 607 317.74 605.68 318 601.94C317.52 601.82 316.76 601.46 316.32 601.12C316.16 604.48 315.98 605.32 314.9 605.32H311.6ZM254.42 639.58C254.42 641.76 254.02 644.32 250.42 646.22C250.92 646.54 251.64 647.18 251.96 647.62C255.92 645.42 256.36 642.26 256.36 639.62V637.2H254.42V639.58ZM261.84 647.62H263.8V637.18H261.84V647.62ZM258.94 629.04C257.12 632.06 253.34 634.94 249.58 636.14C250.02 636.6 250.48 637.38 250.72 637.92C253.78 636.7 256.86 634.5 259 632.02C261.06 634.5 264.04 636.6 267.22 637.64C267.5 637.12 268.1 636.32 268.54 635.9C265.2 635 261.88 632.92 260.1 630.6C260.22 630.44 260.34 630.28 260.44 630.1L258.94 629.04ZM285.04 644.84H282.42V636.12H285.04V644.84ZM272.86 636.12H275.36V644.84H272.86V636.12ZM280.74 638H277.02V636.12H280.74V638ZM277.02 642.86H280.74V644.84H277.02V642.86ZM280.74 641.38H277.02V639.48H280.74V641.38ZM287.88 632.22V630.46H270.2V632.22H277.66C277.54 632.94 277.38 633.74 277.22 634.42H271.06V647.6H272.86V646.56H285.04V647.6H286.94V634.42H279.14C279.34 633.74 279.58 632.96 279.82 632.22H287.88ZM296.76 635.22H290.82V636.68H296.76V636.2C297.12 636.5 297.68 637.16 297.9 637.52C300.34 636.12 300.86 633.96 300.86 632.12V631.64H303.76V634.36C303.76 636.08 304.08 636.74 305.62 636.74H306.8C307.18 636.74 307.6 636.72 307.84 636.62C307.78 636.2 307.74 635.54 307.7 635.06C307.46 635.14 307.04 635.18 306.8 635.18H305.78C305.5 635.18 305.48 634.98 305.48 634.42V629.92H299.16V632.08C299.16 633.42 298.84 634.96 296.76 636.1V635.22ZM290.82 639.32H296.8V637.88H290.82V639.32ZM297.6 632.56H293.56L295 631.74C294.7 631.02 294.06 629.96 293.52 629.12L292.06 629.86C292.58 630.68 293.2 631.82 293.52 632.56H289.96V634.04H297.6V632.56ZM304.86 639.64C304.24 640.96 303.38 642.08 302.34 643.02C301.22 642.06 300.34 640.94 299.72 639.64H304.86ZM295.16 644.92H292.42V642.06H295.16V644.92ZM306.06 637.84L305.74 637.9H297.32V639.64H299.14L298.06 640.02C298.78 641.6 299.74 642.96 300.9 644.14C299.66 644.92 298.26 645.5 296.78 645.88V640.56H290.82V647.32H292.42V646.42H296.78V646.14C297.08 646.58 297.38 647.16 297.54 647.58C299.28 647.06 300.92 646.34 302.34 645.34C303.72 646.32 305.3 647.06 307.12 647.52C307.38 647 307.9 646.22 308.28 645.84C306.62 645.48 305.12 644.9 303.84 644.12C305.34 642.64 306.52 640.76 307.2 638.34L306.06 637.84ZM318.58 632.56H314.08L315.54 631.74C315.22 631.02 314.6 629.96 314.04 629.12L312.58 629.86C313.12 630.68 313.72 631.82 314.04 632.56H310.32V634.04H318.58V632.56ZM317.7 637.86H311.18V639.3H317.7V637.86ZM316.14 642.06V644.92H312.9V642.06H316.14ZM317.74 640.56H311.3V647.32H312.9V646.42H317.74V640.56ZM311.18 636.68H317.74V635.22H311.18V636.68ZM328.08 635.98H324.16V629.6H322.24V635.98H318.54V637.8H322.24V647.58H324.16V637.8H328.08V635.98Z" fill="#686868"/>
<g filter="url(#filter4_d)">
<ellipse cx="152.5" cy="784" rx="71.5" ry="72" fill="white"/>
</g>
<path d="M128.016 793H130.031L135.68 775.914H132.938L129.047 788.922H129L125.121 775.914H122.379L128.016 793ZM136.922 793H139.371V780.836H136.922V793ZM136.922 778.363H139.371V775.914H136.922V778.363ZM142.98 789.285L141.27 790.961C142.855 792.414 144.641 793.141 146.625 793.141C148.086 793.125 149.285 792.789 150.223 792.133C151.168 791.492 151.648 790.582 151.664 789.402C151.664 788.395 151.402 787.562 150.879 786.906C150.316 786.234 149.402 785.852 148.137 785.758L146.121 785.605C145.527 785.543 145.113 785.398 144.879 785.172C144.621 784.969 144.5 784.73 144.516 784.457C144.516 784.027 144.676 783.676 144.996 783.402C145.301 783.129 145.836 782.992 146.602 782.992C147.273 782.992 147.867 783.09 148.383 783.285C148.906 783.504 149.402 783.781 149.871 784.117L151.383 782.348C150.789 781.832 150.117 781.422 149.367 781.117C148.977 780.977 148.559 780.867 148.113 780.789C147.668 780.719 147.164 780.684 146.602 780.684C145.305 780.684 144.234 780.996 143.391 781.621C142.523 782.246 142.082 783.184 142.066 784.434C142.082 785.473 142.418 786.281 143.074 786.859C143.715 787.453 144.547 787.797 145.57 787.891L147.727 788.078C148.18 788.094 148.543 788.191 148.816 788.371C149.082 788.543 149.215 788.848 149.215 789.285C149.215 789.777 148.992 790.16 148.547 790.434C148.102 790.707 147.527 790.844 146.824 790.844C145.254 790.844 143.973 790.324 142.98 789.285ZM154.148 788.922C154.164 790.297 154.613 791.336 155.496 792.039C156.309 792.758 157.219 793.125 158.227 793.141C159.523 793.141 160.574 792.66 161.379 791.699H161.426V793H163.875V780.836H161.426V788.078C161.426 788.898 161.199 789.539 160.746 790C160.301 790.461 159.727 790.691 159.023 790.691C158.32 790.691 157.742 790.461 157.289 790C156.828 789.539 156.598 788.898 156.598 788.078V780.836H154.148V788.922ZM173.426 793H175.875V784.691C175.859 783.207 175.395 782.16 174.48 781.551C173.566 780.957 172.344 780.668 170.812 780.684C169 780.652 167.629 781.246 166.699 782.465L168.621 783.93C168.832 783.578 169.121 783.328 169.488 783.18C169.84 783.055 170.32 782.992 170.93 782.992C172.609 782.961 173.441 783.48 173.426 784.551V785.828H170.039C168.742 785.844 167.758 786.195 167.086 786.883C166.414 787.555 166.078 788.402 166.078 789.426C166.078 790.496 166.465 791.375 167.238 792.062C167.973 792.766 169.02 793.125 170.379 793.141C171.207 793.141 171.855 793.039 172.324 792.836C172.801 792.641 173.152 792.336 173.379 791.922H173.426V793ZM173.426 788.723C173.426 789.637 173.234 790.223 172.852 790.48C172.43 790.738 171.707 790.859 170.684 790.844C169.871 790.844 169.289 790.684 168.938 790.363C168.57 790.074 168.387 789.723 168.387 789.309C168.371 788.363 169.074 787.875 170.496 787.844H173.426V788.723ZM179.039 790.047C179.039 791.117 179.344 791.879 179.953 792.332C180.531 792.777 181.266 793 182.156 793H183.246V790.691H182.402C181.793 790.691 181.488 790.414 181.488 789.859V775.914H179.039V790.047Z" fill="#FF5C7A"/>
<path d="M265.64 775.54C264.46 777.12 262.24 778.76 260.36 779.72C260.86 780.06 261.38 780.62 261.7 781.04C263.72 779.9 265.92 778.12 267.4 776.24L265.64 775.54ZM266.14 780.98C264.9 782.7 262.56 784.44 260.6 785.46C261.08 785.82 261.62 786.38 261.92 786.78C264.02 785.56 266.32 783.66 267.84 781.7L266.14 780.98ZM254.06 782.92V778.14H256.86V782.92H254.06ZM260.72 784.66V782.92H258.68V778.14H260.44V776.42H250.18V778.14H252.32V782.92H249.86V784.66H252.3C252.22 787.46 251.76 790.22 249.7 792.46C250.12 792.72 250.8 793.34 251.08 793.72C253.44 791.18 253.96 787.94 254.04 784.66H256.86V793.58H258.68V784.66H260.72ZM266.54 786.3C265.1 788.76 262.4 790.88 259.58 792.06C260.06 792.46 260.6 793.08 260.9 793.56C263.9 792.1 266.62 789.8 268.3 787L266.54 786.3ZM273.98 781.72C273.98 781.96 273.96 782.22 273.94 782.48H272.18V780.16H270.68V783.98H273.48C273.02 784.78 272.2 785.56 270.7 786.18C271.04 786.42 271.64 787.08 271.86 787.44C273.88 786.56 274.86 785.3 275.3 783.98H277.5V784.5H279.04V780.16H277.5V782.48H275.62C275.64 782.24 275.64 781.98 275.64 781.76V779.36H279.66V777.86H277.16C277.56 777.28 277.94 776.58 278.36 775.88L276.76 775.4C276.48 776.12 275.94 777.14 275.48 777.86H273.42L274.14 777.48C273.88 776.9 273.3 776.02 272.74 775.38L271.46 775.98C271.88 776.52 272.36 777.28 272.62 777.86H270.02V779.36H273.98V781.72ZM285.56 777.54V778.9H282.16V777.54H285.56ZM281.98 781.76C282.06 781.26 282.1 780.76 282.14 780.3H285.56V781.76H281.98ZM279.9 791.28V789.42H285.96V787.86H279.9V786.68H279.78C280.78 785.7 281.36 784.46 281.7 783.18H285.56V785.12C285.56 785.36 285.48 785.44 285.22 785.44C285 785.44 284.18 785.44 283.36 785.4C283.56 785.86 283.8 786.58 283.86 787.06C285.14 787.06 285.98 787.04 286.56 786.76C287.14 786.48 287.3 786 287.3 785.14V776.04H280.52V779.28C280.52 781.3 280.26 783.98 278.24 785.92C278.6 786.08 279.26 786.44 279.6 786.68H278V787.86H272.04V789.42H278V791.28H270.02V792.9H287.98V791.28H279.9ZM297.66 786.06C297.26 785.66 295.74 784.18 294.94 783.44C295.92 782.14 296.76 780.72 297.36 779.22L296.36 778.52L296.02 778.6H294.14L295.34 777.78C295 777.08 294.24 776.04 293.52 775.3L292.12 776.18C292.74 776.9 293.42 777.88 293.8 778.6H290.1V780.28H295.04C293.76 782.6 291.64 784.8 289.54 786C289.78 786.36 290.18 787.34 290.32 787.84C291.16 787.3 292.04 786.6 292.86 785.82V793.58H294.66V785.36C295.34 786.14 296.1 787.04 296.5 787.6L297.66 786.06ZM300.14 783.76H305.34V785.46H300.14V783.76ZM300.14 780.66H305.34V782.34H300.14V780.66ZM300.14 777.58H305.34V779.22H300.14V777.58ZM305.28 791.88C304.92 791.88 304.88 791.8 304.88 791.3V786.96H307.12V776.08H298.44V786.96H300C299.76 789.58 299.12 791.3 295.94 792.28C296.28 792.58 296.74 793.22 296.92 793.64C300.52 792.4 301.38 790.22 301.68 786.96H303.14V791.32C303.14 792.98 303.5 793.5 305 793.5H306.5C307.76 793.5 308.2 792.84 308.36 790.18C307.88 790.06 307.16 789.78 306.82 789.48C306.76 791.6 306.68 791.88 306.32 791.88H305.28ZM320.72 777.56C320.5 777.34 320.2 777.08 319.84 776.82C320.24 776.46 320.58 776.06 320.86 775.66L319.8 775.36C319.58 775.66 319.3 775.96 318.98 776.24C318.6 776.02 318.24 775.8 317.88 775.62L317.16 776.28C317.48 776.46 317.82 776.64 318.16 776.86C317.68 777.2 317.18 777.48 316.66 777.7C316.92 777.88 317.34 778.3 317.5 778.48C318 778.22 318.56 777.88 319.04 777.48C319.42 777.78 319.74 778.06 319.98 778.3L320.72 777.56ZM312.16 782.74H325.8V784.4H327.5V781.52H325.56C325.7 779.96 325.8 777.72 325.86 775.92H321.5V777.1H324.16L324.12 777.86H321.72V778.92H324.08L324.02 779.68H321.64V780.74H323.94L323.88 781.52H317.8C318.28 781.24 318.76 780.92 319.22 780.56C319.62 780.88 320 781.2 320.26 781.48L321.04 780.74C320.78 780.48 320.42 780.18 320 779.86C320.42 779.46 320.76 779.06 321.06 778.62L319.98 778.32C319.74 778.64 319.48 778.96 319.14 779.26C318.74 779.02 318.36 778.78 317.98 778.58L317.24 779.24C317.6 779.44 317.96 779.68 318.32 779.92C317.78 780.3 317.22 780.64 316.62 780.92C316.82 781.06 317.1 781.3 317.32 781.52H314.22L314.18 780.74H316.44V779.68H314.12L314.06 778.92H316.36V777.86H314L313.96 777.22C314.9 776.9 315.98 776.48 316.82 776.02L315.8 775.24C314.92 775.7 313.38 776.38 312.28 776.74L312.3 776.76L312.58 781.52H310.52V784.4H312.16V782.74ZM315.08 788.24H322.76V789.1H315.08V788.24ZM315.08 786.4H322.76V787.24H315.08V786.4ZM315.08 784.58H322.76V785.42H315.08V784.58ZM322.86 791.88C322 791.88 321.84 791.84 321.84 791.38V790.12H324.6V783.54H313.32V790.12H315.56C314.98 791.34 313.62 791.88 309.82 792.16C310.1 792.52 310.5 793.16 310.62 793.58C315.1 793.1 316.74 792.12 317.44 790.12H320.04V791.38C320.04 792.92 320.56 793.34 322.66 793.34H325.86C327.46 793.34 327.94 792.8 328.14 790.64C327.68 790.56 326.96 790.34 326.6 790.08C326.5 791.66 326.38 791.88 325.66 791.88H322.86Z" fill="#686868"/>
<defs>
<filter id="filter0_d" x="64" y="57" width="177" height="182" filterUnits="userSpaceOnUse" color-interpolation-filters="sRGB">
<feFlood flood-opacity="0" result="BackgroundImageFix"/>
<feColorMatrix in="SourceAlpha" type="matrix" values="0 0 0 0 0 0 0 0 0 0 0 0 0 0 0 0 0 0 127 0"/>
<feMorphology radius="8" operator="erode" in="SourceAlpha" result="effect1_dropShadow"/>
<feOffset dy="22"/>
<feGaussianBlur stdDeviation="12.5"/>
<feColorMatrix type="matrix" values="0 0 0 0 0.7875 0 0 0 0 0.7875 0 0 0 0 0.7875 0 0 0 0.25 0"/>
<feBlend mode="normal" in2="BackgroundImageFix" result="effect1_dropShadow"/>
<feBlend mode="normal" in="SourceGraphic" in2="effect1_dropShadow" result="shape"/>
</filter>
<filter id="filter1_d" x="64" y="220" width="177" height="183" filterUnits="userSpaceOnUse" color-interpolation-filters="sRGB">
<feFlood flood-opacity="0" result="BackgroundImageFix"/>
<feColorMatrix in="SourceAlpha" type="matrix" values="0 0 0 0 0 0 0 0 0 0 0 0 0 0 0 0 0 0 127 0"/>
<feMorphology radius="8" operator="erode" in="SourceAlpha" result="effect1_dropShadow"/>
<feOffset dy="22"/>
<feGaussianBlur stdDeviation="12.5"/>
<feColorMatrix type="matrix" values="0 0 0 0 0.7875 0 0 0 0 0.7875 0 0 0 0 0.7875 0 0 0 0.25 0"/>
<feBlend mode="normal" in2="BackgroundImageFix" result="effect1_dropShadow"/>
<feBlend mode="normal" in="SourceGraphic" in2="effect1_dropShadow" result="shape"/>
</filter>
<filter id="filter2_d" x="64" y="384" width="177" height="183" filterUnits="userSpaceOnUse" color-interpolation-filters="sRGB">
<feFlood flood-opacity="0" result="BackgroundImageFix"/>
<feColorMatrix in="SourceAlpha" type="matrix" values="0 0 0 0 0 0 0 0 0 0 0 0 0 0 0 0 0 0 127 0"/>
<feMorphology radius="8" operator="erode" in="SourceAlpha" result="effect1_dropShadow"/>
<feOffset dy="22"/>
<feGaussianBlur stdDeviation="12.5"/>
<feColorMatrix type="matrix" values="0 0 0 0 0.7875 0 0 0 0 0.7875 0 0 0 0 0.7875 0 0 0 0.25 0"/>
<feBlend mode="normal" in2="BackgroundImageFix" result="effect1_dropShadow"/>
<feBlend mode="normal" in="SourceGraphic" in2="effect1_dropShadow" result="shape"/>
</filter>
<filter id="filter3_d" x="64" y="548" width="177" height="183" filterUnits="userSpaceOnUse" color-interpolation-filters="sRGB">
<feFlood flood-opacity="0" result="BackgroundImageFix"/>
<feColorMatrix in="SourceAlpha" type="matrix" values="0 0 0 0 0 0 0 0 0 0 0 0 0 0 0 0 0 0 127 0"/>
<feMorphology radius="8" operator="erode" in="SourceAlpha" result="effect1_dropShadow"/>
<feOffset dy="22"/>
<feGaussianBlur stdDeviation="12.5"/>
<feColorMatrix type="matrix" values="0 0 0 0 0.7875 0 0 0 0 0.7875 0 0 0 0 0.7875 0 0 0 0.25 0"/>
<feBlend mode="normal" in2="BackgroundImageFix" result="effect1_dropShadow"/>
<feBlend mode="normal" in="SourceGraphic" in2="effect1_dropShadow" result="shape"/>
</filter>
<filter id="filter4_d" x="64" y="712" width="177" height="183" filterUnits="userSpaceOnUse" color-interpolation-filters="sRGB">
<feFlood flood-opacity="0" result="BackgroundImageFix"/>
<feColorMatrix in="SourceAlpha" type="matrix" values="0 0 0 0 0 0 0 0 0 0 0 0 0 0 0 0 0 0 127 0"/>
<feMorphology radius="8" operator="erode" in="SourceAlpha" result="effect1_dropShadow"/>
<feOffset dy="22"/>
<feGaussianBlur stdDeviation="12.5"/>
<feColorMatrix type="matrix" values="0 0 0 0 0.7875 0 0 0 0 0.7875 0 0 0 0 0.7875 0 0 0 0.25 0"/>
<feBlend mode="normal" in2="BackgroundImageFix" result="effect1_dropShadow"/>
<feBlend mode="normal" in="SourceGraphic" in2="effect1_dropShadow" result="shape"/>
</filter>
</defs>
</svg>
