<svg width="1010" height="487" viewBox="0 0 1010 487" fill="none" xmlns="http://www.w3.org/2000/svg">
<rect width="1010" height="487" fill="#FAFBFC"/>
<path d="M66 202C112 156 182 99 316 99C411.653 99 471.132 149.644 526.569 202H925C899 251 825 316 730 316C640.576 316 585.886 258.02 526.569 202H66Z" fill="url(#paint0_linear)"/>
<path d="M986.32 202L969 184.679L951.679 202L969 219.321L986.32 202ZM21 205H969V199H21V205Z" fill="url(#paint1_linear)"/>
<g filter="url(#filter0_d)">
<circle cx="121.5" cy="202.5" r="71.5" fill="url(#paint2_linear)"/>
</g>
<path d="M103.395 196.363H107.133C107.836 196.348 108.453 196.508 108.984 196.844C109.336 197.047 109.609 197.324 109.805 197.676C109.992 198.066 110.086 198.547 110.086 199.117C110.086 199.805 109.855 200.43 109.395 200.992C108.91 201.57 108.188 201.867 107.227 201.883H103.395V196.363ZM100.805 211H103.395V204.332H107.332C109.09 204.301 110.426 203.738 111.34 202.645C112.23 201.605 112.676 200.453 112.676 199.188C112.676 198.25 112.5 197.438 112.148 196.75C111.812 196.039 111.375 195.492 110.836 195.109C110.195 194.602 109.562 194.266 108.938 194.102C108.312 193.977 107.664 193.914 106.992 193.914H100.805V211Z" fill="#FF5C7A"/>
<path d="M114.809 208.047C114.809 209.117 115.113 209.879 115.723 210.332C116.301 210.777 117.035 211 117.926 211H119.016V208.691H118.172C117.562 208.691 117.258 208.414 117.258 207.859V193.914H114.809V208.047Z" fill="#FF5C7A"/>
<path d="M127.383 211H129.832V202.691C129.816 201.207 129.352 200.16 128.438 199.551C127.523 198.957 126.301 198.668 124.77 198.684C122.957 198.652 121.586 199.246 120.656 200.465L122.578 201.93C122.789 201.578 123.078 201.328 123.445 201.18C123.797 201.055 124.277 200.992 124.887 200.992C126.566 200.961 127.398 201.48 127.383 202.551V203.828H123.996C122.699 203.844 121.715 204.195 121.043 204.883C120.371 205.555 120.035 206.402 120.035 207.426C120.035 208.496 120.422 209.375 121.195 210.062C121.93 210.766 122.977 211.125 124.336 211.141C125.164 211.141 125.812 211.039 126.281 210.836C126.758 210.641 127.109 210.336 127.336 209.922H127.383V211ZM127.383 206.723C127.383 207.637 127.191 208.223 126.809 208.48C126.387 208.738 125.664 208.859 124.641 208.844C123.828 208.844 123.246 208.684 122.895 208.363C122.527 208.074 122.344 207.723 122.344 207.309C122.328 206.363 123.031 205.875 124.453 205.844H127.383V206.723Z" fill="#FF5C7A"/>
<path d="M132.996 211H135.445V203.758C135.445 202.906 135.676 202.258 136.137 201.812C136.59 201.359 137.168 201.133 137.871 201.133C138.574 201.133 139.148 201.359 139.594 201.812C140.047 202.258 140.273 202.906 140.273 203.758V211H142.723V202.914C142.684 201.523 142.25 200.469 141.422 199.75C140.586 199.039 139.664 198.684 138.656 198.684C137.352 198.684 136.297 199.164 135.492 200.125H135.445V198.836H132.996V211Z" fill="#FF5C7A"/>
<path d="M87.026 338.88V339.996H94.082L93.452 341.364H88.61V346.854H89.852V342.462H92.552V346.674H93.776V342.462H96.458V346.674H97.7V342.462H100.58V345.072C100.58 345.504 100.364 345.72 99.932 345.72L98.672 345.666L98.978 346.782H100.292C101.3 346.782 101.822 346.296 101.822 345.342V341.364H94.766L95.396 339.996H102.974V338.88H87.026ZM88.124 330.942V332.004H94.37V333.138H87.386V336.81H88.628V334.164H94.37V338.106H95.63V334.164H101.372V336.81H102.614V333.138H95.63V332.004H101.894V330.942H88.124ZM90.14 334.812L89.708 335.658C90.86 335.766 91.976 335.91 93.038 336.108L93.38 335.298C92.336 335.082 91.256 334.92 90.14 334.812ZM93.074 336.774C92.3 336.918 91.094 337.026 89.474 337.098L89.762 338.016C91.418 337.908 92.606 337.782 93.362 337.602L93.074 336.774ZM96.854 336.108C98.15 336 99.284 335.856 100.256 335.658L99.932 334.776C98.978 334.992 97.898 335.136 96.674 335.208L96.854 336.108ZM97.016 336.792L96.638 337.584C97.826 337.728 98.978 337.926 100.094 338.196L100.454 337.314C99.374 337.08 98.222 336.9 97.016 336.792Z" fill="#686868"/>
<path d="M105.296 333.606V334.848H112.46V344.874C112.46 345.306 112.244 345.54 111.83 345.54C111.074 345.54 110.3 345.504 109.472 345.45L109.742 346.692H112.28C113.288 346.692 113.792 346.188 113.792 345.18V338.124C115.286 341.004 117.482 343.434 120.362 345.414L121.262 344.352C119.282 343.092 117.608 341.616 116.258 339.96C117.644 339.024 118.832 337.926 119.822 336.684L118.85 335.82C117.932 337.026 116.834 338.106 115.538 339.042C114.854 338.088 114.278 337.08 113.792 336V334.848H120.668V333.606H113.792V330.276H112.46V333.606H105.296ZM107.132 336.198L106.25 337.044C107.672 338.088 108.788 339.06 109.616 339.996L110.498 339.114C109.598 338.142 108.464 337.17 107.132 336.198ZM116.15 330.438L115.304 331.23C116.366 332.058 117.212 332.814 117.824 333.534L118.706 332.652C118.022 331.914 117.158 331.176 116.15 330.438ZM111.146 339.906C109.454 341.634 107.438 343.11 105.098 344.298L105.656 345.576C107.96 344.28 109.904 342.768 111.47 341.076L111.146 339.906Z" fill="#686868"/>
<path d="M130.532 331.014V340.968H132.386C132.17 343.146 130.964 344.712 128.75 345.684L129.434 346.764C131.972 345.558 133.358 343.632 133.574 340.968H134.888V345.27C134.888 346.098 135.374 346.53 136.382 346.53H137.39C138.164 346.494 138.668 346.278 138.902 345.9C139.136 345.504 139.262 344.442 139.262 342.732L138.146 342.336C138.146 343.416 138.11 344.19 138.038 344.676C137.966 345.108 137.732 345.324 137.336 345.342H136.418C136.202 345.342 136.112 345.234 136.112 345.054V340.968H138.038V331.014H130.532ZM136.85 339.87H131.738V337.908H136.85V339.87ZM131.738 336.864V334.974H136.85V336.864H131.738ZM131.738 333.93V332.094H136.85V333.93H131.738ZM123.296 333.228V334.488H125.924V337.62H123.044V338.862H125.852C125.582 341.958 124.574 344.262 122.81 345.792L123.746 346.602C125.222 345.306 126.212 343.524 126.752 341.256C127.418 341.94 128.246 342.912 129.236 344.19L129.956 343.092C128.948 341.976 127.94 340.95 126.968 340.05C127.022 339.654 127.076 339.258 127.112 338.862H129.704V337.62H127.166C127.166 337.512 127.184 337.404 127.184 337.296V334.488H129.452V333.228H127.184V330.276H125.924V333.228H123.296Z" fill="#686868"/>
<path d="M150.062 335.694V333.984H151.628V333.012H150.062V331.284H146.75V330.312H145.526V331.284H142.286V332.148H145.58V333.066H140.918V333.912H145.58V334.848H142.16V335.694H145.526V336.522H141.674V337.35H145.526V338.178H141.08V339.042H151.196V338.178H146.75V337.35H150.62V336.522H146.75V335.694H150.062ZM146.696 332.148H148.874V333.066H146.696V332.148ZM146.696 333.912H148.874V334.848H146.696V333.912ZM141.98 339.78V344.334H150.296V339.78H141.98ZM149.108 343.524H146.714V342.426H149.108V343.524ZM145.562 343.524H143.15V342.426H145.562V343.524ZM143.15 341.652V340.59H145.562V341.652H143.15ZM146.714 340.59H149.108V341.652H146.714V340.59ZM151.052 345.108C148.532 345.216 145.202 345.306 141.098 345.342L141.242 346.386C145.58 346.278 148.856 346.17 151.052 346.062V345.108ZM155.03 346.656C156.02 346.656 156.524 346.134 156.524 345.126V330.348H155.264V344.82C155.264 345.288 155.03 345.54 154.598 345.54C154.022 345.54 153.41 345.504 152.78 345.45L153.05 346.656H155.03ZM152.384 331.932V343.11H153.536V331.932H152.384Z" fill="#686868"/>
<g filter="url(#filter1_d)">
<ellipse cx="304.5" cy="202" rx="71.5" ry="72" fill="white"/>
</g>
<path d="M282.84 197H285.43V179.914H282.84V197Z" fill="#FF665C"/>
<path d="M292.051 190.883L294.523 183.418H294.57L297.043 190.883H292.051ZM299.105 197H301.836L295.625 179.914H293.457L287.246 197H289.988L291.301 193.18H297.781L299.105 197Z" fill="#FF665C"/>
<path d="M312.582 183.559C312.582 183.098 312.75 182.707 313.086 182.387C313.391 182.082 313.781 181.93 314.258 181.93C314.758 181.93 315.168 182.082 315.488 182.387C315.793 182.707 315.945 183.098 315.945 183.559C315.945 183.988 315.801 184.383 315.512 184.742C315.191 185.094 314.637 185.43 313.848 185.75C313.48 185.398 313.188 185.027 312.969 184.637C312.711 184.27 312.582 183.91 312.582 183.559ZM318.746 195.277L320.328 197H323.211L320.328 193.566C320.812 193.043 321.246 192.453 321.629 191.797C322.012 191.156 322.324 190.516 322.566 189.875L320.375 189.008C320.055 190.031 319.559 190.984 318.887 191.867L315.242 187.473C317.18 186.512 318.133 185.238 318.102 183.652C318.086 182.582 317.734 181.672 317.047 180.922C316.359 180.172 315.43 179.789 314.258 179.773C313.094 179.789 312.168 180.172 311.48 180.922C310.777 181.672 310.426 182.582 310.426 183.652C310.426 184.23 310.566 184.793 310.848 185.34C311.09 185.895 311.418 186.414 311.832 186.898C309.676 188.094 308.59 189.758 308.574 191.891C308.59 193.328 309.094 194.551 310.086 195.559C311.047 196.582 312.344 197.109 313.977 197.141C314.883 197.125 315.73 196.941 316.52 196.59C317.316 196.238 318.059 195.801 318.746 195.277ZM313.203 188.527L317.328 193.473C316.148 194.496 315.004 195 313.895 194.984C313.035 194.984 312.301 194.68 311.691 194.07C311.066 193.492 310.746 192.758 310.73 191.867C310.715 190.617 311.539 189.504 313.203 188.527Z" fill="#FF665C"/>
<path d="M265.227 220.852L263.527 222.797C265.348 224.359 267.523 225.141 270.055 225.141C273.969 225.094 275.969 223.438 276.055 220.172C276.055 218.961 275.676 217.898 274.918 216.984C274.152 216.055 272.969 215.48 271.367 215.262C270.555 215.16 269.914 215.07 269.445 214.992C268.602 214.836 267.988 214.555 267.605 214.148C267.223 213.75 267.031 213.305 267.031 212.812C267.047 211.992 267.332 211.375 267.887 210.961C268.418 210.562 269.082 210.363 269.879 210.363C271.418 210.395 272.828 210.832 274.109 211.676L275.551 209.543C273.98 208.41 272.133 207.82 270.008 207.773C268.242 207.789 266.879 208.25 265.918 209.156C264.926 210.07 264.43 211.273 264.43 212.766C264.43 214.008 264.824 215.062 265.613 215.93C266.379 216.773 267.496 217.316 268.965 217.559C269.785 217.676 270.539 217.781 271.227 217.875C272.727 218.133 273.469 218.898 273.453 220.172C273.422 221.727 272.297 222.52 270.078 222.551C268.203 222.535 266.586 221.969 265.227 220.852Z" fill="#FF665C"/>
<path d="M278.797 225H281.387V207.914H278.797V225Z" fill="#FF665C"/>
<path d="M284.902 212.836H283.684V214.699H284.902V222C284.902 222.961 285.184 223.695 285.746 224.203C286.293 224.734 286.996 225 287.855 225H289.133V222.691H288.219C287.625 222.707 287.336 222.406 287.352 221.789V214.699H289.133V212.836H287.352V209.133H284.902V212.836Z" fill="#FF665C"/>
<path d="M300.875 219.844V217.828C300.859 216.227 300.363 214.969 299.387 214.055C298.426 213.156 297.25 212.699 295.859 212.684C295.281 212.684 294.695 212.789 294.102 213C293.5 213.211 292.957 213.555 292.473 214.031C291.996 214.5 291.605 215.141 291.301 215.953C290.996 216.75 290.844 217.75 290.844 218.953C290.844 220.203 291.02 221.219 291.371 222C291.691 222.812 292.109 223.445 292.625 223.898C292.891 224.117 293.176 224.301 293.48 224.449C293.77 224.621 294.066 224.758 294.371 224.859C294.98 225.047 295.605 225.141 296.246 225.141C297.926 225.156 299.387 224.5 300.629 223.172L298.859 221.66C298.078 222.449 297.191 222.844 296.199 222.844C295.348 222.844 294.66 222.586 294.137 222.07C293.574 221.562 293.293 220.82 293.293 219.844H300.875ZM293.293 217.828C293.34 216.883 293.594 216.168 294.055 215.684C294.523 215.223 295.125 214.992 295.859 214.992C296.594 214.992 297.195 215.223 297.664 215.684C298.141 216.168 298.395 216.883 298.426 217.828H293.293Z" fill="#FF665C"/>
<path d="M303.582 225H306.031V217.758C306.031 216.906 306.266 216.258 306.734 215.812C307.18 215.359 307.754 215.133 308.457 215.133C309.16 215.133 309.738 215.359 310.191 215.812C310.637 216.258 310.859 216.906 310.859 217.758V225H313.309V217.758C313.309 216.906 313.539 216.258 314 215.812C314.453 215.359 315.031 215.133 315.734 215.133C316.438 215.133 317.012 215.359 317.457 215.812C317.902 216.258 318.125 216.906 318.125 217.758V225H320.574V216.914C320.543 215.523 320.113 214.469 319.285 213.75C318.449 213.039 317.527 212.684 316.52 212.684C314.918 212.668 313.641 213.199 312.688 214.277C312.266 213.809 311.801 213.422 311.293 213.117C310.777 212.844 310.098 212.699 309.254 212.684C307.941 212.684 306.883 213.164 306.078 214.125H306.031V212.836H303.582V225Z" fill="#FF665C"/>
<path d="M330.289 225H332.738V216.691C332.723 215.207 332.258 214.16 331.344 213.551C330.43 212.957 329.207 212.668 327.676 212.684C325.863 212.652 324.492 213.246 323.562 214.465L325.484 215.93C325.695 215.578 325.984 215.328 326.352 215.18C326.703 215.055 327.184 214.992 327.793 214.992C329.473 214.961 330.305 215.48 330.289 216.551V217.828H326.902C325.605 217.844 324.621 218.195 323.949 218.883C323.277 219.555 322.941 220.402 322.941 221.426C322.941 222.496 323.328 223.375 324.102 224.062C324.836 224.766 325.883 225.125 327.242 225.141C328.07 225.141 328.719 225.039 329.188 224.836C329.664 224.641 330.016 224.336 330.242 223.922H330.289V225ZM330.289 220.723C330.289 221.637 330.098 222.223 329.715 222.48C329.293 222.738 328.57 222.859 327.547 222.844C326.734 222.844 326.152 222.684 325.801 222.363C325.434 222.074 325.25 221.723 325.25 221.309C325.234 220.363 325.938 219.875 327.359 219.844H330.289V220.723Z" fill="#FF665C"/>
<path d="M335.902 229.922H338.352V223.699C338.797 224.137 339.285 224.48 339.816 224.73C340.309 225.004 340.867 225.141 341.492 225.141C342.25 225.125 342.898 224.973 343.438 224.684C343.984 224.402 344.426 224.027 344.762 223.559C345.098 223.16 345.328 222.648 345.453 222.023C345.57 221.398 345.629 220.367 345.629 218.93C345.629 217.453 345.57 216.406 345.453 215.789C345.328 215.164 345.098 214.66 344.762 214.277C344.074 213.254 342.984 212.723 341.492 212.684C340.211 212.723 339.164 213.195 338.352 214.102V212.836H335.902V229.922ZM340.754 222.691C340.207 222.691 339.773 222.574 339.453 222.34C339.117 222.113 338.871 221.816 338.715 221.449C338.566 221.082 338.469 220.672 338.422 220.219C338.375 219.789 338.352 219.359 338.352 218.93C338.352 218.469 338.375 218.012 338.422 217.559C338.469 217.129 338.566 216.73 338.715 216.363C338.871 215.996 339.117 215.699 339.453 215.473C339.773 215.246 340.207 215.133 340.754 215.133C341.332 215.133 341.789 215.23 342.125 215.426C342.461 215.637 342.699 215.926 342.84 216.293C342.996 216.645 343.102 217.051 343.156 217.512C343.172 217.973 343.18 218.445 343.18 218.93C343.18 219.391 343.172 219.84 343.156 220.277C343.102 220.723 342.996 221.129 342.84 221.496C342.699 221.848 342.461 222.137 342.125 222.363C341.789 222.582 341.332 222.691 340.754 222.691Z" fill="#FF665C"/>
<path d="M276.054 332.4H281.832C281.49 332.976 281.112 333.48 280.698 333.912L281.598 334.614C282.174 333.966 282.696 333.174 283.164 332.238V331.32H276.72C276.864 331.014 276.99 330.69 277.116 330.366L275.928 330.222C275.46 331.5 274.56 332.58 273.246 333.462L273.966 334.416C274.794 333.822 275.496 333.156 276.054 332.4ZM268.44 331.338V332.454H272.868V331.338H268.44ZM268.08 334.578V335.712H273.246V334.578H268.08ZM278.16 332.724C277.692 334.488 276.216 335.604 273.732 336.054L274.344 336.99C276.252 336.612 277.638 335.838 278.502 334.65C279.852 336.036 281.508 336.882 283.47 337.188L283.992 336.108C281.976 335.856 280.302 335.064 279.006 333.75C279.114 333.498 279.204 333.228 279.276 332.94L278.16 332.724ZM270.204 337.044V344.172H281.832V337.044H270.204ZM280.554 343.128H271.482V341.976H280.554V343.128ZM271.482 341.094V340.05H280.554V341.094H271.482ZM271.482 339.168V338.052H280.554V339.168H271.482ZM277.926 344.334L277.458 345.234C279.546 345.63 281.562 346.17 283.47 346.89L283.902 345.864C281.994 345.198 279.996 344.694 277.926 344.334ZM273.822 344.28C272.526 344.928 270.618 345.45 268.098 345.864L268.692 346.872C271.212 346.44 273.138 345.846 274.47 345.126L273.822 344.28Z" fill="#686868"/>
<path d="M292.38 337.692V338.934H294.54V346.71H295.8V338.934H297.996V337.692H295.8V332.382H298.644V336.756C298.644 340.968 299.022 343.848 299.778 345.36C300.192 346.17 300.696 346.584 301.272 346.584C301.524 346.584 301.722 346.404 301.902 346.044C302.118 345.558 302.28 344.478 302.352 342.786L301.326 342.3C301.29 343.236 301.254 343.956 301.2 344.46C301.128 344.892 301.056 345.126 300.984 345.126C300.84 345.126 300.678 344.82 300.498 344.244C300.102 342.822 299.904 340.32 299.904 336.756V331.122H292.434V332.382H294.54V337.692H292.38ZM285.882 332.652V333.858H292.002V332.652H289.104L289.716 332.418C289.536 331.77 289.284 331.032 288.96 330.24L287.718 330.582C288.042 331.23 288.312 331.932 288.564 332.652H285.882ZM286.548 335.28V336.432H291.3V335.28H286.548ZM286.548 337.782V338.934H291.3V337.782H286.548ZM291.444 340.446H286.422V346.656H287.61V345.648H290.256V346.512H291.444V340.446ZM287.61 344.478V341.616H290.256V344.478H287.61Z" fill="#686868"/>
<path d="M313.314 331.482V337.764H319.146V331.482H313.314ZM317.904 336.576H314.556V332.652H317.904V336.576ZM306.798 330.348V331.968H304.26V333.084H306.708C306.438 335.226 305.484 336.828 303.864 337.908L304.818 338.754C306.618 337.494 307.68 335.604 307.986 333.084H310.47C310.434 334.974 310.344 336.144 310.2 336.576C310.02 337.026 309.606 337.26 308.958 337.278L307.932 337.188L308.256 338.358C308.652 338.394 308.976 338.43 309.264 338.43C310.164 338.43 310.794 338.124 311.172 337.512C311.532 336.9 311.712 335.064 311.73 331.968H308.076V330.348H306.798ZM304.116 340.086V341.31H311.352V346.764H312.648V341.31H319.902V340.086H312.648V338.628H311.352V340.086H304.116ZM309.264 342.066C307.842 343.398 306.096 344.568 304.008 345.576L304.782 346.584C306.906 345.522 308.706 344.28 310.164 342.858L309.264 342.066ZM314.592 341.994L313.836 342.858C315.654 343.902 317.418 345.108 319.128 346.494L319.956 345.558C318.354 344.28 316.572 343.092 314.592 341.994Z" fill="#686868"/>
<path d="M330.054 330.24V331.608H327.858V332.634H330.054V333.876H328.182V334.866H330.054V336.108H327.426V337.134H332.178V338.286H328.434V342.822H327.264V343.884H328.434V346.746H329.604V343.884H335.994V345.18C335.994 345.522 335.76 345.702 335.328 345.702L333.87 345.666L334.158 346.728H335.706C336.678 346.728 337.164 346.296 337.164 345.45V343.884H338.28V342.822H337.164V338.286H333.366V337.134H338.19V336.108H335.58V334.866H337.452V333.876H335.58V332.634H337.776V331.608H335.58V330.24H334.392V331.608H331.26V330.24H330.054ZM329.604 342.822V341.472H332.178V342.822H329.604ZM333.366 342.822V341.472H335.994V342.822H333.366ZM331.26 336.108V334.866H334.392V336.108H331.26ZM331.26 333.876V332.634H334.392V333.876H331.26ZM335.994 340.572H333.366V339.258H335.994V340.572ZM332.178 339.258V340.572H329.604V339.258H332.178ZM325.374 337.602C325.77 338.286 326.256 339.186 326.796 340.284L327.498 339.24C326.778 338.124 326.058 337.134 325.374 336.252V335.064H327.156V333.822H325.374V330.294H324.114V333.822H321.954V335.064H324.024C323.538 337.35 322.728 339.384 321.612 341.148L322.116 342.444C322.926 341.058 323.592 339.528 324.114 337.836V346.746H325.374V337.602Z" fill="#686868"/>
<g filter="url(#filter2_d)">
<ellipse cx="487.5" cy="203" rx="71.5" ry="72" fill="white"/>
</g>
<path d="M459.582 207.219C458.863 208.773 457.777 209.551 456.324 209.551C455.715 209.551 455.191 209.422 454.754 209.164C454.309 208.945 453.949 208.66 453.676 208.309C453.34 207.941 453.117 207.461 453.008 206.867C452.883 206.273 452.82 205.137 452.82 203.457C452.82 201.777 452.883 200.633 453.008 200.023C453.117 199.445 453.34 198.973 453.676 198.605C453.949 198.254 454.309 197.961 454.754 197.727C455.191 197.5 455.715 197.379 456.324 197.363C457.152 197.379 457.855 197.617 458.434 198.078C458.988 198.562 459.371 199.148 459.582 199.836H462.324C462.051 198.406 461.395 197.207 460.355 196.238C459.316 195.277 457.973 194.789 456.324 194.773C454.98 194.789 453.859 195.109 452.961 195.734C452.047 196.352 451.383 197.055 450.969 197.844C450.711 198.258 450.52 198.801 450.395 199.473C450.277 200.145 450.219 201.473 450.219 203.457C450.219 205.41 450.277 206.73 450.395 207.418C450.457 207.785 450.535 208.09 450.629 208.332C450.73 208.566 450.844 208.812 450.969 209.07C451.383 209.859 452.047 210.555 452.961 211.156C453.859 211.781 454.98 212.109 456.324 212.141C457.809 212.141 459.094 211.719 460.18 210.875C461.234 210.023 461.949 208.805 462.324 207.219H459.582Z" fill="#FF665C"/>
<path d="M463.344 205.906C463.344 207.188 463.449 208.164 463.66 208.836C463.879 209.508 464.215 210.09 464.668 210.582C465.004 210.965 465.473 211.309 466.074 211.613C466.668 211.949 467.43 212.125 468.359 212.141C469.32 212.125 470.098 211.949 470.691 211.613C471.012 211.473 471.273 211.305 471.477 211.109C471.703 210.938 471.895 210.762 472.051 210.582C472.535 210.09 472.879 209.508 473.082 208.836C473.277 208.164 473.375 207.188 473.375 205.906C473.375 204.625 473.277 203.641 473.082 202.953C472.879 202.281 472.535 201.715 472.051 201.254C471.73 200.848 471.277 200.484 470.691 200.164C470.098 199.859 469.32 199.699 468.359 199.684C467.43 199.699 466.668 199.859 466.074 200.164C465.473 200.484 465.004 200.848 464.668 201.254C464.215 201.715 463.879 202.281 463.66 202.953C463.449 203.641 463.344 204.625 463.344 205.906ZM470.926 205.93C470.926 206.758 470.887 207.367 470.809 207.758C470.73 208.156 470.57 208.508 470.328 208.812C470.148 209.047 469.883 209.254 469.531 209.434C469.195 209.605 468.805 209.691 468.359 209.691C467.945 209.691 467.562 209.605 467.211 209.434C466.875 209.254 466.602 209.047 466.391 208.812C466.18 208.508 466.027 208.156 465.934 207.758C465.84 207.367 465.793 206.75 465.793 205.906C465.793 205.055 465.84 204.43 465.934 204.031C466.027 203.648 466.18 203.312 466.391 203.023C466.602 202.75 466.875 202.535 467.211 202.379C467.562 202.215 467.945 202.133 468.359 202.133C468.805 202.133 469.195 202.215 469.531 202.379C469.883 202.535 470.148 202.75 470.328 203.023C470.57 203.312 470.73 203.648 470.809 204.031C470.887 204.43 470.926 205.062 470.926 205.93Z" fill="#FF665C"/>
<path d="M475.941 212H478.391V204.758C478.391 203.906 478.621 203.258 479.082 202.812C479.535 202.359 480.113 202.133 480.816 202.133C481.52 202.133 482.094 202.359 482.539 202.812C482.992 203.258 483.219 203.906 483.219 204.758V212H485.668V203.914C485.629 202.523 485.195 201.469 484.367 200.75C483.531 200.039 482.609 199.684 481.602 199.684C480.297 199.684 479.242 200.164 478.438 201.125H478.391V199.836H475.941V212Z" fill="#FF665C"/>
<path d="M488.973 199.836H487.754V201.699H488.973V209C488.973 209.961 489.254 210.695 489.816 211.203C490.363 211.734 491.066 212 491.926 212H493.203V209.691H492.289C491.695 209.707 491.406 209.406 491.422 208.789V201.699H493.203V199.836H491.422V196.133H488.973V199.836Z" fill="#FF665C"/>
<path d="M504.945 206.844V204.828C504.93 203.227 504.434 201.969 503.457 201.055C502.496 200.156 501.32 199.699 499.93 199.684C499.352 199.684 498.766 199.789 498.172 200C497.57 200.211 497.027 200.555 496.543 201.031C496.066 201.5 495.676 202.141 495.371 202.953C495.066 203.75 494.914 204.75 494.914 205.953C494.914 207.203 495.09 208.219 495.441 209C495.762 209.812 496.18 210.445 496.695 210.898C496.961 211.117 497.246 211.301 497.551 211.449C497.84 211.621 498.137 211.758 498.441 211.859C499.051 212.047 499.676 212.141 500.316 212.141C501.996 212.156 503.457 211.5 504.699 210.172L502.93 208.66C502.148 209.449 501.262 209.844 500.27 209.844C499.418 209.844 498.73 209.586 498.207 209.07C497.645 208.562 497.363 207.82 497.363 206.844H504.945ZM497.363 204.828C497.41 203.883 497.664 203.168 498.125 202.684C498.594 202.223 499.195 201.992 499.93 201.992C500.664 201.992 501.266 202.223 501.734 202.684C502.211 203.168 502.465 203.883 502.496 204.828H497.363Z" fill="#FF665C"/>
<path d="M507.512 212H509.961V204.758C509.961 203.906 510.191 203.258 510.652 202.812C511.105 202.359 511.684 202.133 512.387 202.133C513.09 202.133 513.664 202.359 514.109 202.812C514.562 203.258 514.789 203.906 514.789 204.758V212H517.238V203.914C517.199 202.523 516.766 201.469 515.938 200.75C515.102 200.039 514.18 199.684 513.172 199.684C511.867 199.684 510.812 200.164 510.008 201.125H509.961V199.836H507.512V212Z" fill="#FF665C"/>
<path d="M520.543 199.836H519.324V201.699H520.543V209C520.543 209.961 520.824 210.695 521.387 211.203C521.934 211.734 522.637 212 523.496 212H524.773V209.691H523.859C523.266 209.707 522.977 209.406 522.992 208.789V201.699H524.773V199.836H522.992V196.133H520.543V199.836Z" fill="#FF665C"/>
<path d="M451.152 333.336V334.632H453.924C454.734 337.404 456.174 339.816 458.262 341.868C456.318 343.632 453.834 344.91 450.81 345.72L451.494 346.854C454.554 345.972 457.11 344.586 459.162 342.696C461.106 344.37 463.554 345.756 466.542 346.872L467.244 345.792C464.364 344.73 461.97 343.398 460.062 341.778C461.826 339.87 463.158 337.476 464.04 334.632H466.848V333.336H459.972C459.396 332.094 458.784 331.032 458.1 330.168L456.804 330.636C457.524 331.482 458.118 332.382 458.604 333.336H451.152ZM455.202 334.632H462.69C461.934 337.116 460.764 339.222 459.162 340.968C457.29 339.168 455.976 337.062 455.202 334.632Z" fill="#686868"/>
<path d="M475.758 333.174C475.398 333.678 475.002 334.2 474.606 334.722H469.854V335.766H473.76C473.328 336.27 472.878 336.774 472.41 337.314C473.634 337.548 474.876 337.818 476.136 338.124C474.552 338.628 472.392 338.898 469.674 338.898L470.376 339.96C473.454 339.924 475.938 339.456 477.81 338.556C479.628 339.042 481.428 339.618 483.228 340.266L483.984 339.276C482.328 338.736 480.708 338.25 479.124 337.836C479.862 337.296 480.546 336.612 481.176 335.766H484.182V334.722H476.028C476.316 334.362 476.604 333.966 476.928 333.534L475.758 333.174ZM477.648 337.458C476.496 337.188 475.38 336.954 474.282 336.756C474.552 336.468 474.84 336.126 475.164 335.766H479.772C479.232 336.396 478.512 336.954 477.648 337.458ZM484.236 331.716H477.684C477.468 331.176 477.252 330.672 477.018 330.222L475.668 330.438C475.938 330.834 476.19 331.248 476.424 331.716H469.764V334.254H470.988V332.814H483.012V334.254H484.236V331.716ZM469.296 341.004V342.156H476.37V346.818H477.702V342.156H484.722V341.004H477.702V339.6H476.37V341.004H469.296ZM480.24 342.714L479.448 343.488C481.158 344.532 482.508 345.54 483.498 346.476L484.398 345.576C483.282 344.64 481.896 343.686 480.24 342.714ZM473.76 342.732C472.572 343.758 471.132 344.658 469.44 345.432L470.214 346.458C471.96 345.594 473.436 344.604 474.624 343.488L473.76 342.732Z" fill="#686868"/>
<path d="M488.628 346.782C489.6 346.782 490.104 346.296 490.104 345.342V339.852C490.698 339.564 491.274 339.24 491.85 338.898V337.584C491.274 337.944 490.698 338.268 490.104 338.556V334.848H491.706V333.624H490.104V330.348H488.862V333.624H486.972V334.848H488.862V339.114C488.178 339.384 487.458 339.618 486.702 339.834L487.026 341.148C487.638 340.932 488.25 340.68 488.862 340.428V345.036C488.862 345.432 488.628 345.648 488.178 345.648C487.818 345.648 487.422 345.612 487.008 345.558L487.278 346.782H488.628ZM494.91 337.62V338.934H492.642V340.068H494.91V341.976H492.084V343.128H503.046V341.976H500.274V340.068H502.488V338.934H500.274V337.62H499.068V338.934H496.116V337.62H494.91ZM496.116 341.976V340.068H499.068V341.976H496.116ZM499.194 343.632L498.564 344.568C499.896 345.072 501.21 345.774 502.47 346.674L503.136 345.648C501.948 344.856 500.634 344.19 499.194 343.632ZM495.954 343.614C494.874 344.406 493.56 345.108 491.994 345.702L492.75 346.674C494.352 346.026 495.702 345.252 496.8 344.37L495.954 343.614ZM492.768 337.674C494.496 337.35 496.026 337.008 497.376 336.63L497.088 335.604C496.026 335.928 494.928 336.198 493.812 336.414V334.398H496.962V330.924H492.678V336.18C492.678 336.468 492.57 336.684 492.354 336.792L492.768 337.674ZM493.812 333.354V331.95H495.81V333.354H493.812ZM501.246 331.95V333.354H499.122V331.95H501.246ZM499.122 334.362H502.398V330.978H497.97V336C497.97 336.72 498.348 337.098 499.14 337.098H502.776V336.054H499.716C499.32 336.054 499.122 335.856 499.122 335.496V334.362Z" fill="#686868"/>
<path d="M516.528 342.3L515.538 342.696C515.88 343.308 516.204 344.046 516.51 344.892L517.5 344.46C517.212 343.704 516.888 342.984 516.528 342.3ZM513.918 342.606L512.856 342.822C513.18 343.596 513.45 344.478 513.666 345.486L514.8 345.216C514.548 344.28 514.242 343.398 513.918 342.606ZM515.304 346.746H517.266C518.058 346.71 518.634 346.53 518.994 346.188C519.354 345.828 519.606 345.18 519.768 344.28C519.912 343.344 520.002 342.138 520.056 340.662H509.922C510.246 340.32 510.57 339.96 510.876 339.564H518.472V334.074H513.738V335.118H517.284V336.324H513.972V337.314H517.284V338.502H508.716V337.314H512.208V336.306H508.716V335.118C510.3 334.92 511.56 334.65 512.496 334.308L511.92 333.354C510.696 333.768 509.256 334.02 507.564 334.128V339.564H509.436C508.302 340.752 506.916 341.742 505.278 342.534L506.088 343.506C507.06 342.984 507.942 342.39 508.752 341.742H518.796C518.724 343.38 518.544 344.442 518.292 344.946C518.04 345.414 517.5 345.666 516.69 345.666C516.15 345.666 515.592 345.648 514.998 345.612L515.304 346.746ZM507.87 342.66C507.51 344.028 507.096 345.18 506.61 346.08L507.78 346.494C508.248 345.468 508.644 344.28 508.968 342.948L507.87 342.66ZM511.308 342.786L510.228 343.02C510.462 343.92 510.66 344.982 510.804 346.188L511.974 345.918C511.776 344.784 511.56 343.74 511.308 342.786ZM520.47 331.716H513.612C513.396 331.176 513.162 330.672 512.928 330.24L511.596 330.456C511.848 330.834 512.1 331.248 512.316 331.716H505.548V334.974H506.772V332.868H519.246V334.956H520.47V331.716Z" fill="#686868"/>
<g filter="url(#filter3_d)">
<ellipse cx="670.5" cy="202" rx="71.5" ry="72" fill="white"/>
</g>
<path d="M623.582 206.219C622.863 207.773 621.777 208.551 620.324 208.551C619.715 208.551 619.191 208.422 618.754 208.164C618.309 207.945 617.949 207.66 617.676 207.309C617.34 206.941 617.117 206.461 617.008 205.867C616.883 205.273 616.82 204.137 616.82 202.457C616.82 200.777 616.883 199.633 617.008 199.023C617.117 198.445 617.34 197.973 617.676 197.605C617.949 197.254 618.309 196.961 618.754 196.727C619.191 196.5 619.715 196.379 620.324 196.363C621.152 196.379 621.855 196.617 622.434 197.078C622.988 197.562 623.371 198.148 623.582 198.836H626.324C626.051 197.406 625.395 196.207 624.355 195.238C623.316 194.277 621.973 193.789 620.324 193.773C618.98 193.789 617.859 194.109 616.961 194.734C616.047 195.352 615.383 196.055 614.969 196.844C614.711 197.258 614.52 197.801 614.395 198.473C614.277 199.145 614.219 200.473 614.219 202.457C614.219 204.41 614.277 205.73 614.395 206.418C614.457 206.785 614.535 207.09 614.629 207.332C614.73 207.566 614.844 207.812 614.969 208.07C615.383 208.859 616.047 209.555 616.961 210.156C617.859 210.781 618.98 211.109 620.324 211.141C621.809 211.141 623.094 210.719 624.18 209.875C625.234 209.023 625.949 207.805 626.324 206.219H623.582Z" fill="url(#paint3_linear)"/>
<path d="M627.344 204.906C627.344 206.188 627.449 207.164 627.66 207.836C627.879 208.508 628.215 209.09 628.668 209.582C629.004 209.965 629.473 210.309 630.074 210.613C630.668 210.949 631.43 211.125 632.359 211.141C633.32 211.125 634.098 210.949 634.691 210.613C635.012 210.473 635.273 210.305 635.477 210.109C635.703 209.938 635.895 209.762 636.051 209.582C636.535 209.09 636.879 208.508 637.082 207.836C637.277 207.164 637.375 206.188 637.375 204.906C637.375 203.625 637.277 202.641 637.082 201.953C636.879 201.281 636.535 200.715 636.051 200.254C635.73 199.848 635.277 199.484 634.691 199.164C634.098 198.859 633.32 198.699 632.359 198.684C631.43 198.699 630.668 198.859 630.074 199.164C629.473 199.484 629.004 199.848 628.668 200.254C628.215 200.715 627.879 201.281 627.66 201.953C627.449 202.641 627.344 203.625 627.344 204.906ZM634.926 204.93C634.926 205.758 634.887 206.367 634.809 206.758C634.73 207.156 634.57 207.508 634.328 207.812C634.148 208.047 633.883 208.254 633.531 208.434C633.195 208.605 632.805 208.691 632.359 208.691C631.945 208.691 631.562 208.605 631.211 208.434C630.875 208.254 630.602 208.047 630.391 207.812C630.18 207.508 630.027 207.156 629.934 206.758C629.84 206.367 629.793 205.75 629.793 204.906C629.793 204.055 629.84 203.43 629.934 203.031C630.027 202.648 630.18 202.312 630.391 202.023C630.602 201.75 630.875 201.535 631.211 201.379C631.562 201.215 631.945 201.133 632.359 201.133C632.805 201.133 633.195 201.215 633.531 201.379C633.883 201.535 634.148 201.75 634.328 202.023C634.57 202.312 634.73 202.648 634.809 203.031C634.887 203.43 634.926 204.062 634.926 204.93Z" fill="url(#paint4_linear)"/>
<path d="M640.082 211H642.531V203.758C642.531 202.906 642.766 202.258 643.234 201.812C643.68 201.359 644.254 201.133 644.957 201.133C645.66 201.133 646.238 201.359 646.691 201.812C647.137 202.258 647.359 202.906 647.359 203.758V211H649.809V203.758C649.809 202.906 650.039 202.258 650.5 201.812C650.953 201.359 651.531 201.133 652.234 201.133C652.938 201.133 653.512 201.359 653.957 201.812C654.402 202.258 654.625 202.906 654.625 203.758V211H657.074V202.914C657.043 201.523 656.613 200.469 655.785 199.75C654.949 199.039 654.027 198.684 653.02 198.684C651.418 198.668 650.141 199.199 649.188 200.277C648.766 199.809 648.301 199.422 647.793 199.117C647.277 198.844 646.598 198.699 645.754 198.684C644.441 198.684 643.383 199.164 642.578 200.125H642.531V198.836H640.082V211Z" fill="url(#paint5_linear)"/>
<path d="M660.402 215.922H662.852V209.699C663.297 210.137 663.785 210.48 664.316 210.73C664.809 211.004 665.367 211.141 665.992 211.141C666.75 211.125 667.398 210.973 667.938 210.684C668.484 210.402 668.926 210.027 669.262 209.559C669.598 209.16 669.828 208.648 669.953 208.023C670.07 207.398 670.129 206.367 670.129 204.93C670.129 203.453 670.07 202.406 669.953 201.789C669.828 201.164 669.598 200.66 669.262 200.277C668.574 199.254 667.484 198.723 665.992 198.684C664.711 198.723 663.664 199.195 662.852 200.102V198.836H660.402V215.922ZM665.254 208.691C664.707 208.691 664.273 208.574 663.953 208.34C663.617 208.113 663.371 207.816 663.215 207.449C663.066 207.082 662.969 206.672 662.922 206.219C662.875 205.789 662.852 205.359 662.852 204.93C662.852 204.469 662.875 204.012 662.922 203.559C662.969 203.129 663.066 202.73 663.215 202.363C663.371 201.996 663.617 201.699 663.953 201.473C664.273 201.246 664.707 201.133 665.254 201.133C665.832 201.133 666.289 201.23 666.625 201.426C666.961 201.637 667.199 201.926 667.34 202.293C667.496 202.645 667.602 203.051 667.656 203.512C667.672 203.973 667.68 204.445 667.68 204.93C667.68 205.391 667.672 205.84 667.656 206.277C667.602 206.723 667.496 207.129 667.34 207.496C667.199 207.848 666.961 208.137 666.625 208.363C666.289 208.582 665.832 208.691 665.254 208.691Z" fill="url(#paint6_linear)"/>
<path d="M672.273 204.906C672.273 206.188 672.379 207.164 672.59 207.836C672.809 208.508 673.145 209.09 673.598 209.582C673.934 209.965 674.402 210.309 675.004 210.613C675.598 210.949 676.359 211.125 677.289 211.141C678.25 211.125 679.027 210.949 679.621 210.613C679.941 210.473 680.203 210.305 680.406 210.109C680.633 209.938 680.824 209.762 680.98 209.582C681.465 209.09 681.809 208.508 682.012 207.836C682.207 207.164 682.305 206.188 682.305 204.906C682.305 203.625 682.207 202.641 682.012 201.953C681.809 201.281 681.465 200.715 680.98 200.254C680.66 199.848 680.207 199.484 679.621 199.164C679.027 198.859 678.25 198.699 677.289 198.684C676.359 198.699 675.598 198.859 675.004 199.164C674.402 199.484 673.934 199.848 673.598 200.254C673.145 200.715 672.809 201.281 672.59 201.953C672.379 202.641 672.273 203.625 672.273 204.906ZM679.855 204.93C679.855 205.758 679.816 206.367 679.738 206.758C679.66 207.156 679.5 207.508 679.258 207.812C679.078 208.047 678.812 208.254 678.461 208.434C678.125 208.605 677.734 208.691 677.289 208.691C676.875 208.691 676.492 208.605 676.141 208.434C675.805 208.254 675.531 208.047 675.32 207.812C675.109 207.508 674.957 207.156 674.863 206.758C674.77 206.367 674.723 205.75 674.723 204.906C674.723 204.055 674.77 203.43 674.863 203.031C674.957 202.648 675.109 202.312 675.32 202.023C675.531 201.75 675.805 201.535 676.141 201.379C676.492 201.215 676.875 201.133 677.289 201.133C677.734 201.133 678.125 201.215 678.461 201.379C678.812 201.535 679.078 201.75 679.258 202.023C679.5 202.312 679.66 202.648 679.738 203.031C679.816 203.43 679.855 204.062 679.855 204.93Z" fill="url(#paint7_linear)"/>
<path d="M684.871 211H687.32V203.758C687.32 202.906 687.551 202.258 688.012 201.812C688.465 201.359 689.043 201.133 689.746 201.133C690.449 201.133 691.023 201.359 691.469 201.812C691.922 202.258 692.148 202.906 692.148 203.758V211H694.598V202.914C694.559 201.523 694.125 200.469 693.297 199.75C692.461 199.039 691.539 198.684 690.531 198.684C689.227 198.684 688.172 199.164 687.367 200.125H687.32V198.836H684.871V211Z" fill="url(#paint8_linear)"/>
<path d="M707.195 205.844V203.828C707.18 202.227 706.684 200.969 705.707 200.055C704.746 199.156 703.57 198.699 702.18 198.684C701.602 198.684 701.016 198.789 700.422 199C699.82 199.211 699.277 199.555 698.793 200.031C698.316 200.5 697.926 201.141 697.621 201.953C697.316 202.75 697.164 203.75 697.164 204.953C697.164 206.203 697.34 207.219 697.691 208C698.012 208.812 698.43 209.445 698.945 209.898C699.211 210.117 699.496 210.301 699.801 210.449C700.09 210.621 700.387 210.758 700.691 210.859C701.301 211.047 701.926 211.141 702.566 211.141C704.246 211.156 705.707 210.5 706.949 209.172L705.18 207.66C704.398 208.449 703.512 208.844 702.52 208.844C701.668 208.844 700.98 208.586 700.457 208.07C699.895 207.562 699.613 206.82 699.613 205.844H707.195ZM699.613 203.828C699.66 202.883 699.914 202.168 700.375 201.684C700.844 201.223 701.445 200.992 702.18 200.992C702.914 200.992 703.516 201.223 703.984 201.684C704.461 202.168 704.715 202.883 704.746 203.828H699.613Z" fill="url(#paint9_linear)"/>
<path d="M709.762 211H712.211V203.758C712.211 202.906 712.441 202.258 712.902 201.812C713.355 201.359 713.934 201.133 714.637 201.133C715.34 201.133 715.914 201.359 716.359 201.812C716.812 202.258 717.039 202.906 717.039 203.758V211H719.488V202.914C719.449 201.523 719.016 200.469 718.188 199.75C717.352 199.039 716.43 198.684 715.422 198.684C714.117 198.684 713.062 199.164 712.258 200.125H712.211V198.836H709.762V211Z" fill="url(#paint10_linear)"/>
<path d="M722.793 198.836H721.574V200.699H722.793V208C722.793 208.961 723.074 209.695 723.637 210.203C724.184 210.734 724.887 211 725.746 211H727.023V208.691H726.109C725.516 208.707 725.227 208.406 725.242 207.789V200.699H727.023V198.836H725.242V195.133H722.793V198.836Z" fill="url(#paint11_linear)"/>
<path d="M636.7 331.302V332.562H649.138V331.302H636.7ZM635.314 336.594V337.854H639.976V338.124C639.94 340.086 639.544 341.688 638.824 342.912C638.05 344.1 636.7 345.036 634.756 345.756L635.458 346.854C637.456 346.116 638.896 345.09 639.796 343.776C640.696 342.354 641.182 340.464 641.236 338.124V337.854H644.476V344.838C644.476 345.954 645.034 346.512 646.168 346.512H648.778C649.426 346.512 649.912 346.314 650.218 345.954C650.578 345.54 650.812 344.352 650.938 342.39L649.75 342.012C649.678 343.632 649.552 344.604 649.336 344.928C649.192 345.198 648.922 345.342 648.526 345.342H646.528C645.988 345.342 645.736 345.072 645.736 344.568V337.854H650.704V336.594H635.314Z" fill="#686868"/>
<path d="M656.716 330.186C655.852 332.994 654.484 335.496 652.576 337.656L652.99 339.042C653.674 338.322 654.304 337.566 654.88 336.774V346.818H656.158V334.794C656.878 333.516 657.472 332.166 657.94 330.744L656.716 330.186ZM659.74 331.374C659.344 333.768 658.606 335.802 657.508 337.458L658.336 338.538C659.002 337.602 659.56 336.54 660.01 335.352H663.07V339.69H657.778V340.932H663.07V346.728H664.366V340.932H669.172V339.69H664.366V335.352H668.506V334.092H664.366V330.348H663.07V334.092H660.424C660.676 333.3 660.874 332.436 661.018 331.536L659.74 331.374Z" fill="#686868"/>
<path d="M685.984 331.014H678.622V345.144H677.29V346.386H687.208V345.144H685.984V331.014ZM679.864 345.144V341.634H684.76V345.144H679.864ZM679.864 340.446V336.918H684.76V340.446H679.864ZM679.864 335.712V332.22H684.76V335.712H679.864ZM671.692 342.39C671.584 343.848 671.332 345.144 670.954 346.278L672.124 346.638C672.484 345.45 672.7 344.082 672.808 342.534L671.692 342.39ZM674.788 342.192L673.726 342.426C673.978 343.47 674.176 344.694 674.356 346.062L675.508 345.792C675.292 344.496 675.058 343.308 674.788 342.192ZM676.498 337.548L675.49 337.872C675.706 338.358 675.904 338.88 676.084 339.42C675.04 339.708 673.996 339.96 672.952 340.158C674.032 338.898 675.4 336.738 677.056 333.678L675.904 333.246C675.472 334.074 675.058 334.848 674.68 335.568C673.924 335.694 673.15 335.802 672.394 335.874C673.276 334.614 674.158 332.94 675.022 330.834L673.834 330.366C673.15 332.31 672.358 334.02 671.458 335.514C671.296 335.73 671.116 335.892 670.936 335.982L671.242 337.098C672.178 336.972 673.114 336.828 674.05 336.684C673.132 338.232 672.358 339.33 671.71 339.996C671.566 340.14 671.368 340.248 671.152 340.356L671.476 341.472C673.042 341.274 674.68 340.914 676.408 340.41C676.516 340.752 676.606 341.112 676.714 341.472L677.758 341.184C677.398 339.816 676.966 338.61 676.498 337.548ZM676.858 341.742L675.868 342.048C676.192 342.894 676.462 343.794 676.678 344.73L677.74 344.442C677.488 343.434 677.182 342.534 676.858 341.742Z" fill="#686868"/>
<path d="M701.392 330.24L700.564 331.032C701.482 331.734 702.202 332.4 702.742 333.048H699.376C699.34 332.184 699.322 331.266 699.322 330.258H697.99C697.99 331.23 698.008 332.148 698.044 333.048H690.61V339.042C690.556 341.976 689.962 344.262 688.81 345.918L689.8 346.8C691.132 344.856 691.852 342.264 691.924 339.042V338.502H695.038C695.002 340.482 694.948 341.778 694.84 342.39C694.732 342.894 694.48 343.164 694.084 343.182C693.598 343.182 693.004 343.164 692.302 343.128L692.698 344.298C693.274 344.334 693.796 344.37 694.228 344.37C695.128 344.334 695.686 343.938 695.92 343.164C696.154 342.282 696.298 340.32 696.334 337.278H691.924V334.29H698.098C698.242 336.54 698.494 338.43 698.89 339.942C699.088 340.716 699.322 341.436 699.574 342.102C698.332 343.668 696.802 344.856 695.002 345.666L695.722 346.746C697.414 345.99 698.89 344.892 700.15 343.416C700.42 343.974 700.726 344.478 701.05 344.91C701.914 345.99 702.724 346.53 703.48 346.53C704.29 346.53 704.902 345.324 705.334 342.93L704.164 342.282C703.894 344.136 703.588 345.072 703.264 345.09C702.904 345.09 702.418 344.658 701.824 343.794C701.536 343.38 701.266 342.876 701.014 342.3C702.166 340.68 703.102 338.664 703.822 336.288L702.652 335.784C702.094 337.71 701.374 339.402 700.474 340.842C700.348 340.446 700.222 340.032 700.114 339.582C699.79 338.286 699.556 336.522 699.43 334.29H704.974V333.048H702.778L703.606 332.22C702.994 331.554 702.256 330.888 701.392 330.24Z" fill="#686868"/>
<g filter="url(#filter4_d)">
<ellipse cx="853.5" cy="202" rx="71.5" ry="72" fill="white"/>
</g>
<path d="M829.016 211H831.031L836.68 193.914H833.938L830.047 206.922H830L826.121 193.914H823.379L829.016 211Z" fill="#FF5C7A"/>
<path d="M837.922 211H840.371V198.836H837.922V211ZM837.922 196.363H840.371V193.914H837.922V196.363Z" fill="#FF5C7A"/>
<path d="M843.98 207.285L842.27 208.961C843.855 210.414 845.641 211.141 847.625 211.141C849.086 211.125 850.285 210.789 851.223 210.133C852.168 209.492 852.648 208.582 852.664 207.402C852.664 206.395 852.402 205.562 851.879 204.906C851.316 204.234 850.402 203.852 849.137 203.758L847.121 203.605C846.527 203.543 846.113 203.398 845.879 203.172C845.621 202.969 845.5 202.73 845.516 202.457C845.516 202.027 845.676 201.676 845.996 201.402C846.301 201.129 846.836 200.992 847.602 200.992C848.273 200.992 848.867 201.09 849.383 201.285C849.906 201.504 850.402 201.781 850.871 202.117L852.383 200.348C851.789 199.832 851.117 199.422 850.367 199.117C849.977 198.977 849.559 198.867 849.113 198.789C848.668 198.719 848.164 198.684 847.602 198.684C846.305 198.684 845.234 198.996 844.391 199.621C843.523 200.246 843.082 201.184 843.066 202.434C843.082 203.473 843.418 204.281 844.074 204.859C844.715 205.453 845.547 205.797 846.57 205.891L848.727 206.078C849.18 206.094 849.543 206.191 849.816 206.371C850.082 206.543 850.215 206.848 850.215 207.285C850.215 207.777 849.992 208.16 849.547 208.434C849.102 208.707 848.527 208.844 847.824 208.844C846.254 208.844 844.973 208.324 843.98 207.285Z" fill="#FF5C7A"/>
<path d="M855.148 206.922C855.164 208.297 855.613 209.336 856.496 210.039C857.309 210.758 858.219 211.125 859.227 211.141C860.523 211.141 861.574 210.66 862.379 209.699H862.426V211H864.875V198.836H862.426V206.078C862.426 206.898 862.199 207.539 861.746 208C861.301 208.461 860.727 208.691 860.023 208.691C859.32 208.691 858.742 208.461 858.289 208C857.828 207.539 857.598 206.898 857.598 206.078V198.836H855.148V206.922Z" fill="#FF5C7A"/>
<path d="M874.426 211H876.875V202.691C876.859 201.207 876.395 200.16 875.48 199.551C874.566 198.957 873.344 198.668 871.812 198.684C870 198.652 868.629 199.246 867.699 200.465L869.621 201.93C869.832 201.578 870.121 201.328 870.488 201.18C870.84 201.055 871.32 200.992 871.93 200.992C873.609 200.961 874.441 201.48 874.426 202.551V203.828H871.039C869.742 203.844 868.758 204.195 868.086 204.883C867.414 205.555 867.078 206.402 867.078 207.426C867.078 208.496 867.465 209.375 868.238 210.062C868.973 210.766 870.02 211.125 871.379 211.141C872.207 211.141 872.855 211.039 873.324 210.836C873.801 210.641 874.152 210.336 874.379 209.922H874.426V211ZM874.426 206.723C874.426 207.637 874.234 208.223 873.852 208.48C873.43 208.738 872.707 208.859 871.684 208.844C870.871 208.844 870.289 208.684 869.938 208.363C869.57 208.074 869.387 207.723 869.387 207.309C869.371 206.363 870.074 205.875 871.496 205.844H874.426V206.723Z" fill="#FF5C7A"/>
<path d="M880.039 208.047C880.039 209.117 880.344 209.879 880.953 210.332C881.531 210.777 882.266 211 883.156 211H884.246V208.691H883.402C882.793 208.691 882.488 208.414 882.488 207.859V193.914H880.039V208.047Z" fill="#FF5C7A"/>
<path d="M819.116 330.996V332.22H820.97V337.422H818.792V338.664H820.952C820.826 341.94 820.106 344.352 818.792 345.9L819.764 346.746C821.294 345.018 822.14 342.318 822.284 338.664H824.984V346.674H826.298V338.664H828.368V337.422H826.298V332.22H828.098V330.996H819.116ZM822.302 332.22H824.984V337.422H822.302V332.22ZM833.354 330.348C831.986 331.824 830.258 333.012 828.17 333.912L828.728 335.1C830.924 334.092 832.742 332.832 834.2 331.32L833.354 330.348ZM834.128 335.226C832.76 336.81 831.032 338.106 828.926 339.078L829.484 340.248C831.68 339.168 833.498 337.818 834.974 336.198L834.128 335.226ZM834.578 340.212C832.85 342.408 830.672 344.172 828.026 345.504L828.584 346.71C831.32 345.252 833.606 343.416 835.442 341.184L834.578 340.212Z" fill="#686868"/>
<path d="M838.286 341.868V343.056H844.316V344.982H837.098V346.188H852.902V344.982H845.612V343.056H851.732V341.868H845.612V340.5H844.316V341.868H838.286ZM837.314 332.508V333.66H840.914V335.37C840.896 335.838 840.842 336.288 840.77 336.72H839.06V334.596H837.926V337.8H840.41C840.338 337.98 840.23 338.178 840.104 338.376C839.564 339.114 838.61 339.708 837.242 340.14L837.89 341.166C839.366 340.68 840.428 339.996 841.076 339.132C841.346 338.736 841.562 338.304 841.742 337.8H844.892V334.596H843.74V336.72H842.012C842.066 336.306 842.102 335.856 842.12 335.37V333.66H845.468V332.508H843.29C843.65 331.968 843.992 331.338 844.298 330.654L843.146 330.258C842.822 331.05 842.462 331.806 842.048 332.508H840.752C840.356 331.716 839.924 330.996 839.474 330.312L838.43 330.816C838.772 331.32 839.114 331.878 839.456 332.508H837.314ZM847.556 334.812H850.976V336.414H847.484C847.52 336.054 847.556 335.676 847.556 335.28V334.812ZM850.976 333.768H847.556V332.076H850.976V333.768ZM847.268 337.458H850.976V338.664C850.976 339.132 850.778 339.384 850.418 339.384C849.914 339.384 849.392 339.348 848.816 339.312L849.122 340.482H850.796C851.732 340.482 852.218 340.014 852.218 339.096V330.924H846.35V335.352C846.314 337.08 845.756 338.52 844.64 339.636L845.576 340.482C846.386 339.636 846.944 338.628 847.268 337.458Z" fill="#686868"/>
<path d="M857.186 339.42V346.746H858.482V339.24C859.058 339.708 859.634 340.266 860.21 340.914L860.912 339.852C860.174 339.096 859.364 338.448 858.482 337.89V337.782C859.382 336.504 860.03 335.226 860.444 333.93V332.832H858.266L858.788 332.634C858.608 331.878 858.338 331.032 857.978 330.132L856.754 330.492C857.078 331.248 857.366 332.022 857.618 332.832H855.116V334.074H859.148C858.428 336.036 856.952 338.07 854.72 340.176L855.116 341.526C855.872 340.824 856.574 340.122 857.186 339.42ZM861.506 330.96V340.932H863.36C863.162 343.128 862.028 344.694 859.958 345.666L860.642 346.746C863.036 345.522 864.35 343.596 864.566 340.932H866.582V345.036C866.582 346.008 867.122 346.512 868.238 346.512H869.39C870.146 346.476 870.632 346.26 870.848 345.882C871.082 345.468 871.208 344.406 871.208 342.678L870.074 342.246C870.074 343.362 870.02 344.154 869.948 344.658C869.894 345.09 869.696 345.306 869.336 345.342H868.274C867.95 345.306 867.788 345.126 867.788 344.802V340.932H869.858V330.96H861.506ZM868.598 339.834H862.766V337.908H868.598V339.834ZM862.766 336.864V334.938H868.598V336.864H862.766ZM862.766 333.894V332.076H868.598V333.894H862.766Z" fill="#686868"/>
<path d="M875.6 333.678H878.336V332.85H875.546L875.474 331.986C876.806 331.77 877.76 331.554 878.354 331.356L877.976 330.438C876.896 330.798 875.672 331.05 874.34 331.212L874.718 336.414H873.404V339.24H874.556V337.35H887.462V339.24H888.614V336.414H887.354L887.678 330.906H883.664V331.86H886.562L886.508 332.85H883.736V333.678H886.454L886.4 334.578H883.682V335.388H886.346L886.274 336.414H875.798L875.726 335.388H878.336V334.578H875.672L875.6 333.678ZM879.686 330.618L879.092 331.194C879.596 331.446 880.064 331.68 880.496 331.932C879.992 332.22 879.452 332.454 878.858 332.652L879.308 333.39C880.1 333.066 880.766 332.742 881.306 332.4C881.81 332.706 882.26 333.012 882.656 333.336L883.268 332.724C882.89 332.454 882.476 332.184 882.008 331.896C882.35 331.626 882.692 331.302 883.052 330.924L882.332 330.492C881.99 330.834 881.63 331.158 881.252 331.446C880.748 331.158 880.226 330.888 879.686 330.618ZM879.812 333.462L879.254 334.002C879.704 334.254 880.136 334.524 880.55 334.776C880.082 335.064 879.542 335.316 878.948 335.532L879.38 336.252C880.136 335.928 880.766 335.586 881.27 335.244C881.738 335.568 882.17 335.91 882.566 336.234L883.16 335.64C882.8 335.352 882.386 335.046 881.918 334.74C882.242 334.452 882.584 334.128 882.908 333.75L882.224 333.318C881.918 333.66 881.594 333.984 881.234 334.29C880.784 334.002 880.316 333.732 879.812 333.462ZM875.708 338.178V344.064H878.858C877.94 345.018 876.014 345.63 873.08 345.918L873.692 346.854C877.094 346.458 879.236 345.54 880.136 344.064H882.134V345.306C882.134 346.098 882.584 346.512 883.484 346.512H887.048C887.66 346.512 888.092 346.386 888.362 346.17C888.686 345.882 888.902 345.126 889.028 343.902L887.948 343.542C887.876 344.496 887.75 345.072 887.57 345.252C887.426 345.414 887.174 345.504 886.814 345.504H883.808C883.466 345.504 883.304 345.36 883.304 345.072V344.064H886.274V338.178H875.708ZM885.086 343.2H876.878V342.228H885.086V343.2ZM876.878 341.49V340.608H885.086V341.49H876.878ZM876.878 339.87V338.934H885.086V339.87H876.878Z" fill="#686868"/>
<defs>
<filter id="filter0_d" x="33" y="131" width="177" height="182" filterUnits="userSpaceOnUse" color-interpolation-filters="sRGB">
<feFlood flood-opacity="0" result="BackgroundImageFix"/>
<feColorMatrix in="SourceAlpha" type="matrix" values="0 0 0 0 0 0 0 0 0 0 0 0 0 0 0 0 0 0 127 0" result="hardAlpha"/>
<feMorphology radius="8" operator="erode" in="SourceAlpha" result="effect1_dropShadow"/>
<feOffset dy="22"/>
<feGaussianBlur stdDeviation="12.5"/>
<feColorMatrix type="matrix" values="0 0 0 0 0.7875 0 0 0 0 0.7875 0 0 0 0 0.7875 0 0 0 0.25 0"/>
<feBlend mode="normal" in2="BackgroundImageFix" result="effect1_dropShadow"/>
<feBlend mode="normal" in="SourceGraphic" in2="effect1_dropShadow" result="shape"/>
</filter>
<filter id="filter1_d" x="216" y="130" width="177" height="183" filterUnits="userSpaceOnUse" color-interpolation-filters="sRGB">
<feFlood flood-opacity="0" result="BackgroundImageFix"/>
<feColorMatrix in="SourceAlpha" type="matrix" values="0 0 0 0 0 0 0 0 0 0 0 0 0 0 0 0 0 0 127 0" result="hardAlpha"/>
<feMorphology radius="8" operator="erode" in="SourceAlpha" result="effect1_dropShadow"/>
<feOffset dy="22"/>
<feGaussianBlur stdDeviation="12.5"/>
<feColorMatrix type="matrix" values="0 0 0 0 0.7875 0 0 0 0 0.7875 0 0 0 0 0.7875 0 0 0 0.25 0"/>
<feBlend mode="normal" in2="BackgroundImageFix" result="effect1_dropShadow"/>
<feBlend mode="normal" in="SourceGraphic" in2="effect1_dropShadow" result="shape"/>
</filter>
<filter id="filter2_d" x="399" y="131" width="177" height="183" filterUnits="userSpaceOnUse" color-interpolation-filters="sRGB">
<feFlood flood-opacity="0" result="BackgroundImageFix"/>
<feColorMatrix in="SourceAlpha" type="matrix" values="0 0 0 0 0 0 0 0 0 0 0 0 0 0 0 0 0 0 127 0" result="hardAlpha"/>
<feMorphology radius="8" operator="erode" in="SourceAlpha" result="effect1_dropShadow"/>
<feOffset dy="22"/>
<feGaussianBlur stdDeviation="12.5"/>
<feColorMatrix type="matrix" values="0 0 0 0 0.7875 0 0 0 0 0.7875 0 0 0 0 0.7875 0 0 0 0.25 0"/>
<feBlend mode="normal" in2="BackgroundImageFix" result="effect1_dropShadow"/>
<feBlend mode="normal" in="SourceGraphic" in2="effect1_dropShadow" result="shape"/>
</filter>
<filter id="filter3_d" x="582" y="130" width="177" height="183" filterUnits="userSpaceOnUse" color-interpolation-filters="sRGB">
<feFlood flood-opacity="0" result="BackgroundImageFix"/>
<feColorMatrix in="SourceAlpha" type="matrix" values="0 0 0 0 0 0 0 0 0 0 0 0 0 0 0 0 0 0 127 0" result="hardAlpha"/>
<feMorphology radius="8" operator="erode" in="SourceAlpha" result="effect1_dropShadow"/>
<feOffset dy="22"/>
<feGaussianBlur stdDeviation="12.5"/>
<feColorMatrix type="matrix" values="0 0 0 0 0.7875 0 0 0 0 0.7875 0 0 0 0 0.7875 0 0 0 0.25 0"/>
<feBlend mode="normal" in2="BackgroundImageFix" result="effect1_dropShadow"/>
<feBlend mode="normal" in="SourceGraphic" in2="effect1_dropShadow" result="shape"/>
</filter>
<filter id="filter4_d" x="765" y="130" width="177" height="183" filterUnits="userSpaceOnUse" color-interpolation-filters="sRGB">
<feFlood flood-opacity="0" result="BackgroundImageFix"/>
<feColorMatrix in="SourceAlpha" type="matrix" values="0 0 0 0 0 0 0 0 0 0 0 0 0 0 0 0 0 0 127 0" result="hardAlpha"/>
<feMorphology radius="8" operator="erode" in="SourceAlpha" result="effect1_dropShadow"/>
<feOffset dy="22"/>
<feGaussianBlur stdDeviation="12.5"/>
<feColorMatrix type="matrix" values="0 0 0 0 0.7875 0 0 0 0 0.7875 0 0 0 0 0.7875 0 0 0 0.25 0"/>
<feBlend mode="normal" in2="BackgroundImageFix" result="effect1_dropShadow"/>
<feBlend mode="normal" in="SourceGraphic" in2="effect1_dropShadow" result="shape"/>
</filter>
<linearGradient id="paint0_linear" x1="116" y1="208" x2="892" y2="208" gradientUnits="userSpaceOnUse">
<stop stop-color="#FFD9D7"/>
<stop offset="0.524485" stop-color="white" stop-opacity="0.5"/>
<stop offset="1" stop-color="#FFC8DB" stop-opacity="0.5"/>
</linearGradient>
<linearGradient id="paint1_linear" x1="35" y1="202" x2="951" y2="202" gradientUnits="userSpaceOnUse">
<stop stop-color="#EDEDED" stop-opacity="0.5"/>
<stop offset="1" stop-color="#FFD6E4"/>
</linearGradient>
<linearGradient id="paint2_linear" x1="87" y1="153" x2="160" y2="258" gradientUnits="userSpaceOnUse">
<stop stop-color="white"/>
<stop offset="1" stop-color="white"/>
</linearGradient>
<linearGradient id="paint3_linear" x1="616.5" y1="203" x2="727" y2="203" gradientUnits="userSpaceOnUse">
<stop stop-color="#FF665C"/>
<stop offset="1" stop-color="#FF5C7A"/>
</linearGradient>
<linearGradient id="paint4_linear" x1="616.5" y1="203" x2="727" y2="203" gradientUnits="userSpaceOnUse">
<stop stop-color="#FF665C"/>
<stop offset="1" stop-color="#FF5C7A"/>
</linearGradient>
<linearGradient id="paint5_linear" x1="616.5" y1="203" x2="727" y2="203" gradientUnits="userSpaceOnUse">
<stop stop-color="#FF665C"/>
<stop offset="1" stop-color="#FF5C7A"/>
</linearGradient>
<linearGradient id="paint6_linear" x1="616.5" y1="203" x2="727" y2="203" gradientUnits="userSpaceOnUse">
<stop stop-color="#FF665C"/>
<stop offset="1" stop-color="#FF5C7A"/>
</linearGradient>
<linearGradient id="paint7_linear" x1="616.5" y1="203" x2="727" y2="203" gradientUnits="userSpaceOnUse">
<stop stop-color="#FF665C"/>
<stop offset="1" stop-color="#FF5C7A"/>
</linearGradient>
<linearGradient id="paint8_linear" x1="616.5" y1="203" x2="727" y2="203" gradientUnits="userSpaceOnUse">
<stop stop-color="#FF665C"/>
<stop offset="1" stop-color="#FF5C7A"/>
</linearGradient>
<linearGradient id="paint9_linear" x1="616.5" y1="203" x2="727" y2="203" gradientUnits="userSpaceOnUse">
<stop stop-color="#FF665C"/>
<stop offset="1" stop-color="#FF5C7A"/>
</linearGradient>
<linearGradient id="paint10_linear" x1="616.5" y1="203" x2="727" y2="203" gradientUnits="userSpaceOnUse">
<stop stop-color="#FF665C"/>
<stop offset="1" stop-color="#FF5C7A"/>
</linearGradient>
<linearGradient id="paint11_linear" x1="616.5" y1="203" x2="727" y2="203" gradientUnits="userSpaceOnUse">
<stop stop-color="#FF665C"/>
<stop offset="1" stop-color="#FF5C7A"/>
</linearGradient>
</defs>
</svg>
