<svg width="412" height="959" viewBox="0 0 412 959" fill="none" xmlns="http://www.w3.org/2000/svg">
<rect width="412" height="959" fill="#FAFBFC"/>
<path d="M244 948.321L261.321 931L244 913.679L226.679 931L244 948.321ZM241 9L241 931H247L247 9H241Z" fill="url(#paint0_linear)"/>
<circle cx="242" cy="167" r="68" fill="#F3F3F3" stroke="#D1D1D1" stroke-linecap="square" stroke-dasharray="7 7"/>
<g filter="url(#filter0_d)">
<circle cx="241.5" cy="107.5" r="46.5" fill="url(#paint1_linear)"/>
</g>
<path d="M206.66 114H208.603V108.524H213.929V106.802H208.603V103.022H214.843V101.186H206.66V114Z" fill="#A4A4A4"/>
<path d="M222.902 110.133V108.621C222.891 107.42 222.519 106.477 221.786 105.791C221.065 105.117 220.184 104.774 219.141 104.763C218.707 104.763 218.268 104.842 217.822 105C217.371 105.158 216.964 105.416 216.601 105.773C216.243 106.125 215.95 106.605 215.722 107.215C215.493 107.812 215.379 108.562 215.379 109.465C215.379 110.402 215.511 111.164 215.774 111.75C216.015 112.359 216.328 112.834 216.715 113.174C216.914 113.338 217.128 113.476 217.356 113.587C217.573 113.716 217.796 113.818 218.024 113.895C218.481 114.035 218.95 114.105 219.431 114.105C220.69 114.117 221.786 113.625 222.718 112.629L221.391 111.495C220.805 112.087 220.14 112.383 219.396 112.383C218.757 112.383 218.241 112.189 217.849 111.803C217.427 111.422 217.216 110.865 217.216 110.133H222.902ZM217.216 108.621C217.251 107.912 217.441 107.376 217.787 107.013C218.139 106.667 218.59 106.494 219.141 106.494C219.691 106.494 220.143 106.667 220.494 107.013C220.852 107.376 221.042 107.912 221.065 108.621H217.216Z" fill="#A4A4A4"/>
<path d="M231.902 110.133V108.621C231.891 107.42 231.519 106.477 230.786 105.791C230.065 105.117 229.184 104.774 228.141 104.763C227.707 104.763 227.268 104.842 226.822 105C226.371 105.158 225.964 105.416 225.601 105.773C225.243 106.125 224.95 106.605 224.722 107.215C224.493 107.812 224.379 108.562 224.379 109.465C224.379 110.402 224.511 111.164 224.774 111.75C225.015 112.359 225.328 112.834 225.715 113.174C225.914 113.338 226.128 113.476 226.356 113.587C226.573 113.716 226.796 113.818 227.024 113.895C227.481 114.035 227.95 114.105 228.431 114.105C229.69 114.117 230.786 113.625 231.718 112.629L230.391 111.495C229.805 112.087 229.14 112.383 228.396 112.383C227.757 112.383 227.241 112.189 226.849 111.803C226.427 111.422 226.216 110.865 226.216 110.133H231.902ZM226.216 108.621C226.251 107.912 226.441 107.376 226.787 107.013C227.139 106.667 227.59 106.494 228.141 106.494C228.691 106.494 229.143 106.667 229.494 107.013C229.852 107.376 230.042 107.912 230.065 108.621H226.216Z" fill="#A4A4A4"/>
<path d="M239.285 113.042V114H241.122V101.186H239.285V105.844C238.945 105.521 238.591 105.258 238.222 105.053C237.823 104.859 237.39 104.763 236.921 104.763C235.808 104.792 234.993 105.19 234.478 105.958C234.226 106.245 234.059 106.623 233.977 107.092C233.877 107.555 233.827 108.334 233.827 109.43C233.827 110.508 233.877 111.281 233.977 111.75C234.059 112.242 234.226 112.632 234.478 112.919C234.753 113.271 235.096 113.552 235.506 113.763C235.898 113.979 236.37 114.094 236.921 114.105C237.894 114.082 238.682 113.728 239.285 113.042ZM237.483 106.6C237.917 106.6 238.26 106.685 238.512 106.854C238.764 107.024 238.937 107.247 239.03 107.522C239.147 107.798 239.227 108.097 239.268 108.419C239.279 108.741 239.285 109.078 239.285 109.43C239.285 109.752 239.279 110.08 239.268 110.414C239.227 110.754 239.147 111.062 239.03 111.337C238.937 111.612 238.764 111.835 238.512 112.005C238.26 112.181 237.917 112.269 237.483 112.269C237.05 112.269 236.719 112.187 236.49 112.022C236.238 111.853 236.054 111.636 235.937 111.372C235.825 111.097 235.752 110.786 235.717 110.44C235.682 110.112 235.664 109.775 235.664 109.43C235.664 109.066 235.682 108.712 235.717 108.366C235.752 108.044 235.825 107.745 235.937 107.47C236.054 107.194 236.238 106.978 236.49 106.819C236.719 106.673 237.05 106.6 237.483 106.6Z" fill="#A4A4A4"/>
<path d="M243.179 114H245.016V113.042C245.625 113.728 246.41 114.082 247.371 114.105C247.939 114.094 248.426 113.979 248.83 113.763C249.24 113.552 249.571 113.271 249.823 112.919C250.075 112.632 250.248 112.242 250.342 111.75C250.43 111.281 250.474 110.508 250.474 109.43C250.474 108.334 250.43 107.555 250.342 107.092C250.248 106.623 250.075 106.245 249.823 105.958C249.308 105.19 248.49 104.792 247.371 104.763C246.902 104.763 246.483 104.859 246.114 105.053C245.716 105.258 245.35 105.521 245.016 105.844V101.186H243.179V114ZM246.817 106.6C247.251 106.6 247.594 106.673 247.846 106.819C248.098 106.978 248.276 107.194 248.382 107.47C248.499 107.745 248.578 108.044 248.619 108.366C248.631 108.712 248.637 109.066 248.637 109.43C248.637 109.775 248.631 110.112 248.619 110.44C248.578 110.786 248.499 111.097 248.382 111.372C248.276 111.636 248.098 111.853 247.846 112.022C247.594 112.187 247.251 112.269 246.817 112.269C246.407 112.269 246.082 112.181 245.842 112.005C245.59 111.835 245.405 111.612 245.288 111.337C245.177 111.062 245.104 110.754 245.068 110.414C245.033 110.08 245.016 109.752 245.016 109.43C245.016 109.078 245.033 108.741 245.068 108.419C245.104 108.097 245.177 107.798 245.288 107.522C245.405 107.247 245.59 107.024 245.842 106.854C246.082 106.685 246.407 106.6 246.817 106.6Z" fill="#A4A4A4"/>
<path d="M257.32 114H259.157V107.769C259.146 106.655 258.797 105.87 258.111 105.413C257.426 104.968 256.509 104.751 255.36 104.763C254.001 104.739 252.973 105.185 252.275 106.099L253.717 107.197C253.875 106.934 254.092 106.746 254.367 106.635C254.631 106.541 254.991 106.494 255.448 106.494C256.708 106.471 257.332 106.86 257.32 107.663V108.621H254.78C253.808 108.633 253.069 108.896 252.565 109.412C252.062 109.916 251.81 110.552 251.81 111.319C251.81 112.122 252.1 112.781 252.68 113.297C253.23 113.824 254.016 114.094 255.035 114.105C255.656 114.105 256.143 114.029 256.494 113.877C256.852 113.73 257.115 113.502 257.285 113.191H257.32V114ZM257.32 110.792C257.32 111.478 257.177 111.917 256.89 112.11C256.573 112.304 256.031 112.395 255.264 112.383C254.654 112.383 254.218 112.263 253.954 112.022C253.679 111.806 253.541 111.542 253.541 111.231C253.529 110.522 254.057 110.156 255.123 110.133H257.32V110.792Z" fill="#A4A4A4"/>
<path d="M266.892 111.319C266.429 111.94 265.811 112.257 265.037 112.269C263.479 112.298 262.688 111.357 262.664 109.447C262.688 107.525 263.479 106.576 265.037 106.6C265.811 106.623 266.429 106.942 266.892 107.558L268.245 106.354C267.847 105.873 267.378 105.489 266.839 105.202C266.3 104.921 265.676 104.774 264.967 104.763C263.889 104.751 262.942 105.111 262.128 105.844C261.284 106.588 260.851 107.789 260.827 109.447C260.851 111.088 261.284 112.274 262.128 113.007C262.942 113.739 263.889 114.105 264.967 114.105C265.676 114.094 266.3 113.938 266.839 113.64C267.378 113.353 267.847 112.98 268.245 112.523L266.892 111.319Z" fill="#A4A4A4"/>
<path d="M269.528 114H271.365V111.372L272.807 109.737L275.232 114H277.535L273.958 108.437L277.104 104.877H274.907L271.4 109.157H271.365V101.186H269.528V114Z" fill="#A4A4A4"/>
<g filter="url(#filter1_d)">
<circle cx="241.5" cy="210.5" r="46.5" fill="url(#paint2_linear)"/>
</g>
<path d="M218.945 192.889L217.671 194.348C219.036 195.52 220.668 196.105 222.566 196.105C225.502 196.07 227.002 194.828 227.066 192.379C227.066 191.471 226.782 190.674 226.214 189.988C225.64 189.291 224.752 188.86 223.551 188.696C222.941 188.62 222.461 188.553 222.109 188.494C221.477 188.377 221.017 188.166 220.729 187.861C220.442 187.562 220.299 187.229 220.299 186.859C220.311 186.244 220.524 185.781 220.94 185.471C221.339 185.172 221.837 185.022 222.435 185.022C223.589 185.046 224.646 185.374 225.607 186.007L226.688 184.407C225.511 183.558 224.125 183.115 222.531 183.08C221.207 183.092 220.185 183.438 219.464 184.117C218.72 184.803 218.348 185.705 218.348 186.824C218.348 187.756 218.644 188.547 219.235 189.197C219.81 189.83 220.647 190.237 221.749 190.419C222.364 190.507 222.93 190.586 223.445 190.656C224.57 190.85 225.127 191.424 225.115 192.379C225.092 193.545 224.248 194.14 222.584 194.163C221.178 194.151 219.965 193.727 218.945 192.889Z" fill="#A4A4A4"/>
<path d="M234.317 193.319C233.854 193.94 233.236 194.257 232.463 194.269C230.904 194.298 230.113 193.357 230.09 191.447C230.113 189.525 230.904 188.576 232.463 188.6C233.236 188.623 233.854 188.942 234.317 189.558L235.671 188.354C235.272 187.873 234.804 187.489 234.265 187.202C233.726 186.921 233.102 186.774 232.393 186.763C231.314 186.751 230.368 187.111 229.554 187.844C228.71 188.588 228.276 189.789 228.253 191.447C228.276 193.088 228.71 194.274 229.554 195.007C230.368 195.739 231.314 196.105 232.393 196.105C233.102 196.094 233.726 195.938 234.265 195.64C234.804 195.353 235.272 194.98 235.671 194.523L234.317 193.319Z" fill="#A4A4A4"/>
<path d="M236.954 196H238.791V190.507C238.803 189.839 238.996 189.355 239.371 189.057C239.705 188.752 240.106 188.6 240.575 188.6C240.991 188.6 241.393 188.752 241.779 189.057L243.115 187.466C242.57 187.009 241.932 186.774 241.199 186.763C240.221 186.763 239.43 187.123 238.826 187.844H238.791V186.877H236.954V196Z" fill="#A4A4A4"/>
<path d="M243.739 192.941C243.751 193.973 244.088 194.752 244.75 195.279C245.359 195.818 246.042 196.094 246.798 196.105C247.771 196.105 248.559 195.745 249.162 195.024H249.197V196H251.034V186.877H249.197V192.309C249.197 192.924 249.027 193.404 248.688 193.75C248.354 194.096 247.923 194.269 247.396 194.269C246.868 194.269 246.435 194.096 246.095 193.75C245.749 193.404 245.576 192.924 245.576 192.309V186.877H243.739V192.941Z" fill="#A4A4A4"/>
<path d="M253.513 196H255.35V190.568C255.35 189.93 255.525 189.443 255.877 189.109C256.211 188.77 256.642 188.6 257.169 188.6C257.696 188.6 258.13 188.77 258.47 189.109C258.804 189.443 258.971 189.93 258.971 190.568V196H260.808V190.568C260.808 189.93 260.98 189.443 261.326 189.109C261.666 188.77 262.1 188.6 262.627 188.6C263.154 188.6 263.585 188.77 263.919 189.109C264.253 189.443 264.42 189.93 264.42 190.568V196H266.257V189.936C266.233 188.893 265.911 188.102 265.29 187.562C264.663 187.029 263.972 186.763 263.216 186.763C262.015 186.751 261.057 187.149 260.342 187.958C260.025 187.606 259.677 187.316 259.296 187.088C258.909 186.883 258.399 186.774 257.767 186.763C256.782 186.763 255.988 187.123 255.385 187.844H255.35V186.877H253.513V196Z" fill="#A4A4A4"/>
<path d="M240.373 206.919C240.373 206.573 240.499 206.28 240.751 206.04C240.979 205.812 241.272 205.697 241.63 205.697C242.005 205.697 242.312 205.812 242.553 206.04C242.781 206.28 242.896 206.573 242.896 206.919C242.896 207.241 242.787 207.537 242.57 207.807C242.33 208.07 241.914 208.322 241.322 208.562C241.047 208.299 240.827 208.021 240.663 207.728C240.47 207.452 240.373 207.183 240.373 206.919ZM244.996 215.708L246.183 217H248.345L246.183 214.425C246.546 214.032 246.871 213.59 247.158 213.098C247.445 212.617 247.68 212.137 247.861 211.656L246.218 211.006C245.978 211.773 245.605 212.488 245.102 213.15L242.368 209.854C243.821 209.134 244.536 208.179 244.513 206.989C244.501 206.187 244.237 205.504 243.722 204.941C243.206 204.379 242.509 204.092 241.63 204.08C240.757 204.092 240.062 204.379 239.547 204.941C239.02 205.504 238.756 206.187 238.756 206.989C238.756 207.423 238.861 207.845 239.072 208.255C239.254 208.671 239.5 209.061 239.811 209.424C238.193 210.32 237.379 211.568 237.367 213.168C237.379 214.246 237.757 215.163 238.501 215.919C239.222 216.687 240.194 217.082 241.419 217.105C242.099 217.094 242.734 216.956 243.326 216.692C243.924 216.429 244.48 216.101 244.996 215.708ZM240.839 210.646L243.933 214.354C243.048 215.122 242.189 215.5 241.357 215.488C240.713 215.488 240.162 215.26 239.705 214.803C239.236 214.369 238.996 213.818 238.984 213.15C238.973 212.213 239.591 211.378 240.839 210.646Z" fill="#A4A4A4"/>
<path d="M226.688 238H228.631V230.011H228.666L231.347 236.163H232.964L235.645 230.011H235.688V238H237.631V225.186H235.794L232.19 233.535L228.517 225.186H226.688V238Z" fill="#A4A4A4"/>
<path d="M243.221 238H244.732L248.969 225.186H246.912L243.994 234.941H243.959L241.05 225.186H238.993L243.221 238Z" fill="#A4A4A4"/>
<path d="M252.291 227.022H255.095C255.622 227.011 256.085 227.131 256.483 227.383C256.747 227.535 256.952 227.743 257.099 228.007C257.239 228.3 257.31 228.66 257.31 229.088C257.31 229.604 257.137 230.072 256.791 230.494C256.428 230.928 255.886 231.15 255.165 231.162H252.291V227.022ZM250.349 238H252.291V232.999H255.244C256.562 232.976 257.564 232.554 258.25 231.733C258.918 230.954 259.252 230.09 259.252 229.141C259.252 228.438 259.12 227.828 258.856 227.312C258.604 226.779 258.276 226.369 257.872 226.082C257.392 225.701 256.917 225.449 256.448 225.326C255.979 225.232 255.493 225.186 254.989 225.186H250.349V238Z" fill="#A4A4A4"/>
<circle cx="242" cy="412" r="81" fill="#EEF9FF" stroke="#60C7FF" stroke-linecap="square" stroke-dasharray="7 7"/>
<g filter="url(#filter2_d)">
<circle cx="241.5" cy="361.5" r="46.5" fill="url(#paint3_linear)"/>
</g>
<path d="M204.851 368H206.793V362.524H212.119V360.802H206.793V357.022H213.033V355.186H204.851V368Z" fill="#90CEEF"/>
<path d="M214.352 365.785C214.352 366.588 214.58 367.159 215.037 367.499C215.471 367.833 216.021 368 216.689 368H217.507V366.269H216.874C216.417 366.269 216.188 366.061 216.188 365.645V355.186H214.352V365.785Z" fill="#90CEEF"/>
<path d="M218.544 363.43C218.544 364.391 218.623 365.123 218.781 365.627C218.945 366.131 219.197 366.567 219.537 366.937C219.789 367.224 220.141 367.481 220.592 367.71C221.037 367.962 221.608 368.094 222.306 368.105C223.026 368.094 223.609 367.962 224.055 367.71C224.295 367.604 224.491 367.479 224.644 367.332C224.813 367.203 224.957 367.071 225.074 366.937C225.438 366.567 225.695 366.131 225.848 365.627C225.994 365.123 226.067 364.391 226.067 363.43C226.067 362.469 225.994 361.73 225.848 361.215C225.695 360.711 225.438 360.286 225.074 359.94C224.834 359.636 224.494 359.363 224.055 359.123C223.609 358.895 223.026 358.774 222.306 358.763C221.608 358.774 221.037 358.895 220.592 359.123C220.141 359.363 219.789 359.636 219.537 359.94C219.197 360.286 218.945 360.711 218.781 361.215C218.623 361.73 218.544 362.469 218.544 363.43ZM224.23 363.447C224.23 364.068 224.201 364.525 224.143 364.818C224.084 365.117 223.964 365.381 223.782 365.609C223.647 365.785 223.448 365.94 223.185 366.075C222.933 366.204 222.64 366.269 222.306 366.269C221.995 366.269 221.708 366.204 221.444 366.075C221.192 365.94 220.987 365.785 220.829 365.609C220.671 365.381 220.557 365.117 220.486 364.818C220.416 364.525 220.381 364.062 220.381 363.43C220.381 362.791 220.416 362.322 220.486 362.023C220.557 361.736 220.671 361.484 220.829 361.268C220.987 361.062 221.192 360.901 221.444 360.784C221.708 360.661 221.995 360.6 222.306 360.6C222.64 360.6 222.933 360.661 223.185 360.784C223.448 360.901 223.647 361.062 223.782 361.268C223.964 361.484 224.084 361.736 224.143 362.023C224.201 362.322 224.23 362.797 224.23 363.447Z" fill="#90CEEF"/>
<path d="M235.226 368H236.852L239.761 358.877H237.818L236.078 365.267H236.043L233.969 358.877H232.642L230.567 365.267H230.532L228.783 358.877H226.841L229.759 368H231.376L233.283 361.61H233.318L235.226 368Z" fill="#90CEEF"/>
<path d="M246.361 365.319C245.898 365.94 245.28 366.257 244.507 366.269C242.948 366.298 242.157 365.357 242.134 363.447C242.157 361.525 242.948 360.576 244.507 360.6C245.28 360.623 245.898 360.942 246.361 361.558L247.715 360.354C247.316 359.873 246.848 359.489 246.309 359.202C245.77 358.921 245.146 358.774 244.437 358.763C243.358 358.751 242.412 359.111 241.598 359.844C240.754 360.588 240.32 361.789 240.297 363.447C240.32 365.088 240.754 366.274 241.598 367.007C242.412 367.739 243.358 368.105 244.437 368.105C245.146 368.094 245.77 367.938 246.309 367.64C246.848 367.353 247.316 366.98 247.715 366.523L246.361 365.319Z" fill="#90CEEF"/>
<path d="M248.998 368H250.835V362.568C250.835 361.93 251.008 361.443 251.354 361.109C251.693 360.77 252.127 360.6 252.654 360.6C253.182 360.6 253.612 360.77 253.946 361.109C254.286 361.443 254.456 361.93 254.456 362.568V368H256.293V361.936C256.264 360.893 255.938 360.102 255.317 359.562C254.69 359.029 253.999 358.763 253.243 358.763C252.265 358.763 251.474 359.123 250.87 359.844H250.835V355.186H248.998V368Z" fill="#90CEEF"/>
<path d="M263.456 368H265.293V361.769C265.281 360.655 264.933 359.87 264.247 359.413C263.562 358.968 262.645 358.751 261.496 358.763C260.137 358.739 259.108 359.185 258.411 360.099L259.853 361.197C260.011 360.934 260.228 360.746 260.503 360.635C260.767 360.541 261.127 360.494 261.584 360.494C262.844 360.471 263.468 360.86 263.456 361.663V362.621H260.916C259.943 362.633 259.205 362.896 258.701 363.412C258.197 363.916 257.945 364.552 257.945 365.319C257.945 366.122 258.235 366.781 258.815 367.297C259.366 367.824 260.151 368.094 261.171 368.105C261.792 368.105 262.278 368.029 262.63 367.877C262.987 367.73 263.251 367.502 263.421 367.191H263.456V368ZM263.456 364.792C263.456 365.478 263.312 365.917 263.025 366.11C262.709 366.304 262.167 366.395 261.399 366.383C260.79 366.383 260.354 366.263 260.09 366.022C259.814 365.806 259.677 365.542 259.677 365.231C259.665 364.522 260.192 364.156 261.259 364.133H263.456V364.792Z" fill="#90CEEF"/>
<path d="M267.666 368H269.503V362.507C269.515 361.839 269.708 361.355 270.083 361.057C270.417 360.752 270.818 360.6 271.287 360.6C271.703 360.6 272.104 360.752 272.491 361.057L273.827 359.466C273.282 359.009 272.644 358.774 271.911 358.763C270.933 358.763 270.142 359.123 269.538 359.844H269.503V358.877H267.666V368Z" fill="#90CEEF"/>
<path d="M274.785 358.877H273.871V360.274H274.785V365.75C274.785 366.471 274.996 367.021 275.418 367.402C275.828 367.801 276.355 368 277 368H277.958V366.269H277.272C276.827 366.28 276.61 366.055 276.622 365.592V360.274H277.958V358.877H276.622V356.1H274.785V358.877Z" fill="#90CEEF"/>
<g filter="url(#filter3_d)">
<circle cx="241.5" cy="464.5" r="46.5" fill="url(#paint4_linear)"/>
</g>
<path d="M203.894 471H205.511L207.963 461.763H207.998L210.441 471H212.067L215.267 458.186H213.219L211.197 467.291H211.162L208.684 458.186H207.277L204.79 467.291H204.755L202.742 458.186H200.694L203.894 471Z" fill="#90CEEF"/>
<path d="M216.708 471H218.545V461.877H216.708V471ZM216.708 460.022H218.545V458.186H216.708V460.022Z" fill="#90CEEF"/>
<path d="M220.979 471H222.816V465.507C222.828 464.839 223.021 464.355 223.396 464.057C223.73 463.752 224.132 463.6 224.601 463.6C225.017 463.6 225.418 463.752 225.805 464.057L227.141 462.466C226.596 462.009 225.957 461.774 225.225 461.763C224.246 461.763 223.455 462.123 222.852 462.844H222.816V461.877H220.979V471Z" fill="#90CEEF"/>
<path d="M234.734 467.133V465.621C234.723 464.42 234.351 463.477 233.618 462.791C232.897 462.117 232.016 461.774 230.973 461.763C230.539 461.763 230.1 461.842 229.654 462C229.203 462.158 228.796 462.416 228.433 462.773C228.075 463.125 227.782 463.605 227.554 464.215C227.325 464.812 227.211 465.562 227.211 466.465C227.211 467.402 227.343 468.164 227.606 468.75C227.847 469.359 228.16 469.834 228.547 470.174C228.746 470.338 228.96 470.476 229.188 470.587C229.405 470.716 229.628 470.818 229.856 470.895C230.313 471.035 230.782 471.105 231.263 471.105C232.522 471.117 233.618 470.625 234.55 469.629L233.223 468.495C232.637 469.087 231.972 469.383 231.228 469.383C230.589 469.383 230.073 469.189 229.681 468.803C229.259 468.422 229.048 467.865 229.048 467.133H234.734ZM229.048 465.621C229.083 464.912 229.273 464.376 229.619 464.013C229.971 463.667 230.422 463.494 230.973 463.494C231.523 463.494 231.975 463.667 232.326 464.013C232.684 464.376 232.874 464.912 232.897 465.621H229.048Z" fill="#90CEEF"/>
<path d="M236.949 471H238.786V463.274H240.623V461.877H238.786V460.673C238.763 460.151 239.026 459.899 239.577 459.917H240.623V458.186H239.437C238.728 458.186 238.139 458.376 237.67 458.757C237.189 459.167 236.949 459.806 236.949 460.673V461.877H236.026V463.274H236.949V471Z" fill="#90CEEF"/>
<path d="M241.669 471H243.506V465.507C243.518 464.839 243.711 464.355 244.086 464.057C244.42 463.752 244.821 463.6 245.29 463.6C245.706 463.6 246.107 463.752 246.494 464.057L247.83 462.466C247.285 462.009 246.646 461.774 245.914 461.763C244.936 461.763 244.145 462.123 243.541 462.844H243.506V461.877H241.669V471Z" fill="#90CEEF"/>
<path d="M253.139 471H254.976V464.769C254.964 463.655 254.615 462.87 253.93 462.413C253.244 461.968 252.327 461.751 251.179 461.763C249.819 461.739 248.791 462.185 248.094 463.099L249.535 464.197C249.693 463.934 249.91 463.746 250.186 463.635C250.449 463.541 250.81 463.494 251.267 463.494C252.526 463.471 253.15 463.86 253.139 464.663V465.621H250.599C249.626 465.633 248.888 465.896 248.384 466.412C247.88 466.916 247.628 467.552 247.628 468.319C247.628 469.122 247.918 469.781 248.498 470.297C249.049 470.824 249.834 471.094 250.854 471.105C251.475 471.105 251.961 471.029 252.312 470.877C252.67 470.73 252.934 470.502 253.104 470.191H253.139V471ZM253.139 467.792C253.139 468.478 252.995 468.917 252.708 469.11C252.392 469.304 251.85 469.395 251.082 469.383C250.473 469.383 250.036 469.263 249.772 469.022C249.497 468.806 249.359 468.542 249.359 468.231C249.348 467.522 249.875 467.156 250.941 467.133H253.139V467.792Z" fill="#90CEEF"/>
<path d="M257.454 471H259.291V465.568C259.291 464.93 259.467 464.443 259.818 464.109C260.152 463.77 260.583 463.6 261.11 463.6C261.638 463.6 262.071 463.77 262.411 464.109C262.745 464.443 262.912 464.93 262.912 465.568V471H264.749V465.568C264.749 464.93 264.922 464.443 265.268 464.109C265.607 463.77 266.041 463.6 266.568 463.6C267.096 463.6 267.526 463.77 267.86 464.109C268.194 464.443 268.361 464.93 268.361 465.568V471H270.198V464.936C270.175 463.893 269.853 463.102 269.231 462.562C268.604 462.029 267.913 461.763 267.157 461.763C265.956 461.751 264.998 462.149 264.283 462.958C263.967 462.606 263.618 462.316 263.237 462.088C262.851 461.883 262.341 461.774 261.708 461.763C260.724 461.763 259.93 462.123 259.326 462.844H259.291V461.877H257.454V471Z" fill="#90CEEF"/>
<path d="M279.77 467.133V465.621C279.758 464.42 279.386 463.477 278.653 462.791C277.933 462.117 277.051 461.774 276.008 461.763C275.574 461.763 275.135 461.842 274.689 462C274.238 462.158 273.831 462.416 273.468 462.773C273.11 463.125 272.817 463.605 272.589 464.215C272.36 464.812 272.246 465.562 272.246 466.465C272.246 467.402 272.378 468.164 272.642 468.75C272.882 469.359 273.195 469.834 273.582 470.174C273.781 470.338 273.995 470.476 274.224 470.587C274.44 470.716 274.663 470.818 274.892 470.895C275.349 471.035 275.817 471.105 276.298 471.105C277.558 471.117 278.653 470.625 279.585 469.629L278.258 468.495C277.672 469.087 277.007 469.383 276.263 469.383C275.624 469.383 275.108 469.189 274.716 468.803C274.294 468.422 274.083 467.865 274.083 467.133H279.77ZM274.083 465.621C274.118 464.912 274.309 464.376 274.654 464.013C275.006 463.667 275.457 463.494 276.008 463.494C276.559 463.494 277.01 463.667 277.361 464.013C277.719 464.376 277.909 464.912 277.933 465.621H274.083Z" fill="#90CEEF"/>
<circle cx="242" cy="717" r="101" fill="#FFF8FA" stroke="#FF6086" stroke-linecap="square" stroke-dasharray="7 7"/>
<g filter="url(#filter4_d)">
<circle cx="241.5" cy="720.5" r="46.5" fill="url(#paint5_linear)"/>
</g>
<path d="M210.244 717.593C210.244 719.058 210.288 720.048 210.376 720.563C210.423 720.839 210.481 721.067 210.552 721.249C210.628 721.425 210.713 721.609 210.807 721.803C211.117 722.395 211.615 722.916 212.301 723.367C212.975 723.836 213.815 724.082 214.823 724.105C215.843 724.082 216.692 723.836 217.372 723.367C218.046 722.916 218.532 722.395 218.831 721.803C219.048 721.492 219.197 721.079 219.279 720.563C219.355 720.048 219.394 719.058 219.394 717.593C219.394 716.104 219.355 715.108 219.279 714.604C219.197 714.101 219.048 713.693 218.831 713.383C218.532 712.791 218.046 712.264 217.372 711.801C216.692 711.332 215.843 711.092 214.823 711.08C213.815 711.092 212.975 711.332 212.301 711.801C211.615 712.264 211.117 712.791 210.807 713.383C210.613 713.693 210.47 714.101 210.376 714.604C210.288 715.108 210.244 716.104 210.244 717.593ZM212.195 717.593C212.195 716.333 212.242 715.475 212.336 715.018C212.418 714.584 212.585 714.229 212.837 713.954C213.042 713.69 213.312 713.471 213.646 713.295C213.974 713.125 214.366 713.034 214.823 713.022C215.286 713.034 215.688 713.125 216.027 713.295C216.35 713.471 216.607 713.69 216.801 713.954C217.053 714.229 217.226 714.584 217.319 715.018C217.407 715.475 217.451 716.333 217.451 717.593C217.451 718.853 217.407 719.705 217.319 720.15C217.226 720.596 217.053 720.956 216.801 721.231C216.607 721.495 216.35 721.709 216.027 721.873C215.688 722.066 215.286 722.163 214.823 722.163C214.366 722.163 213.974 722.066 213.646 721.873C213.312 721.709 213.042 721.495 212.837 721.231C212.585 720.956 212.418 720.596 212.336 720.15C212.242 719.705 212.195 718.853 212.195 717.593Z" fill="#F880A1"/>
<path d="M221.503 727.691H223.34V723.024C223.674 723.353 224.04 723.61 224.438 723.798C224.808 724.003 225.227 724.105 225.695 724.105C226.264 724.094 226.75 723.979 227.154 723.763C227.564 723.552 227.896 723.271 228.147 722.919C228.399 722.62 228.572 722.236 228.666 721.768C228.754 721.299 228.798 720.525 228.798 719.447C228.798 718.34 228.754 717.555 228.666 717.092C228.572 716.623 228.399 716.245 228.147 715.958C227.632 715.19 226.814 714.792 225.695 714.763C224.734 714.792 223.949 715.146 223.34 715.826V714.877H221.503V727.691ZM225.142 722.269C224.731 722.269 224.406 722.181 224.166 722.005C223.914 721.835 223.729 721.612 223.612 721.337C223.501 721.062 223.428 720.754 223.393 720.414C223.357 720.092 223.34 719.77 223.34 719.447C223.34 719.102 223.357 718.759 223.393 718.419C223.428 718.097 223.501 717.798 223.612 717.522C223.729 717.247 223.914 717.024 224.166 716.854C224.406 716.685 224.731 716.6 225.142 716.6C225.575 716.6 225.918 716.673 226.17 716.819C226.422 716.978 226.601 717.194 226.706 717.47C226.823 717.733 226.902 718.038 226.943 718.384C226.955 718.729 226.961 719.084 226.961 719.447C226.961 719.793 226.955 720.13 226.943 720.458C226.902 720.792 226.823 721.097 226.706 721.372C226.601 721.636 226.422 721.853 226.17 722.022C225.918 722.187 225.575 722.269 225.142 722.269Z" fill="#F880A1"/>
<path d="M230.96 714.877H230.046V716.274H230.96V721.75C230.96 722.471 231.171 723.021 231.593 723.402C232.003 723.801 232.53 724 233.175 724H234.133V722.269H233.447C233.002 722.28 232.785 722.055 232.797 721.592V716.274H234.133V714.877H232.797V712.1H230.96V714.877Z" fill="#F880A1"/>
<path d="M235.917 724H237.754V714.877H235.917V724ZM235.917 713.022H237.754V711.186H235.917V713.022Z" fill="#F880A1"/>
<path d="M240.294 724H242.131V718.568C242.131 717.93 242.307 717.443 242.658 717.109C242.992 716.77 243.423 716.6 243.95 716.6C244.478 716.6 244.911 716.77 245.251 717.109C245.585 717.443 245.752 717.93 245.752 718.568V724H247.589V718.568C247.589 717.93 247.762 717.443 248.107 717.109C248.447 716.77 248.881 716.6 249.408 716.6C249.936 716.6 250.366 716.77 250.7 717.109C251.034 717.443 251.201 717.93 251.201 718.568V724H253.038V717.936C253.015 716.893 252.692 716.102 252.071 715.562C251.444 715.029 250.753 714.763 249.997 714.763C248.796 714.751 247.838 715.149 247.123 715.958C246.807 715.606 246.458 715.316 246.077 715.088C245.69 714.883 245.181 714.774 244.548 714.763C243.563 714.763 242.77 715.123 242.166 715.844H242.131V714.877H240.294V724Z" fill="#F880A1"/>
<path d="M255.587 724H257.424V714.877H255.587V724ZM255.587 713.022H257.424V711.186H255.587V713.022Z" fill="#F880A1"/>
<path d="M259.27 724H266.072V722.269H261.502L266.072 716.336V714.877H259.516V716.494H263.84L259.27 722.541V724Z" fill="#F880A1"/>
<path d="M274.932 720.133V718.621C274.92 717.42 274.548 716.477 273.815 715.791C273.095 715.117 272.213 714.774 271.17 714.763C270.736 714.763 270.297 714.842 269.852 715C269.4 715.158 268.993 715.416 268.63 715.773C268.272 716.125 267.979 716.605 267.751 717.215C267.522 717.812 267.408 718.562 267.408 719.465C267.408 720.402 267.54 721.164 267.804 721.75C268.044 722.359 268.357 722.834 268.744 723.174C268.943 723.338 269.157 723.476 269.386 723.587C269.603 723.716 269.825 723.818 270.054 723.895C270.511 724.035 270.979 724.105 271.46 724.105C272.72 724.117 273.815 723.625 274.747 722.629L273.42 721.495C272.834 722.087 272.169 722.383 271.425 722.383C270.786 722.383 270.271 722.189 269.878 721.803C269.456 721.422 269.245 720.865 269.245 720.133H274.932ZM269.245 718.621C269.28 717.912 269.471 717.376 269.816 717.013C270.168 716.667 270.619 716.494 271.17 716.494C271.721 716.494 272.172 716.667 272.523 717.013C272.881 717.376 273.071 717.912 273.095 718.621H269.245Z" fill="#F880A1"/>
<g filter="url(#filter5_d)">
<circle cx="241.5" cy="617.5" r="46.5" fill="url(#paint6_linear)"/>
</g>
<path d="M226.188 611H228.131V601.895H228.166L233.958 611H235.795V598.186H233.853V607.291H233.817L228.017 598.186H226.188V611Z" fill="#F880A1"/>
<path d="M245.419 607.133V605.621C245.407 604.42 245.035 603.477 244.303 602.791C243.582 602.117 242.7 601.774 241.657 601.763C241.224 601.763 240.784 601.842 240.339 602C239.888 602.158 239.48 602.416 239.117 602.773C238.76 603.125 238.467 603.605 238.238 604.215C238.01 604.812 237.896 605.562 237.896 606.465C237.896 607.402 238.027 608.164 238.291 608.75C238.531 609.359 238.845 609.834 239.231 610.174C239.431 610.338 239.645 610.476 239.873 610.587C240.09 610.716 240.312 610.818 240.541 610.895C240.998 611.035 241.467 611.105 241.947 611.105C243.207 611.117 244.303 610.625 245.234 609.629L243.907 608.495C243.321 609.087 242.656 609.383 241.912 609.383C241.273 609.383 240.758 609.189 240.365 608.803C239.943 608.422 239.732 607.865 239.732 607.133H245.419ZM239.732 605.621C239.768 604.912 239.958 604.376 240.304 604.013C240.655 603.667 241.106 603.494 241.657 603.494C242.208 603.494 242.659 603.667 243.011 604.013C243.368 604.376 243.559 604.912 243.582 605.621H239.732Z" fill="#F880A1"/>
<path d="M254.577 611H256.203L259.112 601.877H257.17L255.43 608.267H255.395L253.32 601.877H251.993L249.919 608.267H249.884L248.135 601.877H246.192L249.11 611H250.728L252.635 604.61H252.67L254.577 611Z" fill="#F880A1"/>
<path d="M214.508 637H216.45V631.524H221.776V629.802H216.45V626.022H222.69V624.186H214.508V637Z" fill="#F880A1"/>
<path d="M230.75 633.133V631.621C230.738 630.42 230.366 629.477 229.634 628.791C228.913 628.117 228.031 627.774 226.988 627.763C226.555 627.763 226.115 627.842 225.67 628C225.219 628.158 224.812 628.416 224.448 628.773C224.091 629.125 223.798 629.605 223.569 630.215C223.341 630.812 223.227 631.562 223.227 632.465C223.227 633.402 223.358 634.164 223.622 634.75C223.862 635.359 224.176 635.834 224.562 636.174C224.762 636.338 224.976 636.476 225.204 636.587C225.421 636.716 225.644 636.818 225.872 636.895C226.329 637.035 226.798 637.105 227.278 637.105C228.538 637.117 229.634 636.625 230.565 635.629L229.238 634.495C228.652 635.087 227.987 635.383 227.243 635.383C226.604 635.383 226.089 635.189 225.696 634.803C225.274 634.422 225.063 633.865 225.063 633.133H230.75ZM225.063 631.621C225.099 630.912 225.289 630.376 225.635 630.013C225.986 629.667 226.438 629.494 226.988 629.494C227.539 629.494 227.99 629.667 228.342 630.013C228.699 630.376 228.89 630.912 228.913 631.621H225.063Z" fill="#F880A1"/>
<path d="M237.465 637H239.302V630.769C239.29 629.655 238.941 628.87 238.256 628.413C237.57 627.968 236.653 627.751 235.505 627.763C234.146 627.739 233.117 628.185 232.42 629.099L233.861 630.197C234.02 629.934 234.236 629.746 234.512 629.635C234.775 629.541 235.136 629.494 235.593 629.494C236.853 629.471 237.477 629.86 237.465 630.663V631.621H234.925C233.952 631.633 233.214 631.896 232.71 632.412C232.206 632.916 231.954 633.552 231.954 634.319C231.954 635.122 232.244 635.781 232.824 636.297C233.375 636.824 234.16 637.094 235.18 637.105C235.801 637.105 236.287 637.029 236.639 636.877C236.996 636.73 237.26 636.502 237.43 636.191H237.465V637ZM237.465 633.792C237.465 634.478 237.321 634.917 237.034 635.11C236.718 635.304 236.176 635.395 235.408 635.383C234.799 635.383 234.362 635.263 234.099 635.022C233.823 634.806 233.686 634.542 233.686 634.231C233.674 633.522 234.201 633.156 235.268 633.133H237.465V633.792Z" fill="#F880A1"/>
<path d="M241.78 627.877H240.866V629.274H241.78V634.75C241.78 635.471 241.991 636.021 242.413 636.402C242.823 636.801 243.351 637 243.995 637H244.953V635.269H244.268C243.822 635.28 243.605 635.055 243.617 634.592V629.274H244.953V627.877H243.617V625.1H241.78V627.877Z" fill="#F880A1"/>
<path d="M246.685 633.941C246.696 634.973 247.033 635.752 247.695 636.279C248.305 636.818 248.987 637.094 249.743 637.105C250.716 637.105 251.504 636.745 252.107 636.024H252.143V637H253.979V627.877H252.143V633.309C252.143 633.924 251.973 634.404 251.633 634.75C251.299 635.096 250.868 635.269 250.341 635.269C249.813 635.269 249.38 635.096 249.04 634.75C248.694 634.404 248.521 633.924 248.521 633.309V627.877H246.685V633.941Z" fill="#F880A1"/>
<path d="M256.353 637H258.189V631.507C258.201 630.839 258.395 630.355 258.77 630.057C259.104 629.752 259.505 629.6 259.974 629.6C260.39 629.6 260.791 629.752 261.178 630.057L262.514 628.466C261.969 628.009 261.33 627.774 260.598 627.763C259.619 627.763 258.828 628.123 258.225 628.844H258.189V627.877H256.353V637Z" fill="#F880A1"/>
<path d="M270.107 633.133V631.621C270.096 630.42 269.724 629.477 268.991 628.791C268.271 628.117 267.389 627.774 266.346 627.763C265.912 627.763 265.473 627.842 265.027 628C264.576 628.158 264.169 628.416 263.806 628.773C263.448 629.125 263.155 629.605 262.927 630.215C262.698 630.812 262.584 631.562 262.584 632.465C262.584 633.402 262.716 634.164 262.979 634.75C263.22 635.359 263.533 635.834 263.92 636.174C264.119 636.338 264.333 636.476 264.562 636.587C264.778 636.716 265.001 636.818 265.229 636.895C265.687 637.035 266.155 637.105 266.636 637.105C267.896 637.117 268.991 636.625 269.923 635.629L268.596 634.495C268.01 635.087 267.345 635.383 266.601 635.383C265.962 635.383 265.446 635.189 265.054 634.803C264.632 634.422 264.421 633.865 264.421 633.133H270.107ZM264.421 631.621C264.456 630.912 264.646 630.376 264.992 630.013C265.344 629.667 265.795 629.494 266.346 629.494C266.896 629.494 267.348 629.667 267.699 630.013C268.057 630.376 268.247 630.912 268.271 631.621H264.421Z" fill="#F880A1"/>
<g filter="url(#filter6_d)">
<circle cx="241.5" cy="823.5" r="46.5" fill="url(#paint7_linear)"/>
</g>
<path d="M220.688 817H225.039C226 817 226.812 816.789 227.474 816.367C228.142 815.975 228.663 815.477 229.038 814.873C229.179 814.645 229.299 814.425 229.398 814.214C229.492 813.997 229.562 813.751 229.609 813.476C229.709 812.931 229.759 811.97 229.759 810.593C229.759 809.298 229.727 808.387 229.662 807.859C229.58 807.332 229.384 806.828 229.073 806.348C228.206 804.918 226.905 804.197 225.171 804.186H220.688V817ZM222.631 806.022H224.951C225.936 805.999 226.697 806.359 227.236 807.104C227.5 807.402 227.667 807.792 227.737 808.272C227.79 808.753 227.816 809.55 227.816 810.663C227.816 811.806 227.79 812.585 227.737 813.001C227.679 813.423 227.541 813.771 227.324 814.047C226.832 814.791 226.041 815.163 224.951 815.163H222.631V806.022Z" fill="#F880A1"/>
<path d="M238.935 813.133V811.621C238.923 810.42 238.551 809.477 237.818 808.791C237.098 808.117 236.216 807.774 235.173 807.763C234.739 807.763 234.3 807.842 233.854 808C233.403 808.158 232.996 808.416 232.633 808.773C232.275 809.125 231.982 809.605 231.754 810.215C231.525 810.812 231.411 811.562 231.411 812.465C231.411 813.402 231.543 814.164 231.807 814.75C232.047 815.359 232.36 815.834 232.747 816.174C232.946 816.338 233.16 816.476 233.389 816.587C233.605 816.716 233.828 816.818 234.057 816.895C234.514 817.035 234.982 817.105 235.463 817.105C236.723 817.117 237.818 816.625 238.75 815.629L237.423 814.495C236.837 815.087 236.172 815.383 235.428 815.383C234.789 815.383 234.273 815.189 233.881 814.803C233.459 814.422 233.248 813.865 233.248 813.133H238.935ZM233.248 811.621C233.283 810.912 233.474 810.376 233.819 810.013C234.171 809.667 234.622 809.494 235.173 809.494C235.724 809.494 236.175 809.667 236.526 810.013C236.884 810.376 237.074 810.912 237.098 811.621H233.248Z" fill="#F880A1"/>
<path d="M241.132 814.214L239.849 815.471C241.038 816.561 242.377 817.105 243.865 817.105C244.961 817.094 245.86 816.842 246.563 816.35C247.272 815.869 247.633 815.187 247.645 814.302C247.645 813.546 247.448 812.922 247.056 812.43C246.634 811.926 245.948 811.639 244.999 811.568L243.487 811.454C243.042 811.407 242.731 811.299 242.556 811.129C242.362 810.977 242.271 810.798 242.283 810.593C242.283 810.271 242.403 810.007 242.644 809.802C242.872 809.597 243.273 809.494 243.848 809.494C244.352 809.494 244.797 809.567 245.184 809.714C245.576 809.878 245.948 810.086 246.3 810.338L247.434 809.011C246.988 808.624 246.484 808.316 245.922 808.088C245.629 807.982 245.315 807.9 244.981 807.842C244.647 807.789 244.27 807.763 243.848 807.763C242.875 807.763 242.072 807.997 241.439 808.466C240.789 808.935 240.458 809.638 240.446 810.575C240.458 811.354 240.71 811.961 241.202 812.395C241.683 812.84 242.307 813.098 243.074 813.168L244.691 813.309C245.031 813.32 245.304 813.394 245.509 813.528C245.708 813.657 245.808 813.886 245.808 814.214C245.808 814.583 245.641 814.87 245.307 815.075C244.973 815.28 244.542 815.383 244.015 815.383C242.837 815.383 241.876 814.993 241.132 814.214Z" fill="#F880A1"/>
<path d="M249.561 817H251.397V807.877H249.561V817ZM249.561 806.022H251.397V804.186H249.561V806.022Z" fill="#F880A1"/>
<path d="M258.965 816.042V816.982C258.953 817.604 258.76 818.09 258.385 818.441C258.004 818.787 257.5 818.96 256.873 818.96C256.539 818.948 256.217 818.857 255.906 818.688C255.602 818.535 255.332 818.351 255.098 818.134L253.674 819.268C254.547 820.264 255.602 820.773 256.838 820.797C257.916 820.797 258.842 820.466 259.615 819.804C260.383 819.159 260.778 818.151 260.802 816.78V807.877H258.965V808.844C258.303 808.123 257.518 807.763 256.609 807.763C256.018 807.774 255.525 807.889 255.133 808.105C254.723 808.334 254.409 808.592 254.192 808.879C253.952 809.172 253.779 809.532 253.674 809.96C253.562 810.394 253.507 811.223 253.507 812.447C253.507 813.648 253.562 814.463 253.674 814.891C253.779 815.324 253.952 815.69 254.192 815.989C254.409 816.253 254.723 816.499 255.133 816.728C255.525 816.968 256.018 817.094 256.609 817.105C257.576 817.082 258.361 816.728 258.965 816.042ZM255.344 812.447C255.344 811.738 255.367 811.246 255.414 810.971C255.455 810.695 255.552 810.473 255.704 810.303C255.827 810.139 256.015 809.978 256.267 809.819C256.507 809.685 256.806 809.611 257.163 809.6C257.521 809.611 257.819 809.685 258.06 809.819C258.3 809.978 258.481 810.139 258.604 810.303C258.757 810.473 258.859 810.695 258.912 810.971C258.947 811.246 258.965 811.738 258.965 812.447C258.965 813.145 258.947 813.625 258.912 813.889C258.859 814.164 258.757 814.393 258.604 814.574C258.481 814.738 258.3 814.888 258.06 815.022C257.819 815.187 257.521 815.269 257.163 815.269C256.806 815.269 256.507 815.187 256.267 815.022C256.015 814.888 255.827 814.738 255.704 814.574C255.552 814.393 255.455 814.164 255.414 813.889C255.367 813.625 255.344 813.145 255.344 812.447Z" fill="#F880A1"/>
<path d="M263.184 817H265.021V811.568C265.021 810.93 265.193 810.443 265.539 810.109C265.879 809.77 266.312 809.6 266.84 809.6C267.367 809.6 267.798 809.77 268.132 810.109C268.472 810.443 268.642 810.93 268.642 811.568V817H270.479V810.936C270.449 809.893 270.124 809.102 269.503 808.562C268.876 808.029 268.185 807.763 267.429 807.763C266.45 807.763 265.659 808.123 265.056 808.844H265.021V807.877H263.184V817Z" fill="#F880A1"/>
<path d="M218.843 839.889L217.568 841.348C218.934 842.52 220.565 843.105 222.464 843.105C225.399 843.07 226.899 841.828 226.964 839.379C226.964 838.471 226.68 837.674 226.111 836.988C225.537 836.291 224.649 835.86 223.448 835.696C222.839 835.62 222.358 835.553 222.007 835.494C221.374 835.377 220.914 835.166 220.627 834.861C220.34 834.562 220.196 834.229 220.196 833.859C220.208 833.244 220.422 832.781 220.838 832.471C221.236 832.172 221.734 832.022 222.332 832.022C223.486 832.046 224.544 832.374 225.505 833.007L226.586 831.407C225.408 830.558 224.022 830.115 222.429 830.08C221.104 830.092 220.082 830.438 219.361 831.117C218.617 831.803 218.245 832.705 218.245 833.824C218.245 834.756 218.541 835.547 219.133 836.197C219.707 836.83 220.545 837.237 221.646 837.419C222.262 837.507 222.827 837.586 223.343 837.656C224.468 837.85 225.024 838.424 225.013 839.379C224.989 840.545 224.146 841.14 222.481 841.163C221.075 841.151 219.862 840.727 218.843 839.889Z" fill="#F880A1"/>
<path d="M230.813 842.64L230.312 844.169C230.23 844.433 230.087 844.632 229.882 844.767C229.677 844.896 229.454 844.96 229.214 844.96H228.678V846.691H229.284C229.853 846.691 230.362 846.565 230.813 846.313C231.259 846.05 231.607 845.575 231.859 844.89L235.788 833.877H233.837L231.684 840.267H231.648L229.486 833.877H227.544L230.813 842.64Z" fill="#F880A1"/>
<path d="M237.124 840.214L235.841 841.471C237.03 842.561 238.369 843.105 239.857 843.105C240.953 843.094 241.853 842.842 242.556 842.35C243.265 841.869 243.625 841.187 243.637 840.302C243.637 839.546 243.44 838.922 243.048 838.43C242.626 837.926 241.94 837.639 240.991 837.568L239.479 837.454C239.034 837.407 238.724 837.299 238.548 837.129C238.354 836.977 238.264 836.798 238.275 836.593C238.275 836.271 238.396 836.007 238.636 835.802C238.864 835.597 239.266 835.494 239.84 835.494C240.344 835.494 240.789 835.567 241.176 835.714C241.568 835.878 241.94 836.086 242.292 836.338L243.426 835.011C242.98 834.624 242.477 834.316 241.914 834.088C241.621 833.982 241.308 833.9 240.974 833.842C240.64 833.789 240.262 833.763 239.84 833.763C238.867 833.763 238.064 833.997 237.432 834.466C236.781 834.935 236.45 835.638 236.438 836.575C236.45 837.354 236.702 837.961 237.194 838.395C237.675 838.84 238.299 839.098 239.066 839.168L240.684 839.309C241.023 839.32 241.296 839.394 241.501 839.528C241.7 839.657 241.8 839.886 241.8 840.214C241.8 840.583 241.633 840.87 241.299 841.075C240.965 841.28 240.534 841.383 240.007 841.383C238.829 841.383 237.868 840.993 237.124 840.214Z" fill="#F880A1"/>
<path d="M245.605 833.877H244.691V835.274H245.605V840.75C245.605 841.471 245.816 842.021 246.238 842.402C246.648 842.801 247.176 843 247.82 843H248.778V841.269H248.093C247.647 841.28 247.431 841.055 247.442 840.592V835.274H248.778V833.877H247.442V831.1H245.605V833.877Z" fill="#F880A1"/>
<path d="M257.585 839.133V837.621C257.573 836.42 257.201 835.477 256.469 834.791C255.748 834.117 254.866 833.774 253.823 833.763C253.39 833.763 252.95 833.842 252.505 834C252.054 834.158 251.646 834.416 251.283 834.773C250.926 835.125 250.633 835.605 250.404 836.215C250.176 836.812 250.062 837.562 250.062 838.465C250.062 839.402 250.193 840.164 250.457 840.75C250.697 841.359 251.011 841.834 251.397 842.174C251.597 842.338 251.811 842.476 252.039 842.587C252.256 842.716 252.479 842.818 252.707 842.895C253.164 843.035 253.633 843.105 254.113 843.105C255.373 843.117 256.469 842.625 257.4 841.629L256.073 840.495C255.487 841.087 254.822 841.383 254.078 841.383C253.439 841.383 252.924 841.189 252.531 840.803C252.109 840.422 251.898 839.865 251.898 839.133H257.585ZM251.898 837.621C251.934 836.912 252.124 836.376 252.47 836.013C252.821 835.667 253.272 835.494 253.823 835.494C254.374 835.494 254.825 835.667 255.177 836.013C255.534 836.376 255.725 836.912 255.748 837.621H251.898Z" fill="#F880A1"/>
<path d="M259.615 843H261.452V837.568C261.452 836.93 261.628 836.443 261.979 836.109C262.313 835.77 262.744 835.6 263.271 835.6C263.799 835.6 264.232 835.77 264.572 836.109C264.906 836.443 265.073 836.93 265.073 837.568V843H266.91V837.568C266.91 836.93 267.083 836.443 267.429 836.109C267.769 835.77 268.202 835.6 268.729 835.6C269.257 835.6 269.688 835.77 270.021 836.109C270.355 836.443 270.522 836.93 270.522 837.568V843H272.359V836.936C272.336 835.893 272.014 835.102 271.393 834.562C270.766 834.029 270.074 833.763 269.318 833.763C268.117 833.751 267.159 834.149 266.444 834.958C266.128 834.606 265.779 834.316 265.398 834.088C265.012 833.883 264.502 833.774 263.869 833.763C262.885 833.763 262.091 834.123 261.487 834.844H261.452V833.877H259.615V843Z" fill="#F880A1"/>
<path d="M57.9814 150.753H61.8755C62.6079 150.737 63.2508 150.904 63.8042 151.254C64.1704 151.465 64.4552 151.754 64.6587 152.121C64.854 152.528 64.9517 153.028 64.9517 153.622C64.9517 154.338 64.7116 154.989 64.2314 155.575C63.7269 156.177 62.9741 156.487 61.9731 156.503H57.9814V150.753ZM55.2837 166H57.9814V159.054H62.083C63.9141 159.022 65.3057 158.436 66.2578 157.296C67.1855 156.214 67.6494 155.014 67.6494 153.695C67.6494 152.719 67.4663 151.872 67.1001 151.156C66.7502 150.416 66.2944 149.846 65.7329 149.447C65.0656 148.918 64.4064 148.568 63.7554 148.397C63.1043 148.267 62.4289 148.202 61.729 148.202H55.2837V166Z" fill="#A4A4A4"/>
<path d="M69.8711 162.924C69.8711 164.039 70.1885 164.832 70.8232 165.304C71.4255 165.768 72.1904 166 73.1182 166H74.2534V163.595H73.3745C72.7397 163.595 72.4224 163.306 72.4224 162.729V148.202H69.8711V162.924Z" fill="#A4A4A4"/>
<path d="M82.9692 166H85.5205V157.345C85.5042 155.799 85.02 154.708 84.0679 154.074C83.1157 153.455 81.8421 153.154 80.2471 153.17C78.359 153.138 76.9308 153.756 75.9624 155.026L77.9644 156.552C78.1841 156.186 78.4852 155.925 78.8677 155.771C79.2339 155.64 79.7344 155.575 80.3691 155.575C82.1188 155.543 82.9855 156.084 82.9692 157.199V158.529H79.4414C78.0905 158.546 77.0651 158.912 76.3652 159.628C75.6654 160.328 75.3154 161.211 75.3154 162.277C75.3154 163.392 75.7183 164.307 76.5239 165.023C77.2889 165.756 78.3794 166.13 79.7954 166.146C80.658 166.146 81.3335 166.041 81.8218 165.829C82.3182 165.626 82.6844 165.308 82.9204 164.877H82.9692V166ZM82.9692 161.544C82.9692 162.497 82.7699 163.107 82.3711 163.375C81.9316 163.644 81.1789 163.77 80.1128 163.754C79.2664 163.754 78.6602 163.587 78.2939 163.253C77.9115 162.952 77.7202 162.586 77.7202 162.155C77.7039 161.17 78.4364 160.661 79.9175 160.629H82.9692V161.544Z" fill="#A4A4A4"/>
<path d="M88.8164 166H91.3677V158.456C91.3677 157.569 91.6077 156.894 92.0879 156.43C92.5599 155.958 93.1621 155.722 93.8945 155.722C94.627 155.722 95.2251 155.958 95.689 156.43C96.161 156.894 96.397 157.569 96.397 158.456V166H98.9482V157.577C98.9076 156.129 98.4559 155.03 97.5933 154.281C96.7225 153.541 95.7622 153.17 94.7124 153.17C93.3534 153.17 92.2547 153.671 91.4165 154.672H91.3677V153.329H88.8164V166Z" fill="#A4A4A4"/>
<path d="M46.9341 421H49.6318V403.202H46.9341V421Z" fill="#90CEEF"/>
<path d="M60.728 419.669V421H63.2793V403.202H60.728V409.672C60.256 409.224 59.7637 408.858 59.251 408.573C58.6976 408.305 58.0954 408.17 57.4443 408.17C55.8981 408.211 54.7669 408.764 54.0508 409.831C53.7008 410.229 53.4689 410.754 53.355 411.405C53.2166 412.048 53.1475 413.131 53.1475 414.652C53.1475 416.15 53.2166 417.224 53.355 417.875C53.4689 418.559 53.7008 419.1 54.0508 419.499C54.4333 419.987 54.9093 420.377 55.479 420.67C56.0243 420.972 56.6794 421.13 57.4443 421.146C58.7952 421.114 59.8898 420.622 60.728 419.669ZM58.2256 410.722C58.8278 410.722 59.3039 410.84 59.6538 411.076C60.0037 411.312 60.2438 411.621 60.374 412.003C60.5368 412.386 60.6466 412.801 60.7036 413.249C60.7199 413.696 60.728 414.164 60.728 414.652C60.728 415.1 60.7199 415.556 60.7036 416.02C60.6466 416.492 60.5368 416.919 60.374 417.301C60.2438 417.684 60.0037 417.993 59.6538 418.229C59.3039 418.473 58.8278 418.595 58.2256 418.595C57.6234 418.595 57.1636 418.481 56.8462 418.253C56.4963 418.017 56.2399 417.716 56.0771 417.35C55.9225 416.968 55.8208 416.536 55.772 416.056C55.7231 415.6 55.6987 415.132 55.6987 414.652C55.6987 414.148 55.7231 413.655 55.772 413.175C55.8208 412.728 55.9225 412.313 56.0771 411.93C56.2399 411.548 56.4963 411.247 56.8462 411.027C57.1636 410.823 57.6234 410.722 58.2256 410.722Z" fill="#90CEEF"/>
<path d="M75.9624 415.629V413.529C75.9461 411.861 75.4294 410.551 74.4121 409.599C73.4111 408.663 72.1864 408.187 70.7378 408.17C70.1356 408.17 69.5252 408.28 68.9067 408.5C68.2801 408.72 67.7145 409.078 67.21 409.574C66.7135 410.062 66.3066 410.73 65.9893 411.576C65.6719 412.406 65.5132 413.448 65.5132 414.701C65.5132 416.003 65.6963 417.061 66.0625 417.875C66.3962 418.721 66.8315 419.381 67.3687 419.853C67.6453 420.08 67.9424 420.272 68.2598 420.426C68.5609 420.605 68.8701 420.748 69.1875 420.854C69.8223 421.049 70.4733 421.146 71.1406 421.146C72.8903 421.163 74.4121 420.479 75.7061 419.096L73.8628 417.521C73.049 418.343 72.1253 418.754 71.0918 418.754C70.2048 418.754 69.4886 418.485 68.9434 417.948C68.3574 417.419 68.0645 416.646 68.0645 415.629H75.9624ZM68.0645 413.529C68.1133 412.545 68.3778 411.8 68.8579 411.295C69.3462 410.815 69.9728 410.575 70.7378 410.575C71.5028 410.575 72.1294 410.815 72.6177 411.295C73.1141 411.8 73.3786 412.545 73.4111 413.529H68.0645Z" fill="#90CEEF"/>
<path d="M85.2886 421H87.8398V412.345C87.8236 410.799 87.3394 409.708 86.3872 409.074C85.4351 408.455 84.1615 408.154 82.5664 408.17C80.6784 408.138 79.2502 408.756 78.2817 410.026L80.2837 411.552C80.5034 411.186 80.8045 410.925 81.187 410.771C81.5532 410.64 82.0537 410.575 82.6885 410.575C84.4382 410.543 85.3049 411.084 85.2886 412.199V413.529H81.7607C80.4098 413.546 79.3844 413.912 78.6846 414.628C77.9847 415.328 77.6348 416.211 77.6348 417.277C77.6348 418.392 78.0376 419.307 78.8433 420.023C79.6082 420.756 80.6987 421.13 82.1147 421.146C82.9774 421.146 83.6528 421.041 84.1411 420.829C84.6375 420.626 85.0037 420.308 85.2397 419.877H85.2886V421ZM85.2886 416.544C85.2886 417.497 85.0892 418.107 84.6904 418.375C84.251 418.644 83.4982 418.77 82.4321 418.754C81.5858 418.754 80.9795 418.587 80.6133 418.253C80.2308 417.952 80.0396 417.586 80.0396 417.155C80.0233 416.17 80.7557 415.661 82.2368 415.629H85.2886V416.544Z" fill="#90CEEF"/>
<path d="M91.2822 408.329H90.0127V410.27H91.2822V417.875C91.2822 418.876 91.5752 419.641 92.1611 420.17C92.7308 420.723 93.4632 421 94.3584 421H95.689V418.595H94.7368C94.1183 418.611 93.8172 418.298 93.8335 417.655V410.27H95.689V408.329H93.8335V404.472H91.2822V408.329Z" fill="#90CEEF"/>
<path d="M107.92 415.629V413.529C107.904 411.861 107.387 410.551 106.37 409.599C105.369 408.663 104.144 408.187 102.696 408.17C102.094 408.17 101.483 408.28 100.865 408.5C100.238 408.72 99.6725 409.078 99.168 409.574C98.6715 410.062 98.2646 410.73 97.9473 411.576C97.6299 412.406 97.4712 413.448 97.4712 414.701C97.4712 416.003 97.6543 417.061 98.0205 417.875C98.3542 418.721 98.7896 419.381 99.3267 419.853C99.6034 420.08 99.9004 420.272 100.218 420.426C100.519 420.605 100.828 420.748 101.146 420.854C101.78 421.049 102.431 421.146 103.099 421.146C104.848 421.163 106.37 420.479 107.664 419.096L105.821 417.521C105.007 418.343 104.083 418.754 103.05 418.754C102.163 418.754 101.447 418.485 100.901 417.948C100.315 417.419 100.022 416.646 100.022 415.629H107.92ZM100.022 413.529C100.071 412.545 100.336 411.8 100.816 411.295C101.304 410.815 101.931 410.575 102.696 410.575C103.461 410.575 104.087 410.815 104.576 411.295C105.072 411.8 105.337 412.545 105.369 413.529H100.022Z" fill="#90CEEF"/>
<path d="M50.2183 717.679L48.4482 719.705C50.3444 721.333 52.6108 722.146 55.2476 722.146C59.3247 722.098 61.408 720.372 61.4976 716.971C61.4976 715.709 61.1029 714.603 60.3135 713.65C59.516 712.682 58.283 712.084 56.6147 711.856C55.7684 711.75 55.1011 711.657 54.6128 711.575C53.7339 711.412 53.0951 711.119 52.6963 710.696C52.2975 710.281 52.0981 709.817 52.0981 709.305C52.1144 708.45 52.4115 707.807 52.9893 707.376C53.5426 706.961 54.2344 706.753 55.0645 706.753C56.6676 706.786 58.1366 707.242 59.4712 708.121L60.9727 705.899C59.3369 704.719 57.4123 704.104 55.1987 704.056C53.3595 704.072 51.9395 704.552 50.9385 705.496C49.9049 706.448 49.3882 707.701 49.3882 709.256C49.3882 710.55 49.7992 711.648 50.6211 712.552C51.4186 713.431 52.5824 713.996 54.1123 714.249C54.9668 714.371 55.7521 714.48 56.4683 714.578C58.0308 714.847 58.8039 715.644 58.7876 716.971C58.755 718.59 57.5832 719.416 55.272 719.449C53.3188 719.432 51.6343 718.842 50.2183 717.679Z" fill="#F7BDCD"/>
<path d="M63.4995 715.652C63.4995 716.987 63.6094 718.004 63.8291 718.704C64.057 719.404 64.4069 720.01 64.8789 720.523C65.2288 720.922 65.7171 721.28 66.3438 721.597C66.9622 721.947 67.7557 722.13 68.7241 722.146C69.7251 722.13 70.5348 721.947 71.1533 721.597C71.487 721.451 71.7596 721.276 71.9712 721.072C72.2072 720.893 72.4066 720.71 72.5693 720.523C73.0739 720.01 73.432 719.404 73.6436 718.704C73.847 718.004 73.9487 716.987 73.9487 715.652C73.9487 714.318 73.847 713.292 73.6436 712.576C73.432 711.876 73.0739 711.286 72.5693 710.806C72.2357 710.383 71.7637 710.005 71.1533 709.671C70.5348 709.354 69.7251 709.187 68.7241 709.17C67.7557 709.187 66.9622 709.354 66.3438 709.671C65.7171 710.005 65.2288 710.383 64.8789 710.806C64.4069 711.286 64.057 711.876 63.8291 712.576C63.6094 713.292 63.4995 714.318 63.4995 715.652ZM71.3975 715.677C71.3975 716.539 71.3568 717.174 71.2754 717.581C71.194 717.996 71.0272 718.362 70.7749 718.68C70.5877 718.924 70.311 719.139 69.9448 719.327C69.5949 719.506 69.188 719.595 68.7241 719.595C68.2928 719.595 67.894 719.506 67.5278 719.327C67.1779 719.139 66.8931 718.924 66.6733 718.68C66.4536 718.362 66.2949 717.996 66.1973 717.581C66.0996 717.174 66.0508 716.531 66.0508 715.652C66.0508 714.765 66.0996 714.114 66.1973 713.699C66.2949 713.3 66.4536 712.951 66.6733 712.649C66.8931 712.365 67.1779 712.141 67.5278 711.978C67.894 711.807 68.2928 711.722 68.7241 711.722C69.188 711.722 69.5949 711.807 69.9448 711.978C70.311 712.141 70.5877 712.365 70.7749 712.649C71.0272 712.951 71.194 713.3 71.2754 713.699C71.3568 714.114 71.3975 714.773 71.3975 715.677Z" fill="#F7BDCD"/>
<path d="M76.6221 718.924C76.6221 720.039 76.9395 720.832 77.5742 721.304C78.1764 721.768 78.9414 722 79.8691 722H81.0044V719.595H80.1255C79.4907 719.595 79.1733 719.306 79.1733 718.729V704.202H76.6221V718.924Z" fill="#F7BDCD"/>
<path d="M85.9238 722H88.0234L92.6743 709.329H89.9644L86.998 718.204H86.9492L83.9707 709.329H81.2729L85.9238 722Z" fill="#F7BDCD"/>
<path d="M103.856 716.629V714.529C103.84 712.861 103.323 711.551 102.306 710.599C101.305 709.663 100.08 709.187 98.6313 709.17C98.0291 709.17 97.4188 709.28 96.8003 709.5C96.1737 709.72 95.6081 710.078 95.1035 710.574C94.6071 711.062 94.2002 711.73 93.8828 712.576C93.5654 713.406 93.4067 714.448 93.4067 715.701C93.4067 717.003 93.5898 718.061 93.9561 718.875C94.2897 719.721 94.7251 720.381 95.2622 720.853C95.5389 721.08 95.8359 721.272 96.1533 721.426C96.4544 721.605 96.7637 721.748 97.0811 721.854C97.7158 722.049 98.3669 722.146 99.0342 722.146C100.784 722.163 102.306 721.479 103.6 720.096L101.756 718.521C100.943 719.343 100.019 719.754 98.9854 719.754C98.0983 719.754 97.3822 719.485 96.8369 718.948C96.251 718.419 95.958 717.646 95.958 716.629H103.856ZM95.958 714.529C96.0068 713.545 96.2713 712.8 96.7515 712.295C97.2397 711.815 97.8664 711.575 98.6313 711.575C99.3963 711.575 100.023 711.815 100.511 712.295C101.008 712.8 101.272 713.545 101.305 714.529H95.958Z" fill="#F7BDCD"/>
<defs>
<filter id="filter0_d" x="178" y="61" width="127" height="132" filterUnits="userSpaceOnUse" color-interpolation-filters="sRGB">
<feFlood flood-opacity="0" result="BackgroundImageFix"/>
<feColorMatrix in="SourceAlpha" type="matrix" values="0 0 0 0 0 0 0 0 0 0 0 0 0 0 0 0 0 0 127 0"/>
<feMorphology radius="8" operator="erode" in="SourceAlpha" result="effect1_dropShadow"/>
<feOffset dy="22"/>
<feGaussianBlur stdDeviation="12.5"/>
<feColorMatrix type="matrix" values="0 0 0 0 0.7875 0 0 0 0 0.7875 0 0 0 0 0.7875 0 0 0 0.25 0"/>
<feBlend mode="normal" in2="BackgroundImageFix" result="effect1_dropShadow"/>
<feBlend mode="normal" in="SourceGraphic" in2="effect1_dropShadow" result="shape"/>
</filter>
<filter id="filter1_d" x="178" y="164" width="127" height="132" filterUnits="userSpaceOnUse" color-interpolation-filters="sRGB">
<feFlood flood-opacity="0" result="BackgroundImageFix"/>
<feColorMatrix in="SourceAlpha" type="matrix" values="0 0 0 0 0 0 0 0 0 0 0 0 0 0 0 0 0 0 127 0"/>
<feMorphology radius="8" operator="erode" in="SourceAlpha" result="effect1_dropShadow"/>
<feOffset dy="22"/>
<feGaussianBlur stdDeviation="12.5"/>
<feColorMatrix type="matrix" values="0 0 0 0 0.7875 0 0 0 0 0.7875 0 0 0 0 0.7875 0 0 0 0.25 0"/>
<feBlend mode="normal" in2="BackgroundImageFix" result="effect1_dropShadow"/>
<feBlend mode="normal" in="SourceGraphic" in2="effect1_dropShadow" result="shape"/>
</filter>
<filter id="filter2_d" x="178" y="315" width="127" height="132" filterUnits="userSpaceOnUse" color-interpolation-filters="sRGB">
<feFlood flood-opacity="0" result="BackgroundImageFix"/>
<feColorMatrix in="SourceAlpha" type="matrix" values="0 0 0 0 0 0 0 0 0 0 0 0 0 0 0 0 0 0 127 0"/>
<feMorphology radius="8" operator="erode" in="SourceAlpha" result="effect1_dropShadow"/>
<feOffset dy="22"/>
<feGaussianBlur stdDeviation="12.5"/>
<feColorMatrix type="matrix" values="0 0 0 0 0.7875 0 0 0 0 0.7875 0 0 0 0 0.7875 0 0 0 0.25 0"/>
<feBlend mode="normal" in2="BackgroundImageFix" result="effect1_dropShadow"/>
<feBlend mode="normal" in="SourceGraphic" in2="effect1_dropShadow" result="shape"/>
</filter>
<filter id="filter3_d" x="178" y="418" width="127" height="132" filterUnits="userSpaceOnUse" color-interpolation-filters="sRGB">
<feFlood flood-opacity="0" result="BackgroundImageFix"/>
<feColorMatrix in="SourceAlpha" type="matrix" values="0 0 0 0 0 0 0 0 0 0 0 0 0 0 0 0 0 0 127 0"/>
<feMorphology radius="8" operator="erode" in="SourceAlpha" result="effect1_dropShadow"/>
<feOffset dy="22"/>
<feGaussianBlur stdDeviation="12.5"/>
<feColorMatrix type="matrix" values="0 0 0 0 0.7875 0 0 0 0 0.7875 0 0 0 0 0.7875 0 0 0 0.25 0"/>
<feBlend mode="normal" in2="BackgroundImageFix" result="effect1_dropShadow"/>
<feBlend mode="normal" in="SourceGraphic" in2="effect1_dropShadow" result="shape"/>
</filter>
<filter id="filter4_d" x="178" y="674" width="127" height="132" filterUnits="userSpaceOnUse" color-interpolation-filters="sRGB">
<feFlood flood-opacity="0" result="BackgroundImageFix"/>
<feColorMatrix in="SourceAlpha" type="matrix" values="0 0 0 0 0 0 0 0 0 0 0 0 0 0 0 0 0 0 127 0"/>
<feMorphology radius="8" operator="erode" in="SourceAlpha" result="effect1_dropShadow"/>
<feOffset dy="22"/>
<feGaussianBlur stdDeviation="12.5"/>
<feColorMatrix type="matrix" values="0 0 0 0 0.7875 0 0 0 0 0.7875 0 0 0 0 0.7875 0 0 0 0.25 0"/>
<feBlend mode="normal" in2="BackgroundImageFix" result="effect1_dropShadow"/>
<feBlend mode="normal" in="SourceGraphic" in2="effect1_dropShadow" result="shape"/>
</filter>
<filter id="filter5_d" x="178" y="571" width="127" height="132" filterUnits="userSpaceOnUse" color-interpolation-filters="sRGB">
<feFlood flood-opacity="0" result="BackgroundImageFix"/>
<feColorMatrix in="SourceAlpha" type="matrix" values="0 0 0 0 0 0 0 0 0 0 0 0 0 0 0 0 0 0 127 0"/>
<feMorphology radius="8" operator="erode" in="SourceAlpha" result="effect1_dropShadow"/>
<feOffset dy="22"/>
<feGaussianBlur stdDeviation="12.5"/>
<feColorMatrix type="matrix" values="0 0 0 0 0.7875 0 0 0 0 0.7875 0 0 0 0 0.7875 0 0 0 0.25 0"/>
<feBlend mode="normal" in2="BackgroundImageFix" result="effect1_dropShadow"/>
<feBlend mode="normal" in="SourceGraphic" in2="effect1_dropShadow" result="shape"/>
</filter>
<filter id="filter6_d" x="178" y="777" width="127" height="132" filterUnits="userSpaceOnUse" color-interpolation-filters="sRGB">
<feFlood flood-opacity="0" result="BackgroundImageFix"/>
<feColorMatrix in="SourceAlpha" type="matrix" values="0 0 0 0 0 0 0 0 0 0 0 0 0 0 0 0 0 0 127 0"/>
<feMorphology radius="8" operator="erode" in="SourceAlpha" result="effect1_dropShadow"/>
<feOffset dy="22"/>
<feGaussianBlur stdDeviation="12.5"/>
<feColorMatrix type="matrix" values="0 0 0 0 0.7875 0 0 0 0 0.7875 0 0 0 0 0.7875 0 0 0 0.25 0"/>
<feBlend mode="normal" in2="BackgroundImageFix" result="effect1_dropShadow"/>
<feBlend mode="normal" in="SourceGraphic" in2="effect1_dropShadow" result="shape"/>
</filter>
<linearGradient id="paint0_linear" x1="242.99" y1="26.6907" x2="242.99" y2="931" gradientUnits="userSpaceOnUse">
<stop stop-color="#EDEDED" stop-opacity="0.5"/>
<stop offset="1" stop-color="#FFD6E4"/>
</linearGradient>
<linearGradient id="paint1_linear" x1="219.063" y1="75.3077" x2="266.538" y2="143.594" gradientUnits="userSpaceOnUse">
<stop stop-color="white"/>
<stop offset="1" stop-color="white"/>
</linearGradient>
<linearGradient id="paint2_linear" x1="219.063" y1="178.308" x2="266.538" y2="246.594" gradientUnits="userSpaceOnUse">
<stop stop-color="white"/>
<stop offset="1" stop-color="white"/>
</linearGradient>
<linearGradient id="paint3_linear" x1="219.063" y1="329.308" x2="266.538" y2="397.594" gradientUnits="userSpaceOnUse">
<stop stop-color="white"/>
<stop offset="1" stop-color="white"/>
</linearGradient>
<linearGradient id="paint4_linear" x1="219.063" y1="432.308" x2="266.538" y2="500.594" gradientUnits="userSpaceOnUse">
<stop stop-color="white"/>
<stop offset="1" stop-color="white"/>
</linearGradient>
<linearGradient id="paint5_linear" x1="219.063" y1="688.308" x2="266.538" y2="756.594" gradientUnits="userSpaceOnUse">
<stop stop-color="white"/>
<stop offset="1" stop-color="white"/>
</linearGradient>
<linearGradient id="paint6_linear" x1="219.063" y1="585.308" x2="266.538" y2="653.594" gradientUnits="userSpaceOnUse">
<stop stop-color="white"/>
<stop offset="1" stop-color="white"/>
</linearGradient>
<linearGradient id="paint7_linear" x1="219.063" y1="791.308" x2="266.538" y2="859.594" gradientUnits="userSpaceOnUse">
<stop stop-color="white"/>
<stop offset="1" stop-color="white"/>
</linearGradient>
</defs>
</svg>
