<svg width="1010" height="487" viewBox="0 0 1010 487" fill="none" xmlns="http://www.w3.org/2000/svg">
<rect width="1010" height="487" fill="#FAFBFC"/>
<path d="M994.32 218L977 200.679L959.679 218L977 235.321L994.32 218ZM29 221H977V215H29V221Z" fill="url(#paint0_linear)"/>
<circle cx="183" cy="217" r="82" fill="#F3F3F3" stroke="#D1D1D1" stroke-linecap="square" stroke-dasharray="7 7"/>
<path d="M162.199 376.924H166.561C167.381 376.906 168.101 377.092 168.721 377.484C169.131 377.721 169.45 378.045 169.678 378.455C169.896 378.911 170.006 379.471 170.006 380.137C170.006 380.939 169.737 381.668 169.199 382.324C168.634 382.999 167.791 383.345 166.67 383.363H162.199V376.924ZM159.178 394H162.199V386.221H166.793C168.844 386.184 170.402 385.528 171.469 384.252C172.508 383.04 173.027 381.695 173.027 380.219C173.027 379.125 172.822 378.177 172.412 377.375C172.02 376.546 171.51 375.908 170.881 375.461C170.133 374.868 169.395 374.477 168.666 374.285C167.937 374.139 167.18 374.066 166.396 374.066H159.178V394Z" fill="#A4A4A4"/>
<path d="M175.516 390.555C175.516 391.803 175.871 392.692 176.582 393.221C177.257 393.74 178.113 394 179.152 394H180.424V391.307H179.439C178.729 391.307 178.373 390.983 178.373 390.336V374.066H175.516V390.555Z" fill="#A4A4A4"/>
<path d="M190.186 394H193.043V384.307C193.025 382.575 192.482 381.354 191.416 380.643C190.35 379.95 188.923 379.613 187.137 379.631C185.022 379.594 183.423 380.287 182.338 381.709L184.58 383.418C184.826 383.008 185.163 382.716 185.592 382.543C186.002 382.397 186.562 382.324 187.273 382.324C189.233 382.288 190.204 382.894 190.186 384.143V385.633H186.234C184.721 385.651 183.573 386.061 182.789 386.863C182.005 387.647 181.613 388.636 181.613 389.83C181.613 391.079 182.064 392.104 182.967 392.906C183.824 393.727 185.045 394.146 186.631 394.164C187.597 394.164 188.354 394.046 188.9 393.809C189.456 393.581 189.867 393.225 190.131 392.742H190.186V394ZM190.186 389.01C190.186 390.076 189.962 390.76 189.516 391.061C189.023 391.361 188.18 391.503 186.986 391.484C186.038 391.484 185.359 391.298 184.949 390.924C184.521 390.587 184.307 390.176 184.307 389.693C184.288 388.59 185.109 388.021 186.768 387.984H190.186V389.01Z" fill="#A4A4A4"/>
<path d="M196.734 394H199.592V385.551C199.592 384.557 199.861 383.801 200.398 383.281C200.927 382.753 201.602 382.488 202.422 382.488C203.242 382.488 203.912 382.753 204.432 383.281C204.96 383.801 205.225 384.557 205.225 385.551V394H208.082V384.566C208.036 382.944 207.531 381.714 206.564 380.875C205.589 380.046 204.514 379.631 203.338 379.631C201.816 379.631 200.585 380.191 199.646 381.312H199.592V379.809H196.734V394Z" fill="#A4A4A4"/>
<circle cx="447" cy="217" r="97" fill="#EEF9FF" stroke="#60C7FF" stroke-linecap="square" stroke-dasharray="7 7"/>
<path d="M413.326 394H416.348V374.066H413.326V394Z" fill="#90CEEF"/>
<path d="M428.775 392.51V394H431.633V374.066H428.775V381.312C428.247 380.811 427.695 380.401 427.121 380.082C426.501 379.781 425.827 379.631 425.098 379.631C423.366 379.676 422.099 380.296 421.297 381.49C420.905 381.937 420.645 382.525 420.518 383.254C420.363 383.974 420.285 385.186 420.285 386.891C420.285 388.568 420.363 389.771 420.518 390.5C420.645 391.266 420.905 391.872 421.297 392.318C421.725 392.865 422.258 393.303 422.896 393.631C423.507 393.968 424.241 394.146 425.098 394.164C426.611 394.128 427.837 393.576 428.775 392.51ZM425.973 382.488C426.647 382.488 427.18 382.62 427.572 382.885C427.964 383.149 428.233 383.495 428.379 383.924C428.561 384.352 428.684 384.817 428.748 385.318C428.766 385.82 428.775 386.344 428.775 386.891C428.775 387.392 428.766 387.902 428.748 388.422C428.684 388.951 428.561 389.429 428.379 389.857C428.233 390.286 427.964 390.632 427.572 390.896C427.18 391.17 426.647 391.307 425.973 391.307C425.298 391.307 424.783 391.179 424.428 390.924C424.036 390.66 423.749 390.322 423.566 389.912C423.393 389.484 423.279 389.001 423.225 388.463C423.17 387.952 423.143 387.428 423.143 386.891C423.143 386.326 423.17 385.774 423.225 385.236C423.279 384.735 423.393 384.27 423.566 383.842C423.749 383.413 424.036 383.076 424.428 382.83C424.783 382.602 425.298 382.488 425.973 382.488Z" fill="#90CEEF"/>
<path d="M445.838 387.984V385.633C445.82 383.764 445.241 382.297 444.102 381.23C442.98 380.182 441.609 379.649 439.986 379.631C439.312 379.631 438.628 379.754 437.936 380C437.234 380.246 436.6 380.647 436.035 381.203C435.479 381.75 435.023 382.497 434.668 383.445C434.312 384.375 434.135 385.542 434.135 386.945C434.135 388.404 434.34 389.589 434.75 390.5C435.124 391.448 435.611 392.186 436.213 392.715C436.523 392.97 436.855 393.184 437.211 393.357C437.548 393.558 437.895 393.717 438.25 393.836C438.961 394.055 439.69 394.164 440.438 394.164C442.397 394.182 444.102 393.417 445.551 391.867L443.486 390.104C442.575 391.024 441.54 391.484 440.383 391.484C439.389 391.484 438.587 391.184 437.977 390.582C437.32 389.99 436.992 389.124 436.992 387.984H445.838ZM436.992 385.633C437.047 384.53 437.343 383.696 437.881 383.131C438.428 382.593 439.13 382.324 439.986 382.324C440.843 382.324 441.545 382.593 442.092 383.131C442.648 383.696 442.944 384.53 442.98 385.633H436.992Z" fill="#90CEEF"/>
<path d="M456.283 394H459.141V384.307C459.122 382.575 458.58 381.354 457.514 380.643C456.447 379.95 455.021 379.613 453.234 379.631C451.12 379.594 449.52 380.287 448.436 381.709L450.678 383.418C450.924 383.008 451.261 382.716 451.689 382.543C452.1 382.397 452.66 382.324 453.371 382.324C455.331 382.288 456.301 382.894 456.283 384.143V385.633H452.332C450.819 385.651 449.671 386.061 448.887 386.863C448.103 387.647 447.711 388.636 447.711 389.83C447.711 391.079 448.162 392.104 449.064 392.906C449.921 393.727 451.143 394.146 452.729 394.164C453.695 394.164 454.451 394.046 454.998 393.809C455.554 393.581 455.964 393.225 456.229 392.742H456.283V394ZM456.283 389.01C456.283 390.076 456.06 390.76 455.613 391.061C455.121 391.361 454.278 391.503 453.084 391.484C452.136 391.484 451.457 391.298 451.047 390.924C450.618 390.587 450.404 390.176 450.404 389.693C450.386 388.59 451.206 388.021 452.865 387.984H456.283V389.01Z" fill="#90CEEF"/>
<path d="M462.996 379.809H461.574V381.982H462.996V390.5C462.996 391.621 463.324 392.478 463.98 393.07C464.618 393.69 465.439 394 466.441 394H467.932V391.307H466.865C466.173 391.325 465.835 390.974 465.854 390.254V381.982H467.932V379.809H465.854V375.488H462.996V379.809Z" fill="#90CEEF"/>
<path d="M481.631 387.984V385.633C481.613 383.764 481.034 382.297 479.895 381.23C478.773 380.182 477.402 379.649 475.779 379.631C475.105 379.631 474.421 379.754 473.729 380C473.027 380.246 472.393 380.647 471.828 381.203C471.272 381.75 470.816 382.497 470.461 383.445C470.105 384.375 469.928 385.542 469.928 386.945C469.928 388.404 470.133 389.589 470.543 390.5C470.917 391.448 471.404 392.186 472.006 392.715C472.316 392.97 472.648 393.184 473.004 393.357C473.341 393.558 473.688 393.717 474.043 393.836C474.754 394.055 475.483 394.164 476.23 394.164C478.19 394.182 479.895 393.417 481.344 391.867L479.279 390.104C478.368 391.024 477.333 391.484 476.176 391.484C475.182 391.484 474.38 391.184 473.77 390.582C473.113 389.99 472.785 389.124 472.785 387.984H481.631ZM472.785 385.633C472.84 384.53 473.136 383.696 473.674 383.131C474.221 382.593 474.923 382.324 475.779 382.324C476.636 382.324 477.338 382.593 477.885 383.131C478.441 383.696 478.737 384.53 478.773 385.633H472.785Z" fill="#90CEEF"/>
<circle cx="767" cy="217" r="114" fill="#FFF8FA" stroke="#FF6086" stroke-linecap="square" stroke-dasharray="7 7"/>
<path d="M737.564 389.16L735.582 391.43C737.706 393.253 740.244 394.164 743.197 394.164C747.764 394.109 750.097 392.177 750.197 388.367C750.197 386.954 749.755 385.715 748.871 384.648C747.978 383.564 746.597 382.894 744.729 382.639C743.781 382.52 743.033 382.415 742.486 382.324C741.502 382.142 740.786 381.814 740.34 381.34C739.893 380.875 739.67 380.355 739.67 379.781C739.688 378.824 740.021 378.104 740.668 377.621C741.288 377.156 742.062 376.924 742.992 376.924C744.788 376.96 746.433 377.471 747.928 378.455L749.609 375.967C747.777 374.645 745.622 373.957 743.143 373.902C741.083 373.921 739.492 374.458 738.371 375.516C737.214 376.582 736.635 377.986 736.635 379.727C736.635 381.176 737.095 382.406 738.016 383.418C738.909 384.402 740.212 385.036 741.926 385.318C742.883 385.455 743.762 385.578 744.564 385.688C746.314 385.988 747.18 386.882 747.162 388.367C747.126 390.181 745.813 391.106 743.225 391.143C741.037 391.124 739.15 390.464 737.564 389.16Z" fill="#F7BDCD"/>
<path d="M752.439 386.891C752.439 388.385 752.562 389.525 752.809 390.309C753.064 391.092 753.456 391.771 753.984 392.346C754.376 392.792 754.923 393.193 755.625 393.549C756.318 393.941 757.206 394.146 758.291 394.164C759.412 394.146 760.319 393.941 761.012 393.549C761.385 393.385 761.691 393.189 761.928 392.961C762.192 392.76 762.415 392.555 762.598 392.346C763.163 391.771 763.564 391.092 763.801 390.309C764.029 389.525 764.143 388.385 764.143 386.891C764.143 385.396 764.029 384.247 763.801 383.445C763.564 382.661 763.163 382.001 762.598 381.463C762.224 380.989 761.695 380.565 761.012 380.191C760.319 379.836 759.412 379.649 758.291 379.631C757.206 379.649 756.318 379.836 755.625 380.191C754.923 380.565 754.376 380.989 753.984 381.463C753.456 382.001 753.064 382.661 752.809 383.445C752.562 384.247 752.439 385.396 752.439 386.891ZM761.285 386.918C761.285 387.884 761.24 388.595 761.148 389.051C761.057 389.516 760.87 389.926 760.588 390.281C760.378 390.555 760.068 390.796 759.658 391.006C759.266 391.206 758.811 391.307 758.291 391.307C757.808 391.307 757.361 391.206 756.951 391.006C756.559 390.796 756.24 390.555 755.994 390.281C755.748 389.926 755.57 389.516 755.461 389.051C755.352 388.595 755.297 387.875 755.297 386.891C755.297 385.897 755.352 385.168 755.461 384.703C755.57 384.257 755.748 383.865 755.994 383.527C756.24 383.208 756.559 382.958 756.951 382.775C757.361 382.584 757.808 382.488 758.291 382.488C758.811 382.488 759.266 382.584 759.658 382.775C760.068 382.958 760.378 383.208 760.588 383.527C760.87 383.865 761.057 384.257 761.148 384.703C761.24 385.168 761.285 385.906 761.285 386.918Z" fill="#F7BDCD"/>
<path d="M767.137 390.555C767.137 391.803 767.492 392.692 768.203 393.221C768.878 393.74 769.734 394 770.773 394H772.045V391.307H771.061C770.35 391.307 769.994 390.983 769.994 390.336V374.066H767.137V390.555Z" fill="#F7BDCD"/>
<path d="M777.555 394H779.906L785.115 379.809H782.08L778.758 389.748H778.703L775.367 379.809H772.346L777.555 394Z" fill="#F7BDCD"/>
<path d="M797.639 387.984V385.633C797.62 383.764 797.042 382.297 795.902 381.23C794.781 380.182 793.41 379.649 791.787 379.631C791.113 379.631 790.429 379.754 789.736 380C789.035 380.246 788.401 380.647 787.836 381.203C787.28 381.75 786.824 382.497 786.469 383.445C786.113 384.375 785.936 385.542 785.936 386.945C785.936 388.404 786.141 389.589 786.551 390.5C786.924 391.448 787.412 392.186 788.014 392.715C788.324 392.97 788.656 393.184 789.012 393.357C789.349 393.558 789.695 393.717 790.051 393.836C790.762 394.055 791.491 394.164 792.238 394.164C794.198 394.182 795.902 393.417 797.352 391.867L795.287 390.104C794.376 391.024 793.341 391.484 792.184 391.484C791.19 391.484 790.388 391.184 789.777 390.582C789.121 389.99 788.793 389.124 788.793 387.984H797.639ZM788.793 385.633C788.848 384.53 789.144 383.696 789.682 383.131C790.229 382.593 790.93 382.324 791.787 382.324C792.644 382.324 793.346 382.593 793.893 383.131C794.449 383.696 794.745 384.53 794.781 385.633H788.793Z" fill="#F7BDCD"/>
<g filter="url(#filter0_d)">
<circle cx="120.5" cy="217.5" r="53.5" fill="url(#paint1_linear)"/>
</g>
<path d="M81.7891 222H83.9473V215.916H89.8652V214.002H83.9473V209.803H90.8809V207.762H81.7891V222Z" fill="#A4A4A4"/>
<path d="M99.8359 217.703V216.023C99.8229 214.689 99.4095 213.641 98.5957 212.879C97.7949 212.13 96.8151 211.749 95.6562 211.736C95.1745 211.736 94.6862 211.824 94.1914 212C93.6901 212.176 93.2376 212.462 92.834 212.859C92.4368 213.25 92.1113 213.784 91.8574 214.461C91.6035 215.125 91.4766 215.958 91.4766 216.961C91.4766 218.003 91.623 218.849 91.916 219.5C92.1829 220.177 92.5312 220.704 92.9609 221.082C93.1823 221.264 93.4199 221.417 93.6738 221.541C93.9147 221.684 94.1621 221.798 94.416 221.883C94.9238 222.039 95.4447 222.117 95.9785 222.117C97.3783 222.13 98.5957 221.583 99.6309 220.477L98.1562 219.217C97.5052 219.874 96.7663 220.203 95.9395 220.203C95.2298 220.203 94.6569 219.988 94.2207 219.559C93.752 219.135 93.5176 218.517 93.5176 217.703H99.8359ZM93.5176 216.023C93.5566 215.236 93.7682 214.64 94.1523 214.236C94.543 213.852 95.0443 213.66 95.6562 213.66C96.2682 213.66 96.7695 213.852 97.1602 214.236C97.5573 214.64 97.7689 215.236 97.7949 216.023H93.5176Z" fill="#A4A4A4"/>
<path d="M109.836 217.703V216.023C109.823 214.689 109.41 213.641 108.596 212.879C107.795 212.13 106.815 211.749 105.656 211.736C105.174 211.736 104.686 211.824 104.191 212C103.69 212.176 103.238 212.462 102.834 212.859C102.437 213.25 102.111 213.784 101.857 214.461C101.604 215.125 101.477 215.958 101.477 216.961C101.477 218.003 101.623 218.849 101.916 219.5C102.183 220.177 102.531 220.704 102.961 221.082C103.182 221.264 103.42 221.417 103.674 221.541C103.915 221.684 104.162 221.798 104.416 221.883C104.924 222.039 105.445 222.117 105.979 222.117C107.378 222.13 108.596 221.583 109.631 220.477L108.156 219.217C107.505 219.874 106.766 220.203 105.939 220.203C105.23 220.203 104.657 219.988 104.221 219.559C103.752 219.135 103.518 218.517 103.518 217.703H109.836ZM103.518 216.023C103.557 215.236 103.768 214.64 104.152 214.236C104.543 213.852 105.044 213.66 105.656 213.66C106.268 213.66 106.77 213.852 107.16 214.236C107.557 214.64 107.769 215.236 107.795 216.023H103.518Z" fill="#A4A4A4"/>
<path d="M118.039 220.936V222H120.08V207.762H118.039V212.938C117.661 212.579 117.268 212.286 116.857 212.059C116.415 211.844 115.933 211.736 115.412 211.736C114.175 211.769 113.27 212.212 112.697 213.064C112.417 213.383 112.232 213.803 112.141 214.324C112.03 214.839 111.975 215.704 111.975 216.922C111.975 218.12 112.03 218.979 112.141 219.5C112.232 220.047 112.417 220.48 112.697 220.799C113.003 221.189 113.384 221.502 113.84 221.736C114.276 221.977 114.8 222.104 115.412 222.117C116.493 222.091 117.368 221.697 118.039 220.936ZM116.037 213.777C116.519 213.777 116.9 213.872 117.18 214.061C117.46 214.249 117.652 214.497 117.756 214.803C117.886 215.109 117.974 215.441 118.02 215.799C118.033 216.157 118.039 216.531 118.039 216.922C118.039 217.28 118.033 217.645 118.02 218.016C117.974 218.393 117.886 218.735 117.756 219.041C117.652 219.347 117.46 219.594 117.18 219.783C116.9 219.979 116.519 220.076 116.037 220.076C115.555 220.076 115.188 219.985 114.934 219.803C114.654 219.614 114.449 219.373 114.318 219.08C114.195 218.774 114.113 218.429 114.074 218.045C114.035 217.68 114.016 217.306 114.016 216.922C114.016 216.518 114.035 216.124 114.074 215.74C114.113 215.382 114.195 215.05 114.318 214.744C114.449 214.438 114.654 214.197 114.934 214.021C115.188 213.859 115.555 213.777 116.037 213.777Z" fill="#A4A4A4"/>
<path d="M122.365 222H124.406V220.936C125.083 221.697 125.956 222.091 127.023 222.117C127.655 222.104 128.195 221.977 128.645 221.736C129.1 221.502 129.468 221.189 129.748 220.799C130.028 220.48 130.22 220.047 130.324 219.5C130.422 218.979 130.471 218.12 130.471 216.922C130.471 215.704 130.422 214.839 130.324 214.324C130.22 213.803 130.028 213.383 129.748 213.064C129.175 212.212 128.267 211.769 127.023 211.736C126.503 211.736 126.037 211.844 125.627 212.059C125.184 212.286 124.777 212.579 124.406 212.938V207.762H122.365V222ZM126.408 213.777C126.89 213.777 127.271 213.859 127.551 214.021C127.831 214.197 128.029 214.438 128.146 214.744C128.277 215.05 128.365 215.382 128.41 215.74C128.423 216.124 128.43 216.518 128.43 216.922C128.43 217.306 128.423 217.68 128.41 218.045C128.365 218.429 128.277 218.774 128.146 219.08C128.029 219.373 127.831 219.614 127.551 219.803C127.271 219.985 126.89 220.076 126.408 220.076C125.952 220.076 125.591 219.979 125.324 219.783C125.044 219.594 124.839 219.347 124.709 219.041C124.585 218.735 124.504 218.393 124.465 218.016C124.426 217.645 124.406 217.28 124.406 216.922C124.406 216.531 124.426 216.157 124.465 215.799C124.504 215.441 124.585 215.109 124.709 214.803C124.839 214.497 125.044 214.249 125.324 214.061C125.591 213.872 125.952 213.777 126.408 213.777Z" fill="#A4A4A4"/>
<path d="M138.078 222H140.119V215.076C140.106 213.839 139.719 212.967 138.957 212.459C138.195 211.964 137.176 211.723 135.9 211.736C134.39 211.71 133.247 212.205 132.473 213.221L134.074 214.441C134.25 214.148 134.491 213.94 134.797 213.816C135.09 213.712 135.49 213.66 135.998 213.66C137.398 213.634 138.091 214.067 138.078 214.959V216.023H135.256C134.175 216.036 133.355 216.329 132.795 216.902C132.235 217.462 131.955 218.169 131.955 219.021C131.955 219.913 132.277 220.646 132.922 221.219C133.534 221.805 134.406 222.104 135.539 222.117C136.229 222.117 136.77 222.033 137.16 221.863C137.557 221.701 137.85 221.447 138.039 221.102H138.078V222ZM138.078 218.436C138.078 219.197 137.919 219.686 137.6 219.9C137.248 220.115 136.646 220.216 135.793 220.203C135.116 220.203 134.631 220.07 134.338 219.803C134.032 219.562 133.879 219.269 133.879 218.924C133.866 218.136 134.452 217.729 135.637 217.703H138.078V218.436Z" fill="#A4A4A4"/>
<path d="M148.713 219.021C148.199 219.712 147.512 220.063 146.652 220.076C144.921 220.109 144.042 219.064 144.016 216.941C144.042 214.806 144.921 213.751 146.652 213.777C147.512 213.803 148.199 214.158 148.713 214.842L150.217 213.504C149.774 212.97 149.253 212.544 148.654 212.225C148.055 211.912 147.362 211.749 146.574 211.736C145.376 211.723 144.325 212.124 143.42 212.938C142.482 213.764 142.001 215.099 141.975 216.941C142.001 218.764 142.482 220.083 143.42 220.896C144.325 221.71 145.376 222.117 146.574 222.117C147.362 222.104 148.055 221.932 148.654 221.6C149.253 221.281 149.774 220.867 150.217 220.359L148.713 219.021Z" fill="#A4A4A4"/>
<path d="M151.643 222H153.684V219.08L155.285 217.264L157.98 222H160.539L156.564 215.818L160.061 211.863H157.619L153.723 216.619H153.684V207.762H151.643V222Z" fill="#A4A4A4"/>
<g filter="url(#filter1_d)">
<circle cx="242.5" cy="217.5" r="53.5" fill="url(#paint2_linear)"/>
</g>
<path d="M216.828 199.543L215.412 201.164C216.929 202.466 218.742 203.117 220.852 203.117C224.113 203.078 225.78 201.698 225.852 198.977C225.852 197.967 225.536 197.082 224.904 196.32C224.266 195.546 223.28 195.067 221.945 194.885C221.268 194.8 220.734 194.725 220.344 194.66C219.641 194.53 219.13 194.296 218.811 193.957C218.492 193.625 218.332 193.254 218.332 192.844C218.345 192.16 218.583 191.646 219.045 191.301C219.488 190.969 220.041 190.803 220.705 190.803C221.988 190.829 223.163 191.193 224.23 191.896L225.432 190.119C224.123 189.175 222.583 188.684 220.812 188.645C219.341 188.658 218.205 189.042 217.404 189.797C216.577 190.559 216.164 191.561 216.164 192.805C216.164 193.84 216.493 194.719 217.15 195.441C217.788 196.145 218.719 196.597 219.943 196.799C220.627 196.896 221.255 196.984 221.828 197.062C223.078 197.277 223.697 197.915 223.684 198.977C223.658 200.272 222.72 200.933 220.871 200.959C219.309 200.946 217.961 200.474 216.828 199.543Z" fill="#A4A4A4"/>
<path d="M233.908 200.021C233.394 200.712 232.707 201.063 231.848 201.076C230.116 201.109 229.237 200.064 229.211 197.941C229.237 195.806 230.116 194.751 231.848 194.777C232.707 194.803 233.394 195.158 233.908 195.842L235.412 194.504C234.969 193.97 234.449 193.544 233.85 193.225C233.251 192.912 232.557 192.749 231.77 192.736C230.572 192.723 229.52 193.124 228.615 193.938C227.678 194.764 227.196 196.099 227.17 197.941C227.196 199.764 227.678 201.083 228.615 201.896C229.52 202.71 230.572 203.117 231.77 203.117C232.557 203.104 233.251 202.932 233.85 202.6C234.449 202.281 234.969 201.867 235.412 201.359L233.908 200.021Z" fill="#A4A4A4"/>
<path d="M236.838 203H238.879V196.896C238.892 196.154 239.107 195.617 239.523 195.285C239.895 194.947 240.34 194.777 240.861 194.777C241.324 194.777 241.77 194.947 242.199 195.285L243.684 193.518C243.078 193.01 242.368 192.749 241.555 192.736C240.467 192.736 239.589 193.137 238.918 193.938H238.879V192.863H236.838V203Z" fill="#A4A4A4"/>
<path d="M244.377 199.602C244.39 200.747 244.764 201.613 245.5 202.199C246.177 202.798 246.936 203.104 247.775 203.117C248.856 203.117 249.732 202.717 250.402 201.916H250.441V203H252.482V192.863H250.441V198.898C250.441 199.582 250.253 200.116 249.875 200.5C249.504 200.884 249.025 201.076 248.439 201.076C247.854 201.076 247.372 200.884 246.994 200.5C246.61 200.116 246.418 199.582 246.418 198.898V192.863H244.377V199.602Z" fill="#A4A4A4"/>
<path d="M255.236 203H257.277V196.965C257.277 196.255 257.473 195.715 257.863 195.344C258.234 194.966 258.713 194.777 259.299 194.777C259.885 194.777 260.367 194.966 260.744 195.344C261.115 195.715 261.301 196.255 261.301 196.965V203H263.342V196.965C263.342 196.255 263.534 195.715 263.918 195.344C264.296 194.966 264.777 194.777 265.363 194.777C265.949 194.777 266.428 194.966 266.799 195.344C267.17 195.715 267.355 196.255 267.355 196.965V203H269.396V196.262C269.37 195.103 269.012 194.224 268.322 193.625C267.626 193.033 266.857 192.736 266.018 192.736C264.683 192.723 263.618 193.166 262.824 194.064C262.473 193.674 262.085 193.352 261.662 193.098C261.232 192.87 260.666 192.749 259.963 192.736C258.869 192.736 257.987 193.137 257.316 193.938H257.277V192.863H255.236V203Z" fill="#A4A4A4"/>
<path d="M240.637 214.799C240.637 214.415 240.777 214.089 241.057 213.822C241.311 213.568 241.636 213.441 242.033 213.441C242.45 213.441 242.792 213.568 243.059 213.822C243.312 214.089 243.439 214.415 243.439 214.799C243.439 215.157 243.319 215.486 243.078 215.785C242.811 216.078 242.349 216.358 241.691 216.625C241.385 216.332 241.141 216.023 240.959 215.697C240.744 215.391 240.637 215.092 240.637 214.799ZM245.773 224.564L247.092 226H249.494L247.092 223.139C247.495 222.702 247.857 222.211 248.176 221.664C248.495 221.13 248.755 220.596 248.957 220.062L247.131 219.34C246.864 220.193 246.451 220.987 245.891 221.723L242.854 218.061C244.468 217.26 245.262 216.199 245.236 214.877C245.223 213.985 244.93 213.227 244.357 212.602C243.785 211.977 243.01 211.658 242.033 211.645C241.063 211.658 240.292 211.977 239.719 212.602C239.133 213.227 238.84 213.985 238.84 214.877C238.84 215.359 238.957 215.827 239.191 216.283C239.393 216.745 239.667 217.178 240.012 217.582C238.215 218.578 237.31 219.965 237.297 221.742C237.31 222.94 237.73 223.959 238.557 224.799C239.357 225.652 240.438 226.091 241.799 226.117C242.554 226.104 243.26 225.951 243.918 225.658C244.582 225.365 245.201 225.001 245.773 224.564ZM241.154 218.939L244.592 223.061C243.609 223.913 242.655 224.333 241.73 224.32C241.014 224.32 240.402 224.066 239.895 223.559C239.374 223.077 239.107 222.465 239.094 221.723C239.081 220.681 239.768 219.753 241.154 218.939Z" fill="#A4A4A4"/>
<path d="M225.432 249H227.59V240.123H227.629L230.607 246.959H232.404L235.383 240.123H235.432V249H237.59V234.762H235.549L231.545 244.039L227.463 234.762H225.432V249Z" fill="#A4A4A4"/>
<path d="M243.801 249H245.48L250.188 234.762H247.902L244.66 245.602H244.621L241.389 234.762H239.104L243.801 249Z" fill="#A4A4A4"/>
<path d="M253.879 236.803H256.994C257.58 236.79 258.094 236.923 258.537 237.203C258.83 237.372 259.058 237.604 259.221 237.896C259.377 238.222 259.455 238.622 259.455 239.098C259.455 239.671 259.263 240.191 258.879 240.66C258.475 241.142 257.873 241.389 257.072 241.402H253.879V236.803ZM251.721 249H253.879V243.443H257.16C258.625 243.417 259.738 242.949 260.5 242.037C261.242 241.171 261.613 240.211 261.613 239.156C261.613 238.375 261.467 237.698 261.174 237.125C260.894 236.533 260.529 236.077 260.08 235.758C259.546 235.335 259.019 235.055 258.498 234.918C257.977 234.814 257.437 234.762 256.877 234.762H251.721V249Z" fill="#A4A4A4"/>
<g filter="url(#filter2_d)">
<circle cx="385.5" cy="217.5" r="53.5" fill="url(#paint3_linear)"/>
</g>
<path d="M344.834 222H346.992V215.916H352.91V214.002H346.992V209.803H353.926V207.762H344.834V222Z" fill="#90CEEF"/>
<path d="M355.391 219.539C355.391 220.431 355.645 221.066 356.152 221.443C356.634 221.814 357.246 222 357.988 222H358.896V220.076H358.193C357.686 220.076 357.432 219.845 357.432 219.383V207.762H355.391V219.539Z" fill="#90CEEF"/>
<path d="M360.049 216.922C360.049 217.99 360.137 218.803 360.312 219.363C360.495 219.923 360.775 220.408 361.152 220.818C361.432 221.137 361.823 221.424 362.324 221.678C362.819 221.958 363.454 222.104 364.229 222.117C365.029 222.104 365.677 221.958 366.172 221.678C366.439 221.561 366.657 221.421 366.826 221.258C367.015 221.115 367.174 220.968 367.305 220.818C367.708 220.408 367.995 219.923 368.164 219.363C368.327 218.803 368.408 217.99 368.408 216.922C368.408 215.854 368.327 215.034 368.164 214.461C367.995 213.901 367.708 213.429 367.305 213.045C367.038 212.706 366.66 212.404 366.172 212.137C365.677 211.883 365.029 211.749 364.229 211.736C363.454 211.749 362.819 211.883 362.324 212.137C361.823 212.404 361.432 212.706 361.152 213.045C360.775 213.429 360.495 213.901 360.312 214.461C360.137 215.034 360.049 215.854 360.049 216.922ZM366.367 216.941C366.367 217.632 366.335 218.139 366.27 218.465C366.204 218.797 366.071 219.09 365.869 219.344C365.719 219.539 365.498 219.712 365.205 219.861C364.925 220.005 364.6 220.076 364.229 220.076C363.883 220.076 363.564 220.005 363.271 219.861C362.992 219.712 362.764 219.539 362.588 219.344C362.412 219.09 362.285 218.797 362.207 218.465C362.129 218.139 362.09 217.625 362.09 216.922C362.09 216.212 362.129 215.691 362.207 215.359C362.285 215.04 362.412 214.76 362.588 214.52C362.764 214.292 362.992 214.113 363.271 213.982C363.564 213.846 363.883 213.777 364.229 213.777C364.6 213.777 364.925 213.846 365.205 213.982C365.498 214.113 365.719 214.292 365.869 214.52C366.071 214.76 366.204 215.04 366.27 215.359C366.335 215.691 366.367 216.219 366.367 216.941Z" fill="#90CEEF"/>
<path d="M378.584 222H380.391L383.623 211.863H381.465L379.531 218.963H379.492L377.188 211.863H375.713L373.408 218.963H373.369L371.426 211.863H369.268L372.51 222H374.307L376.426 214.9H376.465L378.584 222Z" fill="#90CEEF"/>
<path d="M390.957 219.021C390.443 219.712 389.756 220.063 388.896 220.076C387.165 220.109 386.286 219.064 386.26 216.941C386.286 214.806 387.165 213.751 388.896 213.777C389.756 213.803 390.443 214.158 390.957 214.842L392.461 213.504C392.018 212.97 391.497 212.544 390.898 212.225C390.299 211.912 389.606 211.749 388.818 211.736C387.62 211.723 386.569 212.124 385.664 212.938C384.727 213.764 384.245 215.099 384.219 216.941C384.245 218.764 384.727 220.083 385.664 220.896C386.569 221.71 387.62 222.117 388.818 222.117C389.606 222.104 390.299 221.932 390.898 221.6C391.497 221.281 392.018 220.867 392.461 220.359L390.957 219.021Z" fill="#90CEEF"/>
<path d="M393.887 222H395.928V215.965C395.928 215.255 396.12 214.715 396.504 214.344C396.882 213.966 397.363 213.777 397.949 213.777C398.535 213.777 399.014 213.966 399.385 214.344C399.762 214.715 399.951 215.255 399.951 215.965V222H401.992V215.262C401.96 214.103 401.598 213.224 400.908 212.625C400.212 212.033 399.443 211.736 398.604 211.736C397.516 211.736 396.637 212.137 395.967 212.938H395.928V207.762H393.887V222Z" fill="#90CEEF"/>
<path d="M409.951 222H411.992V215.076C411.979 213.839 411.592 212.967 410.83 212.459C410.068 211.964 409.049 211.723 407.773 211.736C406.263 211.71 405.12 212.205 404.346 213.221L405.947 214.441C406.123 214.148 406.364 213.94 406.67 213.816C406.963 213.712 407.363 213.66 407.871 213.66C409.271 213.634 409.964 214.067 409.951 214.959V216.023H407.129C406.048 216.036 405.228 216.329 404.668 216.902C404.108 217.462 403.828 218.169 403.828 219.021C403.828 219.913 404.15 220.646 404.795 221.219C405.407 221.805 406.279 222.104 407.412 222.117C408.102 222.117 408.643 222.033 409.033 221.863C409.43 221.701 409.723 221.447 409.912 221.102H409.951V222ZM409.951 218.436C409.951 219.197 409.792 219.686 409.473 219.9C409.121 220.115 408.519 220.216 407.666 220.203C406.989 220.203 406.504 220.07 406.211 219.803C405.905 219.562 405.752 219.269 405.752 218.924C405.739 218.136 406.325 217.729 407.51 217.703H409.951V218.436Z" fill="#90CEEF"/>
<path d="M414.629 222H416.67V215.896C416.683 215.154 416.898 214.617 417.314 214.285C417.686 213.947 418.132 213.777 418.652 213.777C419.115 213.777 419.561 213.947 419.99 214.285L421.475 212.518C420.869 212.01 420.16 211.749 419.346 211.736C418.258 211.736 417.38 212.137 416.709 212.938H416.67V211.863H414.629V222Z" fill="#90CEEF"/>
<path d="M422.539 211.863H421.523V213.416H422.539V219.5C422.539 220.301 422.773 220.913 423.242 221.336C423.698 221.779 424.284 222 425 222H426.064V220.076H425.303C424.808 220.089 424.567 219.839 424.58 219.324V213.416H426.064V211.863H424.58V208.777H422.539V211.863Z" fill="#90CEEF"/>
<g filter="url(#filter3_d)">
<circle cx="507.5" cy="217.5" r="53.5" fill="url(#paint4_linear)"/>
</g>
<path d="M466.826 222H468.623L471.348 211.736H471.387L474.102 222H475.908L479.463 207.762H477.188L474.941 217.879H474.902L472.148 207.762H470.586L467.822 217.879H467.783L465.547 207.762H463.271L466.826 222Z" fill="#90CEEF"/>
<path d="M481.064 222H483.105V211.863H481.064V222ZM481.064 209.803H483.105V207.762H481.064V209.803Z" fill="#90CEEF"/>
<path d="M485.811 222H487.852V215.896C487.865 215.154 488.079 214.617 488.496 214.285C488.867 213.947 489.313 213.777 489.834 213.777C490.296 213.777 490.742 213.947 491.172 214.285L492.656 212.518C492.051 212.01 491.341 211.749 490.527 211.736C489.44 211.736 488.561 212.137 487.891 212.938H487.852V211.863H485.811V222Z" fill="#90CEEF"/>
<path d="M501.094 217.703V216.023C501.081 214.689 500.667 213.641 499.854 212.879C499.053 212.13 498.073 211.749 496.914 211.736C496.432 211.736 495.944 211.824 495.449 212C494.948 212.176 494.495 212.462 494.092 212.859C493.695 213.25 493.369 213.784 493.115 214.461C492.861 215.125 492.734 215.958 492.734 216.961C492.734 218.003 492.881 218.849 493.174 219.5C493.441 220.177 493.789 220.704 494.219 221.082C494.44 221.264 494.678 221.417 494.932 221.541C495.173 221.684 495.42 221.798 495.674 221.883C496.182 222.039 496.702 222.117 497.236 222.117C498.636 222.13 499.854 221.583 500.889 220.477L499.414 219.217C498.763 219.874 498.024 220.203 497.197 220.203C496.488 220.203 495.915 219.988 495.479 219.559C495.01 219.135 494.775 218.517 494.775 217.703H501.094ZM494.775 216.023C494.814 215.236 495.026 214.64 495.41 214.236C495.801 213.852 496.302 213.66 496.914 213.66C497.526 213.66 498.027 213.852 498.418 214.236C498.815 214.64 499.027 215.236 499.053 216.023H494.775Z" fill="#90CEEF"/>
<path d="M503.555 222H505.596V213.416H507.637V211.863H505.596V210.525C505.57 209.946 505.863 209.666 506.475 209.686H507.637V207.762H506.318C505.531 207.762 504.876 207.973 504.355 208.396C503.822 208.852 503.555 209.562 503.555 210.525V211.863H502.529V213.416H503.555V222Z" fill="#90CEEF"/>
<path d="M508.799 222H510.84V215.896C510.853 215.154 511.068 214.617 511.484 214.285C511.855 213.947 512.301 213.777 512.822 213.777C513.285 213.777 513.73 213.947 514.16 214.285L515.645 212.518C515.039 212.01 514.329 211.749 513.516 211.736C512.428 211.736 511.549 212.137 510.879 212.938H510.84V211.863H508.799V222Z" fill="#90CEEF"/>
<path d="M521.543 222H523.584V215.076C523.571 213.839 523.184 212.967 522.422 212.459C521.66 211.964 520.641 211.723 519.365 211.736C517.855 211.71 516.712 212.205 515.938 213.221L517.539 214.441C517.715 214.148 517.956 213.94 518.262 213.816C518.555 213.712 518.955 213.66 519.463 213.66C520.863 213.634 521.556 214.067 521.543 214.959V216.023H518.721C517.64 216.036 516.82 216.329 516.26 216.902C515.7 217.462 515.42 218.169 515.42 219.021C515.42 219.913 515.742 220.646 516.387 221.219C516.999 221.805 517.871 222.104 519.004 222.117C519.694 222.117 520.234 222.033 520.625 221.863C521.022 221.701 521.315 221.447 521.504 221.102H521.543V222ZM521.543 218.436C521.543 219.197 521.383 219.686 521.064 219.9C520.713 220.115 520.111 220.216 519.258 220.203C518.581 220.203 518.096 220.07 517.803 219.803C517.497 219.562 517.344 219.269 517.344 218.924C517.331 218.136 517.917 217.729 519.102 217.703H521.543V218.436Z" fill="#90CEEF"/>
<path d="M526.338 222H528.379V215.965C528.379 215.255 528.574 214.715 528.965 214.344C529.336 213.966 529.814 213.777 530.4 213.777C530.986 213.777 531.468 213.966 531.846 214.344C532.217 214.715 532.402 215.255 532.402 215.965V222H534.443V215.965C534.443 215.255 534.635 214.715 535.02 214.344C535.397 213.966 535.879 213.777 536.465 213.777C537.051 213.777 537.529 213.966 537.9 214.344C538.271 214.715 538.457 215.255 538.457 215.965V222H540.498V215.262C540.472 214.103 540.114 213.224 539.424 212.625C538.727 212.033 537.959 211.736 537.119 211.736C535.785 211.723 534.72 212.166 533.926 213.064C533.574 212.674 533.187 212.352 532.764 212.098C532.334 211.87 531.768 211.749 531.064 211.736C529.971 211.736 529.089 212.137 528.418 212.938H528.379V211.863H526.338V222Z" fill="#90CEEF"/>
<path d="M551.133 217.703V216.023C551.12 214.689 550.706 213.641 549.893 212.879C549.092 212.13 548.112 211.749 546.953 211.736C546.471 211.736 545.983 211.824 545.488 212C544.987 212.176 544.535 212.462 544.131 212.859C543.734 213.25 543.408 213.784 543.154 214.461C542.9 215.125 542.773 215.958 542.773 216.961C542.773 218.003 542.92 218.849 543.213 219.5C543.48 220.177 543.828 220.704 544.258 221.082C544.479 221.264 544.717 221.417 544.971 221.541C545.212 221.684 545.459 221.798 545.713 221.883C546.221 222.039 546.742 222.117 547.275 222.117C548.675 222.13 549.893 221.583 550.928 220.477L549.453 219.217C548.802 219.874 548.063 220.203 547.236 220.203C546.527 220.203 545.954 219.988 545.518 219.559C545.049 219.135 544.814 218.517 544.814 217.703H551.133ZM544.814 216.023C544.854 215.236 545.065 214.64 545.449 214.236C545.84 213.852 546.341 213.66 546.953 213.66C547.565 213.66 548.066 213.852 548.457 214.236C548.854 214.64 549.066 215.236 549.092 216.023H544.814Z" fill="#90CEEF"/>
<g filter="url(#filter4_d)">
<circle cx="644.5" cy="218.5" r="53.5" fill="url(#paint5_linear)"/>
</g>
<path d="M608.16 215.881C608.16 217.508 608.209 218.609 608.307 219.182C608.359 219.488 608.424 219.742 608.502 219.943C608.587 220.139 608.681 220.344 608.785 220.559C609.13 221.216 609.684 221.796 610.445 222.297C611.194 222.818 612.128 223.091 613.248 223.117C614.381 223.091 615.325 222.818 616.08 222.297C616.829 221.796 617.369 221.216 617.701 220.559C617.942 220.214 618.108 219.755 618.199 219.182C618.284 218.609 618.326 217.508 618.326 215.881C618.326 214.227 618.284 213.12 618.199 212.561C618.108 212.001 617.942 211.548 617.701 211.203C617.369 210.546 616.829 209.96 616.08 209.445C615.325 208.924 614.381 208.658 613.248 208.645C612.128 208.658 611.194 208.924 610.445 209.445C609.684 209.96 609.13 210.546 608.785 211.203C608.57 211.548 608.411 212.001 608.307 212.561C608.209 213.12 608.16 214.227 608.16 215.881ZM610.328 215.881C610.328 214.481 610.38 213.527 610.484 213.02C610.576 212.538 610.761 212.144 611.041 211.838C611.269 211.545 611.568 211.301 611.939 211.105C612.304 210.917 612.74 210.816 613.248 210.803C613.762 210.816 614.208 210.917 614.586 211.105C614.944 211.301 615.23 211.545 615.445 211.838C615.725 212.144 615.917 212.538 616.021 213.02C616.119 213.527 616.168 214.481 616.168 215.881C616.168 217.281 616.119 218.228 616.021 218.723C615.917 219.217 615.725 219.618 615.445 219.924C615.23 220.217 614.944 220.454 614.586 220.637C614.208 220.852 613.762 220.959 613.248 220.959C612.74 220.959 612.304 220.852 611.939 220.637C611.568 220.454 611.269 220.217 611.041 219.924C610.761 219.618 610.576 219.217 610.484 218.723C610.38 218.228 610.328 217.281 610.328 215.881Z" fill="#F880A1"/>
<path d="M620.67 227.102H622.711V221.916C623.082 222.281 623.489 222.567 623.932 222.775C624.342 223.003 624.807 223.117 625.328 223.117C625.96 223.104 626.5 222.977 626.949 222.736C627.405 222.502 627.773 222.189 628.053 221.799C628.333 221.467 628.525 221.04 628.629 220.52C628.727 219.999 628.775 219.139 628.775 217.941C628.775 216.711 628.727 215.839 628.629 215.324C628.525 214.803 628.333 214.383 628.053 214.064C627.48 213.212 626.572 212.769 625.328 212.736C624.26 212.769 623.388 213.163 622.711 213.918V212.863H620.67V227.102ZM624.713 221.076C624.257 221.076 623.896 220.979 623.629 220.783C623.349 220.594 623.144 220.347 623.014 220.041C622.89 219.735 622.809 219.393 622.77 219.016C622.73 218.658 622.711 218.299 622.711 217.941C622.711 217.557 622.73 217.176 622.77 216.799C622.809 216.441 622.89 216.109 623.014 215.803C623.144 215.497 623.349 215.249 623.629 215.061C623.896 214.872 624.257 214.777 624.713 214.777C625.195 214.777 625.576 214.859 625.855 215.021C626.135 215.197 626.334 215.438 626.451 215.744C626.581 216.037 626.669 216.376 626.715 216.76C626.728 217.144 626.734 217.538 626.734 217.941C626.734 218.326 626.728 218.7 626.715 219.064C626.669 219.436 626.581 219.774 626.451 220.08C626.334 220.373 626.135 220.614 625.855 220.803C625.576 220.985 625.195 221.076 624.713 221.076Z" fill="#F880A1"/>
<path d="M631.178 212.863H630.162V214.416H631.178V220.5C631.178 221.301 631.412 221.913 631.881 222.336C632.337 222.779 632.923 223 633.639 223H634.703V221.076H633.941C633.447 221.089 633.206 220.839 633.219 220.324V214.416H634.703V212.863H633.219V209.777H631.178V212.863Z" fill="#F880A1"/>
<path d="M636.686 223H638.727V212.863H636.686V223ZM636.686 210.803H638.727V208.762H636.686V210.803Z" fill="#F880A1"/>
<path d="M641.549 223H643.59V216.965C643.59 216.255 643.785 215.715 644.176 215.344C644.547 214.966 645.025 214.777 645.611 214.777C646.197 214.777 646.679 214.966 647.057 215.344C647.428 215.715 647.613 216.255 647.613 216.965V223H649.654V216.965C649.654 216.255 649.846 215.715 650.23 215.344C650.608 214.966 651.09 214.777 651.676 214.777C652.262 214.777 652.74 214.966 653.111 215.344C653.482 215.715 653.668 216.255 653.668 216.965V223H655.709V216.262C655.683 215.103 655.325 214.224 654.635 213.625C653.938 213.033 653.17 212.736 652.33 212.736C650.995 212.723 649.931 213.166 649.137 214.064C648.785 213.674 648.398 213.352 647.975 213.098C647.545 212.87 646.979 212.749 646.275 212.736C645.182 212.736 644.299 213.137 643.629 213.938H643.59V212.863H641.549V223Z" fill="#F880A1"/>
<path d="M658.541 223H660.582V212.863H658.541V223ZM658.541 210.803H660.582V208.762H658.541V210.803Z" fill="#F880A1"/>
<path d="M662.633 223H670.191V221.076H665.113L670.191 214.484V212.863H662.906V214.66H667.711L662.633 221.379V223Z" fill="#F880A1"/>
<path d="M680.035 218.703V217.023C680.022 215.689 679.609 214.641 678.795 213.879C677.994 213.13 677.014 212.749 675.855 212.736C675.374 212.736 674.885 212.824 674.391 213C673.889 213.176 673.437 213.462 673.033 213.859C672.636 214.25 672.311 214.784 672.057 215.461C671.803 216.125 671.676 216.958 671.676 217.961C671.676 219.003 671.822 219.849 672.115 220.5C672.382 221.177 672.73 221.704 673.16 222.082C673.382 222.264 673.619 222.417 673.873 222.541C674.114 222.684 674.361 222.798 674.615 222.883C675.123 223.039 675.644 223.117 676.178 223.117C677.577 223.13 678.795 222.583 679.83 221.477L678.355 220.217C677.704 220.874 676.965 221.203 676.139 221.203C675.429 221.203 674.856 220.988 674.42 220.559C673.951 220.135 673.717 219.517 673.717 218.703H680.035ZM673.717 217.023C673.756 216.236 673.967 215.64 674.352 215.236C674.742 214.852 675.243 214.66 675.855 214.66C676.467 214.66 676.969 214.852 677.359 215.236C677.757 215.64 677.968 216.236 677.994 217.023H673.717Z" fill="#F880A1"/>
<g filter="url(#filter5_d)">
<circle cx="766.5" cy="217.5" r="53.5" fill="url(#paint6_linear)"/>
</g>
<path d="M748.932 211H751.09V200.883H751.129L757.564 211H759.605V196.762H757.447V206.879H757.408L750.963 196.762H748.932V211Z" fill="#F880A1"/>
<path d="M770.299 206.703V205.023C770.286 203.689 769.872 202.641 769.059 201.879C768.258 201.13 767.278 200.749 766.119 200.736C765.637 200.736 765.149 200.824 764.654 201C764.153 201.176 763.701 201.462 763.297 201.859C762.9 202.25 762.574 202.784 762.32 203.461C762.066 204.125 761.939 204.958 761.939 205.961C761.939 207.003 762.086 207.849 762.379 208.5C762.646 209.177 762.994 209.704 763.424 210.082C763.645 210.264 763.883 210.417 764.137 210.541C764.378 210.684 764.625 210.798 764.879 210.883C765.387 211.039 765.908 211.117 766.441 211.117C767.841 211.13 769.059 210.583 770.094 209.477L768.619 208.217C767.968 208.874 767.229 209.203 766.402 209.203C765.693 209.203 765.12 208.988 764.684 208.559C764.215 208.135 763.98 207.517 763.98 206.703H770.299ZM763.98 205.023C764.02 204.236 764.231 203.64 764.615 203.236C765.006 202.852 765.507 202.66 766.119 202.66C766.731 202.66 767.232 202.852 767.623 203.236C768.02 203.64 768.232 204.236 768.258 205.023H763.98Z" fill="#F880A1"/>
<path d="M780.475 211H782.281L785.514 200.863H783.355L781.422 207.963H781.383L779.078 200.863H777.604L775.299 207.963H775.26L773.316 200.863H771.158L774.4 211H776.197L778.316 203.9H778.355L780.475 211Z" fill="#F880A1"/>
<path d="M735.953 239H738.111V232.916H744.029V231.002H738.111V226.803H745.045V224.762H735.953V239Z" fill="#F880A1"/>
<path d="M754 234.703V233.023C753.987 231.689 753.574 230.641 752.76 229.879C751.959 229.13 750.979 228.749 749.82 228.736C749.339 228.736 748.85 228.824 748.355 229C747.854 229.176 747.402 229.462 746.998 229.859C746.601 230.25 746.275 230.784 746.021 231.461C745.768 232.125 745.641 232.958 745.641 233.961C745.641 235.003 745.787 235.849 746.08 236.5C746.347 237.177 746.695 237.704 747.125 238.082C747.346 238.264 747.584 238.417 747.838 238.541C748.079 238.684 748.326 238.798 748.58 238.883C749.088 239.039 749.609 239.117 750.143 239.117C751.542 239.13 752.76 238.583 753.795 237.477L752.32 236.217C751.669 236.874 750.93 237.203 750.104 237.203C749.394 237.203 748.821 236.988 748.385 236.559C747.916 236.135 747.682 235.517 747.682 234.703H754ZM747.682 233.023C747.721 232.236 747.932 231.64 748.316 231.236C748.707 230.852 749.208 230.66 749.82 230.66C750.432 230.66 750.934 230.852 751.324 231.236C751.721 231.64 751.933 232.236 751.959 233.023H747.682Z" fill="#F880A1"/>
<path d="M761.461 239H763.502V232.076C763.489 230.839 763.102 229.967 762.34 229.459C761.578 228.964 760.559 228.723 759.283 228.736C757.773 228.71 756.63 229.205 755.855 230.221L757.457 231.441C757.633 231.148 757.874 230.94 758.18 230.816C758.473 230.712 758.873 230.66 759.381 230.66C760.781 230.634 761.474 231.067 761.461 231.959V233.023H758.639C757.558 233.036 756.738 233.329 756.178 233.902C755.618 234.462 755.338 235.169 755.338 236.021C755.338 236.913 755.66 237.646 756.305 238.219C756.917 238.805 757.789 239.104 758.922 239.117C759.612 239.117 760.152 239.033 760.543 238.863C760.94 238.701 761.233 238.447 761.422 238.102H761.461V239ZM761.461 235.436C761.461 236.197 761.301 236.686 760.982 236.9C760.631 237.115 760.029 237.216 759.176 237.203C758.499 237.203 758.014 237.07 757.721 236.803C757.415 236.562 757.262 236.269 757.262 235.924C757.249 235.136 757.835 234.729 759.02 234.703H761.461V235.436Z" fill="#F880A1"/>
<path d="M766.256 228.863H765.24V230.416H766.256V236.5C766.256 237.301 766.49 237.913 766.959 238.336C767.415 238.779 768.001 239 768.717 239H769.781V237.076H769.02C768.525 237.089 768.284 236.839 768.297 236.324V230.416H769.781V228.863H768.297V225.777H766.256V228.863Z" fill="#F880A1"/>
<path d="M771.705 235.602C771.718 236.747 772.092 237.613 772.828 238.199C773.505 238.798 774.264 239.104 775.104 239.117C776.184 239.117 777.06 238.717 777.73 237.916H777.77V239H779.811V228.863H777.77V234.898C777.77 235.582 777.581 236.116 777.203 236.5C776.832 236.884 776.354 237.076 775.768 237.076C775.182 237.076 774.7 236.884 774.322 236.5C773.938 236.116 773.746 235.582 773.746 234.898V228.863H771.705V235.602Z" fill="#F880A1"/>
<path d="M782.447 239H784.488V232.896C784.501 232.154 784.716 231.617 785.133 231.285C785.504 230.947 785.95 230.777 786.471 230.777C786.933 230.777 787.379 230.947 787.809 231.285L789.293 229.518C788.688 229.01 787.978 228.749 787.164 228.736C786.077 228.736 785.198 229.137 784.527 229.938H784.488V228.863H782.447V239Z" fill="#F880A1"/>
<path d="M797.73 234.703V233.023C797.717 231.689 797.304 230.641 796.49 229.879C795.689 229.13 794.71 228.749 793.551 228.736C793.069 228.736 792.581 228.824 792.086 229C791.585 229.176 791.132 229.462 790.729 229.859C790.331 230.25 790.006 230.784 789.752 231.461C789.498 232.125 789.371 232.958 789.371 233.961C789.371 235.003 789.518 235.849 789.811 236.5C790.077 237.177 790.426 237.704 790.855 238.082C791.077 238.264 791.314 238.417 791.568 238.541C791.809 238.684 792.057 238.798 792.311 238.883C792.818 239.039 793.339 239.117 793.873 239.117C795.273 239.13 796.49 238.583 797.525 237.477L796.051 236.217C795.4 236.874 794.661 237.203 793.834 237.203C793.124 237.203 792.551 236.988 792.115 236.559C791.646 236.135 791.412 235.517 791.412 234.703H797.73ZM791.412 233.023C791.451 232.236 791.663 231.64 792.047 231.236C792.438 230.852 792.939 230.66 793.551 230.66C794.163 230.66 794.664 230.852 795.055 231.236C795.452 231.64 795.663 232.236 795.689 233.023H791.412Z" fill="#F880A1"/>
<g filter="url(#filter6_d)">
<circle cx="888.5" cy="217.5" r="53.5" fill="url(#paint7_linear)"/>
</g>
<path d="M860.932 211H865.766C866.833 211 867.735 210.766 868.471 210.297C869.213 209.861 869.792 209.307 870.209 208.637C870.365 208.383 870.499 208.139 870.609 207.904C870.714 207.663 870.792 207.39 870.844 207.084C870.954 206.479 871.01 205.411 871.01 203.881C871.01 202.442 870.974 201.43 870.902 200.844C870.811 200.258 870.593 199.698 870.248 199.164C869.285 197.576 867.839 196.775 865.912 196.762H860.932V211ZM863.09 198.803H865.668C866.762 198.777 867.608 199.177 868.207 200.004C868.5 200.336 868.686 200.769 868.764 201.303C868.822 201.837 868.852 202.722 868.852 203.959C868.852 205.229 868.822 206.094 868.764 206.557C868.699 207.025 868.546 207.413 868.305 207.719C867.758 208.546 866.879 208.959 865.668 208.959H863.09V198.803Z" fill="#F880A1"/>
<path d="M881.205 206.703V205.023C881.192 203.689 880.779 202.641 879.965 201.879C879.164 201.13 878.184 200.749 877.025 200.736C876.544 200.736 876.055 200.824 875.561 201C875.059 201.176 874.607 201.462 874.203 201.859C873.806 202.25 873.48 202.784 873.227 203.461C872.973 204.125 872.846 204.958 872.846 205.961C872.846 207.003 872.992 207.849 873.285 208.5C873.552 209.177 873.9 209.704 874.33 210.082C874.551 210.264 874.789 210.417 875.043 210.541C875.284 210.684 875.531 210.798 875.785 210.883C876.293 211.039 876.814 211.117 877.348 211.117C878.747 211.13 879.965 210.583 881 209.477L879.525 208.217C878.874 208.874 878.135 209.203 877.309 209.203C876.599 209.203 876.026 208.988 875.59 208.559C875.121 208.135 874.887 207.517 874.887 206.703H881.205ZM874.887 205.023C874.926 204.236 875.137 203.64 875.521 203.236C875.912 202.852 876.413 202.66 877.025 202.66C877.637 202.66 878.139 202.852 878.529 203.236C878.926 203.64 879.138 204.236 879.164 205.023H874.887Z" fill="#F880A1"/>
<path d="M883.646 207.904L882.221 209.301C883.542 210.512 885.03 211.117 886.684 211.117C887.901 211.104 888.9 210.824 889.682 210.277C890.469 209.743 890.87 208.985 890.883 208.002C890.883 207.162 890.665 206.469 890.229 205.922C889.76 205.362 888.998 205.043 887.943 204.965L886.264 204.838C885.769 204.786 885.424 204.665 885.229 204.477C885.014 204.307 884.913 204.109 884.926 203.881C884.926 203.523 885.059 203.23 885.326 203.002C885.58 202.774 886.026 202.66 886.664 202.66C887.224 202.66 887.719 202.742 888.148 202.904C888.585 203.087 888.998 203.318 889.389 203.598L890.648 202.123C890.154 201.693 889.594 201.352 888.969 201.098C888.643 200.98 888.295 200.889 887.924 200.824C887.553 200.766 887.133 200.736 886.664 200.736C885.583 200.736 884.691 200.997 883.988 201.518C883.266 202.038 882.898 202.82 882.885 203.861C882.898 204.727 883.178 205.401 883.725 205.883C884.258 206.378 884.952 206.664 885.805 206.742L887.602 206.898C887.979 206.911 888.282 206.993 888.51 207.143C888.731 207.286 888.842 207.54 888.842 207.904C888.842 208.314 888.656 208.633 888.285 208.861C887.914 209.089 887.436 209.203 886.85 209.203C885.541 209.203 884.473 208.77 883.646 207.904Z" fill="#F880A1"/>
<path d="M893.012 211H895.053V200.863H893.012V211ZM893.012 198.803H895.053V196.762H893.012V198.803Z" fill="#F880A1"/>
<path d="M903.461 209.936V210.98C903.448 211.671 903.233 212.211 902.816 212.602C902.393 212.986 901.833 213.178 901.137 213.178C900.766 213.165 900.408 213.064 900.062 212.875C899.724 212.706 899.424 212.501 899.164 212.26L897.582 213.52C898.552 214.626 899.724 215.193 901.098 215.219C902.296 215.219 903.324 214.851 904.184 214.115C905.036 213.399 905.476 212.279 905.502 210.756V200.863H903.461V201.938C902.725 201.137 901.853 200.736 900.844 200.736C900.186 200.749 899.639 200.876 899.203 201.117C898.747 201.371 898.399 201.658 898.158 201.977C897.891 202.302 897.699 202.702 897.582 203.178C897.458 203.66 897.396 204.581 897.396 205.941C897.396 207.276 897.458 208.181 897.582 208.656C897.699 209.138 897.891 209.545 898.158 209.877C898.399 210.17 898.747 210.443 899.203 210.697C899.639 210.964 900.186 211.104 900.844 211.117C901.918 211.091 902.79 210.697 903.461 209.936ZM899.438 205.941C899.438 205.154 899.464 204.607 899.516 204.301C899.561 203.995 899.669 203.747 899.838 203.559C899.975 203.376 900.183 203.197 900.463 203.021C900.73 202.872 901.062 202.79 901.459 202.777C901.856 202.79 902.188 202.872 902.455 203.021C902.722 203.197 902.924 203.376 903.061 203.559C903.23 203.747 903.344 203.995 903.402 204.301C903.441 204.607 903.461 205.154 903.461 205.941C903.461 206.716 903.441 207.25 903.402 207.543C903.344 207.849 903.23 208.103 903.061 208.305C902.924 208.487 902.722 208.653 902.455 208.803C902.188 208.985 901.856 209.076 901.459 209.076C901.062 209.076 900.73 208.985 900.463 208.803C900.183 208.653 899.975 208.487 899.838 208.305C899.669 208.103 899.561 207.849 899.516 207.543C899.464 207.25 899.438 206.716 899.438 205.941Z" fill="#F880A1"/>
<path d="M908.148 211H910.189V204.965C910.189 204.255 910.382 203.715 910.766 203.344C911.143 202.966 911.625 202.777 912.211 202.777C912.797 202.777 913.275 202.966 913.646 203.344C914.024 203.715 914.213 204.255 914.213 204.965V211H916.254V204.262C916.221 203.103 915.86 202.224 915.17 201.625C914.473 201.033 913.705 200.736 912.865 200.736C911.778 200.736 910.899 201.137 910.229 201.938H910.189V200.863H908.148V211Z" fill="#F880A1"/>
<path d="M858.881 235.543L857.465 237.164C858.982 238.466 860.795 239.117 862.904 239.117C866.166 239.078 867.833 237.698 867.904 234.977C867.904 233.967 867.589 233.082 866.957 232.32C866.319 231.546 865.333 231.067 863.998 230.885C863.321 230.8 862.787 230.725 862.396 230.66C861.693 230.53 861.182 230.296 860.863 229.957C860.544 229.625 860.385 229.254 860.385 228.844C860.398 228.16 860.635 227.646 861.098 227.301C861.54 226.969 862.094 226.803 862.758 226.803C864.04 226.829 865.215 227.193 866.283 227.896L867.484 226.119C866.176 225.175 864.636 224.684 862.865 224.645C861.394 224.658 860.258 225.042 859.457 225.797C858.63 226.559 858.217 227.561 858.217 228.805C858.217 229.84 858.546 230.719 859.203 231.441C859.841 232.145 860.772 232.597 861.996 232.799C862.68 232.896 863.308 232.984 863.881 233.062C865.131 233.277 865.749 233.915 865.736 234.977C865.71 236.272 864.773 236.933 862.924 236.959C861.361 236.946 860.014 236.474 858.881 235.543Z" fill="#F880A1"/>
<path d="M872.182 238.6L871.625 240.299C871.534 240.592 871.374 240.813 871.146 240.963C870.919 241.106 870.671 241.178 870.404 241.178H869.809V243.102H870.482C871.114 243.102 871.68 242.962 872.182 242.682C872.676 242.389 873.064 241.861 873.344 241.1L877.709 228.863H875.541L873.148 235.963H873.109L870.707 228.863H868.549L872.182 238.6Z" fill="#F880A1"/>
<path d="M879.193 235.904L877.768 237.301C879.089 238.512 880.577 239.117 882.23 239.117C883.448 239.104 884.447 238.824 885.229 238.277C886.016 237.743 886.417 236.985 886.43 236.002C886.43 235.162 886.212 234.469 885.775 233.922C885.307 233.362 884.545 233.043 883.49 232.965L881.811 232.838C881.316 232.786 880.971 232.665 880.775 232.477C880.561 232.307 880.46 232.109 880.473 231.881C880.473 231.523 880.606 231.23 880.873 231.002C881.127 230.774 881.573 230.66 882.211 230.66C882.771 230.66 883.266 230.742 883.695 230.904C884.132 231.087 884.545 231.318 884.936 231.598L886.195 230.123C885.701 229.693 885.141 229.352 884.516 229.098C884.19 228.98 883.842 228.889 883.471 228.824C883.1 228.766 882.68 228.736 882.211 228.736C881.13 228.736 880.238 228.997 879.535 229.518C878.812 230.038 878.445 230.82 878.432 231.861C878.445 232.727 878.725 233.401 879.271 233.883C879.805 234.378 880.499 234.664 881.352 234.742L883.148 234.898C883.526 234.911 883.829 234.993 884.057 235.143C884.278 235.286 884.389 235.54 884.389 235.904C884.389 236.314 884.203 236.633 883.832 236.861C883.461 237.089 882.982 237.203 882.396 237.203C881.088 237.203 880.02 236.77 879.193 235.904Z" fill="#F880A1"/>
<path d="M888.617 228.863H887.602V230.416H888.617V236.5C888.617 237.301 888.852 237.913 889.32 238.336C889.776 238.779 890.362 239 891.078 239H892.143V237.076H891.381C890.886 237.089 890.645 236.839 890.658 236.324V230.416H892.143V228.863H890.658V225.777H888.617V228.863Z" fill="#F880A1"/>
<path d="M901.928 234.703V233.023C901.915 231.689 901.501 230.641 900.688 229.879C899.887 229.13 898.907 228.749 897.748 228.736C897.266 228.736 896.778 228.824 896.283 229C895.782 229.176 895.329 229.462 894.926 229.859C894.529 230.25 894.203 230.784 893.949 231.461C893.695 232.125 893.568 232.958 893.568 233.961C893.568 235.003 893.715 235.849 894.008 236.5C894.275 237.177 894.623 237.704 895.053 238.082C895.274 238.264 895.512 238.417 895.766 238.541C896.007 238.684 896.254 238.798 896.508 238.883C897.016 239.039 897.536 239.117 898.07 239.117C899.47 239.13 900.688 238.583 901.723 237.477L900.248 236.217C899.597 236.874 898.858 237.203 898.031 237.203C897.322 237.203 896.749 236.988 896.312 236.559C895.844 236.135 895.609 235.517 895.609 234.703H901.928ZM895.609 233.023C895.648 232.236 895.86 231.64 896.244 231.236C896.635 230.852 897.136 230.66 897.748 230.66C898.36 230.66 898.861 230.852 899.252 231.236C899.649 231.64 899.861 232.236 899.887 233.023H895.609Z" fill="#F880A1"/>
<path d="M904.184 239H906.225V232.965C906.225 232.255 906.42 231.715 906.811 231.344C907.182 230.966 907.66 230.777 908.246 230.777C908.832 230.777 909.314 230.966 909.691 231.344C910.062 231.715 910.248 232.255 910.248 232.965V239H912.289V232.965C912.289 232.255 912.481 231.715 912.865 231.344C913.243 230.966 913.725 230.777 914.311 230.777C914.896 230.777 915.375 230.966 915.746 231.344C916.117 231.715 916.303 232.255 916.303 232.965V239H918.344V232.262C918.318 231.103 917.96 230.224 917.27 229.625C916.573 229.033 915.805 228.736 914.965 228.736C913.63 228.723 912.566 229.166 911.771 230.064C911.42 229.674 911.033 229.352 910.609 229.098C910.18 228.87 909.613 228.749 908.91 228.736C907.816 228.736 906.934 229.137 906.264 229.938H906.225V228.863H904.184V239Z" fill="#F880A1"/>
<defs>
<filter id="filter0_d" x="50" y="164" width="141" height="146" filterUnits="userSpaceOnUse" color-interpolation-filters="sRGB">
<feFlood flood-opacity="0" result="BackgroundImageFix"/>
<feColorMatrix in="SourceAlpha" type="matrix" values="0 0 0 0 0 0 0 0 0 0 0 0 0 0 0 0 0 0 127 0"/>
<feMorphology radius="8" operator="erode" in="SourceAlpha" result="effect1_dropShadow"/>
<feOffset dy="22"/>
<feGaussianBlur stdDeviation="12.5"/>
<feColorMatrix type="matrix" values="0 0 0 0 0.7875 0 0 0 0 0.7875 0 0 0 0 0.7875 0 0 0 0.25 0"/>
<feBlend mode="normal" in2="BackgroundImageFix" result="effect1_dropShadow"/>
<feBlend mode="normal" in="SourceGraphic" in2="effect1_dropShadow" result="shape"/>
</filter>
<filter id="filter1_d" x="172" y="164" width="141" height="146" filterUnits="userSpaceOnUse" color-interpolation-filters="sRGB">
<feFlood flood-opacity="0" result="BackgroundImageFix"/>
<feColorMatrix in="SourceAlpha" type="matrix" values="0 0 0 0 0 0 0 0 0 0 0 0 0 0 0 0 0 0 127 0"/>
<feMorphology radius="8" operator="erode" in="SourceAlpha" result="effect1_dropShadow"/>
<feOffset dy="22"/>
<feGaussianBlur stdDeviation="12.5"/>
<feColorMatrix type="matrix" values="0 0 0 0 0.7875 0 0 0 0 0.7875 0 0 0 0 0.7875 0 0 0 0.25 0"/>
<feBlend mode="normal" in2="BackgroundImageFix" result="effect1_dropShadow"/>
<feBlend mode="normal" in="SourceGraphic" in2="effect1_dropShadow" result="shape"/>
</filter>
<filter id="filter2_d" x="315" y="164" width="141" height="146" filterUnits="userSpaceOnUse" color-interpolation-filters="sRGB">
<feFlood flood-opacity="0" result="BackgroundImageFix"/>
<feColorMatrix in="SourceAlpha" type="matrix" values="0 0 0 0 0 0 0 0 0 0 0 0 0 0 0 0 0 0 127 0"/>
<feMorphology radius="8" operator="erode" in="SourceAlpha" result="effect1_dropShadow"/>
<feOffset dy="22"/>
<feGaussianBlur stdDeviation="12.5"/>
<feColorMatrix type="matrix" values="0 0 0 0 0.7875 0 0 0 0 0.7875 0 0 0 0 0.7875 0 0 0 0.25 0"/>
<feBlend mode="normal" in2="BackgroundImageFix" result="effect1_dropShadow"/>
<feBlend mode="normal" in="SourceGraphic" in2="effect1_dropShadow" result="shape"/>
</filter>
<filter id="filter3_d" x="437" y="164" width="141" height="146" filterUnits="userSpaceOnUse" color-interpolation-filters="sRGB">
<feFlood flood-opacity="0" result="BackgroundImageFix"/>
<feColorMatrix in="SourceAlpha" type="matrix" values="0 0 0 0 0 0 0 0 0 0 0 0 0 0 0 0 0 0 127 0"/>
<feMorphology radius="8" operator="erode" in="SourceAlpha" result="effect1_dropShadow"/>
<feOffset dy="22"/>
<feGaussianBlur stdDeviation="12.5"/>
<feColorMatrix type="matrix" values="0 0 0 0 0.7875 0 0 0 0 0.7875 0 0 0 0 0.7875 0 0 0 0.25 0"/>
<feBlend mode="normal" in2="BackgroundImageFix" result="effect1_dropShadow"/>
<feBlend mode="normal" in="SourceGraphic" in2="effect1_dropShadow" result="shape"/>
</filter>
<filter id="filter4_d" x="574" y="165" width="141" height="146" filterUnits="userSpaceOnUse" color-interpolation-filters="sRGB">
<feFlood flood-opacity="0" result="BackgroundImageFix"/>
<feColorMatrix in="SourceAlpha" type="matrix" values="0 0 0 0 0 0 0 0 0 0 0 0 0 0 0 0 0 0 127 0"/>
<feMorphology radius="8" operator="erode" in="SourceAlpha" result="effect1_dropShadow"/>
<feOffset dy="22"/>
<feGaussianBlur stdDeviation="12.5"/>
<feColorMatrix type="matrix" values="0 0 0 0 0.7875 0 0 0 0 0.7875 0 0 0 0 0.7875 0 0 0 0.25 0"/>
<feBlend mode="normal" in2="BackgroundImageFix" result="effect1_dropShadow"/>
<feBlend mode="normal" in="SourceGraphic" in2="effect1_dropShadow" result="shape"/>
</filter>
<filter id="filter5_d" x="696" y="164" width="141" height="146" filterUnits="userSpaceOnUse" color-interpolation-filters="sRGB">
<feFlood flood-opacity="0" result="BackgroundImageFix"/>
<feColorMatrix in="SourceAlpha" type="matrix" values="0 0 0 0 0 0 0 0 0 0 0 0 0 0 0 0 0 0 127 0"/>
<feMorphology radius="8" operator="erode" in="SourceAlpha" result="effect1_dropShadow"/>
<feOffset dy="22"/>
<feGaussianBlur stdDeviation="12.5"/>
<feColorMatrix type="matrix" values="0 0 0 0 0.7875 0 0 0 0 0.7875 0 0 0 0 0.7875 0 0 0 0.25 0"/>
<feBlend mode="normal" in2="BackgroundImageFix" result="effect1_dropShadow"/>
<feBlend mode="normal" in="SourceGraphic" in2="effect1_dropShadow" result="shape"/>
</filter>
<filter id="filter6_d" x="818" y="164" width="141" height="146" filterUnits="userSpaceOnUse" color-interpolation-filters="sRGB">
<feFlood flood-opacity="0" result="BackgroundImageFix"/>
<feColorMatrix in="SourceAlpha" type="matrix" values="0 0 0 0 0 0 0 0 0 0 0 0 0 0 0 0 0 0 127 0"/>
<feMorphology radius="8" operator="erode" in="SourceAlpha" result="effect1_dropShadow"/>
<feOffset dy="22"/>
<feGaussianBlur stdDeviation="12.5"/>
<feColorMatrix type="matrix" values="0 0 0 0 0.7875 0 0 0 0 0.7875 0 0 0 0 0.7875 0 0 0 0.25 0"/>
<feBlend mode="normal" in2="BackgroundImageFix" result="effect1_dropShadow"/>
<feBlend mode="normal" in="SourceGraphic" in2="effect1_dropShadow" result="shape"/>
</filter>
<linearGradient id="paint0_linear" x1="43" y1="218" x2="959" y2="218" gradientUnits="userSpaceOnUse">
<stop stop-color="#EDEDED" stop-opacity="0.5"/>
<stop offset="1" stop-color="#FFD6E4"/>
</linearGradient>
<linearGradient id="paint1_linear" x1="94.6853" y1="180.462" x2="149.308" y2="259.028" gradientUnits="userSpaceOnUse">
<stop stop-color="white"/>
<stop offset="1" stop-color="white"/>
</linearGradient>
<linearGradient id="paint2_linear" x1="216.685" y1="180.462" x2="271.308" y2="259.028" gradientUnits="userSpaceOnUse">
<stop stop-color="white"/>
<stop offset="1" stop-color="white"/>
</linearGradient>
<linearGradient id="paint3_linear" x1="359.685" y1="180.462" x2="414.308" y2="259.028" gradientUnits="userSpaceOnUse">
<stop stop-color="white"/>
<stop offset="1" stop-color="white"/>
</linearGradient>
<linearGradient id="paint4_linear" x1="481.685" y1="180.462" x2="536.308" y2="259.028" gradientUnits="userSpaceOnUse">
<stop stop-color="white"/>
<stop offset="1" stop-color="white"/>
</linearGradient>
<linearGradient id="paint5_linear" x1="618.685" y1="181.462" x2="673.308" y2="260.028" gradientUnits="userSpaceOnUse">
<stop stop-color="white"/>
<stop offset="1" stop-color="white"/>
</linearGradient>
<linearGradient id="paint6_linear" x1="740.685" y1="180.462" x2="795.308" y2="259.028" gradientUnits="userSpaceOnUse">
<stop stop-color="white"/>
<stop offset="1" stop-color="white"/>
</linearGradient>
<linearGradient id="paint7_linear" x1="862.685" y1="180.462" x2="917.308" y2="259.028" gradientUnits="userSpaceOnUse">
<stop stop-color="white"/>
<stop offset="1" stop-color="white"/>
</linearGradient>
</defs>
</svg>
