<svg width="1010" height="487" viewBox="0 0 1010 487" fill="none" xmlns="http://www.w3.org/2000/svg">
<rect width="1010" height="487" fill="#F0F4F7"/>
<path d="M991.536 205.536C993.488 203.583 993.488 200.417 991.536 198.464L959.716 166.645C957.763 164.692 954.597 164.692 952.645 166.645C950.692 168.597 950.692 171.763 952.645 173.716L980.929 202L952.645 230.284C950.692 232.237 950.692 235.403 952.645 237.355C954.597 239.308 957.763 239.308 959.716 237.355L991.536 205.536ZM21 207H988V197H21V207Z" fill="#FFE4EC"/>
<g filter="url(#filter0_d)">
<circle cx="121.5" cy="202.5" r="71.5" fill="white"/>
</g>
<path d="M103.395 196.363H107.133C107.836 196.348 108.453 196.508 108.984 196.844C109.336 197.047 109.609 197.324 109.805 197.676C109.992 198.066 110.086 198.547 110.086 199.117C110.086 199.805 109.855 200.43 109.395 200.992C108.91 201.57 108.188 201.867 107.227 201.883H103.395V196.363ZM100.805 211H103.395V204.332H107.332C109.09 204.301 110.426 203.738 111.34 202.645C112.23 201.605 112.676 200.453 112.676 199.188C112.676 198.25 112.5 197.438 112.148 196.75C111.812 196.039 111.375 195.492 110.836 195.109C110.195 194.602 109.562 194.266 108.938 194.102C108.312 193.977 107.664 193.914 106.992 193.914H100.805V211ZM114.809 208.047C114.809 209.117 115.113 209.879 115.723 210.332C116.301 210.777 117.035 211 117.926 211H119.016V208.691H118.172C117.562 208.691 117.258 208.414 117.258 207.859V193.914H114.809V208.047ZM127.383 211H129.832V202.691C129.816 201.207 129.352 200.16 128.438 199.551C127.523 198.957 126.301 198.668 124.77 198.684C122.957 198.652 121.586 199.246 120.656 200.465L122.578 201.93C122.789 201.578 123.078 201.328 123.445 201.18C123.797 201.055 124.277 200.992 124.887 200.992C126.566 200.961 127.398 201.48 127.383 202.551V203.828H123.996C122.699 203.844 121.715 204.195 121.043 204.883C120.371 205.555 120.035 206.402 120.035 207.426C120.035 208.496 120.422 209.375 121.195 210.062C121.93 210.766 122.977 211.125 124.336 211.141C125.164 211.141 125.812 211.039 126.281 210.836C126.758 210.641 127.109 210.336 127.336 209.922H127.383V211ZM127.383 206.723C127.383 207.637 127.191 208.223 126.809 208.48C126.387 208.738 125.664 208.859 124.641 208.844C123.828 208.844 123.246 208.684 122.895 208.363C122.527 208.074 122.344 207.723 122.344 207.309C122.328 206.363 123.031 205.875 124.453 205.844H127.383V206.723ZM132.996 211H135.445V203.758C135.445 202.906 135.676 202.258 136.137 201.812C136.59 201.359 137.168 201.133 137.871 201.133C138.574 201.133 139.148 201.359 139.594 201.812C140.047 202.258 140.273 202.906 140.273 203.758V211H142.723V202.914C142.684 201.523 142.25 200.469 141.422 199.75C140.586 199.039 139.664 198.684 138.656 198.684C137.352 198.684 136.297 199.164 135.492 200.125H135.445V198.836H132.996V211Z" fill="#FF5C7A"/>
<g filter="url(#filter1_d)">
<ellipse cx="304.5" cy="202" rx="71.5" ry="72" fill="white"/>
</g>
<path d="M282.84 197H285.43V179.914H282.84V197ZM292.051 190.883L294.523 183.418H294.57L297.043 190.883H292.051ZM299.105 197H301.836L295.625 179.914H293.457L287.246 197H289.988L291.301 193.18H297.781L299.105 197ZM312.582 183.559C312.582 183.098 312.75 182.707 313.086 182.387C313.391 182.082 313.781 181.93 314.258 181.93C314.758 181.93 315.168 182.082 315.488 182.387C315.793 182.707 315.945 183.098 315.945 183.559C315.945 183.988 315.801 184.383 315.512 184.742C315.191 185.094 314.637 185.43 313.848 185.75C313.48 185.398 313.188 185.027 312.969 184.637C312.711 184.27 312.582 183.91 312.582 183.559ZM318.746 195.277L320.328 197H323.211L320.328 193.566C320.812 193.043 321.246 192.453 321.629 191.797C322.012 191.156 322.324 190.516 322.566 189.875L320.375 189.008C320.055 190.031 319.559 190.984 318.887 191.867L315.242 187.473C317.18 186.512 318.133 185.238 318.102 183.652C318.086 182.582 317.734 181.672 317.047 180.922C316.359 180.172 315.43 179.789 314.258 179.773C313.094 179.789 312.168 180.172 311.48 180.922C310.777 181.672 310.426 182.582 310.426 183.652C310.426 184.23 310.566 184.793 310.848 185.34C311.09 185.895 311.418 186.414 311.832 186.898C309.676 188.094 308.59 189.758 308.574 191.891C308.59 193.328 309.094 194.551 310.086 195.559C311.047 196.582 312.344 197.109 313.977 197.141C314.883 197.125 315.73 196.941 316.52 196.59C317.316 196.238 318.059 195.801 318.746 195.277ZM313.203 188.527L317.328 193.473C316.148 194.496 315.004 195 313.895 194.984C313.035 194.984 312.301 194.68 311.691 194.07C311.066 193.492 310.746 192.758 310.73 191.867C310.715 190.617 311.539 189.504 313.203 188.527ZM265.227 220.852L263.527 222.797C265.348 224.359 267.523 225.141 270.055 225.141C273.969 225.094 275.969 223.438 276.055 220.172C276.055 218.961 275.676 217.898 274.918 216.984C274.152 216.055 272.969 215.48 271.367 215.262C270.555 215.16 269.914 215.07 269.445 214.992C268.602 214.836 267.988 214.555 267.605 214.148C267.223 213.75 267.031 213.305 267.031 212.812C267.047 211.992 267.332 211.375 267.887 210.961C268.418 210.562 269.082 210.363 269.879 210.363C271.418 210.395 272.828 210.832 274.109 211.676L275.551 209.543C273.98 208.41 272.133 207.82 270.008 207.773C268.242 207.789 266.879 208.25 265.918 209.156C264.926 210.07 264.43 211.273 264.43 212.766C264.43 214.008 264.824 215.062 265.613 215.93C266.379 216.773 267.496 217.316 268.965 217.559C269.785 217.676 270.539 217.781 271.227 217.875C272.727 218.133 273.469 218.898 273.453 220.172C273.422 221.727 272.297 222.52 270.078 222.551C268.203 222.535 266.586 221.969 265.227 220.852ZM278.797 225H281.387V207.914H278.797V225ZM284.902 212.836H283.684V214.699H284.902V222C284.902 222.961 285.184 223.695 285.746 224.203C286.293 224.734 286.996 225 287.855 225H289.133V222.691H288.219C287.625 222.707 287.336 222.406 287.352 221.789V214.699H289.133V212.836H287.352V209.133H284.902V212.836ZM300.875 219.844V217.828C300.859 216.227 300.363 214.969 299.387 214.055C298.426 213.156 297.25 212.699 295.859 212.684C295.281 212.684 294.695 212.789 294.102 213C293.5 213.211 292.957 213.555 292.473 214.031C291.996 214.5 291.605 215.141 291.301 215.953C290.996 216.75 290.844 217.75 290.844 218.953C290.844 220.203 291.02 221.219 291.371 222C291.691 222.812 292.109 223.445 292.625 223.898C292.891 224.117 293.176 224.301 293.48 224.449C293.77 224.621 294.066 224.758 294.371 224.859C294.98 225.047 295.605 225.141 296.246 225.141C297.926 225.156 299.387 224.5 300.629 223.172L298.859 221.66C298.078 222.449 297.191 222.844 296.199 222.844C295.348 222.844 294.66 222.586 294.137 222.07C293.574 221.562 293.293 220.82 293.293 219.844H300.875ZM293.293 217.828C293.34 216.883 293.594 216.168 294.055 215.684C294.523 215.223 295.125 214.992 295.859 214.992C296.594 214.992 297.195 215.223 297.664 215.684C298.141 216.168 298.395 216.883 298.426 217.828H293.293ZM303.582 225H306.031V217.758C306.031 216.906 306.266 216.258 306.734 215.812C307.18 215.359 307.754 215.133 308.457 215.133C309.16 215.133 309.738 215.359 310.191 215.812C310.637 216.258 310.859 216.906 310.859 217.758V225H313.309V217.758C313.309 216.906 313.539 216.258 314 215.812C314.453 215.359 315.031 215.133 315.734 215.133C316.438 215.133 317.012 215.359 317.457 215.812C317.902 216.258 318.125 216.906 318.125 217.758V225H320.574V216.914C320.543 215.523 320.113 214.469 319.285 213.75C318.449 213.039 317.527 212.684 316.52 212.684C314.918 212.668 313.641 213.199 312.688 214.277C312.266 213.809 311.801 213.422 311.293 213.117C310.777 212.844 310.098 212.699 309.254 212.684C307.941 212.684 306.883 213.164 306.078 214.125H306.031V212.836H303.582V225ZM330.289 225H332.738V216.691C332.723 215.207 332.258 214.16 331.344 213.551C330.43 212.957 329.207 212.668 327.676 212.684C325.863 212.652 324.492 213.246 323.562 214.465L325.484 215.93C325.695 215.578 325.984 215.328 326.352 215.18C326.703 215.055 327.184 214.992 327.793 214.992C329.473 214.961 330.305 215.48 330.289 216.551V217.828H326.902C325.605 217.844 324.621 218.195 323.949 218.883C323.277 219.555 322.941 220.402 322.941 221.426C322.941 222.496 323.328 223.375 324.102 224.062C324.836 224.766 325.883 225.125 327.242 225.141C328.07 225.141 328.719 225.039 329.188 224.836C329.664 224.641 330.016 224.336 330.242 223.922H330.289V225ZM330.289 220.723C330.289 221.637 330.098 222.223 329.715 222.48C329.293 222.738 328.57 222.859 327.547 222.844C326.734 222.844 326.152 222.684 325.801 222.363C325.434 222.074 325.25 221.723 325.25 221.309C325.234 220.363 325.938 219.875 327.359 219.844H330.289V220.723ZM335.902 229.922H338.352V223.699C338.797 224.137 339.285 224.48 339.816 224.73C340.309 225.004 340.867 225.141 341.492 225.141C342.25 225.125 342.898 224.973 343.438 224.684C343.984 224.402 344.426 224.027 344.762 223.559C345.098 223.16 345.328 222.648 345.453 222.023C345.57 221.398 345.629 220.367 345.629 218.93C345.629 217.453 345.57 216.406 345.453 215.789C345.328 215.164 345.098 214.66 344.762 214.277C344.074 213.254 342.984 212.723 341.492 212.684C340.211 212.723 339.164 213.195 338.352 214.102V212.836H335.902V229.922ZM340.754 222.691C340.207 222.691 339.773 222.574 339.453 222.34C339.117 222.113 338.871 221.816 338.715 221.449C338.566 221.082 338.469 220.672 338.422 220.219C338.375 219.789 338.352 219.359 338.352 218.93C338.352 218.469 338.375 218.012 338.422 217.559C338.469 217.129 338.566 216.73 338.715 216.363C338.871 215.996 339.117 215.699 339.453 215.473C339.773 215.246 340.207 215.133 340.754 215.133C341.332 215.133 341.789 215.23 342.125 215.426C342.461 215.637 342.699 215.926 342.84 216.293C342.996 216.645 343.102 217.051 343.156 217.512C343.172 217.973 343.18 218.445 343.18 218.93C343.18 219.391 343.172 219.84 343.156 220.277C343.102 220.723 342.996 221.129 342.84 221.496C342.699 221.848 342.461 222.137 342.125 222.363C341.789 222.582 341.332 222.691 340.754 222.691Z" fill="#FF665C"/>
<g filter="url(#filter2_d)">
<ellipse cx="487.5" cy="203" rx="71.5" ry="72" fill="white"/>
</g>
<path d="M459.582 207.219C458.863 208.773 457.777 209.551 456.324 209.551C455.715 209.551 455.191 209.422 454.754 209.164C454.309 208.945 453.949 208.66 453.676 208.309C453.34 207.941 453.117 207.461 453.008 206.867C452.883 206.273 452.82 205.137 452.82 203.457C452.82 201.777 452.883 200.633 453.008 200.023C453.117 199.445 453.34 198.973 453.676 198.605C453.949 198.254 454.309 197.961 454.754 197.727C455.191 197.5 455.715 197.379 456.324 197.363C457.152 197.379 457.855 197.617 458.434 198.078C458.988 198.562 459.371 199.148 459.582 199.836H462.324C462.051 198.406 461.395 197.207 460.355 196.238C459.316 195.277 457.973 194.789 456.324 194.773C454.98 194.789 453.859 195.109 452.961 195.734C452.047 196.352 451.383 197.055 450.969 197.844C450.711 198.258 450.52 198.801 450.395 199.473C450.277 200.145 450.219 201.473 450.219 203.457C450.219 205.41 450.277 206.73 450.395 207.418C450.457 207.785 450.535 208.09 450.629 208.332C450.73 208.566 450.844 208.812 450.969 209.07C451.383 209.859 452.047 210.555 452.961 211.156C453.859 211.781 454.98 212.109 456.324 212.141C457.809 212.141 459.094 211.719 460.18 210.875C461.234 210.023 461.949 208.805 462.324 207.219H459.582ZM463.344 205.906C463.344 207.188 463.449 208.164 463.66 208.836C463.879 209.508 464.215 210.09 464.668 210.582C465.004 210.965 465.473 211.309 466.074 211.613C466.668 211.949 467.43 212.125 468.359 212.141C469.32 212.125 470.098 211.949 470.691 211.613C471.012 211.473 471.273 211.305 471.477 211.109C471.703 210.938 471.895 210.762 472.051 210.582C472.535 210.09 472.879 209.508 473.082 208.836C473.277 208.164 473.375 207.188 473.375 205.906C473.375 204.625 473.277 203.641 473.082 202.953C472.879 202.281 472.535 201.715 472.051 201.254C471.73 200.848 471.277 200.484 470.691 200.164C470.098 199.859 469.32 199.699 468.359 199.684C467.43 199.699 466.668 199.859 466.074 200.164C465.473 200.484 465.004 200.848 464.668 201.254C464.215 201.715 463.879 202.281 463.66 202.953C463.449 203.641 463.344 204.625 463.344 205.906ZM470.926 205.93C470.926 206.758 470.887 207.367 470.809 207.758C470.73 208.156 470.57 208.508 470.328 208.812C470.148 209.047 469.883 209.254 469.531 209.434C469.195 209.605 468.805 209.691 468.359 209.691C467.945 209.691 467.562 209.605 467.211 209.434C466.875 209.254 466.602 209.047 466.391 208.812C466.18 208.508 466.027 208.156 465.934 207.758C465.84 207.367 465.793 206.75 465.793 205.906C465.793 205.055 465.84 204.43 465.934 204.031C466.027 203.648 466.18 203.312 466.391 203.023C466.602 202.75 466.875 202.535 467.211 202.379C467.562 202.215 467.945 202.133 468.359 202.133C468.805 202.133 469.195 202.215 469.531 202.379C469.883 202.535 470.148 202.75 470.328 203.023C470.57 203.312 470.73 203.648 470.809 204.031C470.887 204.43 470.926 205.062 470.926 205.93ZM475.941 212H478.391V204.758C478.391 203.906 478.621 203.258 479.082 202.812C479.535 202.359 480.113 202.133 480.816 202.133C481.52 202.133 482.094 202.359 482.539 202.812C482.992 203.258 483.219 203.906 483.219 204.758V212H485.668V203.914C485.629 202.523 485.195 201.469 484.367 200.75C483.531 200.039 482.609 199.684 481.602 199.684C480.297 199.684 479.242 200.164 478.438 201.125H478.391V199.836H475.941V212ZM488.973 199.836H487.754V201.699H488.973V209C488.973 209.961 489.254 210.695 489.816 211.203C490.363 211.734 491.066 212 491.926 212H493.203V209.691H492.289C491.695 209.707 491.406 209.406 491.422 208.789V201.699H493.203V199.836H491.422V196.133H488.973V199.836ZM504.945 206.844V204.828C504.93 203.227 504.434 201.969 503.457 201.055C502.496 200.156 501.32 199.699 499.93 199.684C499.352 199.684 498.766 199.789 498.172 200C497.57 200.211 497.027 200.555 496.543 201.031C496.066 201.5 495.676 202.141 495.371 202.953C495.066 203.75 494.914 204.75 494.914 205.953C494.914 207.203 495.09 208.219 495.441 209C495.762 209.812 496.18 210.445 496.695 210.898C496.961 211.117 497.246 211.301 497.551 211.449C497.84 211.621 498.137 211.758 498.441 211.859C499.051 212.047 499.676 212.141 500.316 212.141C501.996 212.156 503.457 211.5 504.699 210.172L502.93 208.66C502.148 209.449 501.262 209.844 500.27 209.844C499.418 209.844 498.73 209.586 498.207 209.07C497.645 208.562 497.363 207.82 497.363 206.844H504.945ZM497.363 204.828C497.41 203.883 497.664 203.168 498.125 202.684C498.594 202.223 499.195 201.992 499.93 201.992C500.664 201.992 501.266 202.223 501.734 202.684C502.211 203.168 502.465 203.883 502.496 204.828H497.363ZM507.512 212H509.961V204.758C509.961 203.906 510.191 203.258 510.652 202.812C511.105 202.359 511.684 202.133 512.387 202.133C513.09 202.133 513.664 202.359 514.109 202.812C514.562 203.258 514.789 203.906 514.789 204.758V212H517.238V203.914C517.199 202.523 516.766 201.469 515.938 200.75C515.102 200.039 514.18 199.684 513.172 199.684C511.867 199.684 510.812 200.164 510.008 201.125H509.961V199.836H507.512V212ZM520.543 199.836H519.324V201.699H520.543V209C520.543 209.961 520.824 210.695 521.387 211.203C521.934 211.734 522.637 212 523.496 212H524.773V209.691H523.859C523.266 209.707 522.977 209.406 522.992 208.789V201.699H524.773V199.836H522.992V196.133H520.543V199.836Z" fill="#FF665C"/>
<g filter="url(#filter3_d)">
<ellipse cx="670.5" cy="202" rx="71.5" ry="72" fill="white"/>
</g>
<path d="M626.828 204.883L629.301 197.418H629.348L631.82 204.883H626.828ZM633.883 211H636.613L630.402 193.914H628.234L622.023 211H624.766L626.078 207.18H632.559L633.883 211ZM638.371 198.836H637.152V200.699H638.371V208C638.371 208.961 638.652 209.695 639.215 210.203C639.762 210.734 640.465 211 641.324 211H642.602V208.691H641.688C641.094 208.707 640.805 208.406 640.82 207.789V200.699H642.602V198.836H640.82V195.133H638.371V198.836ZM644.312 204.906C644.312 206.188 644.418 207.164 644.629 207.836C644.848 208.508 645.184 209.09 645.637 209.582C645.973 209.965 646.441 210.309 647.043 210.613C647.637 210.949 648.398 211.125 649.328 211.141C650.289 211.125 651.066 210.949 651.66 210.613C651.98 210.473 652.242 210.305 652.445 210.109C652.672 209.938 652.863 209.762 653.02 209.582C653.504 209.09 653.848 208.508 654.051 207.836C654.246 207.164 654.344 206.188 654.344 204.906C654.344 203.625 654.246 202.641 654.051 201.953C653.848 201.281 653.504 200.715 653.02 200.254C652.699 199.848 652.246 199.484 651.66 199.164C651.066 198.859 650.289 198.699 649.328 198.684C648.398 198.699 647.637 198.859 647.043 199.164C646.441 199.484 645.973 199.848 645.637 200.254C645.184 200.715 644.848 201.281 644.629 201.953C644.418 202.641 644.312 203.625 644.312 204.906ZM651.895 204.93C651.895 205.758 651.855 206.367 651.777 206.758C651.699 207.156 651.539 207.508 651.297 207.812C651.117 208.047 650.852 208.254 650.5 208.434C650.164 208.605 649.773 208.691 649.328 208.691C648.914 208.691 648.531 208.605 648.18 208.434C647.844 208.254 647.57 208.047 647.359 207.812C647.148 207.508 646.996 207.156 646.902 206.758C646.809 206.367 646.762 205.75 646.762 204.906C646.762 204.055 646.809 203.43 646.902 203.031C646.996 202.648 647.148 202.312 647.359 202.023C647.57 201.75 647.844 201.535 648.18 201.379C648.531 201.215 648.914 201.133 649.328 201.133C649.773 201.133 650.164 201.215 650.5 201.379C650.852 201.535 651.117 201.75 651.297 202.023C651.539 202.312 651.699 202.648 651.777 203.031C651.855 203.43 651.895 204.062 651.895 204.93ZM657.051 211H659.5V203.758C659.5 202.906 659.734 202.258 660.203 201.812C660.648 201.359 661.223 201.133 661.926 201.133C662.629 201.133 663.207 201.359 663.66 201.812C664.105 202.258 664.328 202.906 664.328 203.758V211H666.777V203.758C666.777 202.906 667.008 202.258 667.469 201.812C667.922 201.359 668.5 201.133 669.203 201.133C669.906 201.133 670.48 201.359 670.926 201.812C671.371 202.258 671.594 202.906 671.594 203.758V211H674.043V202.914C674.012 201.523 673.582 200.469 672.754 199.75C671.918 199.039 670.996 198.684 669.988 198.684C668.387 198.668 667.109 199.199 666.156 200.277C665.734 199.809 665.27 199.422 664.762 199.117C664.246 198.844 663.566 198.699 662.723 198.684C661.41 198.684 660.352 199.164 659.547 200.125H659.5V198.836H657.051V211ZM677.441 211H679.891V198.836H677.441V211ZM677.441 196.363H679.891V193.914H677.441V196.363ZM690.285 207.426C689.668 208.254 688.844 208.676 687.812 208.691C685.734 208.73 684.68 207.477 684.648 204.93C684.68 202.367 685.734 201.102 687.812 201.133C688.844 201.164 689.668 201.59 690.285 202.41L692.09 200.805C691.559 200.164 690.934 199.652 690.215 199.27C689.496 198.895 688.664 198.699 687.719 198.684C686.281 198.668 685.02 199.148 683.934 200.125C682.809 201.117 682.23 202.719 682.199 204.93C682.23 207.117 682.809 208.699 683.934 209.676C685.02 210.652 686.281 211.141 687.719 211.141C688.664 211.125 689.496 210.918 690.215 210.52C690.934 210.137 691.559 209.641 692.09 209.031L690.285 207.426ZM699.473 205.211C699.488 207.008 700.082 208.434 701.254 209.488C702.402 210.574 703.832 211.125 705.543 211.141C707.285 211.125 708.727 210.574 709.867 209.488C711 208.434 711.582 207.008 711.613 205.211V193.914H709.023V204.93C709.008 206.094 708.68 206.98 708.039 207.59C707.383 208.23 706.551 208.551 705.543 208.551C704.535 208.551 703.711 208.23 703.07 207.59C702.414 206.98 702.078 206.094 702.062 204.93V193.914H699.473V205.211ZM714.906 211H717.496V193.914H714.906V211Z" fill="#FF665C"/>
<g filter="url(#filter4_d)">
<ellipse cx="853.5" cy="202" rx="71.5" ry="72" fill="white"/>
</g>
<path d="M829.016 211H831.031L836.68 193.914H833.938L830.047 206.922H830L826.121 193.914H823.379L829.016 211ZM837.922 211H840.371V198.836H837.922V211ZM837.922 196.363H840.371V193.914H837.922V196.363ZM843.98 207.285L842.27 208.961C843.855 210.414 845.641 211.141 847.625 211.141C849.086 211.125 850.285 210.789 851.223 210.133C852.168 209.492 852.648 208.582 852.664 207.402C852.664 206.395 852.402 205.562 851.879 204.906C851.316 204.234 850.402 203.852 849.137 203.758L847.121 203.605C846.527 203.543 846.113 203.398 845.879 203.172C845.621 202.969 845.5 202.73 845.516 202.457C845.516 202.027 845.676 201.676 845.996 201.402C846.301 201.129 846.836 200.992 847.602 200.992C848.273 200.992 848.867 201.09 849.383 201.285C849.906 201.504 850.402 201.781 850.871 202.117L852.383 200.348C851.789 199.832 851.117 199.422 850.367 199.117C849.977 198.977 849.559 198.867 849.113 198.789C848.668 198.719 848.164 198.684 847.602 198.684C846.305 198.684 845.234 198.996 844.391 199.621C843.523 200.246 843.082 201.184 843.066 202.434C843.082 203.473 843.418 204.281 844.074 204.859C844.715 205.453 845.547 205.797 846.57 205.891L848.727 206.078C849.18 206.094 849.543 206.191 849.816 206.371C850.082 206.543 850.215 206.848 850.215 207.285C850.215 207.777 849.992 208.16 849.547 208.434C849.102 208.707 848.527 208.844 847.824 208.844C846.254 208.844 844.973 208.324 843.98 207.285ZM855.148 206.922C855.164 208.297 855.613 209.336 856.496 210.039C857.309 210.758 858.219 211.125 859.227 211.141C860.523 211.141 861.574 210.66 862.379 209.699H862.426V211H864.875V198.836H862.426V206.078C862.426 206.898 862.199 207.539 861.746 208C861.301 208.461 860.727 208.691 860.023 208.691C859.32 208.691 858.742 208.461 858.289 208C857.828 207.539 857.598 206.898 857.598 206.078V198.836H855.148V206.922ZM874.426 211H876.875V202.691C876.859 201.207 876.395 200.16 875.48 199.551C874.566 198.957 873.344 198.668 871.812 198.684C870 198.652 868.629 199.246 867.699 200.465L869.621 201.93C869.832 201.578 870.121 201.328 870.488 201.18C870.84 201.055 871.32 200.992 871.93 200.992C873.609 200.961 874.441 201.48 874.426 202.551V203.828H871.039C869.742 203.844 868.758 204.195 868.086 204.883C867.414 205.555 867.078 206.402 867.078 207.426C867.078 208.496 867.465 209.375 868.238 210.062C868.973 210.766 870.02 211.125 871.379 211.141C872.207 211.141 872.855 211.039 873.324 210.836C873.801 210.641 874.152 210.336 874.379 209.922H874.426V211ZM874.426 206.723C874.426 207.637 874.234 208.223 873.852 208.48C873.43 208.738 872.707 208.859 871.684 208.844C870.871 208.844 870.289 208.684 869.938 208.363C869.57 208.074 869.387 207.723 869.387 207.309C869.371 206.363 870.074 205.875 871.496 205.844H874.426V206.723ZM880.039 208.047C880.039 209.117 880.344 209.879 880.953 210.332C881.531 210.777 882.266 211 883.156 211H884.246V208.691H883.402C882.793 208.691 882.488 208.414 882.488 207.859V193.914H880.039V208.047Z" fill="#FF5C7A"/>
<path d="M85.24 317.08H91.02V321.22H92.84V317.08H98.7V320.04H100.56V315.66H92.84V314.44H99.6V313.04H84.34V314.44H91.02V315.66H83.48V320.04H85.24V317.08ZM98.46 320.38C97.4 320 95.36 319.58 93.86 319.4L93.48 320.5C95 320.72 97.02 321.2 98.1 321.58L98.46 320.38ZM97.34 317.12C96.42 317.48 94.8 318.06 93.72 318.28L94.36 319.2C95.46 319 97 318.62 98.1 318.14L97.34 317.12ZM85.88 321.58C87.18 321.3 88.66 320.98 90.16 320.66L90.1 319.54C88.34 319.82 86.64 320.06 85.38 320.2L85.88 321.58ZM85.96 318.22C87.18 318.46 88.78 318.94 89.62 319.3L90.12 318.22C89.26 317.88 87.66 317.48 86.46 317.26L85.96 318.22ZM100.74 323.26V321.8H83.32V323.26H90.9C90.8 323.68 90.68 324.08 90.54 324.5H84.82V330.52H86.58V325.96H89.12V330.4H90.82V325.96H93.46V330.4H95.16V325.96H97.86V328.78C97.86 328.96 97.8 329.02 97.58 329.04C97.38 329.04 96.72 329.04 96 329.02C96.24 329.44 96.5 330.1 96.56 330.56C97.62 330.56 98.4 330.54 98.96 330.28C99.52 330.02 99.64 329.6 99.64 328.8V324.5H92.34C92.5 324.1 92.66 323.7 92.8 323.26H100.74ZM118.38 317.96C117.56 319.14 116.22 320.62 115.04 321.72C114.16 320.38 113.44 318.92 112.9 317.4V317.2H120.74V315.4H118.42L119.26 314.44C118.44 313.8 116.82 312.88 115.6 312.28L114.5 313.46C115.52 313.98 116.8 314.76 117.64 315.4H112.9V312.26H111V315.4H103.34V317.2H111V322.42C108.04 324.12 104.78 325.96 102.82 326.94L104.02 328.62C106 327.46 108.56 325.92 111 324.36V328.18C111 328.56 110.86 328.68 110.5 328.68C110.1 328.7 108.82 328.7 107.54 328.66C107.8 329.2 108.1 330.08 108.2 330.62C109.94 330.62 111.18 330.56 111.9 330.24C112.62 329.94 112.9 329.38 112.9 328.18V321.34C114.58 324.66 116.92 327.38 119.94 328.9C120.24 328.38 120.84 327.64 121.28 327.24C119.26 326.38 117.48 324.92 116.04 323.08C117.3 321.98 118.84 320.46 120.02 319.1L118.38 317.96ZM108.96 321.86C108.32 320.78 106.86 319.24 105.62 318.18L104.22 319.18C105.46 320.3 106.84 321.9 107.44 322.96L108.96 321.86ZM131 312.56V314.28H134.36C135.12 316.22 136.3 318.08 137.76 319.62H126.24C127.68 317.9 128.86 315.74 129.66 313.36L127.72 312.9C126.76 315.92 124.96 318.6 122.66 320.24C123.12 320.54 123.9 321.24 124.24 321.6C124.8 321.16 125.36 320.62 125.88 320.04V321.42H129.64C129.2 324.6 128.14 327.5 123.52 329.04C123.96 329.42 124.5 330.2 124.72 330.7C129.84 328.82 131.14 325.3 131.66 321.42H136.26C136.06 326.08 135.8 327.96 135.34 328.44C135.12 328.66 134.88 328.72 134.5 328.72C134.02 328.72 132.88 328.7 131.68 328.58C132 329.12 132.26 329.9 132.28 330.46C133.5 330.52 134.72 330.54 135.38 330.46C136.1 330.36 136.58 330.2 137.02 329.64C137.72 328.86 137.98 326.54 138.24 320.46C138.24 320.38 138.26 320.24 138.26 320.12C138.82 320.66 139.44 321.14 140.08 321.56C140.38 321.02 141 320.24 141.42 319.86C138.76 318.42 136.68 315.58 135.74 312.56H131ZM150.52 322.68C150.14 322.12 148.54 319.98 147.82 319.08V318.16H150.68V316.4H147.82V312.22H146.04V316.4H143.18V318.16H145.82C145.22 320.74 143.94 323.68 142.64 325.3C142.94 325.74 143.38 326.48 143.58 327.02C144.5 325.8 145.36 323.9 146.04 321.88V330.58H147.82V321.4C148.44 322.38 149.08 323.48 149.4 324.14L150.52 322.68ZM161.12 318.96H153.36V315.72C155.68 315.28 158.16 314.68 160.02 313.9L158.44 312.44C156.84 313.2 154.06 313.94 151.6 314.4V320.4C151.6 323.18 151.44 326.98 149.62 329.6C150.06 329.78 150.84 330.24 151.16 330.54C153 327.86 153.34 323.74 153.36 320.72H156.54V330.58H158.38V320.72H161.12V318.96ZM90.96 366.24C90.48 365.64 88.46 363.34 87.64 362.54C87.66 362.26 87.7 361.96 87.72 361.68H90.8V359.98H87.78V359.4V357.06H90.46V355.4H87.78V352.42H86.04V355.4H83.32V357.06H86.04V359.4V359.98H82.94V361.68H85.98C85.8 364.32 85.14 367.22 82.74 369C83.18 369.32 83.76 369.94 84.02 370.32C85.92 368.78 86.88 366.66 87.34 364.46C88.2 365.52 89.22 366.84 89.68 367.6L90.96 366.24ZM93.22 360.86H98.32V362.48H93.22V360.86ZM93.22 357.72H98.32V359.36H93.22V357.72ZM93.22 354.64H98.32V356.22H93.22V354.64ZM98.28 368.58C97.9 368.58 97.84 368.52 97.84 368.02V364.16H100.1V352.96H91.48V364.16H92.92C92.62 366.48 91.88 368.2 88.9 369.18C89.28 369.48 89.74 370.16 89.94 370.56C93.36 369.32 94.32 367.12 94.68 364.16H96.12V368.04C96.12 369.68 96.44 370.22 97.98 370.22H99.46C100.74 370.22 101.18 369.52 101.32 366.76C100.88 366.64 100.14 366.38 99.8 366.06C99.74 368.3 99.66 368.58 99.3 368.58H98.28ZM102.98 370.12C105.82 370 110.12 369.78 114.16 369.58L114.22 368.16C110.04 368.36 105.64 368.54 102.86 368.62L102.98 370.12ZM111.58 364.88H109.38V364.08H111.58V364.88ZM111.58 366.64H109.38V365.8H111.58V366.64ZM105.56 365.8H107.78V366.64H105.56V365.8ZM105.56 364.08H107.78V364.88H105.56V364.08ZM104.06 363.12V367.58H113.12V363.12H104.06ZM111.5 357.44H109.3V356.52H111.5V357.44ZM109.3 354.5H111.5V355.32H109.3V354.5ZM113.1 353.42H109.3V352.22H107.6V353.42H104.06V354.5H107.6V355.32H102.86V356.52H107.6V357.44H104V358.54H107.6V359.28H103.9V360.38H107.6V361.16H102.98V362.4H114.14V361.16H109.3V360.38H113.36V359.28H109.3V358.54H113.1V356.52H114.24V355.32H113.1V353.42ZM116.6 354.62H114.9V365.66H116.6V354.62ZM118.66 352.62V368.34C118.66 368.66 118.52 368.76 118.22 368.76C117.9 368.76 116.88 368.76 115.78 368.74C116.02 369.26 116.28 370.06 116.36 370.56C117.92 370.56 118.94 370.5 119.56 370.22C120.2 369.9 120.42 369.38 120.42 368.34V352.62H118.66ZM136.76 359.4H127.44V357.9H136.76V359.4ZM136.76 362.28H127.44V360.76H136.76V362.28ZM136.76 365.18H127.44V363.64H136.76V365.18ZM125.5 356.44V366.62H138.78V356.44H132.54C132.7 355.96 132.88 355.44 133.04 354.9H140.24V353.2H123.68V354.9H130.9C130.82 355.42 130.7 355.96 130.58 356.44H125.5ZM129.14 366.66C127.76 367.52 125.06 368.58 122.96 369.14C123.38 369.52 123.94 370.16 124.24 370.56C126.36 369.98 129.04 368.92 130.78 367.9L129.14 366.66ZM133.26 367.98C135.5 368.76 137.84 369.82 139.2 370.58L141 369.32C139.46 368.56 136.9 367.52 134.6 366.76L133.26 367.98ZM158.04 367.84H155.42V359.12H158.04V367.84ZM145.86 359.12H148.36V367.84H145.86V359.12ZM153.74 361H150.02V359.12H153.74V361ZM150.02 365.86H153.74V367.84H150.02V365.86ZM153.74 364.38H150.02V362.48H153.74V364.38ZM160.88 355.22V353.46H143.2V355.22H150.66C150.54 355.94 150.38 356.74 150.22 357.42H144.06V370.6H145.86V369.56H158.04V370.6H159.94V357.42H152.14C152.34 356.74 152.58 355.96 152.82 355.22H160.88Z" fill="#686868"/>
<path d="M269.34 313.32H264.44V314.72H269.34V313.32ZM276.32 314.9H279.1C278.82 315.4 278.52 315.92 278.26 316.28L279.72 316.8C280.28 316.06 280.96 314.9 281.46 313.84L280.18 313.42L279.92 313.5H273.68C273.82 313.16 273.94 312.84 274.06 312.5L272.4 312.14C271.96 313.54 271.14 314.92 270.1 315.82C270.52 316.02 271.2 316.5 271.5 316.76C272.02 316.26 272.52 315.62 272.96 314.9H274.62V315.16C274.62 316.02 274.16 317.14 269.82 317.7V316.38H264.02V317.84H269.1C269.44 318.18 269.86 318.8 270.04 319.22C273.48 318.74 275.06 317.88 275.78 316.96C277.04 318.12 278.86 318.84 281.14 319.16C281.32 318.68 281.78 318.02 282.14 317.64C279.5 317.48 277.36 316.8 276.28 315.7C276.32 315.52 276.32 315.36 276.32 315.22V314.9ZM268.42 325H277.8V326.16H268.42V325ZM268.42 322.74H277.8V323.86H268.42V322.74ZM268.42 320.48H277.8V321.62H268.42V320.48ZM279.66 327.34V319.3H266.62V327.34H269.84C268.46 328.12 266.12 328.8 264.08 329.2C264.48 329.54 265.14 330.22 265.46 330.6C267.46 330.04 269.96 329.08 271.58 328.1L269.92 327.34H275.9L274.74 328.28C276.8 328.98 278.9 329.88 280.12 330.54L281.8 329.52C280.44 328.86 278.22 328.02 276.16 327.34H279.66ZM291.16 315.56H287.42L288.74 314.74C288.46 314.02 287.86 312.96 287.36 312.12L286.02 312.86C286.52 313.68 287.08 314.82 287.38 315.56H283.96V317.04H291.16V315.56ZM290.44 319.68V318.22H284.76V319.68H290.44ZM288.98 325.06V327.92H286.22V325.06H288.98ZM290.46 323.56H284.76V330.32H286.22V329.42H290.46V323.56ZM284.76 322.3H290.46V320.86H284.76V322.3ZM291.4 313.3V315.06H293.64V320.7H291.16V322.42H293.64V330.58H295.38V322.42H297.72V320.7H295.38V315.06H298.34C298.32 322.9 298.28 329.6 300.22 330.28C301.26 330.72 302.08 330.08 302.32 327.24C302.04 326.96 301.58 326.28 301.3 325.82C301.24 327.16 301.1 328.46 300.98 328.42C300.04 328.14 300.06 320.7 300.2 313.3H291.4ZM319.4 319.14H315.84V315.4H319.4V319.14ZM321.26 313.78H314.1V320.74H321.26V313.78ZM311.04 315.88C310.9 318.18 310.74 319.12 310.48 319.4C310.34 319.56 310.18 319.6 309.9 319.6C309.6 319.6 308.96 319.58 308.26 319.52C308.5 319.96 308.68 320.66 308.72 321.16C309.54 321.2 310.34 321.2 310.76 321.12C311.3 321.06 311.64 320.92 312 320.54C312.48 319.98 312.66 318.52 312.86 314.96C312.88 314.72 312.9 314.26 312.9 314.26H308.8C308.84 313.62 308.88 312.94 308.92 312.24H307.14C307.12 312.94 307.08 313.64 307.02 314.26H304.16V315.88H306.82C306.46 317.9 305.66 319.42 303.74 320.44C304.14 320.76 304.66 321.4 304.86 321.86C307.22 320.56 308.18 318.54 308.6 315.88H311.04ZM308.8 325.14C307.76 326.56 305.9 327.88 304.06 328.68C304.52 328.96 305.28 329.56 305.64 329.92C307.42 328.96 309.44 327.4 310.64 325.74L308.8 325.14ZM321.6 324.58V322.94H313.92V321.22H312V322.94H304.22V324.58H312V330.62H313.92V324.58H321.6ZM315.2 326.2C317.08 327.26 319.42 328.9 320.54 330L322 328.74C320.78 327.62 318.36 326.08 316.52 325.08L315.2 326.2ZM330.76 322.88C330.44 322.34 328.96 320.08 328.4 319.34V318.16H330.54V316.44H328.4V312.22H326.68V316.44H324.08V318.16H326.52C325.98 320.7 324.84 323.66 323.66 325.3C323.92 325.7 324.36 326.4 324.54 326.9C325.34 325.76 326.08 324 326.68 322.1V330.56H328.4V321.56C328.92 322.5 329.5 323.6 329.76 324.24L330.76 322.88ZM337.08 325.98V324.74H339.44V325.98H337.08ZM333.18 324.74H335.4V325.98H333.18V324.74ZM335.4 322.32V323.46H333.18V322.32H335.4ZM339.44 322.32V323.46H337.08V322.32H339.44ZM334.9 317.5H337.64V318.62H334.9V317.5ZM334.9 315.1H337.64V316.2H334.9V315.1ZM342.36 325.98H341.18V320.98H337.08V320H342.16V318.62H339.38V317.5H341.46V316.2H339.38V315.1H341.76V313.76H339.38V312.22H337.64V313.76H334.9V312.22H333.16V313.76H330.98V315.1H333.16V316.2H331.4V317.5H333.16V318.62H330.54V320H335.4V320.98H331.48V325.98H330.2V327.38H331.48V330.48H333.18V327.38H339.44V328.68C339.44 328.92 339.36 329 339.12 329C338.86 329.02 338 329.02 337.16 328.98C337.36 329.4 337.58 330.04 337.66 330.48C338.94 330.48 339.84 330.46 340.42 330.24C341 329.96 341.18 329.54 341.18 328.7V327.38H342.36V325.98Z" fill="#686868"/>
<path d="M459.84 317.46C458.94 319.92 457.7 321.96 456.08 323.64C454.38 321.88 453.04 319.82 452.08 317.46H459.84ZM465.02 317.46V315.66H456.04L457.82 315.1C457.56 314.28 456.92 313 456.34 312.06L454.38 312.64C454.92 313.58 455.48 314.84 455.72 315.66H447.06V317.46H450.14C451.26 320.38 452.74 322.88 454.68 324.94C452.56 326.68 449.94 327.92 446.72 328.78C447.1 329.22 447.66 330.08 447.88 330.56C451.12 329.56 453.84 328.16 456.06 326.28C458.22 328.16 460.88 329.58 464.06 330.44C464.36 329.9 464.9 329.12 465.32 328.72C462.24 327.96 459.64 326.66 457.5 324.92C459.38 322.92 460.86 320.48 461.92 317.46H465.02ZM482.66 316.58H484.44V313.64H477.24C476.98 313.16 476.62 312.62 476.36 312.18L474.44 312.62C474.6 312.94 474.8 313.28 475 313.64H467.64V316.58H469.36V315.2H482.66V316.58ZM478.38 318.72C477.82 319.34 477.12 319.88 476.28 320.28C475.1 320.06 473.88 319.84 472.66 319.64C472.96 319.34 473.28 319.04 473.6 318.72H478.38ZM484.62 322.42C483.04 321.9 480.96 321.32 478.64 320.8C479.44 320.22 480.1 319.54 480.64 318.72H484.74V317.24H481.42C481.54 316.94 481.66 316.64 481.76 316.32L479.94 315.94C479.78 316.4 479.62 316.84 479.4 317.24H474.94C475.38 316.74 475.76 316.24 476.1 315.76L474.34 315.2C473.92 315.86 473.42 316.54 472.84 317.24H467.3V318.72H471.54C470.9 319.38 470.28 320.04 469.72 320.54C471.02 320.74 472.32 320.98 473.58 321.22C471.84 321.6 469.76 321.8 467.22 321.9C467.48 322.3 467.74 322.9 467.88 323.44C471.64 323.2 474.54 322.78 476.7 321.88C479.18 322.42 481.28 323.04 482.82 323.62L484.62 322.42ZM471.8 326.12C470.8 327.22 468.96 328.22 467.22 328.82C467.68 329.12 468.42 329.72 468.78 330.08C470.48 329.32 472.48 328.08 473.64 326.72L471.8 326.12ZM484.96 324.34H476.88V322.82H475.02V324.34H467.12V325.88H475.02V330.56H476.88V325.88H479.44L478.18 327.04C479.94 327.9 482.18 329.28 483.26 330.24L484.68 328.92C483.52 327.96 481.24 326.68 479.5 325.88H484.96V324.34ZM503.1 314.22V315.6H500.98V314.22H503.1ZM503.78 319.7C504.28 319.7 504.86 319.7 505.14 319.6C505.08 319.24 505.04 318.62 505 318.22C504.7 318.3 504.1 318.34 503.74 318.34H501.48C501.06 318.34 500.98 318.14 500.98 317.56V316.82H504.56V313H499.48V317.52C499.48 319.14 499.86 319.7 501.46 319.7H503.78ZM497.06 314.22V315.58H494.94V314.22H497.06ZM494.94 318.44V316.8H498.5V313H493.48V317.9C493.48 318.62 493.22 318.82 492.98 318.94C493.18 319.24 493.42 319.88 493.5 320.24C493.9 320.04 494.54 319.92 498.76 319.32C498.72 319 498.72 318.38 498.74 317.98L494.94 318.44ZM497.5 323.04H500.5V325.08H497.5V323.04ZM505.18 325.08H502.2V323.04H504.7V321.5H502.2V320.4H500.5V321.5H497.5V320.42H495.82V321.5H493.3V323.04H495.82V325.08H492.8V326.62H505.18V325.08ZM492.34 320.9L490.8 321.36V317.84H492.44V316.12H490.8V312.26H489.04V316.12H486.9V317.84H489.04V321.88C488.14 322.14 487.3 322.38 486.6 322.54L487.04 324.34L489.04 323.7V328.36C489.04 328.62 488.96 328.7 488.7 328.7C488.48 328.7 487.74 328.7 486.96 328.68C487.2 329.18 487.44 329.98 487.5 330.46C488.72 330.46 489.54 330.4 490.1 330.1C490.62 329.8 490.8 329.3 490.8 328.34V323.16C491.4 322.96 492.02 322.76 492.6 322.58L492.34 320.9ZM496.6 326.78C495.64 327.82 493.9 328.8 492.24 329.38C492.64 329.68 493.32 330.28 493.68 330.64C495.32 329.9 497.2 328.7 498.36 327.4L496.6 326.78ZM499.78 327.6C501.18 328.46 502.96 329.76 503.82 330.56L505.4 329.62C504.44 328.8 502.62 327.58 501.26 326.76L499.78 327.6ZM510.88 330.1C511.62 329.16 512.18 327.68 512.6 326.52L511.12 325.92C510.78 327.06 510.14 328.52 509.4 329.38L510.88 330.1ZM513.24 326.3C513.6 327.44 513.84 328.9 513.82 329.8L515.32 329.6C515.32 328.68 515.04 327.24 514.64 326.12L513.24 326.3ZM515.72 326.34C516.24 327.28 516.72 328.54 516.86 329.34L518.26 328.94C518.12 328.14 517.6 326.9 517.04 325.98L515.72 326.34ZM520.96 327.8C520.7 327.2 520 326.34 519.4 325.74L518.18 326.28C518.76 326.9 519.42 327.8 519.7 328.42L520.96 327.8ZM513.24 323.96C513.56 323.6 513.84 323.24 514.12 322.84H522.08V316.74H516.48V318.06H520.4V319.12H516.82V320.4H520.4V321.52H511.54V320.4H515.16V319.12H511.54V318.04C512.98 317.74 514.46 317.38 515.62 316.94L514.5 315.78C513.38 316.24 511.5 316.74 509.9 317.08V322.84H512.06C510.82 324.32 508.88 325.5 506.92 326.24C507.24 326.58 507.78 327.32 507.98 327.68C509.28 327.12 510.54 326.36 511.68 325.44H522.02C521.88 327.6 521.7 328.54 521.44 328.8C521.28 328.96 521.1 328.98 520.76 328.98C520.44 328.98 519.56 328.98 518.66 328.88C518.96 329.34 519.14 330.02 519.18 330.5C520.16 330.54 521.12 330.56 521.62 330.48C522.2 330.44 522.6 330.3 522.98 329.92C523.48 329.36 523.7 327.98 523.9 324.66C523.92 324.42 523.94 323.96 523.94 323.96H513.24ZM517.12 313.74C516.88 313.2 516.58 312.58 516.28 312.1L514.38 312.62C514.58 312.96 514.74 313.34 514.92 313.74H507.54V317.48H509.22V315.34H522.72V317.48H524.48V313.74H517.12Z" fill="#686868"/>
<path d="M645.38 314.92H659.82V313.22H643.54V318.9C643.54 321.94 643.4 326.24 641.7 329.22C642.14 329.38 642.96 329.86 643.3 330.16C645.1 326.98 645.38 322.16 645.38 318.9V314.92ZM648.32 324.96C647.48 326.28 646.22 327.76 645.06 328.76C645.52 329 646.26 329.48 646.62 329.78C647.72 328.7 649.1 327.02 650.1 325.54L648.32 324.96ZM648.78 321.1H656.44V322.7H648.78V321.1ZM648.78 318.16H656.44V319.76H648.78V318.16ZM658.34 324.14V316.72H652.76C653.04 316.28 653.3 315.82 653.58 315.36L651.38 315.06C651.22 315.54 650.98 316.14 650.7 316.72H646.96V324.14H651.7V328.6C651.7 328.84 651.62 328.92 651.32 328.94C651.04 328.94 650.04 328.94 649 328.92C649.22 329.38 649.46 330.06 649.54 330.56C651.02 330.56 652.02 330.54 652.68 330.28C653.34 330.02 653.5 329.54 653.5 328.64V324.14H658.34ZM654.88 325.76C656 327.04 657.56 328.82 658.28 329.88L659.86 328.94C659.06 327.9 657.48 326.2 656.34 324.96L654.88 325.76ZM680 320.94H672.06V319.1C674.34 317.9 676.8 316.1 678.5 314.46L677.1 313.38L676.68 313.48H664.04V315.3H674.64C673.34 316.34 671.6 317.42 670.12 318.12V320.94H662.06V322.8H670.12V328.22C670.12 328.58 670 328.68 669.58 328.7C669.14 328.72 667.64 328.72 666.12 328.66C666.44 329.18 666.8 330.04 666.92 330.58C668.78 330.58 670.1 330.54 670.94 330.24C671.78 329.96 672.06 329.4 672.06 328.26V322.8H680V320.94ZM687.02 312.32C685.78 315.28 683.72 318.18 681.6 320C681.94 320.44 682.46 321.44 682.62 321.88C683.44 321.12 684.24 320.22 685 319.22V330.56H686.76V316.66C687.5 315.44 688.18 314.16 688.72 312.88L687.02 312.32ZM693.6 328.32C692.6 328.32 692.4 328.1 692.4 326.98V319.62H699.44V317.84H692.4V312.56H690.62V326.94C690.62 329.34 691.24 330 693.44 330H697.02C699.28 330 699.74 328.68 700 324.94C699.52 324.82 698.76 324.46 698.32 324.12C698.16 327.48 697.98 328.32 696.9 328.32H693.6ZM636.42 362.58C636.42 364.76 636.02 367.32 632.42 369.22C632.92 369.54 633.64 370.18 633.96 370.62C637.92 368.42 638.36 365.26 638.36 362.62V360.2H636.42V362.58ZM643.84 370.62H645.8V360.18H643.84V370.62ZM640.94 352.04C639.12 355.06 635.34 357.94 631.58 359.14C632.02 359.6 632.48 360.38 632.72 360.92C635.78 359.7 638.86 357.5 641 355.02C643.06 357.5 646.04 359.6 649.22 360.64C649.5 360.12 650.1 359.32 650.54 358.9C647.2 358 643.88 355.92 642.1 353.6C642.22 353.44 642.34 353.28 642.44 353.1L640.94 352.04ZM667.04 367.84H664.42V359.12H667.04V367.84ZM654.86 359.12H657.36V367.84H654.86V359.12ZM662.74 361H659.02V359.12H662.74V361ZM659.02 365.86H662.74V367.84H659.02V365.86ZM662.74 364.38H659.02V362.48H662.74V364.38ZM669.88 355.22V353.46H652.2V355.22H659.66C659.54 355.94 659.38 356.74 659.22 357.42H653.06V370.6H654.86V369.56H667.04V370.6H668.94V357.42H661.14C661.34 356.74 661.58 355.96 661.82 355.22H669.88ZM678.76 358.22H672.82V359.68H678.76V359.2C679.12 359.5 679.68 360.16 679.9 360.52C682.34 359.12 682.86 356.96 682.86 355.12V354.64H685.76V357.36C685.76 359.08 686.08 359.74 687.62 359.74H688.8C689.18 359.74 689.6 359.72 689.84 359.62C689.78 359.2 689.74 358.54 689.7 358.06C689.46 358.14 689.04 358.18 688.8 358.18H687.78C687.5 358.18 687.48 357.98 687.48 357.42V352.92H681.16V355.08C681.16 356.42 680.84 357.96 678.76 359.1V358.22ZM672.82 362.32H678.8V360.88H672.82V362.32ZM679.6 355.56H675.56L677 354.74C676.7 354.02 676.06 352.96 675.52 352.12L674.06 352.86C674.58 353.68 675.2 354.82 675.52 355.56H671.96V357.04H679.6V355.56ZM686.86 362.64C686.24 363.96 685.38 365.08 684.34 366.02C683.22 365.06 682.34 363.94 681.72 362.64H686.86ZM677.16 367.92H674.42V365.06H677.16V367.92ZM688.06 360.84L687.74 360.9H679.32V362.64H681.14L680.06 363.02C680.78 364.6 681.74 365.96 682.9 367.14C681.66 367.92 680.26 368.5 678.78 368.88V363.56H672.82V370.32H674.42V369.42H678.78V369.14C679.08 369.58 679.38 370.16 679.54 370.58C681.28 370.06 682.92 369.34 684.34 368.34C685.72 369.32 687.3 370.06 689.12 370.52C689.38 370 689.9 369.22 690.28 368.84C688.62 368.48 687.12 367.9 685.84 367.12C687.34 365.64 688.52 363.76 689.2 361.34L688.06 360.84ZM700.58 355.56H696.08L697.54 354.74C697.22 354.02 696.6 352.96 696.04 352.12L694.58 352.86C695.12 353.68 695.72 354.82 696.04 355.56H692.32V357.04H700.58V355.56ZM699.7 360.86H693.18V362.3H699.7V360.86ZM698.14 365.06V367.92H694.9V365.06H698.14ZM699.74 363.56H693.3V370.32H694.9V369.42H699.74V363.56ZM693.18 359.68H699.74V358.22H693.18V359.68ZM710.08 358.98H706.16V352.6H704.24V358.98H700.54V360.8H704.24V370.58H706.16V360.8H710.08V358.98Z" fill="#686868"/>
<path d="M830.64 312.54C829.46 314.12 827.24 315.76 825.36 316.72C825.86 317.06 826.38 317.62 826.7 318.04C828.72 316.9 830.92 315.12 832.4 313.24L830.64 312.54ZM831.14 317.98C829.9 319.7 827.56 321.44 825.6 322.46C826.08 322.82 826.62 323.38 826.92 323.78C829.02 322.56 831.32 320.66 832.84 318.7L831.14 317.98ZM819.06 319.92V315.14H821.86V319.92H819.06ZM825.72 321.66V319.92H823.68V315.14H825.44V313.42H815.18V315.14H817.32V319.92H814.86V321.66H817.3C817.22 324.46 816.76 327.22 814.7 329.46C815.12 329.72 815.8 330.34 816.08 330.72C818.44 328.18 818.96 324.94 819.04 321.66H821.86V330.58H823.68V321.66H825.72ZM831.54 323.3C830.1 325.76 827.4 327.88 824.58 329.06C825.06 329.46 825.6 330.08 825.9 330.56C828.9 329.1 831.62 326.8 833.3 324L831.54 323.3ZM838.98 318.72C838.98 318.96 838.96 319.22 838.94 319.48H837.18V317.16H835.68V320.98H838.48C838.02 321.78 837.2 322.56 835.7 323.18C836.04 323.42 836.64 324.08 836.86 324.44C838.88 323.56 839.86 322.3 840.3 320.98H842.5V321.5H844.04V317.16H842.5V319.48H840.62C840.64 319.24 840.64 318.98 840.64 318.76V316.36H844.66V314.86H842.16C842.56 314.28 842.94 313.58 843.36 312.88L841.76 312.4C841.48 313.12 840.94 314.14 840.48 314.86H838.42L839.14 314.48C838.88 313.9 838.3 313.02 837.74 312.38L836.46 312.98C836.88 313.52 837.36 314.28 837.62 314.86H835.02V316.36H838.98V318.72ZM850.56 314.54V315.9H847.16V314.54H850.56ZM846.98 318.76C847.06 318.26 847.1 317.76 847.14 317.3H850.56V318.76H846.98ZM844.9 328.28V326.42H850.96V324.86H844.9V323.68H844.78C845.78 322.7 846.36 321.46 846.7 320.18H850.56V322.12C850.56 322.36 850.48 322.44 850.22 322.44C850 322.44 849.18 322.44 848.36 322.4C848.56 322.86 848.8 323.58 848.86 324.06C850.14 324.06 850.98 324.04 851.56 323.76C852.14 323.48 852.3 323 852.3 322.14V313.04H845.52V316.28C845.52 318.3 845.26 320.98 843.24 322.92C843.6 323.08 844.26 323.44 844.6 323.68H843V324.86H837.04V326.42H843V328.28H835.02V329.9H852.98V328.28H844.9ZM862.66 323.06C862.26 322.66 860.74 321.18 859.94 320.44C860.92 319.14 861.76 317.72 862.36 316.22L861.36 315.52L861.02 315.6H859.14L860.34 314.78C860 314.08 859.24 313.04 858.52 312.3L857.12 313.18C857.74 313.9 858.42 314.88 858.8 315.6H855.1V317.28H860.04C858.76 319.6 856.64 321.8 854.54 323C854.78 323.36 855.18 324.34 855.32 324.84C856.16 324.3 857.04 323.6 857.86 322.82V330.58H859.66V322.36C860.34 323.14 861.1 324.04 861.5 324.6L862.66 323.06ZM865.14 320.76H870.34V322.46H865.14V320.76ZM865.14 317.66H870.34V319.34H865.14V317.66ZM865.14 314.58H870.34V316.22H865.14V314.58ZM870.28 328.88C869.92 328.88 869.88 328.8 869.88 328.3V323.96H872.12V313.08H863.44V323.96H865C864.76 326.58 864.12 328.3 860.94 329.28C861.28 329.58 861.74 330.22 861.92 330.64C865.52 329.4 866.38 327.22 866.68 323.96H868.14V328.32C868.14 329.98 868.5 330.5 870 330.5H871.5C872.76 330.5 873.2 329.84 873.36 327.18C872.88 327.06 872.16 326.78 871.82 326.48C871.76 328.6 871.68 328.88 871.32 328.88H870.28ZM885.72 314.56C885.5 314.34 885.2 314.08 884.84 313.82C885.24 313.46 885.58 313.06 885.86 312.66L884.8 312.36C884.58 312.66 884.3 312.96 883.98 313.24C883.6 313.02 883.24 312.8 882.88 312.62L882.16 313.28C882.48 313.46 882.82 313.64 883.16 313.86C882.68 314.2 882.18 314.48 881.66 314.7C881.92 314.88 882.34 315.3 882.5 315.48C883 315.22 883.56 314.88 884.04 314.48C884.42 314.78 884.74 315.06 884.98 315.3L885.72 314.56ZM877.16 319.74H890.8V321.4H892.5V318.52H890.56C890.7 316.96 890.8 314.72 890.86 312.92H886.5V314.1H889.16L889.12 314.86H886.72V315.92H889.08L889.02 316.68H886.64V317.74H888.94L888.88 318.52H882.8C883.28 318.24 883.76 317.92 884.22 317.56C884.62 317.88 885 318.2 885.26 318.48L886.04 317.74C885.78 317.48 885.42 317.18 885 316.86C885.42 316.46 885.76 316.06 886.06 315.62L884.98 315.32C884.74 315.64 884.48 315.96 884.14 316.26C883.74 316.02 883.36 315.78 882.98 315.58L882.24 316.24C882.6 316.44 882.96 316.68 883.32 316.92C882.78 317.3 882.22 317.64 881.62 317.92C881.82 318.06 882.1 318.3 882.32 318.52H879.22L879.18 317.74H881.44V316.68H879.12L879.06 315.92H881.36V314.86H879L878.96 314.22C879.9 313.9 880.98 313.48 881.82 313.02L880.8 312.24C879.92 312.7 878.38 313.38 877.28 313.74L877.3 313.76L877.58 318.52H875.52V321.4H877.16V319.74ZM880.08 325.24H887.76V326.1H880.08V325.24ZM880.08 323.4H887.76V324.24H880.08V323.4ZM880.08 321.58H887.76V322.42H880.08V321.58ZM887.86 328.88C887 328.88 886.84 328.84 886.84 328.38V327.12H889.6V320.54H878.32V327.12H880.56C879.98 328.34 878.62 328.88 874.82 329.16C875.1 329.52 875.5 330.16 875.62 330.58C880.1 330.1 881.74 329.12 882.44 327.12H885.04V328.38C885.04 329.92 885.56 330.34 887.66 330.34H890.86C892.46 330.34 892.94 329.8 893.14 327.64C892.68 327.56 891.96 327.34 891.6 327.08C891.5 328.66 891.38 328.88 890.66 328.88H887.86Z" fill="#686868"/>
<defs>
<filter id="filter0_d" x="33" y="131" width="177" height="182" filterUnits="userSpaceOnUse" color-interpolation-filters="sRGB">
<feFlood flood-opacity="0" result="BackgroundImageFix"/>
<feColorMatrix in="SourceAlpha" type="matrix" values="0 0 0 0 0 0 0 0 0 0 0 0 0 0 0 0 0 0 127 0"/>
<feMorphology radius="8" operator="erode" in="SourceAlpha" result="effect1_dropShadow"/>
<feOffset dy="22"/>
<feGaussianBlur stdDeviation="12.5"/>
<feColorMatrix type="matrix" values="0 0 0 0 0.7875 0 0 0 0 0.7875 0 0 0 0 0.7875 0 0 0 0.25 0"/>
<feBlend mode="normal" in2="BackgroundImageFix" result="effect1_dropShadow"/>
<feBlend mode="normal" in="SourceGraphic" in2="effect1_dropShadow" result="shape"/>
</filter>
<filter id="filter1_d" x="216" y="130" width="177" height="183" filterUnits="userSpaceOnUse" color-interpolation-filters="sRGB">
<feFlood flood-opacity="0" result="BackgroundImageFix"/>
<feColorMatrix in="SourceAlpha" type="matrix" values="0 0 0 0 0 0 0 0 0 0 0 0 0 0 0 0 0 0 127 0"/>
<feMorphology radius="8" operator="erode" in="SourceAlpha" result="effect1_dropShadow"/>
<feOffset dy="22"/>
<feGaussianBlur stdDeviation="12.5"/>
<feColorMatrix type="matrix" values="0 0 0 0 0.7875 0 0 0 0 0.7875 0 0 0 0 0.7875 0 0 0 0.25 0"/>
<feBlend mode="normal" in2="BackgroundImageFix" result="effect1_dropShadow"/>
<feBlend mode="normal" in="SourceGraphic" in2="effect1_dropShadow" result="shape"/>
</filter>
<filter id="filter2_d" x="399" y="131" width="177" height="183" filterUnits="userSpaceOnUse" color-interpolation-filters="sRGB">
<feFlood flood-opacity="0" result="BackgroundImageFix"/>
<feColorMatrix in="SourceAlpha" type="matrix" values="0 0 0 0 0 0 0 0 0 0 0 0 0 0 0 0 0 0 127 0"/>
<feMorphology radius="8" operator="erode" in="SourceAlpha" result="effect1_dropShadow"/>
<feOffset dy="22"/>
<feGaussianBlur stdDeviation="12.5"/>
<feColorMatrix type="matrix" values="0 0 0 0 0.7875 0 0 0 0 0.7875 0 0 0 0 0.7875 0 0 0 0.25 0"/>
<feBlend mode="normal" in2="BackgroundImageFix" result="effect1_dropShadow"/>
<feBlend mode="normal" in="SourceGraphic" in2="effect1_dropShadow" result="shape"/>
</filter>
<filter id="filter3_d" x="582" y="130" width="177" height="183" filterUnits="userSpaceOnUse" color-interpolation-filters="sRGB">
<feFlood flood-opacity="0" result="BackgroundImageFix"/>
<feColorMatrix in="SourceAlpha" type="matrix" values="0 0 0 0 0 0 0 0 0 0 0 0 0 0 0 0 0 0 127 0"/>
<feMorphology radius="8" operator="erode" in="SourceAlpha" result="effect1_dropShadow"/>
<feOffset dy="22"/>
<feGaussianBlur stdDeviation="12.5"/>
<feColorMatrix type="matrix" values="0 0 0 0 0.7875 0 0 0 0 0.7875 0 0 0 0 0.7875 0 0 0 0.25 0"/>
<feBlend mode="normal" in2="BackgroundImageFix" result="effect1_dropShadow"/>
<feBlend mode="normal" in="SourceGraphic" in2="effect1_dropShadow" result="shape"/>
</filter>
<filter id="filter4_d" x="765" y="130" width="177" height="183" filterUnits="userSpaceOnUse" color-interpolation-filters="sRGB">
<feFlood flood-opacity="0" result="BackgroundImageFix"/>
<feColorMatrix in="SourceAlpha" type="matrix" values="0 0 0 0 0 0 0 0 0 0 0 0 0 0 0 0 0 0 127 0"/>
<feMorphology radius="8" operator="erode" in="SourceAlpha" result="effect1_dropShadow"/>
<feOffset dy="22"/>
<feGaussianBlur stdDeviation="12.5"/>
<feColorMatrix type="matrix" values="0 0 0 0 0.7875 0 0 0 0 0.7875 0 0 0 0 0.7875 0 0 0 0.25 0"/>
<feBlend mode="normal" in2="BackgroundImageFix" result="effect1_dropShadow"/>
<feBlend mode="normal" in="SourceGraphic" in2="effect1_dropShadow" result="shape"/>
</filter>
</defs>
</svg>
