<svg width="1010" height="487" viewBox="0 0 1010 487" fill="none" xmlns="http://www.w3.org/2000/svg">
<rect width="1010" height="487" fill="#FAFBFC"/>
<path d="M66 202C112 156 182 99 316 99C411.653 99 471.132 149.644 526.569 202H925C899 251 825 316 730 316C640.576 316 585.886 258.02 526.569 202H66Z" fill="url(#paint0_linear)"/>
<path d="M986.32 202L969 184.679L951.679 202L969 219.321L986.32 202ZM21 205H969V199H21V205Z" fill="url(#paint1_linear)"/>
<g filter="url(#filter0_d)">
<circle cx="121.5" cy="202.5" r="71.5" fill="url(#paint2_linear)"/>
</g>
<path d="M103.395 196.363H107.133C107.836 196.348 108.453 196.508 108.984 196.844C109.336 197.047 109.609 197.324 109.805 197.676C109.992 198.066 110.086 198.547 110.086 199.117C110.086 199.805 109.855 200.43 109.395 200.992C108.91 201.57 108.188 201.867 107.227 201.883H103.395V196.363ZM100.805 211H103.395V204.332H107.332C109.09 204.301 110.426 203.738 111.34 202.645C112.23 201.605 112.676 200.453 112.676 199.188C112.676 198.25 112.5 197.438 112.148 196.75C111.812 196.039 111.375 195.492 110.836 195.109C110.195 194.602 109.562 194.266 108.938 194.102C108.312 193.977 107.664 193.914 106.992 193.914H100.805V211Z" fill="#FF5C7A"/>
<path d="M114.809 208.047C114.809 209.117 115.113 209.879 115.723 210.332C116.301 210.777 117.035 211 117.926 211H119.016V208.691H118.172C117.562 208.691 117.258 208.414 117.258 207.859V193.914H114.809V208.047Z" fill="#FF5C7A"/>
<path d="M127.383 211H129.832V202.691C129.816 201.207 129.352 200.16 128.438 199.551C127.523 198.957 126.301 198.668 124.77 198.684C122.957 198.652 121.586 199.246 120.656 200.465L122.578 201.93C122.789 201.578 123.078 201.328 123.445 201.18C123.797 201.055 124.277 200.992 124.887 200.992C126.566 200.961 127.398 201.48 127.383 202.551V203.828H123.996C122.699 203.844 121.715 204.195 121.043 204.883C120.371 205.555 120.035 206.402 120.035 207.426C120.035 208.496 120.422 209.375 121.195 210.062C121.93 210.766 122.977 211.125 124.336 211.141C125.164 211.141 125.812 211.039 126.281 210.836C126.758 210.641 127.109 210.336 127.336 209.922H127.383V211ZM127.383 206.723C127.383 207.637 127.191 208.223 126.809 208.48C126.387 208.738 125.664 208.859 124.641 208.844C123.828 208.844 123.246 208.684 122.895 208.363C122.527 208.074 122.344 207.723 122.344 207.309C122.328 206.363 123.031 205.875 124.453 205.844H127.383V206.723Z" fill="#FF5C7A"/>
<path d="M132.996 211H135.445V203.758C135.445 202.906 135.676 202.258 136.137 201.812C136.59 201.359 137.168 201.133 137.871 201.133C138.574 201.133 139.148 201.359 139.594 201.812C140.047 202.258 140.273 202.906 140.273 203.758V211H142.723V202.914C142.684 201.523 142.25 200.469 141.422 199.75C140.586 199.039 139.664 198.684 138.656 198.684C137.352 198.684 136.297 199.164 135.492 200.125H135.445V198.836H132.996V211Z" fill="#FF5C7A"/>
<path d="M87.0261 338.88V339.996H94.0821L93.4521 341.364H88.6101V346.854H89.8521V342.462H92.5521V346.674H93.7761V342.462H96.4581V346.674H97.7001V342.462H100.58V345.072C100.58 345.504 100.364 345.72 99.9321 345.72L98.6721 345.666L98.9781 346.782H100.292C101.3 346.782 101.822 346.296 101.822 345.342V341.364H94.7661L95.3961 339.996H102.974V338.88H87.0261ZM88.1241 330.942V332.004H94.3701V333.138H87.3861V336.81H88.6281V334.164H94.3701V338.106H95.6301V334.164H101.372V336.81H102.614V333.138H95.6301V332.004H101.894V330.942H88.1241ZM90.1401 334.812L89.7081 335.658C90.8601 335.766 91.9761 335.91 93.0381 336.108L93.3801 335.298C92.3361 335.082 91.2561 334.92 90.1401 334.812ZM93.0741 336.774C92.3001 336.918 91.0941 337.026 89.4741 337.098L89.7621 338.016C91.4181 337.908 92.6061 337.782 93.3621 337.602L93.0741 336.774ZM96.8541 336.108C98.1501 336 99.2841 335.856 100.256 335.658L99.9321 334.776C98.9781 334.992 97.8981 335.136 96.6741 335.208L96.8541 336.108ZM97.0161 336.792L96.6381 337.584C97.8261 337.728 98.9781 337.926 100.094 338.196L100.454 337.314C99.3741 337.08 98.2221 336.9 97.0161 336.792Z" fill="#686868"/>
<path d="M105.296 333.606V334.848H112.46V344.874C112.46 345.306 112.244 345.54 111.83 345.54C111.074 345.54 110.3 345.504 109.472 345.45L109.742 346.692H112.28C113.288 346.692 113.792 346.188 113.792 345.18V338.124C115.286 341.004 117.482 343.434 120.362 345.414L121.262 344.352C119.282 343.092 117.608 341.616 116.258 339.96C117.644 339.024 118.832 337.926 119.822 336.684L118.85 335.82C117.932 337.026 116.834 338.106 115.538 339.042C114.854 338.088 114.278 337.08 113.792 336V334.848H120.668V333.606H113.792V330.276H112.46V333.606H105.296ZM107.132 336.198L106.25 337.044C107.672 338.088 108.788 339.06 109.616 339.996L110.498 339.114C109.598 338.142 108.464 337.17 107.132 336.198ZM116.15 330.438L115.304 331.23C116.366 332.058 117.212 332.814 117.824 333.534L118.706 332.652C118.022 331.914 117.158 331.176 116.15 330.438ZM111.146 339.906C109.454 341.634 107.438 343.11 105.098 344.298L105.656 345.576C107.96 344.28 109.904 342.768 111.47 341.076L111.146 339.906Z" fill="#686868"/>
<path d="M127.76 331.068C126.644 333.66 125.006 335.73 122.81 337.26L123.836 338.142C125.96 336.63 127.652 334.434 128.948 331.554L127.76 331.068ZM130.82 330.87V332.13H133.394C134.492 334.668 136.166 336.702 138.416 338.214L139.244 337.062C136.868 335.514 135.194 333.444 134.24 330.87H130.82ZM129.146 338.7C128.768 340.392 128.21 341.76 127.454 342.804C126.59 343.884 125.33 344.874 123.638 345.774L124.466 346.854C126.32 345.828 127.724 344.676 128.66 343.38C129.434 342.228 130.028 340.662 130.46 338.7H134.888C134.798 341.508 134.6 343.326 134.276 344.19C133.97 345.018 133.34 345.432 132.368 345.432C131.414 345.432 130.406 345.414 129.326 345.378L129.686 346.656H133.034C133.934 346.602 134.582 346.314 134.978 345.792C135.392 345.252 135.68 344.28 135.86 342.912C136.04 341.526 136.148 339.708 136.202 337.458H125.51V338.7H129.146Z" fill="#686868"/>
<path d="M144.968 337.386C145.508 338.052 146.138 338.934 146.858 340.05L147.56 339.024C146.678 337.908 145.814 336.918 144.968 336.036V335.064H147.398V333.822H144.968V330.294H143.69V333.822H141.062V335.064H143.618C143.042 337.332 142.07 339.366 140.702 341.13L141.26 342.534C142.268 341.04 143.078 339.384 143.69 337.548V346.746H144.968V337.386ZM155.93 330.366C153.716 331.194 151.232 331.644 148.46 331.716V337.494C148.352 340.986 147.542 343.722 146.066 345.702L146.984 346.656C148.676 344.388 149.594 341.328 149.72 337.494V337.296H153.05V346.764H154.346V337.296H157.028V336.054H149.72V332.814C152.24 332.688 154.526 332.256 156.578 331.518L155.93 330.366Z" fill="#686868"/>
<path d="M94.5321 366.014V375.968H96.3861C96.1701 378.146 94.9641 379.712 92.7501 380.684L93.4341 381.764C95.9721 380.558 97.3581 378.632 97.5741 375.968H98.8881V380.27C98.8881 381.098 99.3741 381.53 100.382 381.53H101.39C102.164 381.494 102.668 381.278 102.902 380.9C103.136 380.504 103.262 379.442 103.262 377.732L102.146 377.336C102.146 378.416 102.11 379.19 102.038 379.676C101.966 380.108 101.732 380.324 101.336 380.342H100.418C100.202 380.342 100.112 380.234 100.112 380.054V375.968H102.038V366.014H94.5321ZM100.85 374.87H95.7381V372.908H100.85V374.87ZM95.7381 371.864V369.974H100.85V371.864H95.7381ZM95.7381 368.93V367.094H100.85V368.93H95.7381ZM87.2961 368.228V369.488H89.9241V372.62H87.0441V373.862H89.8521C89.5821 376.958 88.5741 379.262 86.8101 380.792L87.7461 381.602C89.2221 380.306 90.2121 378.524 90.7521 376.256C91.4181 376.94 92.2461 377.912 93.2361 379.19L93.9561 378.092C92.9481 376.976 91.9401 375.95 90.9681 375.05C91.0221 374.654 91.0761 374.258 91.1121 373.862H93.7041V372.62H91.1661C91.1661 372.512 91.1841 372.404 91.1841 372.296V369.488H93.4521V368.228H91.1841V365.276H89.9241V368.228H87.2961Z" fill="#686868"/>
<path d="M114.062 370.694V368.984H115.628V368.012H114.062V366.284H110.75V365.312H109.526V366.284H106.286V367.148H109.58V368.066H104.918V368.912H109.58V369.848H106.16V370.694H109.526V371.522H105.674V372.35H109.526V373.178H105.08V374.042H115.196V373.178H110.75V372.35H114.62V371.522H110.75V370.694H114.062ZM110.696 367.148H112.874V368.066H110.696V367.148ZM110.696 368.912H112.874V369.848H110.696V368.912ZM105.98 374.78V379.334H114.296V374.78H105.98ZM113.108 378.524H110.714V377.426H113.108V378.524ZM109.562 378.524H107.15V377.426H109.562V378.524ZM107.15 376.652V375.59H109.562V376.652H107.15ZM110.714 375.59H113.108V376.652H110.714V375.59ZM115.052 380.108C112.532 380.216 109.202 380.306 105.098 380.342L105.242 381.386C109.58 381.278 112.856 381.17 115.052 381.062V380.108ZM119.03 381.656C120.02 381.656 120.524 381.134 120.524 380.126V365.348H119.264V379.82C119.264 380.288 119.03 380.54 118.598 380.54C118.022 380.54 117.41 380.504 116.78 380.45L117.05 381.656H119.03ZM116.384 366.932V378.11H117.536V366.932H116.384Z" fill="#686868"/>
<path d="M125.168 368.804V378.632H137.12V368.804H131.162C131.306 368.282 131.414 367.742 131.504 367.166H138.722V365.978H123.278V367.166H130.208C130.136 367.724 130.01 368.264 129.848 368.804H125.168ZM135.842 377.426H126.428V375.608H135.842V377.426ZM126.428 374.492V372.764H135.842V374.492H126.428ZM126.428 371.648V369.992H135.842V371.648H126.428ZM133.232 378.83L132.62 379.73C134.6 380.234 136.526 380.918 138.416 381.8L139.1 380.756C137.336 380 135.374 379.352 133.232 378.83ZM128.66 378.866C127.328 379.658 125.366 380.288 122.792 380.774L123.404 381.836C125.978 381.296 127.958 380.612 129.344 379.748L128.66 378.866Z" fill="#686868"/>
<path d="M140.99 366.014V367.274H148.478C148.334 368.066 148.1 368.822 147.812 369.578H142.016V381.854H143.258V380.954H154.796V381.854H156.038V369.578H149.126C149.414 368.84 149.648 368.066 149.792 367.274H157.01V366.014H140.99ZM143.258 379.766V370.748H145.742V379.766H143.258ZM146.948 379.766V377.462H151.052V379.766H146.948ZM152.258 379.766V370.748H154.796V379.766H152.258ZM146.948 376.328V374.132H151.052V376.328H146.948ZM146.948 372.98V370.748H151.052V372.98H146.948Z" fill="#686868"/>
<g filter="url(#filter1_d)">
<ellipse cx="304.5" cy="202" rx="71.5" ry="72" fill="white"/>
</g>
<path d="M282.84 197H285.43V179.914H282.84V197Z" fill="#FF665C"/>
<path d="M292.051 190.883L294.523 183.418H294.57L297.043 190.883H292.051ZM299.105 197H301.836L295.625 179.914H293.457L287.246 197H289.988L291.301 193.18H297.781L299.105 197Z" fill="#FF665C"/>
<path d="M312.582 183.559C312.582 183.098 312.75 182.707 313.086 182.387C313.391 182.082 313.781 181.93 314.258 181.93C314.758 181.93 315.168 182.082 315.488 182.387C315.793 182.707 315.945 183.098 315.945 183.559C315.945 183.988 315.801 184.383 315.512 184.742C315.191 185.094 314.637 185.43 313.848 185.75C313.48 185.398 313.188 185.027 312.969 184.637C312.711 184.27 312.582 183.91 312.582 183.559ZM318.746 195.277L320.328 197H323.211L320.328 193.566C320.812 193.043 321.246 192.453 321.629 191.797C322.012 191.156 322.324 190.516 322.566 189.875L320.375 189.008C320.055 190.031 319.559 190.984 318.887 191.867L315.242 187.473C317.18 186.512 318.133 185.238 318.102 183.652C318.086 182.582 317.734 181.672 317.047 180.922C316.359 180.172 315.43 179.789 314.258 179.773C313.094 179.789 312.168 180.172 311.48 180.922C310.777 181.672 310.426 182.582 310.426 183.652C310.426 184.23 310.566 184.793 310.848 185.34C311.09 185.895 311.418 186.414 311.832 186.898C309.676 188.094 308.59 189.758 308.574 191.891C308.59 193.328 309.094 194.551 310.086 195.559C311.047 196.582 312.344 197.109 313.977 197.141C314.883 197.125 315.73 196.941 316.52 196.59C317.316 196.238 318.059 195.801 318.746 195.277ZM313.203 188.527L317.328 193.473C316.148 194.496 315.004 195 313.895 194.984C313.035 194.984 312.301 194.68 311.691 194.07C311.066 193.492 310.746 192.758 310.73 191.867C310.715 190.617 311.539 189.504 313.203 188.527Z" fill="#FF665C"/>
<path d="M265.227 220.852L263.527 222.797C265.348 224.359 267.523 225.141 270.055 225.141C273.969 225.094 275.969 223.438 276.055 220.172C276.055 218.961 275.676 217.898 274.918 216.984C274.152 216.055 272.969 215.48 271.367 215.262C270.555 215.16 269.914 215.07 269.445 214.992C268.602 214.836 267.988 214.555 267.605 214.148C267.223 213.75 267.031 213.305 267.031 212.812C267.047 211.992 267.332 211.375 267.887 210.961C268.418 210.562 269.082 210.363 269.879 210.363C271.418 210.395 272.828 210.832 274.109 211.676L275.551 209.543C273.98 208.41 272.133 207.82 270.008 207.773C268.242 207.789 266.879 208.25 265.918 209.156C264.926 210.07 264.43 211.273 264.43 212.766C264.43 214.008 264.824 215.062 265.613 215.93C266.379 216.773 267.496 217.316 268.965 217.559C269.785 217.676 270.539 217.781 271.227 217.875C272.727 218.133 273.469 218.898 273.453 220.172C273.422 221.727 272.297 222.52 270.078 222.551C268.203 222.535 266.586 221.969 265.227 220.852Z" fill="#FF665C"/>
<path d="M278.797 225H281.387V207.914H278.797V225Z" fill="#FF665C"/>
<path d="M284.902 212.836H283.684V214.699H284.902V222C284.902 222.961 285.184 223.695 285.746 224.203C286.293 224.734 286.996 225 287.855 225H289.133V222.691H288.219C287.625 222.707 287.336 222.406 287.352 221.789V214.699H289.133V212.836H287.352V209.133H284.902V212.836Z" fill="#FF665C"/>
<path d="M300.875 219.844V217.828C300.859 216.227 300.363 214.969 299.387 214.055C298.426 213.156 297.25 212.699 295.859 212.684C295.281 212.684 294.695 212.789 294.102 213C293.5 213.211 292.957 213.555 292.473 214.031C291.996 214.5 291.605 215.141 291.301 215.953C290.996 216.75 290.844 217.75 290.844 218.953C290.844 220.203 291.02 221.219 291.371 222C291.691 222.812 292.109 223.445 292.625 223.898C292.891 224.117 293.176 224.301 293.48 224.449C293.77 224.621 294.066 224.758 294.371 224.859C294.98 225.047 295.605 225.141 296.246 225.141C297.926 225.156 299.387 224.5 300.629 223.172L298.859 221.66C298.078 222.449 297.191 222.844 296.199 222.844C295.348 222.844 294.66 222.586 294.137 222.07C293.574 221.562 293.293 220.82 293.293 219.844H300.875ZM293.293 217.828C293.34 216.883 293.594 216.168 294.055 215.684C294.523 215.223 295.125 214.992 295.859 214.992C296.594 214.992 297.195 215.223 297.664 215.684C298.141 216.168 298.395 216.883 298.426 217.828H293.293Z" fill="#FF665C"/>
<path d="M303.582 225H306.031V217.758C306.031 216.906 306.266 216.258 306.734 215.812C307.18 215.359 307.754 215.133 308.457 215.133C309.16 215.133 309.738 215.359 310.191 215.812C310.637 216.258 310.859 216.906 310.859 217.758V225H313.309V217.758C313.309 216.906 313.539 216.258 314 215.812C314.453 215.359 315.031 215.133 315.734 215.133C316.438 215.133 317.012 215.359 317.457 215.812C317.902 216.258 318.125 216.906 318.125 217.758V225H320.574V216.914C320.543 215.523 320.113 214.469 319.285 213.75C318.449 213.039 317.527 212.684 316.52 212.684C314.918 212.668 313.641 213.199 312.688 214.277C312.266 213.809 311.801 213.422 311.293 213.117C310.777 212.844 310.098 212.699 309.254 212.684C307.941 212.684 306.883 213.164 306.078 214.125H306.031V212.836H303.582V225Z" fill="#FF665C"/>
<path d="M330.289 225H332.738V216.691C332.723 215.207 332.258 214.16 331.344 213.551C330.43 212.957 329.207 212.668 327.676 212.684C325.863 212.652 324.492 213.246 323.562 214.465L325.484 215.93C325.695 215.578 325.984 215.328 326.352 215.18C326.703 215.055 327.184 214.992 327.793 214.992C329.473 214.961 330.305 215.48 330.289 216.551V217.828H326.902C325.605 217.844 324.621 218.195 323.949 218.883C323.277 219.555 322.941 220.402 322.941 221.426C322.941 222.496 323.328 223.375 324.102 224.062C324.836 224.766 325.883 225.125 327.242 225.141C328.07 225.141 328.719 225.039 329.188 224.836C329.664 224.641 330.016 224.336 330.242 223.922H330.289V225ZM330.289 220.723C330.289 221.637 330.098 222.223 329.715 222.48C329.293 222.738 328.57 222.859 327.547 222.844C326.734 222.844 326.152 222.684 325.801 222.363C325.434 222.074 325.25 221.723 325.25 221.309C325.234 220.363 325.938 219.875 327.359 219.844H330.289V220.723Z" fill="#FF665C"/>
<path d="M335.902 229.922H338.352V223.699C338.797 224.137 339.285 224.48 339.816 224.73C340.309 225.004 340.867 225.141 341.492 225.141C342.25 225.125 342.898 224.973 343.438 224.684C343.984 224.402 344.426 224.027 344.762 223.559C345.098 223.16 345.328 222.648 345.453 222.023C345.57 221.398 345.629 220.367 345.629 218.93C345.629 217.453 345.57 216.406 345.453 215.789C345.328 215.164 345.098 214.66 344.762 214.277C344.074 213.254 342.984 212.723 341.492 212.684C340.211 212.723 339.164 213.195 338.352 214.102V212.836H335.902V229.922ZM340.754 222.691C340.207 222.691 339.773 222.574 339.453 222.34C339.117 222.113 338.871 221.816 338.715 221.449C338.566 221.082 338.469 220.672 338.422 220.219C338.375 219.789 338.352 219.359 338.352 218.93C338.352 218.469 338.375 218.012 338.422 217.559C338.469 217.129 338.566 216.73 338.715 216.363C338.871 215.996 339.117 215.699 339.453 215.473C339.773 215.246 340.207 215.133 340.754 215.133C341.332 215.133 341.789 215.23 342.125 215.426C342.461 215.637 342.699 215.926 342.84 216.293C342.996 216.645 343.102 217.051 343.156 217.512C343.172 217.973 343.18 218.445 343.18 218.93C343.18 219.391 343.172 219.84 343.156 220.277C343.102 220.723 342.996 221.129 342.84 221.496C342.699 221.848 342.461 222.137 342.125 222.363C341.789 222.582 341.332 222.691 340.754 222.691Z" fill="#FF665C"/>
<path d="M276.054 332.4H281.832C281.49 332.976 281.112 333.48 280.698 333.912L281.598 334.614C282.174 333.966 282.696 333.174 283.164 332.238V331.32H276.72C276.864 331.014 276.99 330.69 277.116 330.366L275.928 330.222C275.46 331.5 274.56 332.58 273.246 333.462L273.966 334.416C274.794 333.822 275.496 333.156 276.054 332.4ZM268.44 331.338V332.454H272.868V331.338H268.44ZM268.08 334.578V335.712H273.246V334.578H268.08ZM278.16 332.724C277.692 334.488 276.216 335.604 273.732 336.054L274.344 336.99C276.252 336.612 277.638 335.838 278.502 334.65C279.852 336.036 281.508 336.882 283.47 337.188L283.992 336.108C281.976 335.856 280.302 335.064 279.006 333.75C279.114 333.498 279.204 333.228 279.276 332.94L278.16 332.724ZM270.204 337.044V344.172H281.832V337.044H270.204ZM280.554 343.128H271.482V341.976H280.554V343.128ZM271.482 341.094V340.05H280.554V341.094H271.482ZM271.482 339.168V338.052H280.554V339.168H271.482ZM277.926 344.334L277.458 345.234C279.546 345.63 281.562 346.17 283.47 346.89L283.902 345.864C281.994 345.198 279.996 344.694 277.926 344.334ZM273.822 344.28C272.526 344.928 270.618 345.45 268.098 345.864L268.692 346.872C271.212 346.44 273.138 345.846 274.47 345.126L273.822 344.28Z" fill="#686868"/>
<path d="M292.38 337.692V338.934H294.54V346.71H295.8V338.934H297.996V337.692H295.8V332.382H298.644V336.756C298.644 340.968 299.022 343.848 299.778 345.36C300.192 346.17 300.696 346.584 301.272 346.584C301.524 346.584 301.722 346.404 301.902 346.044C302.118 345.558 302.28 344.478 302.352 342.786L301.326 342.3C301.29 343.236 301.254 343.956 301.2 344.46C301.128 344.892 301.056 345.126 300.984 345.126C300.84 345.126 300.678 344.82 300.498 344.244C300.102 342.822 299.904 340.32 299.904 336.756V331.122H292.434V332.382H294.54V337.692H292.38ZM285.882 332.652V333.858H292.002V332.652H289.104L289.716 332.418C289.536 331.77 289.284 331.032 288.96 330.24L287.718 330.582C288.042 331.23 288.312 331.932 288.564 332.652H285.882ZM286.548 335.28V336.432H291.3V335.28H286.548ZM286.548 337.782V338.934H291.3V337.782H286.548ZM291.444 340.446H286.422V346.656H287.61V345.648H290.256V346.512H291.444V340.446ZM287.61 344.478V341.616H290.256V344.478H287.61Z" fill="#686868"/>
<path d="M313.314 331.482V337.764H319.146V331.482H313.314ZM317.904 336.576H314.556V332.652H317.904V336.576ZM306.798 330.348V331.968H304.26V333.084H306.708C306.438 335.226 305.484 336.828 303.864 337.908L304.818 338.754C306.618 337.494 307.68 335.604 307.986 333.084H310.47C310.434 334.974 310.344 336.144 310.2 336.576C310.02 337.026 309.606 337.26 308.958 337.278L307.932 337.188L308.256 338.358C308.652 338.394 308.976 338.43 309.264 338.43C310.164 338.43 310.794 338.124 311.172 337.512C311.532 336.9 311.712 335.064 311.73 331.968H308.076V330.348H306.798ZM304.116 340.086V341.31H311.352V346.764H312.648V341.31H319.902V340.086H312.648V338.628H311.352V340.086H304.116ZM309.264 342.066C307.842 343.398 306.096 344.568 304.008 345.576L304.782 346.584C306.906 345.522 308.706 344.28 310.164 342.858L309.264 342.066ZM314.592 341.994L313.836 342.858C315.654 343.902 317.418 345.108 319.128 346.494L319.956 345.558C318.354 344.28 316.572 343.092 314.592 341.994Z" fill="#686868"/>
<path d="M330.054 330.24V331.608H327.858V332.634H330.054V333.876H328.182V334.866H330.054V336.108H327.426V337.134H332.178V338.286H328.434V342.822H327.264V343.884H328.434V346.746H329.604V343.884H335.994V345.18C335.994 345.522 335.76 345.702 335.328 345.702L333.87 345.666L334.158 346.728H335.706C336.678 346.728 337.164 346.296 337.164 345.45V343.884H338.28V342.822H337.164V338.286H333.366V337.134H338.19V336.108H335.58V334.866H337.452V333.876H335.58V332.634H337.776V331.608H335.58V330.24H334.392V331.608H331.26V330.24H330.054ZM329.604 342.822V341.472H332.178V342.822H329.604ZM333.366 342.822V341.472H335.994V342.822H333.366ZM331.26 336.108V334.866H334.392V336.108H331.26ZM331.26 333.876V332.634H334.392V333.876H331.26ZM335.994 340.572H333.366V339.258H335.994V340.572ZM332.178 339.258V340.572H329.604V339.258H332.178ZM325.374 337.602C325.77 338.286 326.256 339.186 326.796 340.284L327.498 339.24C326.778 338.124 326.058 337.134 325.374 336.252V335.064H327.156V333.822H325.374V330.294H324.114V333.822H321.954V335.064H324.024C323.538 337.35 322.728 339.384 321.612 341.148L322.116 342.444C322.926 341.058 323.592 339.528 324.114 337.836V346.746H325.374V337.602Z" fill="#686868"/>
<g filter="url(#filter2_d)">
<ellipse cx="487.5" cy="203" rx="71.5" ry="72" fill="white"/>
</g>
<path d="M459.582 207.219C458.863 208.773 457.777 209.551 456.324 209.551C455.715 209.551 455.191 209.422 454.754 209.164C454.309 208.945 453.949 208.66 453.676 208.309C453.34 207.941 453.117 207.461 453.008 206.867C452.883 206.273 452.82 205.137 452.82 203.457C452.82 201.777 452.883 200.633 453.008 200.023C453.117 199.445 453.34 198.973 453.676 198.605C453.949 198.254 454.309 197.961 454.754 197.727C455.191 197.5 455.715 197.379 456.324 197.363C457.152 197.379 457.855 197.617 458.434 198.078C458.988 198.562 459.371 199.148 459.582 199.836H462.324C462.051 198.406 461.395 197.207 460.355 196.238C459.316 195.277 457.973 194.789 456.324 194.773C454.98 194.789 453.859 195.109 452.961 195.734C452.047 196.352 451.383 197.055 450.969 197.844C450.711 198.258 450.52 198.801 450.395 199.473C450.277 200.145 450.219 201.473 450.219 203.457C450.219 205.41 450.277 206.73 450.395 207.418C450.457 207.785 450.535 208.09 450.629 208.332C450.73 208.566 450.844 208.812 450.969 209.07C451.383 209.859 452.047 210.555 452.961 211.156C453.859 211.781 454.98 212.109 456.324 212.141C457.809 212.141 459.094 211.719 460.18 210.875C461.234 210.023 461.949 208.805 462.324 207.219H459.582Z" fill="#FF665C"/>
<path d="M463.344 205.906C463.344 207.188 463.449 208.164 463.66 208.836C463.879 209.508 464.215 210.09 464.668 210.582C465.004 210.965 465.473 211.309 466.074 211.613C466.668 211.949 467.43 212.125 468.359 212.141C469.32 212.125 470.098 211.949 470.691 211.613C471.012 211.473 471.273 211.305 471.477 211.109C471.703 210.938 471.895 210.762 472.051 210.582C472.535 210.09 472.879 209.508 473.082 208.836C473.277 208.164 473.375 207.188 473.375 205.906C473.375 204.625 473.277 203.641 473.082 202.953C472.879 202.281 472.535 201.715 472.051 201.254C471.73 200.848 471.277 200.484 470.691 200.164C470.098 199.859 469.32 199.699 468.359 199.684C467.43 199.699 466.668 199.859 466.074 200.164C465.473 200.484 465.004 200.848 464.668 201.254C464.215 201.715 463.879 202.281 463.66 202.953C463.449 203.641 463.344 204.625 463.344 205.906ZM470.926 205.93C470.926 206.758 470.887 207.367 470.809 207.758C470.73 208.156 470.57 208.508 470.328 208.812C470.148 209.047 469.883 209.254 469.531 209.434C469.195 209.605 468.805 209.691 468.359 209.691C467.945 209.691 467.562 209.605 467.211 209.434C466.875 209.254 466.602 209.047 466.391 208.812C466.18 208.508 466.027 208.156 465.934 207.758C465.84 207.367 465.793 206.75 465.793 205.906C465.793 205.055 465.84 204.43 465.934 204.031C466.027 203.648 466.18 203.312 466.391 203.023C466.602 202.75 466.875 202.535 467.211 202.379C467.562 202.215 467.945 202.133 468.359 202.133C468.805 202.133 469.195 202.215 469.531 202.379C469.883 202.535 470.148 202.75 470.328 203.023C470.57 203.312 470.73 203.648 470.809 204.031C470.887 204.43 470.926 205.062 470.926 205.93Z" fill="#FF665C"/>
<path d="M475.941 212H478.391V204.758C478.391 203.906 478.621 203.258 479.082 202.812C479.535 202.359 480.113 202.133 480.816 202.133C481.52 202.133 482.094 202.359 482.539 202.812C482.992 203.258 483.219 203.906 483.219 204.758V212H485.668V203.914C485.629 202.523 485.195 201.469 484.367 200.75C483.531 200.039 482.609 199.684 481.602 199.684C480.297 199.684 479.242 200.164 478.438 201.125H478.391V199.836H475.941V212Z" fill="#FF665C"/>
<path d="M488.973 199.836H487.754V201.699H488.973V209C488.973 209.961 489.254 210.695 489.816 211.203C490.363 211.734 491.066 212 491.926 212H493.203V209.691H492.289C491.695 209.707 491.406 209.406 491.422 208.789V201.699H493.203V199.836H491.422V196.133H488.973V199.836Z" fill="#FF665C"/>
<path d="M504.945 206.844V204.828C504.93 203.227 504.434 201.969 503.457 201.055C502.496 200.156 501.32 199.699 499.93 199.684C499.352 199.684 498.766 199.789 498.172 200C497.57 200.211 497.027 200.555 496.543 201.031C496.066 201.5 495.676 202.141 495.371 202.953C495.066 203.75 494.914 204.75 494.914 205.953C494.914 207.203 495.09 208.219 495.441 209C495.762 209.812 496.18 210.445 496.695 210.898C496.961 211.117 497.246 211.301 497.551 211.449C497.84 211.621 498.137 211.758 498.441 211.859C499.051 212.047 499.676 212.141 500.316 212.141C501.996 212.156 503.457 211.5 504.699 210.172L502.93 208.66C502.148 209.449 501.262 209.844 500.27 209.844C499.418 209.844 498.73 209.586 498.207 209.07C497.645 208.562 497.363 207.82 497.363 206.844H504.945ZM497.363 204.828C497.41 203.883 497.664 203.168 498.125 202.684C498.594 202.223 499.195 201.992 499.93 201.992C500.664 201.992 501.266 202.223 501.734 202.684C502.211 203.168 502.465 203.883 502.496 204.828H497.363Z" fill="#FF665C"/>
<path d="M507.512 212H509.961V204.758C509.961 203.906 510.191 203.258 510.652 202.812C511.105 202.359 511.684 202.133 512.387 202.133C513.09 202.133 513.664 202.359 514.109 202.812C514.562 203.258 514.789 203.906 514.789 204.758V212H517.238V203.914C517.199 202.523 516.766 201.469 515.938 200.75C515.102 200.039 514.18 199.684 513.172 199.684C511.867 199.684 510.812 200.164 510.008 201.125H509.961V199.836H507.512V212Z" fill="#FF665C"/>
<path d="M520.543 199.836H519.324V201.699H520.543V209C520.543 209.961 520.824 210.695 521.387 211.203C521.934 211.734 522.637 212 523.496 212H524.773V209.691H523.859C523.266 209.707 522.977 209.406 522.992 208.789V201.699H524.773V199.836H522.992V196.133H520.543V199.836Z" fill="#FF665C"/>
<path d="M451.152 333.336V334.632H453.924C454.734 337.404 456.174 339.816 458.262 341.868C456.318 343.632 453.834 344.91 450.81 345.72L451.494 346.854C454.554 345.972 457.11 344.586 459.162 342.696C461.106 344.37 463.554 345.756 466.542 346.872L467.244 345.792C464.364 344.73 461.97 343.398 460.062 341.778C461.826 339.87 463.158 337.476 464.04 334.632H466.848V333.336H459.972C459.396 332.094 458.784 331.032 458.1 330.168L456.804 330.636C457.524 331.482 458.118 332.382 458.604 333.336H451.152ZM455.202 334.632H462.69C461.934 337.116 460.764 339.222 459.162 340.968C457.29 339.168 455.976 337.062 455.202 334.632Z" fill="#686868"/>
<path d="M475.758 333.174C475.398 333.678 475.002 334.2 474.606 334.722H469.854V335.766H473.76C473.328 336.27 472.878 336.774 472.41 337.314C473.634 337.548 474.876 337.818 476.136 338.124C474.552 338.628 472.392 338.898 469.674 338.898L470.376 339.96C473.454 339.924 475.938 339.456 477.81 338.556C479.628 339.042 481.428 339.618 483.228 340.266L483.984 339.276C482.328 338.736 480.708 338.25 479.124 337.836C479.862 337.296 480.546 336.612 481.176 335.766H484.182V334.722H476.028C476.316 334.362 476.604 333.966 476.928 333.534L475.758 333.174ZM477.648 337.458C476.496 337.188 475.38 336.954 474.282 336.756C474.552 336.468 474.84 336.126 475.164 335.766H479.772C479.232 336.396 478.512 336.954 477.648 337.458ZM484.236 331.716H477.684C477.468 331.176 477.252 330.672 477.018 330.222L475.668 330.438C475.938 330.834 476.19 331.248 476.424 331.716H469.764V334.254H470.988V332.814H483.012V334.254H484.236V331.716ZM469.296 341.004V342.156H476.37V346.818H477.702V342.156H484.722V341.004H477.702V339.6H476.37V341.004H469.296ZM480.24 342.714L479.448 343.488C481.158 344.532 482.508 345.54 483.498 346.476L484.398 345.576C483.282 344.64 481.896 343.686 480.24 342.714ZM473.76 342.732C472.572 343.758 471.132 344.658 469.44 345.432L470.214 346.458C471.96 345.594 473.436 344.604 474.624 343.488L473.76 342.732Z" fill="#686868"/>
<path d="M488.628 346.782C489.6 346.782 490.104 346.296 490.104 345.342V339.852C490.698 339.564 491.274 339.24 491.85 338.898V337.584C491.274 337.944 490.698 338.268 490.104 338.556V334.848H491.706V333.624H490.104V330.348H488.862V333.624H486.972V334.848H488.862V339.114C488.178 339.384 487.458 339.618 486.702 339.834L487.026 341.148C487.638 340.932 488.25 340.68 488.862 340.428V345.036C488.862 345.432 488.628 345.648 488.178 345.648C487.818 345.648 487.422 345.612 487.008 345.558L487.278 346.782H488.628ZM494.91 337.62V338.934H492.642V340.068H494.91V341.976H492.084V343.128H503.046V341.976H500.274V340.068H502.488V338.934H500.274V337.62H499.068V338.934H496.116V337.62H494.91ZM496.116 341.976V340.068H499.068V341.976H496.116ZM499.194 343.632L498.564 344.568C499.896 345.072 501.21 345.774 502.47 346.674L503.136 345.648C501.948 344.856 500.634 344.19 499.194 343.632ZM495.954 343.614C494.874 344.406 493.56 345.108 491.994 345.702L492.75 346.674C494.352 346.026 495.702 345.252 496.8 344.37L495.954 343.614ZM492.768 337.674C494.496 337.35 496.026 337.008 497.376 336.63L497.088 335.604C496.026 335.928 494.928 336.198 493.812 336.414V334.398H496.962V330.924H492.678V336.18C492.678 336.468 492.57 336.684 492.354 336.792L492.768 337.674ZM493.812 333.354V331.95H495.81V333.354H493.812ZM501.246 331.95V333.354H499.122V331.95H501.246ZM499.122 334.362H502.398V330.978H497.97V336C497.97 336.72 498.348 337.098 499.14 337.098H502.776V336.054H499.716C499.32 336.054 499.122 335.856 499.122 335.496V334.362Z" fill="#686868"/>
<path d="M516.528 342.3L515.538 342.696C515.88 343.308 516.204 344.046 516.51 344.892L517.5 344.46C517.212 343.704 516.888 342.984 516.528 342.3ZM513.918 342.606L512.856 342.822C513.18 343.596 513.45 344.478 513.666 345.486L514.8 345.216C514.548 344.28 514.242 343.398 513.918 342.606ZM515.304 346.746H517.266C518.058 346.71 518.634 346.53 518.994 346.188C519.354 345.828 519.606 345.18 519.768 344.28C519.912 343.344 520.002 342.138 520.056 340.662H509.922C510.246 340.32 510.57 339.96 510.876 339.564H518.472V334.074H513.738V335.118H517.284V336.324H513.972V337.314H517.284V338.502H508.716V337.314H512.208V336.306H508.716V335.118C510.3 334.92 511.56 334.65 512.496 334.308L511.92 333.354C510.696 333.768 509.256 334.02 507.564 334.128V339.564H509.436C508.302 340.752 506.916 341.742 505.278 342.534L506.088 343.506C507.06 342.984 507.942 342.39 508.752 341.742H518.796C518.724 343.38 518.544 344.442 518.292 344.946C518.04 345.414 517.5 345.666 516.69 345.666C516.15 345.666 515.592 345.648 514.998 345.612L515.304 346.746ZM507.87 342.66C507.51 344.028 507.096 345.18 506.61 346.08L507.78 346.494C508.248 345.468 508.644 344.28 508.968 342.948L507.87 342.66ZM511.308 342.786L510.228 343.02C510.462 343.92 510.66 344.982 510.804 346.188L511.974 345.918C511.776 344.784 511.56 343.74 511.308 342.786ZM520.47 331.716H513.612C513.396 331.176 513.162 330.672 512.928 330.24L511.596 330.456C511.848 330.834 512.1 331.248 512.316 331.716H505.548V334.974H506.772V332.868H519.246V334.956H520.47V331.716Z" fill="#686868"/>
<g filter="url(#filter3_d)">
<ellipse cx="670.5" cy="202" rx="71.5" ry="72" fill="white"/>
</g>
<path d="M626.828 204.883L629.301 197.418H629.348L631.82 204.883H626.828ZM633.883 211H636.613L630.402 193.914H628.234L622.023 211H624.766L626.078 207.18H632.559L633.883 211Z" fill="#FF665C"/>
<path d="M638.371 198.836H637.152V200.699H638.371V208C638.371 208.961 638.652 209.695 639.215 210.203C639.762 210.734 640.465 211 641.324 211H642.602V208.691H641.688C641.094 208.707 640.805 208.406 640.82 207.789V200.699H642.602V198.836H640.82V195.133H638.371V198.836Z" fill="#FF665C"/>
<path d="M644.312 204.906C644.312 206.188 644.418 207.164 644.629 207.836C644.848 208.508 645.184 209.09 645.637 209.582C645.973 209.965 646.441 210.309 647.043 210.613C647.637 210.949 648.398 211.125 649.328 211.141C650.289 211.125 651.066 210.949 651.66 210.613C651.98 210.473 652.242 210.305 652.445 210.109C652.672 209.938 652.863 209.762 653.02 209.582C653.504 209.09 653.848 208.508 654.051 207.836C654.246 207.164 654.344 206.188 654.344 204.906C654.344 203.625 654.246 202.641 654.051 201.953C653.848 201.281 653.504 200.715 653.02 200.254C652.699 199.848 652.246 199.484 651.66 199.164C651.066 198.859 650.289 198.699 649.328 198.684C648.398 198.699 647.637 198.859 647.043 199.164C646.441 199.484 645.973 199.848 645.637 200.254C645.184 200.715 644.848 201.281 644.629 201.953C644.418 202.641 644.312 203.625 644.312 204.906ZM651.895 204.93C651.895 205.758 651.855 206.367 651.777 206.758C651.699 207.156 651.539 207.508 651.297 207.812C651.117 208.047 650.852 208.254 650.5 208.434C650.164 208.605 649.773 208.691 649.328 208.691C648.914 208.691 648.531 208.605 648.18 208.434C647.844 208.254 647.57 208.047 647.359 207.812C647.148 207.508 646.996 207.156 646.902 206.758C646.809 206.367 646.762 205.75 646.762 204.906C646.762 204.055 646.809 203.43 646.902 203.031C646.996 202.648 647.148 202.312 647.359 202.023C647.57 201.75 647.844 201.535 648.18 201.379C648.531 201.215 648.914 201.133 649.328 201.133C649.773 201.133 650.164 201.215 650.5 201.379C650.852 201.535 651.117 201.75 651.297 202.023C651.539 202.312 651.699 202.648 651.777 203.031C651.855 203.43 651.895 204.062 651.895 204.93Z" fill="#FF665C"/>
<path d="M657.051 211H659.5V203.758C659.5 202.906 659.734 202.258 660.203 201.812C660.648 201.359 661.223 201.133 661.926 201.133C662.629 201.133 663.207 201.359 663.66 201.812C664.105 202.258 664.328 202.906 664.328 203.758V211H666.777V203.758C666.777 202.906 667.008 202.258 667.469 201.812C667.922 201.359 668.5 201.133 669.203 201.133C669.906 201.133 670.48 201.359 670.926 201.812C671.371 202.258 671.594 202.906 671.594 203.758V211H674.043V202.914C674.012 201.523 673.582 200.469 672.754 199.75C671.918 199.039 670.996 198.684 669.988 198.684C668.387 198.668 667.109 199.199 666.156 200.277C665.734 199.809 665.27 199.422 664.762 199.117C664.246 198.844 663.566 198.699 662.723 198.684C661.41 198.684 660.352 199.164 659.547 200.125H659.5V198.836H657.051V211Z" fill="#FF665C"/>
<path d="M677.441 211H679.891V198.836H677.441V211ZM677.441 196.363H679.891V193.914H677.441V196.363Z" fill="#FF665C"/>
<path d="M690.285 207.426C689.668 208.254 688.844 208.676 687.812 208.691C685.734 208.73 684.68 207.477 684.648 204.93C684.68 202.367 685.734 201.102 687.812 201.133C688.844 201.164 689.668 201.59 690.285 202.41L692.09 200.805C691.559 200.164 690.934 199.652 690.215 199.27C689.496 198.895 688.664 198.699 687.719 198.684C686.281 198.668 685.02 199.148 683.934 200.125C682.809 201.117 682.23 202.719 682.199 204.93C682.23 207.117 682.809 208.699 683.934 209.676C685.02 210.652 686.281 211.141 687.719 211.141C688.664 211.125 689.496 210.918 690.215 210.52C690.934 210.137 691.559 209.641 692.09 209.031L690.285 207.426Z" fill="#FF665C"/>
<path d="M699.473 205.211C699.488 207.008 700.082 208.434 701.254 209.488C702.402 210.574 703.832 211.125 705.543 211.141C707.285 211.125 708.727 210.574 709.867 209.488C711 208.434 711.582 207.008 711.613 205.211V193.914H709.023V204.93C709.008 206.094 708.68 206.98 708.039 207.59C707.383 208.23 706.551 208.551 705.543 208.551C704.535 208.551 703.711 208.23 703.07 207.59C702.414 206.98 702.078 206.094 702.062 204.93V193.914H699.473V205.211Z" fill="#FF665C"/>
<path d="M714.906 211H717.496V193.914H714.906V211Z" fill="#FF665C"/>
<path d="M649.454 333.984V340.86H654.008V345.018C654.008 345.378 653.792 345.558 653.396 345.558C652.874 345.558 652.334 345.522 651.758 345.468L652.028 346.746H653.846C654.818 346.746 655.304 346.26 655.304 345.324V340.86H659.48V333.984H654.476C654.656 333.444 654.8 332.886 654.908 332.31H660.794V331.032H646.142V338.07C646.106 341.4 645.638 344.01 644.738 345.9L645.71 346.764C646.808 344.586 647.384 341.688 647.456 338.07V332.31H653.612C653.522 332.886 653.396 333.444 653.216 333.984H649.454ZM658.22 339.69H650.714V337.962H658.22V339.69ZM650.714 336.846V335.172H658.22V336.846H650.714ZM650.75 341.706C649.958 343.164 649.022 344.424 647.924 345.468L649.004 346.224C650.102 345.108 651.056 343.794 651.884 342.246L650.75 341.706ZM658.058 341.688L657.014 342.336C658.202 343.776 659.156 345.108 659.84 346.296L660.92 345.558C660.254 344.46 659.3 343.164 658.058 341.688Z" fill="#686868"/>
<path d="M663.134 338.034V339.294H670.712V344.64C670.712 345.18 670.424 345.468 669.848 345.468C668.804 345.468 667.85 345.45 666.95 345.414L667.292 346.674H670.37C671.468 346.674 672.026 346.134 672.026 345.054V339.294H678.866V338.034H672.026V336.144C673.862 334.938 675.482 333.66 676.904 332.31V331.086H665.024V332.31H675.14C673.736 333.534 672.26 334.596 670.712 335.478V338.034H663.134Z" fill="#686868"/>
<path d="M686.21 330.186C685.058 333.012 683.24 335.514 680.72 337.71L681.134 339.06C682.07 338.268 682.952 337.422 683.744 336.558V346.836H685.04V334.956C686.012 333.642 686.804 332.238 687.416 330.744L686.21 330.186ZM696.38 335.514L690.512 335.856V330.384H689.216V344.604C689.216 345.864 689.828 346.512 691.052 346.512H694.58C695.408 346.512 696.002 346.296 696.326 345.864C696.632 345.432 696.848 344.172 696.974 342.102L695.768 341.706C695.696 343.488 695.57 344.532 695.372 344.82C695.156 345.108 694.814 345.27 694.364 345.27H691.358C690.782 345.27 690.512 344.982 690.512 344.424V337.08L696.38 336.756V335.514Z" fill="#686868"/>
<path d="M646.34 371.36V381.656H647.636V371.36H646.34ZM640.274 371.414V374.672C640.238 377.57 639.284 379.676 637.394 380.99L638.348 381.836C640.436 380.324 641.516 377.948 641.57 374.672V371.414H640.274ZM643.532 365.384C641.498 367.922 638.942 370.046 635.882 371.756L636.512 372.908C639.608 371.126 642.11 369.02 644 366.608C646.07 369.128 648.572 371.18 651.524 372.746L652.154 371.594C649.238 370.082 646.682 368.012 644.468 365.384H643.532Z" fill="#686868"/>
<path d="M653.99 366.014V367.274H661.478C661.334 368.066 661.1 368.822 660.812 369.578H655.016V381.854H656.258V380.954H667.796V381.854H669.038V369.578H662.126C662.414 368.84 662.648 368.066 662.792 367.274H670.01V366.014H653.99ZM656.258 379.766V370.748H658.742V379.766H656.258ZM659.948 379.766V377.462H664.052V379.766H659.948ZM665.258 379.766V370.748H667.796V379.766H665.258ZM659.948 376.328V374.132H664.052V376.328H659.948ZM659.948 372.98V370.748H664.052V372.98H659.948Z" fill="#686868"/>
<path d="M677.93 375.464H672.494V381.53H673.718V380.648H677.93V375.464ZM673.718 379.478V376.598H676.742V379.478H673.718ZM671.882 367.67V368.858H678.596V367.67H675.428L676.13 367.418C675.878 366.752 675.554 366.032 675.122 365.24L673.88 365.582C674.312 366.248 674.672 366.95 674.978 367.67H671.882ZM672.638 370.298V371.432H677.804V370.298H672.638ZM672.638 372.782V373.916H677.804V372.782H672.638ZM679.172 372.998V374.258H680.306C680.72 375.77 681.494 377.156 682.628 378.38C681.404 379.352 679.892 380.144 678.056 380.756L678.758 381.854C680.666 381.206 682.286 380.36 683.582 379.28C684.698 380.234 686.084 381.098 687.74 381.854L688.442 380.738C686.858 380.09 685.544 379.316 684.464 378.452C685.616 377.264 686.426 375.842 686.93 374.186V372.998H679.172ZM681.548 374.258H685.67C685.184 375.482 684.464 376.598 683.528 377.57C682.592 376.598 681.926 375.482 681.548 374.258ZM680.522 365.996V368.156C680.522 369.488 679.82 370.514 678.434 371.234L679.298 372.188C680.954 371.216 681.8 369.83 681.8 368.03V367.22H684.608V370.154C684.608 371.216 685.166 371.756 686.318 371.756H687.92V370.568H686.642C686.138 370.568 685.904 370.334 685.904 369.884V365.996H680.522Z" fill="#686868"/>
<path d="M691.61 380.702H694.616V381.53H695.858V375.446H690.368V381.782H691.61V380.702ZM694.616 379.514H691.61V376.616H694.616V379.514ZM689.72 367.652V368.858H696.524V367.652H693.374L694.004 367.418C693.788 366.77 693.482 366.032 693.086 365.24L691.844 365.582C692.222 366.23 692.546 366.932 692.816 367.652H689.72ZM690.422 370.316V371.45H695.804V370.316H690.422ZM690.422 372.782V373.934H695.804V372.782H690.422ZM700.826 365.33V371.234H696.83V372.494H700.826V381.782H702.104V372.494H706.226V371.234H702.104V365.33H700.826Z" fill="#686868"/>
<g filter="url(#filter4_d)">
<ellipse cx="853.5" cy="202" rx="71.5" ry="72" fill="white"/>
</g>
<path d="M829.016 211H831.031L836.68 193.914H833.938L830.047 206.922H830L826.121 193.914H823.379L829.016 211Z" fill="#FF5C7A"/>
<path d="M837.922 211H840.371V198.836H837.922V211ZM837.922 196.363H840.371V193.914H837.922V196.363Z" fill="#FF5C7A"/>
<path d="M843.98 207.285L842.27 208.961C843.855 210.414 845.641 211.141 847.625 211.141C849.086 211.125 850.285 210.789 851.223 210.133C852.168 209.492 852.648 208.582 852.664 207.402C852.664 206.395 852.402 205.562 851.879 204.906C851.316 204.234 850.402 203.852 849.137 203.758L847.121 203.605C846.527 203.543 846.113 203.398 845.879 203.172C845.621 202.969 845.5 202.73 845.516 202.457C845.516 202.027 845.676 201.676 845.996 201.402C846.301 201.129 846.836 200.992 847.602 200.992C848.273 200.992 848.867 201.09 849.383 201.285C849.906 201.504 850.402 201.781 850.871 202.117L852.383 200.348C851.789 199.832 851.117 199.422 850.367 199.117C849.977 198.977 849.559 198.867 849.113 198.789C848.668 198.719 848.164 198.684 847.602 198.684C846.305 198.684 845.234 198.996 844.391 199.621C843.523 200.246 843.082 201.184 843.066 202.434C843.082 203.473 843.418 204.281 844.074 204.859C844.715 205.453 845.547 205.797 846.57 205.891L848.727 206.078C849.18 206.094 849.543 206.191 849.816 206.371C850.082 206.543 850.215 206.848 850.215 207.285C850.215 207.777 849.992 208.16 849.547 208.434C849.102 208.707 848.527 208.844 847.824 208.844C846.254 208.844 844.973 208.324 843.98 207.285Z" fill="#FF5C7A"/>
<path d="M855.148 206.922C855.164 208.297 855.613 209.336 856.496 210.039C857.309 210.758 858.219 211.125 859.227 211.141C860.523 211.141 861.574 210.66 862.379 209.699H862.426V211H864.875V198.836H862.426V206.078C862.426 206.898 862.199 207.539 861.746 208C861.301 208.461 860.727 208.691 860.023 208.691C859.32 208.691 858.742 208.461 858.289 208C857.828 207.539 857.598 206.898 857.598 206.078V198.836H855.148V206.922Z" fill="#FF5C7A"/>
<path d="M874.426 211H876.875V202.691C876.859 201.207 876.395 200.16 875.48 199.551C874.566 198.957 873.344 198.668 871.812 198.684C870 198.652 868.629 199.246 867.699 200.465L869.621 201.93C869.832 201.578 870.121 201.328 870.488 201.18C870.84 201.055 871.32 200.992 871.93 200.992C873.609 200.961 874.441 201.48 874.426 202.551V203.828H871.039C869.742 203.844 868.758 204.195 868.086 204.883C867.414 205.555 867.078 206.402 867.078 207.426C867.078 208.496 867.465 209.375 868.238 210.062C868.973 210.766 870.02 211.125 871.379 211.141C872.207 211.141 872.855 211.039 873.324 210.836C873.801 210.641 874.152 210.336 874.379 209.922H874.426V211ZM874.426 206.723C874.426 207.637 874.234 208.223 873.852 208.48C873.43 208.738 872.707 208.859 871.684 208.844C870.871 208.844 870.289 208.684 869.938 208.363C869.57 208.074 869.387 207.723 869.387 207.309C869.371 206.363 870.074 205.875 871.496 205.844H874.426V206.723Z" fill="#FF5C7A"/>
<path d="M880.039 208.047C880.039 209.117 880.344 209.879 880.953 210.332C881.531 210.777 882.266 211 883.156 211H884.246V208.691H883.402C882.793 208.691 882.488 208.414 882.488 207.859V193.914H880.039V208.047Z" fill="#FF5C7A"/>
<path d="M819.116 330.996V332.22H820.97V337.422H818.792V338.664H820.952C820.826 341.94 820.106 344.352 818.792 345.9L819.764 346.746C821.294 345.018 822.14 342.318 822.284 338.664H824.984V346.674H826.298V338.664H828.368V337.422H826.298V332.22H828.098V330.996H819.116ZM822.302 332.22H824.984V337.422H822.302V332.22ZM833.354 330.348C831.986 331.824 830.258 333.012 828.17 333.912L828.728 335.1C830.924 334.092 832.742 332.832 834.2 331.32L833.354 330.348ZM834.128 335.226C832.76 336.81 831.032 338.106 828.926 339.078L829.484 340.248C831.68 339.168 833.498 337.818 834.974 336.198L834.128 335.226ZM834.578 340.212C832.85 342.408 830.672 344.172 828.026 345.504L828.584 346.71C831.32 345.252 833.606 343.416 835.442 341.184L834.578 340.212Z" fill="#686868"/>
<path d="M838.286 341.868V343.056H844.316V344.982H837.098V346.188H852.902V344.982H845.612V343.056H851.732V341.868H845.612V340.5H844.316V341.868H838.286ZM837.314 332.508V333.66H840.914V335.37C840.896 335.838 840.842 336.288 840.77 336.72H839.06V334.596H837.926V337.8H840.41C840.338 337.98 840.23 338.178 840.104 338.376C839.564 339.114 838.61 339.708 837.242 340.14L837.89 341.166C839.366 340.68 840.428 339.996 841.076 339.132C841.346 338.736 841.562 338.304 841.742 337.8H844.892V334.596H843.74V336.72H842.012C842.066 336.306 842.102 335.856 842.12 335.37V333.66H845.468V332.508H843.29C843.65 331.968 843.992 331.338 844.298 330.654L843.146 330.258C842.822 331.05 842.462 331.806 842.048 332.508H840.752C840.356 331.716 839.924 330.996 839.474 330.312L838.43 330.816C838.772 331.32 839.114 331.878 839.456 332.508H837.314ZM847.556 334.812H850.976V336.414H847.484C847.52 336.054 847.556 335.676 847.556 335.28V334.812ZM850.976 333.768H847.556V332.076H850.976V333.768ZM847.268 337.458H850.976V338.664C850.976 339.132 850.778 339.384 850.418 339.384C849.914 339.384 849.392 339.348 848.816 339.312L849.122 340.482H850.796C851.732 340.482 852.218 340.014 852.218 339.096V330.924H846.35V335.352C846.314 337.08 845.756 338.52 844.64 339.636L845.576 340.482C846.386 339.636 846.944 338.628 847.268 337.458Z" fill="#686868"/>
<path d="M857.186 339.42V346.746H858.482V339.24C859.058 339.708 859.634 340.266 860.21 340.914L860.912 339.852C860.174 339.096 859.364 338.448 858.482 337.89V337.782C859.382 336.504 860.03 335.226 860.444 333.93V332.832H858.266L858.788 332.634C858.608 331.878 858.338 331.032 857.978 330.132L856.754 330.492C857.078 331.248 857.366 332.022 857.618 332.832H855.116V334.074H859.148C858.428 336.036 856.952 338.07 854.72 340.176L855.116 341.526C855.872 340.824 856.574 340.122 857.186 339.42ZM861.506 330.96V340.932H863.36C863.162 343.128 862.028 344.694 859.958 345.666L860.642 346.746C863.036 345.522 864.35 343.596 864.566 340.932H866.582V345.036C866.582 346.008 867.122 346.512 868.238 346.512H869.39C870.146 346.476 870.632 346.26 870.848 345.882C871.082 345.468 871.208 344.406 871.208 342.678L870.074 342.246C870.074 343.362 870.02 344.154 869.948 344.658C869.894 345.09 869.696 345.306 869.336 345.342H868.274C867.95 345.306 867.788 345.126 867.788 344.802V340.932H869.858V330.96H861.506ZM868.598 339.834H862.766V337.908H868.598V339.834ZM862.766 336.864V334.938H868.598V336.864H862.766ZM862.766 333.894V332.076H868.598V333.894H862.766Z" fill="#686868"/>
<path d="M875.6 333.678H878.336V332.85H875.546L875.474 331.986C876.806 331.77 877.76 331.554 878.354 331.356L877.976 330.438C876.896 330.798 875.672 331.05 874.34 331.212L874.718 336.414H873.404V339.24H874.556V337.35H887.462V339.24H888.614V336.414H887.354L887.678 330.906H883.664V331.86H886.562L886.508 332.85H883.736V333.678H886.454L886.4 334.578H883.682V335.388H886.346L886.274 336.414H875.798L875.726 335.388H878.336V334.578H875.672L875.6 333.678ZM879.686 330.618L879.092 331.194C879.596 331.446 880.064 331.68 880.496 331.932C879.992 332.22 879.452 332.454 878.858 332.652L879.308 333.39C880.1 333.066 880.766 332.742 881.306 332.4C881.81 332.706 882.26 333.012 882.656 333.336L883.268 332.724C882.89 332.454 882.476 332.184 882.008 331.896C882.35 331.626 882.692 331.302 883.052 330.924L882.332 330.492C881.99 330.834 881.63 331.158 881.252 331.446C880.748 331.158 880.226 330.888 879.686 330.618ZM879.812 333.462L879.254 334.002C879.704 334.254 880.136 334.524 880.55 334.776C880.082 335.064 879.542 335.316 878.948 335.532L879.38 336.252C880.136 335.928 880.766 335.586 881.27 335.244C881.738 335.568 882.17 335.91 882.566 336.234L883.16 335.64C882.8 335.352 882.386 335.046 881.918 334.74C882.242 334.452 882.584 334.128 882.908 333.75L882.224 333.318C881.918 333.66 881.594 333.984 881.234 334.29C880.784 334.002 880.316 333.732 879.812 333.462ZM875.708 338.178V344.064H878.858C877.94 345.018 876.014 345.63 873.08 345.918L873.692 346.854C877.094 346.458 879.236 345.54 880.136 344.064H882.134V345.306C882.134 346.098 882.584 346.512 883.484 346.512H887.048C887.66 346.512 888.092 346.386 888.362 346.17C888.686 345.882 888.902 345.126 889.028 343.902L887.948 343.542C887.876 344.496 887.75 345.072 887.57 345.252C887.426 345.414 887.174 345.504 886.814 345.504H883.808C883.466 345.504 883.304 345.36 883.304 345.072V344.064H886.274V338.178H875.708ZM885.086 343.2H876.878V342.228H885.086V343.2ZM876.878 341.49V340.608H885.086V341.49H876.878ZM876.878 339.87V338.934H885.086V339.87H876.878Z" fill="#686868"/>
<defs>
<filter id="filter0_d" x="33" y="131" width="177" height="182" filterUnits="userSpaceOnUse" color-interpolation-filters="sRGB">
<feFlood flood-opacity="0" result="BackgroundImageFix"/>
<feColorMatrix in="SourceAlpha" type="matrix" values="0 0 0 0 0 0 0 0 0 0 0 0 0 0 0 0 0 0 127 0"/>
<feMorphology radius="8" operator="erode" in="SourceAlpha" result="effect1_dropShadow"/>
<feOffset dy="22"/>
<feGaussianBlur stdDeviation="12.5"/>
<feColorMatrix type="matrix" values="0 0 0 0 0.7875 0 0 0 0 0.7875 0 0 0 0 0.7875 0 0 0 0.25 0"/>
<feBlend mode="normal" in2="BackgroundImageFix" result="effect1_dropShadow"/>
<feBlend mode="normal" in="SourceGraphic" in2="effect1_dropShadow" result="shape"/>
</filter>
<filter id="filter1_d" x="216" y="130" width="177" height="183" filterUnits="userSpaceOnUse" color-interpolation-filters="sRGB">
<feFlood flood-opacity="0" result="BackgroundImageFix"/>
<feColorMatrix in="SourceAlpha" type="matrix" values="0 0 0 0 0 0 0 0 0 0 0 0 0 0 0 0 0 0 127 0"/>
<feMorphology radius="8" operator="erode" in="SourceAlpha" result="effect1_dropShadow"/>
<feOffset dy="22"/>
<feGaussianBlur stdDeviation="12.5"/>
<feColorMatrix type="matrix" values="0 0 0 0 0.7875 0 0 0 0 0.7875 0 0 0 0 0.7875 0 0 0 0.25 0"/>
<feBlend mode="normal" in2="BackgroundImageFix" result="effect1_dropShadow"/>
<feBlend mode="normal" in="SourceGraphic" in2="effect1_dropShadow" result="shape"/>
</filter>
<filter id="filter2_d" x="399" y="131" width="177" height="183" filterUnits="userSpaceOnUse" color-interpolation-filters="sRGB">
<feFlood flood-opacity="0" result="BackgroundImageFix"/>
<feColorMatrix in="SourceAlpha" type="matrix" values="0 0 0 0 0 0 0 0 0 0 0 0 0 0 0 0 0 0 127 0"/>
<feMorphology radius="8" operator="erode" in="SourceAlpha" result="effect1_dropShadow"/>
<feOffset dy="22"/>
<feGaussianBlur stdDeviation="12.5"/>
<feColorMatrix type="matrix" values="0 0 0 0 0.7875 0 0 0 0 0.7875 0 0 0 0 0.7875 0 0 0 0.25 0"/>
<feBlend mode="normal" in2="BackgroundImageFix" result="effect1_dropShadow"/>
<feBlend mode="normal" in="SourceGraphic" in2="effect1_dropShadow" result="shape"/>
</filter>
<filter id="filter3_d" x="582" y="130" width="177" height="183" filterUnits="userSpaceOnUse" color-interpolation-filters="sRGB">
<feFlood flood-opacity="0" result="BackgroundImageFix"/>
<feColorMatrix in="SourceAlpha" type="matrix" values="0 0 0 0 0 0 0 0 0 0 0 0 0 0 0 0 0 0 127 0"/>
<feMorphology radius="8" operator="erode" in="SourceAlpha" result="effect1_dropShadow"/>
<feOffset dy="22"/>
<feGaussianBlur stdDeviation="12.5"/>
<feColorMatrix type="matrix" values="0 0 0 0 0.7875 0 0 0 0 0.7875 0 0 0 0 0.7875 0 0 0 0.25 0"/>
<feBlend mode="normal" in2="BackgroundImageFix" result="effect1_dropShadow"/>
<feBlend mode="normal" in="SourceGraphic" in2="effect1_dropShadow" result="shape"/>
</filter>
<filter id="filter4_d" x="765" y="130" width="177" height="183" filterUnits="userSpaceOnUse" color-interpolation-filters="sRGB">
<feFlood flood-opacity="0" result="BackgroundImageFix"/>
<feColorMatrix in="SourceAlpha" type="matrix" values="0 0 0 0 0 0 0 0 0 0 0 0 0 0 0 0 0 0 127 0"/>
<feMorphology radius="8" operator="erode" in="SourceAlpha" result="effect1_dropShadow"/>
<feOffset dy="22"/>
<feGaussianBlur stdDeviation="12.5"/>
<feColorMatrix type="matrix" values="0 0 0 0 0.7875 0 0 0 0 0.7875 0 0 0 0 0.7875 0 0 0 0.25 0"/>
<feBlend mode="normal" in2="BackgroundImageFix" result="effect1_dropShadow"/>
<feBlend mode="normal" in="SourceGraphic" in2="effect1_dropShadow" result="shape"/>
</filter>
<linearGradient id="paint0_linear" x1="116" y1="208" x2="892" y2="208" gradientUnits="userSpaceOnUse">
<stop stop-color="#FFD9D7"/>
<stop offset="0.524485" stop-color="white" stop-opacity="0.5"/>
<stop offset="1" stop-color="#FFC8DB" stop-opacity="0.5"/>
</linearGradient>
<linearGradient id="paint1_linear" x1="35" y1="202" x2="951" y2="202" gradientUnits="userSpaceOnUse">
<stop stop-color="#EDEDED" stop-opacity="0.5"/>
<stop offset="1" stop-color="#FFD6E4"/>
</linearGradient>
<linearGradient id="paint2_linear" x1="87" y1="153" x2="160" y2="258" gradientUnits="userSpaceOnUse">
<stop stop-color="white"/>
<stop offset="1" stop-color="white"/>
</linearGradient>
</defs>
</svg>
