<svg width="412" height="959" viewBox="0 0 412 959" fill="none" xmlns="http://www.w3.org/2000/svg">
<rect width="412" height="959" fill="#FAFBFC"/>
<path d="M153 65C107 107.359 50 171.817 50 295.21C50 388.511 102.111 439.722 153 488.836L153 856C202 832.058 249 745.916 249 658.437C249 580.652 201.556 535.699 153 488.836L153 65Z" fill="url(#paint0_linear)"/>
<path d="M153 925.32L170.321 908L153 890.679L135.679 908L153 925.32ZM150 22L150 908H156L156 22H150Z" fill="url(#paint1_linear)"/>
<g filter="url(#filter0_d)">
<circle cx="152.5" cy="128.5" r="71.5" fill="white"/>
</g>
<path d="M134.395 122.363H138.133C138.836 122.348 139.453 122.508 139.984 122.844C140.336 123.047 140.609 123.324 140.805 123.676C140.992 124.066 141.086 124.547 141.086 125.117C141.086 125.805 140.855 126.43 140.395 126.992C139.91 127.57 139.188 127.867 138.227 127.883H134.395V122.363ZM131.805 137H134.395V130.332H138.332C140.09 130.301 141.426 129.738 142.34 128.645C143.23 127.605 143.676 126.453 143.676 125.188C143.676 124.25 143.5 123.438 143.148 122.75C142.812 122.039 142.375 121.492 141.836 121.109C141.195 120.602 140.562 120.266 139.938 120.102C139.312 119.977 138.664 119.914 137.992 119.914H131.805V137Z" fill="#FF5C7A"/>
<path d="M145.809 134.047C145.809 135.117 146.113 135.879 146.723 136.332C147.301 136.777 148.035 137 148.926 137H150.016V134.691H149.172C148.562 134.691 148.258 134.414 148.258 133.859V119.914H145.809V134.047Z" fill="#FF5C7A"/>
<path d="M158.383 137H160.832V128.691C160.816 127.207 160.352 126.16 159.438 125.551C158.523 124.957 157.301 124.668 155.77 124.684C153.957 124.652 152.586 125.246 151.656 126.465L153.578 127.93C153.789 127.578 154.078 127.328 154.445 127.18C154.797 127.055 155.277 126.992 155.887 126.992C157.566 126.961 158.398 127.48 158.383 128.551V129.828H154.996C153.699 129.844 152.715 130.195 152.043 130.883C151.371 131.555 151.035 132.402 151.035 133.426C151.035 134.496 151.422 135.375 152.195 136.062C152.93 136.766 153.977 137.125 155.336 137.141C156.164 137.141 156.812 137.039 157.281 136.836C157.758 136.641 158.109 136.336 158.336 135.922H158.383V137ZM158.383 132.723C158.383 133.637 158.191 134.223 157.809 134.48C157.387 134.738 156.664 134.859 155.641 134.844C154.828 134.844 154.246 134.684 153.895 134.363C153.527 134.074 153.344 133.723 153.344 133.309C153.328 132.363 154.031 131.875 155.453 131.844H158.383V132.723Z" fill="#FF5C7A"/>
<path d="M163.996 137H166.445V129.758C166.445 128.906 166.676 128.258 167.137 127.812C167.59 127.359 168.168 127.133 168.871 127.133C169.574 127.133 170.148 127.359 170.594 127.812C171.047 128.258 171.273 128.906 171.273 129.758V137H173.723V128.914C173.684 127.523 173.25 126.469 172.422 125.75C171.586 125.039 170.664 124.684 169.656 124.684C168.352 124.684 167.297 125.164 166.492 126.125H166.445V124.836H163.996V137Z" fill="#FF5C7A"/>
<path d="M275.026 109.88V110.996H282.082L281.452 112.364H276.61V117.854H277.852V113.462H280.552V117.674H281.776V113.462H284.458V117.674H285.7V113.462H288.58V116.072C288.58 116.504 288.364 116.72 287.932 116.72L286.672 116.666L286.978 117.782H288.292C289.3 117.782 289.822 117.296 289.822 116.342V112.364H282.766L283.396 110.996H290.974V109.88H275.026ZM276.124 101.942V103.004H282.37V104.138H275.386V107.81H276.628V105.164H282.37V109.106H283.63V105.164H289.372V107.81H290.614V104.138H283.63V103.004H289.894V101.942H276.124ZM278.14 105.812L277.708 106.658C278.86 106.766 279.976 106.91 281.038 107.108L281.38 106.298C280.336 106.082 279.256 105.92 278.14 105.812ZM281.074 107.774C280.3 107.918 279.094 108.026 277.474 108.098L277.762 109.016C279.418 108.908 280.606 108.782 281.362 108.602L281.074 107.774ZM284.854 107.108C286.15 107 287.284 106.856 288.256 106.658L287.932 105.776C286.978 105.992 285.898 106.136 284.674 106.208L284.854 107.108ZM285.016 107.792L284.638 108.584C285.826 108.728 286.978 108.926 288.094 109.196L288.454 108.314C287.374 108.08 286.222 107.9 285.016 107.792Z" fill="#686868"/>
<path d="M293.296 104.606V105.848H300.46V115.874C300.46 116.306 300.244 116.54 299.83 116.54C299.074 116.54 298.3 116.504 297.472 116.45L297.742 117.692H300.28C301.288 117.692 301.792 117.188 301.792 116.18V109.124C303.286 112.004 305.482 114.434 308.362 116.414L309.262 115.352C307.282 114.092 305.608 112.616 304.258 110.96C305.644 110.024 306.832 108.926 307.822 107.684L306.85 106.82C305.932 108.026 304.834 109.106 303.538 110.042C302.854 109.088 302.278 108.08 301.792 107V105.848H308.668V104.606H301.792V101.276H300.46V104.606H293.296ZM295.132 107.198L294.25 108.044C295.672 109.088 296.788 110.06 297.616 110.996L298.498 110.114C297.598 109.142 296.464 108.17 295.132 107.198ZM304.15 101.438L303.304 102.23C304.366 103.058 305.212 103.814 305.824 104.534L306.706 103.652C306.022 102.914 305.158 102.176 304.15 101.438ZM299.146 110.906C297.454 112.634 295.438 114.11 293.098 115.298L293.656 116.576C295.96 115.28 297.904 113.768 299.47 112.076L299.146 110.906Z" fill="#686868"/>
<path d="M315.76 102.068C314.644 104.66 313.006 106.73 310.81 108.26L311.836 109.142C313.96 107.63 315.652 105.434 316.948 102.554L315.76 102.068ZM318.82 101.87V103.13H321.394C322.492 105.668 324.166 107.702 326.416 109.214L327.244 108.062C324.868 106.514 323.194 104.444 322.24 101.87H318.82ZM317.146 109.7C316.768 111.392 316.21 112.76 315.454 113.804C314.59 114.884 313.33 115.874 311.638 116.774L312.466 117.854C314.32 116.828 315.724 115.676 316.66 114.38C317.434 113.228 318.028 111.662 318.46 109.7H322.888C322.798 112.508 322.6 114.326 322.276 115.19C321.97 116.018 321.34 116.432 320.368 116.432C319.414 116.432 318.406 116.414 317.326 116.378L317.686 117.656H321.034C321.934 117.602 322.582 117.314 322.978 116.792C323.392 116.252 323.68 115.28 323.86 113.912C324.04 112.526 324.148 110.708 324.202 108.458H313.51V109.7H317.146Z" fill="#686868"/>
<path d="M332.968 108.386C333.508 109.052 334.138 109.934 334.858 111.05L335.56 110.024C334.678 108.908 333.814 107.918 332.968 107.036V106.064H335.398V104.822H332.968V101.294H331.69V104.822H329.062V106.064H331.618C331.042 108.332 330.07 110.366 328.702 112.13L329.26 113.534C330.268 112.04 331.078 110.384 331.69 108.548V117.746H332.968V108.386ZM343.93 101.366C341.716 102.194 339.232 102.644 336.46 102.716V108.494C336.352 111.986 335.542 114.722 334.066 116.702L334.984 117.656C336.676 115.388 337.594 112.328 337.72 108.494V108.296H341.05V117.764H342.346V108.296H345.028V107.054H337.72V103.814C340.24 103.688 342.526 103.256 344.578 102.518L343.93 101.366Z" fill="#686868"/>
<path d="M282.532 137.014V146.968H284.386C284.17 149.146 282.964 150.712 280.75 151.684L281.434 152.764C283.972 151.558 285.358 149.632 285.574 146.968H286.888V151.27C286.888 152.098 287.374 152.53 288.382 152.53H289.39C290.164 152.494 290.668 152.278 290.902 151.9C291.136 151.504 291.262 150.442 291.262 148.732L290.146 148.336C290.146 149.416 290.11 150.19 290.038 150.676C289.966 151.108 289.732 151.324 289.336 151.342H288.418C288.202 151.342 288.112 151.234 288.112 151.054V146.968H290.038V137.014H282.532ZM288.85 145.87H283.738V143.908H288.85V145.87ZM283.738 142.864V140.974H288.85V142.864H283.738ZM283.738 139.93V138.094H288.85V139.93H283.738ZM275.296 139.228V140.488H277.924V143.62H275.044V144.862H277.852C277.582 147.958 276.574 150.262 274.81 151.792L275.746 152.602C277.222 151.306 278.212 149.524 278.752 147.256C279.418 147.94 280.246 148.912 281.236 150.19L281.956 149.092C280.948 147.976 279.94 146.95 278.968 146.05C279.022 145.654 279.076 145.258 279.112 144.862H281.704V143.62H279.166C279.166 143.512 279.184 143.404 279.184 143.296V140.488H281.452V139.228H279.184V136.276H277.924V139.228H275.296Z" fill="#686868"/>
<path d="M302.062 141.694V139.984H303.628V139.012H302.062V137.284H298.75V136.312H297.526V137.284H294.286V138.148H297.58V139.066H292.918V139.912H297.58V140.848H294.16V141.694H297.526V142.522H293.674V143.35H297.526V144.178H293.08V145.042H303.196V144.178H298.75V143.35H302.62V142.522H298.75V141.694H302.062ZM298.696 138.148H300.874V139.066H298.696V138.148ZM298.696 139.912H300.874V140.848H298.696V139.912ZM293.98 145.78V150.334H302.296V145.78H293.98ZM301.108 149.524H298.714V148.426H301.108V149.524ZM297.562 149.524H295.15V148.426H297.562V149.524ZM295.15 147.652V146.59H297.562V147.652H295.15ZM298.714 146.59H301.108V147.652H298.714V146.59ZM303.052 151.108C300.532 151.216 297.202 151.306 293.098 151.342L293.242 152.386C297.58 152.278 300.856 152.17 303.052 152.062V151.108ZM307.03 152.656C308.02 152.656 308.524 152.134 308.524 151.126V136.348H307.264V150.82C307.264 151.288 307.03 151.54 306.598 151.54C306.022 151.54 305.41 151.504 304.78 151.45L305.05 152.656H307.03ZM304.384 137.932V149.11H305.536V137.932H304.384Z" fill="#686868"/>
<path d="M313.168 139.804V149.632H325.12V139.804H319.162C319.306 139.282 319.414 138.742 319.504 138.166H326.722V136.978H311.278V138.166H318.208C318.136 138.724 318.01 139.264 317.848 139.804H313.168ZM323.842 148.426H314.428V146.608H323.842V148.426ZM314.428 145.492V143.764H323.842V145.492H314.428ZM314.428 142.648V140.992H323.842V142.648H314.428ZM321.232 149.83L320.62 150.73C322.6 151.234 324.526 151.918 326.416 152.8L327.1 151.756C325.336 151 323.374 150.352 321.232 149.83ZM316.66 149.866C315.328 150.658 313.366 151.288 310.792 151.774L311.404 152.836C313.978 152.296 315.958 151.612 317.344 150.748L316.66 149.866Z" fill="#686868"/>
<path d="M328.99 137.014V138.274H336.478C336.334 139.066 336.1 139.822 335.812 140.578H330.016V152.854H331.258V151.954H342.796V152.854H344.038V140.578H337.126C337.414 139.84 337.648 139.066 337.792 138.274H345.01V137.014H328.99ZM331.258 150.766V141.748H333.742V150.766H331.258ZM334.948 150.766V148.462H339.052V150.766H334.948ZM340.258 150.766V141.748H342.796V150.766H340.258ZM334.948 147.328V145.132H339.052V147.328H334.948ZM334.948 143.98V141.748H339.052V143.98H334.948Z" fill="#686868"/>
<g filter="url(#filter1_d)">
<ellipse cx="152.5" cy="292" rx="71.5" ry="72" fill="white"/>
</g>
<path d="M130.84 287H133.43V269.914H130.84V287Z" fill="#FF665C"/>
<path d="M140.051 280.883L142.523 273.418H142.57L145.043 280.883H140.051ZM147.105 287H149.836L143.625 269.914H141.457L135.246 287H137.988L139.301 283.18H145.781L147.105 287Z" fill="#FF665C"/>
<path d="M160.582 273.559C160.582 273.098 160.75 272.707 161.086 272.387C161.391 272.082 161.781 271.93 162.258 271.93C162.758 271.93 163.168 272.082 163.488 272.387C163.793 272.707 163.945 273.098 163.945 273.559C163.945 273.988 163.801 274.383 163.512 274.742C163.191 275.094 162.637 275.43 161.848 275.75C161.48 275.398 161.188 275.027 160.969 274.637C160.711 274.27 160.582 273.91 160.582 273.559ZM166.746 285.277L168.328 287H171.211L168.328 283.566C168.812 283.043 169.246 282.453 169.629 281.797C170.012 281.156 170.324 280.516 170.566 279.875L168.375 279.008C168.055 280.031 167.559 280.984 166.887 281.867L163.242 277.473C165.18 276.512 166.133 275.238 166.102 273.652C166.086 272.582 165.734 271.672 165.047 270.922C164.359 270.172 163.43 269.789 162.258 269.773C161.094 269.789 160.168 270.172 159.48 270.922C158.777 271.672 158.426 272.582 158.426 273.652C158.426 274.23 158.566 274.793 158.848 275.34C159.09 275.895 159.418 276.414 159.832 276.898C157.676 278.094 156.59 279.758 156.574 281.891C156.59 283.328 157.094 284.551 158.086 285.559C159.047 286.582 160.344 287.109 161.977 287.141C162.883 287.125 163.73 286.941 164.52 286.59C165.316 286.238 166.059 285.801 166.746 285.277ZM161.203 278.527L165.328 283.473C164.148 284.496 163.004 285 161.895 284.984C161.035 284.984 160.301 284.68 159.691 284.07C159.066 283.492 158.746 282.758 158.73 281.867C158.715 280.617 159.539 279.504 161.203 278.527Z" fill="#FF665C"/>
<path d="M113.227 310.852L111.527 312.797C113.348 314.359 115.523 315.141 118.055 315.141C121.969 315.094 123.969 313.438 124.055 310.172C124.055 308.961 123.676 307.898 122.918 306.984C122.152 306.055 120.969 305.48 119.367 305.262C118.555 305.16 117.914 305.07 117.445 304.992C116.602 304.836 115.988 304.555 115.605 304.148C115.223 303.75 115.031 303.305 115.031 302.812C115.047 301.992 115.332 301.375 115.887 300.961C116.418 300.562 117.082 300.363 117.879 300.363C119.418 300.395 120.828 300.832 122.109 301.676L123.551 299.543C121.98 298.41 120.133 297.82 118.008 297.773C116.242 297.789 114.879 298.25 113.918 299.156C112.926 300.07 112.43 301.273 112.43 302.766C112.43 304.008 112.824 305.062 113.613 305.93C114.379 306.773 115.496 307.316 116.965 307.559C117.785 307.676 118.539 307.781 119.227 307.875C120.727 308.133 121.469 308.898 121.453 310.172C121.422 311.727 120.297 312.52 118.078 312.551C116.203 312.535 114.586 311.969 113.227 310.852Z" fill="#FF665C"/>
<path d="M126.797 315H129.387V297.914H126.797V315Z" fill="#FF665C"/>
<path d="M132.902 302.836H131.684V304.699H132.902V312C132.902 312.961 133.184 313.695 133.746 314.203C134.293 314.734 134.996 315 135.855 315H137.133V312.691H136.219C135.625 312.707 135.336 312.406 135.352 311.789V304.699H137.133V302.836H135.352V299.133H132.902V302.836Z" fill="#FF665C"/>
<path d="M148.875 309.844V307.828C148.859 306.227 148.363 304.969 147.387 304.055C146.426 303.156 145.25 302.699 143.859 302.684C143.281 302.684 142.695 302.789 142.102 303C141.5 303.211 140.957 303.555 140.473 304.031C139.996 304.5 139.605 305.141 139.301 305.953C138.996 306.75 138.844 307.75 138.844 308.953C138.844 310.203 139.02 311.219 139.371 312C139.691 312.812 140.109 313.445 140.625 313.898C140.891 314.117 141.176 314.301 141.48 314.449C141.77 314.621 142.066 314.758 142.371 314.859C142.98 315.047 143.605 315.141 144.246 315.141C145.926 315.156 147.387 314.5 148.629 313.172L146.859 311.66C146.078 312.449 145.191 312.844 144.199 312.844C143.348 312.844 142.66 312.586 142.137 312.07C141.574 311.562 141.293 310.82 141.293 309.844H148.875ZM141.293 307.828C141.34 306.883 141.594 306.168 142.055 305.684C142.523 305.223 143.125 304.992 143.859 304.992C144.594 304.992 145.195 305.223 145.664 305.684C146.141 306.168 146.395 306.883 146.426 307.828H141.293Z" fill="#FF665C"/>
<path d="M151.582 315H154.031V307.758C154.031 306.906 154.266 306.258 154.734 305.812C155.18 305.359 155.754 305.133 156.457 305.133C157.16 305.133 157.738 305.359 158.191 305.812C158.637 306.258 158.859 306.906 158.859 307.758V315H161.309V307.758C161.309 306.906 161.539 306.258 162 305.812C162.453 305.359 163.031 305.133 163.734 305.133C164.438 305.133 165.012 305.359 165.457 305.812C165.902 306.258 166.125 306.906 166.125 307.758V315H168.574V306.914C168.543 305.523 168.113 304.469 167.285 303.75C166.449 303.039 165.527 302.684 164.52 302.684C162.918 302.668 161.641 303.199 160.688 304.277C160.266 303.809 159.801 303.422 159.293 303.117C158.777 302.844 158.098 302.699 157.254 302.684C155.941 302.684 154.883 303.164 154.078 304.125H154.031V302.836H151.582V315Z" fill="#FF665C"/>
<path d="M178.289 315H180.738V306.691C180.723 305.207 180.258 304.16 179.344 303.551C178.43 302.957 177.207 302.668 175.676 302.684C173.863 302.652 172.492 303.246 171.562 304.465L173.484 305.93C173.695 305.578 173.984 305.328 174.352 305.18C174.703 305.055 175.184 304.992 175.793 304.992C177.473 304.961 178.305 305.48 178.289 306.551V307.828H174.902C173.605 307.844 172.621 308.195 171.949 308.883C171.277 309.555 170.941 310.402 170.941 311.426C170.941 312.496 171.328 313.375 172.102 314.062C172.836 314.766 173.883 315.125 175.242 315.141C176.07 315.141 176.719 315.039 177.188 314.836C177.664 314.641 178.016 314.336 178.242 313.922H178.289V315ZM178.289 310.723C178.289 311.637 178.098 312.223 177.715 312.48C177.293 312.738 176.57 312.859 175.547 312.844C174.734 312.844 174.152 312.684 173.801 312.363C173.434 312.074 173.25 311.723 173.25 311.309C173.234 310.363 173.938 309.875 175.359 309.844H178.289V310.723Z" fill="#FF665C"/>
<path d="M183.902 319.922H186.352V313.699C186.797 314.137 187.285 314.48 187.816 314.73C188.309 315.004 188.867 315.141 189.492 315.141C190.25 315.125 190.898 314.973 191.438 314.684C191.984 314.402 192.426 314.027 192.762 313.559C193.098 313.16 193.328 312.648 193.453 312.023C193.57 311.398 193.629 310.367 193.629 308.93C193.629 307.453 193.57 306.406 193.453 305.789C193.328 305.164 193.098 304.66 192.762 304.277C192.074 303.254 190.984 302.723 189.492 302.684C188.211 302.723 187.164 303.195 186.352 304.102V302.836H183.902V319.922ZM188.754 312.691C188.207 312.691 187.773 312.574 187.453 312.34C187.117 312.113 186.871 311.816 186.715 311.449C186.566 311.082 186.469 310.672 186.422 310.219C186.375 309.789 186.352 309.359 186.352 308.93C186.352 308.469 186.375 308.012 186.422 307.559C186.469 307.129 186.566 306.73 186.715 306.363C186.871 305.996 187.117 305.699 187.453 305.473C187.773 305.246 188.207 305.133 188.754 305.133C189.332 305.133 189.789 305.23 190.125 305.426C190.461 305.637 190.699 305.926 190.84 306.293C190.996 306.645 191.102 307.051 191.156 307.512C191.172 307.973 191.18 308.445 191.18 308.93C191.18 309.391 191.172 309.84 191.156 310.277C191.102 310.723 190.996 311.129 190.84 311.496C190.699 311.848 190.461 312.137 190.125 312.363C189.789 312.582 189.332 312.691 188.754 312.691Z" fill="#FF665C"/>
<path d="M283.054 287.4H288.832C288.49 287.976 288.112 288.48 287.698 288.912L288.598 289.614C289.174 288.966 289.696 288.174 290.164 287.238V286.32H283.72C283.864 286.014 283.99 285.69 284.116 285.366L282.928 285.222C282.46 286.5 281.56 287.58 280.246 288.462L280.966 289.416C281.794 288.822 282.496 288.156 283.054 287.4ZM275.44 286.338V287.454H279.868V286.338H275.44ZM275.08 289.578V290.712H280.246V289.578H275.08ZM285.16 287.724C284.692 289.488 283.216 290.604 280.732 291.054L281.344 291.99C283.252 291.612 284.638 290.838 285.502 289.65C286.852 291.036 288.508 291.882 290.47 292.188L290.992 291.108C288.976 290.856 287.302 290.064 286.006 288.75C286.114 288.498 286.204 288.228 286.276 287.94L285.16 287.724ZM277.204 292.044V299.172H288.832V292.044H277.204ZM287.554 298.128H278.482V296.976H287.554V298.128ZM278.482 296.094V295.05H287.554V296.094H278.482ZM278.482 294.168V293.052H287.554V294.168H278.482ZM284.926 299.334L284.458 300.234C286.546 300.63 288.562 301.17 290.47 301.89L290.902 300.864C288.994 300.198 286.996 299.694 284.926 299.334ZM280.822 299.28C279.526 299.928 277.618 300.45 275.098 300.864L275.692 301.872C278.212 301.44 280.138 300.846 281.47 300.126L280.822 299.28Z" fill="#686868"/>
<path d="M299.38 292.692V293.934H301.54V301.71H302.8V293.934H304.996V292.692H302.8V287.382H305.644V291.756C305.644 295.968 306.022 298.848 306.778 300.36C307.192 301.17 307.696 301.584 308.272 301.584C308.524 301.584 308.722 301.404 308.902 301.044C309.118 300.558 309.28 299.478 309.352 297.786L308.326 297.3C308.29 298.236 308.254 298.956 308.2 299.46C308.128 299.892 308.056 300.126 307.984 300.126C307.84 300.126 307.678 299.82 307.498 299.244C307.102 297.822 306.904 295.32 306.904 291.756V286.122H299.434V287.382H301.54V292.692H299.38ZM292.882 287.652V288.858H299.002V287.652H296.104L296.716 287.418C296.536 286.77 296.284 286.032 295.96 285.24L294.718 285.582C295.042 286.23 295.312 286.932 295.564 287.652H292.882ZM293.548 290.28V291.432H298.3V290.28H293.548ZM293.548 292.782V293.934H298.3V292.782H293.548ZM298.444 295.446H293.422V301.656H294.61V300.648H297.256V301.512H298.444V295.446ZM294.61 299.478V296.616H297.256V299.478H294.61Z" fill="#686868"/>
<path d="M320.314 286.482V292.764H326.146V286.482H320.314ZM324.904 291.576H321.556V287.652H324.904V291.576ZM313.798 285.348V286.968H311.26V288.084H313.708C313.438 290.226 312.484 291.828 310.864 292.908L311.818 293.754C313.618 292.494 314.68 290.604 314.986 288.084H317.47C317.434 289.974 317.344 291.144 317.2 291.576C317.02 292.026 316.606 292.26 315.958 292.278L314.932 292.188L315.256 293.358C315.652 293.394 315.976 293.43 316.264 293.43C317.164 293.43 317.794 293.124 318.172 292.512C318.532 291.9 318.712 290.064 318.73 286.968H315.076V285.348H313.798ZM311.116 295.086V296.31H318.352V301.764H319.648V296.31H326.902V295.086H319.648V293.628H318.352V295.086H311.116ZM316.264 297.066C314.842 298.398 313.096 299.568 311.008 300.576L311.782 301.584C313.906 300.522 315.706 299.28 317.164 297.858L316.264 297.066ZM321.592 296.994L320.836 297.858C322.654 298.902 324.418 300.108 326.128 301.494L326.956 300.558C325.354 299.28 323.572 298.092 321.592 296.994Z" fill="#686868"/>
<path d="M337.054 285.24V286.608H334.858V287.634H337.054V288.876H335.182V289.866H337.054V291.108H334.426V292.134H339.178V293.286H335.434V297.822H334.264V298.884H335.434V301.746H336.604V298.884H342.994V300.18C342.994 300.522 342.76 300.702 342.328 300.702L340.87 300.666L341.158 301.728H342.706C343.678 301.728 344.164 301.296 344.164 300.45V298.884H345.28V297.822H344.164V293.286H340.366V292.134H345.19V291.108H342.58V289.866H344.452V288.876H342.58V287.634H344.776V286.608H342.58V285.24H341.392V286.608H338.26V285.24H337.054ZM336.604 297.822V296.472H339.178V297.822H336.604ZM340.366 297.822V296.472H342.994V297.822H340.366ZM338.26 291.108V289.866H341.392V291.108H338.26ZM338.26 288.876V287.634H341.392V288.876H338.26ZM342.994 295.572H340.366V294.258H342.994V295.572ZM339.178 294.258V295.572H336.604V294.258H339.178ZM332.374 292.602C332.77 293.286 333.256 294.186 333.796 295.284L334.498 294.24C333.778 293.124 333.058 292.134 332.374 291.252V290.064H334.156V288.822H332.374V285.294H331.114V288.822H328.954V290.064H331.024C330.538 292.35 329.728 294.384 328.612 296.148L329.116 297.444C329.926 296.058 330.592 294.528 331.114 292.836V301.746H332.374V292.602Z" fill="#686868"/>
<g filter="url(#filter2_d)">
<ellipse cx="152.5" cy="456" rx="71.5" ry="72" fill="white"/>
</g>
<path d="M124.582 460.219C123.863 461.773 122.777 462.551 121.324 462.551C120.715 462.551 120.191 462.422 119.754 462.164C119.309 461.945 118.949 461.66 118.676 461.309C118.34 460.941 118.117 460.461 118.008 459.867C117.883 459.273 117.82 458.137 117.82 456.457C117.82 454.777 117.883 453.633 118.008 453.023C118.117 452.445 118.34 451.973 118.676 451.605C118.949 451.254 119.309 450.961 119.754 450.727C120.191 450.5 120.715 450.379 121.324 450.363C122.152 450.379 122.855 450.617 123.434 451.078C123.988 451.562 124.371 452.148 124.582 452.836H127.324C127.051 451.406 126.395 450.207 125.355 449.238C124.316 448.277 122.973 447.789 121.324 447.773C119.98 447.789 118.859 448.109 117.961 448.734C117.047 449.352 116.383 450.055 115.969 450.844C115.711 451.258 115.52 451.801 115.395 452.473C115.277 453.145 115.219 454.473 115.219 456.457C115.219 458.41 115.277 459.73 115.395 460.418C115.457 460.785 115.535 461.09 115.629 461.332C115.73 461.566 115.844 461.812 115.969 462.07C116.383 462.859 117.047 463.555 117.961 464.156C118.859 464.781 119.98 465.109 121.324 465.141C122.809 465.141 124.094 464.719 125.18 463.875C126.234 463.023 126.949 461.805 127.324 460.219H124.582Z" fill="#FF665C"/>
<path d="M128.344 458.906C128.344 460.188 128.449 461.164 128.66 461.836C128.879 462.508 129.215 463.09 129.668 463.582C130.004 463.965 130.473 464.309 131.074 464.613C131.668 464.949 132.43 465.125 133.359 465.141C134.32 465.125 135.098 464.949 135.691 464.613C136.012 464.473 136.273 464.305 136.477 464.109C136.703 463.938 136.895 463.762 137.051 463.582C137.535 463.09 137.879 462.508 138.082 461.836C138.277 461.164 138.375 460.188 138.375 458.906C138.375 457.625 138.277 456.641 138.082 455.953C137.879 455.281 137.535 454.715 137.051 454.254C136.73 453.848 136.277 453.484 135.691 453.164C135.098 452.859 134.32 452.699 133.359 452.684C132.43 452.699 131.668 452.859 131.074 453.164C130.473 453.484 130.004 453.848 129.668 454.254C129.215 454.715 128.879 455.281 128.66 455.953C128.449 456.641 128.344 457.625 128.344 458.906ZM135.926 458.93C135.926 459.758 135.887 460.367 135.809 460.758C135.73 461.156 135.57 461.508 135.328 461.812C135.148 462.047 134.883 462.254 134.531 462.434C134.195 462.605 133.805 462.691 133.359 462.691C132.945 462.691 132.562 462.605 132.211 462.434C131.875 462.254 131.602 462.047 131.391 461.812C131.18 461.508 131.027 461.156 130.934 460.758C130.84 460.367 130.793 459.75 130.793 458.906C130.793 458.055 130.84 457.43 130.934 457.031C131.027 456.648 131.18 456.312 131.391 456.023C131.602 455.75 131.875 455.535 132.211 455.379C132.562 455.215 132.945 455.133 133.359 455.133C133.805 455.133 134.195 455.215 134.531 455.379C134.883 455.535 135.148 455.75 135.328 456.023C135.57 456.312 135.73 456.648 135.809 457.031C135.887 457.43 135.926 458.062 135.926 458.93Z" fill="#FF665C"/>
<path d="M140.941 465H143.391V457.758C143.391 456.906 143.621 456.258 144.082 455.812C144.535 455.359 145.113 455.133 145.816 455.133C146.52 455.133 147.094 455.359 147.539 455.812C147.992 456.258 148.219 456.906 148.219 457.758V465H150.668V456.914C150.629 455.523 150.195 454.469 149.367 453.75C148.531 453.039 147.609 452.684 146.602 452.684C145.297 452.684 144.242 453.164 143.438 454.125H143.391V452.836H140.941V465Z" fill="#FF665C"/>
<path d="M153.973 452.836H152.754V454.699H153.973V462C153.973 462.961 154.254 463.695 154.816 464.203C155.363 464.734 156.066 465 156.926 465H158.203V462.691H157.289C156.695 462.707 156.406 462.406 156.422 461.789V454.699H158.203V452.836H156.422V449.133H153.973V452.836Z" fill="#FF665C"/>
<path d="M169.945 459.844V457.828C169.93 456.227 169.434 454.969 168.457 454.055C167.496 453.156 166.32 452.699 164.93 452.684C164.352 452.684 163.766 452.789 163.172 453C162.57 453.211 162.027 453.555 161.543 454.031C161.066 454.5 160.676 455.141 160.371 455.953C160.066 456.75 159.914 457.75 159.914 458.953C159.914 460.203 160.09 461.219 160.441 462C160.762 462.812 161.18 463.445 161.695 463.898C161.961 464.117 162.246 464.301 162.551 464.449C162.84 464.621 163.137 464.758 163.441 464.859C164.051 465.047 164.676 465.141 165.316 465.141C166.996 465.156 168.457 464.5 169.699 463.172L167.93 461.66C167.148 462.449 166.262 462.844 165.27 462.844C164.418 462.844 163.73 462.586 163.207 462.07C162.645 461.562 162.363 460.82 162.363 459.844H169.945ZM162.363 457.828C162.41 456.883 162.664 456.168 163.125 455.684C163.594 455.223 164.195 454.992 164.93 454.992C165.664 454.992 166.266 455.223 166.734 455.684C167.211 456.168 167.465 456.883 167.496 457.828H162.363Z" fill="#FF665C"/>
<path d="M172.512 465H174.961V457.758C174.961 456.906 175.191 456.258 175.652 455.812C176.105 455.359 176.684 455.133 177.387 455.133C178.09 455.133 178.664 455.359 179.109 455.812C179.562 456.258 179.789 456.906 179.789 457.758V465H182.238V456.914C182.199 455.523 181.766 454.469 180.938 453.75C180.102 453.039 179.18 452.684 178.172 452.684C176.867 452.684 175.812 453.164 175.008 454.125H174.961V452.836H172.512V465Z" fill="#FF665C"/>
<path d="M185.543 452.836H184.324V454.699H185.543V462C185.543 462.961 185.824 463.695 186.387 464.203C186.934 464.734 187.637 465 188.496 465H189.773V462.691H188.859C188.266 462.707 187.977 462.406 187.992 461.789V454.699H189.773V452.836H187.992V449.133H185.543V452.836Z" fill="#FF665C"/>
<path d="M275.152 451.336V452.632H277.924C278.734 455.404 280.174 457.816 282.262 459.868C280.318 461.632 277.834 462.91 274.81 463.72L275.494 464.854C278.554 463.972 281.11 462.586 283.162 460.696C285.106 462.37 287.554 463.756 290.542 464.872L291.244 463.792C288.364 462.73 285.97 461.398 284.062 459.778C285.826 457.87 287.158 455.476 288.04 452.632H290.848V451.336H283.972C283.396 450.094 282.784 449.032 282.1 448.168L280.804 448.636C281.524 449.482 282.118 450.382 282.604 451.336H275.152ZM279.202 452.632H286.69C285.934 455.116 284.764 457.222 283.162 458.968C281.29 457.168 279.976 455.062 279.202 452.632Z" fill="#686868"/>
<path d="M299.758 451.174C299.398 451.678 299.002 452.2 298.606 452.722H293.854V453.766H297.76C297.328 454.27 296.878 454.774 296.41 455.314C297.634 455.548 298.876 455.818 300.136 456.124C298.552 456.628 296.392 456.898 293.674 456.898L294.376 457.96C297.454 457.924 299.938 457.456 301.81 456.556C303.628 457.042 305.428 457.618 307.228 458.266L307.984 457.276C306.328 456.736 304.708 456.25 303.124 455.836C303.862 455.296 304.546 454.612 305.176 453.766H308.182V452.722H300.028C300.316 452.362 300.604 451.966 300.928 451.534L299.758 451.174ZM301.648 455.458C300.496 455.188 299.38 454.954 298.282 454.756C298.552 454.468 298.84 454.126 299.164 453.766H303.772C303.232 454.396 302.512 454.954 301.648 455.458ZM308.236 449.716H301.684C301.468 449.176 301.252 448.672 301.018 448.222L299.668 448.438C299.938 448.834 300.19 449.248 300.424 449.716H293.764V452.254H294.988V450.814H307.012V452.254H308.236V449.716ZM293.296 459.004V460.156H300.37V464.818H301.702V460.156H308.722V459.004H301.702V457.6H300.37V459.004H293.296ZM304.24 460.714L303.448 461.488C305.158 462.532 306.508 463.54 307.498 464.476L308.398 463.576C307.282 462.64 305.896 461.686 304.24 460.714ZM297.76 460.732C296.572 461.758 295.132 462.658 293.44 463.432L294.214 464.458C295.96 463.594 297.436 462.604 298.624 461.488L297.76 460.732Z" fill="#686868"/>
<path d="M312.628 464.782C313.6 464.782 314.104 464.296 314.104 463.342V457.852C314.698 457.564 315.274 457.24 315.85 456.898V455.584C315.274 455.944 314.698 456.268 314.104 456.556V452.848H315.706V451.624H314.104V448.348H312.862V451.624H310.972V452.848H312.862V457.114C312.178 457.384 311.458 457.618 310.702 457.834L311.026 459.148C311.638 458.932 312.25 458.68 312.862 458.428V463.036C312.862 463.432 312.628 463.648 312.178 463.648C311.818 463.648 311.422 463.612 311.008 463.558L311.278 464.782H312.628ZM318.91 455.62V456.934H316.642V458.068H318.91V459.976H316.084V461.128H327.046V459.976H324.274V458.068H326.488V456.934H324.274V455.62H323.068V456.934H320.116V455.62H318.91ZM320.116 459.976V458.068H323.068V459.976H320.116ZM323.194 461.632L322.564 462.568C323.896 463.072 325.21 463.774 326.47 464.674L327.136 463.648C325.948 462.856 324.634 462.19 323.194 461.632ZM319.954 461.614C318.874 462.406 317.56 463.108 315.994 463.702L316.75 464.674C318.352 464.026 319.702 463.252 320.8 462.37L319.954 461.614ZM316.768 455.674C318.496 455.35 320.026 455.008 321.376 454.63L321.088 453.604C320.026 453.928 318.928 454.198 317.812 454.414V452.398H320.962V448.924H316.678V454.18C316.678 454.468 316.57 454.684 316.354 454.792L316.768 455.674ZM317.812 451.354V449.95H319.81V451.354H317.812ZM325.246 449.95V451.354H323.122V449.95H325.246ZM323.122 452.362H326.398V448.978H321.97V454C321.97 454.72 322.348 455.098 323.14 455.098H326.776V454.054H323.716C323.32 454.054 323.122 453.856 323.122 453.496V452.362Z" fill="#686868"/>
<path d="M340.528 460.3L339.538 460.696C339.88 461.308 340.204 462.046 340.51 462.892L341.5 462.46C341.212 461.704 340.888 460.984 340.528 460.3ZM337.918 460.606L336.856 460.822C337.18 461.596 337.45 462.478 337.666 463.486L338.8 463.216C338.548 462.28 338.242 461.398 337.918 460.606ZM339.304 464.746H341.266C342.058 464.71 342.634 464.53 342.994 464.188C343.354 463.828 343.606 463.18 343.768 462.28C343.912 461.344 344.002 460.138 344.056 458.662H333.922C334.246 458.32 334.57 457.96 334.876 457.564H342.472V452.074H337.738V453.118H341.284V454.324H337.972V455.314H341.284V456.502H332.716V455.314H336.208V454.306H332.716V453.118C334.3 452.92 335.56 452.65 336.496 452.308L335.92 451.354C334.696 451.768 333.256 452.02 331.564 452.128V457.564H333.436C332.302 458.752 330.916 459.742 329.278 460.534L330.088 461.506C331.06 460.984 331.942 460.39 332.752 459.742H342.796C342.724 461.38 342.544 462.442 342.292 462.946C342.04 463.414 341.5 463.666 340.69 463.666C340.15 463.666 339.592 463.648 338.998 463.612L339.304 464.746ZM331.87 460.66C331.51 462.028 331.096 463.18 330.61 464.08L331.78 464.494C332.248 463.468 332.644 462.28 332.968 460.948L331.87 460.66ZM335.308 460.786L334.228 461.02C334.462 461.92 334.66 462.982 334.804 464.188L335.974 463.918C335.776 462.784 335.56 461.74 335.308 460.786ZM344.47 449.716H337.612C337.396 449.176 337.162 448.672 336.928 448.24L335.596 448.456C335.848 448.834 336.1 449.248 336.316 449.716H329.548V452.974H330.772V450.868H343.246V452.956H344.47V449.716Z" fill="#686868"/>
<g filter="url(#filter3_d)">
<ellipse cx="152.5" cy="620" rx="71.5" ry="72" fill="white"/>
</g>
<path d="M108.828 622.883L111.301 615.418H111.348L113.82 622.883H108.828ZM115.883 629H118.613L112.402 611.914H110.234L104.023 629H106.766L108.078 625.18H114.559L115.883 629Z" fill="#FF665C"/>
<path d="M120.371 616.836H119.152V618.699H120.371V626C120.371 626.961 120.652 627.695 121.215 628.203C121.762 628.734 122.465 629 123.324 629H124.602V626.691H123.688C123.094 626.707 122.805 626.406 122.82 625.789V618.699H124.602V616.836H122.82V613.133H120.371V616.836Z" fill="#FF665C"/>
<path d="M126.312 622.906C126.312 624.188 126.418 625.164 126.629 625.836C126.848 626.508 127.184 627.09 127.637 627.582C127.973 627.965 128.441 628.309 129.043 628.613C129.637 628.949 130.398 629.125 131.328 629.141C132.289 629.125 133.066 628.949 133.66 628.613C133.98 628.473 134.242 628.305 134.445 628.109C134.672 627.938 134.863 627.762 135.02 627.582C135.504 627.09 135.848 626.508 136.051 625.836C136.246 625.164 136.344 624.188 136.344 622.906C136.344 621.625 136.246 620.641 136.051 619.953C135.848 619.281 135.504 618.715 135.02 618.254C134.699 617.848 134.246 617.484 133.66 617.164C133.066 616.859 132.289 616.699 131.328 616.684C130.398 616.699 129.637 616.859 129.043 617.164C128.441 617.484 127.973 617.848 127.637 618.254C127.184 618.715 126.848 619.281 126.629 619.953C126.418 620.641 126.312 621.625 126.312 622.906ZM133.895 622.93C133.895 623.758 133.855 624.367 133.777 624.758C133.699 625.156 133.539 625.508 133.297 625.812C133.117 626.047 132.852 626.254 132.5 626.434C132.164 626.605 131.773 626.691 131.328 626.691C130.914 626.691 130.531 626.605 130.18 626.434C129.844 626.254 129.57 626.047 129.359 625.812C129.148 625.508 128.996 625.156 128.902 624.758C128.809 624.367 128.762 623.75 128.762 622.906C128.762 622.055 128.809 621.43 128.902 621.031C128.996 620.648 129.148 620.312 129.359 620.023C129.57 619.75 129.844 619.535 130.18 619.379C130.531 619.215 130.914 619.133 131.328 619.133C131.773 619.133 132.164 619.215 132.5 619.379C132.852 619.535 133.117 619.75 133.297 620.023C133.539 620.312 133.699 620.648 133.777 621.031C133.855 621.43 133.895 622.062 133.895 622.93Z" fill="#FF665C"/>
<path d="M139.051 629H141.5V621.758C141.5 620.906 141.734 620.258 142.203 619.812C142.648 619.359 143.223 619.133 143.926 619.133C144.629 619.133 145.207 619.359 145.66 619.812C146.105 620.258 146.328 620.906 146.328 621.758V629H148.777V621.758C148.777 620.906 149.008 620.258 149.469 619.812C149.922 619.359 150.5 619.133 151.203 619.133C151.906 619.133 152.48 619.359 152.926 619.812C153.371 620.258 153.594 620.906 153.594 621.758V629H156.043V620.914C156.012 619.523 155.582 618.469 154.754 617.75C153.918 617.039 152.996 616.684 151.988 616.684C150.387 616.668 149.109 617.199 148.156 618.277C147.734 617.809 147.27 617.422 146.762 617.117C146.246 616.844 145.566 616.699 144.723 616.684C143.41 616.684 142.352 617.164 141.547 618.125H141.5V616.836H139.051V629Z" fill="#FF665C"/>
<path d="M159.441 629H161.891V616.836H159.441V629ZM159.441 614.363H161.891V611.914H159.441V614.363Z" fill="#FF665C"/>
<path d="M172.285 625.426C171.668 626.254 170.844 626.676 169.812 626.691C167.734 626.73 166.68 625.477 166.648 622.93C166.68 620.367 167.734 619.102 169.812 619.133C170.844 619.164 171.668 619.59 172.285 620.41L174.09 618.805C173.559 618.164 172.934 617.652 172.215 617.27C171.496 616.895 170.664 616.699 169.719 616.684C168.281 616.668 167.02 617.148 165.934 618.125C164.809 619.117 164.23 620.719 164.199 622.93C164.23 625.117 164.809 626.699 165.934 627.676C167.02 628.652 168.281 629.141 169.719 629.141C170.664 629.125 171.496 628.918 172.215 628.52C172.934 628.137 173.559 627.641 174.09 627.031L172.285 625.426Z" fill="#FF665C"/>
<path d="M181.473 623.211C181.488 625.008 182.082 626.434 183.254 627.488C184.402 628.574 185.832 629.125 187.543 629.141C189.285 629.125 190.727 628.574 191.867 627.488C193 626.434 193.582 625.008 193.613 623.211V611.914H191.023V622.93C191.008 624.094 190.68 624.98 190.039 625.59C189.383 626.23 188.551 626.551 187.543 626.551C186.535 626.551 185.711 626.23 185.07 625.59C184.414 624.98 184.078 624.094 184.062 622.93V611.914H181.473V623.211Z" fill="#FF665C"/>
<path d="M196.906 629H199.496V611.914H196.906V629Z" fill="#FF665C"/>
<path d="M288.454 593.984V600.86H293.008V605.018C293.008 605.378 292.792 605.558 292.396 605.558C291.874 605.558 291.334 605.522 290.758 605.468L291.028 606.746H292.846C293.818 606.746 294.304 606.26 294.304 605.324V600.86H298.48V593.984H293.476C293.656 593.444 293.8 592.886 293.908 592.31H299.794V591.032H285.142V598.07C285.106 601.4 284.638 604.01 283.738 605.9L284.71 606.764C285.808 604.586 286.384 601.688 286.456 598.07V592.31H292.612C292.522 592.886 292.396 593.444 292.216 593.984H288.454ZM297.22 599.69H289.714V597.962H297.22V599.69ZM289.714 596.846V595.172H297.22V596.846H289.714ZM289.75 601.706C288.958 603.164 288.022 604.424 286.924 605.468L288.004 606.224C289.102 605.108 290.056 603.794 290.884 602.246L289.75 601.706ZM297.058 601.688L296.014 602.336C297.202 603.776 298.156 605.108 298.84 606.296L299.92 605.558C299.254 604.46 298.3 603.164 297.058 601.688Z" fill="#686868"/>
<path d="M302.134 598.034V599.294H309.712V604.64C309.712 605.18 309.424 605.468 308.848 605.468C307.804 605.468 306.85 605.45 305.95 605.414L306.292 606.674H309.37C310.468 606.674 311.026 606.134 311.026 605.054V599.294H317.866V598.034H311.026V596.144C312.862 594.938 314.482 593.66 315.904 592.31V591.086H304.024V592.31H314.14C312.736 593.534 311.26 594.596 309.712 595.478V598.034H302.134Z" fill="#686868"/>
<path d="M325.21 590.186C324.058 593.012 322.24 595.514 319.72 597.71L320.134 599.06C321.07 598.268 321.952 597.422 322.744 596.558V606.836H324.04V594.956C325.012 593.642 325.804 592.238 326.416 590.744L325.21 590.186ZM335.38 595.514L329.512 595.856V590.384H328.216V604.604C328.216 605.864 328.828 606.512 330.052 606.512H333.58C334.408 606.512 335.002 606.296 335.326 605.864C335.632 605.432 335.848 604.172 335.974 602.102L334.768 601.706C334.696 603.488 334.57 604.532 334.372 604.82C334.156 605.108 333.814 605.27 333.364 605.27H330.358C329.782 605.27 329.512 604.982 329.512 604.424V597.08L335.38 596.756V595.514Z" fill="#686868"/>
<path d="M285.34 631.36V641.656H286.636V631.36H285.34ZM279.274 631.414V634.672C279.238 637.57 278.284 639.676 276.394 640.99L277.348 641.836C279.436 640.324 280.516 637.948 280.57 634.672V631.414H279.274ZM282.532 625.384C280.498 627.922 277.942 630.046 274.882 631.756L275.512 632.908C278.608 631.126 281.11 629.02 283 626.608C285.07 629.128 287.572 631.18 290.524 632.746L291.154 631.594C288.238 630.082 285.682 628.012 283.468 625.384H282.532Z" fill="#686868"/>
<path d="M292.99 626.014V627.274H300.478C300.334 628.066 300.1 628.822 299.812 629.578H294.016V641.854H295.258V640.954H306.796V641.854H308.038V629.578H301.126C301.414 628.84 301.648 628.066 301.792 627.274H309.01V626.014H292.99ZM295.258 639.766V630.748H297.742V639.766H295.258ZM298.948 639.766V637.462H303.052V639.766H298.948ZM304.258 639.766V630.748H306.796V639.766H304.258ZM298.948 636.328V634.132H303.052V636.328H298.948ZM298.948 632.98V630.748H303.052V632.98H298.948Z" fill="#686868"/>
<path d="M316.93 635.464H311.494V641.53H312.718V640.648H316.93V635.464ZM312.718 639.478V636.598H315.742V639.478H312.718ZM310.882 627.67V628.858H317.596V627.67H314.428L315.13 627.418C314.878 626.752 314.554 626.032 314.122 625.24L312.88 625.582C313.312 626.248 313.672 626.95 313.978 627.67H310.882ZM311.638 630.298V631.432H316.804V630.298H311.638ZM311.638 632.782V633.916H316.804V632.782H311.638ZM318.172 632.998V634.258H319.306C319.72 635.77 320.494 637.156 321.628 638.38C320.404 639.352 318.892 640.144 317.056 640.756L317.758 641.854C319.666 641.206 321.286 640.36 322.582 639.28C323.698 640.234 325.084 641.098 326.74 641.854L327.442 640.738C325.858 640.09 324.544 639.316 323.464 638.452C324.616 637.264 325.426 635.842 325.93 634.186V632.998H318.172ZM320.548 634.258H324.67C324.184 635.482 323.464 636.598 322.528 637.57C321.592 636.598 320.926 635.482 320.548 634.258ZM319.522 625.996V628.156C319.522 629.488 318.82 630.514 317.434 631.234L318.298 632.188C319.954 631.216 320.8 629.83 320.8 628.03V627.22H323.608V630.154C323.608 631.216 324.166 631.756 325.318 631.756H326.92V630.568H325.642C325.138 630.568 324.904 630.334 324.904 629.884V625.996H319.522Z" fill="#686868"/>
<path d="M330.61 640.702H333.616V641.53H334.858V635.446H329.368V641.782H330.61V640.702ZM333.616 639.514H330.61V636.616H333.616V639.514ZM328.72 627.652V628.858H335.524V627.652H332.374L333.004 627.418C332.788 626.77 332.482 626.032 332.086 625.24L330.844 625.582C331.222 626.23 331.546 626.932 331.816 627.652H328.72ZM329.422 630.316V631.45H334.804V630.316H329.422ZM329.422 632.782V633.934H334.804V632.782H329.422ZM339.826 625.33V631.234H335.83V632.494H339.826V641.782H341.104V632.494H345.226V631.234H341.104V625.33H339.826Z" fill="#686868"/>
<g filter="url(#filter4_d)">
<ellipse cx="152.5" cy="784" rx="71.5" ry="72" fill="white"/>
</g>
<path d="M128.016 793H130.031L135.68 775.914H132.938L129.047 788.922H129L125.121 775.914H122.379L128.016 793Z" fill="#FF5C7A"/>
<path d="M136.922 793H139.371V780.836H136.922V793ZM136.922 778.363H139.371V775.914H136.922V778.363Z" fill="#FF5C7A"/>
<path d="M142.98 789.285L141.27 790.961C142.855 792.414 144.641 793.141 146.625 793.141C148.086 793.125 149.285 792.789 150.223 792.133C151.168 791.492 151.648 790.582 151.664 789.402C151.664 788.395 151.402 787.562 150.879 786.906C150.316 786.234 149.402 785.852 148.137 785.758L146.121 785.605C145.527 785.543 145.113 785.398 144.879 785.172C144.621 784.969 144.5 784.73 144.516 784.457C144.516 784.027 144.676 783.676 144.996 783.402C145.301 783.129 145.836 782.992 146.602 782.992C147.273 782.992 147.867 783.09 148.383 783.285C148.906 783.504 149.402 783.781 149.871 784.117L151.383 782.348C150.789 781.832 150.117 781.422 149.367 781.117C148.977 780.977 148.559 780.867 148.113 780.789C147.668 780.719 147.164 780.684 146.602 780.684C145.305 780.684 144.234 780.996 143.391 781.621C142.523 782.246 142.082 783.184 142.066 784.434C142.082 785.473 142.418 786.281 143.074 786.859C143.715 787.453 144.547 787.797 145.57 787.891L147.727 788.078C148.18 788.094 148.543 788.191 148.816 788.371C149.082 788.543 149.215 788.848 149.215 789.285C149.215 789.777 148.992 790.16 148.547 790.434C148.102 790.707 147.527 790.844 146.824 790.844C145.254 790.844 143.973 790.324 142.98 789.285Z" fill="#FF5C7A"/>
<path d="M154.148 788.922C154.164 790.297 154.613 791.336 155.496 792.039C156.309 792.758 157.219 793.125 158.227 793.141C159.523 793.141 160.574 792.66 161.379 791.699H161.426V793H163.875V780.836H161.426V788.078C161.426 788.898 161.199 789.539 160.746 790C160.301 790.461 159.727 790.691 159.023 790.691C158.32 790.691 157.742 790.461 157.289 790C156.828 789.539 156.598 788.898 156.598 788.078V780.836H154.148V788.922Z" fill="#FF5C7A"/>
<path d="M173.426 793H175.875V784.691C175.859 783.207 175.395 782.16 174.48 781.551C173.566 780.957 172.344 780.668 170.812 780.684C169 780.652 167.629 781.246 166.699 782.465L168.621 783.93C168.832 783.578 169.121 783.328 169.488 783.18C169.84 783.055 170.32 782.992 170.93 782.992C172.609 782.961 173.441 783.48 173.426 784.551V785.828H170.039C168.742 785.844 167.758 786.195 167.086 786.883C166.414 787.555 166.078 788.402 166.078 789.426C166.078 790.496 166.465 791.375 167.238 792.062C167.973 792.766 169.02 793.125 170.379 793.141C171.207 793.141 171.855 793.039 172.324 792.836C172.801 792.641 173.152 792.336 173.379 791.922H173.426V793ZM173.426 788.723C173.426 789.637 173.234 790.223 172.852 790.48C172.43 790.738 171.707 790.859 170.684 790.844C169.871 790.844 169.289 790.684 168.938 790.363C168.57 790.074 168.387 789.723 168.387 789.309C168.371 788.363 169.074 787.875 170.496 787.844H173.426V788.723Z" fill="#FF5C7A"/>
<path d="M179.039 790.047C179.039 791.117 179.344 791.879 179.953 792.332C180.531 792.777 181.266 793 182.156 793H183.246V790.691H182.402C181.793 790.691 181.488 790.414 181.488 789.859V775.914H179.039V790.047Z" fill="#FF5C7A"/>
<path d="M275.116 776.996V778.22H276.97V783.422H274.792V784.664H276.952C276.826 787.94 276.106 790.352 274.792 791.9L275.764 792.746C277.294 791.018 278.14 788.318 278.284 784.664H280.984V792.674H282.298V784.664H284.368V783.422H282.298V778.22H284.098V776.996H275.116ZM278.302 778.22H280.984V783.422H278.302V778.22ZM289.354 776.348C287.986 777.824 286.258 779.012 284.17 779.912L284.728 781.1C286.924 780.092 288.742 778.832 290.2 777.32L289.354 776.348ZM290.128 781.226C288.76 782.81 287.032 784.106 284.926 785.078L285.484 786.248C287.68 785.168 289.498 783.818 290.974 782.198L290.128 781.226ZM290.578 786.212C288.85 788.408 286.672 790.172 284.026 791.504L284.584 792.71C287.32 791.252 289.606 789.416 291.442 787.184L290.578 786.212Z" fill="#686868"/>
<path d="M294.286 787.868V789.056H300.316V790.982H293.098V792.188H308.902V790.982H301.612V789.056H307.732V787.868H301.612V786.5H300.316V787.868H294.286ZM293.314 778.508V779.66H296.914V781.37C296.896 781.838 296.842 782.288 296.77 782.72H295.06V780.596H293.926V783.8H296.41C296.338 783.98 296.23 784.178 296.104 784.376C295.564 785.114 294.61 785.708 293.242 786.14L293.89 787.166C295.366 786.68 296.428 785.996 297.076 785.132C297.346 784.736 297.562 784.304 297.742 783.8H300.892V780.596H299.74V782.72H298.012C298.066 782.306 298.102 781.856 298.12 781.37V779.66H301.468V778.508H299.29C299.65 777.968 299.992 777.338 300.298 776.654L299.146 776.258C298.822 777.05 298.462 777.806 298.048 778.508H296.752C296.356 777.716 295.924 776.996 295.474 776.312L294.43 776.816C294.772 777.32 295.114 777.878 295.456 778.508H293.314ZM303.556 780.812H306.976V782.414H303.484C303.52 782.054 303.556 781.676 303.556 781.28V780.812ZM306.976 779.768H303.556V778.076H306.976V779.768ZM303.268 783.458H306.976V784.664C306.976 785.132 306.778 785.384 306.418 785.384C305.914 785.384 305.392 785.348 304.816 785.312L305.122 786.482H306.796C307.732 786.482 308.218 786.014 308.218 785.096V776.924H302.35V781.352C302.314 783.08 301.756 784.52 300.64 785.636L301.576 786.482C302.386 785.636 302.944 784.628 303.268 783.458Z" fill="#686868"/>
<path d="M313.186 785.42V792.746H314.482V785.24C315.058 785.708 315.634 786.266 316.21 786.914L316.912 785.852C316.174 785.096 315.364 784.448 314.482 783.89V783.782C315.382 782.504 316.03 781.226 316.444 779.93V778.832H314.266L314.788 778.634C314.608 777.878 314.338 777.032 313.978 776.132L312.754 776.492C313.078 777.248 313.366 778.022 313.618 778.832H311.116V780.074H315.148C314.428 782.036 312.952 784.07 310.72 786.176L311.116 787.526C311.872 786.824 312.574 786.122 313.186 785.42ZM317.506 776.96V786.932H319.36C319.162 789.128 318.028 790.694 315.958 791.666L316.642 792.746C319.036 791.522 320.35 789.596 320.566 786.932H322.582V791.036C322.582 792.008 323.122 792.512 324.238 792.512H325.39C326.146 792.476 326.632 792.26 326.848 791.882C327.082 791.468 327.208 790.406 327.208 788.678L326.074 788.246C326.074 789.362 326.02 790.154 325.948 790.658C325.894 791.09 325.696 791.306 325.336 791.342H324.274C323.95 791.306 323.788 791.126 323.788 790.802V786.932H325.858V776.96H317.506ZM324.598 785.834H318.766V783.908H324.598V785.834ZM318.766 782.864V780.938H324.598V782.864H318.766ZM318.766 779.894V778.076H324.598V779.894H318.766Z" fill="#686868"/>
<path d="M331.6 779.678H334.336V778.85H331.546L331.474 777.986C332.806 777.77 333.76 777.554 334.354 777.356L333.976 776.438C332.896 776.798 331.672 777.05 330.34 777.212L330.718 782.414H329.404V785.24H330.556V783.35H343.462V785.24H344.614V782.414H343.354L343.678 776.906H339.664V777.86H342.562L342.508 778.85H339.736V779.678H342.454L342.4 780.578H339.682V781.388H342.346L342.274 782.414H331.798L331.726 781.388H334.336V780.578H331.672L331.6 779.678ZM335.686 776.618L335.092 777.194C335.596 777.446 336.064 777.68 336.496 777.932C335.992 778.22 335.452 778.454 334.858 778.652L335.308 779.39C336.1 779.066 336.766 778.742 337.306 778.4C337.81 778.706 338.26 779.012 338.656 779.336L339.268 778.724C338.89 778.454 338.476 778.184 338.008 777.896C338.35 777.626 338.692 777.302 339.052 776.924L338.332 776.492C337.99 776.834 337.63 777.158 337.252 777.446C336.748 777.158 336.226 776.888 335.686 776.618ZM335.812 779.462L335.254 780.002C335.704 780.254 336.136 780.524 336.55 780.776C336.082 781.064 335.542 781.316 334.948 781.532L335.38 782.252C336.136 781.928 336.766 781.586 337.27 781.244C337.738 781.568 338.17 781.91 338.566 782.234L339.16 781.64C338.8 781.352 338.386 781.046 337.918 780.74C338.242 780.452 338.584 780.128 338.908 779.75L338.224 779.318C337.918 779.66 337.594 779.984 337.234 780.29C336.784 780.002 336.316 779.732 335.812 779.462ZM331.708 784.178V790.064H334.858C333.94 791.018 332.014 791.63 329.08 791.918L329.692 792.854C333.094 792.458 335.236 791.54 336.136 790.064H338.134V791.306C338.134 792.098 338.584 792.512 339.484 792.512H343.048C343.66 792.512 344.092 792.386 344.362 792.17C344.686 791.882 344.902 791.126 345.028 789.902L343.948 789.542C343.876 790.496 343.75 791.072 343.57 791.252C343.426 791.414 343.174 791.504 342.814 791.504H339.808C339.466 791.504 339.304 791.36 339.304 791.072V790.064H342.274V784.178H331.708ZM341.086 789.2H332.878V788.228H341.086V789.2ZM332.878 787.49V786.608H341.086V787.49H332.878ZM332.878 785.87V784.934H341.086V785.87H332.878Z" fill="#686868"/>
<defs>
<filter id="filter0_d" x="64" y="57" width="177" height="182" filterUnits="userSpaceOnUse" color-interpolation-filters="sRGB">
<feFlood flood-opacity="0" result="BackgroundImageFix"/>
<feColorMatrix in="SourceAlpha" type="matrix" values="0 0 0 0 0 0 0 0 0 0 0 0 0 0 0 0 0 0 127 0"/>
<feMorphology radius="8" operator="erode" in="SourceAlpha" result="effect1_dropShadow"/>
<feOffset dy="22"/>
<feGaussianBlur stdDeviation="12.5"/>
<feColorMatrix type="matrix" values="0 0 0 0 0.7875 0 0 0 0 0.7875 0 0 0 0 0.7875 0 0 0 0.25 0"/>
<feBlend mode="normal" in2="BackgroundImageFix" result="effect1_dropShadow"/>
<feBlend mode="normal" in="SourceGraphic" in2="effect1_dropShadow" result="shape"/>
</filter>
<filter id="filter1_d" x="64" y="220" width="177" height="183" filterUnits="userSpaceOnUse" color-interpolation-filters="sRGB">
<feFlood flood-opacity="0" result="BackgroundImageFix"/>
<feColorMatrix in="SourceAlpha" type="matrix" values="0 0 0 0 0 0 0 0 0 0 0 0 0 0 0 0 0 0 127 0"/>
<feMorphology radius="8" operator="erode" in="SourceAlpha" result="effect1_dropShadow"/>
<feOffset dy="22"/>
<feGaussianBlur stdDeviation="12.5"/>
<feColorMatrix type="matrix" values="0 0 0 0 0.7875 0 0 0 0 0.7875 0 0 0 0 0.7875 0 0 0 0.25 0"/>
<feBlend mode="normal" in2="BackgroundImageFix" result="effect1_dropShadow"/>
<feBlend mode="normal" in="SourceGraphic" in2="effect1_dropShadow" result="shape"/>
</filter>
<filter id="filter2_d" x="64" y="384" width="177" height="183" filterUnits="userSpaceOnUse" color-interpolation-filters="sRGB">
<feFlood flood-opacity="0" result="BackgroundImageFix"/>
<feColorMatrix in="SourceAlpha" type="matrix" values="0 0 0 0 0 0 0 0 0 0 0 0 0 0 0 0 0 0 127 0"/>
<feMorphology radius="8" operator="erode" in="SourceAlpha" result="effect1_dropShadow"/>
<feOffset dy="22"/>
<feGaussianBlur stdDeviation="12.5"/>
<feColorMatrix type="matrix" values="0 0 0 0 0.7875 0 0 0 0 0.7875 0 0 0 0 0.7875 0 0 0 0.25 0"/>
<feBlend mode="normal" in2="BackgroundImageFix" result="effect1_dropShadow"/>
<feBlend mode="normal" in="SourceGraphic" in2="effect1_dropShadow" result="shape"/>
</filter>
<filter id="filter3_d" x="64" y="548" width="177" height="183" filterUnits="userSpaceOnUse" color-interpolation-filters="sRGB">
<feFlood flood-opacity="0" result="BackgroundImageFix"/>
<feColorMatrix in="SourceAlpha" type="matrix" values="0 0 0 0 0 0 0 0 0 0 0 0 0 0 0 0 0 0 127 0"/>
<feMorphology radius="8" operator="erode" in="SourceAlpha" result="effect1_dropShadow"/>
<feOffset dy="22"/>
<feGaussianBlur stdDeviation="12.5"/>
<feColorMatrix type="matrix" values="0 0 0 0 0.7875 0 0 0 0 0.7875 0 0 0 0 0.7875 0 0 0 0.25 0"/>
<feBlend mode="normal" in2="BackgroundImageFix" result="effect1_dropShadow"/>
<feBlend mode="normal" in="SourceGraphic" in2="effect1_dropShadow" result="shape"/>
</filter>
<filter id="filter4_d" x="64" y="712" width="177" height="183" filterUnits="userSpaceOnUse" color-interpolation-filters="sRGB">
<feFlood flood-opacity="0" result="BackgroundImageFix"/>
<feColorMatrix in="SourceAlpha" type="matrix" values="0 0 0 0 0 0 0 0 0 0 0 0 0 0 0 0 0 0 127 0"/>
<feMorphology radius="8" operator="erode" in="SourceAlpha" result="effect1_dropShadow"/>
<feOffset dy="22"/>
<feGaussianBlur stdDeviation="12.5"/>
<feColorMatrix type="matrix" values="0 0 0 0 0.7875 0 0 0 0 0.7875 0 0 0 0 0.7875 0 0 0 0.25 0"/>
<feBlend mode="normal" in2="BackgroundImageFix" result="effect1_dropShadow"/>
<feBlend mode="normal" in="SourceGraphic" in2="effect1_dropShadow" result="shape"/>
</filter>
<linearGradient id="paint0_linear" x1="159" y1="111.042" x2="159" y2="825.612" gradientUnits="userSpaceOnUse">
<stop stop-color="#FFD9D7"/>
<stop offset="0.524485" stop-color="white" stop-opacity="0.5"/>
<stop offset="1" stop-color="#FFC8DB" stop-opacity="0.5"/>
</linearGradient>
<linearGradient id="paint1_linear" x1="151.99" y1="39" x2="151.99" y2="908" gradientUnits="userSpaceOnUse">
<stop stop-color="#EDEDED" stop-opacity="0.5"/>
<stop offset="1" stop-color="#FFD6E4"/>
</linearGradient>
</defs>
</svg>
