<?xml version="1.0" encoding="UTF-8"?>
<svg width="874px" height="1138px" viewBox="0 0 874 1138" version="1.1" xmlns="http://www.w3.org/2000/svg" xmlns:xlink="http://www.w3.org/1999/xlink">
    <!-- Generator: Sketch 53.2 (72643) - https://sketchapp.com -->
    <title>backstage_createNewCode_Fail_v3</title>
    <desc>Created with Sketch.</desc>
    <defs>
        <rect id="path-1" x="2" y="1" width="676" height="940" rx="6"></rect>
        <filter x="-22.2%" y="-16.0%" width="144.4%" height="131.9%" filterUnits="objectBoundingBox" id="filter-2">
            <feOffset dx="0" dy="0" in="SourceAlpha" result="shadowOffsetOuter1"></feOffset>
            <feGaussianBlur stdDeviation="50" in="shadowOffsetOuter1" result="shadowBlurOuter1"></feGaussianBlur>
            <feColorMatrix values="0 0 0 0 0.684630102   0 0 0 0 0.684630102   0 0 0 0 0.684630102  0 0 0 0.5 0" type="matrix" in="shadowBlurOuter1"></feColorMatrix>
        </filter>
    </defs>
    <g id="discountCode" stroke="none" stroke-width="1" fill="none" fill-rule="evenodd">
        <g id="backstage_createNewCode_Fail_v3" transform="translate(-293.000000, -81.000000)">
            <g transform="translate(390.000000, 179.000000)">
                <g id="createCode_area_bg">
                    <use fill="black" fill-opacity="1" filter="url(#filter-2)" xlink:href="#path-1"></use>
                    <use fill="#F3F3F3" fill-rule="evenodd" xlink:href="#path-1"></use>
                </g>
                <g id="createNewCode_title">
                    <path d="M676,58 L676,64 L0,64 L0,58 L0,6 C-4.05812251e-16,2.6862915 2.6862915,6.08718376e-16 6,0 L670,0 C673.313708,-6.08718376e-16 676,2.6862915 676,6 L676,58 Z" id="Combined-Shape" fill="#D8D8D8"></path>
                    <text id="新增優惠碼" font-family="SourceHanSansTW-Bold, Source Han Sans TW" font-size="16" font-weight="bold" letter-spacing="2" fill="#4A4A4A">
                        <tspan x="26" y="41">新增優惠</tspan>
                        <tspan x="98" y="41" letter-spacing="1.230769">碼</tspan>
                    </text>
                </g>
                <g id="discountCode_name" transform="translate(25.000000, 95.000000)">
                    <path d="M4.8458278,66.5 L617.154172,66.5 C618.448879,66.5 619.063123,66.618616 619.701068,66.9597925 C620.277091,67.267853 620.732147,67.7229089 621.040208,68.298932 C621.381384,68.9368766 621.5,69.5511205 621.5,70.8458278 L621.5,101.154172 C621.5,102.448879 621.381384,103.063123 621.040208,103.701068 C620.732147,104.277091 620.277091,104.732147 619.701068,105.040208 C619.063123,105.381384 618.448879,105.5 617.154172,105.5 L4.8458278,105.5 C3.55112051,105.5 2.93687657,105.381384 2.29893202,105.040208 C1.72290889,104.732147 1.267853,104.277091 0.959792457,103.701068 C0.618615977,103.063123 0.5,102.448879 0.5,101.154172 L0.5,70.8458278 C0.5,69.5511205 0.618615977,68.9368766 0.959792457,68.298932 C1.267853,67.7229089 1.72290889,67.267853 2.29893202,66.9597925 C2.93687657,66.618616 3.55112051,66.5 4.8458278,66.5 Z" id="Rectangle" stroke="#E6E6E6" fill="#FFFFFF"></path>
                    <text id="請輸入-30-個字以內的優惠碼名稱" font-family="SourceHanSansTW-Normal, Source Han Sans TW" font-size="12" font-weight="normal" letter-spacing="1" fill="#9B9B9B">
                        <tspan x="24" y="91">請輸入 30 個字以內的優惠碼名稱</tspan>
                    </text>
                    <g id="item_title" transform="translate(3.000000, 0.000000)" fill="#25ADC3">
                        <rect id="Rectangle" x="0" y="5" width="3" height="12"></rect>
                        <text id="我是標題" font-family="SourceHanSansTW-Medium, Source Han Sans TW" font-size="14" font-weight="400" letter-spacing="1.10000002">
                            <tspan x="8" y="16">優惠碼名稱</tspan>
                        </text>
                    </g>
                    <g id="error_discountCode_name" transform="translate(0.000000, 29.000000)">
                        <rect id="Rectangle" fill="#FFE8E8" x="0" y="0" width="620" height="29" rx="3"></rect>
                        <text id="此為必填項目" font-family="SourceHanSansTW-Medium, Source Han Sans TW" font-size="10" font-weight="400" letter-spacing="0.8333334" fill="#EE6465">
                            <tspan x="34" y="19">此為必填項目</tspan>
                        </text>
                        <path d="M19.4999925,7.61891427 L19.4999925,7.61891427 C20.5449582,7.61891427 21.3920702,8.46602631 21.3920702,9.51099197 C21.3920702,9.56399873 21.3898427,9.61698207 21.3853936,9.66980178 L20.8385319,16.1621828 C20.7799321,16.8578835 20.1981569,17.3927153 19.4999925,17.3927153 L19.4999925,17.3927153 C18.8018281,17.3927153 18.2200529,16.8578835 18.1614531,16.1621828 L17.6145914,9.66980178 C17.5268831,8.62852348 18.2999044,7.71329906 19.3411827,7.62559083 C19.3940024,7.62114175 19.4469857,7.61891427 19.4999925,7.61891427 Z" id="Rectangle" fill="#EE6465"></path>
                        <rect id="Rectangle-Copy-6" fill="#EE6465" x="18" y="19" width="3" height="3" rx="1.5"></rect>
                    </g>
                </g>
                <g id="discount_orice" transform="translate(25.000000, 229.000000)">
                    <g id="Group-3" transform="translate(1.000000, 91.000000)">
                        <path d="M3.8458278,-0.5 L296.154172,-0.5 C297.448879,-0.5 298.063123,-0.381384023 298.701068,-0.0402075433 C299.277091,0.267852995 299.732147,0.72290889 300.040208,1.29893202 C300.381384,1.93687657 300.5,2.55112051 300.5,3.8458278 L300.5,34.1541722 C300.5,35.4488795 300.381384,36.0631234 300.040208,36.701068 C299.732147,37.2770911 299.277091,37.732147 298.701068,38.0402075 C298.063123,38.381384 297.448879,38.5 296.154172,38.5 L3.8458278,38.5 C2.55112051,38.5 1.93687657,38.381384 1.29893202,38.0402075 C0.72290889,37.732147 0.267852995,37.2770911 -0.0402075433,36.701068 C-0.381384023,36.0631234 -0.5,35.4488795 -0.5,34.1541722 L-0.5,3.8458278 C-0.5,2.55112051 -0.381384023,1.93687657 -0.0402075433,1.29893202 C0.267852995,0.72290889 0.72290889,0.267852995 1.29893202,-0.0402075433 C1.93687657,-0.381384023 2.55112051,-0.5 3.8458278,-0.5 Z" id="Rectangle" stroke="#E6E6E6" fill="#FFFFFF"></path>
                        <path d="M275,0 L275,38" id="Line-2" stroke="#E6E6E6" stroke-linecap="square"></path>
                        <path d="M275,19 L300,19" id="Line-3" stroke="#E6E6E6" stroke-linecap="square"></path>
                        <polygon id="Triangle" fill="#4C4C4C" points="287.5 6 293 12 282 12"></polygon>
                        <polygon id="Triangle" fill="#4C4C4C" points="287.5 31 282 25 293 25"></polygon>
                    </g>
                    <g id="item_title" transform="translate(3.000000, 0.000000)" fill="#25ADC3">
                        <rect id="Rectangle" x="0" y="5" width="3" height="12"></rect>
                        <text id="我是標題" font-family="SourceHanSansTW-Medium, Source Han Sans TW" font-size="14" font-weight="400" letter-spacing="1.10000002">
                            <tspan x="8" y="16">折扣金額</tspan>
                        </text>
                    </g>
                    <g id="Group-2" transform="translate(0.000000, 29.000000)">
                        <rect id="Rectangle" fill="#FFE8E8" x="0" y="0" width="300" height="50" rx="3"></rect>
                        <text id="折扣金額至少-$1-折扣金額必須小於適用" font-family="SourceHanSansTW-Medium, Source Han Sans TW" font-size="10" font-weight="400" line-spacing="20" letter-spacing="0.8333334" fill="#EE6465">
                            <tspan x="34" y="17">折扣金額至少 $1</tspan>
                            <tspan x="34" y="37">折扣金額必須小於適用回饋金額</tspan>
                        </text>
                        <path d="M19.4999925,7.61891427 L19.4999925,7.61891427 C20.5449582,7.61891427 21.3920702,8.46602631 21.3920702,9.51099197 C21.3920702,9.56399873 21.3898427,9.61698207 21.3853936,9.66980178 L20.8385319,16.1621828 C20.7799321,16.8578835 20.1981569,17.3927153 19.4999925,17.3927153 L19.4999925,17.3927153 C18.8018281,17.3927153 18.2200529,16.8578835 18.1614531,16.1621828 L17.6145914,9.66980178 C17.5268831,8.62852348 18.2999044,7.71329906 19.3411827,7.62559083 C19.3940024,7.62114175 19.4469857,7.61891427 19.4999925,7.61891427 Z" id="Rectangle" fill="#EE6465"></path>
                        <rect id="Rectangle-Copy-6" fill="#EE6465" x="18" y="19" width="3" height="3" rx="1.5"></rect>
                    </g>
                </g>
                <g id="discount_counting" transform="translate(345.000000, 229.000000)">
                    <g id="Group-4" transform="translate(1.000000, 69.000000)">
                        <path d="M3.8458278,-0.5 L296.154172,-0.5 C297.448879,-0.5 298.063123,-0.381384023 298.701068,-0.0402075433 C299.277091,0.267852995 299.732147,0.72290889 300.040208,1.29893202 C300.381384,1.93687657 300.5,2.55112051 300.5,3.8458278 L300.5,34.1541722 C300.5,35.4488795 300.381384,36.0631234 300.040208,36.701068 C299.732147,37.2770911 299.277091,37.732147 298.701068,38.0402075 C298.063123,38.381384 297.448879,38.5 296.154172,38.5 L3.8458278,38.5 C2.55112051,38.5 1.93687657,38.381384 1.29893202,38.0402075 C0.72290889,37.732147 0.267852995,37.2770911 -0.0402075433,36.701068 C-0.381384023,36.0631234 -0.5,35.4488795 -0.5,34.1541722 L-0.5,3.8458278 C-0.5,2.55112051 -0.381384023,1.93687657 -0.0402075433,1.29893202 C0.267852995,0.72290889 0.72290889,0.267852995 1.29893202,-0.0402075433 C1.93687657,-0.381384023 2.55112051,-0.5 3.8458278,-0.5 Z" id="Rectangle-Copy-3" stroke="#E6E6E6" fill="#FFFFFF"></path>
                        <path d="M275,0 L275,38" id="Line-2" stroke="#E6E6E6" stroke-linecap="square"></path>
                        <path d="M275,19 L300,19" id="Line-3" stroke="#E6E6E6" stroke-linecap="square"></path>
                        <polygon id="Triangle" fill="#4C4C4C" points="287.5 6 293 12 282 12"></polygon>
                        <polygon id="Triangle" fill="#4C4C4C" points="287.5 31 282 25 293 25"></polygon>
                    </g>
                    <g id="Group-2" transform="translate(0.000000, 29.000000)">
                        <rect id="Rectangle" fill="#FFE8E8" x="0" y="0" width="300" height="29" rx="3"></rect>
                        <text id="此為必填項目" font-family="SourceHanSansTW-Medium, Source Han Sans TW" font-size="10" font-weight="400" letter-spacing="0.8333334" fill="#EE6465">
                            <tspan x="34" y="19">此為必填項目</tspan>
                        </text>
                        <path d="M19.4999925,7.61891427 L19.4999925,7.61891427 C20.5449582,7.61891427 21.3920702,8.46602631 21.3920702,9.51099197 C21.3920702,9.56399873 21.3898427,9.61698207 21.3853936,9.66980178 L20.8385319,16.1621828 C20.7799321,16.8578835 20.1981569,17.3927153 19.4999925,17.3927153 L19.4999925,17.3927153 C18.8018281,17.3927153 18.2200529,16.8578835 18.1614531,16.1621828 L17.6145914,9.66980178 C17.5268831,8.62852348 18.2999044,7.71329906 19.3411827,7.62559083 C19.3940024,7.62114175 19.4469857,7.61891427 19.4999925,7.61891427 Z" id="Rectangle" fill="#EE6465"></path>
                        <rect id="Rectangle-Copy-6" fill="#EE6465" x="18" y="19" width="3" height="3" rx="1.5"></rect>
                    </g>
                    <text id="最多可生產-5,000-組" font-family="SourceHanSansTW-Regular, Source Han Sans TW" font-size="12" font-weight="normal" letter-spacing="1" fill="#989898">
                        <tspan x="100" y="16">最多可生產 5,000 組</tspan>
                    </text>
                    <g id="item_title" transform="translate(3.000000, 0.000000)" fill="#25ADC3">
                        <rect id="Rectangle" x="0" y="5" width="3" height="12"></rect>
                        <text id="我是標題" font-family="SourceHanSansTW-Medium, Source Han Sans TW" font-size="14" font-weight="400" letter-spacing="1.10000002">
                            <tspan x="8" y="16">優惠碼組數</tspan>
                        </text>
                    </g>
                </g>
                <g id="discount_date" transform="translate(25.000000, 392.000000)">
                    <g id="Group-6" transform="translate(0.000000, 119.000000)">
                        <path d="M3.8458278,0.5 L298.154172,0.5 C299.448879,0.5 300.063123,0.618615977 300.701068,0.959792457 C301.277091,1.267853 301.732147,1.72290889 302.040208,2.29893202 C302.381384,2.93687657 302.5,3.55112051 302.5,4.8458278 L302.5,35.1541722 C302.5,36.4488795 302.381384,37.0631234 302.040208,37.701068 C301.732147,38.2770911 301.277091,38.732147 300.701068,39.0402075 C300.063123,39.381384 299.448879,39.5 298.154172,39.5 L3.8458278,39.5 C2.55112051,39.5 1.93687657,39.381384 1.29893202,39.0402075 C0.72290889,38.732147 0.267852995,38.2770911 -0.0402075433,37.701068 C-0.381384023,37.0631234 -0.5,36.4488795 -0.5,35.1541722 L-0.5,4.8458278 C-0.5,3.55112051 -0.381384023,2.93687657 -0.0402075433,2.29893202 C0.267852995,1.72290889 0.72290889,1.267853 1.29893202,0.959792457 C1.93687657,0.618615977 2.55112051,0.5 3.8458278,0.5 Z" id="Rectangle" stroke="#E6E6E6" fill="#FFFFFF"></path>
                        <path d="M277,0 L277,38" id="Line-2" stroke="#E6E6E6" stroke-linecap="square"></path>
                        <path d="M277,19 L302,19" id="Line-3" stroke="#E6E6E6" stroke-linecap="square"></path>
                        <polygon id="Triangle" fill="#4C4C4C" points="289.5 6 295 12 284 12"></polygon>
                        <polygon id="Triangle" fill="#4C4C4C" points="289.5 31 284 25 295 25"></polygon>
                        <text id="開始時間" font-family="SourceHanSansTW-Regular, Source Han Sans TW" font-size="12" font-weight="normal" letter-spacing="1" fill="#4A4A4A">
                            <tspan x="14" y="25">開始時</tspan>
                            <tspan x="53" y="25">間</tspan>
                        </text>
                    </g>
                    <g id="Group-5" transform="translate(0.000000, 70.000000)">
                        <path d="M3.8458278,-0.5 L618.154172,-0.5 C619.448879,-0.5 620.063123,-0.381384023 620.701068,-0.0402075433 C621.277091,0.267852995 621.732147,0.72290889 622.040208,1.29893202 C622.381384,1.93687657 622.5,2.55112051 622.5,3.8458278 L622.5,34.1541722 C622.5,35.4488795 622.381384,36.0631234 622.040208,36.701068 C621.732147,37.2770911 621.277091,37.732147 620.701068,38.0402075 C620.063123,38.381384 619.448879,38.5 618.154172,38.5 L3.8458278,38.5 C2.55112051,38.5 1.93687657,38.381384 1.29893202,38.0402075 C0.72290889,37.732147 0.267852995,37.2770911 -0.0402075433,36.701068 C-0.381384023,36.0631234 -0.5,35.4488795 -0.5,34.1541722 L-0.5,3.8458278 C-0.5,2.55112051 -0.381384023,1.93687657 -0.0402075433,1.29893202 C0.267852995,0.72290889 0.72290889,0.267852995 1.29893202,-0.0402075433 C1.93687657,-0.381384023 2.55112051,-0.5 3.8458278,-0.5 Z" id="Rectangle-Copy-5" stroke="#E6E6E6" fill="#FFFFFF"></path>
                        <text id="開始日期" font-family="SourceHanSansTW-Regular, Source Han Sans TW" font-size="12" font-weight="normal" letter-spacing="1" fill="#4A4A4A">
                            <tspan x="46" y="24">開始日期</tspan>
                        </text>
                        <text id="結束日期" font-family="SourceHanSansTW-Regular, Source Han Sans TW" font-size="12" font-weight="normal" letter-spacing="1" fill="#4A4A4A">
                            <tspan x="336" y="24">結束日期</tspan>
                        </text>
                        <polyline id="Path-3" stroke="#4C4C4C" stroke-width="3" stroke-linecap="round" stroke-linejoin="round" points="296 13 302.5 19.641172 296 26"></polyline>
                        <g id="calendar-alt-regular" transform="translate(14.000000, 10.000000)" fill="#4C4C4C" fill-rule="nonzero">
                            <path d="M5.28571429,10.125 L3.85714286,10.125 C3.62142857,10.125 3.42857143,9.93515625 3.42857143,9.703125 L3.42857143,8.296875 C3.42857143,8.06484375 3.62142857,7.875 3.85714286,7.875 L5.28571429,7.875 C5.52142857,7.875 5.71428571,8.06484375 5.71428571,8.296875 L5.71428571,9.703125 C5.71428571,9.93515625 5.52142857,10.125 5.28571429,10.125 Z M9.14285714,9.703125 L9.14285714,8.296875 C9.14285714,8.06484375 8.95,7.875 8.71428571,7.875 L7.28571429,7.875 C7.05,7.875 6.85714286,8.06484375 6.85714286,8.296875 L6.85714286,9.703125 C6.85714286,9.93515625 7.05,10.125 7.28571429,10.125 L8.71428571,10.125 C8.95,10.125 9.14285714,9.93515625 9.14285714,9.703125 Z M12.5714286,9.703125 L12.5714286,8.296875 C12.5714286,8.06484375 12.3785714,7.875 12.1428571,7.875 L10.7142857,7.875 C10.4785714,7.875 10.2857143,8.06484375 10.2857143,8.296875 L10.2857143,9.703125 C10.2857143,9.93515625 10.4785714,10.125 10.7142857,10.125 L12.1428571,10.125 C12.3785714,10.125 12.5714286,9.93515625 12.5714286,9.703125 Z M9.14285714,13.078125 L9.14285714,11.671875 C9.14285714,11.4398437 8.95,11.25 8.71428571,11.25 L7.28571429,11.25 C7.05,11.25 6.85714286,11.4398437 6.85714286,11.671875 L6.85714286,13.078125 C6.85714286,13.3101562 7.05,13.5 7.28571429,13.5 L8.71428571,13.5 C8.95,13.5 9.14285714,13.3101562 9.14285714,13.078125 Z M5.71428571,13.078125 L5.71428571,11.671875 C5.71428571,11.4398437 5.52142857,11.25 5.28571429,11.25 L3.85714286,11.25 C3.62142857,11.25 3.42857143,11.4398437 3.42857143,11.671875 L3.42857143,13.078125 C3.42857143,13.3101562 3.62142857,13.5 3.85714286,13.5 L5.28571429,13.5 C5.52142857,13.5 5.71428571,13.3101562 5.71428571,13.078125 Z M12.5714286,13.078125 L12.5714286,11.671875 C12.5714286,11.4398437 12.3785714,11.25 12.1428571,11.25 L10.7142857,11.25 C10.4785714,11.25 10.2857143,11.4398437 10.2857143,11.671875 L10.2857143,13.078125 C10.2857143,13.3101562 10.4785714,13.5 10.7142857,13.5 L12.1428571,13.5 C12.3785714,13.5 12.5714286,13.3101562 12.5714286,13.078125 Z M16,3.9375 L16,16.3125 C16,17.2441406 15.2321429,18 14.2857143,18 L1.71428571,18 C0.767857143,18 0,17.2441406 0,16.3125 L0,3.9375 C0,3.00585937 0.767857143,2.25 1.71428571,2.25 L3.42857143,2.25 L3.42857143,0.421875 C3.42857143,0.18984375 3.62142857,0 3.85714286,0 L5.28571429,0 C5.52142857,0 5.71428571,0.18984375 5.71428571,0.421875 L5.71428571,2.25 L10.2857143,2.25 L10.2857143,0.421875 C10.2857143,0.18984375 10.4785714,0 10.7142857,0 L12.1428571,0 C12.3785714,0 12.5714286,0.18984375 12.5714286,0.421875 L12.5714286,2.25 L14.2857143,2.25 C15.2321429,2.25 16,3.00585937 16,3.9375 Z M14.2857143,16.1015625 L14.2857143,5.625 L1.71428571,5.625 L1.71428571,16.1015625 C1.71428571,16.2175781 1.81071429,16.3125 1.92857143,16.3125 L14.0714286,16.3125 C14.1892857,16.3125 14.2857143,16.2175781 14.2857143,16.1015625 Z" id="Shape"></path>
                        </g>
                    </g>
                    <g id="Group-7" transform="translate(320.000000, 119.000000)">
                        <path d="M3.8458278,0.5 L298.154172,0.5 C299.448879,0.5 300.063123,0.618615977 300.701068,0.959792457 C301.277091,1.267853 301.732147,1.72290889 302.040208,2.29893202 C302.381384,2.93687657 302.5,3.55112051 302.5,4.8458278 L302.5,35.1541722 C302.5,36.4488795 302.381384,37.0631234 302.040208,37.701068 C301.732147,38.2770911 301.277091,38.732147 300.701068,39.0402075 C300.063123,39.381384 299.448879,39.5 298.154172,39.5 L3.8458278,39.5 C2.55112051,39.5 1.93687657,39.381384 1.29893202,39.0402075 C0.72290889,38.732147 0.267852995,38.2770911 -0.0402075433,37.701068 C-0.381384023,37.0631234 -0.5,36.4488795 -0.5,35.1541722 L-0.5,4.8458278 C-0.5,3.55112051 -0.381384023,2.93687657 -0.0402075433,2.29893202 C0.267852995,1.72290889 0.72290889,1.267853 1.29893202,0.959792457 C1.93687657,0.618615977 2.55112051,0.5 3.8458278,0.5 Z" id="Rectangle-Copy-4" stroke="#E6E6E6" fill="#FFFFFF"></path>
                        <path d="M277,0 L277,38" id="Line-2" stroke="#E6E6E6" stroke-linecap="square"></path>
                        <path d="M277,19 L302,19" id="Line-3" stroke="#E6E6E6" stroke-linecap="square"></path>
                        <polygon id="Triangle" fill="#4C4C4C" points="289.5 6 295 12 284 12"></polygon>
                        <polygon id="Triangle" fill="#4C4C4C" points="289.5 31 284 25 295 25"></polygon>
                        <text id="結束時間" font-family="SourceHanSansTW-Regular, Source Han Sans TW" font-size="12" font-weight="normal" letter-spacing="1" fill="#4A4A4A">
                            <tspan x="17" y="25">結束時</tspan>
                            <tspan x="56" y="25">間</tspan>
                        </text>
                    </g>
                    <g id="notice" transform="translate(0.000000, 30.000000)">
                        <rect id="Rectangle" fill="#FFE8E8" x="0" y="0" width="620" height="29" rx="3"></rect>
                        <text id="此為必填項目，開始日期、結束日期格式錯誤" font-family="SourceHanSansTW-Medium, Source Han Sans TW" font-size="10" font-weight="400" letter-spacing="0.8333334" fill="#EE6465">
                            <tspan x="34" y="19">此為必填項目，開始日期、結束日期格式錯誤。</tspan>
                        </text>
                        <g id="icon_notice" transform="translate(17.000000, 7.000000)" fill="#EE6465">
                            <path d="M2.4999925,0.618914271 L2.4999925,0.618914271 C3.54495816,0.618914271 4.3920702,1.46602631 4.3920702,2.51099197 C4.3920702,2.56399873 4.38984272,2.61698207 4.38539365,2.66980178 L3.83853191,9.16218275 C3.77993212,9.85788353 3.19815688,10.3927153 2.4999925,10.3927153 L2.4999925,10.3927153 C1.80182812,10.3927153 1.22005288,9.85788353 1.16145309,9.16218275 L0.614591357,2.66980178 C0.526883124,1.62852348 1.2999044,0.71329906 2.3411827,0.625590828 C2.39400241,0.621141755 2.44698575,0.618914271 2.4999925,0.618914271 Z" id="Rectangle"></path>
                            <rect id="Rectangle-Copy-6" x="1" y="12" width="3" height="3" rx="1.5"></rect>
                        </g>
                    </g>
                    <text id="若您希望優惠碼於募資期間都能使用，則無須" font-family="SourceHanSansTW-Regular, Source Han Sans TW" font-size="12" font-weight="normal" letter-spacing="1" fill="#989898">
                        <tspan x="133" y="16">若您希望優惠碼於募資期間都能使用，則無須任何設定</tspan>
                    </text>
                    <g id="item_title" transform="translate(3.000000, 0.000000)" fill="#25ADC3">
                        <rect id="Rectangle" x="0" y="5" width="3" height="12"></rect>
                        <text id="我是標題" font-family="SourceHanSansTW-Medium, Source Han Sans TW" font-size="14" font-weight="400" letter-spacing="1.10000002">
                            <tspan x="8" y="16">優惠碼有效日期</tspan>
                        </text>
                    </g>
                </g>
                <g id="discount_choose" transform="translate(25.000000, 588.000000)">
                    <g id="item_title" transform="translate(3.000000, 0.000000)" fill="#25ADC3">
                        <rect id="Rectangle" x="0" y="5" width="3" height="12"></rect>
                        <text id="我是標題" font-family="SourceHanSansTW-Medium, Source Han Sans TW" font-size="14" font-weight="400" letter-spacing="1.10000002">
                            <tspan x="8" y="16">適用回饋</tspan>
                        </text>
                    </g>
                    <g id="Group-8" transform="translate(0.000000, 69.000000)">
                        <rect id="Rectangle" fill="#FFFFFF" x="0" y="27" width="620" height="50"></rect>
                        <rect id="Rectangle-Copy-2" fill="#FFFFFF" x="0" y="128" width="620" height="30"></rect>
                        <rect id="Rectangle-Copy" fill="#F5F5F5" x="0" y="77" width="620" height="50"></rect>
                        <text id="是否回饋" font-family="SourceHanSansTW-Medium, Source Han Sans TW" font-size="12" font-weight="400" letter-spacing="1" fill="#4A4A4A">
                            <tspan x="5" y="14">是否回饋</tspan>
                        </text>
                        <text id="啟用" font-family="SourceHanSansTW-Regular, Source Han Sans TW" font-size="11" font-weight="normal" letter-spacing="0.9166667" fill="#4A4A4A">
                            <tspan x="34" y="46">啟用</tspan>
                        </text>
                        <text id="啟用-copy" font-family="SourceHanSansTW-Regular, Source Han Sans TW" font-size="11" font-weight="normal" letter-spacing="0.9166667" fill="#4A4A4A">
                            <tspan x="34" y="96">啟用</tspan>
                        </text>
                        <text id="啟用-copy-2" font-family="SourceHanSansTW-Regular, Source Han Sans TW" font-size="11" font-weight="normal" letter-spacing="0.9166667" fill="#4A4A4A">
                            <tspan x="34" y="147">啟用</tspan>
                        </text>
                        <text id="回饋金額" font-family="SourceHanSansTW-Medium, Source Han Sans TW" font-size="12" font-weight="400" letter-spacing="1" fill="#4A4A4A">
                            <tspan x="110" y="14">回饋金額</tspan>
                        </text>
                        <text id="回饋敘述" font-family="SourceHanSansTW-Medium, Source Han Sans TW" font-size="12" font-weight="400" line-spacing="18" letter-spacing="1" fill="#4A4A4A">
                            <tspan x="225" y="14">回饋敘述</tspan>
                        </text>
                        <text id="$1,000" font-family="SourceHanSansTW-Normal, Source Han Sans TW" font-size="11" font-weight="normal" line-spacing="19" letter-spacing="0.4583333" fill="#4A4A4A">
                            <tspan x="110" y="45">$1,000</tspan>
                        </text>
                        <text id="$3,000" font-family="SourceHanSansTW-Normal, Source Han Sans TW" font-size="11" font-weight="normal" line-spacing="19" letter-spacing="0.4583333" fill="#4A4A4A">
                            <tspan x="110" y="95">$3,000</tspan>
                        </text>
                        <text id="$10,000" font-family="SourceHanSansTW-Normal, Source Han Sans TW" font-size="11" font-weight="normal" line-spacing="19" letter-spacing="0.4583333" fill="#4A4A4A">
                            <tspan x="110" y="147">$10,000</tspan>
                        </text>
                        <text id="FNG寶特袋-手提款*1，若要升級「肩背" font-family="SourceHanSansTW-Normal, Source Han Sans TW" font-size="11" font-weight="normal" line-spacing="19" letter-spacing="0.4583333" fill="#4A4A4A">
                            <tspan x="225" y="45">FNG寶特袋-手提款*1，若要升級「肩背款」請額外支持 $100 元，離島支持</tspan>
                            <tspan x="225" y="64">者請於運送方式區選擇「其他地區」</tspan>
                        </text>
                        <text id="【一般贊助方案】｜$-12999｜現省" font-family="SourceHanSansTW-Normal, Source Han Sans TW" font-size="11" font-weight="normal" line-spacing="19" letter-spacing="0.4583333" fill="#4A4A4A">
                            <tspan x="225" y="95">【一般贊助方案】｜$ 12999｜現省 $5000｜通路價 $17999｜注意：1/5 </tspan>
                            <tspan x="225" y="114">11:00 後訂單將於3月</tspan>
                        </text>
                        <text id="【施主樂捐給貧僧吧】-舉辦一場遊行不容易" font-family="SourceHanSansTW-Normal, Source Han Sans TW" font-size="11" font-weight="normal" line-spacing="19" letter-spacing="0.4583333" fill="#4A4A4A">
                            <tspan x="225" y="145">【施主樂捐給貧僧吧】 舉辦一場遊行不容易!! 感謝贊助，有你真好~~</tspan>
                        </text>
                        <path d="M15.8458278,35.5 C14.7020852,35.5 14.2437988,35.5884992 13.7705309,35.8416057 C13.3687762,36.0564664 13.0564664,36.3687762 12.8416057,36.7705309 C12.5884992,37.2437988 12.5,37.7020852 12.5,38.8458278 L12.5,44.1541722 C12.5,45.2979148 12.5884992,45.7562012 12.8416057,46.2294691 C13.0564664,46.6312238 13.3687762,46.9435336 13.7705309,47.1583943 C14.2437988,47.4115008 14.7020852,47.5 15.8458278,47.5 L21.1541722,47.5 C22.2979148,47.5 22.7562012,47.4115008 23.2294691,47.1583943 C23.6312238,46.9435336 23.9435336,46.6312238 24.1583943,46.2294691 C24.4115008,45.7562012 24.5,45.2979148 24.5,44.1541722 L24.5,38.8458278 C24.5,37.7020852 24.4115008,37.2437988 24.1583943,36.7705309 C23.9435336,36.3687762 23.6312238,36.0564664 23.2294691,35.8416057 C22.7562012,35.5884992 22.2979148,35.5 21.1541722,35.5 L15.8458278,35.5 Z" id="Rectangle-4" stroke="#4A4A4A" fill="#FFFFFF"></path>
                        <path d="M15.8458278,85.5 C14.7020852,85.5 14.2437988,85.5884992 13.7705309,85.8416057 C13.3687762,86.0564664 13.0564664,86.3687762 12.8416057,86.7705309 C12.5884992,87.2437988 12.5,87.7020852 12.5,88.8458278 L12.5,94.1541722 C12.5,95.2979148 12.5884992,95.7562012 12.8416057,96.2294691 C13.0564664,96.6312238 13.3687762,96.9435336 13.7705309,97.1583943 C14.2437988,97.4115008 14.7020852,97.5 15.8458278,97.5 L21.1541722,97.5 C22.2979148,97.5 22.7562012,97.4115008 23.2294691,97.1583943 C23.6312238,96.9435336 23.9435336,96.6312238 24.1583943,96.2294691 C24.4115008,95.7562012 24.5,95.2979148 24.5,94.1541722 L24.5,88.8458278 C24.5,87.7020852 24.4115008,87.2437988 24.1583943,86.7705309 C23.9435336,86.3687762 23.6312238,86.0564664 23.2294691,85.8416057 C22.7562012,85.5884992 22.2979148,85.5 21.1541722,85.5 L15.8458278,85.5 Z" id="Rectangle-4-Copy" stroke="#4A4A4A" fill="#FFFFFF"></path>
                        <path d="M15.8458278,136.5 C14.7020852,136.5 14.2437988,136.588499 13.7705309,136.841606 C13.3687762,137.056466 13.0564664,137.368776 12.8416057,137.770531 C12.5884992,138.243799 12.5,138.702085 12.5,139.845828 L12.5,145.154172 C12.5,146.297915 12.5884992,146.756201 12.8416057,147.229469 C13.0564664,147.631224 13.3687762,147.943534 13.7705309,148.158394 C14.2437988,148.411501 14.7020852,148.5 15.8458278,148.5 L21.1541722,148.5 C22.2979148,148.5 22.7562012,148.411501 23.2294691,148.158394 C23.6312238,147.943534 23.9435336,147.631224 24.1583943,147.229469 C24.4115008,146.756201 24.5,146.297915 24.5,145.154172 L24.5,139.845828 C24.5,138.702085 24.4115008,138.243799 24.1583943,137.770531 C23.9435336,137.368776 23.6312238,137.056466 23.2294691,136.841606 C22.7562012,136.588499 22.2979148,136.5 21.1541722,136.5 L15.8458278,136.5 Z" id="Rectangle-4-Copy-2" stroke="#4A4A4A" fill="#FFFFFF"></path>
                    </g>
                    <g id="Group-2" transform="translate(0.000000, 29.000000)">
                        <rect id="Rectangle" fill="#FFE8E8" x="0" y="0" width="620" height="29" rx="3"></rect>
                        <text id="需勾選至少一項回饋。" font-family="SourceHanSansTW-Medium, Source Han Sans TW" font-size="10" font-weight="400" letter-spacing="0.8333334" fill="#EE6465">
                            <tspan x="34" y="19">需勾選至少一項回饋。</tspan>
                        </text>
                        <path d="M19.4999925,7.61891427 L19.4999925,7.61891427 C20.5449582,7.61891427 21.3920702,8.46602631 21.3920702,9.51099197 C21.3920702,9.56399873 21.3898427,9.61698207 21.3853936,9.66980178 L20.8385319,16.1621828 C20.7799321,16.8578835 20.1981569,17.3927153 19.4999925,17.3927153 L19.4999925,17.3927153 C18.8018281,17.3927153 18.2200529,16.8578835 18.1614531,16.1621828 L17.6145914,9.66980178 C17.5268831,8.62852348 18.2999044,7.71329906 19.3411827,7.62559083 C19.3940024,7.62114175 19.4469857,7.61891427 19.4999925,7.61891427 Z" id="Rectangle" fill="#EE6465"></path>
                        <rect id="Rectangle-Copy-6" fill="#EE6465" x="18" y="19" width="3" height="3" rx="1.5"></rect>
                    </g>
                </g>
                <g id="btn_finishCreateCode" transform="translate(25.000000, 869.000000)">
                    <path d="M6.409713,-2.58960077e-16 L293.590287,2.58960077e-16 C295.819084,-1.50463262e-16 296.627299,0.232064028 297.442114,0.667831759 C298.256929,1.10359949 298.896401,1.74307093 299.332168,2.55788574 C299.767936,3.37270056 300,4.18091615 300,6.409713 L300,33.590287 C300,35.8190838 299.767936,36.6272994 299.332168,37.4421143 C298.896401,38.2569291 298.256929,38.8964005 297.442114,39.3321682 C296.627299,39.767936 295.819084,40 293.590287,40 L6.409713,40 C4.18091615,40 3.37270056,39.767936 2.55788574,39.3321682 C1.74307093,38.8964005 1.10359949,38.2569291 0.667831759,37.4421143 C0.232064028,36.6272994 1.00308841e-16,35.8190838 -1.72640051e-16,33.590287 L1.72640051e-16,6.409713 C-1.00308841e-16,4.18091615 0.232064028,3.37270056 0.667831759,2.55788574 C1.10359949,1.74307093 1.74307093,1.10359949 2.55788574,0.667831759 C3.37270056,0.232064028 4.18091615,1.50463262e-16 6.409713,-2.58960077e-16 Z" id="Rectangle-3" fill="#EB4B4D"></path>
                    <text id="儲存／產出優惠碼" font-family="SourceHanSansTW-Bold, Source Han Sans TW" font-size="13" font-weight="bold" letter-spacing="3.25" fill="#FFFFFF">
                        <tspan x="88.5" y="25">儲存／產出優惠碼</tspan>
                    </text>
                </g>
                <g id="btn_cancelCreateCode" transform="translate(346.000000, 869.000000)">
                    <path d="M6.409713,-2.58960077e-16 L293.590287,2.58960077e-16 C295.819084,-1.50463262e-16 296.627299,0.232064028 297.442114,0.667831759 C298.256929,1.10359949 298.896401,1.74307093 299.332168,2.55788574 C299.767936,3.37270056 300,4.18091615 300,6.409713 L300,33.590287 C300,35.8190838 299.767936,36.6272994 299.332168,37.4421143 C298.896401,38.2569291 298.256929,38.8964005 297.442114,39.3321682 C296.627299,39.767936 295.819084,40 293.590287,40 L6.409713,40 C4.18091615,40 3.37270056,39.767936 2.55788574,39.3321682 C1.74307093,38.8964005 1.10359949,38.2569291 0.667831759,37.4421143 C0.232064028,36.6272994 1.00308841e-16,35.8190838 -1.72640051e-16,33.590287 L1.72640051e-16,6.409713 C-1.00308841e-16,4.18091615 0.232064028,3.37270056 0.667831759,2.55788574 C1.10359949,1.74307093 1.74307093,1.10359949 2.55788574,0.667831759 C3.37270056,0.232064028 4.18091615,1.50463262e-16 6.409713,-2.58960077e-16 Z" id="Rectangle-3" stroke="#EB4B4D"></path>
                    <text id="取消" font-family="SourceHanSansTW-Bold, Source Han Sans TW" font-size="13" font-weight="bold" letter-spacing="3.25" fill="#EB4B4D">
                        <tspan x="137.25" y="25">取消</tspan>
                    </text>
                </g>
            </g>
        </g>
    </g>
</svg>