<?xml version="1.0" encoding="UTF-8"?>
<svg width="522px" height="522px" viewBox="0 0 522 522" version="1.1" xmlns="http://www.w3.org/2000/svg" xmlns:xlink="http://www.w3.org/1999/xlink">
    <!-- Generator: Sketch 53.2 (72643) - https://sketchapp.com -->
    <title>backstage_createNewCode_Success_v3</title>
    <desc>Created with Sketch.</desc>
    <defs>
        <rect id="path-1" x="0" y="0" width="324" height="324" rx="10"></rect>
        <filter x="-46.3%" y="-46.3%" width="192.6%" height="192.6%" filterUnits="objectBoundingBox" id="filter-2">
            <feOffset dx="0" dy="0" in="SourceAlpha" result="shadowOffsetOuter1"></feOffset>
            <feGaussianBlur stdDeviation="50" in="shadowOffsetOuter1" result="shadowBlurOuter1"></feGaussianBlur>
            <feColorMatrix values="0 0 0 0 0.684630102   0 0 0 0 0.684630102   0 0 0 0 0.684630102  0 0 0 0.5 0" type="matrix" in="shadowBlurOuter1"></feColorMatrix>
        </filter>
    </defs>
    <g id="discountCode" stroke="none" stroke-width="1" fill="none" fill-rule="evenodd">
        <g id="backstage_createNewCode_Success_v3" transform="translate(-459.000000, -331.000000)">
            <g transform="translate(558.000000, 430.000000)">
                <g id="bg_success">
                    <use fill="black" fill-opacity="1" filter="url(#filter-2)" xlink:href="#path-1"></use>
                    <use fill="#F3F3F3" fill-rule="evenodd" xlink:href="#path-1"></use>
                </g>
                <g id="icon_success" transform="translate(132.000000, 51.000000)">
                    <circle id="Oval" stroke="#DDDDDD" stroke-width="2" cx="30" cy="30" r="30"></circle>
                    <polyline id="Path-2" stroke="#7ED321" stroke-width="5" stroke-linecap="round" stroke-linejoin="round" transform="translate(30.500000, 31.000000) rotate(8.000000) translate(-30.500000, -31.000000) " points="18 34.8020298 26.7158518 43 43 19"></polyline>
                </g>
                <text id="產出成功！" font-family="SourceHanSansTW-Bold, Source Han Sans TW" font-size="20" font-weight="bold" letter-spacing="2" fill="#29AEC3">
                    <tspan x="112" y="145">產出成功</tspan>
                    <tspan x="200" y="145">！</tspan>
                </text>
                <text id="請點選優惠碼列表的輸出圖示，下載您的序號" font-family="SourceHanSansTW-Regular, Source Han Sans TW" font-size="12" font-weight="normal" line-spacing="20" fill="#4A4A4A">
                    <tspan x="62" y="182">請點選優惠碼列表的輸出圖示，下載</tspan>
                    <tspan x="62" y="202">您的序號列表。</tspan>
                </text>
                <g id="validation_btn" transform="translate(106.000000, 233.000000)">
                    <path d="M5.1277704,-2.07168062e-16 L107.87223,2.07168062e-16 C109.655267,-1.2037061e-16 110.30184,0.185651222 110.953691,0.534265408 C111.605543,0.882879593 112.11712,1.39445674 112.465735,2.04630859 C112.814349,2.69816044 113,3.34473292 113,5.1277704 L113,32.8722296 C113,34.6552671 112.814349,35.3018396 112.465735,35.9536914 C112.11712,36.6055433 111.605543,37.1171204 110.953691,37.4657346 C110.30184,37.8143488 109.655267,38 107.87223,38 L5.1277704,38 C3.34473292,38 2.69816044,37.8143488 2.04630859,37.4657346 C1.39445674,37.1171204 0.882879593,36.6055433 0.534265408,35.9536914 C0.185651222,35.3018396 8.02470732e-17,34.6552671 -1.38112041e-16,32.8722296 L1.38112041e-16,5.1277704 C-8.02470732e-17,3.34473292 0.185651222,2.69816044 0.534265408,2.04630859 C0.882879593,1.39445674 1.39445674,0.882879593 2.04630859,0.534265408 C2.69816044,0.185651222 3.34473292,1.2037061e-16 5.1277704,-2.07168062e-16 Z" id="Rectangle-Copy" stroke="#E6E6E6" fill="#FFFFFF"></path>
                    <text id="按我驗證" font-family="SourceHanSansTW-Bold, Source Han Sans TW" font-size="11" font-weight="bold" letter-spacing="2" fill="#4A4A4A">
                        <tspan x="45" y="23.5128205">完成</tspan>
                    </text>
                </g>
            </g>
        </g>
    </g>
</svg>