<?xml version="1.0" encoding="UTF-8"?>
<svg width="390px" height="40px" viewBox="0 0 390 40" version="1.1" xmlns="http://www.w3.org/2000/svg" xmlns:xlink="http://www.w3.org/1999/xlink">
    <!-- Generator: Sketch 53.2 (72643) - https://sketchapp.com -->
    <title>input/search/inbox/proposer/desktop</title>
    <desc>Created with Sketch.</desc>
    <g id="input/search/inbox/proposer/desktop" stroke="none" stroke-width="1" fill="none" fill-rule="evenodd">
        <g id="search">
            <rect id="Rectangle" fill="#EAEAEA" x="0" y="0" width="390" height="40" rx="4"></rect>
            <path d="M30.864494,22.3207547 L30.051458,22.3207547 L29.7632933,22.0428816 C30.7718696,20.8696398 31.3790738,19.3464837 31.3790738,17.6895369 C31.3790738,13.9948542 28.3842196,11 24.6895369,11 C20.9948542,11 18,13.9948542 18,17.6895369 C18,21.3842196 20.9948542,24.3790738 24.6895369,24.3790738 C26.3464837,24.3790738 27.8696398,23.7718696 29.0428816,22.7632933 L29.3207547,23.051458 L29.3207547,23.864494 L34.4665523,29 L36,27.4665523 L30.864494,22.3207547 Z M24.6895369,22.3207547 C22.1269297,22.3207547 20.058319,20.2521441 20.058319,17.6895369 C20.058319,15.1269297 22.1269297,13.058319 24.6895369,13.058319 C27.2521441,13.058319 29.3207547,15.1269297 29.3207547,17.6895369 C29.3207547,20.2521441 27.2521441,22.3207547 24.6895369,22.3207547 Z" id="Shape" fill="#4A4A4A" fill-rule="nonzero"></path>
            <text id="input-text" font-family="SourceHanSansTW-Bold, Source Han Sans TW" font-size="14" font-weight="bold" letter-spacing="2" fill="#4A4A4A">
                <tspan x="51" y="25">搜尋贊助者姓名或E-mail⋯</tspan>
            </text>
        </g>
    </g>
</svg>