<svg xmlns="http://www.w3.org/2000/svg" viewBox="0 0 565.14 218.32"><defs><style>.cls-1{fill:#fff;}</style></defs><title>p02_logotype</title><g id="圖層_2" data-name="圖層 2"><g id="圖層_1-2" data-name="圖層 1"><path class="cls-1" d="M565.07,169.07c0,11.88-.2,23.75.06,35.62.22,9.94-5.76,13.69-13.76,13.62-22.32-.21-44.64.23-66.94-.15-26.31-.45-48.36-10.38-64.78-31.36-9.8-12.52-14.84-26.94-15.73-42.82-1.08-19.15,3.43-36.8,14.65-52.43C432.33,72.39,451,60.79,474.45,57.87c25.76-3.2,48.36,3.9,67.09,22.32,13.06,12.86,20.15,28.62,22.64,46.56a112,112,0,0,1,.85,14.07C565.16,150.24,565.07,159.66,565.07,169.07Zm-66.49,26.12V195c5.63,0,11.26,0,16.88,0a53.31,53.31,0,0,0,7-.38c8.6-1.24,14.9-5.58,17.61-14.08a32.13,32.13,0,0,0,1.42-9q.24-16.11,0-32.22a75.05,75.05,0,0,0-1-11.89C535,96,506.13,75.93,474.65,81.28c-29.25,5-53.4,33.15-46.47,68.74,5.73,29.43,30.15,43.41,52,44.66C486.3,195,492.45,195,498.58,195.19Z"/><path class="cls-1" d="M253.68,137.82a80.2,80.2,0,0,1-81.45,80.34C126,217.64,92,179.85,92.65,136.26c.66-42.79,35.87-79.94,82.12-79.11A80.11,80.11,0,0,1,253.68,137.82ZM173.32,195c34.51-.37,57.26-29.07,57.18-57.42-.09-30-24.29-57.19-57.33-57.21-32.76,0-57.73,27.07-57.32,58.13C116.23,167,139.36,194.83,173.32,195Z"/><path class="cls-1" d="M383.1,137.44q0,34.55,0,69.09a15.84,15.84,0,0,1-.56,4.82,10.13,10.13,0,0,1-11.09,6.79c-5.37-.79-8.95-4.65-9.15-9.9,0-1.12,0-2.25,0-3.38q0-66,0-132a51.7,51.7,0,0,0-39.39-50.48,75.62,75.62,0,0,0-13-1.64c-7.39-.51-12.17-7.91-9.13-14.57C302.64,1.86,306.24,0,310.82,0a69.64,69.64,0,0,1,30.82,7.06C363.93,18.14,377.5,36,382.15,60.43A63.37,63.37,0,0,1,383.06,72C383.14,93.84,383.1,115.64,383.1,137.44Z"/><path class="cls-1" d="M298.42,137.34q0,34.23,0,68.47a22.52,22.52,0,0,1-.27,4.58,10.47,10.47,0,0,1-20.57-1.73c-.05-1,0-2,0-3.07q0-65.57,0-131.12c0-11-2.42-21.34-8.73-30.47-10.3-14.9-24.57-22.8-42.71-23.24-4.13-.11-8.92-2.5-10.49-7C213.28,6.88,218.18.06,225.69,0a68.15,68.15,0,0,1,29.76,6.36c23.06,10.88,37.16,28.89,42,54a72,72,0,0,1,1,13.14C298.47,94.76,298.42,116.05,298.42,137.34Z"/><path class="cls-1" d="M0,169.41C0,159,0,148.53,0,138.09A80.49,80.49,0,0,1,62.38,59.2a72.05,72.05,0,0,1,18.56-2.06A11.46,11.46,0,0,1,92.27,67.25a11.79,11.79,0,0,1-8.22,12.54,19.57,19.57,0,0,1-4.85.57c-10.75.45-20.85,3.15-29.78,9.25-17,11.6-26,27.73-26.17,48.39-.18,22.32,0,44.63-.06,66.94a18.74,18.74,0,0,1-.47,4.86A11.41,11.41,0,0,1,11,218.21,12.08,12.08,0,0,1,.06,207.48c-.09-1,0-2,0-3.07Q0,186.91,0,169.41Z"/></g></g></svg>