<?xml version="1.0" encoding="utf-8"?>
<!-- Generator: Adobe Illustrator 23.0.4, SVG Export Plug-In . SVG Version: 6.00 Build 0)  -->
<svg version="1.1" id="圖層_1" xmlns="http://www.w3.org/2000/svg" xmlns:xlink="http://www.w3.org/1999/xlink" x="0px" y="0px"
	 viewBox="0 0 1036.7 673.6" style="enable-background:new 0 0 1036.7 673.6;" xml:space="preserve">
<style type="text/css">
	.st0{fill:url(#metaball_bg_1_);}
</style>
<title>metaball_tr2</title>
<desc>Created with Sketch.</desc>
<g id="v3">
	<g id="sec1_index" transform="translate(-999.000000, -279.000000)">
		<g transform="translate(-786.000000, -390.000000)">
			<g id="metaball_tr2" transform="translate(1785.000000, 669.000000)">
				
					<linearGradient id="metaball_bg_1_" gradientUnits="userSpaceOnUse" x1="-498.26" y1="970.8289" x2="-497.5341" y2="970.0253" gradientTransform="matrix(865.2322 -314.9188 -293.8847 -807.4415 716487.5625 627132.875)">
					<stop  offset="0" style="stop-color:#D52568;stop-opacity:0.7"/>
					<stop  offset="0.3" style="stop-color:#D83951;stop-opacity:0.7"/>
					<stop  offset="0.75" style="stop-color:#DF6223;stop-opacity:0.7"/>
				</linearGradient>
				<path id="metaball_bg" class="st0" d="M1031.4,525.5c25.5-105.2-43.5-212.2-154.1-239c-25-6.1-51-7.7-76.6-4.6l0-0.1
					c-35.8,4.2-95.9,33.6-169.8,3.1c-79.1-32.6-91.1-81.4-131.5-147.5c-0.2-0.2-0.3-0.5-0.4-0.7c-1.4-2.3-2.8-4.7-4.1-7
					c0-0.1-0.1-0.2-0.2-0.2C458.9,71.2,399.5,25.8,325.8,7.9C182.6-26.7,39.8,55.6,6.8,191.7S63.2,466.3,206.3,501
					c47.1,11.6,96.5,10.5,143.1-3.1l0.3,0.7c49.3-14,131.1-18.5,185.1-5.4c67.2,16.3,95.9,55.5,136.2,104l0.4-0.3
					c29.3,35.2,69.2,60,113.7,70.6C895.6,694.3,1005.9,630.7,1031.4,525.5z"/>
			</g>
		</g>
	</g>
</g>
</svg>
