<?xml version="1.0" encoding="utf-8"?>
<!-- Generator: Adobe Illustrator 23.0.2, SVG Export Plug-In . SVG Version: 6.00 Build 0)  -->
<svg version="1.1" id="圖層_1" xmlns="http://www.w3.org/2000/svg" xmlns:xlink="http://www.w3.org/1999/xlink" x="0px" y="0px"
	 viewBox="0 0 621.3 163.3" style="enable-background:new 0 0 621.3 163.3;" xml:space="preserve">
<style type="text/css">
	.st0{fill:#7D4F95;}
	.st1{fill:#D7356F;}
	.st2{fill:#E3A2C6;}
	.st3{fill:#DF6223;}
	.st4{enable-background:new    ;}
</style>
<title>p03_000002</title>
<g>
	<g id="Color_Scheme">
		<rect id="purple" x="0.4" class="st0" width="74.8" height="74.8"/>
		<rect id="pink" x="164.4" y="0.1" class="st1" width="74.8" height="74.8"/>
		<rect id="pink-2" x="330.6" class="st2" width="75" height="75"/>
		<rect id="pink-3" x="506.4" y="0.5" class="st3" width="74.5" height="74.5"/>
		<g class="st4">
			<path class="st0" d="M7.2,117.1H5.2l-1.3,3.9H1.2l1.3-3.9H0.3l0.7-2.3h2.2l1.2-3.6H2.3L3,109h2.3l1.3-4h2.6l-1.3,4H10l1.3-4h2.7
				l-1.3,4h2.2l-0.7,2.3h-2.3l-1.2,3.6H13l-0.7,2.3H9.9l-1.3,3.9H5.9L7.2,117.1z M7.1,111.3L6,114.9h2l1.2-3.6H7.1z"/>
			<path class="st0" d="M23.5,108.7h-7.8v-3.6h12.6v2.9l-5.6,13.2H18L23.5,108.7z"/>
			<path class="st0" d="M30,105.1h6.7c5,0,8.7,3,8.7,8s-3.6,8-8.6,8H30V105.1z M36.8,117.5c2.8,0,4.4-2,4.4-4.4
				c0-2.5-1.5-4.4-4.4-4.4h-2.6v8.8H36.8z"/>
			<path class="st0" d="M54.2,118.1h-7.7v-3.2l6.1-9.9h5.7v9.5h1.9v3.6h-1.9v2.9h-4.2V118.1z M50.6,114.5h3.6v-5.9L50.6,114.5z"/>
			<path class="st0" d="M62.3,105.1H74v3.5h-7.6v2.7h7.4v3.5h-7.4v6.4h-4.1V105.1z"/>
			<path class="st0" d="M78,116.8c0.9,0.7,1.8,1.1,3.1,1.1c2.2,0,3.7-1.7,3.7-3.9v-0.2c-0.8,1.1-2.3,1.8-3.9,1.8
				c-2.9,0-5.6-1.8-5.6-5.2c0-3.3,2.7-5.6,6.4-5.6c5.1,0,7.3,3.6,7.3,8.3c0,5.1-3.1,8.3-7.9,8.3c-1.9,0-3.6-0.6-4.8-1.5L78,116.8z
				 M81.9,108.3c-1.5,0-2.4,1-2.4,1.9c0,1.4,1.3,2,2.6,2c1,0,2-0.4,2.7-1.1C84.7,109.8,83.9,108.3,81.9,108.3z"/>
			<path class="st0" d="M92.8,116.3c1.1,1,2.7,1.6,4.2,1.6c1.8,0,2.6-0.9,2.6-2c0-1.1-0.8-1.9-2.5-1.9c-1.3,0-2.3,0.4-3.2,1.2
				l-2.9-0.7v-9.4h11.6v3.5h-7.6v3.3c0.9-0.8,2.2-1.3,3.6-1.3c2.7,0,5.2,2,5.2,5.2c0,3.5-2.6,5.6-6.8,5.6c-2.8,0-5-0.9-6.5-2.3
				L92.8,116.3z"/>
		</g>
		<g class="st4">
			<path class="st0" d="M5.2,143.3l-2.7,2.7l-2.4-2.5l5.6-5.5h3.6v16H5.2V143.3z"/>
			<path class="st0" d="M11.8,150.9c6.9-5,8.2-6.1,8.2-7.7c0-1.1-1-1.7-2.3-1.7c-1.7,0-3,0.7-4.2,1.8l-2.3-2.7
				c1.7-1.9,4.2-2.7,6.5-2.7c3.8,0,6.5,2.1,6.5,5.3c0,2.4-1.8,4.5-6,7.3h6.2v3.6H11.8V150.9z"/>
			<path class="st0" d="M28.5,149.3c1.1,1,2.7,1.6,4.2,1.6c1.8,0,2.6-0.9,2.6-2c0-1.1-0.8-1.9-2.5-1.9c-1.3,0-2.3,0.4-3.2,1.2
				l-2.9-0.7v-9.4h11.6v3.5h-7.6v3.3c0.9-0.8,2.2-1.3,3.6-1.3c2.7,0,5.2,2,5.2,5.2c0,3.5-2.6,5.6-6.8,5.6c-2.8,0-5-0.9-6.5-2.3
				L28.5,149.3z"/>
		</g>
		<g class="st4">
			<path class="st0" d="M41.4,156.2c0.8-0.4,1.8-1.3,2-2.2c-0.1,0-0.3,0.1-0.6,0.1c-1,0-1.9-0.9-1.9-2c0-1.2,1-2.2,2.2-2.2
				c1.3,0,2.4,1,2.4,2.8c0,2-1.1,3.7-2.7,4.9L41.4,156.2z"/>
		</g>
		<g class="st4">
			<path class="st0" d="M53,141.7h-7.8v-3.6h12.6v2.9l-5.6,13.2h-4.5L53,141.7z"/>
		</g>
		<g class="st4">
			<path class="st0" d="M61.3,149.8c0.9,0.7,1.8,1.1,3.1,1.1c2.2,0,3.7-1.7,3.7-3.9v-0.2c-0.8,1.1-2.3,1.8-3.9,1.8
				c-2.9,0-5.6-1.8-5.6-5.2c0-3.3,2.7-5.6,6.4-5.6c5.1,0,7.3,3.6,7.3,8.3c0,5.1-3.1,8.3-7.9,8.3c-1.9,0-3.6-0.6-4.8-1.5L61.3,149.8z
				 M65.2,141.3c-1.5,0-2.4,1-2.4,1.9c0,1.4,1.3,2,2.6,2c1,0,2-0.4,2.7-1.1C68,142.8,67.2,141.3,65.2,141.3z"/>
		</g>
		<g class="st4">
			<path class="st0" d="M73.9,156.2c0.8-0.4,1.8-1.3,2-2.2c-0.1,0-0.3,0.1-0.6,0.1c-1,0-1.9-0.9-1.9-2c0-1.2,1-2.2,2.2-2.2
				c1.3,0,2.4,1,2.4,2.8c0,2-1.1,3.7-2.7,4.9L73.9,156.2z"/>
		</g>
		<g class="st4">
			<path class="st0" d="M81.5,143.3l-2.7,2.7l-2.4-2.5l5.6-5.5h3.6v16h-4.1V143.3z"/>
			<path class="st0" d="M95.3,151.1h-7.7v-3.2l6.1-9.9h5.7v9.5h1.9v3.6h-1.9v2.9h-4.2V151.1z M91.6,147.5h3.6v-5.9L91.6,147.5z"/>
			<path class="st0" d="M105.1,149.8c0.9,0.7,1.8,1.1,3.1,1.1c2.2,0,3.7-1.7,3.7-3.9v-0.2c-0.8,1.1-2.3,1.8-3.9,1.8
				c-2.9,0-5.6-1.8-5.6-5.2c0-3.3,2.7-5.6,6.4-5.6c5.1,0,7.3,3.6,7.3,8.3c0,5.1-3.1,8.3-7.9,8.3c-1.9,0-3.6-0.6-4.8-1.5L105.1,149.8
				z M109,141.3c-1.5,0-2.4,1-2.4,1.9c0,1.4,1.3,2,2.6,2c1,0,2-0.4,2.7-1.1C111.8,142.8,111,141.3,109,141.3z"/>
		</g>
		<g class="st4">
			<path class="st1" d="M171.2,117.1h-2.1l-1.3,3.9h-2.6l1.3-3.9h-2.2l0.7-2.3h2.2l1.2-3.6h-2.2l0.7-2.3h2.3l1.3-4h2.6l-1.3,4h2.1
				l1.3-4h2.7l-1.3,4h2.2l-0.7,2.3h-2.3l-1.2,3.6h2.3l-0.7,2.3h-2.4l-1.3,3.9h-2.7L171.2,117.1z M171.1,111.3l-1.2,3.6h2l1.2-3.6
				H171.1z"/>
			<path class="st1" d="M180.6,105.1h6.7c5,0,8.7,3,8.7,8s-3.6,8-8.6,8h-6.7V105.1z M187.3,117.5c2.8,0,4.4-2,4.4-4.4
				c0-2.5-1.5-4.4-4.4-4.4h-2.6v8.8H187.3z"/>
			<path class="st1" d="M204.9,108.7h-7.8v-3.6h12.6v2.9l-5.6,13.2h-4.5L204.9,108.7z"/>
			<path class="st1" d="M212.5,116.1c1.2,1.1,3,1.7,4.4,1.7c1.8,0,2.7-0.7,2.7-1.7c0-0.9-0.7-1.5-2.9-1.5c-0.7,0-1.9,0-2.2,0v-3.6
				c0.3,0,1.6,0,2.2,0c1.7,0,2.6-0.5,2.6-1.4c0-1-1.2-1.5-2.7-1.5c-1.5,0-2.9,0.6-4,1.6l-1.9-2.5c1.3-1.5,3.5-2.6,6.4-2.6
				c4.1,0,6.4,1.8,6.4,4.4c0,1.9-1.6,3.3-3.5,3.6c1.7,0.2,3.8,1.5,3.8,3.8c0,2.8-2.6,4.8-6.6,4.8c-3.1,0-5.4-1.1-6.6-2.5
				L212.5,116.1z"/>
			<path class="st1" d="M227.7,116.3c1.1,1,2.7,1.6,4.2,1.6c1.8,0,2.6-0.9,2.6-2c0-1.1-0.8-1.9-2.5-1.9c-1.3,0-2.3,0.4-3.2,1.2
				l-2.9-0.7v-9.4h11.6v3.5H230v3.3c0.9-0.8,2.2-1.3,3.6-1.3c2.7,0,5.2,2,5.2,5.2c0,3.5-2.6,5.6-6.8,5.6c-2.8,0-5-0.9-6.5-2.3
				L227.7,116.3z"/>
			<path class="st1" d="M247.9,104.8c1.9,0,3.7,0.6,4.9,1.5l-1.8,3c-0.9-0.7-1.8-1.1-3.1-1.1c-2.1,0-3.7,1.6-3.7,3.9v0.2
				c0.8-1.1,2.3-1.8,3.9-1.8c2.9,0,5.5,1.8,5.5,5.2c0,3.3-2.7,5.6-6.4,5.6c-5.1,0-7.3-3.7-7.3-8.3C239.9,108,243,104.8,247.9,104.8z
				 M246.8,113.9c-1,0-2,0.4-2.7,1.1c0.1,1.3,0.9,2.9,2.9,2.9c1.6,0,2.4-1,2.4-1.9C249.4,114.5,248.1,113.9,246.8,113.9z"/>
			<path class="st1" d="M255.6,105.1h11.7v3.5h-7.6v2.7h7.4v3.5h-7.4v6.4h-4.1V105.1z"/>
		</g>
		<g class="st4">
			<path class="st1" d="M165.1,150.9c6.9-5,8.2-6.1,8.2-7.7c0-1.1-1-1.7-2.3-1.7c-1.7,0-3,0.7-4.2,1.8l-2.3-2.7
				c1.7-1.9,4.2-2.7,6.5-2.7c3.8,0,6.5,2.1,6.5,5.3c0,2.4-1.8,4.5-6,7.3h6.2v3.6h-12.6V150.9z"/>
			<path class="st1" d="M183.7,143.3l-2.7,2.7l-2.4-2.5l5.6-5.5h3.6v16h-4.1V143.3z"/>
			<path class="st1" d="M192.5,149.3c1.1,1,2.7,1.6,4.2,1.6c1.8,0,2.6-0.9,2.6-2c0-1.1-0.8-1.9-2.5-1.9c-1.3,0-2.3,0.4-3.2,1.2
				l-2.9-0.7v-9.4h11.6v3.5h-7.6v3.3c0.9-0.8,2.2-1.3,3.6-1.3c2.7,0,5.2,2,5.2,5.2c0,3.5-2.6,5.6-6.8,5.6c-2.8,0-5-0.9-6.5-2.3
				L192.5,149.3z"/>
			<path class="st1" d="M205.4,156.2c0.8-0.4,1.8-1.3,2-2.2c-0.1,0-0.3,0.1-0.6,0.1c-1,0-1.9-0.9-1.9-2c0-1.2,1-2.2,2.2-2.2
				c1.3,0,2.4,1,2.4,2.8c0,2-1.1,3.7-2.7,4.9L205.4,156.2z"/>
			<path class="st1" d="M213.7,149.3c1.1,1,2.7,1.6,4.2,1.6c1.8,0,2.6-0.9,2.6-2c0-1.1-0.8-1.9-2.5-1.9c-1.3,0-2.3,0.4-3.2,1.2
				l-2.9-0.7v-9.4h11.6v3.5H216v3.3c0.9-0.8,2.2-1.3,3.6-1.3c2.7,0,5.2,2,5.2,5.2c0,3.5-2.6,5.6-6.8,5.6c-2.8,0-5-0.9-6.5-2.3
				L213.7,149.3z"/>
			<path class="st1" d="M227.8,149.1c1.2,1.1,3,1.7,4.4,1.7c1.8,0,2.7-0.7,2.7-1.7c0-0.9-0.7-1.5-2.9-1.5c-0.7,0-1.9,0-2.2,0v-3.6
				c0.3,0,1.6,0,2.2,0c1.7,0,2.6-0.5,2.6-1.4c0-1-1.2-1.5-2.7-1.5c-1.5,0-2.9,0.6-4,1.6l-1.9-2.5c1.3-1.5,3.5-2.6,6.4-2.6
				c4.1,0,6.4,1.8,6.4,4.4c0,1.9-1.6,3.3-3.5,3.6c1.7,0.2,3.8,1.5,3.8,3.8c0,2.8-2.6,4.8-6.6,4.8c-3.1,0-5.4-1.1-6.6-2.5
				L227.8,149.1z"/>
		</g>
		<g class="st4">
			<path class="st1" d="M241.1,156.2c0.8-0.4,1.8-1.3,2-2.2c-0.1,0-0.3,0.1-0.6,0.1c-1,0-1.9-0.9-1.9-2c0-1.2,1-2.2,2.2-2.2
				c1.3,0,2.4,1,2.4,2.8c0,2-1.1,3.7-2.7,4.9L241.1,156.2z"/>
		</g>
		<g class="st4">
			<path class="st1" d="M248.7,143.3l-2.7,2.7l-2.4-2.5l5.6-5.5h3.6v16h-4.1V143.3z"/>
			<path class="st1" d="M259.5,143.3l-2.7,2.7l-2.4-2.5l5.6-5.5h3.6v16h-4.1V143.3z"/>
			<path class="st1" d="M270.2,143.3l-2.7,2.7l-2.4-2.5l5.6-5.5h3.6v16h-4.1V143.3z"/>
		</g>
		<g class="st4">
			<path class="st2" d="M338.2,117.1h-2.1l-1.3,3.9h-2.6l1.3-3.9h-2.2l0.7-2.3h2.2l1.2-3.6h-2.2l0.7-2.3h2.3l1.3-4h2.6l-1.3,4h2.1
				l1.3-4h2.7l-1.3,4h2.2l-0.7,2.3h-2.3l-1.2,3.6h2.3l-0.7,2.3h-2.4l-1.3,3.9h-2.7L338.2,117.1z M338.1,111.3l-1.2,3.6h2l1.2-3.6
				H338.1z"/>
			<path class="st2" d="M347.6,105.1h11.7v3.5h-7.6v2.7h7.4v3.5h-7.4v2.9h7.6v3.5h-11.7V105.1z"/>
			<path class="st2" d="M362.8,116.1c1.2,1.1,3,1.7,4.4,1.7c1.8,0,2.7-0.7,2.7-1.7c0-0.9-0.7-1.5-2.9-1.5c-0.7,0-1.9,0-2.2,0v-3.6
				c0.3,0,1.6,0,2.2,0c1.7,0,2.6-0.5,2.6-1.4c0-1-1.2-1.5-2.7-1.5c-1.5,0-2.9,0.6-4,1.6l-1.9-2.5c1.3-1.5,3.5-2.6,6.4-2.6
				c4.1,0,6.4,1.8,6.4,4.4c0,1.9-1.6,3.3-3.5,3.6c1.7,0.2,3.8,1.5,3.8,3.8c0,2.8-2.6,4.8-6.6,4.8c-3.1,0-5.4-1.1-6.6-2.5
				L362.8,116.1z"/>
			<path class="st2" d="M386.4,118.6h-6.6l-0.8,2.4h-4.5l6-16h5.2l6,16h-4.5L386.4,118.6z M380.9,115.2h4.5l-2.3-6.5L380.9,115.2z"
				/>
			<path class="st2" d="M392.5,117.9c6.9-5,8.2-6.1,8.2-7.7c0-1.1-1-1.7-2.3-1.7c-1.7,0-3,0.7-4.2,1.8l-2.3-2.7
				c1.7-1.9,4.2-2.7,6.5-2.7c3.8,0,6.5,2.1,6.5,5.3c0,2.4-1.8,4.5-6,7.3h6.2v3.6h-12.6V117.9z"/>
			<path class="st2" d="M406.7,113.1c0-4.9,3.7-8.3,8.5-8.3c4,0,6,2.2,7.1,4.3l-3.6,1.7c-0.5-1.3-1.9-2.3-3.6-2.3
				c-2.5,0-4.3,2-4.3,4.6s1.8,4.6,4.3,4.6c1.7,0,3-1.1,3.6-2.3l3.6,1.7c-1,2.1-3.1,4.3-7.1,4.3C410.4,121.4,406.7,118,406.7,113.1z"
				/>
			<path class="st2" d="M431.2,104.8c1.9,0,3.7,0.6,4.9,1.5l-1.8,3c-0.9-0.7-1.8-1.1-3.1-1.1c-2.1,0-3.7,1.6-3.7,3.9v0.2
				c0.8-1.1,2.3-1.8,3.9-1.8c2.9,0,5.5,1.8,5.5,5.2c0,3.3-2.7,5.6-6.4,5.6c-5.1,0-7.3-3.7-7.3-8.3
				C423.3,108,426.4,104.8,431.2,104.8z M430.1,113.9c-1,0-2,0.4-2.7,1.1c0.1,1.3,0.9,2.9,2.9,2.9c1.6,0,2.4-1,2.4-1.9
				C432.8,114.5,431.5,113.9,430.1,113.9z"/>
		</g>
		<g class="st4">
			<path class="st2" d="M332.1,150.9c6.9-5,8.2-6.1,8.2-7.7c0-1.1-1-1.7-2.3-1.7c-1.7,0-3,0.7-4.2,1.8l-2.3-2.7
				c1.7-1.9,4.2-2.7,6.5-2.7c3.8,0,6.5,2.1,6.5,5.3c0,2.4-1.8,4.5-6,7.3h6.2v3.6h-12.6V150.9z"/>
			<path class="st2" d="M346.6,150.9c6.9-5,8.2-6.1,8.2-7.7c0-1.1-1-1.7-2.3-1.7c-1.7,0-3,0.7-4.2,1.8l-2.3-2.7
				c1.7-1.9,4.2-2.7,6.5-2.7c3.8,0,6.5,2.1,6.5,5.3c0,2.4-1.8,4.5-6,7.3h6.2v3.6h-12.6V150.9z"/>
		</g>
		<g class="st4">
			<path class="st2" d="M368.4,141.7h-7.8v-3.6h12.6v2.9l-5.6,13.2H363L368.4,141.7z"/>
		</g>
		<g class="st4">
			<path class="st2" d="M372.7,156.2c0.8-0.4,1.8-1.3,2-2.2c-0.1,0-0.3,0.1-0.6,0.1c-1,0-1.9-0.9-1.9-2c0-1.2,1-2.2,2.2-2.2
				c1.3,0,2.4,1,2.4,2.8c0,2-1.1,3.7-2.7,4.9L372.7,156.2z"/>
		</g>
		<g class="st4">
			<path class="st2" d="M380.3,143.3l-2.7,2.7l-2.4-2.5l5.6-5.5h3.6v16h-4.1V143.3z"/>
			<path class="st2" d="M394.4,137.8c1.9,0,3.7,0.6,4.9,1.5l-1.8,3c-0.9-0.7-1.8-1.1-3.1-1.1c-2.1,0-3.7,1.6-3.7,3.9v0.2
				c0.8-1.1,2.3-1.8,3.9-1.8c2.9,0,5.5,1.8,5.5,5.2c0,3.3-2.7,5.6-6.4,5.6c-5.1,0-7.3-3.7-7.3-8.3
				C386.5,141,389.6,137.8,394.4,137.8z M393.4,146.9c-1,0-2,0.4-2.7,1.1c0.1,1.3,0.9,2.9,2.9,2.9c1.6,0,2.4-1,2.4-1.9
				C396,147.5,394.7,146.9,393.4,146.9z"/>
			<path class="st2" d="M401.8,150.9c6.9-5,8.2-6.1,8.2-7.7c0-1.1-1-1.7-2.3-1.7c-1.7,0-3,0.7-4.2,1.8l-2.3-2.7
				c1.7-1.9,4.2-2.7,6.5-2.7c3.8,0,6.5,2.1,6.5,5.3c0,2.4-1.8,4.5-6,7.3h6.2v3.6h-12.6V150.9z"/>
		</g>
		<g class="st4">
			<path class="st2" d="M416.6,156.2c0.8-0.4,1.8-1.3,2-2.2c-0.1,0-0.3,0.1-0.6,0.1c-1,0-1.9-0.9-1.9-2c0-1.2,1-2.2,2.2-2.2
				c1.3,0,2.4,1,2.4,2.8c0,2-1.1,3.7-2.7,4.9L416.6,156.2z"/>
		</g>
		<g class="st4">
			<path class="st2" d="M424.2,143.3l-2.7,2.7l-2.4-2.5l5.6-5.5h3.6v16h-4.1V143.3z"/>
			<path class="st2" d="M433,149.8c0.9,0.7,1.8,1.1,3.1,1.1c2.2,0,3.7-1.7,3.7-3.9v-0.2c-0.8,1.1-2.3,1.8-3.9,1.8
				c-2.9,0-5.6-1.8-5.6-5.2c0-3.3,2.7-5.6,6.4-5.6c5.1,0,7.3,3.6,7.3,8.3c0,5.1-3.1,8.3-7.9,8.3c-1.9,0-3.6-0.6-4.8-1.5L433,149.8z
				 M436.9,141.3c-1.5,0-2.4,1-2.4,1.9c0,1.4,1.3,2,2.6,2c1,0,2-0.4,2.7-1.1C439.7,142.8,438.9,141.3,436.9,141.3z"/>
			<path class="st2" d="M448.5,145.8c-1.7-0.6-3-1.8-3-3.7c0-3.1,3.4-4.3,6.5-4.3c3.1,0,6.5,1.2,6.5,4.3c0,1.9-1.3,3.1-3,3.7
				c1.8,0.7,3.2,2.2,3.2,4c0,3.1-3.3,4.5-6.8,4.5c-3.5,0-6.8-1.4-6.8-4.5C445.2,148,446.6,146.5,448.5,145.8z M452,147.6
				c-1,0.1-2.6,0.7-2.6,1.8c0,0.9,1.1,1.5,2.6,1.5c1.5,0,2.6-0.6,2.6-1.5C454.6,148.3,453,147.7,452,147.6z M452,141.3
				c-1.4,0-2.3,0.6-2.3,1.4c0,0.9,1.3,1.5,2.3,1.6c1-0.2,2.3-0.7,2.3-1.6C454.3,141.8,453.4,141.3,452,141.3z"/>
		</g>
		<g class="st4">
			<path class="st3" d="M513.2,117.1h-2.1l-1.3,3.9h-2.6l1.3-3.9h-2.2l0.7-2.3h2.2l1.2-3.6h-2.2l0.7-2.3h2.3l1.3-4h2.6l-1.3,4h2.1
				l1.3-4h2.7l-1.3,4h2.2l-0.7,2.3h-2.3l-1.2,3.6h2.3l-0.7,2.3h-2.4l-1.3,3.9h-2.7L513.2,117.1z M513.1,111.3l-1.2,3.6h2l1.2-3.6
				H513.1z"/>
			<path class="st3" d="M522.6,105.1h6.7c5,0,8.7,3,8.7,8s-3.6,8-8.6,8h-6.7V105.1z M529.3,117.5c2.8,0,4.4-2,4.4-4.4
				c0-2.5-1.5-4.4-4.4-4.4h-2.6v8.8H529.3z"/>
			<path class="st3" d="M540.1,105.1h11.7v3.5h-7.6v2.7h7.4v3.5h-7.4v6.4h-4.1V105.1z"/>
			<path class="st3" d="M561.1,104.8c1.9,0,3.7,0.6,4.9,1.5l-1.8,3c-0.9-0.7-1.8-1.1-3.1-1.1c-2.1,0-3.7,1.6-3.7,3.9v0.2
				c0.8-1.1,2.3-1.8,3.9-1.8c2.9,0,5.5,1.8,5.5,5.2c0,3.3-2.7,5.6-6.4,5.6c-5.1,0-7.3-3.7-7.3-8.3
				C553.2,108,556.3,104.8,561.1,104.8z M560.1,113.9c-1,0-2,0.4-2.7,1.1c0.1,1.3,0.9,2.9,2.9,2.9c1.6,0,2.4-1,2.4-1.9
				C562.7,114.5,561.4,113.9,560.1,113.9z"/>
			<path class="st3" d="M568.4,117.9c6.9-5,8.2-6.1,8.2-7.7c0-1.1-1-1.7-2.3-1.7c-1.7,0-3,0.7-4.2,1.8l-2.3-2.7
				c1.7-1.9,4.2-2.7,6.5-2.7c3.8,0,6.5,2.1,6.5,5.3c0,2.4-1.8,4.5-6,7.3h6.2v3.6h-12.6V117.9z"/>
			<path class="st3" d="M583,117.9c6.9-5,8.2-6.1,8.2-7.7c0-1.1-1-1.7-2.3-1.7c-1.7,0-3,0.7-4.2,1.8l-2.3-2.7
				c1.7-1.9,4.2-2.7,6.5-2.7c3.8,0,6.5,2.1,6.5,5.3c0,2.4-1.8,4.5-6,7.3h6.2v3.6H583V117.9z"/>
			<path class="st3" d="M599,116.1c1.2,1.1,3,1.7,4.4,1.7c1.8,0,2.7-0.7,2.7-1.7c0-0.9-0.7-1.5-2.9-1.5c-0.7,0-1.9,0-2.2,0v-3.6
				c0.3,0,1.6,0,2.2,0c1.7,0,2.6-0.5,2.6-1.4c0-1-1.2-1.5-2.7-1.5c-1.5,0-2.9,0.6-4,1.6l-1.9-2.5c1.3-1.5,3.5-2.6,6.4-2.6
				c4.1,0,6.4,1.8,6.4,4.4c0,1.9-1.6,3.3-3.5,3.6c1.7,0.2,3.8,1.5,3.8,3.8c0,2.8-2.6,4.8-6.6,4.8c-3.1,0-5.4-1.1-6.6-2.5L599,116.1z
				"/>
		</g>
		<g class="st4">
			<path class="st3" d="M507.1,150.9c6.9-5,8.2-6.1,8.2-7.7c0-1.1-1-1.7-2.3-1.7c-1.7,0-3,0.7-4.2,1.8l-2.3-2.7
				c1.7-1.9,4.2-2.7,6.5-2.7c3.8,0,6.5,2.1,6.5,5.3c0,2.4-1.8,4.5-6,7.3h6.2v3.6h-12.6V150.9z"/>
			<path class="st3" d="M521.6,150.9c6.9-5,8.2-6.1,8.2-7.7c0-1.1-1-1.7-2.3-1.7c-1.7,0-3,0.7-4.2,1.8l-2.3-2.7
				c1.7-1.9,4.2-2.7,6.5-2.7c3.8,0,6.5,2.1,6.5,5.3c0,2.4-1.8,4.5-6,7.3h6.2v3.6h-12.6V150.9z"/>
			<path class="st3" d="M537.6,149.1c1.2,1.1,3,1.7,4.4,1.7c1.8,0,2.7-0.7,2.7-1.7c0-0.9-0.7-1.5-2.9-1.5c-0.7,0-1.9,0-2.2,0v-3.6
				c0.3,0,1.6,0,2.2,0c1.7,0,2.6-0.5,2.6-1.4c0-1-1.2-1.5-2.7-1.5c-1.5,0-2.9,0.6-4,1.6l-1.9-2.5c1.3-1.5,3.5-2.6,6.4-2.6
				c4.1,0,6.4,1.8,6.4,4.4c0,1.9-1.6,3.3-3.5,3.6c1.7,0.2,3.8,1.5,3.8,3.8c0,2.8-2.6,4.8-6.6,4.8c-3.1,0-5.4-1.1-6.6-2.5
				L537.6,149.1z"/>
			<path class="st3" d="M550.9,156.2c0.8-0.4,1.8-1.3,2-2.2c-0.1,0-0.3,0.1-0.6,0.1c-1,0-1.9-0.9-1.9-2c0-1.2,1-2.2,2.2-2.2
				c1.3,0,2.4,1,2.4,2.8c0,2-1.1,3.7-2.7,4.9L550.9,156.2z"/>
			<path class="st3" d="M559.2,149.8c0.9,0.7,1.8,1.1,3.1,1.1c2.2,0,3.7-1.7,3.7-3.9v-0.2c-0.8,1.1-2.3,1.8-3.9,1.8
				c-2.9,0-5.6-1.8-5.6-5.2c0-3.3,2.7-5.6,6.4-5.6c5.1,0,7.3,3.6,7.3,8.3c0,5.1-3.1,8.3-7.9,8.3c-1.9,0-3.6-0.6-4.8-1.5L559.2,149.8
				z M563.1,141.3c-1.5,0-2.4,1-2.4,1.9c0,1.4,1.3,2,2.6,2c1,0,2-0.4,2.7-1.1C565.9,142.8,565.1,141.3,563.1,141.3z"/>
			<path class="st3" d="M574.7,145.8c-1.7-0.6-3-1.8-3-3.7c0-3.1,3.4-4.3,6.5-4.3c3.1,0,6.5,1.2,6.5,4.3c0,1.9-1.3,3.1-3,3.7
				c1.8,0.7,3.2,2.2,3.2,4c0,3.1-3.3,4.5-6.8,4.5c-3.5,0-6.8-1.4-6.8-4.5C571.4,148,572.8,146.5,574.7,145.8z M578.2,147.6
				c-1,0.1-2.6,0.7-2.6,1.8c0,0.9,1.1,1.5,2.6,1.5c1.5,0,2.6-0.6,2.6-1.5C580.8,148.3,579.2,147.7,578.2,147.6z M578.2,141.3
				c-1.4,0-2.3,0.6-2.3,1.4c0,0.9,1.3,1.5,2.3,1.6c1-0.2,2.3-0.7,2.3-1.6C580.5,141.8,579.6,141.3,578.2,141.3z"/>
			<path class="st3" d="M587,156.2c0.8-0.4,1.8-1.3,2-2.2c-0.1,0-0.3,0.1-0.6,0.1c-1,0-1.9-0.9-1.9-2c0-1.2,1-2.2,2.2-2.2
				c1.3,0,2.4,1,2.4,2.8c0,2-1.1,3.7-2.7,4.9L587,156.2z"/>
			<path class="st3" d="M594.6,149.1c1.2,1.1,3,1.7,4.4,1.7c1.8,0,2.7-0.7,2.7-1.7c0-0.9-0.7-1.5-2.9-1.5c-0.7,0-1.9,0-2.2,0v-3.6
				c0.3,0,1.6,0,2.2,0c1.7,0,2.6-0.5,2.6-1.4c0-1-1.2-1.5-2.7-1.5c-1.5,0-2.9,0.6-4,1.6l-1.9-2.5c1.3-1.5,3.5-2.6,6.4-2.6
				c4.1,0,6.4,1.8,6.4,4.4c0,1.9-1.6,3.3-3.5,3.6c1.7,0.2,3.8,1.5,3.8,3.8c0,2.8-2.6,4.8-6.6,4.8c-3.1,0-5.4-1.1-6.6-2.5
				L594.6,149.1z"/>
			<path class="st3" d="M609.7,149.3c1.1,1,2.7,1.6,4.2,1.6c1.8,0,2.6-0.9,2.6-2c0-1.1-0.8-1.9-2.5-1.9c-1.3,0-2.3,0.4-3.2,1.2
				l-2.9-0.7v-9.4h11.6v3.5H612v3.3c0.9-0.8,2.2-1.3,3.6-1.3c2.7,0,5.2,2,5.2,5.2c0,3.5-2.6,5.6-6.8,5.6c-2.8,0-5-0.9-6.5-2.3
				L609.7,149.3z"/>
		</g>
	</g>
</g>
</svg>
