<svg xmlns="http://www.w3.org/2000/svg" xmlns:xlink="http://www.w3.org/1999/xlink" viewBox="0 0 235.7 155.54"><defs><style>.cls-1{fill:url(#未命名漸層_27);}.cls-2{fill:#fff;}.cls-3{fill:#ff9230;}</style><linearGradient id="未命名漸層_27" x1="194.67" y1="123.78" x2="114.43" y2="23.36" gradientUnits="userSpaceOnUse"><stop offset="0" stop-color="#ff9a3f"/><stop offset="0.51" stop-color="#ff6d3f"/><stop offset="1" stop-color="#ffd13f"/></linearGradient></defs><title>資產 1</title><g id="圖層_2" data-name="圖層 2"><g id="圖層_1-2" data-name="圖層 1"><path class="cls-1" d="M157.93,152.54A74.39,74.39,0,0,1,93,114.9a23,23,0,0,0,3.66-1.48,21.78,21.78,0,0,0,2.72-1.64,4.38,4.38,0,0,0,4.12,2.92h9.87a4.36,4.36,0,0,0,4.36-4.36V78.89a34.93,34.93,0,0,0-.85-7.57,5.39,5.39,0,0,0,2.3.52h4V94a38.21,38.21,0,0,0,.8,8,18.44,18.44,0,0,0,3.22,7.24,16.29,16.29,0,0,0,6.52,5.1,24.15,24.15,0,0,0,10,1.78,34,34,0,0,0,5.19-.43c.92-.15,1.8-.33,2.6-.53a5.49,5.49,0,0,0,4.12-5,5.6,5.6,0,0,0,5.59,5.34h8.29a5.6,5.6,0,0,0,5.59-5.6V61.12a5.6,5.6,0,0,0-5.59-5.6h-1.95a11.56,11.56,0,0,0,5.95-2.89,10.9,10.9,0,0,0,0-16,11.88,11.88,0,0,0-8.26-3.09A11.28,11.28,0,0,0,157,36.82a10.88,10.88,0,0,0,0,15.6,10.9,10.9,0,0,0,6,3.1h-1.77a5.61,5.61,0,0,0-5.37,4,5.47,5.47,0,0,0-5.37-4.48h-8V44.88A5.46,5.46,0,0,0,137,39.43h-8.36a5.46,5.46,0,0,0-5.45,5.45V55.05h-4a5.46,5.46,0,0,0-5.45,5.45v3.16a20.37,20.37,0,0,0-1.52-2.07,22.52,22.52,0,0,0-8.48-6.13,33.11,33.11,0,0,0-13-2.27c-1.15,0-2.31.06-3.46.16a74.77,74.77,0,1,1,70.67,99.19ZM192.13,35c.59,0,.75.16.81.21s.18.19.18.65a1.92,1.92,0,0,1-.28,1,9,9,0,0,1-1.43,1.73L178.94,50a3,3,0,0,0-1,2.22v6.35a3,3,0,0,0,3,3h23.26a3,3,0,0,0,3-3V51.89a3,3,0,0,0-3-3H199l1.57-1.39c.77-.71,1.51-1.42,2.24-2.14A17.83,17.83,0,0,0,205,42.7a12.81,12.81,0,0,0,2.22-7.35,12.31,12.31,0,0,0-1.32-5.75,12.1,12.1,0,0,0-3.47-4.1,14.38,14.38,0,0,0-4.71-2.31,19.2,19.2,0,0,0-5.14-.7,17.15,17.15,0,0,0-5.43.86,14.75,14.75,0,0,0-4.7,2.59A14.41,14.41,0,0,0,179,30.07a14.27,14.27,0,0,0-1.65,5.18l0,.13a6.55,6.55,0,0,0,1.25,4.95A6.68,6.68,0,0,0,182.92,43a7,7,0,0,0,1,.07,6.6,6.6,0,0,0,6.58-5.54,2.33,2.33,0,0,0,0-.28,3.1,3.1,0,0,1,.67-1.82A1,1,0,0,1,192.13,35Zm-36.72,69.13a5.49,5.49,0,0,0-5.49-5.27,5.41,5.41,0,0,0-1,.09,14.23,14.23,0,0,1-2.39.23c-2,0-3-.43-3.16-.8a9.51,9.51,0,0,1-.92-4.52v-22h8a5.46,5.46,0,0,0,5.14-3.63v41.25Z"/><path class="cls-2" d="M157.93,6A71.77,71.77,0,1,1,97.44,116.4l.63-.31.54-.29a7.35,7.35,0,0,0,4.93,1.9h9.87a7.37,7.37,0,0,0,7.36-7.36V101c.09.54.19,1.08.3,1.6a21.54,21.54,0,0,0,3.75,8.41,19.25,19.25,0,0,0,7.69,6,27,27,0,0,0,11.23,2,36.62,36.62,0,0,0,5.67-.47c1-.16,2-.35,2.85-.58a8.27,8.27,0,0,0,3.35-1.71,8.57,8.57,0,0,0,5.63,2.11h8.29a8.6,8.6,0,0,0,8.59-8.6v-46a6,6,0,0,0,2.83.7h23.26a6,6,0,0,0,6-6V51.89a6,6,0,0,0-4.13-5.71,21.76,21.76,0,0,0,1.36-1.8,15.9,15.9,0,0,0,2.73-9,15,15,0,0,0-6-12.25,17.22,17.22,0,0,0-5.7-2.79,21.58,21.58,0,0,0-5.95-.82,20,20,0,0,0-6.38,1,18,18,0,0,0-5.66,3.12,17.48,17.48,0,0,0-4.13,5,17,17,0,0,0-1.8,5,15.06,15.06,0,0,0-9.29-3A14.33,14.33,0,0,0,154.9,34.7a13.78,13.78,0,0,0-4.17,9.92,13.58,13.58,0,0,0,2.45,7.86,8.45,8.45,0,0,0-2.68-.43h-5V44.88A8.46,8.46,0,0,0,137,36.43h-8.36a8.46,8.46,0,0,0-8.45,8.45v7.17h-1a8.45,8.45,0,0,0-7.57,4.71,27.47,27.47,0,0,0-6.69-4,34.57,34.57,0,0,0-13.3-2.51A72,72,0,0,1,157.93,6m35.68,31.18h0m-41,37.38V96.33a8.47,8.47,0,0,0-2.72-.44,8.36,8.36,0,0,0-1.5.13,10.38,10.38,0,0,1-1.87.19c-.34,0-.62,0-.83,0a9.22,9.22,0,0,1-.25-2.28v-19h5a8.37,8.37,0,0,0,2.14-.28M157.93,0A77.79,77.79,0,0,0,83,57.05a35.61,35.61,0,0,1,7.75-.86,30,30,0,0,1,11.86,2,19.32,19.32,0,0,1,7.36,5.28,18.91,18.91,0,0,1,3.76,7.3,31.72,31.72,0,0,1,1.07,8.09v31.45a1.36,1.36,0,0,1-1.36,1.36h-9.87a1.36,1.36,0,0,1-1.36-1.36v-5.49h-.33a15.11,15.11,0,0,1-6.52,5.9,20.69,20.69,0,0,1-6.82,2.07A77.77,77.77,0,1,0,157.93,0Zm26,40a3.68,3.68,0,0,1-3.67-4.19.44.44,0,0,1,0-.1,11.21,11.21,0,0,1,4-7.47,11.59,11.59,0,0,1,3.75-2.06,14,14,0,0,1,4.47-.71,15.92,15.92,0,0,1,4.32.59,11.18,11.18,0,0,1,3.73,1.82A9.1,9.1,0,0,1,203.19,31a9.26,9.26,0,0,1,1,4.36,10,10,0,0,1-.46,3.11A10.21,10.21,0,0,1,202.46,41a14.09,14.09,0,0,1-1.82,2.2c-.68.68-1.38,1.36-2.11,2l-7.45,6.64h13.13v6.63H181V52.17l12.54-11.34a11.7,11.7,0,0,0,1.91-2.31,5,5,0,0,0,.72-2.63A3.71,3.71,0,0,0,195,33.1a4,4,0,0,0-2.9-1.07A4,4,0,0,0,189,33.37a6.08,6.08,0,0,0-1.43,3.52h0a.11.11,0,0,0,0,0A3.65,3.65,0,0,1,183.94,40ZM165.27,52.71a8.29,8.29,0,0,1-6.12-2.41,7.86,7.86,0,0,1,0-11.35,8.3,8.3,0,0,1,6.12-2.42,9,9,0,0,1,6.24,2.3,7.91,7.91,0,0,1,0,11.58,9,9,0,0,1-6.24,2.3ZM119.22,68.84a2.46,2.46,0,0,1-2.45-2.46V60.5a2.45,2.45,0,0,1,2.45-2.45h4.54a2.45,2.45,0,0,0,2.45-2.45V44.88a2.45,2.45,0,0,1,2.45-2.45H137a2.45,2.45,0,0,1,2.45,2.45V55.6a2.45,2.45,0,0,0,2.45,2.45h8.58A2.45,2.45,0,0,1,153,60.5v5.88a2.45,2.45,0,0,1-2.45,2.46h-8.58a2.45,2.45,0,0,0-2.45,2.45v22.6a12.32,12.32,0,0,0,1.29,6q1.29,2.36,5.79,2.36a16.41,16.41,0,0,0,2.92-.28,2.28,2.28,0,0,1,.45,0,2.51,2.51,0,0,1,2.5,2.4l.23,5.47a2.44,2.44,0,0,1-1.85,2.48q-1.08.27-2.34.48a30.32,30.32,0,0,1-4.72.39,21.49,21.49,0,0,1-8.76-1.52,13.18,13.18,0,0,1-5.34-4.16,15.38,15.38,0,0,1-2.7-6.06,35.12,35.12,0,0,1-.73-7.36V71.29a2.45,2.45,0,0,0-2.45-2.45Zm42,43.62a2.59,2.59,0,0,1-2.6-2.6V61.12a2.6,2.6,0,0,1,2.6-2.6h8.29a2.6,2.6,0,0,1,2.59,2.6v48.74a2.59,2.59,0,0,1-2.59,2.6Z"/><path class="cls-3" d="M85.1,115.05a31.72,31.72,0,0,1-7.26-.89,22.54,22.54,0,0,1-7.16-3.09,18.39,18.39,0,0,1-5.54-5.79,16.92,16.92,0,0,1-2.26-9c0-4.56,1.34-8.27,4-11a24.23,24.23,0,0,1,9.6-6c1-.34,2-.67,3.24-1a53.78,53.78,0,0,1,9.2-1.64c3.74-.35,7.45-.56,11-.61a6.16,6.16,0,0,0-2.74-5.17,13.55,13.55,0,0,0-7.6-2.08,17.64,17.64,0,0,0-7.37,1.61l-.39.19-.28.15a21.25,21.25,0,0,0-4,2.51,3.9,3.9,0,0,1-5.45-.48l-4.48-5.27a3.89,3.89,0,0,1-.91-2.89,3.93,3.93,0,0,1,1.43-2.69,33,33,0,0,1,9.73-5.45,41.41,41.41,0,0,1,4.68-1.34,37.7,37.7,0,0,1,8.18-.91,32.07,32.07,0,0,1,12.65,2.19,21.5,21.5,0,0,1,8.11,5.84,21,21,0,0,1,4.15,8.07,33.38,33.38,0,0,1,1.14,8.6v30.9a3.92,3.92,0,0,1-3.91,3.91h-8.77a3.92,3.92,0,0,1-3.91-3.78,20,20,0,0,1-3.94,2.61,23,23,0,0,1-7.46,2.28A28.66,28.66,0,0,1,85.1,115.05Zm13.82-26c-2.09,0-4.34.1-6.7.28A27.57,27.57,0,0,0,86,90.52a13.1,13.1,0,0,0-3.64,1.76c-.24.18-.49.35-.71.55a4,4,0,0,0-1.33,3.25,3.75,3.75,0,0,0,.52,2.11,4.4,4.4,0,0,0,1.52,1.45,7.94,7.94,0,0,0,2.21.84l.16,0a15.21,15.21,0,0,0,3,.31c4.12,0,7.1-1,9.13-3.1s3-4.92,3-8.64Z"/><path class="cls-2" d="M90.72,56.19a30,30,0,0,1,11.86,2,19.32,19.32,0,0,1,7.36,5.28,18.91,18.91,0,0,1,3.76,7.3,31.72,31.72,0,0,1,1.07,8.09v30.9a1.91,1.91,0,0,1-1.91,1.91h-8.77a1.91,1.91,0,0,1-1.91-1.91v-4.94h-.33a15.11,15.11,0,0,1-6.52,5.9,20.69,20.69,0,0,1-6.82,2.07,25.14,25.14,0,0,1-3.41.23,29.46,29.46,0,0,1-6.8-.84,20.13,20.13,0,0,1-6.51-2.81,16.23,16.23,0,0,1-5-5.17,14.86,14.86,0,0,1-2-7.92q0-6.07,3.42-9.66a22.17,22.17,0,0,1,8.82-5.51c1-.35,2-.67,3.1-1a52.61,52.61,0,0,1,8.87-1.58q5.59-.52,11-.6A1.89,1.89,0,0,0,102,76.09a8.2,8.2,0,0,0-3.64-6.92,15.44,15.44,0,0,0-8.71-2.41,19.69,19.69,0,0,0-8.21,1.79l-.71.36a22.9,22.9,0,0,0-4.4,2.76,1.92,1.92,0,0,1-1.23.44,1.87,1.87,0,0,1-1.44-.67l-4.48-5.27a1.92,1.92,0,0,1,.27-2.73,30.42,30.42,0,0,1,9.13-5.11A37.87,37.87,0,0,1,83,57.05a35.61,35.61,0,0,1,7.75-.86M87.8,102.83q7,0,10.56-3.71c2.4-2.47,3.6-5.85,3.6-10.11a1.92,1.92,0,0,0-1.91-1.92H98.92q-3.26,0-6.85.29a29.68,29.68,0,0,0-6.63,1.23,15.06,15.06,0,0,0-4.2,2c-.3.21-.59.43-.86.66a6,6,0,0,0-2,4.77,5.76,5.76,0,0,0,.84,3.21,6.7,6.7,0,0,0,2.19,2.08,9.85,9.85,0,0,0,2.78,1.06l.26.06a17.51,17.51,0,0,0,3.37.34m2.92-50.64a39.27,39.27,0,0,0-8.62,1,40.9,40.9,0,0,0-4.91,1.41,34.76,34.76,0,0,0-10.32,5.78,5.94,5.94,0,0,0-2.16,4.06,5.81,5.81,0,0,0,1.38,4.36L70.56,74a5.89,5.89,0,0,0,4.49,2.08,6,6,0,0,0,3.75-1.33,19.41,19.41,0,0,1,3.64-2.28l.3-.15.32-.16a15.48,15.48,0,0,1,6.54-1.43,11.41,11.41,0,0,1,6.5,1.75,3.57,3.57,0,0,1,1.38,1.56c-2.87.09-5.81.28-8.76.56a55.92,55.92,0,0,0-9.55,1.7c-1.25.34-2.36.68-3.38,1a26.13,26.13,0,0,0-10.38,6.52c-3,3.15-4.53,7.33-4.53,12.42a18.87,18.87,0,0,0,2.56,10,20.46,20.46,0,0,0,6.14,6.41,24.34,24.34,0,0,0,7.8,3.36,33.52,33.52,0,0,0,7.72,1,30.79,30.79,0,0,0,3.94-.26,24.83,24.83,0,0,0,8.11-2.48,22.66,22.66,0,0,0,2.06-1.19,5.91,5.91,0,0,0,4.88,2.58h8.77a5.92,5.92,0,0,0,5.91-5.91V78.89a36,36,0,0,0-1.2-9.11A23,23,0,0,0,113,61a23.32,23.32,0,0,0-8.85-6.4,34,34,0,0,0-13.45-2.36ZM85.26,98.58l-.21-.06a5.66,5.66,0,0,1-1.64-.61,2.45,2.45,0,0,1-.85-.81,2,2,0,0,1-.2-1A2,2,0,0,1,83,94.34c.15-.13.37-.29.57-.43a11,11,0,0,1,3.08-1.48,26,26,0,0,1,5.74-1.07c1.89-.14,3.72-.23,5.45-.26a8.88,8.88,0,0,1-2.34,5.23c-1.63,1.68-4.14,2.5-7.69,2.5a13.75,13.75,0,0,1-2.54-.25Z"/><path class="cls-3" d="M150.5,58.05h-8.58a2.45,2.45,0,0,1-2.45-2.45V44.88A2.45,2.45,0,0,0,137,42.43h-8.36a2.45,2.45,0,0,0-2.45,2.45V55.6a2.45,2.45,0,0,1-2.45,2.45h-4.54a2.45,2.45,0,0,0-2.45,2.45v5.88a2.46,2.46,0,0,0,2.45,2.46h4.54a2.45,2.45,0,0,1,2.45,2.45V94a35.12,35.12,0,0,0,.73,7.36,15.38,15.38,0,0,0,2.7,6.06,13.18,13.18,0,0,0,5.34,4.16,21.49,21.49,0,0,0,8.76,1.52,30.32,30.32,0,0,0,4.72-.39q1.26-.21,2.34-.48a2.44,2.44,0,0,0,1.85-2.48l-.23-5.47a2.51,2.51,0,0,0-2.95-2.36,16.41,16.41,0,0,1-2.92.28q-4.5,0-5.79-2.36a12.32,12.32,0,0,1-1.29-6V71.29a2.45,2.45,0,0,1,2.45-2.45h8.58A2.45,2.45,0,0,0,153,66.38V60.5A2.45,2.45,0,0,0,150.5,58.05Z"/><path class="cls-3" d="M165.27,36.53A8.3,8.3,0,0,0,159.15,39a7.86,7.86,0,0,0,0,11.35,8.29,8.29,0,0,0,6.12,2.41,9,9,0,0,0,6.24-2.3,7.91,7.91,0,0,0,0-11.58A9,9,0,0,0,165.27,36.53Z"/><rect class="cls-3" x="158.64" y="58.52" width="13.48" height="53.94" rx="2.6" ry="2.6"/><path class="cls-3" d="M198.53,45.25c.73-.66,1.43-1.34,2.11-2a14.09,14.09,0,0,0,1.82-2.2,10.21,10.21,0,0,0,1.25-2.57,10,10,0,0,0,.46-3.11,9.26,9.26,0,0,0-1-4.36,9.1,9.1,0,0,0-2.61-3.09,11.18,11.18,0,0,0-3.73-1.82,15.92,15.92,0,0,0-4.32-.59,14,14,0,0,0-4.47.71,11.59,11.59,0,0,0-3.75,2.06,11.21,11.21,0,0,0-4,7.47.44.44,0,0,0,0,.1,3.69,3.69,0,0,0,7.3,1.11.11.11,0,0,1,0,0h0A6.08,6.08,0,0,1,189,33.37,4,4,0,0,1,192.13,32,4,4,0,0,1,195,33.1a3.71,3.71,0,0,1,1.09,2.79,5,5,0,0,1-.72,2.63,11.7,11.7,0,0,1-1.91,2.31L181,52.17v6.35h23.26V51.89H191.08Z"/><path class="cls-3" d="M51.14,110.7a4.42,4.42,0,0,1-4.22-4.58V77a1.45,1.45,0,0,0-1.23-1.58H18.25A1.45,1.45,0,0,0,17,77v29.12a4.41,4.41,0,0,1-4.22,4.58H5.73a4.42,4.42,0,0,1-4.23-4.58V32.73a4.42,4.42,0,0,1,4.23-4.58H12.8A4.41,4.41,0,0,1,17,32.73v26a1.45,1.45,0,0,0,1.23,1.58H45.69a1.45,1.45,0,0,0,1.23-1.58v-26a4.42,4.42,0,0,1,4.22-4.58h7.08a4.41,4.41,0,0,1,4.22,4.58v73.39a4.41,4.41,0,0,1-4.22,4.58Z"/><path class="cls-2" d="M58.22,29.65a2.92,2.92,0,0,1,2.72,3.08v73.39a2.92,2.92,0,0,1-2.72,3.08H51.14a2.92,2.92,0,0,1-2.72-3.08V77a2.92,2.92,0,0,0-2.73-3.08H18.25A2.92,2.92,0,0,0,15.52,77v29.12a2.92,2.92,0,0,1-2.72,3.08H5.73A2.92,2.92,0,0,1,3,106.12V32.73a2.92,2.92,0,0,1,2.73-3.08H12.8a2.92,2.92,0,0,1,2.72,3.08v26a2.92,2.92,0,0,0,2.73,3.08H45.69a2.92,2.92,0,0,0,2.73-3.08v-26a2.92,2.92,0,0,1,2.72-3.08h7.08m0-3H51.14a5.92,5.92,0,0,0-5.72,6.08v26a.19.19,0,0,1,0,.08H18.53s0-.05,0-.08v-26a5.92,5.92,0,0,0-5.72-6.08H5.73A5.92,5.92,0,0,0,0,32.73v73.39a5.91,5.91,0,0,0,5.73,6.08H12.8a5.91,5.91,0,0,0,5.72-6.08V77s0-.06,0-.08H45.41a.19.19,0,0,1,0,.08v29.12a5.91,5.91,0,0,0,5.72,6.08h7.08a5.91,5.91,0,0,0,5.72-6.08V32.73a5.92,5.92,0,0,0-5.72-6.08Z"/></g></g></svg>