<?xml version="1.0" encoding="utf-8"?>
<!-- Generator: Adobe Illustrator 23.0.4, SVG Export Plug-In . SVG Version: 6.00 Build 0)  -->
<svg version="1.1" id="圖層_1" xmlns="http://www.w3.org/2000/svg" xmlns:xlink="http://www.w3.org/1999/xlink" x="0px" y="0px"
	 viewBox="0 0 197 328" style="enable-background:new 0 0 197 328;" xml:space="preserve">
<style type="text/css">
	.st0{fill-rule:evenodd;clip-rule:evenodd;fill:#E4F3FF;}
	.st1{enable-background:new    ;}
	.st2{fill:#1787E0;}
	.st3{fill-rule:evenodd;clip-rule:evenodd;fill:#E4F3FF;stroke:#1787E0;}
	.st4{fill-rule:evenodd;clip-rule:evenodd;fill:#1787E0;}
	.st5{fill-rule:evenodd;clip-rule:evenodd;fill:#FFF5F5;stroke:#BB4646;}
	.st6{fill:#B01111;}
	.st7{fill:none;stroke:#727272;stroke-width:0.5;stroke-linecap:square;}
	.st8{fill-rule:evenodd;clip-rule:evenodd;fill:#727272;}
	.st9{fill-rule:evenodd;clip-rule:evenodd;fill:#4CBA38;}
	.st10{fill:#FFFFFF;}
	.st11{fill:none;stroke:#727272;stroke-width:0.5;}
	.st12{fill-rule:evenodd;clip-rule:evenodd;fill:#FF6660;}
	.st13{fill-rule:evenodd;clip-rule:evenodd;fill:#FFF5C7;stroke:#FFDA64;}
	.st14{fill-rule:evenodd;clip-rule:evenodd;fill:#E4F4FF;}
	.st15{fill:#328FD8;}
</style>
<title>Group</title>
<desc>Created with Sketch.</desc>
<g id="blue-version">
	<g id="Group" transform="translate(1.000000, 0.000000)">
		<path id="Rectangle" class="st0" d="M22,0h57c8.3,0,15,6.7,15,15l0,0c0,8.3-6.7,15-15,15H22c-8.3,0-15-6.7-15-15l0,0
			C7,6.7,13.7,0,22,0z"/>
		<g class="st1">
			<path class="st2" d="M29.1,10.9c-0.2,0.6-0.4,1.2-0.7,1.9v7h-0.9v-5.3c-0.2,0.4-0.5,0.8-0.7,1.1c-0.1-0.2-0.3-0.7-0.5-1
				c0.8-1,1.5-2.5,1.9-3.9L29.1,10.9z M34.7,17.4c-0.3,0.5-0.9,1-1.6,1.3c0.7,0.2,1.5,0.3,2.4,0.4c-0.2,0.2-0.4,0.5-0.5,0.7
				c-1.1-0.1-2.1-0.3-2.9-0.6c-0.8,0.3-1.8,0.5-3,0.7c-0.1-0.2-0.3-0.5-0.4-0.7c0.9-0.1,1.7-0.2,2.4-0.4c-0.3-0.2-0.6-0.3-0.8-0.5
				c-0.3,0.2-0.6,0.3-0.9,0.5c-0.1-0.2-0.3-0.4-0.5-0.5c0.3-0.1,0.6-0.3,0.9-0.4c-0.1-0.1-0.2-0.3-0.4-0.4l0.7-0.3
				c0.1,0.1,0.2,0.2,0.3,0.3c0.3-0.2,0.6-0.4,0.8-0.7c-0.3-0.1-0.3-0.3-0.3-0.7v-0.1c-0.2,0.4-0.6,0.8-0.9,1l-0.5-0.4
				c0.4-0.2,0.8-0.6,1-1l0.5,0.3v-0.2h0.7V16c0,0.2,0.1,0.2,0.4,0.2H33c0.2,0,0.3-0.1,0.3-0.4c0.1,0.1,0.4,0.1,0.6,0.2
				c-0.1-0.1-0.2-0.2-0.3-0.3l0.5-0.3c0.4,0.3,0.9,0.8,1.1,1.1l-0.5,0.3c-0.2-0.2-0.4-0.6-0.7-0.9c-0.1,0.5-0.3,0.7-0.8,0.7H32
				c-0.1,0.1-0.2,0.2-0.3,0.4H34l0.1,0L34.7,17.4z M35.6,14.7V16h-0.8v-0.8h-2.4c0.3,0.2,0.6,0.4,0.7,0.6l-0.5,0.3
				c-0.2-0.2-0.6-0.5-0.9-0.7l0.3-0.2h-2.3V16H29v-1.4h0.9v-2.5h1.7c0-0.2,0.1-0.3,0.1-0.4h-2.5V11h6.2v0.7h-2.7l-0.2,0.4h2.2v2.5
				H35.6z M30.7,12.7V13h3.1v-0.4H30.7z M33.8,13.5h-3.1v0.4h3.1V13.5z M30.7,14.7h3.1v-0.4h-3.1V14.7z M31,17.8
				c0.3,0.2,0.7,0.4,1.2,0.6c0.5-0.2,0.9-0.5,1.3-0.7L31,17.8L31,17.8z"/>
			<path class="st2" d="M36.5,19c0.4-0.5,0.7-1.2,0.9-1.8l0.8,0.3c-0.2,0.6-0.5,1.4-0.9,1.9L36.5,19z M40.4,11.9h-3.7v-0.7h3.7v-0.5
				h1v0.5h3.8v0.7h-3.8v0.6h3.1v2.8h-1.3c0.8,0.4,1.6,0.9,2,1.4l-0.6,0.5c-0.1-0.2-0.4-0.3-0.6-0.5c-1.1,0-2.3,0-3.4,0.1
				c0.6,0.3,1.2,0.7,1.5,1.1l-0.6,0.5c-0.3-0.4-1-0.9-1.6-1.2l0.5-0.5c-1.4,0-2.8,0-3.8,0l0-0.8c1,0,2.3,0,3.7,0v-0.7h-3.1v-2.8h3.1
				V11.9z M38.3,13.6h2.2V13h-2.2V13.6z M40.4,14.7v-0.6h-2.2v0.6H40.4z M42.2,18.9c0.5,0,0.6-0.1,0.6-0.9c0.2,0.1,0.6,0.3,0.8,0.3
				c-0.1,1.1-0.4,1.4-1.3,1.4h-2.1c-1.2,0-1.6-0.2-1.6-1.1v-1.3h0.9v1.3c0,0.3,0.1,0.3,0.7,0.3H42.2z M41.4,13v0.6h2.2V13H41.4z
				 M43.6,14.2h-2.2v0.6h2.2V14.2z M43,16c-0.2-0.1-0.4-0.2-0.7-0.3l0.5-0.3h-1.4V16L43,16z M44.3,17.3c0.5,0.6,0.9,1.4,1.1,1.9
				l-0.8,0.3c-0.2-0.5-0.6-1.3-1.1-1.9L44.3,17.3z"/>
			<path class="st2" d="M48,18.5v0.8h-0.8v-2.9c-0.1,0.2-0.2,0.4-0.4,0.6c-0.1-0.2-0.4-0.7-0.5-0.9c0.7-1,1.1-2.6,1.3-4.3h-1.1V11
				h3.7v0.8h-1.7c-0.1,0.8-0.3,1.5-0.5,2.3h1.8v4.4H48z M49,15H48v2.8H49V15z M49.7,19c0.4-0.5,0.6-1.3,0.7-2.2l0.7,0.2
				c-0.1,0.9-0.3,1.8-0.7,2.3L49.7,19z M55.4,15.6c0,0,0,0.2,0,0.4c-0.1,2.3-0.2,3.2-0.5,3.5c-0.2,0.2-0.4,0.3-0.6,0.3
				c-0.2,0-0.6,0-1.1,0c0-0.2-0.1-0.6-0.2-0.8c0.4,0,0.8,0,0.9,0c0.1,0,0.2,0,0.3-0.1c0.1-0.1,0.2-0.4,0.2-1L54,18.1
				c-0.1-0.3-0.4-0.8-0.6-1.2l0.5-0.2c0.2,0.3,0.5,0.7,0.6,1c0-0.3,0.1-0.8,0.1-1.3h-4V11h4.7v0.8h-1.8v0.7H55v0.7h-1.6v0.8H55v0.7
				h-1.6v0.8H55.4z M52,17.1c0.1,0.6,0.2,1.3,0.2,1.8L51.5,19c0-0.5,0-1.2-0.1-1.8L52,17.1z M51.4,11.8v0.7h1.2v-0.7H51.4z
				 M52.6,13.3h-1.2v0.8h1.2V13.3z M51.4,15.6h1.2v-0.8h-1.2V15.6z M53,16.9c0.2,0.5,0.4,1.1,0.4,1.5l-0.6,0.2
				c-0.1-0.4-0.2-1-0.4-1.5L53,16.9z"/>
			<path class="st2" d="M58.2,15.2c-0.4-0.4-1.2-0.8-1.8-1.1l0.5-0.7c0.6,0.2,1.4,0.7,1.9,1L58.2,15.2z M59.2,16.5
				c-0.5,1-1.2,2.2-1.8,3.2L56.6,19c0.5-0.8,1.3-2,1.9-3.2L59.2,16.5z M58.6,12.6c-0.3-0.4-1.1-0.9-1.7-1.2l0.5-0.7
				c0.6,0.3,1.4,0.8,1.7,1.2L58.6,12.6z M60.1,15.3h0.8v1c0,1.1-0.2,2.4-1.4,3.4c-0.1-0.2-0.4-0.5-0.6-0.6c1.1-0.8,1.2-1.9,1.2-2.8
				V15.3z M64.8,15.3c-0.1-0.2-0.3-0.4-0.5-0.7c-3.9,0.3-4.4,0.3-4.7,0.4c0-0.2-0.2-0.6-0.3-0.9c0.2,0,0.4-0.3,0.7-0.6
				c0.1-0.2,0.4-0.5,0.7-0.9h-1.5v-0.8h2.1c0.2-0.4,0.5-0.8,0.7-1.2l0.9,0.4c-0.2,0.3-0.4,0.6-0.5,0.9h3v0.8h-3.6
				c-0.4,0.5-0.7,1-1.1,1.4l3-0.2c-0.2-0.3-0.4-0.5-0.6-0.8l0.7-0.4c0.6,0.7,1.3,1.6,1.7,2.1L64.8,15.3z M61.8,15.4h0.8v3.9h-0.8
				V15.4z M65,18.8c0.1,0,0.3,0,0.4-0.1c0,0.2,0,0.5,0.1,0.7c-0.1,0-0.3,0.1-0.5,0.1h-0.6c-0.8,0-0.9-0.3-0.9-1.1v-3.1h0.9v3.1
				c0,0.3,0,0.4,0.1,0.4H65z"/>
			<path class="st2" d="M69.5,16.9c-0.1-0.3-0.4-0.9-0.7-1.3v4.3h-0.9v-4.1c-0.3,1-0.7,1.9-1.2,2.5c-0.1-0.3-0.3-0.7-0.4-0.9
				c0.5-0.7,1.1-1.9,1.4-2.9h-1.2v-0.9h1.5V12c-0.4,0.1-0.7,0.1-1.1,0.2c0-0.2-0.1-0.5-0.2-0.7c1-0.2,2.1-0.5,2.8-0.8l0.5,0.8
				c-0.3,0.1-0.7,0.2-1.1,0.4v1.6H70v0.9h-1.2v0.2c0.3,0.3,1,1.3,1.2,1.6L69.5,16.9z M75.5,18.7v0.8h-5.7v-0.8h2.5v-1.1h-1.9v-0.8
				h1.9v-1c-0.6,0.1-1.1,0.1-1.6,0.1c0-0.2-0.1-0.5-0.2-0.7c1.4-0.1,3-0.3,4-0.5l0.6,0.7c-0.5,0.1-1.1,0.2-1.8,0.3v1.1h1.9v0.8h-1.9
				v1.1H75.5z M75,14.4h-4.6v-3.3H75V14.4z M74.1,11.9h-2.8v1.7h2.8V11.9z"/>
		</g>
		<g id="modal" transform="translate(11.000000, 51.000000)">
			<path id="Rectangle-8" class="st3" d="M2.5,0.5h75c1.1,0,2,0.9,2,2v39c0,1.1-0.9,2-2,2h-75c-1.1,0-2-0.9-2-2v-39
				C0.5,1.4,1.4,0.5,2.5,0.5z"/>
			<path id="Combined-Shape-Copy" class="st4" d="M72.6,5.4l1.1-1.1c0.3-0.3,0.9-0.3,1.2,0c0.3,0.3,0.3,0.9,0,1.2l-1.1,1.1l1.1,1.1
				c0.3,0.3,0.3,0.9,0,1.2c-0.3,0.3-0.9,0.3-1.2,0l-1.1-1.1l-1.1,1.1c-0.3,0.3-0.9,0.3-1.2,0c-0.3-0.3-0.3-0.9,0-1.2l1.1-1.1
				l-1.1-1.1c-0.3-0.3-0.3-0.9,0-1.2c0.3-0.3,0.9-0.3,1.2,0L72.6,5.4z"/>
			<g class="st1">
				<path class="st2" d="M18.1,17.9c-0.2,0.6-0.4,1.2-0.7,1.9v7h-0.9v-5.3c-0.2,0.4-0.5,0.8-0.7,1.1c-0.1-0.2-0.3-0.7-0.5-1
					c0.8-1,1.5-2.5,1.9-3.9L18.1,17.9z M23.7,24.4c-0.3,0.5-0.9,1-1.6,1.3c0.7,0.2,1.5,0.3,2.4,0.4c-0.2,0.2-0.4,0.5-0.5,0.7
					c-1.1-0.1-2.1-0.3-2.9-0.6c-0.8,0.3-1.8,0.5-3,0.7c-0.1-0.2-0.3-0.5-0.4-0.7c0.9-0.1,1.7-0.2,2.4-0.4c-0.3-0.2-0.6-0.3-0.8-0.5
					c-0.3,0.2-0.6,0.3-0.9,0.5c-0.1-0.2-0.3-0.4-0.5-0.5c0.3-0.1,0.6-0.3,0.9-0.4c-0.1-0.1-0.2-0.3-0.4-0.4l0.7-0.3
					c0.1,0.1,0.2,0.2,0.3,0.3c0.3-0.2,0.6-0.4,0.8-0.7c-0.3-0.1-0.3-0.3-0.3-0.7v-0.1c-0.2,0.4-0.6,0.8-0.9,1l-0.5-0.4
					c0.4-0.2,0.8-0.6,1-1l0.5,0.3v-0.2h0.7V23c0,0.2,0.1,0.2,0.4,0.2H22c0.2,0,0.3-0.1,0.3-0.4c0.1,0.1,0.4,0.1,0.6,0.2
					c-0.1-0.1-0.2-0.2-0.3-0.3l0.5-0.3c0.4,0.3,0.9,0.8,1.1,1.1l-0.5,0.3c-0.2-0.2-0.4-0.6-0.7-0.9c-0.1,0.5-0.3,0.7-0.8,0.7H21
					c-0.1,0.1-0.2,0.2-0.3,0.4H23l0.1,0L23.7,24.4z M24.6,21.7V23h-0.8v-0.8h-2.4c0.3,0.2,0.6,0.4,0.7,0.6l-0.5,0.3
					c-0.2-0.2-0.6-0.5-0.9-0.7l0.3-0.2h-2.3V23H18v-1.4h0.9v-2.5h1.7c0-0.2,0.1-0.3,0.1-0.4h-2.5V18h6.2v0.7h-2.7l-0.2,0.4h2.2v2.5
					H24.6z M19.7,19.7V20h3.1v-0.4H19.7z M22.8,20.5h-3.1v0.4h3.1V20.5z M19.7,21.7h3.1v-0.4h-3.1V21.7z M20,24.8
					c0.3,0.2,0.7,0.4,1.2,0.6c0.5-0.2,0.9-0.5,1.3-0.7L20,24.8L20,24.8z"/>
				<path class="st2" d="M25.5,26c0.4-0.5,0.7-1.2,0.9-1.8l0.8,0.3c-0.2,0.6-0.5,1.4-0.9,1.9L25.5,26z M29.4,18.9h-3.7v-0.7h3.7
					v-0.5h1v0.5h3.8v0.7h-3.8v0.6h3.1v2.8h-1.3c0.8,0.4,1.6,0.9,2,1.4l-0.6,0.5c-0.1-0.2-0.4-0.3-0.6-0.5c-1.1,0-2.3,0-3.4,0.1
					c0.6,0.3,1.2,0.7,1.5,1.1l-0.6,0.5c-0.3-0.4-1-0.9-1.6-1.2l0.5-0.5c-1.4,0-2.8,0-3.8,0l0-0.8c1,0,2.3,0,3.7,0v-0.7h-3.1v-2.8
					h3.1V18.9z M27.3,20.6h2.2V20h-2.2V20.6z M29.4,21.7v-0.6h-2.2v0.6H29.4z M31.2,25.9c0.5,0,0.6-0.1,0.6-0.9
					c0.2,0.1,0.6,0.3,0.8,0.3c-0.1,1.1-0.4,1.4-1.3,1.4h-2.1c-1.2,0-1.6-0.2-1.6-1.1v-1.3h0.9v1.3c0,0.3,0.1,0.3,0.7,0.3H31.2z
					 M30.4,20v0.6h2.2V20H30.4z M32.6,21.2h-2.2v0.6h2.2V21.2z M32,23c-0.2-0.1-0.4-0.2-0.7-0.3l0.5-0.3h-1.4V23L32,23z M33.3,24.3
					c0.5,0.6,0.9,1.4,1.1,1.9l-0.8,0.3c-0.2-0.5-0.6-1.3-1.1-1.9L33.3,24.3z"/>
				<path class="st2" d="M37,25.5v0.8h-0.8v-2.9c-0.1,0.2-0.2,0.4-0.4,0.6c-0.1-0.2-0.4-0.7-0.5-0.9c0.7-1,1.1-2.6,1.3-4.3h-1.1V18
					h3.7v0.8h-1.7c-0.1,0.8-0.3,1.5-0.5,2.3h1.8v4.4H37z M38,22H37v2.8H38V22z M38.7,26c0.4-0.5,0.6-1.3,0.7-2.2l0.7,0.2
					c-0.1,0.9-0.3,1.8-0.7,2.3L38.7,26z M44.4,22.6c0,0,0,0.2,0,0.4c-0.1,2.3-0.2,3.2-0.5,3.5c-0.2,0.2-0.4,0.3-0.6,0.3
					c-0.2,0-0.6,0-1.1,0c0-0.2-0.1-0.6-0.2-0.8c0.4,0,0.8,0,0.9,0c0.1,0,0.2,0,0.3-0.1c0.1-0.1,0.2-0.4,0.2-1L43,25.1
					c-0.1-0.3-0.4-0.8-0.6-1.2l0.5-0.2c0.2,0.3,0.5,0.7,0.6,1c0-0.3,0.1-0.8,0.1-1.3h-4V18h4.7v0.8h-1.8v0.7H44v0.7h-1.6v0.8H44v0.7
					h-1.6v0.8H44.4z M41,24.1c0.1,0.6,0.2,1.3,0.2,1.8L40.5,26c0-0.5,0-1.2-0.1-1.8L41,24.1z M40.4,18.8v0.7h1.2v-0.7H40.4z
					 M41.6,20.3h-1.2v0.8h1.2V20.3z M40.4,22.6h1.2v-0.8h-1.2V22.6z M42,23.9c0.2,0.5,0.4,1.1,0.4,1.5l-0.6,0.2
					c-0.1-0.4-0.2-1-0.4-1.5L42,23.9z"/>
				<path class="st2" d="M52.6,25.5c0.6,0,1.3,0,1.7-0.1c0,0.2,0.1,0.7,0.1,0.9c-0.3,0.1-1.1,0.1-1.9,0.1h-4.2
					c-1.6,0-2.4-0.5-2.4-2.1v-5.4h-0.4V18H54v0.8h-7.1v5.5c0,0.8,0.3,1.2,1.4,1.2H52.6z M47.6,22.3h2.6v2.6h-2.6V22.3z M48.3,24.2
					h1.1v-1.3h-1.1V24.2z M52.4,21.7h-3.8v-2.3h3.8V21.7z M51.5,20.1h-2v1h2V20.1z M53.5,24.9h-2.7v-2.6h2.7V24.9z M52.7,22.9h-1.1
					v1.3h1.1V22.9z"/>
				<path class="st2" d="M58.7,24.3c-1.1,0.4-2.2,0.9-3.1,1.3l-0.3-0.9c0.4-0.1,0.8-0.3,1.3-0.5v-3.2h-1.1V20h1.1v-2.3h0.9V20h1v0.9
					h-1v2.9l1-0.4L58.7,24.3z M63.7,25.9c0.2,0,0.3-0.1,0.3-0.7c0.2,0.1,0.5,0.3,0.7,0.3c-0.1,0.9-0.3,1.2-1,1.2h-1.3
					c-0.9,0-1.1-0.2-1.1-1.1v-2.9h-0.6c-0.1,1.8-0.5,3.3-2.1,4.1c-0.1-0.2-0.4-0.5-0.5-0.7c1.4-0.7,1.7-1.9,1.8-3.4h-1.1v-4.1h1
					c0.1-0.3,0.2-0.7,0.3-1l1,0.1c-0.1,0.3-0.3,0.6-0.4,0.9h3.3v4.1h-2v2.9c0,0.3,0.1,0.3,0.4,0.3H63.7z M59.7,20.3h1.4v-0.9h-1.4
					V20.3z M59.7,22h1.4v-1h-1.4V22z M63.3,19.4h-1.4v0.9h1.4V19.4z M63.3,21h-1.4v1h1.4V21z M64.1,25.2c0-0.1-0.1-0.2-0.1-0.3
					c-1.3,0.2-1.5,0.2-1.6,0.2c0-0.1-0.1-0.4-0.2-0.6c0.1,0,0.2-0.1,0.3-0.3c0.1-0.2,0.4-0.8,0.5-1.4l0.6,0.2
					c-0.2,0.5-0.4,1-0.6,1.4l0.9-0.1c-0.1-0.3-0.2-0.5-0.3-0.7l0.4-0.2c0.2,0.5,0.5,1.1,0.6,1.5L64.1,25.2z"/>
			</g>
		</g>
		<g transform="translate(11.000000, 284.000000)">
			<path class="st3" d="M2.5,0.5h75c1.1,0,2,0.9,2,2v39c0,1.1-0.9,2-2,2h-75c-1.1,0-2-0.9-2-2v-39C0.5,1.4,1.4,0.5,2.5,0.5z"/>
			<path class="st4" d="M72.6,5.4l1.1-1.1c0.3-0.3,0.9-0.3,1.2,0c0.3,0.3,0.3,0.9,0,1.2l-1.1,1.1l1.1,1.1c0.3,0.3,0.3,0.9,0,1.2
				c-0.3,0.3-0.9,0.3-1.2,0l-1.1-1.1l-1.1,1.1c-0.3,0.3-0.9,0.3-1.2,0c-0.3-0.3-0.3-0.9,0-1.2l1.1-1.1l-1.1-1.1
				c-0.3-0.3-0.3-0.9,0-1.2c0.3-0.3,0.9-0.3,1.2,0L72.6,5.4z"/>
			<g class="st1">
				<path class="st2" d="M25.5,21.4v1.2h3.3v0.8h-3.3v2.2h3.8v0.8h-8.6v-0.8h3.8v-2.2h-3.3v-0.8h3.3v-1.2h-2.1v-0.5
					c-0.5,0.2-0.9,0.5-1.4,0.6c-0.1-0.3-0.4-0.6-0.6-0.9c1.9-0.6,3.7-1.7,4.6-3.1l0.9,0.4c-0.1,0.1-0.2,0.3-0.3,0.4
					c1,1,2.7,1.9,4.2,2.4c-0.2,0.2-0.5,0.6-0.6,0.8c-0.5-0.2-1-0.4-1.5-0.7v0.6H25.5z M22.7,23.6c0.4,0.5,0.8,1.3,0.9,1.7l-0.8,0.3
					c-0.1-0.5-0.5-1.2-0.9-1.8L22.7,23.6z M27.1,20.5c-0.8-0.5-1.5-1-2.1-1.6c-0.6,0.6-1.3,1.2-2,1.6H27.1z M26.2,25.3
					c0.3-0.5,0.8-1.2,1-1.8l0.9,0.3c-0.4,0.6-0.8,1.3-1.2,1.8L26.2,25.3z"/>
				<path class="st2" d="M34.4,23.8v3h-0.8v-0.3H32v0.3h-0.8v-2.9c-0.1,0.1-0.3,0.1-0.4,0.2c-0.1-0.2-0.3-0.6-0.5-0.8
					c0.6-0.2,1.3-0.5,1.8-0.9c-0.2-0.1-0.4-0.3-0.7-0.4l0.5-0.6c0.2,0.1,0.5,0.3,0.7,0.4c0.3-0.3,0.5-0.6,0.7-0.9h-1.3
					c-0.3,0.4-0.6,0.8-1.1,1.2c-0.1-0.2-0.3-0.5-0.5-0.6c0.8-0.5,1.2-1.3,1.5-1.9l0.7,0.1c-0.1,0.2-0.1,0.3-0.2,0.5h1.4l0.1,0
					l0.5,0.3c-0.3,0.6-0.6,1.2-1,1.7c0.6,0.3,1.1,0.7,1.5,0.9L34.4,23.8z M31.3,20.3h-0.7v-1.7h1.8c-0.1-0.2-0.2-0.5-0.3-0.7
					l0.7-0.3c0.1,0.3,0.3,0.7,0.4,0.9h1.6v1.7h-0.7v-1h-2.9V20.3z M34.2,23.7c-0.4-0.3-0.8-0.6-1.4-0.9c-0.4,0.4-0.9,0.7-1.3,0.9
					H34.2z M33.6,25.7v-1.3H32v1.3H33.6z M37.1,25.5c-0.6,0.5-1.4,1-2.1,1.3c-0.1-0.2-0.3-0.5-0.4-0.7c0.6-0.3,1.4-0.8,1.9-1.2
					L37.1,25.5z M36.7,19.7c0.1-0.3,0.1-0.6,0.2-0.8h-1.7v-0.8h4.4v0.8h-1.8c-0.1,0.3-0.2,0.6-0.2,0.8h1.8v5.2h-3.8v-5.2H36.7z
					 M38.4,20.4h-2.1v0.8h2.1V20.4z M38.4,21.9h-2.1v0.8h2.1V21.9z M38.4,23.4h-2.1v0.8h2.1V23.4z M38,24.9c0.5,0.3,1.3,0.9,1.7,1.2
					l-0.5,0.6c-0.3-0.4-1.1-0.9-1.6-1.3L38,24.9z"/>
				<path class="st2" d="M42.8,23.1v2.6c0,0.5-0.1,0.7-0.4,0.9c-0.3,0.1-0.7,0.2-1.4,0.2c0-0.2-0.2-0.6-0.3-0.9c0.4,0,0.8,0,1,0
					c0.1,0,0.2,0,0.2-0.2v-2.4l-1.2,0.3l-0.2-0.9c0.4-0.1,0.9-0.2,1.5-0.4v-2h-1.3v-0.9h1.3v-1.9h0.9v1.9H44v0.9h-1.3v1.7
					c0.4-0.1,0.8-0.2,1.2-0.3l0.1,0.9L42.8,23.1z M49.6,21.8H48v4.9h-0.9v-4.9h-1.7c0,1.7-0.2,3.5-1.2,5c-0.2-0.2-0.5-0.5-0.7-0.6
					c0.9-1.4,1.1-3.1,1.1-4.6v-3.1c1.4-0.2,3.1-0.5,4.1-0.8l0.6,0.8c-1,0.3-2.5,0.6-3.8,0.7v1.7h4.1V21.8z"/>
				<path class="st2" d="M54,22.9c-0.4,0.1-0.8,0.2-1.2,0.4v2.5c0,0.5-0.1,0.8-0.4,0.9c-0.3,0.2-0.7,0.2-1.4,0.2
					c0-0.2-0.2-0.6-0.3-0.9c0.4,0,0.8,0,1,0c0.1,0,0.2,0,0.2-0.2v-2.2l-1.3,0.4l-0.2-0.9c0.4-0.1,0.9-0.2,1.5-0.4v-2.3h-1.3v-0.9
					h1.3v-1.8h0.9v1.8h1.1v0.9h-1.1v2.1l1.1-0.3L54,22.9z M59,18.4v8h-1v-0.8h-2.8v0.9h-0.9v-8H59z M58,24.7v-5.4h-2.8v5.4H58z"/>
			</g>
		</g>
		<polygon id="Path-2" class="st5" points="10.5,116 0.4,139.5 91.2,139.5 100.4,116 		"/>
		<g class="st1">
			<path class="st6" d="M28.8,130.2v1.6h-0.8v-1.6h-1.5v-0.8h1.5v-0.7h-1.2v-3.6H28v-0.7h-1.4v-0.8H28v-1h0.8v1h1.4v0.8h-1.4v0.7H30
				v3.6h-1.2v0.7h1.4v0.8H28.8z M27.4,126.6H28v-0.8h-0.6V126.6z M27.4,128H28v-0.8h-0.6V128z M29.3,125.8h-0.6v0.8h0.6V125.8z
				 M29.3,127.2h-0.6v0.8h0.6V127.2z M33,130.9c0,0.3-0.1,0.5-0.3,0.7c-0.2,0.1-0.5,0.1-1,0.1c0-0.2-0.1-0.5-0.2-0.7
				c0.3,0,0.6,0,0.7,0c0.1,0,0.1,0,0.1-0.1v-1h-1.1c-0.1,0.7-0.2,1.4-0.6,1.9c-0.1-0.1-0.4-0.4-0.6-0.4c0.5-0.9,0.6-2,0.6-2.9v-2.1
				H33V130.9z M33.5,122.8c0,0.1-0.1,0.2-0.2,0.3c0.6,0.9,1.4,1.5,2.4,1.9c-0.2,0.2-0.4,0.4-0.5,0.7c-0.3-0.2-0.6-0.4-0.9-0.6v0.5
				h-2.6v-0.5c-0.3,0.2-0.6,0.5-0.9,0.7c-0.1-0.2-0.4-0.5-0.6-0.7c1.1-0.6,2.1-1.5,2.6-2.6L33.5,122.8z M32.3,129.2v-0.8h-1v0
				c0,0.2,0,0.5,0,0.7H32.3z M31.2,127v0.7h1V127H31.2z M34.1,125c-0.4-0.3-0.8-0.7-1.1-1.2c-0.3,0.5-0.7,0.8-1.1,1.2H34.1z
				 M34.1,130.1h-0.6v-3.6h0.6V130.1z M34.6,126.2h0.7v4.7c0,0.4-0.1,0.6-0.3,0.7c-0.2,0.1-0.6,0.1-1.2,0.1c0-0.2-0.1-0.5-0.2-0.7
				c0.4,0,0.8,0,0.9,0c0.1,0,0.1,0,0.1-0.2V126.2z"/>
			<path class="st6" d="M41.6,123.2c0,1.8,0.2,5.5,4,7.8c-0.2,0.2-0.6,0.6-0.7,0.8c-2.3-1.4-3.3-3.4-3.8-5.2c-0.7,2.4-2,4.2-3.8,5.3
				c-0.2-0.2-0.6-0.6-0.9-0.8c2.1-1.1,3.4-3.1,3.9-5.8l0.5,0.1c-0.1-0.4-0.1-0.8-0.1-1.2h-2.4v-0.9H41.6z"/>
			<path class="st6" d="M49.1,122.9c-0.2,0.6-0.4,1.2-0.7,1.9v7h-0.9v-5.3c-0.2,0.4-0.5,0.8-0.7,1.1c-0.1-0.2-0.3-0.7-0.5-1
				c0.8-1,1.5-2.5,1.9-3.9L49.1,122.9z M54.7,129.4c-0.3,0.5-0.9,1-1.6,1.3c0.7,0.2,1.5,0.3,2.4,0.4c-0.2,0.2-0.4,0.5-0.5,0.7
				c-1.1-0.1-2.1-0.3-2.9-0.6c-0.8,0.3-1.8,0.5-3,0.7c-0.1-0.2-0.3-0.5-0.4-0.7c0.9-0.1,1.7-0.2,2.4-0.4c-0.3-0.2-0.6-0.3-0.8-0.5
				c-0.3,0.2-0.6,0.3-0.9,0.5c-0.1-0.2-0.3-0.4-0.5-0.5c0.3-0.1,0.6-0.3,0.9-0.4c-0.1-0.1-0.2-0.3-0.4-0.4l0.7-0.3
				c0.1,0.1,0.2,0.2,0.3,0.3c0.3-0.2,0.6-0.4,0.8-0.7c-0.3-0.1-0.3-0.3-0.3-0.7v-0.1c-0.2,0.4-0.6,0.8-0.9,1l-0.5-0.4
				c0.4-0.2,0.8-0.6,1-1l0.5,0.3v-0.2h0.7v0.5c0,0.2,0.1,0.2,0.4,0.2H53c0.2,0,0.3-0.1,0.3-0.4c0.1,0.1,0.4,0.1,0.6,0.2
				c-0.1-0.1-0.2-0.2-0.3-0.3l0.5-0.3c0.4,0.3,0.9,0.8,1.1,1.1l-0.5,0.3c-0.2-0.2-0.4-0.6-0.7-0.9c-0.1,0.5-0.3,0.7-0.8,0.7H52
				c-0.1,0.1-0.2,0.2-0.3,0.4H54l0.1,0L54.7,129.4z M55.6,126.7v1.4h-0.8v-0.8h-2.4c0.3,0.2,0.6,0.4,0.7,0.6l-0.5,0.3
				c-0.2-0.2-0.6-0.5-0.9-0.7l0.3-0.2h-2.3v0.8H49v-1.4h0.9v-2.5h1.7c0-0.2,0.1-0.3,0.1-0.4h-2.5V123h6.2v0.7h-2.7l-0.2,0.4h2.2v2.5
				H55.6z M50.7,124.7v0.4h3.1v-0.4H50.7z M53.8,125.5h-3.1v0.4h3.1V125.5z M50.7,126.7h3.1v-0.4h-3.1V126.7z M51,129.8
				c0.3,0.2,0.7,0.4,1.2,0.6c0.5-0.2,0.9-0.5,1.3-0.7L51,129.8L51,129.8z"/>
			<path class="st6" d="M56.5,131c0.4-0.5,0.7-1.2,0.9-1.8l0.8,0.3c-0.2,0.6-0.5,1.4-0.9,1.9L56.5,131z M60.4,123.9h-3.7v-0.7h3.7
				v-0.5h1v0.5h3.8v0.7h-3.8v0.6h3.1v2.8h-1.3c0.8,0.4,1.6,0.9,2,1.4l-0.6,0.5c-0.1-0.2-0.4-0.3-0.6-0.5c-1.1,0-2.3,0-3.4,0.1
				c0.6,0.3,1.2,0.7,1.5,1.1l-0.6,0.5c-0.3-0.4-1-0.9-1.6-1.2l0.5-0.5c-1.4,0-2.8,0-3.8,0l0-0.8c1,0,2.3,0,3.7,0v-0.7h-3.1v-2.8h3.1
				V123.9z M58.3,125.6h2.2V125h-2.2V125.6z M60.4,126.7v-0.6h-2.2v0.6H60.4z M62.2,130.9c0.5,0,0.6-0.1,0.6-0.9
				c0.2,0.1,0.6,0.3,0.8,0.3c-0.1,1.1-0.4,1.4-1.3,1.4h-2.1c-1.2,0-1.6-0.2-1.6-1.1v-1.3h0.9v1.3c0,0.3,0.1,0.3,0.7,0.3H62.2z
				 M61.4,125v0.6h2.2V125H61.4z M63.6,126.2h-2.2v0.6h2.2V126.2z M63,128c-0.2-0.1-0.4-0.2-0.7-0.3l0.5-0.3h-1.4v0.7L63,128z
				 M64.3,129.3c0.5,0.6,0.9,1.4,1.1,1.9l-0.8,0.3c-0.2-0.5-0.6-1.3-1.1-1.9L64.3,129.3z"/>
			<path class="st6" d="M68,130.5v0.8h-0.8v-2.9c-0.1,0.2-0.2,0.4-0.4,0.6c-0.1-0.2-0.4-0.7-0.5-0.9c0.7-1,1.1-2.6,1.3-4.3h-1.1V123
				h3.7v0.8h-1.7c-0.1,0.8-0.3,1.5-0.5,2.3h1.8v4.4H68z M69,127H68v2.8H69V127z M69.7,131c0.4-0.5,0.6-1.3,0.7-2.2l0.7,0.2
				c-0.1,0.9-0.3,1.8-0.7,2.3L69.7,131z M75.4,127.6c0,0,0,0.2,0,0.4c-0.1,2.3-0.2,3.2-0.5,3.5c-0.2,0.2-0.4,0.3-0.6,0.3
				c-0.2,0-0.6,0-1.1,0c0-0.2-0.1-0.6-0.2-0.8c0.4,0,0.8,0,0.9,0c0.1,0,0.2,0,0.3-0.1c0.1-0.1,0.2-0.4,0.2-1l-0.4,0.2
				c-0.1-0.3-0.4-0.8-0.6-1.2l0.5-0.2c0.2,0.3,0.5,0.7,0.6,1c0-0.3,0.1-0.8,0.1-1.3h-4V123h4.7v0.8h-1.8v0.7H75v0.7h-1.6v0.8H75v0.7
				h-1.6v0.8H75.4z M72,129.1c0.1,0.6,0.2,1.3,0.2,1.8l-0.7,0.1c0-0.5,0-1.2-0.1-1.8L72,129.1z M71.4,123.8v0.7h1.2v-0.7H71.4z
				 M72.6,125.3h-1.2v0.8h1.2V125.3z M71.4,127.6h1.2v-0.8h-1.2V127.6z M73,128.9c0.2,0.5,0.4,1.1,0.4,1.5l-0.6,0.2
				c-0.1-0.4-0.2-1-0.4-1.5L73,128.9z"/>
		</g>
		
			<g transform="translate(50.500000, 40.500000) rotate(-270.000000) translate(-50.500000, -40.500000) translate(40.500000, 37.500000)">
			<g id="arrow-1.2">
				<path id="Line" class="st7" d="M0,3h19"/>
				<polygon id="Triangle" class="st8" points="17,5.5 17,0.5 20,3 				"/>
			</g>
		</g>
		
			<g transform="translate(51.000000, 105.000000) rotate(-270.000000) translate(-51.000000, -105.000000) translate(41.000000, 102.000000)">
			<g>
				<path class="st7" d="M0,3h19"/>
				<polygon class="st8" points="17,5.5 17,0.5 20,3 				"/>
			</g>
		</g>
		
			<g transform="translate(52.500000, 259.000000) rotate(-270.000000) translate(-52.500000, -259.000000) translate(26.500000, 255.500000)">
			<g transform="translate(0.500000, 0.500000)">
				<path class="st7" d="M0,3h49.9"/>
				<polygon class="st8" points="48,5.5 48,0.5 51,3 				"/>
			</g>
		</g>
		<path class="st7" d="M51.4,140.5v13"/>
		<g id="question" transform="translate(9.000000, 151.000000)">
			<path class="st3" d="M4.8,39.5L39.5,4.8c2-2,5.1-2,7.1,0l34.6,34.6c2,2,2,5.1,0,7.1L46.5,81.2c-2,2-5.1,2-7.1,0L4.8,46.5
				C2.9,44.6,2.9,41.4,4.8,39.5z"/>
			<g class="st1">
				<path class="st2" d="M19.5,44.2v-0.9h8.9v0.9h-3.9v0.9h2.8v0.8h-2.8V47c0.5,0,1,0.1,1.6,0.1c0.9,0,1.6,0,2.2,0l-0.3,0.9
					c-0.7,0-1.3,0-1.9,0c-1.7,0-2.8-0.1-3.4-0.4c-0.5-0.2-0.9-0.6-1.3-1.2c-0.4,0.7-0.9,1.3-1.4,1.7l-0.6-0.8
					c0.9-0.7,1.5-1.7,1.8-2.8l0.9,0.2c-0.1,0.4-0.2,0.7-0.3,1c0.4,0.6,0.8,1,1.3,1.2c0.1,0,0.2,0.1,0.4,0.1v-2.7H19.5z M27.1,39.1
					v3.6h-6.2v-3.6H27.1z M26.2,40.5v-0.6h-4.3v0.6H26.2z M26.2,41.3h-4.3v0.6h4.3V41.3z"/>
				<path class="st2" d="M38.1,39.2v0.9h-3.2c-0.1,0.2-0.3,0.4-0.4,0.6v0c1.3,0.6,2.7,1.2,4,2L38,43.5c-1.4-0.8-2.6-1.4-3.5-1.9v2.5
					h2.9V48h-1v-0.4h-4.8V48h-1v-3.8h2.9v-2.6c-0.9,0.7-2.1,1.4-3.6,2l-0.6-0.8c2.1-0.8,3.6-1.6,4.5-2.7h-3.9v-0.9H38.1z M36.4,46.6
					v-1.5h-4.8v1.5H36.4z"/>
				<path class="st2" d="M42.6,45.9V48h-0.9v-5c-0.5,0.6-1.1,1.2-1.7,1.7l-0.6-0.8c1.2-0.9,2.1-2,2.7-3.2h-2.5v-0.9h2.9
					c0.1-0.4,0.3-0.7,0.4-1.1l1,0.1c-0.1,0.3-0.2,0.7-0.3,1h4.8v0.9h-5.2c-0.2,0.3-0.3,0.6-0.5,1h4.6v5.4c0,0.5-0.3,0.8-1,0.8h-1.1
					l-0.2-0.9c0.4,0,0.7,0,1,0c0.2,0,0.4-0.1,0.4-0.3v-0.9H42.6z M42.6,43.4h3.7v-0.9h-3.7V43.4z M42.6,44.2v0.9h3.7v-0.9H42.6z"/>
				<path class="st2" d="M51.5,41.4c-0.4,0.9-1,1.7-1.6,2.4l-0.7-0.5c0.6-0.6,1.1-1.4,1.5-2.3L51.5,41.4z M52,44.4
					c0.2-0.4,0.4-0.9,0.6-1.4l0.8,0.3c-0.2,0.6-0.4,1.2-0.7,1.7c0.4,0.4,0.7,0.8,1.1,1.2l-0.6,0.7c-0.3-0.4-0.6-0.7-0.9-1.1
					c-0.6,0.9-1.4,1.6-2.3,2.1l-0.6-0.8c0.9-0.5,1.6-1.1,2.2-2c-0.4-0.4-0.8-0.8-1.2-1.1l0.6-0.7C51.3,43.7,51.6,44,52,44.4z
					 M52.3,39.8h1.9v0.9h-4.7v-0.9h1.9c-0.1-0.3-0.3-0.6-0.5-0.9l1-0.2C52.1,39.1,52.2,39.4,52.3,39.8z M52,41.5l0.6-0.5
					c0.4,0.3,0.8,0.8,1.4,1.4L53.4,43C53,42.4,52.5,41.9,52,41.5z M54.6,43.4c-0.1,0.2-0.3,0.4-0.4,0.6l-0.6-0.7
					c0.8-1.1,1.3-2.6,1.6-4.5l0.9,0.2c-0.1,0.5-0.2,1-0.3,1.4h2.7v0.9h-0.7c-0.1,1.6-0.4,3-1.1,4.1c0.6,0.7,1.2,1.3,2,1.9L58,48
					c-0.7-0.5-1.4-1.2-1.9-1.8c-0.6,0.7-1.4,1.3-2.3,1.8l-0.5-0.9c0.9-0.5,1.7-1,2.3-1.7C55.1,44.8,54.8,44.1,54.6,43.4z M54.8,43
					l0.4-0.2c0.2,0.6,0.5,1.2,0.9,1.8c0.5-0.9,0.8-2,0.9-3.3h-1.4C55.4,41.9,55.1,42.5,54.8,43z"/>
				<path class="st2" d="M65.7,40.3c0.4,0.3,0.6,0.8,0.6,1.4c0,0.5-0.1,0.9-0.4,1.2c-0.1,0.1-0.4,0.4-0.8,0.8
					c-0.2,0.2-0.3,0.3-0.4,0.5c-0.1,0.2-0.2,0.4-0.2,0.7V45h-1.1v-0.2c0-0.4,0.1-0.7,0.2-1c0.1-0.3,0.4-0.5,0.7-0.8
					c0.3-0.3,0.5-0.5,0.6-0.6c0.2-0.2,0.3-0.5,0.3-0.7c0-0.3-0.1-0.6-0.3-0.8c-0.2-0.2-0.5-0.3-0.8-0.3c-0.4,0-0.8,0.1-1,0.4
					c-0.2,0.2-0.3,0.6-0.3,1h-1.1c0-0.7,0.2-1.3,0.6-1.7c0.4-0.4,1-0.6,1.7-0.6C64.8,39.7,65.3,39.9,65.7,40.3z M64.5,45.8
					c0.1,0.1,0.2,0.3,0.2,0.5s-0.1,0.4-0.2,0.5C64.4,46.9,64.2,47,64,47c-0.2,0-0.4-0.1-0.5-0.2c-0.1-0.1-0.2-0.3-0.2-0.5
					c0-0.2,0.1-0.4,0.2-0.5c0.1-0.1,0.3-0.2,0.5-0.2C64.2,45.6,64.4,45.6,64.5,45.8z"/>
			</g>
		</g>
		<g id="success" transform="translate(37.000000, 247.000000)">
			<path class="st9" d="M10,0h10c5.5,0,10,4.5,10,10l0,0c0,5.5-4.5,10-10,10H10C4.5,20,0,15.5,0,10l0,0C0,4.5,4.5,0,10,0z"/>
			<g class="st1">
				<path class="st10" d="M15.6,13.7c0.3,0,0.7,0,1,0c0.4,0,2.4,0,3,0c-0.1,0.2-0.3,0.6-0.3,0.9h-2.8c-1.9,0-3.2-0.3-4-1.5
					c-0.4,0.7-0.9,1.3-1.5,1.7c-0.1-0.2-0.5-0.5-0.7-0.7c1-0.7,1.6-1.8,1.9-3.1l0.9,0.1c-0.1,0.3-0.1,0.6-0.2,0.9
					c0.4,0.8,0.9,1.2,1.7,1.5v-2.8h-4V9.9h8.8v0.8h-3.8v0.9h3.2v0.8h-3.2V13.7z M18.3,9.3h-6.7V6h6.7V9.3z M17.4,6.7h-4.9v0.7h4.9
					V6.7z M17.4,8h-4.9v0.7h4.9V8z"/>
			</g>
		</g>
		
			<g transform="translate(128.500000, 161.000000) rotate(-180.000000) translate(-128.500000, -161.000000) translate(92.000000, 128.000000)">
			<g id="arrow-8.2">
				<path id="Path-6" class="st11" d="M73,0H10C4.5,0,0,4.5,0,10v43c0,5.5,4.5,10,10,10h58.5"/>
				<polygon id="Triangle-2-Copy-4" class="st8" points="67,66 67,60 70,63 				"/>
			</g>
		</g>
		<g transform="translate(106.000000, 184.000000)">
			<path class="st12" d="M10,0h10c5.5,0,10,4.5,10,10l0,0c0,5.5-4.5,10-10,10H10C4.5,20,0,15.5,0,10l0,0C0,4.5,4.5,0,10,0z"/>
			<g class="st1">
				<path class="st10" d="M14.5,8.5c-1.1,0.8-2.3,1.4-3.5,1.9c-0.2-0.2-0.5-0.6-0.7-0.8C12,9,13.8,8.2,14.9,7h-4.2V6.1h8.6V7h-3.2
					c-0.2,0.3-0.5,0.5-0.7,0.7v2.9h-0.9V8.5z M11.7,11h6.6v3.8h-1v-0.4h-4.6v0.4h-1V11z M12.7,11.8v1.7h4.6v-1.7H12.7z M16.5,7.9
					c1.1,0.5,2.4,1.2,3.1,1.7l-0.7,0.7c-0.7-0.6-2-1.3-3.1-1.8L16.5,7.9z"/>
			</g>
		</g>
		<path class="st13" d="M139.6,141h50.9c0.9,0,1.2,0.1,1.5,0.3c0.3,0.2,0.6,0.4,0.8,0.8c0.2,0.3,0.3,0.6,0.3,1.5v35.9
			c0,0.9-0.1,1.2-0.3,1.5c-0.2,0.3-0.4,0.6-0.8,0.8c-0.3,0.2-0.6,0.3-1.5,0.3h-50.9c-0.9,0-1.2-0.1-1.5-0.3
			c-0.3-0.2-0.6-0.4-0.8-0.8c-0.2-0.3-0.3-0.6-0.3-1.5v-35.9c0-0.9,0.1-1.2,0.3-1.5c0.2-0.3,0.4-0.6,0.8-0.8
			C138.3,141.1,138.7,141,139.6,141z"/>
		<g class="st1">
			<g>
				<path d="M147.3,156.9c0.2-0.5,0.3-1.4,0.4-1.9l0.5,0.1c-0.1,0.6-0.2,1.5-0.4,2L147.3,156.9z M150.8,154.2
					c-0.1,2.2-0.1,3-0.3,3.2c-0.1,0.2-0.3,0.2-0.5,0.3c-0.2,0-0.4,0-0.7,0c0-0.2-0.1-0.5-0.2-0.6c0.3,0,0.5,0,0.6,0
					c0.1,0,0.2,0,0.2-0.1c0.1-0.1,0.1-0.4,0.2-1l-0.3,0.1c-0.1-0.3-0.3-0.8-0.4-1.2l0.3-0.1c0.2,0.4,0.4,0.8,0.5,1.1
					c0-0.3,0-0.8,0.1-1.4h-2.4v-4.8h3v0.7h-1v0.7h0.9v0.3c1-0.6,1.9-1.4,2.3-2.2l0.8,0.2c-0.1,0.1-0.1,0.2-0.2,0.3
					c0.5,0.5,1.4,1.1,2.1,1.4c-0.1,0.2-0.3,0.5-0.3,0.7c-0.3-0.1-0.5-0.3-0.8-0.5v0.5h-2.7v-0.4c-0.2,0.2-0.5,0.3-0.7,0.5
					c-0.1-0.1-0.3-0.4-0.5-0.5v0.3h-0.9v0.7h0.9v0.6h-0.9v0.7h1.1V154.2z M148.7,155.1c0.1,0.5,0.1,1.2,0.1,1.6l-0.4,0
					c0-0.4,0-1.1-0.1-1.6L148.7,155.1z M148.4,150.5v0.7h0.7v-0.7H148.4z M149.1,151.9h-0.7v0.7h0.7V151.9z M148.4,153.9h0.7v-0.7
					h-0.7V153.9z M149.2,155c0.1,0.5,0.3,1.1,0.3,1.4l-0.4,0.1c-0.1-0.4-0.2-1-0.3-1.5L149.2,155z M152.5,155.2
					c-0.1,0.3-0.1,0.5-0.2,0.7c0.4,0.2,0.7,0.5,0.9,0.7l-0.4,0.5c-0.2-0.2-0.5-0.4-0.7-0.6c-0.2,0.5-0.5,0.9-0.8,1.2
					c-0.1-0.1-0.4-0.4-0.6-0.5c0.6-0.5,1-1.3,1.1-2.2L152.5,155.2z M151.2,152.7h1.8v2.1h-1.8V152.7z M151.7,154.2h0.7v-1h-0.7
					V154.2z M154.3,151.4c-0.4-0.3-0.8-0.7-1.2-1c-0.3,0.4-0.7,0.7-1,1H154.3z M154.7,155.1c-0.1,0.4-0.2,0.7-0.3,1
					c0.4,0.3,0.9,0.6,1.1,0.9l-0.5,0.6c-0.2-0.2-0.5-0.5-0.9-0.8c-0.2,0.4-0.4,0.7-0.7,0.9c-0.1-0.1-0.4-0.4-0.6-0.5
					c0.6-0.5,0.9-1.3,1.1-2.2L154.7,155.1z M153.4,152.7h1.9v2.1h-1.9V152.7z M153.9,154.2h0.7v-1h-0.7V154.2z"/>
				<path d="M159.9,151.6h-3V151h1.5c-0.1-0.3-0.4-0.8-0.7-1.2l0.6-0.4c0.3,0.4,0.5,0.8,0.7,1.2l-0.6,0.4h1.5V151.6z M159.7,157.2
					h-1.8v0.4h-0.7v-3h2.5V157.2z M159.6,152.8h-2.4v-0.7h2.4V152.8z M157.2,153.3h2.4v0.6h-2.4V153.3z M157.9,155.2v1.3h1.2v-1.3
					H157.9z M161.4,152.3c-0.3,0.4-0.7,0.8-1.1,1.1c-0.1-0.2-0.4-0.4-0.5-0.6c0.4-0.2,0.7-0.5,1-0.9c-0.2-0.2-0.5-0.4-0.8-0.6
					l0.5-0.5c0.2,0.1,0.5,0.3,0.7,0.5c0.1-0.2,0.2-0.5,0.3-0.8h-1.2v-0.7h1.5l0.1,0l0.5,0.2c-0.2,0.8-0.4,1.5-0.8,2.1h1.9
					c-0.4-0.7-0.7-1.5-0.9-2.3l0.7-0.1c0.1,0.2,0.1,0.5,0.2,0.7c0.2-0.2,0.4-0.4,0.6-0.6l0.5,0.5c-0.3,0.2-0.6,0.5-0.9,0.7
					c0.1,0.2,0.2,0.3,0.2,0.5c0.3-0.2,0.5-0.4,0.7-0.5l0.5,0.5c-0.3,0.2-0.6,0.4-0.9,0.6c0.3,0.4,0.6,0.7,1,0.9
					c-0.2,0.1-0.4,0.4-0.6,0.6c-0.4-0.3-0.8-0.6-1.1-1.1v0.4h-2.3V152.3z M164.1,155.6c-0.2,0.4-0.5,0.9-0.7,1.3h1.6v0.7H160v-0.7
					h1.5c-0.1-0.3-0.3-0.8-0.5-1.2l0.7-0.2c0.2,0.4,0.5,0.9,0.5,1.2l-0.6,0.2h1.1c0.2-0.4,0.5-1,0.6-1.5L164.1,155.6z M160.7,153.1
					h3.6v2.2h-3.6V153.1z M161.4,154.7h2.1v-0.9h-2.1V154.7z"/>
				<path d="M171.2,154.3c0.6,1.4,1.8,2.3,3.5,2.7c-0.2,0.2-0.4,0.5-0.5,0.8c-1.8-0.5-2.9-1.5-3.7-3c-0.5,1.2-1.5,2.3-3.6,3
					c-0.1-0.2-0.3-0.6-0.5-0.7c2-0.7,3-1.6,3.4-2.7h-3.2v-0.8h3.4c0.1-0.4,0.1-0.8,0.1-1.2v-0.4h-1.9c-0.3,0.5-0.5,0.9-0.8,1.3
					c-0.2-0.1-0.6-0.3-0.8-0.4c0.7-0.7,1.2-1.9,1.5-3.1l0.9,0.2c-0.1,0.4-0.3,0.8-0.4,1.2h1.5v-1.5h0.9v1.5h2.9v0.8h-2.9v0.4
					c0,0.4,0,0.8-0.1,1.2h3.7v0.8H171.2z"/>
				<path d="M177.7,155.7c-0.3,0.8-0.8,1.5-1.2,2c-0.2-0.1-0.5-0.4-0.7-0.5c0.5-0.4,0.9-1.1,1.1-1.7L177.7,155.7z M183.5,151.9
					c-0.2,1.4-0.6,2.5-1.1,3.5c0.5,0.7,1.1,1.3,1.9,1.6c-0.2,0.2-0.5,0.5-0.6,0.7c-0.7-0.4-1.3-0.9-1.8-1.6c-0.5,0.7-1.2,1.2-2,1.6
					c-0.1-0.2-0.3-0.5-0.4-0.7l-0.4,0.2c-0.2-0.4-0.5-1-0.9-1.4l0.7-0.3c0.3,0.4,0.7,0.9,0.9,1.3c0.7-0.4,1.2-0.9,1.6-1.4
					c-0.4-0.7-0.6-1.5-0.9-2.3c-0.2,0.3-0.4,0.6-0.5,0.8c-0.1-0.1-0.2-0.2-0.4-0.3v1.9h-3.2v-5.6h3.2v3.1c0.6-0.9,1-2.1,1.3-3.4
					l0.9,0.1c-0.1,0.5-0.2,1-0.4,1.5h2.8v0.8H183.5z M178.7,150.5h-1.6v1h1.6V150.5z M178.7,152.1h-1.6v1h1.6V152.1z M178.7,153.7
					h-1.6v1h1.6V153.7z M181,151.9c0.2,1,0.5,1.8,0.8,2.6c0.4-0.7,0.6-1.6,0.7-2.6H181z"/>
			</g>
		</g>
		<g class="st1">
			<g>
				<path d="M155.5,170.8v0.7h-8v-0.7h3.5v-0.6h-2.9v-0.7h2.9V169h-2.6v-2.8h2.6v-0.5h-3.5V165h3.5v-0.5c-0.9,0.1-1.8,0.1-2.7,0.1
					c0-0.2-0.1-0.5-0.2-0.7c2.1-0.1,4.5-0.2,6-0.5l0.4,0.7c-0.8,0.1-1.7,0.2-2.8,0.3v0.6h3.6v0.7h-3.6v0.5h2.7v2.8h-2.7v0.5h3.1v0.7
					h-3.1v0.6H155.5z M149.3,167.3h1.8v-0.6h-1.8V167.3z M151,168.4v-0.5h-1.8v0.5H151z M151.9,166.7v0.6h1.9v-0.6H151.9z
					 M153.8,167.8h-1.9v0.5h1.9V167.8z"/>
				<path d="M158.3,169.2c-0.2,0.6-0.6,1.4-0.9,1.8c-0.1-0.1-0.4-0.3-0.6-0.4c0.3-0.4,0.6-1,0.8-1.6L158.3,169.2z M159.5,168.6v3.1
					h-0.8v-3.1H157v-0.7h1.7v-0.8h-1.8v-0.7h1c0-0.3-0.2-0.8-0.3-1.1l0.7-0.2c0.1,0.4,0.3,0.8,0.3,1.1l-0.7,0.2h1.4
					c0.2-0.4,0.4-0.9,0.4-1.3l0.8,0.2c-0.2,0.4-0.3,0.8-0.5,1.1h1.1v0.7h-1.7v0.8h1.5v0.7H159.5z M161,165.1h-4v-0.7h1.6
					c-0.1-0.3-0.2-0.5-0.3-0.8l0.8-0.2c0.2,0.3,0.3,0.7,0.5,1h1.4V165.1z M160.4,168.9c0.3,0.4,0.6,1,0.7,1.4l-0.6,0.4
					c-0.1-0.4-0.5-1-0.7-1.4L160.4,168.9z M165.1,167.2h-0.9v4.5h-0.8v-4.5h-1.1v0.2c0,1.3-0.1,3.1-0.9,4.2
					c-0.1-0.2-0.5-0.4-0.6-0.5c0.7-1,0.8-2.6,0.8-3.7v-3.1c1-0.2,2.1-0.4,2.8-0.7l0.7,0.6c-0.7,0.3-1.7,0.5-2.6,0.7v1.6h2.8V167.2z"
					/>
				<path d="M168.5,170.3v1.4h-0.8v-1.4h-1.4v-0.7h1.4v-0.6h-1.1v-3.2h1.1v-0.6h-1.3v-0.7h1.3v-0.9h0.7v0.9h1.3v0.7h-1.3v0.6h1.1
					v3.2h-1.1v0.6h1.3v0.7H168.5z M167.3,167h0.6v-0.7h-0.6V167z M167.3,168.3h0.6v-0.7h-0.6V168.3z M169,166.3h-0.5v0.7h0.5V166.3z
					 M169,167.6h-0.5v0.7h0.5V167.6z M172.3,170.9c0,0.3-0.1,0.5-0.3,0.6c-0.2,0.1-0.5,0.1-0.9,0.1c0-0.2-0.1-0.5-0.2-0.6
					c0.3,0,0.5,0,0.6,0c0.1,0,0.1,0,0.1-0.1V170h-1c-0.1,0.6-0.2,1.3-0.5,1.7c-0.1-0.1-0.4-0.3-0.5-0.4c0.5-0.8,0.5-1.8,0.5-2.6
					v-1.9h2.2V170.9z M172.7,163.6c0,0.1-0.1,0.2-0.1,0.3c0.6,0.8,1.3,1.3,2.1,1.8c-0.2,0.2-0.4,0.4-0.5,0.6
					c-0.3-0.2-0.6-0.4-0.8-0.6v0.5h-2.3v-0.5c-0.3,0.2-0.5,0.4-0.8,0.6c-0.1-0.2-0.3-0.4-0.5-0.6c1-0.5,1.9-1.4,2.4-2.4L172.7,163.6
					z M171.6,169.4v-0.7h-0.9v0c0,0.2,0,0.4,0,0.6H171.6z M170.7,167.4v0.7h0.9v-0.7H170.7z M173.2,165.6c-0.4-0.3-0.7-0.7-1-1.1
					c-0.3,0.4-0.6,0.8-1,1.1H173.2z M173.3,170.2h-0.6V167h0.6V170.2z M173.7,166.6h0.6v4.2c0,0.3-0.1,0.5-0.3,0.6
					c-0.2,0.1-0.6,0.1-1.1,0.1c0-0.2-0.1-0.4-0.2-0.6c0.4,0,0.7,0,0.9,0c0.1,0,0.1,0,0.1-0.1V166.6z"/>
			</g>
		</g>
		<g class="st1">
			<g>
				<path d="M180.6,164c0,1.6,0.2,5,3.6,7c-0.2,0.1-0.5,0.5-0.7,0.7c-2-1.2-3-3.1-3.4-4.7c-0.7,2.2-1.8,3.7-3.5,4.7
					c-0.2-0.2-0.5-0.5-0.8-0.7c1.9-1,3-2.8,3.5-5.2l0.5,0.1c-0.1-0.4-0.1-0.7-0.1-1.1h-2.1V164H180.6z"/>
			</g>
		</g>
		<g id="note" transform="translate(104.000000, 209.000000)">
			<path id="Rectangle-5" class="st14" d="M7,6h78c3.9,0,7,3.1,7,7v62c0,3.9-3.1,7-7,7H7c-3.9,0-7-3.1-7-7V13C0,9.1,3.1,6,7,6z"/>
			<polygon id="Rectangle-6" class="st14" points="18.4,0 29.8,11.3 17.3,23.8 6,12.4 			"/>
			<g class="st1">
				<path class="st15" d="M24.5,25.3v1.4h-0.8v-1.4h-1.4v-0.7h1.4v-0.6h-1.1v-3.2h1.1v-0.6h-1.3v-0.7h1.3v-0.9h0.7v0.9h1.3v0.7h-1.3
					v0.6h1.1v3.2h-1.1v0.6h1.3v0.7H24.5z M23.3,22h0.6v-0.7h-0.6V22z M23.3,23.3h0.6v-0.7h-0.6V23.3z M25,21.3h-0.5V22H25V21.3z
					 M25,22.6h-0.5v0.7H25V22.6z M28.3,25.9c0,0.3-0.1,0.5-0.3,0.6c-0.2,0.1-0.5,0.1-0.9,0.1c0-0.2-0.1-0.5-0.2-0.6
					c0.3,0,0.5,0,0.6,0c0.1,0,0.1,0,0.1-0.1V25h-1c-0.1,0.6-0.2,1.3-0.5,1.7c-0.1-0.1-0.4-0.3-0.5-0.4c0.5-0.8,0.5-1.8,0.5-2.6v-1.9
					h2.2V25.9z M28.7,18.6c0,0.1-0.1,0.2-0.1,0.3c0.6,0.8,1.3,1.3,2.1,1.8c-0.2,0.2-0.4,0.4-0.5,0.6c-0.3-0.2-0.6-0.4-0.8-0.6v0.5
					h-2.3v-0.5c-0.3,0.2-0.5,0.4-0.8,0.6c-0.1-0.2-0.3-0.4-0.5-0.6c1-0.5,1.9-1.4,2.4-2.4L28.7,18.6z M27.6,24.4v-0.7h-0.9v0
					c0,0.2,0,0.4,0,0.6H27.6z M26.7,22.4v0.7h0.9v-0.7H26.7z M29.3,20.6c-0.4-0.3-0.7-0.7-1-1.1c-0.3,0.4-0.6,0.8-1,1.1H29.3z
					 M29.3,25.2h-0.6V22h0.6V25.2z M29.7,21.6h0.6v4.2c0,0.3-0.1,0.5-0.3,0.6c-0.2,0.1-0.6,0.1-1.1,0.1c0-0.2-0.1-0.4-0.2-0.6
					c0.4,0,0.7,0,0.9,0c0.1,0,0.1,0,0.1-0.1V21.6z"/>
				<path class="st15" d="M36.1,19c0,1.6,0.2,5,3.6,7c-0.2,0.1-0.5,0.5-0.7,0.7c-2-1.2-3-3.1-3.4-4.7c-0.7,2.2-1.8,3.7-3.5,4.7
					c-0.2-0.2-0.5-0.5-0.8-0.7c1.9-1,3-2.8,3.5-5.2l0.5,0.1c-0.1-0.4-0.1-0.7-0.1-1.1h-2.1V19H36.1z"/>
				<path class="st15" d="M48.4,24h-3.4v1.7c0,0.5-0.1,0.7-0.5,0.8c-0.4,0.1-0.9,0.1-1.6,0.1c-0.1-0.2-0.2-0.6-0.4-0.8
					c0.6,0,1.2,0,1.4,0c0.2,0,0.2,0,0.2-0.2V24h-3.4v-0.8h3.4v-0.5c0.5-0.2,1-0.6,1.4-0.9h-3.3V21h4.1l0.2,0l0.6,0.4
					c-0.5,0.6-1.3,1.1-2.1,1.6v0.2h3.4V24z M41.5,21.3h-0.8v-1.9h3.4c-0.1-0.2-0.3-0.5-0.4-0.7l0.8-0.3c0.2,0.3,0.5,0.7,0.6,1h3.1
					v1.9h-0.9v-1.1h-5.9V21.3z"/>
				<path class="st15" d="M56.4,25.8c0.3,0,0.4-0.2,0.4-1.6c0.2,0.2,0.6,0.3,0.8,0.4c-0.1,1.6-0.3,2-1.1,2h-1.2
					c-0.9,0-1.1-0.3-1.1-1.2v-3h-1.5c-0.2,1.9-0.6,3.5-2.7,4.3c-0.1-0.2-0.3-0.5-0.5-0.7c1.9-0.7,2.2-2,2.3-3.6h-2.2v-0.8h7.9v0.8
					H55v3c0,0.3,0.1,0.4,0.4,0.4H56.4z M56.7,19.9h-6.3v-0.8h6.3V19.9z"/>
				<path class="st15" d="M60.5,25.3c0.4-0.1,0.8-0.2,1.2-0.2l0,0.7c-1.1,0.3-2.2,0.5-3.1,0.7l-0.2-0.7c0.4-0.1,0.9-0.2,1.4-0.3V23
					h-1.3v-0.7h1.3v-0.9h-0.8V21c-0.1,0.1-0.3,0.3-0.4,0.4c0-0.2-0.2-0.6-0.3-0.8c0.7-0.5,1.4-1.3,1.8-2.2l0.6,0.3
					c-0.1,0.1-0.1,0.2-0.2,0.4c0.5,0.3,1.1,0.8,1.4,1.1l-0.4,0.7c-0.4-0.4-0.9-0.8-1.4-1.2c-0.2,0.4-0.5,0.7-0.8,1.1h2.1v0.7h-0.9
					v0.9h1.2V23h-1.2V25.3z M59.2,23.4c0.1,0.5,0.3,1.2,0.3,1.6L59,25.1c0-0.4-0.2-1.1-0.3-1.6L59.2,23.4z M60.7,24.9
					c0.1-0.4,0.3-1.1,0.4-1.6l0.6,0.2c-0.2,0.5-0.3,1.2-0.5,1.6L60.7,24.9z M66.6,21.3v0.7h-4.7v-0.7h1v-1h-0.8v-0.7h0.8v-1.1h0.7
					v1.1h1.2v-1.1h0.7v1.1h0.8v0.7h-0.8v1H66.6z M62.4,22.7h3.7v4h-0.8v-0.4h-2.1v0.4h-0.7V22.7z M63.2,23.4v0.8h2.1v-0.8H63.2z
					 M65.3,25.7v-0.8h-2.1v0.8H65.3z M63.6,21.3h1.2v-1h-1.2V21.3z"/>
				<path class="st15" d="M70.6,20.6h-3.2v-0.7h1.5c-0.1-0.3-0.3-0.8-0.5-1.2l0.7-0.3c0.2,0.4,0.5,0.9,0.6,1.2L69,19.9h1.6V20.6z
					 M73.2,24.4c-0.2,0.9-0.8,1.7-2.4,2.3c-0.1-0.2-0.3-0.5-0.5-0.6v0.1h-1.9v0.4h-0.7v-3h2.6v2.5c1.3-0.5,1.9-1.1,2.1-1.7h-1.9
					v-0.8h2c0-0.1,0-0.2,0-0.2v-0.8h-1.6v-3.4h0.7v2.7h3.5v1.8h0.5v0.8H73.2z M70.3,21.8h-2.6v-0.7h2.6V21.8z M67.7,22.4h2.6V23
					h-2.6V22.4z M69.6,24.2h-1.2v1.3h1.2V24.2z M74.9,21.4h-2.9v-2.7h2.9V21.4z M74.1,19.4h-1.4v1.3h1.4V19.4z M73.5,24.7
					c0.7,0.4,1.7,1,2.2,1.4l-0.5,0.6c-0.5-0.4-1.5-1-2.2-1.5L73.5,24.7z M73.3,23.4c0,0.1,0,0.2,0,0.2h1.1v-1.1h-1.1V23.4z"/>
			</g>
			<g class="st1">
				<path class="st15" d="M28.5,39.6c1,0,1.1-0.3,1.2-1.7c0.2,0.1,0.6,0.3,0.9,0.3c-0.2,1.7-0.5,2.2-2.1,2.2h-3.2
					c-1.6,0-2-0.3-2-1.5v-4.3h0.9V36h4.4v-2.2h-5.7V33h6.6v4.2h-0.9v-0.4h-4.4V39c0,0.6,0.2,0.7,1.2,0.7H28.5z"/>
				<path class="st15" d="M34,38.4c-0.1-0.3-0.5-0.7-0.7-1.1v3.5h-0.8v-3.3c-0.3,0.4-0.6,0.7-0.9,0.9c-0.1-0.2-0.3-0.6-0.4-0.8
					c0.8-0.6,1.6-1.7,2.1-2.8h-1.9V34h1.5c-0.1-0.3-0.4-0.8-0.7-1.2l0.6-0.3c0.3,0.4,0.6,0.9,0.7,1.2L33,34h0.7l0.1,0l0.4,0.3
					c-0.2,0.7-0.6,1.4-1,2v0.1c0.1,0.1,0.1,0.1,0.2,0.2c0.2-0.3,0.5-0.6,0.7-0.9l0.5,0.5c-0.3,0.3-0.6,0.6-0.8,0.8
					c0.3,0.3,0.5,0.6,0.6,0.8L34,38.4z M39.2,36.1c-0.3,1.2-0.8,2.1-1.4,2.9c0.5,0.4,1.1,0.8,1.9,1c-0.2,0.2-0.4,0.5-0.5,0.7
					c-0.7-0.3-1.4-0.6-1.9-1.1c-0.5,0.5-1.2,0.9-1.9,1.2c-0.1-0.2-0.3-0.5-0.4-0.7c0.7-0.2,1.3-0.6,1.8-1c-0.5-0.6-0.9-1.4-1.2-2.3
					c-0.1,1.3-0.3,2.9-1.2,3.9c-0.1-0.2-0.4-0.4-0.6-0.5c1-1.1,1.1-2.8,1.1-4v-2.4h1.9v-1.3h0.8v1.3h1.4l0.1,0l0.6,0.1
					c-0.2,0.6-0.4,1.4-0.6,1.9l-0.7-0.2c0.1-0.3,0.2-0.6,0.3-1h-1.1v1.4h1.1l0.2,0L39.2,36.1z M35.6,34.5v1.4h1.1v-1.4H35.6z
					 M36.3,36.7c0.2,0.7,0.6,1.3,1,1.8c0.4-0.5,0.8-1.1,1-1.8H36.3z"/>
				<path class="st15" d="M43.2,32.7c-0.3,0.6-0.5,1.2-0.9,1.8v6.3h-0.8v-5.1c-0.3,0.4-0.6,0.7-0.9,1c-0.1-0.2-0.3-0.6-0.5-0.8
					c0.9-0.8,1.7-2.1,2.2-3.5L43.2,32.7z M46.1,37.5c-0.1,0.6-0.2,1.2-0.5,1.6c0.9,0.5,2,0.7,3.2,0.9c-0.2,0.2-0.4,0.5-0.5,0.8
					c-1.2-0.2-2.3-0.5-3.2-1c-0.5,0.4-1.1,0.8-1.9,1c-0.1-0.2-0.3-0.5-0.5-0.7c0.8-0.2,1.4-0.5,1.8-0.8c-0.5-0.4-0.9-0.9-1.2-1.4
					l0.7-0.2c0.3,0.4,0.6,0.8,1,1.1c0.2-0.4,0.4-0.8,0.4-1.2h-2.1v-2.5h2.1v-0.8H43v-0.8h2.4v-0.9h0.8v0.9h2.5v0.8h-2.5v0.8h2.2v2.5
					H46.1z M45.3,36.8v-0.3v-0.9h-1.4v1.1H45.3z M46.1,35.6v0.9c0,0.1,0,0.2,0,0.3h1.4v-1.1H46.1z"/>
				<path class="st15" d="M57,39.7c0,0.5-0.1,0.7-0.4,0.9c-0.3,0.1-0.9,0.2-1.7,0.1c0-0.2-0.2-0.6-0.3-0.8c0.6,0,1.2,0,1.3,0
					c0.2,0,0.2-0.1,0.2-0.2V38H54v2.6h-0.8V38h-2.1c-0.1,1-0.5,2-1.1,2.7c-0.1-0.2-0.5-0.5-0.7-0.5c1-1.1,1.1-2.7,1.1-4v-3.2H57
					V39.7z M53.2,37.2v-1.3h-2v0.4c0,0.3,0,0.6,0,1H53.2z M51.2,33.9v1.3h2v-1.3H51.2z M56.2,33.9H54v1.3h2.2V33.9z M56.2,37.2v-1.3
					H54v1.3H56.2z"/>
				<path class="st15" d="M60.7,36.7c-0.2,0.8-0.4,1.6-0.7,2.3c0.2,0.1,0.4,0.2,0.7,0.4c0.6,0.4,1.4,0.4,2.5,0.4
					c1.1,0,2.6-0.1,3.6-0.2c-0.1,0.2-0.2,0.6-0.3,0.9c-0.7,0-2.3,0.1-3.4,0.1c-1.2,0-2-0.1-2.6-0.5c-0.4-0.2-0.7-0.5-0.9-0.5
					s-0.5,0.6-0.8,1.1L58.3,40c0.3-0.4,0.6-0.8,0.9-0.9c0.2-0.5,0.5-1.1,0.6-1.7h-1.2c0.2-0.5,0.5-1.3,0.7-2h-0.9v-0.8h1.9
					c-0.2,0.6-0.5,1.4-0.7,2h0.5l0.1,0L60.7,36.7z M59.4,34.2c-0.1-0.4-0.3-1-0.5-1.5l0.7-0.2c0.2,0.5,0.4,1.1,0.5,1.5L59.4,34.2z
					 M61.8,39.4h-0.7v-3.9h0.7v-2.7h3.7v2.7h0.7v3.1c0,0.4-0.1,0.5-0.3,0.7c-0.2,0.1-0.6,0.1-1.1,0.1c0-0.2-0.1-0.5-0.2-0.7
					c0.3,0,0.6,0,0.7,0c0.1,0,0.1,0,0.1-0.1v-2.5h-3.6V39.4z M64.8,38.6h-1.7v0.3h-0.6v-2.2h2.3V38.6z M62.5,35.5h0.7V34h1.6v-0.6
					h-2.3V35.5z M64.1,37.2h-1.1V38h1.1V37.2z M64.8,34.6h-0.9v0.9h0.9V34.6z"/>
			</g>
			<g class="st1">
				<path class="st15" d="M24.2,48.8c-0.2-0.5-0.7-1.3-1.1-1.8l0.7-0.3c0.5,0.5,0.9,1.3,1.2,1.8L24.2,48.8z M29.9,53.7
					c0,0.4-0.1,0.7-0.4,0.8c-0.3,0.1-0.8,0.2-1.5,0.2c0-0.2-0.2-0.6-0.3-0.8c0.5,0,1,0,1.1,0c0.1,0,0.2-0.1,0.2-0.2v-3.9h-5.2v4.9
					h-0.8V49h3v-2.6h0.9V49h3V53.7z M25.6,53.2v0.6h-0.8v-3.2h3.3v2.6H25.6z M25.6,51.3v1.2h1.7v-1.2H25.6z M30,46.9
					c-0.4,0.7-0.9,1.4-1.3,1.9L28,48.5c0.4-0.5,0.9-1.3,1.2-1.9L30,46.9z"/>
				<path class="st15" d="M36.4,50.9c0.8,1.1,2.1,2.1,3.3,2.7c-0.2,0.2-0.5,0.5-0.6,0.7c-1.1-0.6-2.3-1.6-3.1-2.7v3.1h-0.9v-3.1
					c-0.9,1.1-2,2.1-3.1,2.7c-0.1-0.2-0.4-0.5-0.6-0.7c1.2-0.5,2.5-1.6,3.3-2.7h-3v-0.8h3.5v-1.4h-2.8v-0.8h2.8v-1.4h0.9v1.4h2.9
					v0.8h-2.9v1.4h3.5v0.8H36.4z"/>
				<path class="st15" d="M41.6,49.9v4.8h-0.8v-7.9h3.3v3.1H41.6z M41.6,47.4V48h1.7v-0.6H41.6z M43.4,49.3v-0.7h-1.7v0.7H43.4z
					 M45.7,52.6v1.9H45v-1.9h-1.1c-0.1,0.6-0.4,1.5-1.2,2.1c-0.1-0.2-0.4-0.4-0.5-0.5c0.7-0.4,0.9-1.1,1-1.6h-1v-0.7h1.1v-0.9h-0.9
					v-0.7h4.4v0.7h-0.9v0.9h1.1v0.7H45.7z M45,51.9v-0.9h-1.1v0.9H45z M48.2,53.7c0,0.5-0.1,0.7-0.4,0.8c-0.3,0.1-0.7,0.2-1.4,0.2
					c0-0.2-0.1-0.6-0.3-0.8c0.5,0,0.9,0,1.1,0c0.1,0,0.2-0.1,0.2-0.2v-3.8h-2.6v-3.1h3.4V53.7z M45.6,47.4V48h1.8v-0.6H45.6z
					 M47.4,49.3v-0.7h-1.8v0.7H47.4z"/>
				<path class="st15" d="M57,48.9c-0.2,1.4-0.6,2.5-1.1,3.5c0.5,0.7,1.1,1.3,1.8,1.6c-0.2,0.2-0.5,0.5-0.6,0.7
					c-0.7-0.4-1.3-0.9-1.8-1.6c-0.5,0.7-1.2,1.2-2,1.6c-0.1-0.2-0.3-0.6-0.5-0.7c0.9-0.4,1.6-1,2.1-1.7c-0.3-0.6-0.6-1.4-0.8-2.2
					c-0.2,0.4-0.4,0.7-0.6,0.9c-0.1-0.2-0.4-0.4-0.6-0.6C53,53,52.9,54,52.7,54.3c-0.2,0.2-0.3,0.3-0.6,0.3c-0.2,0-0.6,0-1,0
					c0-0.2-0.1-0.5-0.2-0.8c0.3,0,0.6,0,0.8,0c0.1,0,0.2,0,0.3-0.1c0.1-0.2,0.2-1,0.3-3.3h-1c0,1.5-0.2,3-1.3,4.2
					c-0.1-0.2-0.4-0.4-0.6-0.5c1-1.1,1.2-2.5,1.2-3.7v-1.8h-1v-0.8h3.9v0.8h-2.2v1.1H53c0,0,0,0.3,0,0.4l0,0.3
					c0.7-0.9,1.2-2.4,1.4-3.9l0.9,0.1c-0.1,0.5-0.2,1-0.3,1.5h2.7v0.8H57z M51.3,47.8c-0.1-0.3-0.3-0.8-0.4-1.2l0.7-0.2
					c0.2,0.4,0.4,0.9,0.5,1.2L51.3,47.8z M54.7,48.9c0.2,0.9,0.4,1.8,0.8,2.5c0.4-0.7,0.6-1.6,0.7-2.6L54.7,48.9L54.7,48.9z"/>
				<path class="st15" d="M61.2,46.7c-0.3,0.6-0.5,1.2-0.9,1.8v6.3h-0.8v-5.1c-0.3,0.4-0.6,0.7-0.9,1c-0.1-0.2-0.3-0.6-0.5-0.8
					c0.9-0.8,1.7-2.1,2.2-3.5L61.2,46.7z M64.1,51.5c-0.1,0.6-0.2,1.2-0.5,1.6c0.9,0.5,2,0.7,3.2,0.9c-0.2,0.2-0.4,0.5-0.5,0.8
					c-1.2-0.2-2.3-0.5-3.2-1c-0.5,0.4-1.1,0.8-1.9,1c-0.1-0.2-0.3-0.5-0.5-0.7c0.8-0.2,1.4-0.5,1.8-0.8c-0.5-0.4-0.9-0.9-1.2-1.4
					l0.7-0.2c0.3,0.4,0.6,0.8,1,1.1c0.2-0.4,0.4-0.8,0.4-1.2h-2.1v-2.5h2.1v-0.8H61v-0.8h2.4v-0.9h0.8v0.9h2.5v0.8h-2.5v0.8h2.2v2.5
					H64.1z M63.3,50.8v-0.3v-0.9h-1.4v1.1H63.3z M64.1,49.6v0.9c0,0.1,0,0.2,0,0.3h1.4v-1.1H64.1z"/>
				<path class="st15" d="M75,53.7c0,0.5-0.1,0.7-0.4,0.9c-0.3,0.1-0.9,0.2-1.7,0.1c0-0.2-0.2-0.6-0.3-0.8c0.6,0,1.2,0,1.3,0
					c0.2,0,0.2-0.1,0.2-0.2V52H72v2.6h-0.8V52h-2.1c-0.1,1-0.5,2-1.1,2.7c-0.1-0.2-0.5-0.5-0.7-0.5c1-1.1,1.1-2.7,1.1-4v-3.2H75
					V53.7z M71.2,51.2v-1.3h-2v0.4c0,0.3,0,0.6,0,1H71.2z M69.2,47.9v1.3h2v-1.3H69.2z M74.2,47.9H72v1.3h2.2V47.9z M74.2,51.2v-1.3
					H72v1.3H74.2z"/>
			</g>
			<g class="st1">
				<path class="st15" d="M28.5,67.6c1,0,1.1-0.3,1.2-1.7c0.2,0.1,0.6,0.3,0.9,0.3c-0.2,1.7-0.5,2.2-2.1,2.2h-3.2
					c-1.6,0-2-0.3-2-1.5v-4.3h0.9V64h4.4v-2.2h-5.7V61h6.6v4.2h-0.9v-0.4h-4.4V67c0,0.6,0.2,0.7,1.2,0.7H28.5z"/>
				<path class="st15" d="M33.7,64.7c-0.2,0.8-0.4,1.6-0.7,2.3c0.2,0.1,0.4,0.2,0.7,0.4c0.6,0.4,1.4,0.4,2.5,0.4
					c1.1,0,2.6-0.1,3.6-0.2c-0.1,0.2-0.2,0.6-0.3,0.9c-0.7,0-2.3,0.1-3.4,0.1c-1.2,0-2-0.1-2.6-0.5c-0.4-0.2-0.7-0.5-0.9-0.5
					s-0.5,0.6-0.8,1.1L31.3,68c0.3-0.4,0.6-0.8,0.9-0.9c0.2-0.5,0.5-1.1,0.6-1.7h-1.2c0.2-0.5,0.5-1.3,0.7-2h-0.9v-0.8h1.9
					c-0.2,0.6-0.5,1.4-0.7,2h0.5l0.1,0L33.7,64.7z M32.4,62.2c-0.1-0.4-0.3-1-0.5-1.5l0.7-0.2c0.2,0.5,0.4,1.1,0.5,1.5L32.4,62.2z
					 M34.8,67.4h-0.7v-3.9h0.7v-2.7h3.7v2.7h0.7v3.1c0,0.4-0.1,0.5-0.3,0.7c-0.2,0.1-0.6,0.1-1.1,0.1c0-0.2-0.1-0.5-0.2-0.7
					c0.3,0,0.6,0,0.7,0c0.1,0,0.1,0,0.1-0.1v-2.5h-3.6V67.4z M37.8,66.6h-1.7v0.3h-0.6v-2.2h2.3V66.6z M35.5,63.5h0.7V62h1.6v-0.6
					h-2.3V63.5z M37.1,65.2h-1.1V66h1.1V65.2z M37.8,62.6h-0.9v0.9h0.9V62.6z"/>
				<path class="st15" d="M42.3,66.9c-0.3,0.7-0.8,1.4-1.3,1.8c-0.1-0.1-0.5-0.4-0.7-0.5c0.5-0.4,0.9-1,1.2-1.5L42.3,66.9z
					 M44.8,66.6h-4.4v-0.7h0.8v-3.5h-0.7v-0.7h0.7v-1H42v1h1.4v-1h0.8v1h0.6v0.7h-0.6v3.5h0.6V66.6z M42,62.3V63h1.4v-0.7H42z
					 M42,64.4h1.4v-0.7H42V64.4z M42,65.8h1.4V65H42V65.8z M43.5,66.7c0.4,0.4,0.8,1,1,1.3l-0.7,0.4c-0.2-0.4-0.6-0.9-0.9-1.4
					L43.5,66.7z M48.3,67.7c0,0.4-0.1,0.7-0.4,0.8c-0.3,0.1-0.7,0.2-1.4,0.2c0-0.2-0.1-0.6-0.2-0.8c0.4,0,0.9,0,1,0
					c0.1,0,0.2,0,0.2-0.2v-2h-1.7c-0.1,1.1-0.3,2.2-0.8,3c-0.1-0.2-0.5-0.4-0.7-0.5c0.7-1.2,0.8-2.9,0.8-4.2v-3.2h3.2V67.7z
					 M47.5,65v-1.3H46v0.5c0,0.3,0,0.5,0,0.8H47.5z M46,61.6v1.3h1.6v-1.3H46z"/>
				<path class="st15" d="M54.2,65.3c0.6,1.4,1.8,2.3,3.5,2.7c-0.2,0.2-0.4,0.5-0.5,0.8c-1.8-0.5-2.9-1.5-3.7-3
					c-0.5,1.2-1.5,2.3-3.6,3c-0.1-0.2-0.3-0.6-0.5-0.7c2-0.7,3-1.6,3.4-2.7h-3.2v-0.8h3.4C53,64,53,63.6,53,63.2v-0.4h-1.9
					c-0.3,0.5-0.5,0.9-0.8,1.3c-0.2-0.1-0.6-0.3-0.8-0.4c0.7-0.7,1.2-1.9,1.5-3.1l0.9,0.2c-0.1,0.4-0.3,0.8-0.4,1.2H53v-1.5h0.9V62
					h2.9v0.8h-2.9v0.4c0,0.4,0,0.8-0.1,1.2h3.7v0.8H54.2z"/>
				<path class="st15" d="M60.2,62.8c-0.4,0.8-0.9,1.7-1.3,2.3c-0.1-0.1-0.4-0.4-0.6-0.5c0.4-0.5,0.9-1.3,1.2-2L60.2,62.8z
					 M61.6,67.8c-0.2-0.4-0.5-0.8-0.9-1.3c-0.5,0.8-1.1,1.4-1.8,2c-0.1-0.2-0.4-0.5-0.6-0.6c0.8-0.5,1.4-1.2,1.9-2
					c-0.3-0.4-0.7-0.8-1-1.1l0.6-0.5c0.2,0.2,0.5,0.5,0.8,0.8c0.1-0.4,0.3-0.7,0.4-1.1l0.8,0.1c-0.2,0.6-0.4,1.1-0.6,1.6
					c0.5,0.5,0.9,1.1,1.1,1.5L61.6,67.8z M62.7,62.5h-4.1v-0.7h1.9c-0.1-0.3-0.3-0.7-0.6-1l0.7-0.3c0.3,0.3,0.5,0.8,0.6,1.1
					l-0.5,0.2h2V62.5z M66.1,62.8c-0.2,1.4-0.6,2.6-1.1,3.6c0.5,0.7,1,1.3,1.7,1.6c-0.2,0.2-0.4,0.5-0.6,0.7
					c-0.6-0.4-1.2-0.9-1.6-1.6c-0.5,0.7-1.2,1.2-2,1.6c-0.1-0.2-0.4-0.5-0.6-0.6c0.9-0.4,1.6-1,2.1-1.7c-0.3-0.6-0.5-1.2-0.7-1.9
					c-0.1,0.3-0.3,0.5-0.4,0.7c-0.1-0.2-0.4-0.5-0.5-0.7c0.1-0.1,0.1-0.2,0.2-0.3L62,64.6c-0.2-0.4-0.6-1.2-1-1.7l0.6-0.3
					c0.4,0.5,0.8,1.1,1,1.5c0.6-1,0.9-2.3,1.1-3.7l0.8,0.1c-0.1,0.5-0.2,1-0.3,1.5h2.3v0.8H66.1z M64,62.8c-0.1,0.2-0.1,0.4-0.2,0.6
					c0.2,0.8,0.4,1.5,0.7,2.2c0.4-0.8,0.6-1.7,0.8-2.8H64z"/>
			</g>
			<circle id="Oval" class="st4" cx="16.5" cy="23.5" r="1.5"/>
			<circle class="st4" cx="16.5" cy="37.5" r="1.5"/>
			<circle class="st4" cx="16.5" cy="51.5" r="1.5"/>
			<circle class="st4" cx="16.5" cy="65.5" r="1.5"/>
		</g>
	</g>
</g>
</svg>
