<svg width="980" height="363" viewBox="0 0 980 363" fill="none" xmlns="http://www.w3.org/2000/svg">
<g filter="url(#filter0_d)">
<ellipse cx="142.87" cy="146.225" rx="142.87" ry="142" stroke="url(#paint0_linear)" stroke-width="2"/>
</g>
<path d="M66.276 135.209C68.976 134.489 71.568 133.697 74.088 132.833V142.121H76.644V109.505H74.088V130.313C72.36 130.997 70.596 131.609 68.796 132.149V112.565H66.276V132.113C66.276 132.509 65.988 132.797 65.484 133.013L66.276 135.209ZM83.952 117.353H91.26C91.044 122.321 89.892 126.641 87.732 130.349C86.112 127.865 84.78 125.165 83.772 122.285L81.648 123.473C82.764 126.785 84.276 129.845 86.184 132.689C83.952 135.605 80.964 138.017 77.184 139.889L78.66 142.229C82.332 140.249 85.392 137.765 87.768 134.813C89.964 137.657 92.628 140.213 95.76 142.517L97.488 140.465C94.32 138.161 91.584 135.569 89.352 132.617C92.016 128.369 93.492 123.293 93.744 117.353H96.732V114.797H84.816C85.284 113.213 85.68 111.485 86.04 109.649L83.448 109.217C82.44 115.193 80.46 119.981 77.58 123.545L79.2 125.525C81.108 123.329 82.692 120.593 83.952 117.353ZM101.484 131.249V133.589H115.812V142.373H118.404V133.589H132.516V131.249H118.404V129.377H115.812V131.249H101.484ZM123.516 134.885L121.86 136.505C125.568 138.449 128.484 140.321 130.572 142.085L132.444 140.249C130.032 138.449 127.044 136.685 123.516 134.885ZM110.592 135.065C108.144 136.937 105.084 138.557 101.484 139.961L103.068 142.049C106.74 140.465 109.836 138.665 112.356 136.613L110.592 135.065ZM105.012 118.253V128.405H131.472V126.209H119.34V123.653H129.456V121.637H119.34V119.261H129.456V117.245H119.34V114.797H130.788V112.637H119.16C118.692 111.341 118.188 110.189 117.684 109.109L115.056 109.577C115.632 110.513 116.136 111.521 116.604 112.637H108.864C109.296 111.701 109.728 110.765 110.088 109.829L107.676 109.217C106.092 113.105 103.716 116.489 100.512 119.369L101.952 121.385C103.068 120.377 104.076 119.333 105.012 118.253ZM116.784 126.209H107.424V123.653H116.784V126.209ZM116.784 121.637H107.424V119.261H116.784V121.637ZM116.784 117.245H107.424V115.085L107.604 114.797H116.784V117.245ZM139.068 111.773V113.897H151.776V116.345H140.58V118.397H151.776V120.845H137.52V123.041H149.184C146.952 124.733 144.972 125.885 143.316 126.461C142.848 126.677 142.344 126.785 141.84 126.857L142.308 128.765C145.692 128.621 148.896 128.513 151.92 128.405C148.392 130.025 144.828 131.321 141.228 132.257L139.824 132.113L140.328 134.273L143.352 134.165C145.368 134.165 148.248 134.057 151.956 133.877V138.917C151.956 139.781 151.56 140.213 150.804 140.213C149.796 140.213 148.788 140.141 147.708 140.069L148.212 142.373H151.632C153.504 142.373 154.476 141.401 154.476 139.493V133.733C157.068 133.589 160.092 133.373 163.512 133.121C164.232 133.949 164.916 134.777 165.564 135.641L167.4 134.381C165.96 132.473 163.836 130.241 161.064 127.685L159.3 128.801C160.236 129.665 161.1 130.529 161.928 131.393C155.736 131.897 150.48 132.221 146.16 132.365C151.416 130.709 156.672 128.405 161.892 125.381L159.876 124.085C158.4 124.985 156.888 125.849 155.376 126.677C152.208 126.821 149.004 126.929 145.8 127.037C147.96 126.029 150.084 124.697 152.208 123.041H168.516V120.845H154.368V118.397H165.42V116.345H154.368V113.897H166.932V111.773H154.368V109.253H151.776V111.773H139.068ZM147.168 135.137C144.54 137.009 141.192 138.485 137.124 139.637L138.168 141.797C142.344 140.465 145.836 138.809 148.644 136.793L147.168 135.137ZM158.508 135.029L157.248 136.865C160.776 138.089 164.196 139.781 167.544 141.905L168.84 139.925C165.708 138.017 162.252 136.397 158.508 135.029ZM197.064 118.937C194.616 125.669 190.584 131.177 185.04 135.425L186.408 137.765C191.736 133.337 195.696 127.757 198.216 121.025V137.945C198.216 138.989 197.712 139.529 196.776 139.529C195.624 139.529 194.4 139.457 193.14 139.385L193.716 141.905H197.64C199.728 141.905 200.808 140.789 200.808 138.593V118.937H204.948V116.453H200.808V109.325H198.216V116.453H187.884V118.937H197.064ZM173.088 116.381V118.865H178.776C177.48 123.401 175.356 127.433 172.368 130.961L173.52 133.877C175.752 130.745 177.552 127.217 178.884 123.329V142.193H181.476V123.689C182.628 125.057 183.996 126.857 185.58 129.089L187.092 126.857C185.184 124.661 183.312 122.717 181.476 120.989V118.865H186.264V116.381H181.476V109.361H178.884V116.381H173.088Z" fill="#F8F8F8"/>
<path d="M74.0505 182.315C73.4516 183.61 72.5466 184.258 71.3357 184.258C70.8279 184.258 70.3917 184.151 70.0271 183.936C69.656 183.753 69.3565 183.516 69.1287 183.223C68.8487 182.917 68.6632 182.517 68.572 182.022C68.4679 181.527 68.4158 180.58 68.4158 179.18C68.4158 177.78 68.4679 176.826 68.572 176.319C68.6632 175.837 68.8487 175.443 69.1287 175.137C69.3565 174.844 69.656 174.6 70.0271 174.405C70.3917 174.216 70.8279 174.115 71.3357 174.102C72.0258 174.115 72.6117 174.313 73.0935 174.698C73.5557 175.101 73.8748 175.589 74.0505 176.162H76.3357C76.1078 174.971 75.561 173.972 74.6951 173.164C73.8292 172.364 72.7094 171.957 71.3357 171.944C70.2159 171.957 69.2817 172.224 68.533 172.744C67.7712 173.259 67.2179 173.845 66.8728 174.502C66.658 174.847 66.4985 175.3 66.3943 175.86C66.2966 176.42 66.2478 177.526 66.2478 179.18C66.2478 180.808 66.2966 181.908 66.3943 182.481C66.4464 182.787 66.5115 183.041 66.5896 183.242C66.6742 183.438 66.7686 183.643 66.8728 183.858C67.2179 184.515 67.7712 185.095 68.533 185.596C69.2817 186.117 70.2159 186.39 71.3357 186.416C72.5727 186.416 73.6436 186.065 74.5486 185.362C75.4275 184.652 76.0232 183.636 76.3357 182.315H74.0505ZM77.1853 181.221C77.1853 182.289 77.2732 183.102 77.449 183.662C77.6313 184.222 77.9112 184.707 78.2888 185.117C78.5688 185.436 78.9594 185.723 79.4607 185.977C79.9555 186.257 80.5903 186.403 81.365 186.416C82.1658 186.403 82.8136 186.257 83.3083 185.977C83.5753 185.86 83.7934 185.72 83.9626 185.557C84.1514 185.414 84.311 185.267 84.4412 185.117C84.8448 184.707 85.1313 184.222 85.3005 183.662C85.4633 183.102 85.5447 182.289 85.5447 181.221C85.5447 180.153 85.4633 179.333 85.3005 178.76C85.1313 178.2 84.8448 177.728 84.4412 177.344C84.1742 177.005 83.7966 176.703 83.3083 176.436C82.8136 176.182 82.1658 176.048 81.365 176.035C80.5903 176.048 79.9555 176.182 79.4607 176.436C78.9594 176.703 78.5688 177.005 78.2888 177.344C77.9112 177.728 77.6313 178.2 77.449 178.76C77.2732 179.333 77.1853 180.153 77.1853 181.221ZM83.5037 181.24C83.5037 181.931 83.4711 182.438 83.406 182.764C83.3409 183.096 83.2074 183.389 83.0056 183.643C82.8559 183.838 82.6345 184.011 82.3416 184.16C82.0616 184.304 81.7361 184.375 81.365 184.375C81.0199 184.375 80.7009 184.304 80.408 184.16C80.128 184.011 79.9001 183.838 79.7244 183.643C79.5486 183.389 79.4216 183.096 79.3435 182.764C79.2654 182.438 79.2263 181.924 79.2263 181.221C79.2263 180.511 79.2654 179.99 79.3435 179.658C79.4216 179.339 79.5486 179.059 79.7244 178.819C79.9001 178.591 80.128 178.412 80.408 178.281C80.7009 178.145 81.0199 178.076 81.365 178.076C81.7361 178.076 82.0616 178.145 82.3416 178.281C82.6345 178.412 82.8559 178.591 83.0056 178.819C83.2074 179.059 83.3409 179.339 83.406 179.658C83.4711 179.99 83.5037 180.518 83.5037 181.24ZM87.6833 183.838C87.6833 184.73 87.9373 185.365 88.4451 185.742C88.9268 186.114 89.5388 186.299 90.281 186.299H91.1892V184.375H90.4861C89.9783 184.375 89.7244 184.144 89.7244 183.682V172.061H87.6833V183.838ZM92.8396 183.838C92.8396 184.73 93.0935 185.365 93.6013 185.742C94.0831 186.114 94.6951 186.299 95.4373 186.299H96.3455V184.375H95.6423C95.1345 184.375 94.8806 184.144 94.8806 183.682V172.061H92.8396V183.838ZM105.857 182.002V180.323C105.844 178.988 105.431 177.94 104.617 177.178C103.816 176.429 102.836 176.048 101.677 176.035C101.196 176.035 100.707 176.123 100.213 176.299C99.7113 176.475 99.2589 176.761 98.8552 177.158C98.4581 177.549 98.1326 178.083 97.8787 178.76C97.6248 179.424 97.4978 180.257 97.4978 181.26C97.4978 182.302 97.6443 183.148 97.9373 183.799C98.2042 184.476 98.5525 185.003 98.9822 185.381C99.2035 185.563 99.4412 185.716 99.6951 185.84C99.936 185.983 100.183 186.097 100.437 186.182C100.945 186.338 101.466 186.416 102 186.416C103.399 186.429 104.617 185.882 105.652 184.776L104.177 183.516C103.526 184.173 102.788 184.502 101.961 184.502C101.251 184.502 100.678 184.287 100.242 183.858C99.7732 183.434 99.5388 182.816 99.5388 182.002H105.857ZM99.5388 180.323C99.5779 179.535 99.7895 178.939 100.174 178.535C100.564 178.151 101.066 177.959 101.677 177.959C102.289 177.959 102.791 178.151 103.181 178.535C103.579 178.939 103.79 179.535 103.816 180.323H99.5388ZM113.953 183.321C113.439 184.011 112.752 184.362 111.892 184.375C110.161 184.408 109.282 183.363 109.256 181.24C109.282 179.105 110.161 178.05 111.892 178.076C112.752 178.102 113.439 178.457 113.953 179.141L115.457 177.803C115.014 177.269 114.493 176.843 113.894 176.524C113.295 176.211 112.602 176.048 111.814 176.035C110.616 176.022 109.565 176.423 108.66 177.237C107.722 178.063 107.241 179.398 107.215 181.24C107.241 183.063 107.722 184.382 108.66 185.196C109.565 186.009 110.616 186.416 111.814 186.416C112.602 186.403 113.295 186.231 113.894 185.899C114.493 185.58 115.014 185.166 115.457 184.658L113.953 183.321ZM117 176.162H115.984V177.715H117V183.799C117 184.6 117.234 185.212 117.703 185.635C118.159 186.078 118.745 186.299 119.461 186.299H120.525V184.375H119.763C119.269 184.388 119.028 184.138 119.041 183.623V177.715H120.525V176.162H119.041V173.076H117V176.162Z" fill="#B7B7B7"/>
<g filter="url(#filter1_d)">
<ellipse cx="490" cy="146.225" rx="142.87" ry="142" stroke="url(#paint1_linear)" stroke-width="2"/>
</g>
<path d="M411.728 118.901V121.421H415.868V134.273C414.428 134.705 412.952 135.065 411.44 135.389L412.088 137.873C415.688 136.937 419.072 135.749 422.204 134.381V131.861C420.944 132.437 419.648 132.941 418.352 133.445V121.421H422.276V118.901H418.352V109.397H415.868V118.901H411.728ZM425.192 110.621V121.385H441.752V110.621H425.192ZM439.34 119.369H427.568V116.993H439.34V119.369ZM427.568 115.085V112.709H439.34V115.085H427.568ZM422.924 123.509V125.777H428.144C426.92 127.685 425.012 129.341 422.384 130.745L423.824 132.689C425.12 131.897 426.272 131.069 427.28 130.133H430.88C429.224 132.509 426.488 134.417 422.672 135.929L424.184 137.729C428.432 135.893 431.456 133.373 433.328 130.133H436.424C434.192 135.029 430.484 138.305 425.3 140.033L426.704 142.121C432.284 140.177 436.28 136.181 438.728 130.133H440.744C440.564 134.201 440.24 136.865 439.808 138.089C439.34 139.313 438.368 139.925 436.892 139.925C436.208 139.925 435.488 139.889 434.732 139.817L435.38 142.157H438.08C439.52 142.085 440.564 141.653 441.212 140.861C441.86 139.997 442.328 138.521 442.616 136.397C442.904 134.237 443.084 131.465 443.156 128.009H429.224C429.764 127.289 430.232 126.569 430.664 125.777H444.416V123.509H422.924ZM452.768 126.821V134.093H463.136V138.593C463.136 139.493 462.776 139.961 462.056 139.961C460.796 139.961 459.464 139.889 458.096 139.781L458.636 142.193H462.92C464.756 142.193 465.692 141.185 465.692 139.205V134.093H475.52V126.821H452.768ZM473 132.041H455.288V128.873H473V132.041ZM452.156 110.369V120.629H461.768C462.164 121.277 462.56 121.961 462.92 122.717H448.16V124.877H479.84V122.717H465.62C465.332 121.997 465.044 121.277 464.72 120.629H475.88V110.369H452.156ZM473.36 118.577H454.676V116.417H473.36V118.577ZM454.676 114.509V112.421H473.36V114.509H454.676ZM470.3 135.389L469.22 137.441C472.748 138.521 476.132 139.997 479.408 141.905L480.308 139.529C477.104 137.729 473.756 136.325 470.3 135.389ZM456.692 135.209C454.604 137.009 451.616 138.521 447.692 139.781L449.132 141.905C452.876 140.609 455.936 138.917 458.312 136.865L456.692 135.209ZM484.628 117.857V131.645H489.128V134.669H483.944V136.865H489.128V142.229H491.504V136.865H496.544V134.669H491.504V131.645H495.86V117.857H491.504V114.833H496.328V112.673H491.504V109.397H489.128V112.673H484.16V114.833H489.128V117.857H484.628ZM493.916 129.701H491.252V125.705H493.916V129.701ZM489.344 129.701H486.68V125.705H489.344V129.701ZM486.68 123.761V119.801H489.344V123.761H486.68ZM491.252 119.801H493.916V123.761H491.252V119.801ZM497.588 111.233V113.321H505.256V115.337H498.416V125.705H505.292V128.117C502.952 128.189 500.396 128.261 497.624 128.333L497.912 130.349C502.484 130.205 506.372 130.061 509.612 129.845V132.545H497.696V134.741H509.612V139.025C509.612 139.745 509.252 140.141 508.604 140.141C507.596 140.141 506.516 140.069 505.4 139.997L505.904 142.301H509.468C511.16 142.301 512.024 141.401 512.024 139.601V134.741H516.236V132.545H512.024V129.665C512.6 129.629 513.14 129.593 513.716 129.521C514.076 130.097 514.436 130.709 514.76 131.285L516.38 130.133C515.624 128.837 514.616 127.361 513.356 125.705H514.508V115.337H507.668V113.321H515.444V111.233H507.668V109.217H505.256V111.233H497.588ZM512.564 127.757C511.088 127.829 509.432 127.937 507.632 128.009V125.705H511.088C511.592 126.353 512.096 127.037 512.564 127.757ZM512.312 123.977H507.56V121.385H512.312V123.977ZM505.4 123.977H500.612V121.385H505.4V123.977ZM500.612 119.621V117.065H505.4V119.621H500.612ZM507.56 117.065H512.312V119.621H507.56V117.065ZM499.892 135.101L498.704 136.793C500.36 137.621 501.98 138.773 503.564 140.249L504.824 138.305C503.312 137.045 501.692 135.965 499.892 135.101ZM523.94 141.941C525.776 141.941 526.712 140.933 526.712 138.917V128.225C527.9 127.685 529.088 127.109 530.276 126.497V123.977C529.124 124.625 527.936 125.201 526.712 125.741V118.433H529.844V115.949H526.712V109.361H524.192V115.949H520.124V118.433H524.192V126.749C522.68 127.325 521.132 127.793 519.584 128.189L520.196 130.637C521.528 130.205 522.86 129.773 524.192 129.269V138.269C524.192 139.133 523.796 139.565 523.04 139.565C522.176 139.565 521.24 139.493 520.304 139.421L520.844 141.941H523.94ZM550.22 117.461H543.812C544.928 116.345 546.044 114.977 547.16 113.357V111.557H538.844C539.168 110.981 539.492 110.369 539.852 109.721L537.512 109.217C535.568 112.853 533.048 115.769 529.988 118.001L531.536 119.873C532.04 119.477 532.508 119.081 533.012 118.649V130.961H530.528V133.265H539.384C538.916 134.237 538.34 135.101 537.62 135.893C535.964 137.621 533.264 138.953 529.52 139.889L530.492 142.121C534.812 140.969 537.8 139.385 539.528 137.405C540.536 136.217 541.364 134.849 541.94 133.265H552.524V130.961H550.22V117.461ZM540.824 117.461H534.272C535.424 116.309 536.468 115.085 537.44 113.717H544.172C543.092 115.121 541.976 116.381 540.824 117.461ZM535.316 130.961V119.585H547.88V130.961H542.624C542.768 130.205 542.912 129.413 542.984 128.585L540.68 128.333C540.572 129.233 540.428 130.097 540.212 130.961H535.316ZM541.436 124.769C543.02 125.849 544.352 127.001 545.468 128.225L546.764 126.713C545.504 125.417 543.992 124.229 542.228 123.149C542.516 122.429 542.804 121.637 543.056 120.773L541.112 120.485C540.464 123.293 538.916 125.453 536.54 127.001L537.8 128.621C539.24 127.685 540.464 126.389 541.436 124.769ZM543.488 134.669L542.264 136.505C545.36 137.945 548.384 139.889 551.336 142.337L552.668 140.285C549.896 138.089 546.836 136.217 543.488 134.669Z" fill="#F8F8F8"/>
<path d="M416.148 186.299H418.316V173.985H422.213V172.061H412.252V173.985H416.148V186.299ZM421.715 186.299H423.756V180.196C423.769 179.453 423.984 178.916 424.4 178.584C424.771 178.246 425.217 178.076 425.738 178.076C426.201 178.076 426.646 178.246 427.076 178.584L428.561 176.817C427.955 176.309 427.245 176.048 426.432 176.035C425.344 176.035 424.465 176.436 423.795 177.237H423.756V176.162H421.715V186.299ZM434.459 186.299H436.5V179.375C436.487 178.138 436.1 177.266 435.338 176.758C434.576 176.263 433.557 176.022 432.281 176.035C430.771 176.009 429.628 176.504 428.854 177.52L430.455 178.74C430.631 178.448 430.872 178.239 431.178 178.115C431.471 178.011 431.871 177.959 432.379 177.959C433.779 177.933 434.472 178.366 434.459 179.258V180.323H431.637C430.556 180.336 429.736 180.628 429.176 181.201C428.616 181.761 428.336 182.468 428.336 183.321C428.336 184.212 428.658 184.945 429.303 185.518C429.915 186.104 430.787 186.403 431.92 186.416C432.61 186.416 433.15 186.332 433.541 186.162C433.938 186 434.231 185.746 434.42 185.401H434.459V186.299ZM434.459 182.735C434.459 183.496 434.299 183.985 433.98 184.199C433.629 184.414 433.027 184.515 432.174 184.502C431.497 184.502 431.012 184.369 430.719 184.102C430.413 183.861 430.26 183.568 430.26 183.223C430.247 182.435 430.833 182.028 432.018 182.002H434.459V182.735ZM439.137 186.299H441.178V180.264C441.178 179.554 441.37 179.014 441.754 178.643C442.132 178.265 442.613 178.076 443.199 178.076C443.785 178.076 444.264 178.265 444.635 178.643C445.012 179.014 445.201 179.554 445.201 180.264V186.299H447.242V179.561C447.21 178.402 446.848 177.523 446.158 176.924C445.462 176.332 444.693 176.035 443.854 176.035C442.766 176.035 441.887 176.436 441.217 177.237H441.178V176.162H439.137V186.299ZM450.182 183.203L448.756 184.6C450.077 185.811 451.565 186.416 453.219 186.416C454.436 186.403 455.436 186.123 456.217 185.576C457.005 185.043 457.405 184.284 457.418 183.301C457.418 182.461 457.2 181.768 456.764 181.221C456.295 180.661 455.533 180.342 454.479 180.264L452.799 180.137C452.304 180.085 451.959 179.964 451.764 179.776C451.549 179.606 451.448 179.408 451.461 179.18C451.461 178.822 451.594 178.529 451.861 178.301C452.115 178.073 452.561 177.959 453.199 177.959C453.759 177.959 454.254 178.041 454.684 178.203C455.12 178.386 455.533 178.617 455.924 178.897L457.184 177.422C456.689 176.992 456.129 176.651 455.504 176.397C455.178 176.28 454.83 176.188 454.459 176.123C454.088 176.065 453.668 176.035 453.199 176.035C452.118 176.035 451.227 176.296 450.523 176.817C449.801 177.337 449.433 178.119 449.42 179.16C449.433 180.026 449.713 180.7 450.26 181.182C450.794 181.677 451.487 181.963 452.34 182.041L454.137 182.198C454.514 182.211 454.817 182.292 455.045 182.442C455.266 182.585 455.377 182.839 455.377 183.203C455.377 183.614 455.191 183.933 454.82 184.16C454.449 184.388 453.971 184.502 453.385 184.502C452.076 184.502 451.008 184.069 450.182 183.203ZM459.811 186.299H461.852V177.715H463.893V176.162H461.852V174.824C461.826 174.245 462.118 173.965 462.73 173.985H463.893V172.061H462.574C461.786 172.061 461.132 172.272 460.611 172.696C460.077 173.151 459.811 173.861 459.811 174.824V176.162H458.785V177.715H459.811V186.299ZM464.557 181.221C464.557 182.289 464.645 183.102 464.82 183.662C465.003 184.222 465.283 184.707 465.66 185.117C465.94 185.436 466.331 185.723 466.832 185.977C467.327 186.257 467.962 186.403 468.736 186.416C469.537 186.403 470.185 186.257 470.68 185.977C470.947 185.86 471.165 185.72 471.334 185.557C471.523 185.414 471.682 185.267 471.812 185.117C472.216 184.707 472.503 184.222 472.672 183.662C472.835 183.102 472.916 182.289 472.916 181.221C472.916 180.153 472.835 179.333 472.672 178.76C472.503 178.2 472.216 177.728 471.812 177.344C471.546 177.005 471.168 176.703 470.68 176.436C470.185 176.182 469.537 176.048 468.736 176.035C467.962 176.048 467.327 176.182 466.832 176.436C466.331 176.703 465.94 177.005 465.66 177.344C465.283 177.728 465.003 178.2 464.82 178.76C464.645 179.333 464.557 180.153 464.557 181.221ZM470.875 181.24C470.875 181.931 470.842 182.438 470.777 182.764C470.712 183.096 470.579 183.389 470.377 183.643C470.227 183.838 470.006 184.011 469.713 184.16C469.433 184.304 469.107 184.375 468.736 184.375C468.391 184.375 468.072 184.304 467.779 184.16C467.499 184.011 467.271 183.838 467.096 183.643C466.92 183.389 466.793 183.096 466.715 182.764C466.637 182.438 466.598 181.924 466.598 181.221C466.598 180.511 466.637 179.99 466.715 179.658C466.793 179.339 466.92 179.059 467.096 178.819C467.271 178.591 467.499 178.412 467.779 178.281C468.072 178.145 468.391 178.076 468.736 178.076C469.107 178.076 469.433 178.145 469.713 178.281C470.006 178.412 470.227 178.591 470.377 178.819C470.579 179.059 470.712 179.339 470.777 179.658C470.842 179.99 470.875 180.518 470.875 181.24ZM475.055 186.299H477.096V180.196C477.109 179.453 477.324 178.916 477.74 178.584C478.111 178.246 478.557 178.076 479.078 178.076C479.54 178.076 479.986 178.246 480.416 178.584L481.9 176.817C481.295 176.309 480.585 176.048 479.771 176.035C478.684 176.035 477.805 176.436 477.135 177.237H477.096V176.162H475.055V186.299ZM482.965 186.299H485.006V180.264C485.006 179.554 485.201 179.014 485.592 178.643C485.963 178.265 486.441 178.076 487.027 178.076C487.613 178.076 488.095 178.265 488.473 178.643C488.844 179.014 489.029 179.554 489.029 180.264V186.299H491.07V180.264C491.07 179.554 491.262 179.014 491.646 178.643C492.024 178.265 492.506 178.076 493.092 178.076C493.678 178.076 494.156 178.265 494.527 178.643C494.898 179.014 495.084 179.554 495.084 180.264V186.299H497.125V179.561C497.099 178.402 496.741 177.523 496.051 176.924C495.354 176.332 494.586 176.035 493.746 176.035C492.411 176.022 491.347 176.465 490.553 177.364C490.201 176.973 489.814 176.651 489.391 176.397C488.961 176.169 488.395 176.048 487.691 176.035C486.598 176.035 485.715 176.436 485.045 177.237H485.006V176.162H482.965V186.299Z" fill="#B7B7B7"/>
<g filter="url(#filter2_d)">
<ellipse cx="837.13" cy="146.225" rx="142.87" ry="142" stroke="url(#paint2_linear)" stroke-width="2"/>
</g>
<path d="M784.308 125.884V128.368H801.66V125.884H794.352C793.848 123.724 793.344 121.816 792.84 120.16L790.248 120.592C790.824 122.176 791.328 123.94 791.796 125.884H784.308ZM783.408 149.212V151.768H802.092V149.212H796.116C797.628 144.028 798.888 138.088 799.932 131.392L797.484 130.78C796.368 138.124 795.072 144.28 793.56 149.212H783.408ZM788.196 131.176L785.892 131.932C786.972 136.936 787.872 142.156 788.628 147.556L790.932 146.944C790.14 141.04 789.24 135.784 788.196 131.176ZM769.98 132.76V135.172H775.488V153.028H778.008V135.172H782.976V132.76H778.008V120.088H775.488V132.76H769.98ZM781.14 122.392C780.924 125.272 780.384 127.828 779.52 130.024L781.572 130.672C782.472 128.332 783.048 125.668 783.264 122.644L781.14 122.392ZM772.068 123.04L770.052 123.688C770.772 125.992 771.348 128.404 771.852 130.924L773.868 130.348C773.328 127.612 772.716 125.164 772.068 123.04ZM772.068 138.196C771.492 141.94 770.808 145.036 770.052 147.484L771.996 148.168C772.788 145.468 773.436 142.3 773.94 138.7L772.068 138.196ZM781.464 138.052L779.7 138.628C780.276 141.292 780.78 144.064 781.176 146.944L783.192 146.44C782.688 143.272 782.112 140.5 781.464 138.052ZM806.268 135.496V138.016H821.424V148.708C821.424 149.788 820.848 150.364 819.696 150.364C817.608 150.364 815.7 150.328 813.9 150.256L814.584 152.776H820.74C822.936 152.776 824.052 151.696 824.052 149.536V138.016H837.732V135.496H824.052V131.716C827.724 129.304 830.964 126.748 833.808 124.048V121.6H810.048V124.048H830.28C827.472 126.496 824.52 128.62 821.424 130.384V135.496H806.268ZM856.812 152.812C858.756 152.812 859.728 151.84 859.728 149.896V140.716C863.112 140.5 866.172 140.248 868.908 139.96C869.664 141.112 870.348 142.264 870.996 143.38L873.048 141.976C871.536 139.456 869.412 136.504 866.604 133.12L864.696 134.308C865.704 135.532 866.604 136.72 867.468 137.908C863.04 138.34 857.784 138.736 851.664 139.06C856.74 137.008 862.644 133.696 869.412 129.16L866.928 127.972C865.272 129.088 863.688 130.168 862.104 131.176L852.204 131.932C855.588 130.42 858.792 128.476 861.852 126.1L859.944 124.732C855.336 128.224 850.728 130.6 846.048 131.824L846.444 134.02C850.476 133.84 854.472 133.624 858.504 133.336C854.148 135.82 850.224 137.62 846.696 138.736C846.012 138.952 845.256 139.132 844.464 139.204L845.184 141.472C849.468 141.328 853.428 141.112 857.1 140.896V149.284C857.1 150.112 856.704 150.544 855.912 150.544C854.688 150.544 853.428 150.472 852.132 150.364L852.708 152.812H856.812ZM864.408 142.48L862.716 144.1C866.352 147.052 869.232 149.788 871.32 152.38L873.12 150.58C870.744 147.88 867.864 145.18 864.408 142.48ZM851.196 142.84C848.784 145.648 845.832 148.132 842.34 150.22L843.888 152.308C847.488 150.04 850.548 147.412 852.996 144.388L851.196 142.84ZM865.416 120.124C862.824 121.132 859.944 121.96 856.812 122.68C853.248 123.472 849.252 124.156 844.86 124.66L846.192 126.784C851.412 125.956 855.624 125.164 858.792 124.408C861.78 123.652 864.732 122.68 867.648 121.528L865.416 120.124ZM904.332 128.62L902.424 129.844C903.324 130.996 904.188 132.148 904.98 133.264C901.524 133.624 897.996 133.948 894.396 134.2C895.836 132.328 897.42 129.664 899.22 126.28H909.552V123.868H900.444C900.912 122.86 901.416 121.816 901.92 120.736L899.544 119.8C898.896 121.24 898.284 122.608 897.708 123.868H890.616V126.28H896.556C894.648 130.096 893.028 132.616 891.732 133.912C891.444 134.02 891.12 134.092 890.76 134.164L891.336 136.504L895.188 136.288C894.972 140.392 894.432 143.416 893.568 145.396C892.56 147.592 890.868 149.5 888.492 151.084L890.076 153.1C892.74 151.228 894.648 149.032 895.8 146.44C896.772 144.208 897.384 140.788 897.636 136.108L901.452 135.784V149.752C901.452 151.552 902.496 152.488 904.656 152.488H906.708C908.292 152.416 909.3 152.02 909.768 151.3C910.272 150.544 910.524 148.564 910.524 145.36L908.328 144.532C908.328 146.548 908.22 147.988 908.04 148.888C907.896 149.68 907.428 150.076 906.564 150.112H904.728C904.152 150.076 903.9 149.824 903.9 149.32V135.532C904.692 135.46 905.52 135.352 906.348 135.28C906.96 136.216 907.5 137.152 908.004 138.052L909.984 136.648C908.652 134.344 906.78 131.68 904.332 128.62ZM888.132 134.164L886.152 134.812C886.584 135.892 887.016 137.008 887.376 138.196C885.324 138.772 883.272 139.204 881.184 139.564C883.416 137.08 886.224 132.76 889.608 126.64L887.376 125.812C886.584 127.324 885.792 128.728 885.072 130.06C883.452 130.348 881.832 130.564 880.212 130.744C881.94 128.26 883.668 124.948 885.396 120.808L883.056 119.872C881.724 123.688 880.176 127.036 878.376 129.988C878.088 130.42 877.728 130.744 877.332 130.924L877.98 133.156C879.888 132.904 881.796 132.652 883.74 132.364C881.796 135.532 880.176 137.764 878.808 139.132C878.52 139.42 878.124 139.636 877.692 139.816L878.34 142.084C881.4 141.724 884.604 141.04 887.952 140.104L888.384 141.832L890.472 141.292C889.788 138.628 888.996 136.252 888.132 134.164ZM878.736 143.848C878.556 146.8 878.16 149.392 877.512 151.696L879.78 152.38C880.356 150.004 880.716 147.232 880.86 144.1L878.736 143.848ZM884.532 143.416L882.588 143.812C882.912 145.972 883.2 148.456 883.416 151.264L885.648 150.76C885.324 148.096 884.964 145.648 884.532 143.416ZM888.42 142.48L886.548 143.092C887.124 144.748 887.628 146.656 888.06 148.852L890.004 147.952C889.572 146.008 889.032 144.208 888.42 142.48Z" fill="#F8F8F8"/>
<path d="M769.98 83.1246V85.0746H772.26V99.5646H774.36V97.9146H781.08V85.0746H783.3V83.1246H781.08V80.1546H779.01V83.1246H774.36V80.1246H772.26V83.1246H769.98ZM774.36 95.9346V91.3446H779.01V95.9346H774.36ZM779.01 89.4546H774.36V85.0746H779.01V89.4546ZM781.98 72.4446V76.6746H774.12V73.4646H771.96V78.5946H793.92V73.3746H791.76V76.6746H784.14V72.4446H781.98ZM785.97 79.4346C785.49 83.3946 784.38 86.5146 782.64 88.7346L784.29 89.8746C785.37 88.5246 786.27 86.7546 786.93 84.5946H793.26C792.87 86.2746 792.39 87.7746 791.79 89.1246L793.68 89.6646C794.37 87.8046 794.94 85.9146 795.42 83.9946V82.6746H787.44C787.65 81.7746 787.83 80.7846 787.98 79.7646L785.97 79.4346ZM788.16 86.1246C788.16 88.8846 787.83 91.1346 787.2 92.9346C786.36 95.0346 784.65 96.7746 782.07 98.2146L783.39 99.8346C786.39 98.1546 788.34 95.9946 789.18 93.4146L789.24 93.2046C790.68 95.8446 792.78 98.0646 795.54 99.8646L796.92 98.2446C793.59 96.3246 791.22 93.7146 789.84 90.4146C790.02 89.0946 790.14 87.6846 790.14 86.1246H788.16ZM812.31 75.6546C810.39 85.2546 806.04 92.5746 799.26 97.5846L800.55 99.4146C806.79 94.7946 810.99 88.2246 813.12 79.7046C814.89 87.2046 818.97 93.8046 825.33 99.5046L826.56 97.6446C819 90.7446 814.8 82.7046 813.96 73.5546H807.84V75.6546H812.31Z" fill="#F8F8F8"/>
<path d="M771.736 196.991H780.828V194.95H773.894V190.77H779.812V188.856H773.894V184.794H780.828V182.753H771.736V196.991ZM782.801 196.991H784.842V190.956C784.842 190.246 785.037 189.706 785.427 189.335C785.799 188.957 786.277 188.768 786.863 188.768C787.449 188.768 787.931 188.957 788.308 189.335C788.679 189.706 788.865 190.246 788.865 190.956V196.991H790.906V190.956C790.906 190.246 791.098 189.706 791.482 189.335C791.86 188.957 792.342 188.768 792.927 188.768C793.513 188.768 793.992 188.957 794.363 189.335C794.734 189.706 794.92 190.246 794.92 190.956V196.991H796.961V190.253C796.935 189.094 796.577 188.215 795.886 187.616C795.19 187.023 794.422 186.727 793.582 186.727C792.247 186.714 791.183 187.157 790.388 188.055C790.037 187.665 789.649 187.342 789.226 187.089C788.797 186.861 788.23 186.74 787.527 186.727C786.433 186.727 785.551 187.128 784.881 187.928H784.842V186.854H782.801V196.991ZM799.734 196.991H801.775V195.926C802.452 196.688 803.325 197.082 804.392 197.108C805.024 197.095 805.564 196.968 806.013 196.727C806.469 196.493 806.837 196.18 807.117 195.79C807.397 195.471 807.589 195.038 807.693 194.491C807.791 193.97 807.84 193.111 807.84 191.913C807.84 190.695 807.791 189.829 807.693 189.315C807.589 188.794 807.397 188.374 807.117 188.055C806.544 187.202 805.636 186.76 804.392 186.727C803.872 186.727 803.406 186.835 802.996 187.049C802.553 187.277 802.146 187.57 801.775 187.928V182.753H799.734V196.991ZM803.777 188.768C804.259 188.768 804.64 188.85 804.92 189.012C805.2 189.188 805.398 189.429 805.515 189.735C805.646 190.041 805.733 190.373 805.779 190.731C805.792 191.115 805.799 191.509 805.799 191.913C805.799 192.297 805.792 192.671 805.779 193.036C805.733 193.42 805.646 193.765 805.515 194.071C805.398 194.364 805.2 194.605 804.92 194.794C804.64 194.976 804.259 195.067 803.777 195.067C803.321 195.067 802.96 194.969 802.693 194.774C802.413 194.585 802.208 194.338 802.078 194.032C801.954 193.726 801.873 193.384 801.834 193.006C801.795 192.635 801.775 192.271 801.775 191.913C801.775 191.522 801.795 191.148 801.834 190.79C801.873 190.432 801.954 190.1 802.078 189.794C802.208 189.488 802.413 189.24 802.693 189.051C802.96 188.863 803.321 188.768 803.777 188.768ZM817.986 192.694V191.014C817.973 189.68 817.56 188.631 816.746 187.87C815.945 187.121 814.965 186.74 813.806 186.727C813.325 186.727 812.836 186.815 812.342 186.991C811.84 187.167 811.388 187.453 810.984 187.85C810.587 188.241 810.261 188.775 810.008 189.452C809.754 190.116 809.627 190.949 809.627 191.952C809.627 192.993 809.773 193.84 810.066 194.491C810.333 195.168 810.681 195.695 811.111 196.073C811.332 196.255 811.57 196.408 811.824 196.532C812.065 196.675 812.312 196.789 812.566 196.874C813.074 197.03 813.595 197.108 814.129 197.108C815.528 197.121 816.746 196.574 817.781 195.467L816.306 194.208C815.655 194.865 814.916 195.194 814.09 195.194C813.38 195.194 812.807 194.979 812.371 194.549C811.902 194.126 811.668 193.508 811.668 192.694H817.986ZM811.668 191.014C811.707 190.227 811.918 189.631 812.302 189.227C812.693 188.843 813.194 188.651 813.806 188.651C814.418 188.651 814.92 188.843 815.31 189.227C815.707 189.631 815.919 190.227 815.945 191.014H811.668ZM826.189 195.926V196.991H828.23V182.753H826.189V187.928C825.812 187.57 825.418 187.277 825.008 187.049C824.565 186.835 824.083 186.727 823.562 186.727C822.325 186.76 821.42 187.202 820.847 188.055C820.567 188.374 820.382 188.794 820.291 189.315C820.18 189.829 820.125 190.695 820.125 191.913C820.125 193.111 820.18 193.97 820.291 194.491C820.382 195.038 820.567 195.471 820.847 195.79C821.153 196.18 821.534 196.493 821.99 196.727C822.426 196.968 822.95 197.095 823.562 197.108C824.643 197.082 825.519 196.688 826.189 195.926ZM824.187 188.768C824.669 188.768 825.05 188.863 825.33 189.051C825.61 189.24 825.802 189.488 825.906 189.794C826.036 190.1 826.124 190.432 826.17 190.79C826.183 191.148 826.189 191.522 826.189 191.913C826.189 192.271 826.183 192.635 826.17 193.006C826.124 193.384 826.036 193.726 825.906 194.032C825.802 194.338 825.61 194.585 825.33 194.774C825.05 194.969 824.669 195.067 824.187 195.067C823.705 195.067 823.338 194.976 823.084 194.794C822.804 194.605 822.599 194.364 822.469 194.071C822.345 193.765 822.263 193.42 822.224 193.036C822.185 192.671 822.166 192.297 822.166 191.913C822.166 191.509 822.185 191.115 822.224 190.731C822.263 190.373 822.345 190.041 822.469 189.735C822.599 189.429 822.804 189.188 823.084 189.012C823.338 188.85 823.705 188.768 824.187 188.768ZM835.437 186.854H834.422V188.407H835.437V194.491C835.437 195.292 835.672 195.904 836.14 196.327C836.596 196.769 837.182 196.991 837.898 196.991H838.963V195.067H838.201C837.706 195.08 837.465 194.829 837.478 194.315V188.407H838.963V186.854H837.478V183.768H835.437V186.854ZM840.388 191.913C840.388 192.98 840.476 193.794 840.652 194.354C840.834 194.914 841.114 195.399 841.492 195.809C841.772 196.128 842.163 196.415 842.664 196.669C843.159 196.949 843.793 197.095 844.568 197.108C845.369 197.095 846.017 196.949 846.511 196.669C846.778 196.551 846.997 196.411 847.166 196.249C847.355 196.105 847.514 195.959 847.644 195.809C848.048 195.399 848.334 194.914 848.504 194.354C848.666 193.794 848.748 192.98 848.748 191.913C848.748 190.845 848.666 190.025 848.504 189.452C848.334 188.892 848.048 188.42 847.644 188.036C847.377 187.697 847 187.394 846.511 187.128C846.017 186.874 845.369 186.74 844.568 186.727C843.793 186.74 843.159 186.874 842.664 187.128C842.163 187.394 841.772 187.697 841.492 188.036C841.114 188.42 840.834 188.892 840.652 189.452C840.476 190.025 840.388 190.845 840.388 191.913ZM846.707 191.932C846.707 192.622 846.674 193.13 846.609 193.456C846.544 193.788 846.411 194.081 846.209 194.335C846.059 194.53 845.838 194.702 845.545 194.852C845.265 194.995 844.939 195.067 844.568 195.067C844.223 195.067 843.904 194.995 843.611 194.852C843.331 194.702 843.103 194.53 842.927 194.335C842.752 194.081 842.625 193.788 842.547 193.456C842.469 193.13 842.429 192.616 842.429 191.913C842.429 191.203 842.469 190.682 842.547 190.35C842.625 190.031 842.752 189.751 842.927 189.51C843.103 189.283 843.331 189.103 843.611 188.973C843.904 188.837 844.223 188.768 844.568 188.768C844.939 188.768 845.265 188.837 845.545 188.973C845.838 189.103 846.059 189.283 846.209 189.51C846.411 189.751 846.544 190.031 846.609 190.35C846.674 190.682 846.707 191.21 846.707 191.932ZM773.894 207.794H777.01C777.595 207.781 778.11 207.914 778.552 208.194C778.845 208.363 779.073 208.594 779.236 208.887C779.392 209.213 779.47 209.613 779.47 210.089C779.47 210.661 779.278 211.182 778.894 211.651C778.491 212.133 777.888 212.38 777.088 212.393H773.894V207.794ZM771.736 219.991H773.894V214.434H777.176C778.64 214.408 779.754 213.939 780.515 213.028C781.258 212.162 781.629 211.202 781.629 210.147C781.629 209.366 781.482 208.689 781.189 208.116C780.909 207.523 780.545 207.068 780.095 206.749C779.562 206.325 779.034 206.046 778.513 205.909C777.993 205.805 777.452 205.753 776.892 205.753H771.736V219.991ZM788.22 219.991H790.261V213.067C790.248 211.83 789.861 210.958 789.099 210.45C788.338 209.955 787.319 209.714 786.043 209.727C784.532 209.701 783.39 210.196 782.615 211.212L784.217 212.432C784.392 212.139 784.633 211.931 784.939 211.807C785.232 211.703 785.633 211.651 786.14 211.651C787.54 211.625 788.233 212.058 788.22 212.95V214.014H785.398C784.317 214.027 783.497 214.32 782.937 214.893C782.377 215.453 782.097 216.159 782.097 217.012C782.097 217.904 782.42 218.637 783.064 219.21C783.676 219.796 784.549 220.095 785.681 220.108C786.372 220.108 786.912 220.023 787.302 219.854C787.7 219.691 787.993 219.437 788.181 219.092H788.22V219.991ZM788.22 216.426C788.22 217.188 788.061 217.676 787.742 217.891C787.39 218.106 786.788 218.207 785.935 218.194C785.258 218.194 784.773 218.061 784.48 217.794C784.174 217.553 784.021 217.26 784.021 216.915C784.008 216.127 784.594 215.72 785.779 215.694H788.22V216.426ZM792.898 219.991H794.939V213.887C794.952 213.145 795.167 212.608 795.584 212.276C795.955 211.937 796.401 211.768 796.922 211.768C797.384 211.768 797.83 211.937 798.26 212.276L799.744 210.508C799.138 210.001 798.429 209.74 797.615 209.727C796.528 209.727 795.649 210.128 794.978 210.928H794.939V209.854H792.898V219.991ZM800.808 209.854H799.793V211.407H800.808V217.491C800.808 218.292 801.043 218.904 801.511 219.327C801.967 219.769 802.553 219.991 803.269 219.991H804.334V218.067H803.572C803.077 218.08 802.836 217.829 802.849 217.315V211.407H804.334V209.854H802.849V206.768H800.808V209.854ZM806.316 219.991H808.357V209.854H806.316V219.991ZM806.316 207.794H808.357V205.753H806.316V207.794ZM817.019 217.012C816.505 217.702 815.818 218.054 814.959 218.067C813.227 218.1 812.348 217.055 812.322 214.932C812.348 212.797 813.227 211.742 814.959 211.768C815.818 211.794 816.505 212.149 817.019 212.833L818.523 211.495C818.08 210.961 817.56 210.534 816.961 210.215C816.362 209.903 815.668 209.74 814.881 209.727C813.683 209.714 812.631 210.115 811.726 210.928C810.789 211.755 810.307 213.09 810.281 214.932C810.307 216.755 810.789 218.074 811.726 218.887C812.631 219.701 813.683 220.108 814.881 220.108C815.668 220.095 816.362 219.922 816.961 219.59C817.56 219.271 818.08 218.858 818.523 218.35L817.019 217.012ZM819.949 217.53C819.949 218.422 820.203 219.057 820.711 219.434C821.192 219.805 821.804 219.991 822.547 219.991H823.455V218.067H822.752C822.244 218.067 821.99 217.836 821.99 217.374V205.753H819.949V217.53ZM832.967 215.694V214.014C832.954 212.68 832.54 211.631 831.726 210.87C830.926 210.121 829.946 209.74 828.787 209.727C828.305 209.727 827.817 209.815 827.322 209.991C826.821 210.167 826.368 210.453 825.965 210.85C825.567 211.241 825.242 211.775 824.988 212.452C824.734 213.116 824.607 213.949 824.607 214.952C824.607 215.993 824.754 216.84 825.047 217.491C825.314 218.168 825.662 218.695 826.092 219.073C826.313 219.255 826.551 219.408 826.804 219.532C827.045 219.675 827.293 219.789 827.547 219.874C828.054 220.03 828.575 220.108 829.109 220.108C830.509 220.121 831.726 219.574 832.761 218.467L831.287 217.208C830.636 217.865 829.897 218.194 829.07 218.194C828.36 218.194 827.788 217.979 827.351 217.549C826.883 217.126 826.648 216.508 826.648 215.694H832.967ZM826.648 214.014C826.687 213.227 826.899 212.631 827.283 212.227C827.674 211.843 828.175 211.651 828.787 211.651C829.399 211.651 829.9 211.843 830.291 212.227C830.688 212.631 830.899 213.227 830.926 214.014H826.648ZM840.271 216.534L838.855 218.155C840.372 219.457 842.185 220.108 844.295 220.108C847.556 220.069 849.223 218.689 849.295 215.967C849.295 214.958 848.979 214.073 848.347 213.311C847.709 212.536 846.723 212.058 845.388 211.876C844.711 211.791 844.177 211.716 843.787 211.651C843.084 211.521 842.573 211.286 842.254 210.948C841.935 210.616 841.775 210.245 841.775 209.835C841.788 209.151 842.026 208.637 842.488 208.292C842.931 207.96 843.484 207.794 844.148 207.794C845.431 207.82 846.606 208.184 847.674 208.887L848.875 207.11C847.566 206.166 846.026 205.674 844.256 205.635C842.784 205.648 841.648 206.033 840.847 206.788C840.021 207.549 839.607 208.552 839.607 209.796C839.607 210.831 839.936 211.71 840.594 212.432C841.232 213.135 842.163 213.588 843.386 213.79C844.07 213.887 844.698 213.975 845.271 214.053C846.521 214.268 847.14 214.906 847.127 215.967C847.101 217.263 846.163 217.924 844.314 217.95C842.752 217.937 841.404 217.465 840.271 216.534ZM853.572 219.59L853.015 221.29C852.924 221.583 852.765 221.804 852.537 221.954C852.309 222.097 852.062 222.169 851.795 222.169H851.199V224.092H851.873C852.504 224.092 853.071 223.952 853.572 223.672C854.067 223.38 854.454 222.852 854.734 222.09L859.099 209.854H856.931L854.539 216.954H854.5L852.097 209.854H849.939L853.572 219.59ZM860.584 216.895L859.158 218.292C860.48 219.503 861.967 220.108 863.621 220.108C864.838 220.095 865.838 219.815 866.619 219.268C867.407 218.734 867.807 217.976 867.82 216.993C867.82 216.153 867.602 215.46 867.166 214.913C866.697 214.353 865.935 214.034 864.881 213.956L863.201 213.829C862.706 213.777 862.361 213.656 862.166 213.467C861.951 213.298 861.85 213.1 861.863 212.872C861.863 212.514 861.997 212.221 862.263 211.993C862.517 211.765 862.963 211.651 863.601 211.651C864.161 211.651 864.656 211.732 865.086 211.895C865.522 212.077 865.935 212.309 866.326 212.589L867.586 211.114C867.091 210.684 866.531 210.342 865.906 210.089C865.58 209.971 865.232 209.88 864.861 209.815C864.49 209.756 864.07 209.727 863.601 209.727C862.521 209.727 861.629 209.988 860.926 210.508C860.203 211.029 859.835 211.811 859.822 212.852C859.835 213.718 860.115 214.392 860.662 214.874C861.196 215.368 861.889 215.655 862.742 215.733L864.539 215.889C864.916 215.902 865.219 215.984 865.447 216.133C865.668 216.277 865.779 216.531 865.779 216.895C865.779 217.305 865.594 217.624 865.222 217.852C864.851 218.08 864.373 218.194 863.787 218.194C862.478 218.194 861.411 217.761 860.584 216.895ZM870.008 209.854H868.992V211.407H870.008V217.491C870.008 218.292 870.242 218.904 870.711 219.327C871.166 219.769 871.752 219.991 872.469 219.991H873.533V218.067H872.771C872.276 218.08 872.036 217.829 872.049 217.315V211.407H873.533V209.854H872.049V206.768H870.008V209.854ZM883.318 215.694V214.014C883.305 212.68 882.892 211.631 882.078 210.87C881.277 210.121 880.297 209.74 879.138 209.727C878.657 209.727 878.168 209.815 877.674 209.991C877.172 210.167 876.72 210.453 876.316 210.85C875.919 211.241 875.594 211.775 875.34 212.452C875.086 213.116 874.959 213.949 874.959 214.952C874.959 215.993 875.105 216.84 875.398 217.491C875.665 218.168 876.013 218.695 876.443 219.073C876.664 219.255 876.902 219.408 877.156 219.532C877.397 219.675 877.644 219.789 877.898 219.874C878.406 220.03 878.927 220.108 879.461 220.108C880.86 220.121 882.078 219.574 883.113 218.467L881.638 217.208C880.987 217.865 880.248 218.194 879.422 218.194C878.712 218.194 878.139 217.979 877.703 217.549C877.234 217.126 877 216.508 877 215.694H883.318ZM877 214.014C877.039 213.227 877.25 212.631 877.635 212.227C878.025 211.843 878.526 211.651 879.138 211.651C879.75 211.651 880.252 211.843 880.642 212.227C881.039 212.631 881.251 213.227 881.277 214.014H877ZM885.574 219.991H887.615V213.956C887.615 213.246 887.81 212.706 888.201 212.335C888.572 211.957 889.051 211.768 889.636 211.768C890.222 211.768 890.704 211.957 891.082 212.335C891.453 212.706 891.638 213.246 891.638 213.956V219.991H893.679V213.956C893.679 213.246 893.872 212.706 894.256 212.335C894.633 211.957 895.115 211.768 895.701 211.768C896.287 211.768 896.765 211.957 897.136 212.335C897.508 212.706 897.693 213.246 897.693 213.956V219.991H899.734V213.253C899.708 212.094 899.35 211.215 898.66 210.616C897.963 210.023 897.195 209.727 896.355 209.727C895.021 209.714 893.956 210.157 893.162 211.055C892.81 210.665 892.423 210.342 892 210.089C891.57 209.861 891.004 209.74 890.301 209.727C889.207 209.727 888.325 210.128 887.654 210.928H887.615V209.854H885.574V219.991Z" fill="#B7B7B7"/>
<path d="M333.68 151.723C334.266 151.137 334.266 150.187 333.68 149.602L324.134 140.056C323.548 139.47 322.599 139.47 322.013 140.056C321.427 140.641 321.427 141.591 322.013 142.177L330.498 150.662L322.013 159.148C321.427 159.733 321.427 160.683 322.013 161.269C322.599 161.855 323.548 161.855 324.134 161.269L333.68 151.723ZM299.134 152.162H332.619V149.162H299.134V152.162Z" fill="#F2F2F2"/>
<path d="M681.926 151.723C682.512 151.137 682.512 150.187 681.926 149.602L672.38 140.056C671.794 139.47 670.845 139.47 670.259 140.056C669.673 140.641 669.673 141.591 670.259 142.177L678.744 150.662L670.259 159.148C669.673 159.733 669.673 160.683 670.259 161.269C670.845 161.855 671.794 161.855 672.38 161.269L681.926 151.723ZM647.38 152.162H680.866V149.162H647.38V152.162Z" fill="#F2F2F2"/>
<defs>
<filter id="filter0_d" x="-39" y="0.224808" width="363.74" height="362" filterUnits="userSpaceOnUse" color-interpolation-filters="sRGB">
<feFlood flood-opacity="0" result="BackgroundImageFix"/>
<feColorMatrix in="SourceAlpha" type="matrix" values="0 0 0 0 0 0 0 0 0 0 0 0 0 0 0 0 0 0 127 0"/>
<feMorphology radius="5" operator="erode" in="SourceAlpha" result="effect1_dropShadow"/>
<feOffset dy="35"/>
<feGaussianBlur stdDeviation="21.5"/>
<feColorMatrix type="matrix" values="0 0 0 0 0.9625 0 0 0 0 0.9625 0 0 0 0 0.9625 0 0 0 0.25 0"/>
<feBlend mode="normal" in2="BackgroundImageFix" result="effect1_dropShadow"/>
<feBlend mode="normal" in="SourceGraphic" in2="effect1_dropShadow" result="shape"/>
</filter>
<filter id="filter1_d" x="308.13" y="0.224808" width="363.74" height="362" filterUnits="userSpaceOnUse" color-interpolation-filters="sRGB">
<feFlood flood-opacity="0" result="BackgroundImageFix"/>
<feColorMatrix in="SourceAlpha" type="matrix" values="0 0 0 0 0 0 0 0 0 0 0 0 0 0 0 0 0 0 127 0"/>
<feMorphology radius="5" operator="erode" in="SourceAlpha" result="effect1_dropShadow"/>
<feOffset dy="35"/>
<feGaussianBlur stdDeviation="21.5"/>
<feColorMatrix type="matrix" values="0 0 0 0 0.9625 0 0 0 0 0.9625 0 0 0 0 0.9625 0 0 0 0.25 0"/>
<feBlend mode="normal" in2="BackgroundImageFix" result="effect1_dropShadow"/>
<feBlend mode="normal" in="SourceGraphic" in2="effect1_dropShadow" result="shape"/>
</filter>
<filter id="filter2_d" x="655.26" y="0.224808" width="363.74" height="362" filterUnits="userSpaceOnUse" color-interpolation-filters="sRGB">
<feFlood flood-opacity="0" result="BackgroundImageFix"/>
<feColorMatrix in="SourceAlpha" type="matrix" values="0 0 0 0 0 0 0 0 0 0 0 0 0 0 0 0 0 0 127 0"/>
<feMorphology radius="5" operator="erode" in="SourceAlpha" result="effect1_dropShadow"/>
<feOffset dy="35"/>
<feGaussianBlur stdDeviation="21.5"/>
<feColorMatrix type="matrix" values="0 0 0 0 0.9625 0 0 0 0 0.9625 0 0 0 0 0.9625 0 0 0 0.25 0"/>
<feBlend mode="normal" in2="BackgroundImageFix" result="effect1_dropShadow"/>
<feBlend mode="normal" in="SourceGraphic" in2="effect1_dropShadow" result="shape"/>
</filter>
<linearGradient id="paint0_linear" x1="23" y1="66.8291" x2="263.598" y2="226.998" gradientUnits="userSpaceOnUse">
<stop stop-color="white"/>
<stop offset="0.401042" stop-color="white" stop-opacity="0"/>
<stop offset="1" stop-color="white"/>
</linearGradient>
<linearGradient id="paint1_linear" x1="363" y1="219.413" x2="626.739" y2="95.1969" gradientUnits="userSpaceOnUse">
<stop stop-color="white"/>
<stop offset="0.505208" stop-color="white" stop-opacity="0"/>
<stop offset="1" stop-color="white"/>
</linearGradient>
<linearGradient id="paint2_linear" x1="931" y1="23.9462" x2="724.635" y2="258.864" gradientUnits="userSpaceOnUse">
<stop stop-color="white"/>
<stop offset="0.5" stop-color="white" stop-opacity="0"/>
<stop offset="1" stop-color="white"/>
</linearGradient>
</defs>
</svg>
