<?xml version="1.0" standalone="no"?>
<!DOCTYPE svg PUBLIC "-//W3C//DTD SVG 20010904//EN"
 "http://www.w3.org/TR/2001/REC-SVG-20010904/DTD/svg10.dtd">
<svg version="1.0" xmlns="http://www.w3.org/2000/svg"
 width="455.000000pt" height="455.000000pt" viewBox="0 0 455.000000 455.000000"
 preserveAspectRatio="xMidYMid meet">
<metadata>
Created by potrace 1.11, written by Peter Selinger 2001-2013
</metadata>
<g transform="translate(0.000000,455.000000) scale(0.100000,-0.100000)"
fill="#000000" stroke="none">
<path d="M3525 4533 c-183 -66 -284 -185 -518 -614 l-37 -67 -103 33 c-738
240 -1555 8 -2045 -580 -437 -523 -564 -1206 -345 -1855 36 -108 142 -321 208
-420 170 -254 398 -464 667 -616 103 -59 119 -71 113 -88 -15 -55 -55 -215
-60 -248 -6 -29 -3 -40 15 -58 41 -41 60 -21 160 160 29 52 53 96 55 98 1 1
58 -13 127 -32 179 -49 324 -68 513 -68 425 0 814 130 1153 386 99 76 256 228
335 326 159 196 292 463 356 715 111 435 64 902 -132 1305 -92 190 -258 416
-406 553 -59 56 -62 41 30 153 128 156 261 390 294 519 19 77 19 179 -1 238
-19 57 -81 122 -141 149 -64 28 -175 33 -238 11z m202 -104 c51 -25 78 -59 93
-122 17 -67 -8 -170 -73 -299 -108 -214 -233 -374 -493 -628 -215 -210 -604
-546 -604 -522 0 12 124 325 188 472 138 320 319 676 427 840 149 226 326 325
462 259z m-1152 -572 c149 -28 329 -80 340 -98 3 -5 -23 -71 -58 -146 -108
-231 -273 -632 -348 -847 -12 -35 -41 -60 -244 -211 -126 -94 -367 -270 -535
-390 -483 -346 -895 -656 -1058 -797 -18 -15 -36 -28 -40 -28 -10 0 -76 177
-102 273 -34 126 -51 248 -57 407 -25 699 362 1351 987 1665 178 89 361 149
540 174 41 6 86 13 100 15 55 10 399 -3 475 -17z m1005 -534 c418 -448 585
-1042 458 -1632 -130 -607 -593 -1123 -1185 -1321 -359 -120 -729 -128 -1085
-23 l-87 26 50 99 c60 120 160 343 224 498 44 109 51 120 133 204 93 94 285
256 334 282 40 21 77 14 100 -17 16 -22 22 -58 33 -205 14 -178 29 -254 67
-327 101 -199 360 -229 628 -72 173 102 328 253 461 453 83 124 91 148 59 174
-13 10 -30 17 -39 16 -9 -2 -35 -32 -58 -68 -178 -278 -374 -461 -581 -543
-64 -26 -91 -31 -163 -31 -78 -1 -90 2 -135 29 -58 37 -105 107 -123 189 -7
31 -16 120 -21 198 -14 230 -41 306 -118 329 -74 22 -155 -19 -332 -169 -52
-44 -96 -79 -97 -78 -2 2 18 59 43 127 38 102 336 941 406 1141 19 55 26 62
166 175 225 180 411 343 582 509 l155 152 26 -19 c15 -10 60 -54 99 -96z
m-1204 -925 c-255 -727 -419 -1175 -453 -1242 -9 -17 -38 -57 -66 -90 -109
-132 -259 -387 -327 -558 -12 -32 -26 -58 -32 -58 -15 0 -168 90 -262 154
-109 74 -295 251 -383 363 -59 76 -183 268 -183 284 0 4 8 9 17 12 10 2 83 58
163 122 187 152 524 404 920 688 173 124 392 282 485 351 94 69 171 125 172
125 1 1 -22 -68 -51 -151z"/>
<path d="M1571 3615 c-233 -114 -425 -264 -587 -456 -64 -76 -75 -104 -52
-127 27 -27 64 -14 104 36 157 194 344 342 582 461 105 53 122 65 122 85 0 72
-24 72 -169 1z"/>
<path d="M1971 3625 c-159 -52 -350 -143 -482 -230 -87 -56 -99 -68 -99 -93 0
-31 16 -52 40 -52 9 0 54 25 101 56 123 81 325 178 478 228 74 24 138 51 142
59 13 22 -5 63 -29 70 -11 2 -79 -15 -151 -38z"/>
</g>
</svg>
