<svg xmlns="http://www.w3.org/2000/svg" xmlns:xlink="http://www.w3.org/1999/xlink" viewBox="0 0 393.04 207.96"><defs><style>.cls-1{fill:url(#未命名漸層_167);}.cls-2{fill:url(#未命名漸層_100);}.cls-3{fill:url(#未命名漸層_117);}.cls-4{fill:url(#未命名漸層_117-2);}.cls-5{fill:url(#未命名漸層_117-3);}.cls-6{fill:url(#未命名漸層_126);}.cls-7{fill:url(#未命名漸層_126-2);}.cls-8{fill:url(#未命名漸層_127);}.cls-9{fill:url(#未命名漸層_143);}.cls-10{fill:url(#未命名漸層_128);}.cls-11{fill:url(#未命名漸層_130);}.cls-12{fill:url(#未命名漸層_167-2);}.cls-13{fill:url(#未命名漸層_100-2);}.cls-14{fill:url(#未命名漸層_117-4);}.cls-15{fill:url(#未命名漸層_117-5);}.cls-16{fill:url(#未命名漸層_117-6);}.cls-17{fill:url(#未命名漸層_126-3);}.cls-18{fill:url(#未命名漸層_126-4);}.cls-19{fill:url(#未命名漸層_127-2);}.cls-20{fill:url(#未命名漸層_143-2);}.cls-21{fill:url(#未命名漸層_128-2);}.cls-22{fill:url(#未命名漸層_130-2);}.cls-23{fill:url(#未命名漸層_8);}.cls-24{fill:url(#未命名漸層_19);}.cls-25{fill:url(#未命名漸層_19-2);}.cls-26{fill:url(#未命名漸層_19-3);}.cls-27{fill:url(#未命名漸層_19-4);}.cls-28{fill:url(#未命名漸層_19-5);}.cls-29{fill:url(#未命名漸層_19-6);}.cls-30{fill:url(#未命名漸層_19-7);}.cls-31{isolation:isolate;}.cls-32{fill:url(#未命名漸層_2);}.cls-33{fill:url(#未命名漸層_2-2);}.cls-34{fill:url(#未命名漸層_2-3);}.cls-35{fill:url(#未命名漸層_2-4);}.cls-36{fill:url(#未命名漸層_2-5);}.cls-37{fill:url(#未命名漸層_2-6);}.cls-38{fill:url(#未命名漸層_2-7);}.cls-39{fill:url(#未命名漸層_2-8);}.cls-40{fill:url(#未命名漸層_2-9);}.cls-41{fill:url(#未命名漸層_2-10);}.cls-42{fill:url(#未命名漸層_2-11);}.cls-43{fill:url(#未命名漸層_2-12);}.cls-44{fill:url(#未命名漸層_2-13);}.cls-45{fill:url(#未命名漸層_2-14);}.cls-46{fill:url(#未命名漸層_2-15);}.cls-47{fill:url(#未命名漸層_2-16);}.cls-48{fill:url(#未命名漸層_2-17);}.cls-49{fill:url(#未命名漸層_2-18);}.cls-50{mask:url(#mask);}.cls-51{fill:url(#未命名漸層_91);}.cls-52{fill:url(#未命名漸層_91-2);}.cls-53{fill:url(#未命名漸層_91-3);}.cls-54{mask:url(#mask-2);}.cls-55{fill:url(#未命名漸層_91-4);}.cls-56{fill:url(#未命名漸層_91-5);}.cls-57{fill:url(#未命名漸層_91-6);}.cls-58{fill:url(#未命名漸層_91-7);}.cls-59{fill:url(#未命名漸層_91-8);}.cls-60{fill:url(#未命名漸層_91-9);}.cls-61{fill:url(#未命名漸層_91-10);}.cls-62{fill:url(#未命名漸層_91-11);}.cls-63{fill:url(#未命名漸層_91-12);}.cls-64{fill:url(#未命名漸層_91-13);}.cls-65{mask:url(#mask-3);}.cls-66{fill:url(#未命名漸層_206);}.cls-67{fill:url(#未命名漸層_243);}.cls-68{fill:url(#未命名漸層_216);}.cls-123,.cls-69,.cls-76{fill:#fff;}.cls-69{opacity:0.7;}.cls-69,.cls-76{mix-blend-mode:soft-light;}.cls-70{opacity:0.3;fill:url(#未命名漸層_190);}.cls-71{fill:url(#未命名漸層_101);}.cls-72{fill:url(#未命名漸層_265);}.cls-73{fill:url(#未命名漸層_182);}.cls-74{fill:url(#未命名漸層_199);}.cls-75{fill:url(#未命名漸層_46);}.cls-77{fill:url(#未命名漸層_101-2);}.cls-78{fill:url(#未命名漸層_265-2);}.cls-79{fill:url(#未命名漸層_190-2);}.cls-80{fill:url(#未命名漸層_182-2);}.cls-81{fill:url(#未命名漸層_199-2);}.cls-82{fill:url(#未命名漸層_199-3);}.cls-83{fill:url(#未命名漸層_182-3);}.cls-84{fill:url(#未命名漸層_199-4);}.cls-85{fill:url(#未命名漸層_199-5);}.cls-86{fill:url(#未命名漸層_182-4);}.cls-87{fill:url(#未命名漸層_199-6);}.cls-88{fill:url(#未命名漸層_199-7);}.cls-89{fill:url(#未命名漸層_182-5);}.cls-90{fill:url(#未命名漸層_199-8);}.cls-91{fill:url(#未命名漸層_199-9);}.cls-92{fill:url(#未命名漸層_182-6);}.cls-93{fill:url(#未命名漸層_199-10);}.cls-94{fill:url(#未命名漸層_199-11);}.cls-95{fill:url(#未命名漸層_182-7);}.cls-96{fill:url(#未命名漸層_199-12);}.cls-97{fill:url(#未命名漸層_199-13);}.cls-98{fill:url(#未命名漸層_182-8);}.cls-99{fill:url(#未命名漸層_199-14);}.cls-100{fill:url(#未命名漸層_199-15);}.cls-101{fill:url(#未命名漸層_182-9);}.cls-102{fill:url(#未命名漸層_199-16);}.cls-103{fill:url(#未命名漸層_199-17);}.cls-104{fill:url(#未命名漸層_182-10);}.cls-105{fill:url(#未命名漸層_199-18);}.cls-106{fill:url(#未命名漸層_182-11);}.cls-107{fill:url(#未命名漸層_199-19);}.cls-108{fill:url(#未命名漸層_199-20);}.cls-109{fill:url(#未命名漸層_182-12);}.cls-110{fill:url(#未命名漸層_199-21);}.cls-111{fill:url(#未命名漸層_199-22);}.cls-112{fill:url(#未命名漸層_182-13);}.cls-113{fill:url(#未命名漸層_199-23);}.cls-114{fill:url(#未命名漸層_199-24);}.cls-115{fill:#ccafbc;opacity:0.5;mix-blend-mode:multiply;}.cls-116{fill:url(#未命名漸層_228);}.cls-117{fill:url(#未命名漸層_228-2);}.cls-118{fill:url(#未命名漸層_228-3);}.cls-119{fill:url(#未命名漸層_228-4);}.cls-120{fill:url(#未命名漸層_228-5);}.cls-121{fill:url(#未命名漸層_228-6);}.cls-122{fill:url(#未命名漸層_3);}.cls-124{fill:url(#未命名漸層_3-2);}.cls-125{fill:url(#未命名漸層_3-3);}.cls-126{fill:url(#未命名漸層_3-4);}.cls-127{fill:url(#未命名漸層_3-5);}.cls-128{fill:url(#未命名漸層_3-6);}</style><linearGradient id="未命名漸層_167" x1="-16.43" y1="0.16" x2="233.13" y2="0.16" gradientUnits="userSpaceOnUse"><stop offset="0" stop-color="#9fa0a0"/><stop offset="0.05" stop-color="#abacac"/><stop offset="0.14" stop-color="#cbcccc"/><stop offset="0.27" stop-color="#fefefe"/><stop offset="0.27" stop-color="#fff"/><stop offset="0.44" stop-color="#fcfcfc"/><stop offset="0.56" stop-color="#f3f3f3"/><stop offset="0.66" stop-color="#e3e3e3"/><stop offset="0.76" stop-color="#cdcdcd"/><stop offset="0.85" stop-color="#b1b0b0"/><stop offset="0.94" stop-color="#8e8e8e"/><stop offset="1" stop-color="#727171"/></linearGradient><linearGradient id="未命名漸層_100" x1="-16.31" y1="90.55" x2="302.39" y2="90.22" gradientTransform="translate(276.33 180.78) rotate(180)" gradientUnits="userSpaceOnUse"><stop offset="0" stop-color="#231815"/><stop offset="0.03" stop-color="#2e2421"/><stop offset="0.07" stop-color="#4c4441"/><stop offset="0.13" stop-color="#7d7775"/><stop offset="0.2" stop-color="#c0bdbc"/><stop offset="0.27" stop-color="#fff"/><stop offset="0.44" stop-color="#fcfcfc"/><stop offset="0.56" stop-color="#f3f3f3"/><stop offset="0.66" stop-color="#e3e3e3"/><stop offset="0.76" stop-color="#cdcdcd"/><stop offset="0.85" stop-color="#b1b0b0"/><stop offset="0.94" stop-color="#8e8e8e"/><stop offset="1" stop-color="#727171"/></linearGradient><linearGradient id="未命名漸層_117" x1="-16.43" y1="9.25" x2="233.13" y2="9.25" gradientUnits="userSpaceOnUse"><stop offset="0" stop-color="#4c4948"/><stop offset="0.04" stop-color="#575554"/><stop offset="0.11" stop-color="#767474"/><stop offset="0.21" stop-color="#a7a7a7"/><stop offset="0.24" stop-color="#b5b5b6"/><stop offset="1" stop-color="#fff"/></linearGradient><linearGradient id="未命名漸層_117-2" x1="-16.43" y1="54.57" x2="233.13" y2="54.57" xlink:href="#未命名漸層_117"/><linearGradient id="未命名漸層_117-3" x1="-7018.77" y1="81.36" x2="-6769.21" y2="81.36" gradientTransform="matrix(1, 0, 0, -1, 7002.34, 162.72)" xlink:href="#未命名漸層_117"/><linearGradient id="未命名漸層_126" x1="-16.43" y1="18.33" x2="233.13" y2="18.33" gradientUnits="userSpaceOnUse"><stop offset="0.13" stop-color="#b5b5b6"/><stop offset="0.21" stop-color="#c1c1c2"/><stop offset="0.36" stop-color="#e1e1e1"/><stop offset="0.47" stop-color="#fff"/><stop offset="1" stop-color="#dcdddd"/></linearGradient><linearGradient id="未命名漸層_126-2" x1="-16.43" y1="72.27" x2="233.13" y2="72.27" xlink:href="#未命名漸層_126"/><linearGradient id="未命名漸層_127" x1="-7018.77" y1="27.42" x2="-6769.21" y2="27.42" gradientTransform="matrix(1, 0, 0, -1, 7002.34, 54.84)" gradientUnits="userSpaceOnUse"><stop offset="0" stop-color="#727171"/><stop offset="0.04" stop-color="#7e7d7d"/><stop offset="0.11" stop-color="#9e9d9d"/><stop offset="0.19" stop-color="#d1d0d0"/><stop offset="0.27" stop-color="#fff"/><stop offset="0.44" stop-color="#fcfcfc"/><stop offset="0.56" stop-color="#f3f3f3"/><stop offset="0.66" stop-color="#e3e3e3"/><stop offset="0.76" stop-color="#cdcdcd"/><stop offset="0.85" stop-color="#b1b0b0"/><stop offset="0.94" stop-color="#8e8e8e"/><stop offset="1" stop-color="#727171"/></linearGradient><linearGradient id="未命名漸層_143" x1="277.76" y1="37.22" x2="25.25" y2="35.93" gradientTransform="translate(276.33 73.01) rotate(180)" gradientUnits="userSpaceOnUse"><stop offset="0" stop-color="#aaabab"/><stop offset="0.25" stop-color="#b5b5b6"/><stop offset="0.68" stop-color="#efefef"/></linearGradient><linearGradient id="未命名漸層_128" x1="-7018.77" y1="63.22" x2="-6769.21" y2="63.22" gradientTransform="matrix(1, 0, 0, -1, 7002.34, 126.44)" gradientUnits="userSpaceOnUse"><stop offset="0" stop-color="#aaabab"/><stop offset="0.24" stop-color="#b5b5b6"/><stop offset="1" stop-color="#fff"/></linearGradient><linearGradient id="未命名漸層_130" x1="-16.43" y1="45.59" x2="233.13" y2="45.59" gradientUnits="userSpaceOnUse"><stop offset="0.13" stop-color="#b5b5b6"/><stop offset="0.21" stop-color="#c1c1c2"/><stop offset="0.36" stop-color="#e1e1e1"/><stop offset="0.47" stop-color="#fff"/><stop offset="1" stop-color="#efefef"/></linearGradient><linearGradient id="未命名漸層_167-2" x1="-18.69" y1="114.67" x2="322.88" y2="114.67" xlink:href="#未命名漸層_167"/><linearGradient id="未命名漸層_100-2" x1="-18.53" y1="208.49" x2="417.69" y2="208.04" gradientTransform="translate(385.8 416.54) rotate(180)" xlink:href="#未命名漸層_100"/><linearGradient id="未命名漸層_117-4" x1="-18.69" y1="124.1" x2="322.88" y2="124.1" xlink:href="#未命名漸層_117"/><linearGradient id="未命名漸層_117-5" x1="-18.69" y1="171.12" x2="322.88" y2="171.12" xlink:href="#未命名漸層_117"/><linearGradient id="未命名漸層_117-6" x1="-7130.51" y1="198.91" x2="-6788.94" y2="198.91" gradientTransform="matrix(1, 0, 0, -1, 7111.81, 397.81)" xlink:href="#未命名漸層_117"/><linearGradient id="未命名漸層_126-3" x1="-18.69" y1="133.52" x2="322.88" y2="133.52" xlink:href="#未命名漸層_126"/><linearGradient id="未命名漸層_126-4" x1="-18.69" y1="189.48" x2="322.88" y2="189.48" xlink:href="#未命名漸層_126"/><linearGradient id="未命名漸層_127-2" x1="-7130.51" y1="142.95" x2="-6788.94" y2="142.95" gradientTransform="matrix(1, 0, 0, -1, 7111.81, 285.9)" xlink:href="#未命名漸層_127"/><linearGradient id="未命名漸層_143-2" x1="383.97" y1="153.36" x2="38.36" y2="151.58" gradientTransform="translate(385.8 304.75) rotate(180)" xlink:href="#未命名漸層_143"/><linearGradient id="未命名漸層_128-2" x1="-7130.51" y1="180.09" x2="-6788.94" y2="180.09" gradientTransform="matrix(1, 0, 0, -1, 7111.81, 360.18)" xlink:href="#未命名漸層_128"/><linearGradient id="未命名漸層_130-2" x1="-18.69" y1="161.8" x2="322.88" y2="161.8" xlink:href="#未命名漸層_130"/><linearGradient id="未命名漸層_8" x1="214.88" y1="369.94" x2="244.48" y2="369.94" gradientTransform="matrix(1.08, -0.1, 0.09, 1, -102.25, -308.59)" gradientUnits="userSpaceOnUse"><stop offset="0" stop-color="#040000"/><stop offset="0.09" stop-color="#100c0c"/><stop offset="0.25" stop-color="#2f2c2c"/><stop offset="0.46" stop-color="#636060"/><stop offset="0.72" stop-color="#aaa8a8"/><stop offset="1" stop-color="#fff"/></linearGradient><linearGradient id="未命名漸層_19" x1="215.64" y1="373.25" x2="257.74" y2="373.4" gradientTransform="matrix(1.08, -0.1, 0.09, 1, -102.25, -308.59)" gradientUnits="userSpaceOnUse"><stop offset="0" stop-color="#040000"/><stop offset="0.11" stop-color="#090505"/><stop offset="0.23" stop-color="#161212"/><stop offset="0.36" stop-color="#2d2929"/><stop offset="0.5" stop-color="#4c4949"/><stop offset="0.64" stop-color="#757373"/><stop offset="0.78" stop-color="#a6a5a5"/><stop offset="0.93" stop-color="#e0dfdf"/><stop offset="1" stop-color="#fff"/></linearGradient><linearGradient id="未命名漸層_19-2" x1="216.22" y1="377.52" x2="248.6" y2="377.21" xlink:href="#未命名漸層_19"/><linearGradient id="未命名漸層_19-3" x1="220.22" y1="380" x2="269.11" y2="380.46" xlink:href="#未命名漸層_19"/><linearGradient id="未命名漸層_19-4" x1="238.36" y1="384.02" x2="257.27" y2="384.02" xlink:href="#未命名漸層_19"/><linearGradient id="未命名漸層_19-5" x1="216.32" y1="387.53" x2="261.8" y2="387.53" xlink:href="#未命名漸層_19"/><linearGradient id="未命名漸層_19-6" x1="215.47" y1="391.29" x2="251.55" y2="391.13" xlink:href="#未命名漸層_19"/><linearGradient id="未命名漸層_19-7" x1="221.89" y1="394.55" x2="272.31" y2="394.55" xlink:href="#未命名漸層_19"/><linearGradient id="未命名漸層_2" x1="385.32" y1="-26.62" x2="300.42" y2="24.89" gradientUnits="userSpaceOnUse"><stop offset="0" stop-color="#e73275"/><stop offset="0.18" stop-color="#e23477"/><stop offset="0.39" stop-color="#d5387d"/><stop offset="0.61" stop-color="#be4086"/><stop offset="0.84" stop-color="#9e4a93"/><stop offset="1" stop-color="#83539e"/></linearGradient><linearGradient id="未命名漸層_2-2" x1="390.41" y1="-18.23" x2="305.51" y2="33.27" xlink:href="#未命名漸層_2"/><linearGradient id="未命名漸層_2-3" x1="393.22" y1="-13.59" x2="308.32" y2="37.91" xlink:href="#未命名漸層_2"/><linearGradient id="未命名漸層_2-4" x1="396.81" y1="-7.68" x2="311.91" y2="43.82" xlink:href="#未命名漸層_2"/><linearGradient id="未命名漸層_2-5" x1="402.54" y1="1.76" x2="317.64" y2="53.27" xlink:href="#未命名漸層_2"/><linearGradient id="未命名漸層_2-6" x1="406.21" y1="7.82" x2="321.31" y2="59.32" xlink:href="#未命名漸層_2"/><linearGradient id="未命名漸層_2-7" x1="401.71" y1="0.4" x2="316.81" y2="51.91" xlink:href="#未命名漸層_2"/><linearGradient id="未命名漸層_2-8" x1="405.9" y1="7.3" x2="321" y2="58.8" xlink:href="#未命名漸層_2"/><linearGradient id="未命名漸層_2-9" x1="408.71" y1="11.94" x2="323.81" y2="63.45" xlink:href="#未命名漸層_2"/><linearGradient id="未命名漸層_2-10" x1="414.15" y1="20.91" x2="329.25" y2="72.41" xlink:href="#未命名漸層_2"/><linearGradient id="未命名漸層_2-11" x1="417.93" y1="27.13" x2="333.03" y2="78.63" xlink:href="#未命名漸層_2"/><linearGradient id="未命名漸層_2-12" x1="404.8" y1="5.49" x2="319.9" y2="56.99" xlink:href="#未命名漸層_2"/><linearGradient id="未命名漸層_2-13" x1="409.1" y1="12.59" x2="324.21" y2="64.09" xlink:href="#未命名漸層_2"/><linearGradient id="未命名漸層_2-14" x1="412.5" y1="18.18" x2="327.6" y2="69.69" xlink:href="#未命名漸層_2"/><linearGradient id="未命名漸層_2-15" x1="417.63" y1="26.64" x2="332.73" y2="78.14" xlink:href="#未命名漸層_2"/><linearGradient id="未命名漸層_2-16" x1="421.66" y1="33.29" x2="336.77" y2="84.79" xlink:href="#未命名漸層_2"/><linearGradient id="未命名漸層_2-17" x1="425.59" y1="39.76" x2="340.69" y2="91.27" xlink:href="#未命名漸層_2"/><linearGradient id="未命名漸層_2-18" x1="429.58" y1="46.34" x2="344.68" y2="97.84" xlink:href="#未命名漸層_2"/><mask id="mask" x="-32.03" y="-4.38" width="340.39" height="99.31" maskUnits="userSpaceOnUse"><g id="gradient"><rect class="cls-1" x="-32.03" y="-4.38" width="340.39" height="9.09"/><rect class="cls-2" x="-32.03" y="85.84" width="340.39" height="9.09" transform="translate(276.33 180.78) rotate(-180)"/><rect class="cls-3" x="-32.03" y="4.7" width="340.39" height="9.09"/><rect class="cls-4" x="-32.03" y="50.03" width="340.39" height="9.09"/><rect class="cls-5" x="-32.03" y="76.82" width="340.39" height="9.09" transform="translate(276.33 162.72) rotate(-180)"/><rect class="cls-6" x="-32.03" y="13.79" width="340.39" height="9.09"/><rect class="cls-7" x="-32.03" y="67.73" width="340.39" height="9.09"/><rect class="cls-8" x="-32.03" y="22.88" width="340.39" height="9.09" transform="translate(276.33 54.84) rotate(-180)"/><rect class="cls-9" x="-32.03" y="31.96" width="340.39" height="9.09" transform="translate(276.33 73.01) rotate(-180)"/><rect class="cls-10" x="-32.03" y="58.68" width="340.39" height="9.09" transform="translate(276.33 126.44) rotate(-180)"/><rect class="cls-11" x="-32.03" y="41.05" width="340.39" height="9.09"/></g></mask><linearGradient id="未命名漸層_91" x1="620.34" y1="-47.75" x2="174.66" y2="4.92" xlink:href="#未命名漸層_2"/><linearGradient id="未命名漸層_91-2" x1="624.94" y1="-6.12" x2="179.64" y2="46.51" xlink:href="#未命名漸層_2"/><linearGradient id="未命名漸層_91-3" x1="624.84" y1="-6.3" x2="179.79" y2="46.29" xlink:href="#未命名漸層_2"/><mask id="mask-2" x="-40.05" y="109.96" width="465.9" height="103.03" maskUnits="userSpaceOnUse"><g id="gradient-2" data-name="gradient"><rect class="cls-12" x="-40.05" y="109.96" width="465.9" height="9.43"/><rect class="cls-13" x="-40.05" y="203.56" width="465.9" height="9.43" transform="translate(385.8 416.54) rotate(-180)"/><rect class="cls-14" x="-40.05" y="119.38" width="465.9" height="9.43"/><rect class="cls-15" x="-40.05" y="166.4" width="465.9" height="9.43"/><rect class="cls-16" x="-40.05" y="194.19" width="465.9" height="9.43" transform="translate(385.8 397.81) rotate(-180)"/><rect class="cls-17" x="-40.05" y="128.81" width="465.9" height="9.43"/><rect class="cls-18" x="-40.05" y="184.77" width="465.9" height="9.43"/><rect class="cls-19" x="-40.05" y="138.24" width="465.9" height="9.43" transform="translate(385.8 285.9) rotate(-180)"/><rect class="cls-20" x="-40.05" y="147.66" width="465.9" height="9.43" transform="translate(385.8 304.75) rotate(-180)"/><rect class="cls-21" x="-40.05" y="175.38" width="465.9" height="9.43" transform="translate(385.8 360.18) rotate(-180)"/><rect class="cls-22" x="-40.05" y="157.09" width="465.9" height="9.43"/></g></mask><linearGradient id="未命名漸層_91-4" x1="352.09" y1="117.71" x2="-92.89" y2="170.3" xlink:href="#未命名漸層_2"/><linearGradient id="未命名漸層_91-5" x1="351.03" y1="104.72" x2="-94.61" y2="157.38" xlink:href="#未命名漸層_2"/><linearGradient id="未命名漸層_91-6" x1="356.47" y1="149.37" x2="-89.23" y2="202.04" xlink:href="#未命名漸層_2"/><linearGradient id="未命名漸層_91-7" x1="356.89" y1="151.08" x2="-89.05" y2="203.78" xlink:href="#未命名漸層_2"/><linearGradient id="未命名漸層_91-8" x1="352.88" y1="136.66" x2="-90.33" y2="189.04" xlink:href="#未命名漸層_2"/><linearGradient id="未命名漸層_91-9" x1="359.04" y1="177.86" x2="-86.9" y2="230.56" xlink:href="#未命名漸層_2"/><linearGradient id="未命名漸層_91-10" x1="357.24" y1="163.14" x2="-88.7" y2="215.84" xlink:href="#未命名漸層_2"/><linearGradient id="未命名漸層_91-11" x1="352.27" y1="130.39" x2="-91.53" y2="182.84" xlink:href="#未命名漸層_2"/><linearGradient id="未命名漸層_91-12" x1="354.16" y1="138.98" x2="-91.06" y2="191.6" xlink:href="#未命名漸層_2"/><linearGradient id="未命名漸層_91-13" x1="357.62" y1="154.54" x2="-87.24" y2="207.11" xlink:href="#未命名漸層_2"/><mask id="mask-3" x="38.38" y="26.15" width="253.48" height="47.58" maskUnits="userSpaceOnUse"><g id="shadow"><polygon class="cls-23" points="289.58 29.65 162.43 40.68 162.1 37.18 289.26 26.15 289.58 29.65"/><polygon class="cls-24" points="289.9 33.15 162.75 44.18 162.43 40.68 289.58 29.65 289.9 33.15"/><polygon class="cls-25" points="290.25 36.66 163.09 47.69 162.77 44.19 289.92 33.16 290.25 36.66"/><polygon class="cls-26" points="290.56 40.16 163.41 51.18 163.09 47.68 290.24 36.66 290.56 40.16"/><polygon class="cls-27" points="290.89 43.67 163.74 54.7 163.41 51.2 290.56 40.17 290.89 43.67"/><polygon class="cls-28" points="291.21 47.17 164.06 58.19 163.74 54.69 290.89 43.67 291.21 47.17"/><polygon class="cls-29" points="291.54 50.66 164.38 61.69 164.06 58.19 291.21 47.16 291.54 50.66"/><polygon class="cls-30" points="291.86 54.16 164.71 65.18 164.38 61.68 291.54 50.66 291.86 54.16"/></g></mask><linearGradient id="未命名漸層_206" x1="307.42" y1="393.06" x2="164.57" y2="376.93" gradientTransform="matrix(1.08, -0.1, 0.09, 1, -102.25, -308.59)" gradientUnits="userSpaceOnUse"><stop offset="0" stop-color="#f0cddd"/><stop offset="0.54" stop-color="#fcfdfd"/><stop offset="1" stop-color="#f8eef3"/></linearGradient><linearGradient id="未命名漸層_243" x1="805.34" y1="-388.58" x2="747.17" y2="-350.54" gradientUnits="userSpaceOnUse"><stop offset="0" stop-color="#c96391"/><stop offset="0.78" stop-color="#e397a6"/></linearGradient><linearGradient id="未命名漸層_216" x1="817.22" y1="-370.13" x2="759.09" y2="-332.12" gradientUnits="userSpaceOnUse"><stop offset="0" stop-color="#ee83a0"/><stop offset="0.09" stop-color="#ef8ca7"/><stop offset="0.24" stop-color="#f3a5bc"/><stop offset="0.42" stop-color="#f8cddd"/><stop offset="0.48" stop-color="#fadce9"/><stop offset="1" stop-color="#ea5970"/></linearGradient><linearGradient id="未命名漸層_190" x1="103.5" y1="382.11" x2="290" y2="381.56" gradientTransform="matrix(1.08, -0.1, 0.09, 1, -102.25, -308.59)" gradientUnits="userSpaceOnUse"><stop offset="0" stop-color="#c31341"/><stop offset="0.77" stop-color="#eb9cae"/><stop offset="1" stop-color="#f7c6cf"/></linearGradient><linearGradient id="未命名漸層_101" x1="838.34" y1="-338.38" x2="780.18" y2="-300.35" gradientUnits="userSpaceOnUse"><stop offset="0" stop-color="#e397a6"/><stop offset="1" stop-color="#ee7e7f"/></linearGradient><linearGradient id="未命名漸層_265" x1="838.53" y1="-338.09" x2="780.36" y2="-300.06" gradientUnits="userSpaceOnUse"><stop offset="0" stop-color="#c31341"/><stop offset="1" stop-color="#ee7e7f"/></linearGradient><linearGradient id="未命名漸層_182" x1="840.63" y1="-335.6" x2="782.43" y2="-297.54" gradientUnits="userSpaceOnUse"><stop offset="0" stop-color="#5f0010"/><stop offset="1" stop-color="#a6273d"/></linearGradient><linearGradient id="未命名漸層_199" x1="830.92" y1="-335.4" x2="773.41" y2="-297.8" gradientUnits="userSpaceOnUse"><stop offset="0" stop-color="#fff" stop-opacity="0.8"/><stop offset="0.68" stop-color="#fff" stop-opacity="0.26"/><stop offset="1" stop-color="#fff" stop-opacity="0"/></linearGradient><linearGradient id="未命名漸層_46" x1="830.72" y1="-332.31" x2="773.37" y2="-294.81" gradientUnits="userSpaceOnUse"><stop offset="0" stop-color="#fff" stop-opacity="0.6"/><stop offset="0.9" stop-color="#fff" stop-opacity="0.06"/><stop offset="1" stop-color="#fff" stop-opacity="0"/></linearGradient><linearGradient id="未命名漸層_101-2" x1="805.34" y1="-387.64" x2="747.22" y2="-349.63" xlink:href="#未命名漸層_101"/><linearGradient id="未命名漸層_265-2" x1="805.68" y1="-387.23" x2="747.55" y2="-349.23" xlink:href="#未命名漸層_265"/><linearGradient id="未命名漸層_190-2" x1="807.68" y1="-385.17" x2="749.51" y2="-347.14" gradientTransform="matrix(1, 0, 0, 1, 0, 0)" xlink:href="#未命名漸層_190"/><linearGradient id="未命名漸層_182-2" x1="267.54" y1="376.61" x2="260.07" y2="376.97" gradientTransform="matrix(1.08, -0.1, 0.09, 1, -102.25, -308.59)" xlink:href="#未命名漸層_182"/><linearGradient id="未命名漸層_199-2" x1="265.29" y1="378.22" x2="265.61" y2="375.8" gradientTransform="matrix(1.08, -0.1, 0.09, 1, -102.25, -308.59)" xlink:href="#未命名漸層_199"/><linearGradient id="未命名漸層_199-3" x1="263.7" y1="378.13" x2="264" y2="375.88" gradientTransform="matrix(1.08, -0.1, 0.09, 1, -102.25, -308.59)" xlink:href="#未命名漸層_199"/><linearGradient id="未命名漸層_182-3" x1="256.13" y1="376.74" x2="247.29" y2="376.74" gradientTransform="matrix(1.08, -0.1, 0.09, 1, -102.25, -308.59)" xlink:href="#未命名漸層_182"/><linearGradient id="未命名漸層_199-4" x1="251.75" y1="378.17" x2="252.07" y2="375.76" gradientTransform="matrix(1.08, -0.1, 0.09, 1, -102.25, -308.59)" xlink:href="#未命名漸層_199"/><linearGradient id="未命名漸層_199-5" x1="254.13" y1="378.1" x2="254.43" y2="375.85" gradientTransform="matrix(1.08, -0.1, 0.09, 1, -102.25, -308.59)" xlink:href="#未命名漸層_199"/><linearGradient id="未命名漸層_182-4" x1="243.79" y1="376.6" x2="236.42" y2="376.84" gradientTransform="matrix(1.08, -0.1, 0.09, 1, -102.25, -308.59)" xlink:href="#未命名漸層_182"/><linearGradient id="未命名漸層_199-6" x1="238.92" y1="378.17" x2="239.25" y2="375.67" gradientTransform="matrix(1.08, -0.1, 0.09, 1, -102.25, -308.59)" xlink:href="#未命名漸層_199"/><linearGradient id="未命名漸層_199-7" x1="241.53" y1="378.12" x2="241.85" y2="375.74" gradientTransform="matrix(1.08, -0.1, 0.09, 1, -102.25, -308.59)" xlink:href="#未命名漸層_199"/><linearGradient id="未命名漸層_182-5" x1="225.29" y1="376.48" x2="218.13" y2="376.82" gradientTransform="matrix(1.08, -0.1, 0.09, 1, -102.25, -308.59)" xlink:href="#未命名漸層_182"/><linearGradient id="未命名漸層_199-8" x1="223.12" y1="378.07" x2="223.45" y2="375.67" gradientTransform="matrix(1.08, -0.1, 0.09, 1, -102.25, -308.59)" xlink:href="#未命名漸層_199"/><linearGradient id="未命名漸層_199-9" x1="221.6" y1="377.99" x2="221.9" y2="375.75" gradientTransform="matrix(1.08, -0.1, 0.09, 1, -102.25, -308.59)" xlink:href="#未命名漸層_199"/><linearGradient id="未命名漸層_182-6" x1="214.35" y1="376.61" x2="205.89" y2="376.61" gradientTransform="matrix(1.08, -0.1, 0.09, 1, -102.25, -308.59)" xlink:href="#未命名漸層_182"/><linearGradient id="未命名漸層_199-10" x1="210.15" y1="378.03" x2="210.47" y2="375.63" gradientTransform="matrix(1.08, -0.1, 0.09, 1, -102.25, -308.59)" xlink:href="#未命名漸層_199"/><linearGradient id="未命名漸層_199-11" x1="212.43" y1="377.96" x2="212.73" y2="375.72" gradientTransform="matrix(1.08, -0.1, 0.09, 1, -102.25, -308.59)" xlink:href="#未命名漸層_199"/><linearGradient id="未命名漸層_182-7" x1="202.53" y1="376.47" x2="195.47" y2="376.7" gradientTransform="matrix(1.08, -0.1, 0.09, 1, -102.25, -308.59)" xlink:href="#未命名漸層_182"/><linearGradient id="未命名漸層_199-12" x1="197.86" y1="378.03" x2="198.19" y2="375.55" gradientTransform="matrix(1.08, -0.1, 0.09, 1, -102.25, -308.59)" xlink:href="#未命名漸層_199"/><linearGradient id="未命名漸層_199-13" x1="200.35" y1="377.98" x2="200.67" y2="375.62" gradientTransform="matrix(1.08, -0.1, 0.09, 1, -102.25, -308.59)" xlink:href="#未命名漸層_199"/><linearGradient id="未命名漸層_182-8" x1="178.86" y1="376.35" x2="172.46" y2="376.66" gradientTransform="matrix(1.08, -0.1, 0.09, 1, -102.25, -308.59)" xlink:href="#未命名漸層_182"/><linearGradient id="未命名漸層_199-14" x1="176.91" y1="377.91" x2="177.23" y2="375.54" gradientTransform="matrix(1.08, -0.1, 0.09, 1, -102.25, -308.59)" xlink:href="#未命名漸層_199"/><linearGradient id="未命名漸層_199-15" x1="174.26" y1="377.83" x2="174.56" y2="375.6" gradientTransform="matrix(1.08, -0.1, 0.09, 1, -102.25, -308.59)" xlink:href="#未命名漸層_199"/><linearGradient id="未命名漸層_182-9" x1="169.08" y1="376.47" x2="161.52" y2="376.47" gradientTransform="matrix(1.08, -0.1, 0.09, 1, -102.25, -308.59)" xlink:href="#未命名漸層_182"/><linearGradient id="未命名漸層_199-16" x1="163.85" y1="377.87" x2="164.17" y2="375.5" gradientTransform="matrix(1.08, -0.1, 0.09, 1, -102.25, -308.59)" xlink:href="#未命名漸層_199"/><linearGradient id="未命名漸層_199-17" x1="165.35" y1="377.8" x2="165.65" y2="375.58" gradientTransform="matrix(1.08, -0.1, 0.09, 1, -102.25, -308.59)" xlink:href="#未命名漸層_199"/><linearGradient id="未命名漸層_182-10" x1="158.53" y1="376.34" x2="152.21" y2="376.54" gradientTransform="matrix(1.08, -0.1, 0.09, 1, -102.25, -308.59)" xlink:href="#未命名漸層_182"/><linearGradient id="未命名漸層_199-18" x1="154.33" y1="377.87" x2="154.66" y2="375.43" gradientTransform="matrix(1.08, -0.1, 0.09, 1, -102.25, -308.59)" xlink:href="#未命名漸層_199"/><linearGradient id="未命名漸層_182-11" x1="138.21" y1="376.08" x2="131.84" y2="376.38" gradientTransform="matrix(1.08, -0.1, 0.09, 1, -102.25, -308.59)" xlink:href="#未命名漸層_182"/><linearGradient id="未命名漸層_199-19" x1="136.27" y1="377.63" x2="136.58" y2="375.26" gradientTransform="matrix(1.08, -0.1, 0.09, 1, -102.25, -308.59)" xlink:href="#未命名漸層_199"/><linearGradient id="未命名漸層_199-20" x1="134.91" y1="377.56" x2="135.21" y2="375.33" gradientTransform="matrix(1.08, -0.1, 0.09, 1, -102.25, -308.59)" xlink:href="#未命名漸層_199"/><linearGradient id="未命名漸層_182-12" x1="128.49" y1="376.19" x2="120.97" y2="376.19" gradientTransform="matrix(1.08, -0.1, 0.09, 1, -102.25, -308.59)" xlink:href="#未命名漸層_182"/><linearGradient id="未命名漸層_199-21" x1="124.74" y1="377.6" x2="125.06" y2="375.23" gradientTransform="matrix(1.08, -0.1, 0.09, 1, -102.25, -308.59)" xlink:href="#未命名漸層_199"/><linearGradient id="未命名漸層_199-22" x1="126.77" y1="377.53" x2="127.07" y2="375.31" gradientTransform="matrix(1.08, -0.1, 0.09, 1, -102.25, -308.59)" xlink:href="#未命名漸層_199"/><linearGradient id="未命名漸層_182-13" x1="117.99" y1="376.07" x2="111.71" y2="376.27" gradientTransform="matrix(1.08, -0.1, 0.09, 1, -102.25, -308.59)" xlink:href="#未命名漸層_182"/><linearGradient id="未命名漸層_199-23" x1="113.82" y1="377.59" x2="114.15" y2="375.16" gradientTransform="matrix(1.08, -0.1, 0.09, 1, -102.25, -308.59)" xlink:href="#未命名漸層_199"/><linearGradient id="未命名漸層_199-24" x1="116.04" y1="377.55" x2="116.36" y2="375.22" gradientTransform="matrix(1.08, -0.1, 0.09, 1, -102.25, -308.59)" xlink:href="#未命名漸層_199"/><linearGradient id="未命名漸層_228" x1="163.56" y1="393.27" x2="166.52" y2="369.07" gradientTransform="matrix(1.08, -0.1, 0.09, 1, -102.25, -308.59)" gradientUnits="userSpaceOnUse"><stop offset="0" stop-color="#fff" stop-opacity="0.7"/><stop offset="1" stop-color="#fff" stop-opacity="0.1"/></linearGradient><linearGradient id="未命名漸層_228-2" x1="232.22" y1="392.25" x2="234.85" y2="370.72" xlink:href="#未命名漸層_228"/><linearGradient id="未命名漸層_228-3" x1="119.2" y1="391.69" x2="121.78" y2="370.58" xlink:href="#未命名漸層_228"/><linearGradient id="未命名漸層_228-4" x1="115.04" y1="391.57" x2="117.59" y2="370.69" xlink:href="#未命名漸層_228"/><linearGradient id="未命名漸層_228-5" x1="237.91" y1="391.97" x2="240.47" y2="371.08" xlink:href="#未命名漸層_228"/><linearGradient id="未命名漸層_228-6" x1="214.4" y1="392.46" x2="217.11" y2="370.35" xlink:href="#未命名漸層_228"/><linearGradient id="未命名漸層_3" x1="-75.13" y1="-998.18" x2="-74.64" y2="-985.13" gradientTransform="matrix(0.85, 0.52, -0.52, 0.85, -266.23, 924.25)" gradientUnits="userSpaceOnUse"><stop offset="0" stop-color="#d52568" stop-opacity="0.75"/><stop offset="0.27" stop-color="#d83753" stop-opacity="0.73"/><stop offset="0.75" stop-color="#df6223" stop-opacity="0.7"/></linearGradient><linearGradient id="未命名漸層_3-2" x1="351.69" y1="913.96" x2="352.18" y2="927.01" gradientTransform="matrix(0.88, -0.48, 0.48, 0.88, -573.6, -601.3)" xlink:href="#未命名漸層_3"/><linearGradient id="未命名漸層_3-3" x1="-1089.74" y1="2238.97" x2="-1089.2" y2="2253.27" gradientTransform="matrix(0.02, -1, 1, 0.02, -2048.46, -1097.88)" xlink:href="#未命名漸層_3"/><linearGradient id="未命名漸層_3-4" x1="-2958.99" y1="1655.15" x2="-2958.5" y2="1668.2" gradientTransform="matrix(-0.85, -0.52, 0.52, -0.85, -3215.94, -68.91)" xlink:href="#未命名漸層_3"/><linearGradient id="未命名漸層_3-5" x1="-3388.09" y1="-256.87" x2="-3387.6" y2="-243.82" gradientTransform="matrix(-0.88, 0.48, -0.48, -0.88, -2908.56, 1456.64)" xlink:href="#未命名漸層_3"/><linearGradient id="未命名漸層_3-6" x1="-1945.66" y1="-1585.19" x2="-1945.13" y2="-1570.89" gradientTransform="matrix(-0.02, 1, -1, -0.02, -1433.71, 1953.23)" xlink:href="#未命名漸層_3"/></defs><title>tjexpress</title><g class="cls-31"><g id="圖層_2" data-name="圖層 2"><g id="element"><g id="logotype_eng"><path class="cls-32" d="M308,17.09H304.3V15h10.11v2.1h-3.68v9.09H308Z"/><path class="cls-33" d="M326.81,24.25h-5.67l-.79,1.93h-3L322.28,15h3.39l4.88,11.19h-2.94Zm-4.94-2.06h4.2L324,17.05Z"/><path class="cls-34" d="M335.54,15h2.69V26.18h-2.69Z"/><path class="cls-35" d="M352,18.5l-2.21,7.68h-2.87L343.31,15h3l2.23,8.09L351,15h2.11l2.4,8.09,2.2-8.09h3l-3.61,11.19h-2.87Z"/><path class="cls-36" d="M371.9,24.25h-5.66l-.8,1.93h-3L367.38,15h3.38l4.89,11.19H372.7ZM367,22.19h4.2l-2.09-5.14Z"/><path class="cls-37" d="M382.19,18.67v7.51h-2.7V15h2.77l5.88,7.25V15h2.7V26.18h-2.61Z"/><path class="cls-38" d="M320.65,50a3.06,3.06,0,0,0,2,.81,1.78,1.78,0,0,0,2-1.8V41.48h2.69V49c0,2.65-1.86,3.88-4.46,3.88a5.05,5.05,0,0,1-3.4-1.09Z"/><path class="cls-39" d="M340.73,50.74h-5.67l-.79,1.93h-3l4.9-11.19h3.39l4.88,11.19h-2.94Zm-4.94-2.07H340l-2.09-5.13Z"/><path class="cls-40" d="M349.46,41.48h5.93c2.75,0,4.25,1.64,4.25,3.6s-1.52,3.58-4.25,3.58h-3.24v4h-2.69Zm5.56,2h-2.87v3.09H355c1.07,0,1.87-.6,1.87-1.54A1.66,1.66,0,0,0,355,43.52Z"/><path class="cls-41" d="M371.41,50.74h-5.66l-.8,1.93h-3l4.91-11.19h3.38l4.89,11.19h-3Zm-4.94-2.07h4.2l-2.09-5.13Z"/><path class="cls-42" d="M382.08,45.15v7.52h-2.7V41.48h2.77L388,48.72V41.48h2.7V52.67h-2.61Z"/><path class="cls-43" d="M289.18,67.31h9v2h-6.27v2.43H298v2h-6.14v2.6h6.27V78.5h-9Z"/><path class="cls-44" d="M309.54,74.41l-3.19,4.09h-3.21l4.6-5.74-4.32-5.45h3.21l2.91,3.82,2.87-3.82h3.25l-4.31,5.43L316,78.5h-3.23Z"/><path class="cls-45" d="M321,67.31h5.93c2.75,0,4.26,1.64,4.26,3.61s-1.52,3.57-4.26,3.57h-3.23v4H321Zm5.57,2h-2.87v3.08h2.87c1.06,0,1.86-.6,1.86-1.54A1.66,1.66,0,0,0,326.52,69.36Z"/><path class="cls-46" d="M340.91,74.49h-2v4h-2.7V67.31h5.93c2.65,0,4.26,1.53,4.26,3.61a3.32,3.32,0,0,1-2.77,3.32l2.85,4.26h-3.1Zm.85-5.13h-2.83v3.08h2.83c1.09,0,1.9-.6,1.9-1.54S342.85,69.36,341.76,69.36Z"/><path class="cls-47" d="M351.88,67.31h9v2h-6.27v2.43h6.14v2h-6.14v2.6h6.27V78.5h-9Z"/><path class="cls-48" d="M367,75.11a6,6,0,0,0,4,1.51c1.48,0,2.21-.62,2.21-1.26,0-.84-1.11-1.12-2.57-1.42-2.07-.42-4.73-.93-4.73-3.43,0-1.86,1.82-3.37,4.81-3.37a7.66,7.66,0,0,1,4.94,1.56l-1.5,1.75a5.86,5.86,0,0,0-3.63-1.23c-1.22,0-1.87.47-1.87,1.14s1.07,1,2.53,1.29c2.09.42,4.75,1,4.75,3.46,0,2-1.65,3.59-5.07,3.59a7.86,7.86,0,0,1-5.38-1.78Z"/><path class="cls-49" d="M381.82,75.11a5.93,5.93,0,0,0,4,1.51c1.48,0,2.21-.62,2.21-1.26,0-.84-1.11-1.12-2.57-1.42-2.07-.42-4.73-.93-4.73-3.43,0-1.86,1.82-3.37,4.81-3.37a7.66,7.66,0,0,1,4.94,1.56L389,70.45a5.86,5.86,0,0,0-3.63-1.23c-1.22,0-1.87.47-1.87,1.14s1.07,1,2.53,1.29c2.09.42,4.75,1,4.75,3.46,0,2-1.65,3.59-5.07,3.59a7.84,7.84,0,0,1-5.38-1.78Z"/></g><g id="logotype"><g class="cls-50"><g id="台日"><polygon class="cls-51" points="20.92 7.15 15.07 29.98 128.52 29.98 134.78 5.51 110.02 5.51 107.79 13.77 46.28 13.77 50.45 0 20.92 7.15"/><path class="cls-52" d="M19.74,35.92,7.24,86.55h83l22.51-5.18,11.34-45.45Zm71.6,33.41H34.46l4-15.89H95.15Z"/><path class="cls-53" d="M153.28,6.38,134,84.16h89.56l26.22-6.43L267.13,6.38ZM226,69.65H165.4L177.32,20.9H238Z"/></g></g><g class="cls-54"><g id="特快車"><polygon class="cls-55" points="12.97 116.73 31.62 116.73 29.09 126.51 33.51 126.47 34.39 123.1 54.61 123.11 53.72 126.47 67.02 126.47 63.05 141.62 49.95 141.62 47.17 152.38 60.27 152.38 55.97 168.69 42.87 168.69 36.19 193.87 14.69 198.65 22.54 168.69 0 168.69 4.12 152.38 26.79 152.38 29.62 141.59 6.81 141.62 12.97 116.73"/><polygon class="cls-56" points="71.39 125.23 67.48 139.06 84.69 139.07 83.62 143.16 74.26 143.16 71.58 154.65 116.53 154.64 119.47 143.2 101.57 143.19 102.65 139.07 124.7 139.07 128.3 125.21 106.23 125.19 109.86 111.01 90.98 115.55 88.53 125.18 71.39 125.23"/><polygon class="cls-57" points="126.18 158.75 115.45 158.76 116.53 154.64 93.16 154.64 92.08 158.77 64.06 158.78 60.85 171.34 88.78 171.36 79.38 207.96 104.06 202.97 112.15 171.36 123.04 171.37 126.18 158.75"/><ellipse class="cls-58" cx="63.88" cy="185.71" rx="14.17" ry="9.55"/><polygon class="cls-59" points="168.83 122.57 191.46 117.37 185.14 142.75 193.24 142.75 189.28 159.15 182.26 159.15 171.79 196.43 150.43 196.43 168.83 122.57"/><ellipse class="cls-60" cx="257.39" cy="189.87" rx="13.83" ry="9.32"/><ellipse class="cls-61" cx="241.16" cy="176.86" rx="7.99" ry="5.39"/><polygon class="cls-62" points="145.81 135.47 162.18 135.47 152.68 173.3 136.25 173.3 145.81 135.47"/><path class="cls-63" d="M258.66,151.33l7-27.91H234.7l2.48-10.23-20.59,5-1.12,4.6-13.83,0L197.83,138l13.83,0-3.3,13.26H194.55l-4.28,15.56h13.84l-22.33,28.4h31.08L223.73,167H269l4.33-15.62Zm-21.22,0h-9.57L231,138.11h9.69Z"/><path class="cls-64" d="M374.53,189.39v-1.86h13.78l.79-3.13H367v-1.85h22.62l1-3.85-45.55,0,1.39-5.58h35.81l9.2-37H355.45l1.32-5.32h32.86L393,117H360.21l1.68-6.78H341.38L339.7,117H291.21l-.88,3.54h25.09v1.86H289.87l-.67,2.67h13.95V127H288.74l-1,4h48.48l-1.29,5.23-36.58-.05-9.07,37h36.34l-1.38,5.57h-33.9l-3.55,14.14h33.86L318,203l20.67,0,2.9-10.13H387l.88-3.48Zm-21-44.56h16.72l-1.36,5.49H352.14Zm-3.59,13.6h16.93l-1.36,5.49H348.54Zm-22,5.49H312l1.37-5.49h15.84Zm3.54-13.6h-16l1.37-5.49h16Z"/></g></g><g class="cls-65"><g id="train"><g id="train_body" data-name="train body"><path id="train_bg" data-name="train bg" class="cls-66" d="M285.52,40.53,259.33,29.39h0a6.49,6.49,0,0,0-2.61-.29h0l-7.14.61L38.51,48l0,0,2.34,25.66s0,0,0,0L251.2,55.47l7.14-.62,1.39-.12L279.61,53c3.22-.28,10.7-1.87,11.45-5.43.63-3-2-5.86-5.54-7Z"/><path id="line" class="cls-67" d="M263,30.89l-3.57-1.53h0a6.54,6.54,0,0,0-2.62-.29h0l-7.15.62L38.4,48s0,0,0,0l.15,2.32Z"/><path id="line-2" data-name="line" class="cls-68" d="M40.7,73.71a0,0,0,0,0,0,0L251.34,55.47l7.15-.62,1.38-.12L279.78,53c3.22-.28,10.72-1.88,11.46-5.44.39-1.83-.44-3.93-3.11-5.89L39.75,63.17Z"/><path id="line-3" data-name="line" class="cls-69" d="M40.11,67.33,291.2,45.56a7.57,7.57,0,0,0-3-3.89L39.75,63.17Z"/><path id="line-4" data-name="line" class="cls-70" d="M39.61,61.94l246.3-21.35-.21-.08h0l-1-.42L39.58,61.34Z"/></g><g id="front"><path class="cls-71" d="M249.54,41.71,280.65,39c.41,0,.54-.43.18-.56L265.55,32a1,1,0,0,0-.49-.06l-14.27,1.23a.82.82,0,0,0-.77.55l-1.37,7.39C248.58,41.44,249,41.75,249.54,41.71Z"/><path class="cls-72" d="M249.54,41.71,280.65,39c.41,0,.54-.43.18-.56l-13.24-5.61-17.7,1.53-1.23,6.69C248.58,41.44,249,41.75,249.54,41.71Z"/><path class="cls-73" d="M279.31,37.8l-11.72-5h0c-.41,0-.72.3-.69.59l.45,4.87c0,.29.38.5.79.47Z"/><polygon class="cls-74" points="256.85 41.09 262.68 40.58 263.99 34.17 258.14 34.67 256.85 41.09"/><polygon class="cls-75" points="263.13 40.58 266.74 40.26 268.06 33.84 264.41 34.16 263.13 40.58"/><polygon class="cls-76" points="249.11 38.62 275.8 36.31 267.64 32.83 249.89 34.37 249.11 38.62"/></g><g id="window_lline" data-name="window lline"><path class="cls-77" d="M39.42,59.93,242.58,42.31a.82.82,0,0,0,.77-.54l1.59-7.41c.08-.38-.35-.7-.89-.65L38.64,51.52Z"/><path class="cls-78" d="M244.84,34.81l-1.49,7a.82.82,0,0,1-.77.54L39.42,59.93l-.62-7.26Z"/><path id="line-5" data-name="line" class="cls-79" d="M39.37,59l.05.9L242.58,42.31a.82.82,0,0,0,.77-.54l.09-.44Z"/><g id="windows"><g id="window"><path class="cls-80" d="M213.28,42.86l7.85-.68c.27,0,.52-.18.55-.35l.46-2.36c0-.17-.16-.29-.43-.27l-7.85.68c-.27,0-.52.18-.55.35l-.46,2.37C212.82,42.76,213,42.88,213.28,42.86Z"/><polygon class="cls-81" points="217.76 42.47 220.03 42.27 220.57 39.79 218.3 39.99 217.76 42.47"/><polygon class="cls-82" points="216.83 42.55 217.48 42.49 218.02 40.02 217.38 40.07 216.83 42.55"/></g><g id="window-2" data-name="window"><path class="cls-83" d="M200.45,44l7.85-.68a.61.61,0,0,0,.55-.35l.46-2.36c0-.17-.17-.29-.44-.26L201,41c-.27,0-.52.18-.55.35L200,43.71C200,43.88,200.17,44,200.45,44Z"/><polygon class="cls-84" points="203.07 43.74 205.34 43.55 205.89 41.07 203.62 41.26 203.07 43.74"/><polygon class="cls-85" points="206.46 43.45 207.11 43.39 207.65 40.91 207.01 40.97 206.46 43.45"/></g><g id="window-3" data-name="window"><path class="cls-86" d="M187.8,45.07l7.85-.68c.27,0,.52-.18.55-.35l.46-2.36c0-.17-.16-.29-.44-.27l-7.84.68a.63.63,0,0,0-.56.35l-.45,2.37C187.33,45,187.53,45.09,187.8,45.07Z"/><polygon class="cls-87" points="188.8 44.98 191.78 44.72 192.35 42.24 189.53 42.48 188.8 44.98"/><polygon class="cls-88" points="192.19 44.69 194.06 44.53 194.6 42.05 192.74 42.21 192.19 44.69"/></g></g><g id="windows-2" data-name="windows"><g id="window-4" data-name="window"><path class="cls-89" d="M167.81,46.8l7.52-.65a.56.56,0,0,0,.53-.35l.43-2.36c0-.17-.15-.29-.41-.26l-7.52.65a.56.56,0,0,0-.53.35l-.43,2.36C167.37,46.71,167.55,46.82,167.81,46.8Z"/><polygon class="cls-90" points="172.1 46.43 174.28 46.24 174.79 43.76 172.62 43.95 172.1 46.43"/><polygon class="cls-91" points="171.21 46.51 171.83 46.45 172.34 43.98 171.73 44.03 171.21 46.51"/></g><g id="window-5" data-name="window"><path class="cls-92" d="M155.51,47.87l7.52-.65c.27,0,.5-.18.53-.35l.43-2.36c0-.17-.15-.29-.42-.27l-7.52.66c-.26,0-.49.17-.52.34l-.43,2.36C155.07,47.77,155.25,47.89,155.51,47.87Z"/><polygon class="cls-93" points="158.03 47.65 160.21 47.46 160.72 44.98 158.54 45.17 158.03 47.65"/><polygon class="cls-94" points="161.28 47.37 161.9 47.31 162.41 44.84 161.79 44.89 161.28 47.37"/></g><g id="window-6" data-name="window"><path class="cls-95" d="M143.39,48.92l7.52-.65c.27,0,.5-.18.53-.35l.43-2.36c0-.17-.15-.29-.41-.27l-7.52.66c-.27,0-.5.17-.53.34L143,48.65C143,48.82,143.13,48.94,143.39,48.92Z"/><polygon class="cls-96" points="144.36 48.84 147.21 48.59 147.75 46.11 145.05 46.34 144.36 48.84"/><polygon class="cls-97" points="147.6 48.55 149.39 48.4 149.9 45.92 148.12 46.08 147.6 48.55"/></g></g><g id="windows-3" data-name="windows"><g id="window-7" data-name="window"><path class="cls-98" d="M118.31,51.09l6.72-.58a.49.49,0,0,0,.47-.34l.36-2.36c0-.16-.14-.28-.37-.26l-6.72.58a.51.51,0,0,0-.47.34l-.36,2.35C117.91,51,118.08,51.11,118.31,51.09Z"/><polygon class="cls-99" points="122.14 50.76 124.09 50.59 124.52 48.12 122.58 48.29 122.14 50.76"/><polygon class="cls-100" points="119.96 50.95 120.51 50.9 120.94 48.43 120.39 48.48 119.96 50.95"/></g><g id="window-8" data-name="window"><path class="cls-101" d="M107.32,52.05l6.72-.59a.49.49,0,0,0,.47-.34l.36-2.35c0-.17-.14-.29-.37-.27l-6.72.58a.51.51,0,0,0-.47.34L107,51.78C106.92,52,107.09,52.07,107.32,52.05Z"/><polygon class="cls-102" points="107.98 51.99 109.93 51.82 110.36 49.35 108.42 49.52 107.98 51.99"/><polygon class="cls-103" points="110.3 51.79 110.85 51.74 111.28 49.27 110.73 49.32 110.3 51.79"/></g><g id="window-9" data-name="window"><path class="cls-104" d="M96.5,53l6.72-.58a.49.49,0,0,0,.46-.34l.37-2.35c0-.17-.15-.29-.38-.27L97,50a.51.51,0,0,0-.47.34l-.36,2.36C96.1,52.88,96.26,53,96.5,53Z"/><polygon class="cls-105" points="97.36 52.91 99.91 52.69 100.36 50.22 97.95 50.42 97.36 52.91"/></g></g><g id="windows-4" data-name="windows"><g id="window-10" data-name="window"><path class="cls-106" d="M74.26,54.77l6.68-.58a.53.53,0,0,0,.47-.34l.36-2.36c0-.17-.15-.29-.38-.27l-6.68.58a.5.5,0,0,0-.46.34l-.36,2.36C73.86,54.67,74,54.79,74.26,54.77Z"/><polygon class="cls-107" points="78.07 54.44 80 54.27 80.43 51.8 78.5 51.97 78.07 54.44"/><polygon class="cls-108" points="77.28 54.51 77.83 54.46 78.26 51.99 77.71 52.03 77.28 54.51"/></g><g id="window-11" data-name="window"><path class="cls-109" d="M63.34,55.71,70,55.13a.49.49,0,0,0,.46-.34l.36-2.35c0-.17-.14-.29-.37-.27l-6.68.58a.51.51,0,0,0-.47.34L63,55.45C62.94,55.61,63.11,55.73,63.34,55.71Z"/><polygon class="cls-110" points="65.57 55.52 67.51 55.35 67.94 52.88 66 53.05 65.57 55.52"/><polygon class="cls-111" points="68.45 55.27 69.01 55.22 69.43 52.75 68.89 52.8 68.45 55.27"/></g><g id="window-12" data-name="window"><path class="cls-112" d="M52.57,56.65l6.68-.58a.53.53,0,0,0,.47-.34l.36-2.36c0-.17-.15-.29-.38-.27L53,53.68a.5.5,0,0,0-.46.34l-.36,2.36C52.17,56.55,52.34,56.67,52.57,56.65Z"/><polygon class="cls-113" points="53.43 56.57 55.96 56.35 56.41 53.88 54.02 54.09 53.43 56.57"/><polygon class="cls-114" points="56.31 56.32 57.9 56.19 58.33 53.71 56.74 53.85 56.31 56.32"/></g></g><polygon id="line-6" data-name="line" class="cls-76" points="243.93 39.07 244.84 34.81 38.8 52.67 39.18 56.83 243.93 39.07"/></g><path id="texture" class="cls-115" d="M285.7,40.51,259.47,29.36h0a6.54,6.54,0,0,0-2.62-.29h0l-7.15.62L38.4,48s0,0,0,0L40.7,73.71a0,0,0,0,0,0,0L251.34,55.47l7.15-.62,1.38-.12L279.78,53c3.22-.28,10.72-1.88,11.46-5.44.63-3-2-5.86-5.54-7.05Z"/><g id="light"><polygon class="cls-116" points="127.02 66.25 131.86 42.26 93.69 45.57 89.46 69.5 127.02 66.25"/><polygon class="cls-117" points="186.75 61.07 191.87 37.06 183.12 37.81 178 61.83 186.75 61.07"/><polygon class="cls-118" points="61.99 71.88 67.11 47.87 62.74 48.25 57.62 72.26 61.99 71.88"/><polygon class="cls-119" points="56.24 72.38 61.36 48.37 59.44 48.54 54.32 72.55 56.24 72.38"/><polygon class="cls-120" points="189.47 60.83 194.59 36.82 192.66 36.99 187.55 61 189.47 60.83"/><polygon class="cls-121" points="170.58 62.47 175.71 38.46 160.72 39.76 155.6 63.77 170.58 62.47"/></g></g></g><g id="flower"><path class="cls-122" d="M191,41.23c-.23.34-.48.65-.73,1a10.67,10.67,0,0,1-.8.84c-1.54,1.25-4.16,2.17-6,1.18s-2.25-3.43-1.56-5.25c.14-.34.31-.67.49-1s.4-.68.63-1c2.31-3.34,7.19-5.37,8.64-4.58C192.94,33.05,193.28,37.89,191,41.23Z"/><path class="cls-123" d="M184.69,39.42s0,.08,0,.12a.41.41,0,0,1,0,.11.5.5,0,0,1-.34.48.57.57,0,0,1-.55-.29.47.47,0,0,1-.05-.1.56.56,0,0,1,0-.12c-.11-.4.08-.86.25-.9S184.58,39,184.69,39.42Z"/><path class="cls-123" d="M185.31,41.36a.61.61,0,0,1-.07.1l-.08.09a.64.64,0,0,1-.63.12.46.46,0,0,1-.16-.55.47.47,0,0,1,0-.1l.06-.11c.25-.35.75-.56.91-.48S185.56,41,185.31,41.36Z"/><path class="cls-123" d="M186.41,42l-.08.1-.08.09a.62.62,0,0,1-.62.12.45.45,0,0,1-.17-.55l0-.1.07-.11c.24-.35.75-.56.9-.48S186.65,41.6,186.41,42Z"/><path class="cls-123" d="M188,41.94l-.13,0h-.13c-.22,0-.49-.11-.54-.3s.12-.4.32-.49l.12,0,.13,0c.45-.09,1,.07,1,.23S188.48,41.84,188,41.94Z"/><path class="cls-124" d="M179.78,36.86c.21.35.4.69.57,1s.31.69.44,1c.45,1.8,0,4.26-1.84,5.17s-4.5,0-5.94-1.43a10.58,10.58,0,0,1-.74-.89,11.37,11.37,0,0,1-.68-1c-2.12-3.44-1.67-8.18-.18-8.9C172.74,31.27,177.66,33.42,179.78,36.86Z"/><path class="cls-123" d="M174.86,40.76l.13,0,.12,0c.18.11.36.32.29.51a.59.59,0,0,1-.55.28l-.13,0-.13,0c-.45-.11-.81-.49-.76-.64S174.42,40.64,174.86,40.76Z"/><path class="cls-123" d="M177.08,41.25l.06.1a.76.76,0,0,1,0,.11A.46.46,0,0,1,177,42a.61.61,0,0,1-.62-.15l-.08-.09a.61.61,0,0,0-.07-.1c-.22-.36-.17-.86,0-.93S176.86,40.89,177.08,41.25Z"/><path class="cls-123" d="M178.21,40.7l0,.11a.54.54,0,0,1,.05.11.47.47,0,0,1-.19.54.6.6,0,0,1-.62-.15l-.08-.09-.07-.1c-.22-.36-.17-.86,0-.93S178,40.35,178.21,40.7Z"/><path class="cls-123" d="M179,39.46a.36.36,0,0,1,0,.11,1.17,1.17,0,0,1-.05.11.6.6,0,0,1-.57.26.48.48,0,0,1-.32-.49.5.5,0,0,1,0-.12l0-.11c.13-.39.56-.71.73-.67S179.14,39.07,179,39.46Z"/><path class="cls-125" d="M169.9,43.23c.44,0,.88,0,1.3.08a11.73,11.73,0,0,1,1.23.18c2,.56,4.2,2.1,4.15,4s-2.24,3.44-4.37,3.82c-.4.06-.81.1-1.24.13s-.86,0-1.3,0c-4.44-.1-8.86-2.81-8.82-4.32C160.89,45.81,165.47,43.13,169.9,43.23Z"/><path class="cls-123" d="M171.26,48.94l.1-.08.11-.07a.63.63,0,0,1,.64,0,.45.45,0,0,1,0,.57l-.08.09-.1.09c-.33.28-.89.37-1,.25S170.93,49.22,171.26,48.94Z"/><path class="cls-123" d="M172.85,47.48H173l.12,0c.21.06.44.22.44.42s-.24.36-.46.4h-.26c-.47,0-.93-.29-.92-.45S172.39,47.47,172.85,47.48Z"/><path class="cls-123" d="M172.88,46.35H173l.13,0c.2.06.44.22.43.42s-.23.36-.46.4h-.26c-.46,0-.93-.29-.92-.45S172.42,46.34,172.88,46.35Z"/><path class="cls-123" d="M172.06,45.12l.09.09.08.09a.46.46,0,0,1,0,.57.61.61,0,0,1-.64,0l-.1-.07-.1-.09c-.32-.29-.42-.78-.29-.89S171.74,44.82,172.06,45.12Z"/><path class="cls-126" d="M171.2,54c.24-.33.48-.65.74-1a10.72,10.72,0,0,1,.79-.85c1.54-1.24,4.16-2.16,6-1.18s2.25,3.44,1.57,5.25a10.52,10.52,0,0,1-.5,1,9.91,9.91,0,0,1-.63,1c-2.31,3.34-7.18,5.37-8.64,4.59C169.24,62.14,168.89,57.3,171.2,54Z"/><path class="cls-123" d="M177.49,55.77l0-.11s0-.08,0-.12a.5.5,0,0,1,.34-.47.56.56,0,0,1,.56.28l.05.11,0,.11c.11.4-.08.87-.25.9S177.6,56.17,177.49,55.77Z"/><path class="cls-123" d="M176.86,53.84a.39.39,0,0,1,.08-.1.34.34,0,0,1,.08-.09.62.62,0,0,1,.62-.13.47.47,0,0,1,.17.55l-.06.11a.53.53,0,0,1-.06.1c-.24.35-.75.56-.9.48S176.62,54.18,176.86,53.84Z"/><path class="cls-123" d="M175.76,53.24l.08-.09a.36.36,0,0,1,.08-.09.64.64,0,0,1,.63-.13.46.46,0,0,1,.16.55.54.54,0,0,1-.05.11.61.61,0,0,1-.07.1c-.24.35-.75.56-.9.48S175.52,53.59,175.76,53.24Z"/><path class="cls-123" d="M174.14,53.26l.14,0h.13c.22,0,.49.11.54.31s-.12.4-.33.48l-.12.05-.13,0c-.45.1-1-.07-1-.22S173.69,53.35,174.14,53.26Z"/><path class="cls-127" d="M182.39,58.33c-.21-.34-.4-.69-.57-1a9.14,9.14,0,0,1-.43-1c-.45-1.79,0-4.26,1.84-5.16s4.49,0,5.93,1.43a10.83,10.83,0,0,1,.75.88c.23.31.46.64.67,1,2.12,3.44,1.68,8.18.18,8.9C189.44,63.93,184.51,61.77,182.39,58.33Z"/><path class="cls-123" d="M187.31,54.44l-.13,0-.11,0c-.19-.1-.36-.31-.3-.5a.57.57,0,0,1,.56-.28h.13l.13,0c.44.12.81.5.76.65A1.21,1.21,0,0,1,187.31,54.44Z"/><path class="cls-123" d="M185.1,54a.3.3,0,0,1-.06-.11.54.54,0,0,1,0-.11.47.47,0,0,1,.19-.54.6.6,0,0,1,.62.15l.08.09.07.11c.22.36.17.85,0,.92S185.32,54.31,185.1,54Z"/><path class="cls-123" d="M184,54.49l-.06-.11,0-.11a.48.48,0,0,1,.2-.54.59.59,0,0,1,.61.15.39.39,0,0,1,.08.1.36.36,0,0,1,.07.1c.22.36.18.85,0,.93A1.09,1.09,0,0,1,184,54.49Z"/><path class="cls-123" d="M183.17,55.73s0-.07,0-.11l.06-.11a.6.6,0,0,1,.57-.26.49.49,0,0,1,.31.49.5.5,0,0,1,0,.12.2.2,0,0,1,0,.11c-.13.4-.56.72-.73.67S183,56.12,183.17,55.73Z"/><path class="cls-128" d="M192.27,52c-.44,0-.88,0-1.3-.09a12.13,12.13,0,0,1-1.23-.18c-2-.56-4.2-2.1-4.15-4s2.24-3.44,4.37-3.82c.4-.06.82-.1,1.24-.13s.86,0,1.31,0c4.43.1,8.86,2.81,8.81,4.31C201.29,49.38,196.71,52.07,192.27,52Z"/><path class="cls-123" d="M190.91,46.26l-.1.08-.11.06a.63.63,0,0,1-.64,0,.45.45,0,0,1,0-.57l.08-.09.09-.08c.34-.29.89-.37,1-.26S191.25,46,190.91,46.26Z"/><path class="cls-123" d="M189.32,47.71h-.13l-.13,0c-.21-.06-.44-.22-.43-.42s.23-.35.45-.39l.13,0h.14c.46,0,.92.29.92.45S189.79,47.72,189.32,47.71Z"/><path class="cls-123" d="M189.29,48.84h-.13l-.13,0c-.21-.06-.44-.22-.44-.41s.24-.36.46-.4l.13,0h.14c.46,0,.92.29.92.45S189.75,48.85,189.29,48.84Z"/><path class="cls-123" d="M190.11,50.07,190,50l-.07-.09a.46.46,0,0,1,0-.57.66.66,0,0,1,.65,0l.1.07.1.08c.32.3.42.79.29.89A1.13,1.13,0,0,1,190.11,50.07Z"/></g></g></g></g></g></svg>