<?xml version="1.0" encoding="UTF-8"?>
<svg width="250px" height="62px" viewBox="0 0 250 62" version="1.1" xmlns="http://www.w3.org/2000/svg" xmlns:xlink="http://www.w3.org/1999/xlink">
    <!-- Generator: Sketch 53.2 (72643) - https://sketchapp.com -->
    <title>input/search/result/mobile</title>
    <desc>Created with Sketch.</desc>
    <defs>
        <filter x="-3.2%" y="-26.7%" width="106.4%" height="153.3%" filterUnits="objectBoundingBox" id="filter-1">
            <feOffset dx="0" dy="1" in="SourceAlpha" result="shadowOffsetOuter1"></feOffset>
            <feGaussianBlur stdDeviation="1.5" in="shadowOffsetOuter1" result="shadowBlurOuter1"></feGaussianBlur>
            <feColorMatrix values="0 0 0 0 0   0 0 0 0 0   0 0 0 0 0  0 0 0 0.5 0" type="matrix" in="shadowBlurOuter1" result="shadowMatrixOuter1"></feColorMatrix>
            <feMerge>
                <feMergeNode in="shadowMatrixOuter1"></feMergeNode>
                <feMergeNode in="SourceGraphic"></feMergeNode>
            </feMerge>
        </filter>
    </defs>
    <g id="input/search/result/mobile" stroke="none" stroke-width="1" fill="none" fill-rule="evenodd">
        <g id="search">
            <rect id="Rectangle" fill="#EAEAEA" x="0" y="0" width="250" height="30" rx="4"></rect>
            <path d="M25.0057176,16.8050314 L24.3733562,16.8050314 L24.1492281,16.5889079 C24.9336764,15.6763865 25.4059463,14.4917095 25.4059463,13.2029731 C25.4059463,10.329331 23.0766152,8 20.2029731,8 C17.329331,8 15,10.329331 15,13.2029731 C15,16.0766152 17.329331,18.4059463 20.2029731,18.4059463 C21.4917095,18.4059463 22.6763865,17.9336764 23.5889079,17.1492281 L23.8050314,17.3733562 L23.8050314,18.0057176 L27.8073185,22 L29,20.8073185 L25.0057176,16.8050314 Z M20.2029731,16.8050314 C18.2098342,16.8050314 16.6009148,15.1961121 16.6009148,13.2029731 C16.6009148,11.2098342 18.2098342,9.60091481 20.2029731,9.60091481 C22.1961121,9.60091481 23.8050314,11.2098342 23.8050314,13.2029731 C23.8050314,15.1961121 22.1961121,16.8050314 20.2029731,16.8050314 Z" id="Shape" fill="#4A4A4A" fill-rule="nonzero"></path>
            <text id="input-text" font-family="SourceHanSansTW-Bold, Source Han Sans TW" font-size="12" font-weight="bold" letter-spacing="1" fill="#4A4A4A">
                <tspan x="45" y="20">POIEM</tspan>
                <tspan x="88.832" y="20">A</tspan>
            </text>
            <path d="M106,6 L106,25" id="Line" stroke="#000000" stroke-width="0.5" stroke-linecap="square"></path>
            <g id="search_result" filter="url(#filter-1)" transform="translate(0.000000, 32.000000)">
                <rect id="Rectangle" fill="#828282" x="0" y="0" width="250" height="30"></rect>
                <text id="result" font-family="SourceHanSansTW-Bold, Source Han Sans TW" font-size="12" font-weight="bold" letter-spacing="1" fill="#FFFFFF">
                    <tspan x="16" y="19.8181818">POIEMA 車用空氣淨化器｜大口呼吸</tspan>
                    <tspan x="228.248" y="19.8181818">，</tspan>
                </text>
            </g>
        </g>
    </g>
</svg>